<?xml version="1.0" encoding="UTF-8" standalone="no"?>
<!-- Created with Inkscape (http://www.inkscape.org/) -->

<svg
   width="22"
   height="22"
   viewBox="0 0 5.8208333 5.8208336"
   version="1.1"
   id="svg5"
   inkscape:version="1.1.2 (0a00cf5339, 2022-02-04, custom)"
   sodipodi:docname="applications-all.svg"
   xmlns:inkscape="http://www.inkscape.org/namespaces/inkscape"
   xmlns:sodipodi="http://sodipodi.sourceforge.net/DTD/sodipodi-0.dtd"
   xmlns="http://www.w3.org/2000/svg"
   xmlns:svg="http://www.w3.org/2000/svg">
  <sodipodi:namedview
     id="namedview7"
     pagecolor="#ffffff"
     bordercolor="#666666"
     borderopacity="1.0"
     inkscape:pageshadow="2"
     inkscape:pageopacity="0.0"
     inkscape:pagecheckerboard="0"
     inkscape:document-units="px"
     showgrid="false"
     units="px"
     height="64px"
     inkscape:zoom="37.454545"
     inkscape:cx="11"
     inkscape:cy="11"
     inkscape:window-width="1920"
     inkscape:window-height="1026"
     inkscape:window-x="0"
     inkscape:window-y="0"
     inkscape:window-maximized="1"
     inkscape:current-layer="svg5"
     showguides="false" />
  <defs
     id="defs2" />
  <path
     id="rect1136"
     style="opacity:1;fill:#1b64ee;stroke-width:5.82084;stroke-linecap:round;stroke-linejoin:round;fill-opacity:1"
     d="M 0.79374999,0 H 5.0270837 c 0.4397375,0 0.79375,0.35401249 0.79375,0.79374999 V 5.0270837 c 0,0.4397375 -0.3540125,0.79375 -0.79375,0.79375 H 0.79374999 C 0.35401249,5.8208337 0,5.4668212 0,5.0270837 V 0.79374999 C 0,0.35401249 0.35401249,0 0.79374999,0 Z" />
  <path
     id="rect1469"
     style="opacity:1;fill:#528fff;stroke-width:0.529167;stroke-linecap:round;stroke-linejoin:round;fill-opacity:1"
     d="M 0.79375004,0.26458334 H 5.0270836 c 0.2931584,0 0.5291667,0.23600834 0.5291667,0.5291667 V 5.0270836 c 0,0.2931583 -0.2360083,0.5291667 -0.5291667,0.5291667 H 0.79375004 c -0.29315835,0 -0.5291667,-0.2360084 -0.5291667,-0.5291667 V 0.79375004 c 0,-0.29315836 0.23600835,-0.5291667 0.5291667,-0.5291667 z" />
  <path
     id="rect1389"
     style="opacity:1;fill:#ffffff;fill-opacity:1;stroke-width:1.16666"
     d="M 4 3 C 3.446 3 3 3.446 3 4 L 3 9 C 3 9.554 3.446 10 4 10 L 9 10 C 9.554 10 10 9.554 10 9 L 10 4 C 10 3.446 9.554 3 9 3 L 4 3 z M 13 3 C 12.446 3 12 3.446 12 4 L 12 9 C 12 9.554 12.446 10 13 10 L 18 10 C 18.554 10 19 9.554 19 9 L 19 4 C 19 3.446 18.554 3 18 3 L 13 3 z M 13 4 L 18 4 L 18 9 L 13 9 L 13 4 z M 4 12 C 3.4460003 12 3 12.446 3 13 L 3 18 C 3 18.554 3.4460003 19 4 19 L 9 19 C 9.5540001 19 10 18.554 10 18 L 10 13 C 10 12.446 9.5540001 12 9 12 L 4 12 z M 13 12 C 12.446 12 12 12.446 12 13 L 12 18 C 12 18.554 12.446 19 13 19 L 18 19 C 18.554 19 19 18.554 19 18 L 19 13 C 19 12.446 18.554 12 18 12 L 13 12 z M 4 13 L 9 13 L 9 18 L 4 18 L 4 13 z M 13 13 L 18 13 L 18 18 L 13 18 L 13 13 z "
     transform="scale(0.26458334)" />
</svg>
