<?xml version="1.0" encoding="UTF-8" standalone="no"?>
<!-- Created with Inkscape (http://www.inkscape.org/) -->

<svg
   width="22"
   height="22"
   viewBox="0 0 5.8208333 5.8208336"
   version="1.1"
   id="svg5"
   inkscape:version="1.1.2 (0a00cf5339, 2022-02-04, custom)"
   sodipodi:docname="internet-mail.svg"
   xmlns:inkscape="http://www.inkscape.org/namespaces/inkscape"
   xmlns:sodipodi="http://sodipodi.sourceforge.net/DTD/sodipodi-0.dtd"
   xmlns="http://www.w3.org/2000/svg"
   xmlns:svg="http://www.w3.org/2000/svg">
  <sodipodi:namedview
     id="namedview7"
     pagecolor="#ffffff"
     bordercolor="#666666"
     borderopacity="1.0"
     inkscape:pageshadow="2"
     inkscape:pageopacity="0.0"
     inkscape:pagecheckerboard="0"
     inkscape:document-units="px"
     showgrid="false"
     units="px"
     height="64px"
     inkscape:zoom="16.791667"
     inkscape:cx="5.3300248"
     inkscape:cy="9.8263027"
     inkscape:window-width="1851"
     inkscape:window-height="1009"
     inkscape:window-x="69"
     inkscape:window-y="31"
     inkscape:window-maximized="1"
     inkscape:current-layer="svg5"
     showguides="false" />
  <defs
     id="defs2" />
  <path
     id="rect937"
     style="fill:#c19017;fill-opacity:1;stroke-width:0.264583;stroke-linecap:round;stroke-linejoin:round"
     d="M 0.52916668,0 H 5.291667 C 5.5848253,0 5.8208337,0.23600835 5.8208337,0.5291667 V 5.291667 c 0,0.2931584 -0.2360084,0.5291667 -0.5291667,0.5291667 H 0.52916668 C 0.23600828,5.8208336 0,5.5848253 0,5.291667 V 0.5291667 C 0,0.23600835 0.23600828,0 0.52916668,0 Z"
     sodipodi:nodetypes="sssssssss" />
  <path
     id="rect1273"
     style="fill:#f6ba29;fill-opacity:1;stroke-width:0.264583;stroke-linecap:round;stroke-linejoin:round"
     d="M 0.52916668,0.26458335 H 5.2916667 c 0.1465792,0 0.2645834,0.11800417 0.2645834,0.26458335 V 5.291667 c 0,0.1465792 -0.1180042,0.2645834 -0.2645834,0.2645834 H 0.52916668 c -0.1465792,0 -0.2645834,-0.1180042 -0.2645834,-0.2645834 V 0.5291667 c 0,-0.14657918 0.1180042,-0.26458335 0.2645834,-0.26458335 z"
     sodipodi:nodetypes="sssssssss" />
  <path
     d="M 0.52916668,0.26458335 H 5.2916668 c 0.1465792,0 0.2645834,0.11800417 0.2645834,0.26458334 V 4.2333337 c 0,0.1465791 -0.1180042,0.2645834 -0.2645834,0.2645834 H 0.52916668 c -0.1465792,0 -0.2645834,-0.1180042 -0.2645834,-0.2645834 V 0.52916669 c 0,-0.14657917 0.1180042,-0.26458334 0.2645834,-0.26458334 z"
     style="fill:#f9f06b;fill-opacity:1;stroke-width:0.0700043;stroke-linecap:round;stroke-linejoin:round"
     id="path2456"
     sodipodi:nodetypes="sssssssss" />
  <path
     id="rect2786"
     style="fill:#f7bc2c;fill-opacity:1;stroke-width:0.264583;stroke-linecap:round;stroke-linejoin:round"
     d="M 0.66145838,0.5291667 H 5.1593753 c 0.07329,0 0.1322917,0.0590021 0.1322917,0.13229167 V 4.1010419 c 0,0.07329 -0.059002,0.1322916 -0.1322917,0.1322916 H 0.66145838 c -0.07329,0 -0.1322917,-0.059002 -0.1322917,-0.1322916 V 0.66145837 c 0,-0.0732896 0.059002,-0.13229167 0.1322917,-0.13229167 z"
     sodipodi:nodetypes="sssssssss" />
  <path
     id="rect5405"
     style="opacity:0.2;stroke-width:0.264583;stroke-linecap:round;stroke-linejoin:round"
     d="M 0.66145838,1.0583333 H 5.1593753 c 0.07329,0 0.1322917,0.059002 0.1322917,0.1322917 v 2.9104166 c 0,0.07329 -0.059002,0.1322917 -0.1322917,0.1322917 H 0.66145838 c -0.07329,0 -0.1322917,-0.059002 -0.1322917,-0.1322917 V 1.190625 c 0,-0.07329 0.059002,-0.1322917 0.1322917,-0.1322917 z"
     sodipodi:nodetypes="sssssssss" />
  <path
     id="rect5545"
     style="opacity:1;fill:#f6f5f4;fill-opacity:1;stroke-width:0.264583;stroke-linecap:round;stroke-linejoin:round"
     d="M 0.79374986,1.3229166 H 5.0270835 v 2.9104169 h -0.79375 V 4.4979167 H 1.5875 V 4.2333335 H 0.79374986 Z"
     sodipodi:nodetypes="ccccccccc" />
  <path
     id="rect6512"
     style="opacity:1;fill:#f9f06b;fill-opacity:1;stroke-width:0.264583;stroke-linecap:round;stroke-linejoin:round"
     d="m 1.5875,4.4979167 v 0.2645834 c 0,0.1465792 0.1180042,0.2645833 0.2645834,0.2645833 h 2.1166667 c 0.1465792,0 0.2645833,-0.1180041 0.2645833,-0.2645833 V 4.4979167 c 0,0.1465792 -0.1180041,0.2645834 -0.2645833,0.2645834 H 1.8520834 C 1.7055042,4.7625001 1.5875,4.644496 1.5875,4.4979167 Z"
     sodipodi:nodetypes="csssscssc" />
  <path
     d="m 4.2333334,4.4979167 c 0,0.1465792 -0.1180039,0.2645834 -0.2645831,0.2645834 H 1.8520833 C 1.7055042,4.7625001 1.5875,4.644496 1.5875,4.4979167 Z"
     style="opacity:1;fill:#cccccc;fill-opacity:1;stroke-width:0.0700043;stroke-linecap:round;stroke-linejoin:round"
     id="path8349"
     sodipodi:nodetypes="csscc" />
  <path
     id="rect2061"
     style="opacity:0.1;stroke-width:0.264583;stroke-linecap:round;stroke-linejoin:round"
     d="M 0.79374986,3.9687498 2.9104167,2.38125 5.0270835,3.9687498 v 0.2645837 l -4.23333364,3e-7 z"
     sodipodi:nodetypes="cccccc" />
  <path
     id="rect1244"
     style="opacity:1;fill:#f0f0ee;stroke-width:0.264583;stroke-linecap:round;stroke-linejoin:round"
     d="m 2.9104166,2.6458333 2.1166668,1.5875005 -0.7937499,-3e-7 V 4.4979167 H 1.5875001 l -1e-7,-0.2645832 -0.79375014,3e-7 z"
     sodipodi:nodetypes="cccccccc" />
  <path
     id="path3808"
     style="color:#000000;opacity:0.1;fill:#000000;stroke:none;stroke-width:0.264583;stroke-linecap:round;stroke-linejoin:round;-inkscape-stroke:none"
     d="M 0.79323326,1.3229166 V 1.6955037 L 2.5672852,3.3129761 c 0.1977311,0.168951 0.4905989,0.1689507 0.6883302,0 L 5.0265667,1.6634643 V 1.3229166 Z" />
  <path
     style="color:#000000;fill:#f6f5f4;fill-opacity:1;stroke:none;stroke-width:0.529167;stroke-linecap:round;stroke-linejoin:round;-inkscape-stroke:none"
     d="M 0.79426676,1.3229166 2.7393684,3.1119549 c 0.098294,0.083987 0.2458709,0.083987 0.344165,0 L 5.0265672,1.3229166 Z"
     id="path3806"
     sodipodi:nodetypes="ccccc" />
</svg>
