<?xml version="1.0" encoding="UTF-8" standalone="no"?>
<!-- Created with Inkscape (http://www.inkscape.org/) -->

<svg
   width="22"
   height="22"
   viewBox="0 0 5.8208333 5.8208336"
   version="1.1"
   id="svg5"
   inkscape:version="1.1.2 (0a00cf5339, 2022-02-04, custom)"
   sodipodi:docname="kmix.svg"
   xmlns:inkscape="http://www.inkscape.org/namespaces/inkscape"
   xmlns:sodipodi="http://sodipodi.sourceforge.net/DTD/sodipodi-0.dtd"
   xmlns="http://www.w3.org/2000/svg"
   xmlns:svg="http://www.w3.org/2000/svg">
  <sodipodi:namedview
     id="namedview7"
     pagecolor="#ffffff"
     bordercolor="#666666"
     borderopacity="1.0"
     inkscape:pageshadow="2"
     inkscape:pageopacity="0.0"
     inkscape:pagecheckerboard="0"
     inkscape:document-units="px"
     showgrid="false"
     units="px"
     height="64px"
     inkscape:zoom="16.134891"
     inkscape:cx="5.5159963"
     inkscape:cy="8.4909157"
     inkscape:window-width="1920"
     inkscape:window-height="1026"
     inkscape:window-x="0"
     inkscape:window-y="0"
     inkscape:window-maximized="1"
     inkscape:current-layer="svg5"
     showguides="false" />
  <defs
     id="defs2" />
  <path
     id="rect1136"
     style="opacity:0.7;fill:#252831;stroke-width:5.82084;stroke-linecap:round;stroke-linejoin:round;fill-opacity:1"
     d="M 0.79374999,0 H 5.0270837 c 0.4397375,0 0.79375,0.35401249 0.79375,0.79374999 V 5.0270837 c 0,0.4397375 -0.3540125,0.79375 -0.79375,0.79375 H 0.79374999 C 0.35401249,5.8208337 0,5.4668212 0,5.0270837 V 0.79374999 C 0,0.35401249 0.35401249,0 0.79374999,0 Z" />
  <path
     id="rect1469"
     style="opacity:1;fill:#424755;stroke-width:0.529167;stroke-linecap:round;stroke-linejoin:round;fill-opacity:1"
     d="M 0.79375004,0.26458334 H 5.0270836 c 0.2931584,0 0.5291667,0.23600834 0.5291667,0.5291667 V 5.0270836 c 0,0.2931583 -0.2360083,0.5291667 -0.5291667,0.5291667 H 0.79375004 c -0.29315835,0 -0.5291667,-0.2360084 -0.5291667,-0.5291667 V 0.79375004 c 0,-0.29315836 0.23600835,-0.5291667 0.5291667,-0.5291667 z" />
  <path
     id="path7712"
     style="opacity:0.7;fill:#27212f;fill-opacity:1;stroke-width:0.226786;stroke-linecap:round;stroke-linejoin:round"
     d="m 2.9104166,0.52916668 c -1.315128,0 -2.38124992,1.06612192 -2.38124992,2.38124992 -3e-8,1.3151282 1.06612192,2.3812502 2.38124992,2.3812502 1.3151282,0 2.3812502,-1.066122 2.3812502,-2.3812502 0,-1.315128 -1.066122,-2.38124995 -2.3812502,-2.38124992 z"
     sodipodi:nodetypes="sssss" />
  <circle
     style="fill:#7c8295;fill-opacity:1;stroke:none;stroke-width:0.205774;stroke-linecap:round;stroke-linejoin:round"
     id="path1212"
     cx="2.9104166"
     cy="2.9104166"
     r="2.1166668" />
  <circle
     style="fill:#282c35;fill-opacity:1;stroke:none;stroke-width:0.235186;stroke-linecap:round;stroke-linejoin:round"
     id="path7311"
     cx="2.9104168"
     cy="2.9104168"
     r="1.0583334" />
  <circle
     style="fill:#424755;fill-opacity:1;stroke:none;stroke-width:0.198438;stroke-linecap:round;stroke-linejoin:round"
     id="path7657"
     cx="2.9104168"
     cy="2.9104168"
     r="0.79374999" />
</svg>
