<?xml version="1.0" encoding="UTF-8" standalone="no"?>
<!-- Created with Inkscape (http://www.inkscape.org/) -->

<svg
   width="22"
   height="22"
   viewBox="0 0 5.8208332 5.8208336"
   version="1.1"
   id="svg5"
   inkscape:version="1.1.2 (0a00cf5339, 2022-02-04, custom)"
   sodipodi:docname="ktip.svg"
   xmlns:inkscape="http://www.inkscape.org/namespaces/inkscape"
   xmlns:sodipodi="http://sodipodi.sourceforge.net/DTD/sodipodi-0.dtd"
   xmlns="http://www.w3.org/2000/svg"
   xmlns:svg="http://www.w3.org/2000/svg">
  <sodipodi:namedview
     id="namedview7"
     pagecolor="#ffffff"
     bordercolor="#666666"
     borderopacity="1.0"
     inkscape:pageshadow="2"
     inkscape:pageopacity="0.0"
     inkscape:pagecheckerboard="0"
     inkscape:document-units="px"
     showgrid="false"
     units="px"
     height="64px"
     inkscape:zoom="12.952911"
     inkscape:cx="7.9132791"
     inkscape:cy="17.602221"
     inkscape:window-width="1851"
     inkscape:window-height="1009"
     inkscape:window-x="69"
     inkscape:window-y="31"
     inkscape:window-maximized="1"
     inkscape:current-layer="svg5"
     showguides="false" />
  <defs
     id="defs2" />
  <path
     id="path1283"
     style="color:#000000;fill:#4ea2f3;fill-opacity:1;stroke:none;stroke-width:0.135518;stroke-linejoin:round;-inkscape-stroke:none"
     d="m 2.9104167,0.13229167 c -1.534316,2.5e-7 -2.77812481,1.24380893 -2.77812503,2.77812493 2.2e-7,1.5343159 1.24380903,2.7781248 2.77812503,2.778125 1.5343159,-2e-7 2.778125,-1.2438091 2.778125,-2.778125 0,-1.534316 -1.2438091,-2.77812468 -2.778125,-2.77812493 z"
     sodipodi:nodetypes="sssss" />
  <path
     id="path1285"
     style="color:#000000;opacity:0.35;fill:#002e99;fill-opacity:1;stroke:none;stroke-width:0.523774;stroke-linejoin:round;-inkscape-stroke:none"
     d="M 2.9104168,0 C 1.3039733,0 -6.9999997e-8,1.3039732 0,2.9104167 3.7e-7,4.5168599 1.3039735,5.8208335 2.9104168,5.8208335 4.5168597,5.820833 5.820833,4.5168599 5.8208335,2.9104167 5.8208335,1.3039735 4.5168599,3.2e-7 2.9104168,0 Z m 0,0.26458334 c 1.4612533,2.4e-7 2.6458334,1.18457996 2.6458334,2.64583336 0,1.4612533 -1.1845801,2.6458332 -2.6458334,2.6458334 C 1.4491634,5.5562499 0.26458363,4.37167 0.26458334,2.9104167 0.26458363,1.4491633 1.4491634,0.26458358 2.9104168,0.26458334 Z" />
  <path
     d="m 3.0020174,1.5002786 c -0.097318,0 -0.1810115,-0.035034 -0.2510806,-0.1051033 -0.070069,-0.070069 -0.1051034,-0.1537625 -0.1051034,-0.2510805 0,-0.097318 0.035035,-0.17906514 0.1051034,-0.24524144 0.070069,-0.070069 0.1537626,-0.1051034 0.2510806,-0.1051034 0.097318,0 0.1810112,0.035035 0.2510803,0.1051034 0.070069,0.066176 0.1051033,0.14792334 0.1051033,0.24524144 0,0.097318 -0.035036,0.1810114 -0.1051033,0.2510805 -0.066177,0.070069 -0.1498696,0.1051033 -0.2510803,0.1051033 z M 2.7567759,2.0491523 H 3.2472585 V 5.0270834 H 2.7567759 Z"
     style="font-size:13.8678px;line-height:1.25;font-family:'Google Sans';-inkscape-font-specification:'Google Sans';fill:#f2f2f2;fill-opacity:1;stroke-width:0.0386232"
     id="path48347" />
</svg>
