<?xml version="1.0" encoding="UTF-8" standalone="no"?>
<!-- Created with Inkscape (http://www.inkscape.org/) -->

<svg
   width="22"
   height="22"
   viewBox="0 0 5.8208333 5.8208336"
   version="1.1"
   id="svg5"
   inkscape:version="1.1.2 (0a00cf5339, 2022-02-04, custom)"
   sodipodi:docname="preferences-system-startup.svg"
   xmlns:inkscape="http://www.inkscape.org/namespaces/inkscape"
   xmlns:sodipodi="http://sodipodi.sourceforge.net/DTD/sodipodi-0.dtd"
   xmlns="http://www.w3.org/2000/svg"
   xmlns:svg="http://www.w3.org/2000/svg">
  <sodipodi:namedview
     id="namedview7"
     pagecolor="#ffffff"
     bordercolor="#666666"
     borderopacity="1.0"
     inkscape:pageshadow="2"
     inkscape:pageopacity="0.0"
     inkscape:pagecheckerboard="0"
     inkscape:document-units="px"
     showgrid="false"
     units="px"
     height="64px"
     inkscape:zoom="12.840416"
     inkscape:cx="-4.4001689"
     inkscape:cy="5.2568389"
     inkscape:window-width="1920"
     inkscape:window-height="1019"
     inkscape:window-x="0"
     inkscape:window-y="31"
     inkscape:window-maximized="1"
     inkscape:current-layer="g1913"
     showguides="false" />
  <defs
     id="defs2" />
  <path
     id="path1233"
     style="color:#000000;opacity:0.3;fill:#42557f;fill-opacity:1;stroke:none;stroke-width:0.066146;-inkscape-stroke:none"
     d="m 2.1166669,3.9687501 v 0.79375 h -0.529167 v 0.79375 h 2.6458335 v -0.79375 H 3.7041667 V 3.96875 Z"
     sodipodi:nodetypes="ccccccccc" />
  <path
     id="rect950"
     style="fill:#fafafa;fill-opacity:1;stroke-width:0.0630675;stroke-linejoin:round"
     d="M 2.3812502,3.9687501 V 5.0270835 H 1.8520839 v 0.2645831 h 2.1166665 l -3e-7,-0.2645831 H 3.4395834 V 3.9687501 Z"
     sodipodi:nodetypes="ccccccccc" />
  <path
     id="rect3650"
     style="opacity:1;fill:#252831;stroke-width:0.264583;stroke-linejoin:round"
     d="M 0.26458335,0.26458334 H 5.5562502 c 0.1465792,0 0.2645834,0.11800417 0.2645834,0.26458335 V 4.2333333 c 0,0.1465791 -0.1180042,0.2645833 -0.2645834,0.2645833 H 0.26458335 C 0.11800417,4.4979166 0,4.3799124 0,4.2333333 V 0.52916669 C 0,0.38258751 0.11800417,0.26458334 0.26458335,0.26458334 Z"
     sodipodi:nodetypes="sssssssss" />
  <path
     id="rect3862"
     style="opacity:1;fill:#414757;stroke-width:0.264583;stroke-linejoin:round"
     d="M 0.26458335,0.52916669 H 5.55625 V 4.2333333 H 0.26458335 Z"
     sodipodi:nodetypes="ccccc" />
  <path
     id="rect6269"
     style="opacity:1;fill:#000000;stroke-width:0.264583;stroke-linejoin:round"
     d="m 0.5291667,0.79375006 h 4.7625 V 3.96875 h -4.7625 z"
     sodipodi:nodetypes="ccccc" />
  <g
     id="g1913"
     transform="matrix(0.13229167,0,0,0.13229167,0,-0.13229167)"
     style="opacity:0.5">
    <path
       d="m 14,9 h 20 v 2 H 14 Z m 0,4 h 16 v 2 H 14 Z m 0,3.9997 h 12 v 2.0001 H 14 Z m 0,4.001 H 34 V 23 H 14 Z M 14,25 h 12 v 2 H 14 Z"
       style="fill:#ffffff;stroke-width:1.4142"
       id="path864"
       sodipodi:nodetypes="ccccccccccccccccccccccccc" />
    <path
       id="rect1559"
       style="fill:#41f045;fill-opacity:1;stroke-width:2;stroke-linecap:round;stroke-linejoin:round"
       d="m 6,9 v 2 h 6 V 9 Z m 0,4 v 2 h 6 v -2 z m 0,4 v 2 h 6 v -2 z m 0,4 v 2 h 6 v -2 z m 0,4 v 2 h 6 v -2 z"
       sodipodi:nodetypes="ccccccccccccccccccccccccc" />
  </g>
</svg>
