<?xml version="1.0" encoding="UTF-8" standalone="no"?>
<!-- Created with Inkscape (http://www.inkscape.org/) -->

<svg
   width="22"
   height="22"
   viewBox="0 0 5.8208332 5.8208336"
   version="1.1"
   id="svg5"
   inkscape:version="1.1.2 (0a00cf5339, 2022-02-04, custom)"
   sodipodi:docname="preferences-desktop-color.svg"
   xmlns:inkscape="http://www.inkscape.org/namespaces/inkscape"
   xmlns:sodipodi="http://sodipodi.sourceforge.net/DTD/sodipodi-0.dtd"
   xmlns="http://www.w3.org/2000/svg"
   xmlns:svg="http://www.w3.org/2000/svg">
  <sodipodi:namedview
     id="namedview7"
     pagecolor="#ffffff"
     bordercolor="#666666"
     borderopacity="1.0"
     inkscape:pageshadow="2"
     inkscape:pageopacity="0.0"
     inkscape:pagecheckerboard="0"
     inkscape:document-units="px"
     showgrid="false"
     units="px"
     height="64px"
     inkscape:zoom="24.96875"
     inkscape:cx="16"
     inkscape:cy="16"
     inkscape:window-width="1920"
     inkscape:window-height="1019"
     inkscape:window-x="0"
     inkscape:window-y="31"
     inkscape:window-maximized="1"
     inkscape:current-layer="svg5"
     showguides="false" />
  <defs
     id="defs2" />
  <path
     style="color:#000000;opacity:0.3;fill:#4f6698;fill-opacity:1;stroke:none;stroke-width:0.523775;stroke-linejoin:round;-inkscape-stroke:none"
     d="M 2.9104166,0 C 1.3039731,0 -6.9999997e-8,1.3039731 0,2.9104166 3.7e-7,4.5168598 1.3039734,5.8208335 2.9104166,5.8208335 4.5168595,5.820833 5.8208329,4.5168596 5.8208334,2.9104166 5.8208334,1.3039734 4.5168598,3.2e-7 2.9104166,0 Z"
     id="path1285"
     sodipodi:nodetypes="sssss" />
  <g
     id="g1547"
     transform="matrix(0.49999998,0,0,0.49999998,-0.26458334,-0.26458334)">
    <path
       d="m 4.0583133,1.7537245 1.0583333,1e-7 1.2332605,4.5963335 -3.3713819,-3.3697999 z"
       style="fill:#ff5474;fill-opacity:1;stroke-width:0.529167;stroke-linecap:round;stroke-linejoin:round"
       id="path47268" />
    <path
       d="M 1.7737666,3.8899494 2.9785252,2.9802582 6.3499071,6.3500581 1.7523118,5.1164831 Z"
       style="fill:#e92f61;fill-opacity:1;stroke-width:0.529167;stroke-linecap:round;stroke-linejoin:round"
       id="path7876"
       sodipodi:nodetypes="ccccc" />
    <path
       d="M 1.2445999,6.357099 1.7523118,5.1164831 6.3499071,6.3500581 1.7523118,7.5836327 Z"
       style="fill:#e861e2;fill-opacity:1;stroke-width:0.529167;stroke-linecap:round;stroke-linejoin:round"
       id="path11402"
       sodipodi:nodetypes="ccccc" />
    <path
       d="M 1.7737666,8.8242486 1.7523118,7.5836327 6.3499074,6.3500581 2.9785252,9.7198573 Z"
       style="fill:#421ca8;fill-opacity:1;stroke-width:0.529167;stroke-linecap:round;stroke-linejoin:round"
       id="path14778"
       sodipodi:nodetypes="ccccc" />
    <path
       d="M 10.926047,8.8242486 10.947502,7.5836327 6.3499071,6.3500581 9.7212893,9.7198573 Z"
       style="fill:#cee834;fill-opacity:1;stroke-width:0.529167;stroke-linecap:round;stroke-linejoin:round"
       id="path38501" />
    <path
       d="M 3.9118879,10.712244 2.9785252,9.7198573 6.3499074,6.3500581 5.1166466,10.946392 Z"
       style="fill:#139dcb;fill-opacity:1;stroke-width:0.529167;stroke-linecap:round;stroke-linejoin:round"
       id="path17315"
       sodipodi:nodetypes="ccccc" />
    <path
       d="M 8.7879269,10.712244 9.7212893,9.7198573 6.3499071,6.3500581 7.5831679,10.946392 Z"
       style="fill:#32d439;fill-opacity:1;stroke-width:0.529167;stroke-linecap:round;stroke-linejoin:round"
       id="path42328" />
    <path
       d="M 6.3145297,11.409611 5.1166466,10.946392 6.3499071,6.3500581 7.5831679,10.946392 Z"
       style="fill:#3ed4f0;fill-opacity:1;stroke-width:0.529167;stroke-linecap:round;stroke-linejoin:round"
       id="path19812"
       sodipodi:nodetypes="ccccc" />
    <path
       d="M 6.3145297,1.1586105 5.1166466,1.7537246 6.3499071,6.3500582 7.5831679,1.7537246 Z"
       style="fill:#ee332c;fill-opacity:1;stroke-width:0.529167;stroke-linecap:round;stroke-linejoin:round"
       id="path22659"
       sodipodi:nodetypes="ccccc" />
    <path
       d="M 8.9818176,1.8559775 7.5831679,1.7537245 6.3499071,6.3500581 9.7212893,2.9802582 Z"
       style="fill:#fa7c1a;fill-opacity:1;stroke-width:0.529167;stroke-linecap:round;stroke-linejoin:round"
       id="path30307"
       sodipodi:nodetypes="ccccc" />
    <path
       d="m 10.758652,3.6312361 0.18885,1.485247 -4.5975949,1.233575 3.3713822,-3.3697999 z"
       style="fill:#f7ac1b;fill-opacity:1;stroke-width:0.529167;stroke-linecap:round;stroke-linejoin:round"
       id="path30427"
       sodipodi:nodetypes="ccccc" />
    <path
       d="M 11.287819,6.3500579 10.947502,7.5836327 6.3499071,6.3500581 10.947502,5.1164831 Z"
       style="fill:#ffe600;fill-opacity:1;stroke-width:0.529167;stroke-linecap:round;stroke-linejoin:round"
       id="path33822"
       sodipodi:nodetypes="ccccc" />
  </g>
  <path
     id="path1283"
     style="color:#000000;fill:#fcfcfc;fill-opacity:1;stroke:none;stroke-width:0.487805;stroke-linejoin:round;-inkscape-stroke:none"
     d="m 11,1 c -5.5228471,9e-7 -9.9999992,4.4771526 -10,10 8e-7,5.522847 4.4771529,9.999999 10,10 5.522847,-1e-6 10,-4.477153 10,-10 C 21,5.4771526 16.522847,1.0000009 11,1 Z m 0,2 a 8.0000004,8.0000004 0 0 1 8,8 8.0000004,8.0000004 0 0 1 -8,8 8.0000004,8.0000004 0 0 1 -8,-8 8.0000004,8.0000004 0 0 1 8,-8 z"
     transform="scale(0.26458334)" />
  <path
     id="path1281"
     style="opacity:0.3;fill:#4f6698;fill-opacity:1;stroke:none;stroke-width:0.888888;stroke-linecap:round;stroke-linejoin:round"
     d="m 11,3 c -4.4182775,-2e-7 -8.0000002,3.5817221 -8,8 -2e-7,4.418278 3.5817225,8 8,8 4.418279,0 8,-3.581722 8,-8 0,-4.4182779 -3.581721,-8.0000002 -8,-8 z m 0,1 c 3.865994,0 7,3.1340067 7,7 0,3.865993 -3.134006,7 -7,7 C 7.1340071,18 4,14.865993 4,11 4,7.1340067 7.1340071,4 11,4 Z"
     transform="scale(0.26458334)" />
  <circle
     style="opacity:0.25;fill:#ffffff;fill-opacity:1;stroke:none;stroke-width:0.235185;stroke-linecap:round;stroke-linejoin:round"
     id="path1593"
     cx="2.9104168"
     cy="2.9104168"
     r="2.1166668" />
</svg>
