<?xml version="1.0" encoding="UTF-8" standalone="no"?>
<!-- Created with Inkscape (http://www.inkscape.org/) -->

<svg
   width="22"
   height="22"
   viewBox="0 0 5.8208331 5.8208336"
   version="1.1"
   id="svg2469"
   inkscape:version="1.1.2 (0a00cf5339, 2022-02-04, custom)"
   sodipodi:docname="preferences-system-hotcorner.svg"
   xmlns:inkscape="http://www.inkscape.org/namespaces/inkscape"
   xmlns:sodipodi="http://sodipodi.sourceforge.net/DTD/sodipodi-0.dtd"
   xmlns="http://www.w3.org/2000/svg"
   xmlns:svg="http://www.w3.org/2000/svg">
  <sodipodi:namedview
     id="namedview2471"
     pagecolor="#ffffff"
     bordercolor="#666666"
     borderopacity="1.0"
     inkscape:pageshadow="2"
     inkscape:pageopacity="0.0"
     inkscape:pagecheckerboard="0"
     inkscape:document-units="px"
     showgrid="false"
     units="px"
     inkscape:zoom="11.873501"
     inkscape:cx="-2.4845241"
     inkscape:cy="12.717395"
     inkscape:window-width="1851"
     inkscape:window-height="1009"
     inkscape:window-x="69"
     inkscape:window-y="31"
     inkscape:window-maximized="1"
     inkscape:current-layer="svg2469" />
  <defs
     id="defs2466" />
  <path
     id="rect1358"
     style="opacity:1;fill:#4fa4f4;stroke-width:0.529167;stroke-linecap:round;stroke-linejoin:round"
     d="M 0.52916666,0.66145834 H 5.2916668 c 0.2198687,0 0.396875,0.17700624 0.396875,0.39687506 v 3.7041667 c 0,0.2198687 -0.1770063,0.396875 -0.396875,0.396875 H 0.52916666 c -0.21986875,0 -0.396875,-0.1770063 -0.396875,-0.396875 V 1.0583334 c 0,-0.21986882 0.17700625,-0.39687506 0.396875,-0.39687506 z" />
  <path
     id="path4529"
     style="opacity:0.15;fill:#000000;fill-opacity:1;stroke-width:0.0525034;stroke-linecap:round"
     d="m 0.52916666,0.66145833 c -0.21986875,0 -0.396875,0.17700615 -0.396875,0.39687497 v 1.190625 c 0.87675204,0 1.58750014,-0.7107479 1.58749994,-1.58749997 z" />
  <path
     id="path4649"
     style="opacity:0.15;fill:#000000;fill-opacity:1;stroke-width:0.00926105;stroke-linecap:round"
     d="m 0.52916666,0.66145833 c -0.21986875,0 -0.396875,0.17700615 -0.396875,0.39687497 v 0.6614584 c 0.58450144,0 1.05833354,-0.473832 1.05833334,-1.05833337 z" />
  <path
     id="path4529-3"
     style="opacity:0.15;fill:#000000;fill-opacity:1;stroke-width:0.0525034;stroke-linecap:round"
     d="m 5.6885416,3.571875 c -0.8767522,0 -1.5875,0.7107481 -1.5875,1.5875 h 1.190625 c 0.2198687,0 0.396875,-0.1770063 0.396875,-0.396875 z" />
  <path
     id="path4649-6"
     style="opacity:0.15;fill:#000000;fill-opacity:1;stroke-width:0.00926105;stroke-linecap:round"
     d="m 5.6885416,4.1010416 c -0.5845014,0 -1.0583336,0.473832 -1.0583333,1.0583334 h 0.6614583 c 0.2198687,0 0.396875,-0.1770063 0.396875,-0.396875 z" />
  <path
     id="rect2552"
     style="opacity:0.35;fill:#002eb9;fill-opacity:1;stroke-width:0.32208;stroke-linejoin:round"
     d="M 0.52916666,0.52916667 C 0.2360083,0.52916667 0,0.76517498 0,1.0583333 V 4.7625 C 0,5.0556583 0.2360083,5.2916666 0.52916666,5.2916666 H 5.2916666 c 0.2931583,0 0.5291667,-0.2360083 0.5291667,-0.5291666 V 1.0583333 c 0,-0.29315832 -0.2360084,-0.52916663 -0.5291667,-0.52916663 z m 0,0.26458331 H 5.2916666 c 0.1465792,0 0.2645833,0.1180042 0.2645833,0.26458332 V 4.7625 c 0,0.1465791 -0.1180041,0.2645833 -0.2645833,0.2645833 H 0.52916666 C 0.38258747,5.0270833 0.26458333,4.9090791 0.26458333,4.7625 V 1.0583333 c 0,-0.14657912 0.11800414,-0.26458332 0.26458333,-0.26458332 z"
     sodipodi:nodetypes="ssssssssssssssssss" />
</svg>
