<?xml version="1.0" encoding="UTF-8" standalone="no"?>
<!-- Created with Inkscape (http://www.inkscape.org/) -->

<svg
   width="22"
   height="22"
   viewBox="0 0 5.8208333 5.8208336"
   version="1.1"
   id="svg5"
   inkscape:version="1.1.2 (0a00cf5339, 2022-02-04, custom)"
   sodipodi:docname="preferences-system-privacy.svg"
   xmlns:inkscape="http://www.inkscape.org/namespaces/inkscape"
   xmlns:sodipodi="http://sodipodi.sourceforge.net/DTD/sodipodi-0.dtd"
   xmlns="http://www.w3.org/2000/svg"
   xmlns:svg="http://www.w3.org/2000/svg">
  <sodipodi:namedview
     id="namedview7"
     pagecolor="#ffffff"
     bordercolor="#666666"
     borderopacity="1.0"
     inkscape:pageshadow="2"
     inkscape:pageopacity="0.0"
     inkscape:pagecheckerboard="0"
     inkscape:document-units="px"
     showgrid="false"
     units="px"
     height="64px"
     inkscape:zoom="16.791667"
     inkscape:cx="9.617866"
     inkscape:cy="16.138958"
     inkscape:window-width="1851"
     inkscape:window-height="1009"
     inkscape:window-x="69"
     inkscape:window-y="31"
     inkscape:window-maximized="1"
     inkscape:current-layer="svg5"
     showguides="false" />
  <defs
     id="defs2" />
  <path
     id="rect1136"
     style="opacity:0.8;fill:#000000;stroke-width:5.82084;stroke-linecap:round;stroke-linejoin:round"
     d="M 0.79374996,0 H 5.0270837 c 0.4397375,0 0.79375,0.35401249 0.79375,0.79374996 V 5.0270837 c 0,0.4397375 -0.3540125,0.79375 -0.79375,0.79375 H 0.79374996 C 0.35401249,5.8208337 0,5.4668212 0,5.0270837 V 0.79374996 C 0,0.35401249 0.35401249,0 0.79374996,0 Z" />
  <path
     id="rect1469"
     style="opacity:1;fill:#4d4d4d;fill-opacity:1;stroke-width:0.529167;stroke-linecap:round;stroke-linejoin:round"
     d="M 0.79375006,0.26458334 H 5.0270836 c 0.2931584,0 0.5291667,0.23600834 0.5291667,0.52916672 V 5.0270836 c 0,0.2931583 -0.2360083,0.5291667 -0.5291667,0.5291667 H 0.79375006 c -0.29315837,0 -0.52916672,-0.2360084 -0.52916672,-0.5291667 V 0.79375006 c 0,-0.29315838 0.23600835,-0.52916672 0.52916672,-0.52916672 z" />
  <circle
     style="opacity:0.15;fill:#ffffff;fill-opacity:1;stroke-width:0.529167;stroke-linecap:round;stroke-linejoin:round"
     id="path1151"
     cx="2.9104168"
     cy="2.9104168"
     r="2.1166668" />
  <circle
     style="opacity:0.25;fill:#ffffff;fill-opacity:1;stroke-width:0.529167;stroke-linecap:round;stroke-linejoin:round"
     id="path1295"
     cx="2.9104166"
     cy="2.9104166"
     r="1.5875001" />
  <path
     id="path1421"
     style="opacity:1;fill:#ffffff;fill-opacity:1;stroke-width:0.705556;stroke-linecap:round;stroke-linejoin:round"
     d="M 2.9104167,1.3229167 2.5026896,1.9347657 A 1.0583334,1.0583334 0 0 0 1.8520834,2.9104168 1.0583334,1.0583334 0 0 0 2.9104167,3.9687501 1.0583334,1.0583334 0 0 0 3.9687501,2.9104168 1.0583334,1.0583334 0 0 0 3.3176269,1.9337322 Z" />
</svg>
