<?xml version="1.0" encoding="UTF-8" standalone="no"?>
<!-- Created with Inkscape (http://www.inkscape.org/) -->

<svg
   width="22"
   height="22"
   viewBox="0 0 5.8208332 5.8208336"
   version="1.1"
   id="svg5"
   inkscape:version="1.1.2 (0a00cf5339, 2022-02-04, custom)"
   sodipodi:docname="preferences-desktop-accessibility.svg"
   xmlns:inkscape="http://www.inkscape.org/namespaces/inkscape"
   xmlns:sodipodi="http://sodipodi.sourceforge.net/DTD/sodipodi-0.dtd"
   xmlns="http://www.w3.org/2000/svg"
   xmlns:svg="http://www.w3.org/2000/svg">
  <sodipodi:namedview
     id="namedview7"
     pagecolor="#ffffff"
     bordercolor="#666666"
     borderopacity="1.0"
     inkscape:pageshadow="2"
     inkscape:pageopacity="0.0"
     inkscape:pagecheckerboard="0"
     inkscape:document-units="px"
     showgrid="false"
     units="px"
     height="64px"
     inkscape:zoom="36.636364"
     inkscape:cx="10.986352"
     inkscape:cy="11"
     inkscape:window-width="1851"
     inkscape:window-height="1009"
     inkscape:window-x="69"
     inkscape:window-y="31"
     inkscape:window-maximized="1"
     inkscape:current-layer="svg5"
     showguides="false" />
  <defs
     id="defs2" />
  <path
     id="path1283"
     style="color:#000000;fill:#4ea2f3;fill-opacity:1;stroke:none;stroke-width:0.135518;stroke-linejoin:round;-inkscape-stroke:none"
     d="m 2.9104167,0.13229167 c -1.534316,2.5e-7 -2.77812481,1.24380893 -2.77812503,2.77812493 2.2e-7,1.5343159 1.24380903,2.7781248 2.77812503,2.778125 1.5343159,-2e-7 2.778125,-1.2438091 2.778125,-2.778125 0,-1.534316 -1.2438091,-2.77812468 -2.778125,-2.77812493 z"
     sodipodi:nodetypes="sssss" />
  <path
     id="path1285"
     style="color:#000000;opacity:0.35;fill:#002e99;fill-opacity:1;stroke:none;stroke-width:1.97962;stroke-linejoin:round;-inkscape-stroke:none"
     d="M 11 0 C 4.9284026 0 -2.6456692e-07 4.9284026 0 11 C 1.3984252e-06 17.071596 4.9284037 22 11 22 C 17.071595 21.999998 21.999998 17.071596 22 11 C 22 4.9284037 17.071596 1.2094488e-06 11 0 z M 11 1 C 16.522847 1.0000009 21 5.4771526 21 11 C 21 16.522847 16.522847 20.999999 11 21 C 5.4771529 20.999999 1.0000011 16.522847 1 11 C 1.0000011 5.4771526 5.4771529 1.0000009 11 1 z "
     transform="scale(0.26458334)" />
  <path
     id="path851"
     style="color:#d3dae3;fill:#ffffff;stroke-width:0.999999"
     d="M 11 4 A 2.0000001 2.0000001 0 0 0 9 6 A 2.0000001 2.0000001 0 0 0 11 8 A 2.0000001 2.0000001 0 0 0 13 6 A 2.0000001 2.0000001 0 0 0 11 4 z M 5.5 9 L 5.5 10 L 9.5 10 L 9.5 18 L 10.5 18 L 10.5 13 L 11.5 13 L 11.5 18 L 12.5 18 L 12.5 10 L 16.5 10 L 16.5 9 L 5.5 9 z "
     transform="scale(0.26458334)" />
</svg>
