<?xml version="1.0" encoding="UTF-8" standalone="no"?>
<!-- Created with Inkscape (http://www.inkscape.org/) -->

<svg
   width="22"
   height="22"
   viewBox="0 0 5.8208333 5.8208336"
   version="1.1"
   id="svg5"
   inkscape:version="1.1.2 (0a00cf5339, 2022-02-04, custom)"
   sodipodi:docname="preferences-system-splash.svg"
   xmlns:inkscape="http://www.inkscape.org/namespaces/inkscape"
   xmlns:sodipodi="http://sodipodi.sourceforge.net/DTD/sodipodi-0.dtd"
   xmlns:xlink="http://www.w3.org/1999/xlink"
   xmlns="http://www.w3.org/2000/svg"
   xmlns:svg="http://www.w3.org/2000/svg">
  <sodipodi:namedview
     id="namedview7"
     pagecolor="#ffffff"
     bordercolor="#666666"
     borderopacity="1.0"
     inkscape:pageshadow="2"
     inkscape:pageopacity="0.0"
     inkscape:pagecheckerboard="0"
     inkscape:document-units="px"
     showgrid="false"
     units="px"
     height="64px"
     inkscape:zoom="16.645833"
     inkscape:cx="10.663329"
     inkscape:cy="17.39174"
     inkscape:window-width="1920"
     inkscape:window-height="1019"
     inkscape:window-x="0"
     inkscape:window-y="31"
     inkscape:window-maximized="1"
     inkscape:current-layer="svg5"
     showguides="false" />
  <defs
     id="defs2">
    <linearGradient
       inkscape:collect="always"
       id="linearGradient2155">
      <stop
         style="stop-color:#f0f0f0;stop-opacity:1;"
         offset="0"
         id="stop2151" />
      <stop
         style="stop-color:#f3f3f3;stop-opacity:0"
         offset="1"
         id="stop2153" />
    </linearGradient>
    <linearGradient
       inkscape:collect="always"
       id="linearGradient1431">
      <stop
         style="stop-color:#fcfcfc;stop-opacity:1;"
         offset="0"
         id="stop1427" />
      <stop
         style="stop-color:#f0f0f0;stop-opacity:1"
         offset="1"
         id="stop1429" />
    </linearGradient>
    <linearGradient
       inkscape:collect="always"
       xlink:href="#linearGradient1431"
       id="linearGradient1433"
       x1="3.1750002"
       y1="3.96875"
       x2="3.1750002"
       y2="1.3229167"
       gradientUnits="userSpaceOnUse"
       gradientTransform="translate(-0.26458334,-0.26458334)" />
    <linearGradient
       inkscape:collect="always"
       xlink:href="#linearGradient2155"
       id="linearGradient2157"
       x1="3.9232748"
       y1="3.3941081"
       x2="3.1750002"
       y2="2.6458335"
       gradientUnits="userSpaceOnUse"
       gradientTransform="translate(-0.26458334,-0.26458334)" />
  </defs>
  <path
     id="path1233"
     style="color:#000000;opacity:0.3;fill:#42557f;fill-opacity:1;stroke:none;stroke-width:0.066146;-inkscape-stroke:none"
     d="m 2.1166669,3.9687501 v 0.79375 h -0.529167 v 0.79375 h 2.6458335 v -0.79375 H 3.7041667 V 3.96875 Z"
     sodipodi:nodetypes="ccccccccc" />
  <path
     id="rect950"
     style="fill:#fafafa;fill-opacity:1;stroke-width:0.0630675;stroke-linejoin:round"
     d="M 2.3812502,3.9687501 V 5.0270835 H 1.8520839 v 0.2645831 h 2.1166665 l -3e-7,-0.2645831 H 3.4395834 V 3.9687501 Z"
     sodipodi:nodetypes="ccccccccc" />
  <path
     id="rect3650"
     style="opacity:1;fill:#252831;stroke-width:0.264583;stroke-linejoin:round"
     d="M 0.26458335,0.26458334 H 5.5562502 c 0.1465792,0 0.2645834,0.11800417 0.2645834,0.26458335 V 4.2333333 c 0,0.1465791 -0.1180042,0.2645833 -0.2645834,0.2645833 H 0.26458335 C 0.11800417,4.4979166 0,4.3799124 0,4.2333333 V 0.52916669 C 0,0.38258751 0.11800417,0.26458334 0.26458335,0.26458334 Z"
     sodipodi:nodetypes="sssssssss" />
  <path
     id="rect3862"
     style="opacity:1;fill:#414757;stroke-width:0.264583;stroke-linejoin:round"
     d="M 0.26458335,0.52916669 H 5.55625 V 4.2333333 H 0.26458335 Z"
     sodipodi:nodetypes="ccccc" />
  <path
     id="rect6269"
     style="opacity:1;fill:#5294e2;stroke-width:0.264583;stroke-linejoin:round"
     d="m 0.5291667,0.79375006 h 4.7625 V 3.96875 h -4.7625 z"
     sodipodi:nodetypes="ccccc" />
  <path
     id="path1255"
     style="opacity:1;fill:url(#linearGradient1433);fill-opacity:1;stroke-width:0.330729;stroke-linecap:square"
     d="m 2.9104167,1.0583334 c -0.7306267,0 -1.3229166,0.59229 -1.3229167,1.3229167 1e-7,0.7306268 0.59229,1.3229167 1.3229167,1.3229167 0.3653134,0 0.6959426,-0.1481725 0.9353434,-0.3875733 L 3.6586915,3.1295249 C 3.4671707,3.3210456 3.2026676,3.4395835 2.9104167,3.4395835 c -0.5845013,0 -1.0583333,-0.473832 -1.0583333,-1.0583334 0,-0.5845014 0.473832,-1.0583333 1.0583333,-1.0583334 z" />
  <path
     d="m 2.9104168,1.0583334 c -0.7306267,0 -1.3229166,0.59229 -1.3229167,1.3229167 1e-7,0.7306268 0.59229,1.3229167 1.3229167,1.3229167 0.7306268,0 1.3229167,-0.5922899 1.3229167,-1.3229167 0,-0.7306267 -0.5922899,-1.3229167 -1.3229167,-1.3229167 z m 0,0.2645833 c 0.5845014,0 1.0583334,0.473832 1.0583334,1.0583334 0,0.5845014 -0.473832,1.0583334 -1.0583334,1.0583334 -0.5845013,0 -1.0583333,-0.473832 -1.0583333,-1.0583334 0,-0.5845014 0.473832,-1.0583334 1.0583333,-1.0583334 z"
     style="opacity:1;fill:url(#linearGradient2157);fill-opacity:1;stroke-width:0.330729;stroke-linecap:square"
     id="path2000" />
</svg>
