<?xml version="1.0" encoding="UTF-8" standalone="no"?>
<!-- Created with Inkscape (http://www.inkscape.org/) -->

<svg
   width="22"
   height="22"
   viewBox="0 0 5.8208333 5.8208336"
   version="1.1"
   id="svg5"
   inkscape:version="1.1.2 (0a00cf5339, 2022-02-04, custom)"
   sodipodi:docname="preferences-plugin.svg"
   xmlns:inkscape="http://www.inkscape.org/namespaces/inkscape"
   xmlns:sodipodi="http://sodipodi.sourceforge.net/DTD/sodipodi-0.dtd"
   xmlns="http://www.w3.org/2000/svg"
   xmlns:svg="http://www.w3.org/2000/svg">
  <sodipodi:namedview
     id="namedview7"
     pagecolor="#ffffff"
     bordercolor="#666666"
     borderopacity="1.0"
     inkscape:pageshadow="2"
     inkscape:pageopacity="0.0"
     inkscape:pagecheckerboard="0"
     inkscape:document-units="px"
     showgrid="false"
     units="px"
     height="64px"
     inkscape:zoom="36.636364"
     inkscape:cx="10.986352"
     inkscape:cy="11"
     inkscape:window-width="1851"
     inkscape:window-height="1009"
     inkscape:window-x="69"
     inkscape:window-y="31"
     inkscape:window-maximized="1"
     inkscape:current-layer="svg5"
     showguides="true" />
  <defs
     id="defs2" />
  <path
     id="rect937"
     style="opacity:0.35;fill:#555761;fill-opacity:1;stroke-width:0.264583;stroke-linecap:round;stroke-linejoin:round"
     d="M 0.52916668,0 H 5.291667 C 5.5848253,0 5.8208337,0.23600835 5.8208337,0.5291667 V 5.291667 c 0,0.2931584 -0.2360084,0.5291667 -0.5291667,0.5291667 H 0.52916668 C 0.23600828,5.8208336 0,5.5848253 0,5.291667 V 0.5291667 C 0,0.23600835 0.23600828,0 0.52916668,0 Z"
     sodipodi:nodetypes="sssssssss" />
  <path
     id="rect1273"
     style="fill:#f2f2f2;fill-opacity:1;stroke-width:0.264583;stroke-linecap:round;stroke-linejoin:round"
     d="M 0.52916668,0.26458335 H 5.2916667 c 0.1465792,0 0.2645834,0.11800417 0.2645834,0.26458335 V 5.291667 c 0,0.1465792 -0.1180042,0.2645834 -0.2645834,0.2645834 H 0.52916668 c -0.1465792,0 -0.2645834,-0.1180042 -0.2645834,-0.2645834 V 0.5291667 c 0,-0.14657918 0.1180042,-0.26458335 0.2645834,-0.26458335 z"
     sodipodi:nodetypes="sssssssss" />
  <path
     d="M 1.4551263,1.455002 V 1.8518769 H 0.92596006 V 4.3654187 H 4.8947099 V 1.8518769 H 4.3655428 V 1.455002 H 3.3072098 V 1.8518769 H 2.5134593 V 1.455002 h -1.058333"
     style="color:#5d656b;fill:#76e58c;stroke-width:0.264583;stroke-linecap:round;stroke-linejoin:round;-inkscape-stroke:none"
     id="path1238"
     sodipodi:nodetypes="ccccccccccccc" />
  <path
     style="color:#5d656b;fill:#000000;fill-opacity:0.25;stroke-width:0.264583;stroke-linecap:round;stroke-linejoin:round;-inkscape-stroke:none"
     d="m 1.4552083,1.3229167 c -0.035083,6.9e-6 -0.068726,0.013949 -0.09353,0.038759 -0.024811,0.024805 -0.038754,0.058449 -0.03876,0.093533 V 1.7197919 H 0.92604206 c -0.07306,7.1e-6 -0.1322849,0.059232 -0.132292,0.1322921 v 2.5135417 c 7.7e-6,0.073059 0.059232,0.1322839 0.132292,0.132291 H 4.8947919 c 0.073059,-7.1e-6 0.132284,-0.059231 0.132292,-0.132291 V 1.852084 c -7e-6,-0.07306 -0.059232,-0.132285 -0.132292,-0.1322921 H 4.4979168 V 1.4552084 c -7.3e-6,-0.07306 -0.059232,-0.1322846 -0.132292,-0.1322917 h -1.058333 c -0.07306,7.1e-6 -0.1322847,0.059232 -0.132292,0.1322918 V 1.7197919 H 2.6458333 V 1.4552084 C 2.645826,1.3821484 2.5866013,1.3229238 2.5135413,1.3229167 Z M 1.5875003,1.5875 h 0.79375 v 0.264584 c 7.6e-6,0.073059 0.059232,0.1322833 0.132291,0.1322909 h 0.7937505 c 0.073059,-7.6e-6 0.1322833,-0.059232 0.132291,-0.1322909 V 1.5875 h 0.79375 v 0.264584 c 7.6e-6,0.07306 0.059233,0.1322839 0.132292,0.1322909 H 4.7624994 V 4.2333337 H 1.0583331 V 1.9843749 h 0.3968752 c 0.073059,-7e-6 0.1322843,-0.059232 0.132292,-0.1322909 z"
     id="path1129"
     sodipodi:nodetypes="ccccccccccccccccccccccccccccccccccccccc" />
</svg>
