<?xml version="1.0" encoding="UTF-8" standalone="no"?>
<!-- Created with Inkscape (http://www.inkscape.org/) -->

<svg
   width="22"
   height="22"
   viewBox="0 0 5.8208333 5.8208336"
   version="1.1"
   id="svg5"
   inkscape:version="1.1.2 (0a00cf5339, 2022-02-04, custom)"
   sodipodi:docname="preferences-desktop-font-installer.svg"
   xmlns:inkscape="http://www.inkscape.org/namespaces/inkscape"
   xmlns:sodipodi="http://sodipodi.sourceforge.net/DTD/sodipodi-0.dtd"
   xmlns="http://www.w3.org/2000/svg"
   xmlns:svg="http://www.w3.org/2000/svg">
  <sodipodi:namedview
     id="namedview7"
     pagecolor="#ffffff"
     bordercolor="#666666"
     borderopacity="1.0"
     inkscape:pageshadow="2"
     inkscape:pageopacity="0.0"
     inkscape:pagecheckerboard="0"
     inkscape:document-units="px"
     showgrid="false"
     units="px"
     height="64px"
     inkscape:zoom="45.636364"
     inkscape:cx="11"
     inkscape:cy="11"
     inkscape:window-width="1920"
     inkscape:window-height="1026"
     inkscape:window-x="0"
     inkscape:window-y="0"
     inkscape:window-maximized="1"
     inkscape:current-layer="svg5"
     showguides="false" />
  <defs
     id="defs2" />
  <path
     id="rect1136"
     style="opacity:0.6;fill:#003ac8;stroke-width:5.82084;stroke-linecap:round;stroke-linejoin:round;fill-opacity:1"
     d="M 0.79374999,0 H 5.0270837 c 0.4397375,0 0.79375,0.35401249 0.79375,0.79374999 V 5.0270837 c 0,0.4397375 -0.3540125,0.79375 -0.79375,0.79375 H 0.79374999 C 0.35401249,5.8208337 0,5.4668212 0,5.0270837 V 0.79374999 C 0,0.35401249 0.35401249,0 0.79374999,0 Z" />
  <path
     id="rect1469"
     style="opacity:1;fill:#7cb2ff;stroke-width:0.529167;stroke-linecap:round;stroke-linejoin:round;fill-opacity:1"
     d="M 0.79375004,0.26458334 H 5.0270836 c 0.2931584,0 0.5291667,0.23600834 0.5291667,0.5291667 V 5.0270836 c 0,0.2931583 -0.2360083,0.5291667 -0.5291667,0.5291667 H 0.79375004 c -0.29315835,0 -0.5291667,-0.2360084 -0.5291667,-0.5291667 V 0.79375004 c 0,-0.29315836 0.23600835,-0.5291667 0.5291667,-0.5291667 z" />
  <path
     id="path1393"
     style="opacity:0.15;fill:#0000ff;fill-opacity:1;stroke-width:0.999999"
     d="M 3 1 C 1.8920001 1 1 1.8919998 1 3 L 1 12.4375 A 18.000001 18.000001 0 0 0 14 18 A 18.000001 18.000001 0 0 0 21 16.570312 L 21 3 C 21 1.8919998 20.108 1 19 1 L 3 1 z "
     transform="scale(0.26458334)" />
  <path
     id="path1637"
     style="opacity:1;fill:#ffffff;stroke-width:0.833333"
     d="M 6 3 C 6 5.7614236 8.2385763 8 11 8 C 13.761423 8 16 5.7614236 16 3 L 15 3 C 15 5.2091387 13.209139 7 11 7 C 8.7908613 7 7 5.2091387 7 3 L 6 3 z "
     transform="scale(0.26458334)" />
  <path
     id="path8181"
     style="font-weight:500;font-size:9.03016px;line-height:1.25;font-family:'Google Sans';-inkscape-font-specification:'Google Sans Medium';fill:#f9f9f9;fill-opacity:1;stroke-width:0.0790144"
     d="M 1.9085921,2.6458334 1.0583334,4.9088488 H 1.4502735 L 1.6557391,4.3304342 h 0.9133814 l 0.2022101,0.5784146 h 0.39194 L 2.3130119,2.6458334 Z M 2.101397,3.0661695 h 0.01881 l 0.088625,0.2622582 0.2401922,0.6733701 H 1.7725796 L 2.0127717,3.3284277 Z m 1.9309423,0.1801443 c -0.1390645,0 -0.2654994,0.02733 -0.3792793,0.082114 C 3.5392798,3.3832108 3.4467057,3.460184 3.3750665,3.5592148 L 3.6183334,3.7456893 C 3.6625814,3.6824783 3.7205078,3.6330166 3.7921472,3.597197 3.8658932,3.561377 3.9438343,3.543479 4.026009,3.543479 c 0.1158869,0 0.2107583,0.031564 0.2845048,0.094775 0.073747,0.061104 0.110691,0.1411613 0.110691,0.2401922 v 0.082114 C 4.3769568,3.9394895 4.316914,3.9206238 4.2410607,3.9037675 4.1652074,3.8848044 4.0797688,3.8753713 3.9849521,3.8753713 c -0.1917407,0 -0.3507065,0.048313 -0.4771287,0.1452367 -0.1243153,0.096924 -0.1864746,0.2287397 -0.1864746,0.3951957 0,0.1053519 0.025215,0.2000425 0.075784,0.2843239 0.050569,0.082174 0.1211934,0.1464499 0.2117959,0.1928049 0.090603,0.044248 0.1937582,0.066378 0.3096454,0.066378 0.1095659,0 0.2065534,-0.023098 0.290835,-0.069453 0.084281,-0.046355 0.1495246,-0.1042817 0.1958798,-0.1738138 h 0.015915 V 4.9088486 H 4.7625001 V 3.9037675 c 0,-0.2085968 -0.063127,-0.3698598 -0.1895491,-0.4836399 C 4.4465304,3.3042405 4.2662208,3.2463138 4.0323393,3.2463138 Z m 0.018991,0.8943903 c 0.069533,0 0.1359241,0.00846 0.1991353,0.025321 0.065319,0.016857 0.1222771,0.038987 0.1707391,0.066378 0,0.07796 -0.019047,0.1507012 -0.056974,0.2181263 -0.037927,0.067426 -0.090472,0.1211195 -0.1578974,0.1611532 -0.067426,0.040034 -0.1434305,0.060048 -0.2277122,0.060048 -0.090603,0 -0.1643112,-0.023098 -0.2212011,-0.069453 C 3.70053,4.5538156 3.67205,4.4926241 3.67205,4.4188778 c 0,-0.082174 0.030596,-0.1485662 0.0917,-0.1991352 0.061104,-0.052676 0.156943,-0.079039 0.2875803,-0.079039 z" />
</svg>
