<?xml version="1.0" encoding="UTF-8" standalone="no"?>
<!-- Created with Inkscape (http://www.inkscape.org/) -->

<svg
   width="22"
   height="22"
   viewBox="0 0 5.8208331 5.8208336"
   version="1.1"
   id="svg2469"
   inkscape:version="1.1.2 (0a00cf5339, 2022-02-04, custom)"
   sodipodi:docname="preferences-desktop-display.svg"
   xmlns:inkscape="http://www.inkscape.org/namespaces/inkscape"
   xmlns:sodipodi="http://sodipodi.sourceforge.net/DTD/sodipodi-0.dtd"
   xmlns="http://www.w3.org/2000/svg"
   xmlns:svg="http://www.w3.org/2000/svg">
  <sodipodi:namedview
     id="namedview2471"
     pagecolor="#ffffff"
     bordercolor="#666666"
     borderopacity="1.0"
     inkscape:pageshadow="2"
     inkscape:pageopacity="0.0"
     inkscape:pagecheckerboard="0"
     inkscape:document-units="px"
     showgrid="false"
     units="px"
     inkscape:zoom="33.583334"
     inkscape:cx="8.1736971"
     inkscape:cy="12.476427"
     inkscape:window-width="1851"
     inkscape:window-height="1009"
     inkscape:window-x="69"
     inkscape:window-y="31"
     inkscape:window-maximized="1"
     inkscape:current-layer="svg2469" />
  <defs
     id="defs2466" />
  <path
     id="rect2552"
     style="opacity:0.8;fill:#000000;fill-opacity:1;stroke-width:0.32208;stroke-linejoin:round"
     d="M 0.52916666,0.52916667 C 0.2360083,0.52916667 0,0.76517498 0,1.0583333 V 4.7625 C 0,5.0556583 0.2360083,5.2916666 0.52916666,5.2916666 H 5.2916666 c 0.2931583,0 0.5291667,-0.2360083 0.5291667,-0.5291666 V 1.0583333 c 0,-0.29315832 -0.2360084,-0.52916663 -0.5291667,-0.52916663 z"
     sodipodi:nodetypes="sssssssss" />
  <path
     id="rect1358"
     style="opacity:1;fill:#4d4d4d;stroke-width:2;stroke-linecap:round;stroke-linejoin:round;fill-opacity:1"
     d="M 2 3 C 1.4459999 3 1 3.446 1 4 L 1 18 C 1 18.554 1.4459999 19 2 19 L 20 19 C 20.554 19 21 18.554 21 18 L 21 4 C 21 3.446 20.554 3 20 3 L 2 3 z "
     transform="scale(0.26458333)" />
  <path
     id="rect1491"
     style="opacity:1;fill:#ffffff;stroke-width:1.73205;stroke-linecap:round;stroke-linejoin:round"
     d="M 7.5 4 L 6 6 L 7 6 L 7 12 L 4 12 L 4 11 L 2 12.5 L 4 14 L 4 13 L 7 13 L 7 16 L 6 16 L 7.5 18 L 9 16 L 8 16 L 8 13 L 18 13 L 18 14 L 20 12.5 L 18 11 L 18 12 L 8 12 L 8 6 L 9 6 L 7.5 4 z "
     transform="scale(0.26458333)" />
</svg>
