<?xml version="1.0" encoding="UTF-8" standalone="no"?>
<!-- Created with Inkscape (http://www.inkscape.org/) -->

<svg
   width="22"
   height="22"
   viewBox="0 0 5.8208333 5.8208336"
   version="1.1"
   id="svg5"
   inkscape:version="1.1.2 (0a00cf5339, 2022-02-04, custom)"
   sodipodi:docname="preferences-system-login.svg"
   xmlns:inkscape="http://www.inkscape.org/namespaces/inkscape"
   xmlns:sodipodi="http://sodipodi.sourceforge.net/DTD/sodipodi-0.dtd"
   xmlns="http://www.w3.org/2000/svg"
   xmlns:svg="http://www.w3.org/2000/svg">
  <sodipodi:namedview
     id="namedview7"
     pagecolor="#ffffff"
     bordercolor="#666666"
     borderopacity="1.0"
     inkscape:pageshadow="2"
     inkscape:pageopacity="0.0"
     inkscape:pagecheckerboard="0"
     inkscape:document-units="px"
     showgrid="false"
     units="px"
     height="64px"
     inkscape:zoom="23.227273"
     inkscape:cx="9.3424657"
     inkscape:cy="12.74364"
     inkscape:window-width="1920"
     inkscape:window-height="1026"
     inkscape:window-x="0"
     inkscape:window-y="0"
     inkscape:window-maximized="1"
     inkscape:current-layer="svg5"
     showguides="false" />
  <defs
     id="defs2" />
  <path
     id="path1233"
     style="color:#000000;opacity:0.3;fill:#42557f;fill-opacity:1;stroke:none;stroke-width:0.066146;-inkscape-stroke:none"
     d="m 2.1166669,3.9687501 v 0.79375 h -0.529167 v 0.79375 h 2.6458335 v -0.79375 H 3.7041667 V 3.96875 Z"
     sodipodi:nodetypes="ccccccccc" />
  <path
     id="rect950"
     style="fill:#fafafa;fill-opacity:1;stroke-width:0.0630675;stroke-linejoin:round"
     d="M 2.3812502,3.9687501 V 5.0270835 H 1.8520839 v 0.2645831 h 2.1166665 l -3e-7,-0.2645831 H 3.4395834 V 3.9687501 Z"
     sodipodi:nodetypes="ccccccccc" />
  <path
     id="rect3650"
     style="opacity:1;fill:#252831;stroke-width:0.264583;stroke-linejoin:round"
     d="M 0.26458335,0.26458334 H 5.5562502 c 0.1465792,0 0.2645834,0.11800417 0.2645834,0.26458335 V 4.2333333 c 0,0.1465791 -0.1180042,0.2645833 -0.2645834,0.2645833 H 0.26458335 C 0.11800417,4.4979166 0,4.3799124 0,4.2333333 V 0.52916669 C 0,0.38258751 0.11800417,0.26458334 0.26458335,0.26458334 Z"
     sodipodi:nodetypes="sssssssss" />
  <path
     id="rect3862"
     style="opacity:1;fill:#414757;stroke-width:0.264583;stroke-linejoin:round"
     d="M 0.26458335,0.52916669 H 5.55625 V 4.2333333 H 0.26458335 Z"
     sodipodi:nodetypes="ccccc" />
  <path
     id="rect6269"
     style="opacity:1;fill:#5294e2;stroke-width:0.264583;stroke-linejoin:round"
     d="m 0.5291667,0.79375004 h 4.7625 V 3.96875 h -4.7625 z"
     sodipodi:nodetypes="ccccc" />
  <path
     id="rect10"
     d="m 1.0583334,1.3229167 v 0.79375 h 3.7041668 v -0.79375 z m 0,1.3229167 v 0.79375 h 3.7041668 v -0.79375 z"
     style="opacity:0.5;fill:#ffffff;stroke-width:0.264583"
     sodipodi:nodetypes="cccccccccc" />
  <path
     d="m 1.4552083,1.5875 c -0.073062,0 -0.1322916,0.059229 -0.1322916,0.1322917 0,0.073063 0.059229,0.1322916 0.1322916,0.1322916 0.073063,0 0.1322917,-0.059229 0.1322917,-0.1322916 C 1.5875,1.6467287 1.528271,1.5875 1.4552083,1.5875 Z m 0,1.3229167 c -0.073062,0 -0.1322916,0.059229 -0.1322916,0.1322916 0,0.073063 0.059229,0.1322917 0.1322916,0.1322917 0.073063,0 0.1322917,-0.059229 0.1322917,-0.1322917 0,-0.073063 -0.059229,-0.1322916 -0.1322917,-0.1322916 z m 0.5291667,0 c -0.073063,0 -0.1322917,0.059229 -0.1322917,0.1322916 0,0.073063 0.059229,0.1322917 0.1322917,0.1322917 0.073063,0 0.1322917,-0.059229 0.1322917,-0.1322917 0,-0.073063 -0.059229,-0.1322916 -0.1322917,-0.1322916 z m 0.5291667,0 c -0.073063,0 -0.1322917,0.059229 -0.1322917,0.1322916 0,0.073063 0.059229,0.1322917 0.1322917,0.1322917 0.073063,0 0.1322917,-0.059229 0.1322917,-0.1322917 0,-0.073063 -0.059229,-0.1322916 -0.1322917,-0.1322916 z"
     style="fill:#4d4d4d;stroke-width:0.264583"
     id="path912"
     sodipodi:nodetypes="ssssssssssssssssssss" />
</svg>
