<?xml version="1.0" encoding="UTF-8" standalone="no"?>
<!-- Created with Inkscape (http://www.inkscape.org/) -->

<svg
   width="22"
   height="22"
   viewBox="0 0 5.8208333 5.8208336"
   version="1.1"
   id="svg5"
   inkscape:version="1.1.2 (0a00cf5339, 2022-02-04, custom)"
   sodipodi:docname="system-software-install.svg"
   xmlns:inkscape="http://www.inkscape.org/namespaces/inkscape"
   xmlns:sodipodi="http://sodipodi.sourceforge.net/DTD/sodipodi-0.dtd"
   xmlns="http://www.w3.org/2000/svg"
   xmlns:svg="http://www.w3.org/2000/svg">
  <sodipodi:namedview
     id="namedview7"
     pagecolor="#ffffff"
     bordercolor="#666666"
     borderopacity="1.0"
     inkscape:pageshadow="2"
     inkscape:pageopacity="0.0"
     inkscape:pagecheckerboard="0"
     inkscape:document-units="px"
     showgrid="false"
     units="px"
     height="64px"
     inkscape:zoom="45.636364"
     inkscape:cx="11"
     inkscape:cy="11"
     inkscape:window-width="1920"
     inkscape:window-height="1026"
     inkscape:window-x="0"
     inkscape:window-y="0"
     inkscape:window-maximized="1"
     inkscape:current-layer="svg5"
     showguides="false" />
  <defs
     id="defs2" />
  <path
     id="rect1136"
     style="opacity:0.6;fill:#003ac8;stroke-width:5.82084;stroke-linecap:round;stroke-linejoin:round;fill-opacity:1"
     d="M 0.79374999,0 H 5.0270837 c 0.4397375,0 0.79375,0.35401249 0.79375,0.79374999 V 5.0270837 c 0,0.4397375 -0.3540125,0.79375 -0.79375,0.79375 H 0.79374999 C 0.35401249,5.8208337 0,5.4668212 0,5.0270837 V 0.79374999 C 0,0.35401249 0.35401249,0 0.79374999,0 Z" />
  <path
     id="rect1469"
     style="opacity:1;fill:#7cb2ff;stroke-width:0.529167;stroke-linecap:round;stroke-linejoin:round;fill-opacity:1"
     d="M 0.79375004,0.26458334 H 5.0270836 c 0.2931584,0 0.5291667,0.23600834 0.5291667,0.5291667 V 5.0270836 c 0,0.2931583 -0.2360083,0.5291667 -0.5291667,0.5291667 H 0.79375004 c -0.29315835,0 -0.5291667,-0.2360084 -0.5291667,-0.5291667 V 0.79375004 c 0,-0.29315836 0.23600835,-0.5291667 0.5291667,-0.5291667 z" />
  <path
     id="path1393"
     style="opacity:0.15;fill:#0000ff;fill-opacity:1;stroke-width:0.999999"
     d="M 3 1 C 1.8920001 1 1 1.8919998 1 3 L 1 12.4375 A 18.000001 18.000001 0 0 0 14 18 A 18.000001 18.000001 0 0 0 21 16.570312 L 21 3 C 21 1.8919998 20.108 1 19 1 L 3 1 z "
     transform="scale(0.26458334)" />
  <path
     id="path1637"
     style="opacity:1;fill:#ffffff;stroke-width:0.833333"
     d="M 6 3 C 6 5.7614236 8.2385763 8 11 8 C 13.761423 8 16 5.7614236 16 3 L 15 3 C 15 5.2091387 13.209139 7 11 7 C 8.7908613 7 7 5.2091387 7 3 L 6 3 z "
     transform="scale(0.26458334)" />
</svg>
