<?xml version="1.0" encoding="UTF-8" standalone="no"?>
<!-- Created with Inkscape (http://www.inkscape.org/) -->

<svg
   width="32"
   height="32"
   viewBox="0 0 8.4666665 8.466667"
   version="1.1"
   id="svg5"
   inkscape:version="1.1.2 (0a00cf5339, 2022-02-04, custom)"
   sodipodi:docname="dialog-error.svg"
   xmlns:inkscape="http://www.inkscape.org/namespaces/inkscape"
   xmlns:sodipodi="http://sodipodi.sourceforge.net/DTD/sodipodi-0.dtd"
   xmlns="http://www.w3.org/2000/svg"
   xmlns:svg="http://www.w3.org/2000/svg">
  <sodipodi:namedview
     id="namedview7"
     pagecolor="#ffffff"
     bordercolor="#666666"
     borderopacity="1.0"
     inkscape:pageshadow="2"
     inkscape:pageopacity="0.0"
     inkscape:pagecheckerboard="0"
     inkscape:document-units="px"
     showgrid="false"
     units="px"
     height="64px"
     inkscape:zoom="6.4140625"
     inkscape:cx="11.459196"
     inkscape:cy="37.183922"
     inkscape:window-width="1920"
     inkscape:window-height="1011"
     inkscape:window-x="0"
     inkscape:window-y="32"
     inkscape:window-maximized="1"
     inkscape:current-layer="svg5" />
  <defs
     id="defs2" />
  <path
     style="color:#000000;fill:#e85f5f;stroke:none;stroke-width:0.264583;stroke-linejoin:round;-inkscape-stroke:none"
     d="M 8.0697917,4.2333335 A 3.8364583,3.8364584 0 0 1 4.2333334,8.0697919 3.8364583,3.8364584 0 0 1 0.396875,4.2333335 3.8364583,3.8364584 0 0 1 4.2333334,0.396875 3.8364583,3.8364584 0 0 1 8.0697917,4.2333335 Z"
     id="path880" />
  <path
     style="color:#000000;opacity:0.2;fill:#000000;stroke:none;stroke-linejoin:round;-inkscape-stroke:none"
     d="m 4.2333333,0.26458334 c -2.190311,0 -3.96874996,1.77843896 -3.96874996,3.96874996 1e-7,2.1903111 1.77843896,3.9687501 3.96874996,3.9687501 2.1903111,0 3.9687501,-1.778439 3.9687501,-3.9687501 0,-2.190311 -1.778439,-3.96874996 -3.9687501,-3.96874996 z m 0,0.2636719 c 2.0473198,0 3.7031251,1.65775836 3.7031251,3.70507806 0,2.0473198 -1.6558053,3.7031251 -3.7031251,3.7031251 -2.0473197,0 -3.70507806,-1.6558053 -3.70507806,-3.7031251 0,-2.0473197 1.65775836,-3.70507806 3.70507806,-3.70507806 z"
     id="path882" />
  <path
     d="M 4.5238243,5.3566947 H 3.9214329 L 3.8745403,1.5872396 h 0.6997839 z m -0.6745341,1.147069 c 0,-0.1082143 0.032464,-0.1983921 0.097393,-0.2705348 0.067333,-0.074547 0.1659283,-0.1118216 0.2957851,-0.1118216 0.1298568,0 0.2284519,0.037273 0.295785,0.1118216 0.067333,0.072142 0.1009998,0.1623205 0.1009998,0.2705348 0,0.1082142 -0.033667,0.198392 -0.1009998,0.2705352 -0.067333,0.069738 -0.1659282,0.1046074 -0.295785,0.1046074 -0.1298568,0 -0.2284519,-0.034868 -0.2957851,-0.1046074 -0.064928,-0.072143 -0.097393,-0.162321 -0.097393,-0.2705352 z"
     style="font-size:14.7748px;line-height:1.25;font-family:Roboto;-inkscape-font-specification:Roboto;fill:#f2f2f2;fill-opacity:1;stroke-width:0.0488648"
     id="path31783" />
</svg>
