<?xml version="1.0" encoding="UTF-8" standalone="no"?>
<!-- Created with Inkscape (http://www.inkscape.org/) -->

<svg
   width="64"
   height="64"
   viewBox="0 0 16.933333 16.933334"
   version="1.1"
   id="svg5"
   inkscape:version="1.1.2 (0a00cf5339, 2022-02-04, custom)"
   sodipodi:docname="folder-images.svg"
   xmlns:inkscape="http://www.inkscape.org/namespaces/inkscape"
   xmlns:sodipodi="http://sodipodi.sourceforge.net/DTD/sodipodi-0.dtd"
   xmlns:xlink="http://www.w3.org/1999/xlink"
   xmlns="http://www.w3.org/2000/svg"
   xmlns:svg="http://www.w3.org/2000/svg">
  <sodipodi:namedview
     id="namedview7"
     pagecolor="#ffffff"
     bordercolor="#666666"
     borderopacity="1.0"
     inkscape:pageshadow="2"
     inkscape:pageopacity="0.0"
     inkscape:pagecheckerboard="0"
     inkscape:document-units="px"
     showgrid="false"
     units="px"
     height="64px"
     inkscape:zoom="15.564393"
     inkscape:cx="32.028233"
     inkscape:cy="32.477977"
     inkscape:window-width="1920"
     inkscape:window-height="1021"
     inkscape:window-x="0"
     inkscape:window-y="0"
     inkscape:window-maximized="1"
     inkscape:current-layer="svg5" />
  <defs
     id="defs2">
    <linearGradient
       inkscape:collect="always"
       id="linearGradient3964">
      <stop
         style="stop-color:#000000;stop-opacity:1;"
         offset="0"
         id="stop3960" />
      <stop
         style="stop-color:#000000;stop-opacity:0;"
         offset="1"
         id="stop3962" />
    </linearGradient>
    <linearGradient
       inkscape:collect="always"
       xlink:href="#linearGradient3964"
       id="linearGradient3966"
       x1="56"
       y1="50"
       x2="62"
       y2="56"
       gradientUnits="userSpaceOnUse"
       gradientTransform="scale(0.26458334)" />
  </defs>
  <path
     id="rect2149"
     style="opacity:0.3;fill:#000000;fill-opacity:1;stroke:none;stroke-width:0.529167;stroke-linejoin:round;stroke-miterlimit:4;stroke-dasharray:none;stroke-opacity:1"
     d="m 3.1750001,2.1166667 c -0.2931584,0 -0.5291667,0.2360083 -0.5291667,0.5291667 h -0.79375 c -0.2931584,0 -0.5291667,0.2360083 -0.5291667,0.5291666 v 5.8208335 c 0,0.2931584 0.2360083,0.5291667 0.5291667,0.5291667 H 15.610417 c 0.293158,0 0.529167,-0.2360083 0.529167,-0.5291667 V 3.175 c 0,-0.2931583 -0.236009,-0.5291666 -0.529167,-0.5291666 H 7.9375002 c 0,-0.2931584 -0.2360083,-0.5291667 -0.5291667,-0.5291667 z" />
  <path
     id="rect2689"
     style="fill:#ffffff;fill-opacity:1;stroke:none;stroke-width:0.529167;stroke-linejoin:round;stroke-miterlimit:4;stroke-dasharray:none;stroke-opacity:1"
     d="m 3.3072918,2.3812501 c -0.2931584,0 -0.3968751,0.2360083 -0.3968751,0.5291666 H 1.8520834 C 1.7055042,2.9104167 1.5875,3.0284209 1.5875,3.1750001 v 5.8208335 c 0,0.1465791 0.1180042,0.2645833 0.2645834,0.2645833 H 15.610417 c 0.146579,0 0.264583,-0.1180042 0.264583,-0.2645833 V 3.1750001 c 0,-0.1465792 -0.118004,-0.2645834 -0.264583,-0.2645834 H 7.6729169 c 0,-0.2931583 -0.1037167,-0.5291666 -0.396875,-0.5291666 z"
     sodipodi:nodetypes="scsssssssscss" />
  <path
     id="rect3270"
     style="opacity:0.3;fill:#000000;fill-opacity:1;stroke-width:0.529167;stroke-linejoin:round"
     d="m 3.7041667,2.9104168 h 3.1749999 c 0.1465792,0 0.2645834,0.1180042 0.2645834,0.2645834 0,0.1465792 -0.1180042,0.2645833 -0.2645834,0.2645833 H 3.7041667 c -0.1465792,0 -0.2645834,-0.1180041 -0.2645834,-0.2645833 0,-0.1465792 0.1180042,-0.2645834 0.2645834,-0.2645834 z" />
  <path
     style="color:#000000;opacity:0.55;fill:#276a23;fill-opacity:1;stroke:none;stroke-linejoin:round;-inkscape-stroke:none"
     d="M 8.4657553,3.96875 C 8.2301056,3.9704142 8.0194607,4.0910048 7.914974,4.2363281 7.8104873,4.3816515 7.7713793,4.5153654 7.7059896,4.6367187 c -0.00135,0.00258 -0.00265,0.00519 -0.00391,0.00781 L 7.5106771,5.0273437 H 0.79388021 c -0.006508,-2.404e-4 -0.0130231,-2.404e-4 -0.0195313,0 -0.26296665,0.020228 -0.50976557,0.2401959 -0.50976557,0.5292969 v 8.9960934 c 0,0.288582 0.24071437,0.529297 0.52929687,0.529297 H 16.139583 c 0.288582,0 0.529297,-0.240715 0.529297,-0.529297 V 4.4980469 C 16.66888,4.2094656 16.428164,3.96875 16.139583,3.96875 H 8.4677084 c -6.5e-4,-2.4e-6 -0.0013,-2.4e-6 -0.00195,0 z"
     id="path1470"
     sodipodi:nodetypes="sscccccssssssscss" />
  <path
     style="color:#000000;fill:#82be6c;fill-opacity:1;stroke:none;stroke-width:0.529167;stroke-linejoin:round;-inkscape-stroke:none"
     d="M 0.79375005,5.2916669 H 7.6729167 L 7.9375001,4.7625 C 8.0921218,4.4755455 8.1157904,4.2358116 8.4666667,4.2333336 h 7.6729163 c 0.14658,0 0.264584,0.1180042 0.264584,0.2645833 V 14.552083 c 0,0.146579 -0.118004,0.264584 -0.264584,0.264584 H 0.79375005 c -0.14657918,0 -0.26458335,-0.118005 -0.26458335,-0.264584 V 5.5562502 c 0,-0.1465791 0.11843592,-0.2533411 0.26458335,-0.2645833 z"
     id="path1468" />
  <path
     id="rect3575"
     style="opacity:0.1;fill:url(#linearGradient3966);fill-opacity:1;stroke-width:0.529167;stroke-linejoin:round"
     d="m 16.404167,11.641667 -3.175,3.175 h 2.910417 c 0.14658,0 0.264583,-0.118004 0.264583,-0.264583 z" />
  <path
     id="path19"
     style="opacity:0.3;fill:#000000;fill-opacity:1;stroke-width:1.00002"
     d="m 6.3494856,7.4083334 -0.2651,0.7937501 h -0.52865 c -0.1462587,-3.5e-5 -0.2646733,0.118843 -0.2640666,0.2651 v 3.7041675 c 0,0.146003 0.1180637,0.264066 0.2640666,0.264066 h 5.8208334 c 0.146257,6.09e-4 0.265135,-0.117808 0.2651,-0.264066 V 8.4671835 c 6.1e-4,-0.146663 -0.118438,-0.26571 -0.2651,-0.2651 H 10.846885 L 10.582819,7.4083334 Z m 0.1850017,0.2645834 h 3.8633297 l 0.2651,0.7942667 h 0.713652 V 12.171351 H 5.5567691 L 5.5557391,8.4671835 H 6.2704242 Z M 8.466152,8.7312505 c -0.7306265,0 -1.3229164,0.592289 -1.3229164,1.3229165 0,0.730626 0.5922899,1.322917 1.3229164,1.322917 0.730627,0 1.322917,-0.592291 1.322917,-1.322917 0,-0.7306275 -0.59229,-1.3229165 -1.322917,-1.3229165 z m 0,0.264583 c 0.584502,0 1.058334,0.473832 1.058334,1.0583335 0,0.584501 -0.473832,1.058334 -1.058334,1.058334 -0.5845011,0 -1.0583328,-0.473833 -1.0583331,-1.058334 3e-7,-0.5845015 0.473832,-1.0583335 1.0583331,-1.0583335 z" />
  <path
     id="path1197"
     style="opacity:0.15;fill:#000000;fill-opacity:1;stroke-width:0.264583"
     d="m 6.5344873,7.6729168 -0.2640666,0.7942667 -0.7146851,0.0015 V 12.172334 H 11.376569 V 8.4686835 l -0.713652,-0.0015 -0.2651,-0.7942667 z M 8.466152,8.7312505 c 0.730627,0 1.322917,0.592289 1.322917,1.3229165 0,0.730626 -0.59229,1.322917 -1.322917,1.322917 -0.7306262,0 -1.3229161,-0.592291 -1.3229164,-1.322917 3e-7,-0.7306275 0.5922902,-1.3229165 1.3229164,-1.3229165 z"
     sodipodi:nodetypes="cccccccccsssss" />
</svg>
