<?xml version="1.0" encoding="UTF-8" standalone="no"?>
<!-- Created with Inkscape (http://www.inkscape.org/) -->

<svg
   width="64"
   height="64"
   viewBox="0 0 16.933333 16.933334"
   version="1.1"
   id="svg5"
   inkscape:version="1.1.2 (0a00cf5339, 2022-02-04, custom)"
   sodipodi:docname="folder-default-favorites.svg"
   xmlns:inkscape="http://www.inkscape.org/namespaces/inkscape"
   xmlns:sodipodi="http://sodipodi.sourceforge.net/DTD/sodipodi-0.dtd"
   xmlns:xlink="http://www.w3.org/1999/xlink"
   xmlns="http://www.w3.org/2000/svg"
   xmlns:svg="http://www.w3.org/2000/svg">
  <sodipodi:namedview
     id="namedview7"
     pagecolor="#ffffff"
     bordercolor="#666666"
     borderopacity="1.0"
     inkscape:pageshadow="2"
     inkscape:pageopacity="0.0"
     inkscape:pagecheckerboard="0"
     inkscape:document-units="px"
     showgrid="false"
     units="px"
     height="64px"
     inkscape:zoom="1"
     inkscape:cx="31"
     inkscape:cy="32"
     inkscape:window-width="1920"
     inkscape:window-height="1019"
     inkscape:window-x="0"
     inkscape:window-y="31"
     inkscape:window-maximized="1"
     inkscape:current-layer="svg5" />
  <defs
     id="defs2">
    <linearGradient
       inkscape:collect="always"
       id="linearGradient3964">
      <stop
         style="stop-color:#000000;stop-opacity:1;"
         offset="0"
         id="stop3960" />
      <stop
         style="stop-color:#000000;stop-opacity:0;"
         offset="1"
         id="stop3962" />
    </linearGradient>
    <linearGradient
       inkscape:collect="always"
       xlink:href="#linearGradient3964"
       id="linearGradient3966"
       x1="56"
       y1="50"
       x2="62"
       y2="56"
       gradientUnits="userSpaceOnUse"
       gradientTransform="scale(0.26458334)" />
  </defs>
  <path
     id="rect2149"
     style="opacity:0.3;fill:#000000;fill-opacity:1;stroke:none;stroke-width:0.529167;stroke-linejoin:round;stroke-miterlimit:4;stroke-dasharray:none;stroke-opacity:1"
     d="m 3.1750001,2.1166667 c -0.2931584,0 -0.5291667,0.2360083 -0.5291667,0.5291667 h -0.79375 c -0.2931584,0 -0.5291667,0.2360083 -0.5291667,0.5291666 v 5.8208335 c 0,0.2931584 0.2360083,0.5291667 0.5291667,0.5291667 H 15.610417 c 0.293158,0 0.529167,-0.2360083 0.529167,-0.5291667 V 3.175 c 0,-0.2931583 -0.236009,-0.5291666 -0.529167,-0.5291666 H 7.9375002 c 0,-0.2931584 -0.2360083,-0.5291667 -0.5291667,-0.5291667 z" />
  <path
     id="rect2689"
     style="fill:#ffffff;fill-opacity:1;stroke:none;stroke-width:0.529167;stroke-linejoin:round;stroke-miterlimit:4;stroke-dasharray:none;stroke-opacity:1"
     d="m 3.3072918,2.3812501 c -0.2931584,0 -0.3968751,0.2360083 -0.3968751,0.5291666 H 1.8520834 C 1.7055042,2.9104167 1.5875,3.0284209 1.5875,3.1750001 v 5.8208335 c 0,0.1465791 0.1180042,0.2645833 0.2645834,0.2645833 H 15.610417 c 0.146579,0 0.264583,-0.1180042 0.264583,-0.2645833 V 3.1750001 c 0,-0.1465792 -0.118004,-0.2645834 -0.264583,-0.2645834 H 7.6729169 c 0,-0.2931583 -0.1037167,-0.5291666 -0.396875,-0.5291666 z"
     sodipodi:nodetypes="scsssssssscss" />
  <path
     id="rect3270"
     style="opacity:0.3;fill:#000000;fill-opacity:1;stroke-width:0.529167;stroke-linejoin:round"
     d="m 3.7041667,2.9104168 h 3.1749999 c 0.1465792,0 0.2645834,0.1180042 0.2645834,0.2645834 0,0.1465792 -0.1180042,0.2645833 -0.2645834,0.2645833 H 3.7041667 c -0.1465792,0 -0.2645834,-0.1180041 -0.2645834,-0.2645833 0,-0.1465792 0.1180042,-0.2645834 0.2645834,-0.2645834 z" />
  <path
     style="color:#000000;opacity:0.55;fill:#998800;fill-opacity:1;stroke:none;stroke-linejoin:round;-inkscape-stroke:none"
     d="M 8.4657553,3.96875 C 8.2301056,3.9704142 8.0194607,4.0910048 7.914974,4.2363281 7.8104873,4.3816515 7.7713793,4.5153654 7.7059896,4.6367187 c -0.00135,0.00258 -0.00265,0.00519 -0.00391,0.00781 L 7.5106771,5.0273437 H 0.79388021 c -0.006508,-2.404e-4 -0.0130231,-2.404e-4 -0.0195313,0 -0.26296665,0.020228 -0.50976557,0.2401959 -0.50976557,0.5292969 v 8.9960934 c 0,0.288582 0.24071437,0.529297 0.52929687,0.529297 H 16.139583 c 0.288582,0 0.529297,-0.240715 0.529297,-0.529297 V 4.4980469 C 16.66888,4.2094656 16.428164,3.96875 16.139583,3.96875 H 8.4677084 c -6.5e-4,-2.4e-6 -0.0013,-2.4e-6 -0.00195,0 z"
     id="path1470"
     sodipodi:nodetypes="sscccccssssssscss" />
  <path
     style="color:#000000;fill:#e9d26b;fill-opacity:1;stroke:none;stroke-width:0.529167;stroke-linejoin:round;-inkscape-stroke:none"
     d="M 0.79375005,5.2916669 H 7.6729167 L 7.9375001,4.7625 C 8.0921218,4.4755455 8.1157904,4.2358116 8.4666667,4.2333336 h 7.6729163 c 0.14658,0 0.264584,0.1180042 0.264584,0.2645833 V 14.552083 c 0,0.146579 -0.118004,0.264584 -0.264584,0.264584 H 0.79375005 c -0.14657918,0 -0.26458335,-0.118005 -0.26458335,-0.264584 V 5.5562502 c 0,-0.1465791 0.11843592,-0.2533411 0.26458335,-0.2645833 z"
     id="path1468" />
  <path
     id="rect3575"
     style="opacity:0.1;fill:url(#linearGradient3966);fill-opacity:1;stroke-width:0.529167;stroke-linejoin:round"
     d="m 16.404167,11.641667 -3.175,3.175 h 2.910417 c 0.14658,0 0.264583,-0.118004 0.264583,-0.264583 z" />
  <path
     d="m 8.4671531,7.3092956 -0.121439,0.2774969 -0.683689,1.5626936 c -0.0213,0.04826 -0.06817,0.07794 -0.120923,0.07803 h -1.755973 l 1.443339,1.2226749 c 0.04161,0.03527 0.05861,0.09295 0.04134,0.144696 l -0.557084,1.671756 1.693451,-0.890912 c 0.03864,-0.02025 0.08487,-0.02025 0.123508,0 l 1.6929219,0.890912 -0.5586189,-1.671756 c -0.01726,-0.05174 -0.0023,-0.109419 0.03927,-0.144696 L 11.148658,9.2275161 H 9.3926861 c -0.05294,1.12e-4 -0.09955,-0.0296 -0.120923,-0.07803 l -0.804597,-1.840217 z"
     style="color:#000000;opacity:0.15;fill:#000000;stroke-width:0.265006;stroke-linecap:square;-inkscape-stroke:none"
     id="path989" />
  <path
     d="m 8.4620041,6.8472603 c -0.05062,0.0019 -0.0957,0.03259 -0.116002,0.079002 l -0.890018,2.0370398 h -2.03204 c -0.123153,-1.1e-5 -0.179233,0.153712 -0.085,0.233004 l 1.650032,1.3980279 -0.631012,1.900037 c -0.03712,0.11281 0.08197,0.213439 0.187003,0.158003 l 1.922038,-1.01002 1.9230379,1.01002 c 0.105583,0.0562 0.225495,-0.04576 0.187003,-0.159003 L 9.9440341,10.593334 11.594067,9.1963061 c 0.09423,-0.07929 0.03815,-0.233015 -0.085,-0.233004 H 9.4810241 L 8.5910071,6.9262616 C 8.5693001,6.8754236 8.5182141,6.843495 8.4630041,6.8462601 Z m 0.006,0.462009 0.804016,1.8400358 c 0.0212,0.04837 0.06919,0.07944 0.122002,0.079 H 11.149057 L 9.7050291,10.449329 c -0.04184,0.0351 -0.05774,0.09235 -0.04,0.144003 L 10.22304,12.265365 8.5300071,11.375347 c -0.0385,-0.02027 -0.08451,-0.02027 -0.123003,0 l -1.694033,0.890018 0.557011,-1.672033 c 0.01774,-0.05165 0.0019,-0.108899 -0.04,-0.144003 L 5.7859531,9.2283051 h 1.756035 c 0.05269,-1.3e-4 0.100247,-0.03158 0.121002,-0.08 z"
     style="font-weight:400;font-family:sans-serif;text-indent:0;text-decoration-line:none;text-decoration-style:solid;text-decoration-color:#000000;text-transform:none;white-space:normal;overflow:visible;opacity:0.3;isolation:auto;mix-blend-mode:normal;fill:#000000;stroke-width:0.264583"
     id="path869" />
</svg>
