<?xml version="1.0" encoding="UTF-8" standalone="no"?>
<!-- Created with Inkscape (http://www.inkscape.org/) -->

<svg
   width="64"
   height="64"
   viewBox="0 0 16.933333 16.933334"
   version="1.1"
   id="svg5"
   inkscape:version="1.1.2 (0a00cf5339, 2022-02-04, custom)"
   sodipodi:docname="folder-default-network-open.svg"
   xmlns:inkscape="http://www.inkscape.org/namespaces/inkscape"
   xmlns:sodipodi="http://sodipodi.sourceforge.net/DTD/sodipodi-0.dtd"
   xmlns:xlink="http://www.w3.org/1999/xlink"
   xmlns="http://www.w3.org/2000/svg"
   xmlns:svg="http://www.w3.org/2000/svg">
  <sodipodi:namedview
     id="namedview7"
     pagecolor="#ffffff"
     bordercolor="#666666"
     borderopacity="1.0"
     inkscape:pageshadow="2"
     inkscape:pageopacity="0.0"
     inkscape:pagecheckerboard="0"
     inkscape:document-units="px"
     showgrid="false"
     units="px"
     height="64px"
     inkscape:zoom="12.546875"
     inkscape:cx="31.960149"
     inkscape:cy="31.960149"
     inkscape:window-width="1920"
     inkscape:window-height="1020"
     inkscape:window-x="0"
     inkscape:window-y="0"
     inkscape:window-maximized="1"
     inkscape:current-layer="svg5" />
  <defs
     id="defs2">
    <linearGradient
       inkscape:collect="always"
       id="linearGradient3964">
      <stop
         style="stop-color:#000000;stop-opacity:1;"
         offset="0"
         id="stop3960" />
      <stop
         style="stop-color:#000000;stop-opacity:0;"
         offset="1"
         id="stop3962" />
    </linearGradient>
    <linearGradient
       inkscape:collect="always"
       xlink:href="#linearGradient3964"
       id="linearGradient3966"
       x1="56"
       y1="50"
       x2="62"
       y2="56"
       gradientUnits="userSpaceOnUse"
       gradientTransform="scale(0.26458334)" />
  </defs>
  <path
     id="rect2149"
     style="opacity:0.3;fill:#000000;fill-opacity:1;stroke:none;stroke-width:0.529167;stroke-linejoin:round;stroke-miterlimit:4;stroke-dasharray:none;stroke-opacity:1"
     d="m 3.1750001,2.1166667 c -0.2931584,0 -0.5291667,0.2360083 -0.5291667,0.5291667 h -0.79375 c -0.2931584,0 -0.5291667,0.2360083 -0.5291667,0.5291666 v 5.8208335 c 0,0.2931584 0.2360083,0.5291667 0.5291667,0.5291667 H 15.610417 c 0.293158,0 0.529167,-0.2360083 0.529167,-0.5291667 V 3.175 c 0,-0.2931583 -0.236009,-0.5291666 -0.529167,-0.5291666 H 7.9375002 c 0,-0.2931584 -0.2360083,-0.5291667 -0.5291667,-0.5291667 z" />
  <path
     id="rect2689"
     style="fill:#ffffff;fill-opacity:1;stroke:none;stroke-width:0.529167;stroke-linejoin:round;stroke-miterlimit:4;stroke-dasharray:none;stroke-opacity:1"
     d="m 3.3072918,2.3812501 c -0.2931584,0 -0.3968751,0.2360083 -0.3968751,0.5291666 H 1.8520834 C 1.7055042,2.9104167 1.5875,3.0284209 1.5875,3.1750001 v 5.8208335 c 0,0.1465791 0.1180042,0.2645833 0.2645834,0.2645833 H 15.610417 c 0.146579,0 0.264583,-0.1180042 0.264583,-0.2645833 V 3.1750001 c 0,-0.1465792 -0.118004,-0.2645834 -0.264583,-0.2645834 H 7.6729169 c 0,-0.2931583 -0.1037167,-0.5291666 -0.396875,-0.5291666 z"
     sodipodi:nodetypes="scsssssssscss" />
  <path
     style="color:#000000;opacity:0.55;fill:#c00084;fill-opacity:1;stroke:none;stroke-linejoin:round;-inkscape-stroke:none"
     d="m 8.4657553,6.3500011 c -0.2356556,0 -0.4462946,0.1222548 -0.5507813,0.2675781 -0.1044867,0.1453234 -0.1435947,0.2790373 -0.2089844,0.4003906 -0.00135,0.00258 -0.00265,0.00519 -0.00391,0.00781 L 7.5106771,7.4085948 H 0.79388021 c -0.006508,-2.404e-4 -0.0130231,-2.404e-4 -0.0195313,0 C 0.51138226,7.4288228 0.26458334,7.6487907 0.26458334,7.9378917 V 14.55293 c 0,0.288582 0.24071437,0.529297 0.52929687,0.529297 H 16.139583 c 0.288582,0 0.529297,-0.240715 0.529297,-0.529297 V 6.879298 c 0,-0.2885813 -0.240716,-0.5292969 -0.529297,-0.5292969 H 8.4677084 c -6.5e-4,-2.4e-6 -0.0013,0 -0.00195,0 z"
     id="path1470"
     sodipodi:nodetypes="sscccccssssssscss" />
  <path
     style="color:#000000;fill:#ea88d7;fill-opacity:1;stroke:none;stroke-width:0.529167;stroke-linejoin:round;-inkscape-stroke:none"
     d="M 0.79375005,7.672918 H 7.6729167 L 7.9375001,7.1437511 C 8.0921218,6.8567966 8.1157904,6.6170627 8.4666667,6.6145847 h 7.6729163 c 0.14658,0 0.264584,0.1180042 0.264584,0.2645833 v 7.673111 c 0,0.146579 -0.118004,0.264584 -0.264584,0.264584 H 0.79375005 c -0.14657918,0 -0.26458335,-0.118005 -0.26458335,-0.264584 V 7.9375013 c 0,-0.1465791 0.11843592,-0.2533411 0.26458335,-0.2645833 z"
     id="path1468"
     sodipodi:nodetypes="ccccsssssssc" />
  <path
     id="rect3575"
     style="opacity:0.1;fill:url(#linearGradient3966);fill-opacity:1;stroke-width:0.529167;stroke-linejoin:round"
     d="m 16.404167,11.641667 -3.175,3.175 h 2.910417 c 0.14658,0 0.264583,-0.118004 0.264583,-0.264583 z" />
  <path
     d="m 8.4667291,12.408901 c -0.3740073,0 -0.7450148,0.197004 -0.8970177,0.367008 l 0.8970177,0.982019 0.9050184,-0.973019 C 9.2197435,12.605905 8.8407361,12.408901 8.4667291,12.408901 Z m 0,-1.707033 c -0.7830155,0 -1.4840293,0.314006 -2.0600405,0.794015 l 0.5600109,0.603012 c 0.3850077,-0.277005 0.9820194,-0.54401 1.4770291,-0.54401 0.5070096,0 1.133022,0.273005 1.5220296,0.563011 L 10.54377,11.487883 C 9.9677583,11.007874 9.2487451,10.701868 8.4667291,10.701868 Z m 0,-1.7060346 c -1.2080237,0 -2.3150456,0.46801 -3.1750624,1.2470246 l 0.5480105,0.622013 c 0.7670152,-0.677014 1.5740312,-1.0160206 2.6270519,-1.0160206 1.0520203,0 1.8350359,0.3190056 2.6380519,1.0300206 l 0.53701,-0.636013 C 10.781774,9.4628434 9.6747525,8.9958334 8.4667291,8.9958334 Z"
     style="overflow:visible;opacity:0.2;fill:#000000;stroke-width:0.264583"
     id="path869" />
</svg>
