<?xml version="1.0" encoding="UTF-8" standalone="no"?>
<!-- Created with Inkscape (http://www.inkscape.org/) -->

<svg
   width="64"
   height="64"
   viewBox="0 0 16.933333 16.933334"
   version="1.1"
   id="svg5"
   inkscape:version="1.1.2 (0a00cf5339, 2022-02-04, custom)"
   sodipodi:docname="folder-publicshare.svg"
   xmlns:inkscape="http://www.inkscape.org/namespaces/inkscape"
   xmlns:sodipodi="http://sodipodi.sourceforge.net/DTD/sodipodi-0.dtd"
   xmlns:xlink="http://www.w3.org/1999/xlink"
   xmlns="http://www.w3.org/2000/svg"
   xmlns:svg="http://www.w3.org/2000/svg">
  <sodipodi:namedview
     id="namedview7"
     pagecolor="#ffffff"
     bordercolor="#666666"
     borderopacity="1.0"
     inkscape:pageshadow="2"
     inkscape:pageopacity="0.0"
     inkscape:pagecheckerboard="0"
     inkscape:document-units="px"
     showgrid="false"
     units="px"
     height="64px"
     inkscape:zoom="15.564393"
     inkscape:cx="32.028233"
     inkscape:cy="32.477977"
     inkscape:window-width="1920"
     inkscape:window-height="1021"
     inkscape:window-x="0"
     inkscape:window-y="0"
     inkscape:window-maximized="1"
     inkscape:current-layer="svg5" />
  <defs
     id="defs2">
    <linearGradient
       inkscape:collect="always"
       id="linearGradient3964">
      <stop
         style="stop-color:#000000;stop-opacity:1;"
         offset="0"
         id="stop3960" />
      <stop
         style="stop-color:#000000;stop-opacity:0;"
         offset="1"
         id="stop3962" />
    </linearGradient>
    <linearGradient
       inkscape:collect="always"
       xlink:href="#linearGradient3964"
       id="linearGradient3966"
       x1="56"
       y1="50"
       x2="62"
       y2="56"
       gradientUnits="userSpaceOnUse"
       gradientTransform="scale(0.26458334)" />
  </defs>
  <path
     id="rect2149"
     style="opacity:0.3;fill:#000000;fill-opacity:1;stroke:none;stroke-width:0.529167;stroke-linejoin:round;stroke-miterlimit:4;stroke-dasharray:none;stroke-opacity:1"
     d="m 3.1750001,2.1166667 c -0.2931584,0 -0.5291667,0.2360083 -0.5291667,0.5291667 h -0.79375 c -0.2931584,0 -0.5291667,0.2360083 -0.5291667,0.5291666 v 5.8208335 c 0,0.2931584 0.2360083,0.5291667 0.5291667,0.5291667 H 15.610417 c 0.293158,0 0.529167,-0.2360083 0.529167,-0.5291667 V 3.175 c 0,-0.2931583 -0.236009,-0.5291666 -0.529167,-0.5291666 H 7.9375002 c 0,-0.2931584 -0.2360083,-0.5291667 -0.5291667,-0.5291667 z" />
  <path
     id="rect2689"
     style="fill:#ffffff;fill-opacity:1;stroke:none;stroke-width:0.529167;stroke-linejoin:round;stroke-miterlimit:4;stroke-dasharray:none;stroke-opacity:1"
     d="m 3.3072918,2.3812501 c -0.2931584,0 -0.3968751,0.2360083 -0.3968751,0.5291666 H 1.8520834 C 1.7055042,2.9104167 1.5875,3.0284209 1.5875,3.1750001 v 5.8208335 c 0,0.1465791 0.1180042,0.2645833 0.2645834,0.2645833 H 15.610417 c 0.146579,0 0.264583,-0.1180042 0.264583,-0.2645833 V 3.1750001 c 0,-0.1465792 -0.118004,-0.2645834 -0.264583,-0.2645834 H 7.6729169 c 0,-0.2931583 -0.1037167,-0.5291666 -0.396875,-0.5291666 z"
     sodipodi:nodetypes="scsssssssscss" />
  <path
     id="rect3270"
     style="opacity:0.3;fill:#000000;fill-opacity:1;stroke-width:0.529167;stroke-linejoin:round"
     d="m 3.7041667,2.9104168 h 3.1749999 c 0.1465792,0 0.2645834,0.1180042 0.2645834,0.2645834 0,0.1465792 -0.1180042,0.2645833 -0.2645834,0.2645833 H 3.7041667 c -0.1465792,0 -0.2645834,-0.1180041 -0.2645834,-0.2645833 0,-0.1465792 0.1180042,-0.2645834 0.2645834,-0.2645834 z" />
  <path
     style="color:#000000;opacity:0.55;fill:#c00084;fill-opacity:1;stroke:none;stroke-linejoin:round;-inkscape-stroke:none"
     d="M 8.4657553,3.96875 C 8.2301056,3.9704142 8.0194607,4.0910048 7.914974,4.2363281 7.8104873,4.3816515 7.7713793,4.5153654 7.7059896,4.6367187 c -0.00135,0.00258 -0.00265,0.00519 -0.00391,0.00781 L 7.5106771,5.0273437 H 0.79388021 c -0.006508,-2.404e-4 -0.0130231,-2.404e-4 -0.0195313,0 -0.26296665,0.020228 -0.50976557,0.2401959 -0.50976557,0.5292969 v 8.9960934 c 0,0.288582 0.24071437,0.529297 0.52929687,0.529297 H 16.139583 c 0.288582,0 0.529297,-0.240715 0.529297,-0.529297 V 4.4980469 C 16.66888,4.2094656 16.428164,3.96875 16.139583,3.96875 H 8.4677084 c -6.5e-4,-2.4e-6 -0.0013,-2.4e-6 -0.00195,0 z"
     id="path1470"
     sodipodi:nodetypes="sscccccssssssscss" />
  <path
     style="color:#000000;fill:#ea88d7;fill-opacity:1;stroke:none;stroke-width:0.529167;stroke-linejoin:round;-inkscape-stroke:none"
     d="M 0.79375005,5.2916669 H 7.6729167 L 7.9375001,4.7625 C 8.0921218,4.4755455 8.1157904,4.2358116 8.4666667,4.2333336 h 7.6729163 c 0.14658,0 0.264584,0.1180042 0.264584,0.2645833 V 14.552083 c 0,0.146579 -0.118004,0.264584 -0.264584,0.264584 H 0.79375005 c -0.14657918,0 -0.26458335,-0.118005 -0.26458335,-0.264584 V 5.5562502 c 0,-0.1465791 0.11843592,-0.2533411 0.26458335,-0.2645833 z"
     id="path1468" />
  <path
     id="rect3575"
     style="opacity:0.1;fill:url(#linearGradient3966);fill-opacity:1;stroke-width:0.529167;stroke-linejoin:round"
     d="m 16.404167,11.641667 -3.175,3.175 h 2.910417 c 0.14658,0 0.264583,-0.118004 0.264583,-0.264583 z" />
  <path
     id="ellipse19"
     style="opacity:0.15;fill:#000000;stroke-width:0.264586"
     d="m 9.5249996,6.6145834 c -0.5844995,4.3e-6 -1.0583289,0.4738339 -1.058333,1.0583334 4.1e-6,0.5844995 0.4738335,1.058329 1.058333,1.0583333 C 10.1095,8.7312466 10.58333,8.2574169 10.583334,7.6729168 10.58333,7.0884167 10.1095,6.6145869 9.5249996,6.6145834 Z M 7.4083334,8.7312501 c -0.5844996,4.1e-6 -1.0583292,0.4738337 -1.0583333,1.0583333 4e-6,0.5844996 0.4738336,1.0583296 1.0583333,1.0583336 0.5844997,-4e-6 1.0583292,-0.473834 1.0583332,-1.0583336 C 8.4666625,9.2050838 7.992833,8.7312543 7.4083334,8.7312501 Z m 2.1166662,2.1166669 c -0.5844994,4e-6 -1.0583287,0.473834 -1.058333,1.058333 3.8e-6,0.5845 0.4738332,1.05833 1.058333,1.058334 0.5845004,-4e-6 1.0583304,-0.473834 1.0583344,-1.058334 -4e-6,-0.5845 -0.473834,-1.058329 -1.0583344,-1.058333 z"
     sodipodi:nodetypes="ccccccccccccccc" />
  <path
     id="path4152"
     style="opacity:0.3;fill:#000000;stroke-width:0.264586"
     d="M 36 25 C 33.790867 25.000016 32.000016 26.790868 32 29 C 32.000016 31.209132 33.790867 32.999984 36 33 C 38.209134 32.999987 39.999985 31.209134 40 29 C 39.999985 26.790866 38.209134 25.000013 36 25 z M 36 26 A 2.9999999 2.9999999 0 0 1 39 29 A 2.9999999 2.9999999 0 0 1 36 32 A 2.9999999 2.9999999 0 0 1 33 29 A 2.9999999 2.9999999 0 0 1 36 26 z M 28 33 C 25.790868 33.000016 24.000016 34.790866 24 37 C 24.000015 39.20913 25.790867 40.999985 28 41 C 30.209133 40.999985 31.999985 39.20913 32 37 C 31.999985 34.790866 30.209132 33.000016 28 33 z M 28 34 A 2.9999999 2.9999999 0 0 1 31 37 A 2.9999999 2.9999999 0 0 1 28 40 A 2.9999999 2.9999999 0 0 1 25 37 A 2.9999999 2.9999999 0 0 1 28 34 z M 36 41 C 33.790868 41.000015 32.000017 42.79087 32 45 C 32.000015 47.209134 33.790865 48.999985 36 49 C 38.209134 48.999989 39.999985 47.209138 40 45 C 39.999985 42.790866 38.209134 41.000015 36 41 z M 36 42 A 2.9999999 2.9999999 0 0 1 39 45 A 2.9999999 2.9999999 0 0 1 36 48 A 2.9999999 2.9999999 0 0 1 33 45 A 2.9999999 2.9999999 0 0 1 36 42 z "
     transform="scale(0.26458334)" />
  <path
     id="path1118"
     style="opacity:0.3;fill:#000000;stroke-width:0.0700035"
     d="m 8.6149776,8.2088014 -0.67076,0.67076 a 1.0583408,1.0583408 0 0 1 0.374654,0.3741372 l 0.670244,-0.67076 A 1.0583408,1.0583408 0 0 1 8.6149776,8.2088014 Z m -0.296622,2.1166666 a 1.0583408,1.0583408 0 0 1 -0.374138,0.374138 l 0.67076,0.67076 a 1.0583408,1.0583408 0 0 1 0.374138,-0.374138 z" />
</svg>
