<?xml version="1.0" encoding="UTF-8" standalone="no"?>
<!-- Created with Inkscape (http://www.inkscape.org/) -->

<svg
   width="64"
   height="64"
   viewBox="0 0 16.933333 16.933334"
   version="1.1"
   id="svg5"
   inkscape:version="1.1.2 (0a00cf5339, 2022-02-04, custom)"
   sodipodi:docname="folder-music-open.svg"
   xmlns:inkscape="http://www.inkscape.org/namespaces/inkscape"
   xmlns:sodipodi="http://sodipodi.sourceforge.net/DTD/sodipodi-0.dtd"
   xmlns:xlink="http://www.w3.org/1999/xlink"
   xmlns="http://www.w3.org/2000/svg"
   xmlns:svg="http://www.w3.org/2000/svg">
  <sodipodi:namedview
     id="namedview7"
     pagecolor="#ffffff"
     bordercolor="#666666"
     borderopacity="1.0"
     inkscape:pageshadow="2"
     inkscape:pageopacity="0.0"
     inkscape:pagecheckerboard="0"
     inkscape:document-units="px"
     showgrid="false"
     units="px"
     height="64px"
     inkscape:zoom="8.8719804"
     inkscape:cx="36.688539"
     inkscape:cy="36.801254"
     inkscape:window-width="1920"
     inkscape:window-height="1021"
     inkscape:window-x="0"
     inkscape:window-y="0"
     inkscape:window-maximized="1"
     inkscape:current-layer="svg5" />
  <defs
     id="defs2">
    <linearGradient
       inkscape:collect="always"
       id="linearGradient3964">
      <stop
         style="stop-color:#000000;stop-opacity:1;"
         offset="0"
         id="stop3960" />
      <stop
         style="stop-color:#000000;stop-opacity:0;"
         offset="1"
         id="stop3962" />
    </linearGradient>
    <linearGradient
       inkscape:collect="always"
       xlink:href="#linearGradient3964"
       id="linearGradient3966"
       x1="56"
       y1="50"
       x2="62"
       y2="56"
       gradientUnits="userSpaceOnUse"
       gradientTransform="scale(0.26458334)" />
  </defs>
  <path
     id="rect2149"
     style="opacity:0.3;fill:#000000;fill-opacity:1;stroke:none;stroke-width:0.529167;stroke-linejoin:round;stroke-miterlimit:4;stroke-dasharray:none;stroke-opacity:1"
     d="m 3.1750001,2.1166667 c -0.2931584,0 -0.5291667,0.2360083 -0.5291667,0.5291667 h -0.79375 c -0.2931584,0 -0.5291667,0.2360083 -0.5291667,0.5291666 v 5.8208335 c 0,0.2931584 0.2360083,0.5291667 0.5291667,0.5291667 H 15.610417 c 0.293158,0 0.529167,-0.2360083 0.529167,-0.5291667 V 3.175 c 0,-0.2931583 -0.236009,-0.5291666 -0.529167,-0.5291666 H 7.9375002 c 0,-0.2931584 -0.2360083,-0.5291667 -0.5291667,-0.5291667 z" />
  <path
     id="rect2689"
     style="fill:#ffffff;fill-opacity:1;stroke:none;stroke-width:0.529167;stroke-linejoin:round;stroke-miterlimit:4;stroke-dasharray:none;stroke-opacity:1"
     d="m 3.3072918,2.3812501 c -0.2931584,0 -0.3968751,0.2360083 -0.3968751,0.5291666 H 1.8520834 C 1.7055042,2.9104167 1.5875,3.0284209 1.5875,3.1750001 v 5.8208335 c 0,0.1465791 0.1180042,0.2645833 0.2645834,0.2645833 H 15.610417 c 0.146579,0 0.264583,-0.1180042 0.264583,-0.2645833 V 3.1750001 c 0,-0.1465792 -0.118004,-0.2645834 -0.264583,-0.2645834 H 7.6729169 c 0,-0.2931583 -0.1037167,-0.5291666 -0.396875,-0.5291666 z"
     sodipodi:nodetypes="scsssssssscss" />
  <path
     style="color:#000000;opacity:0.55;fill:#276a23;fill-opacity:1;stroke:none;stroke-linejoin:round;-inkscape-stroke:none"
     d="m 8.4657553,6.3500694 c -0.2356556,0 -0.4462946,0.1222548 -0.5507813,0.2675781 -0.1044867,0.1453234 -0.1435947,0.2790373 -0.2089844,0.4003906 -0.00135,0.00258 -0.00265,0.00519 -0.00391,0.00781 L 7.5106771,7.4086631 H 0.79388021 c -0.006508,-2.404e-4 -0.0130231,-2.404e-4 -0.0195313,0 C 0.51138226,7.4288911 0.26458334,7.648859 0.26458334,7.93796 v 6.614774 c 0,0.288582 0.24071437,0.529297 0.52929687,0.529297 H 16.139583 c 0.288582,0 0.529297,-0.240715 0.529297,-0.529297 V 6.8793663 c 0,-0.2885813 -0.240716,-0.5292969 -0.529297,-0.5292969 H 8.4677084 c -6.5e-4,-2.4e-6 -0.0013,0 -0.00195,0 z"
     id="path1470"
     sodipodi:nodetypes="sscccccssssssscss" />
  <path
     style="color:#000000;fill:#82be6c;fill-opacity:1;stroke:none;stroke-width:0.529167;stroke-linejoin:round;-inkscape-stroke:none"
     d="M 0.79375005,7.6729863 H 7.6729167 L 7.9375001,7.1438194 C 8.0921218,6.8568649 8.1157904,6.617131 8.4666667,6.614653 h 7.6729163 c 0.14658,0 0.264584,0.1180042 0.264584,0.2645833 v 7.6728467 c 0,0.146579 -0.118004,0.264584 -0.264584,0.264584 H 0.79375005 c -0.14657918,0 -0.26458335,-0.118005 -0.26458335,-0.264584 V 7.9375696 c 0,-0.1465791 0.11843592,-0.2533411 0.26458335,-0.2645833 z"
     id="path1468"
     sodipodi:nodetypes="ccccsssssssc" />
  <path
     id="rect3575"
     style="opacity:0.1;fill:url(#linearGradient3966);fill-opacity:1;stroke-width:0.529167;stroke-linejoin:round"
     d="m 16.404167,11.641667 -3.175,3.175 h 2.910417 c 0.14658,0 0.264583,-0.118004 0.264583,-0.264583 z" />
  <path
     id="path19"
     style="opacity:0.15;fill:#000000;stroke-width:0.264586"
     d="M 7.4081042,8.4665726 V 9.5249059 H 10.583619 V 8.4665726 Z M 9.6575783,11.906157 A 0.92604819,0.66146303 0 0 0 8.7310199,12.567615 0.92604819,0.66146303 0 0 0 9.6575783,13.229074 0.92604819,0.66146303 0 0 0 10.583619,12.567615 0.92604819,0.66146303 0 0 0 9.6575783,11.906157 Z M 6.2174792,12.435323 A 0.92604819,0.66146303 0 0 0 5.2914375,13.096781 0.92604819,0.66146303 0 0 0 6.2174792,13.75824 0.92604819,0.66146303 0 0 0 7.1435208,13.096781 0.92604819,0.66146303 0 0 0 6.2174792,12.435323 Z" />
  <path
     d="M 7.1437648,8.2020834 V 12.521173 C 6.9254822,12.309505 6.593957,12.170862 6.2177168,12.170862 c -0.6574944,0 -1.1906335,0.414605 -1.1906335,0.926048 0,0.511444 0.5331391,0.926049 1.1906335,0.926049 0.6574941,0 1.1906335,-0.414605 1.1906335,-0.926049 l -5.292e-4,-0.0056 h 5.292e-4 V 9.7895947 h 3.1750207 v 2.2024083 c -0.218283,-0.211669 -0.549808,-0.350311 -0.9260477,-0.350311 -0.6574937,0 -1.1906334,0.414605 -1.1906334,0.926048 0,0.511443 0.5331397,0.926049 1.1906334,0.926049 0.6574937,0 1.1906327,-0.414606 1.1906327,-0.926049 0,-0.0034 -0.0011,-0.0064 -0.0011,-0.0098 h 0.0011 V 8.2020834 H 10.583371 Z M 7.4083503,8.4666686 H 10.583371 V 9.5250094 H 7.4083503 Z m 2.248973,3.4396084 c 0.5114427,0 0.9260477,0.296336 0.9260477,0.661463 0,0.365127 -0.414605,0.661463 -0.9260477,0.661463 -0.5114427,0 -0.9260474,-0.296336 -0.9260474,-0.661463 0,-0.365127 0.4146047,-0.661463 0.9260474,-0.661463 z m -3.4396065,0.52917 c 0.511443,0 0.926048,0.296336 0.926048,0.661463 0,0.365128 -0.414605,0.661464 -0.926048,0.661464 -0.5114433,0 -0.9260483,-0.296336 -0.9260483,-0.661464 0,-0.365127 0.414605,-0.661463 0.9260483,-0.661463 z"
     style="opacity:0.3;fill:#000000;stroke-width:0.0700035"
     id="path917" />
</svg>
