<?xml version="1.0" encoding="UTF-8" standalone="no"?>
<!-- Created with Inkscape (http://www.inkscape.org/) -->

<svg
   width="64"
   height="64"
   viewBox="0 0 16.933333 16.933334"
   version="1.1"
   id="svg5"
   inkscape:version="1.1.2 (0a00cf5339, 2022-02-04, custom)"
   sodipodi:docname="folder-publicshare-open.svg"
   xmlns:inkscape="http://www.inkscape.org/namespaces/inkscape"
   xmlns:sodipodi="http://sodipodi.sourceforge.net/DTD/sodipodi-0.dtd"
   xmlns:xlink="http://www.w3.org/1999/xlink"
   xmlns="http://www.w3.org/2000/svg"
   xmlns:svg="http://www.w3.org/2000/svg">
  <sodipodi:namedview
     id="namedview7"
     pagecolor="#ffffff"
     bordercolor="#666666"
     borderopacity="1.0"
     inkscape:pageshadow="2"
     inkscape:pageopacity="0.0"
     inkscape:pagecheckerboard="0"
     inkscape:document-units="px"
     showgrid="false"
     units="px"
     height="64px"
     inkscape:zoom="7.7821965"
     inkscape:cx="38.228282"
     inkscape:cy="30.261379"
     inkscape:window-width="1920"
     inkscape:window-height="1021"
     inkscape:window-x="0"
     inkscape:window-y="0"
     inkscape:window-maximized="1"
     inkscape:current-layer="svg5" />
  <defs
     id="defs2">
    <linearGradient
       inkscape:collect="always"
       id="linearGradient3964">
      <stop
         style="stop-color:#000000;stop-opacity:1;"
         offset="0"
         id="stop3960" />
      <stop
         style="stop-color:#000000;stop-opacity:0;"
         offset="1"
         id="stop3962" />
    </linearGradient>
    <linearGradient
       inkscape:collect="always"
       xlink:href="#linearGradient3964"
       id="linearGradient3966"
       x1="56"
       y1="50"
       x2="62"
       y2="56"
       gradientUnits="userSpaceOnUse"
       gradientTransform="scale(0.26458334)" />
  </defs>
  <path
     id="rect2149"
     style="opacity:0.3;fill:#000000;fill-opacity:1;stroke:none;stroke-width:0.529167;stroke-linejoin:round;stroke-miterlimit:4;stroke-dasharray:none;stroke-opacity:1"
     d="m 3.1750001,2.1166667 c -0.2931584,0 -0.5291667,0.2360083 -0.5291667,0.5291667 h -0.79375 c -0.2931584,0 -0.5291667,0.2360083 -0.5291667,0.5291666 v 5.8208335 c 0,0.2931584 0.2360083,0.5291667 0.5291667,0.5291667 H 15.610417 c 0.293158,0 0.529167,-0.2360083 0.529167,-0.5291667 V 3.175 c 0,-0.2931583 -0.236009,-0.5291666 -0.529167,-0.5291666 H 7.9375002 c 0,-0.2931584 -0.2360083,-0.5291667 -0.5291667,-0.5291667 z" />
  <path
     id="rect2689"
     style="fill:#ffffff;fill-opacity:1;stroke:none;stroke-width:0.529167;stroke-linejoin:round;stroke-miterlimit:4;stroke-dasharray:none;stroke-opacity:1"
     d="m 3.3072918,2.3812501 c -0.2931584,0 -0.3968751,0.2360083 -0.3968751,0.5291666 H 1.8520834 C 1.7055042,2.9104167 1.5875,3.0284209 1.5875,3.1750001 v 5.8208335 c 0,0.1465791 0.1180042,0.2645833 0.2645834,0.2645833 H 15.610417 c 0.146579,0 0.264583,-0.1180042 0.264583,-0.2645833 V 3.1750001 c 0,-0.1465792 -0.118004,-0.2645834 -0.264583,-0.2645834 H 7.6729169 c 0,-0.2931583 -0.1037167,-0.5291666 -0.396875,-0.5291666 z"
     sodipodi:nodetypes="scsssssssscss" />
  <path
     style="color:#000000;opacity:0.55;fill:#360079;fill-opacity:1;stroke:none;stroke-linejoin:round;-inkscape-stroke:none"
     d="m 8.4657553,6.3500694 c -0.2356556,0 -0.4462946,0.1222548 -0.5507813,0.2675781 -0.1044867,0.1453234 -0.1435947,0.2790373 -0.2089844,0.4003906 -0.00135,0.00258 -0.00265,0.00519 -0.00391,0.00781 L 7.5106771,7.4086631 H 0.79388021 c -0.006508,-2.404e-4 -0.0130231,-2.404e-4 -0.0195313,0 C 0.51138226,7.4288911 0.26458334,7.648859 0.26458334,7.93796 v 6.614774 c 0,0.288582 0.24071437,0.529297 0.52929687,0.529297 H 16.139583 c 0.288582,0 0.529297,-0.240715 0.529297,-0.529297 V 6.8793663 c 0,-0.2885813 -0.240716,-0.5292969 -0.529297,-0.5292969 H 8.4677084 c -6.5e-4,-2.4e-6 -0.0013,0 -0.00195,0 z"
     id="path1470"
     sodipodi:nodetypes="sscccccssssssscss" />
  <path
     style="color:#000000;fill:#a46be9;fill-opacity:1;stroke:none;stroke-width:0.529167;stroke-linejoin:round;-inkscape-stroke:none"
     d="M 0.79375005,7.6729863 H 7.6729167 L 7.9375001,7.1438194 C 8.0921218,6.8568649 8.1157904,6.617131 8.4666667,6.614653 h 7.6729163 c 0.14658,0 0.264584,0.1180042 0.264584,0.2645833 v 7.6728467 c 0,0.146579 -0.118004,0.264584 -0.264584,0.264584 H 0.79375005 c -0.14657918,0 -0.26458335,-0.118005 -0.26458335,-0.264584 V 7.9375696 c 0,-0.1465791 0.11843592,-0.2533411 0.26458335,-0.2645833 z"
     id="path1468"
     sodipodi:nodetypes="ccccsssssssc" />
  <path
     id="rect3575"
     style="opacity:0.1;fill:url(#linearGradient3966);fill-opacity:1;stroke-width:0.529167;stroke-linejoin:round"
     d="m 16.404167,11.641667 -3.175,3.175 h 2.910417 c 0.14658,0 0.264583,-0.118004 0.264583,-0.264583 z" />
  <path
     id="ellipse19"
     style="opacity:0.15;fill:#000000;stroke-width:0.264586"
     d="m 9.5249996,7.9375001 c -0.5844995,4.3e-6 -1.0583289,0.4738339 -1.058333,1.0583334 4.1e-6,0.5844998 0.4738335,1.0583285 1.058333,1.0583335 C 10.1095,10.054163 10.58333,9.5803333 10.583334,8.9958335 10.58333,8.4113334 10.1095,7.9375036 9.5249996,7.9375001 Z M 7.4083334,10.054167 c -0.5844996,4e-6 -1.0583292,0.473833 -1.0583333,1.058334 4e-6,0.584499 0.4738336,1.058329 1.0583333,1.058333 C 7.9928331,12.17083 8.4666626,11.697 8.4666666,11.112501 8.4666625,10.528 7.992833,10.054171 7.4083334,10.054167 Z m 2.1166662,2.116667 c -0.5844994,4e-6 -1.0583287,0.473834 -1.058333,1.058333 3.8e-6,0.5845 0.4738332,1.05833 1.058333,1.058334 0.5845004,-4e-6 1.0583304,-0.473834 1.0583344,-1.058334 -4e-6,-0.5845 -0.473834,-1.058329 -1.0583344,-1.058333 z"
     sodipodi:nodetypes="ccccccccccccccc" />
  <path
     id="path4152"
     style="opacity:0.3;fill:#000000;stroke-width:0.070005"
     d="m 9.5250002,7.9375002 c -0.5844997,4.3e-6 -1.0583291,0.4738339 -1.0583333,1.0583334 4.2e-6,0.5844997 0.4738336,1.0583294 1.0583333,1.0583334 C 10.1095,10.054163 10.58333,9.5803333 10.583334,8.9958336 10.58333,8.4113335 10.1095,7.9375037 9.5250002,7.9375002 Z m 0,0.2645834 a 0.79374999,0.79374999 0 0 1 0.7937498,0.79375 0.79374999,0.79374999 0 0 1 -0.7937498,0.7937497 0.79374999,0.79374999 0 0 1 -0.79375,-0.7937497 0.79374999,0.79374999 0 0 1 0.79375,-0.79375 z M 7.4083335,10.054167 c -0.5844995,4e-6 -1.0583291,0.473833 -1.0583333,1.058334 3.9e-6,0.584499 0.4738335,1.058329 1.0583333,1.058333 0.5844998,-4e-6 1.0583294,-0.473834 1.0583334,-1.058333 -4e-6,-0.584501 -0.4738339,-1.05833 -1.0583334,-1.058334 z m 0,0.264583 a 0.79374999,0.79374999 0 0 1 0.79375,0.793751 0.79374999,0.79374999 0 0 1 -0.79375,0.79375 0.79374999,0.79374999 0 0 1 -0.79375,-0.79375 0.79374999,0.79374999 0 0 1 0.79375,-0.793751 z m 2.1166667,1.852084 c -0.5844995,4e-6 -1.0583288,0.473835 -1.0583333,1.058334 3.9e-6,0.5845 0.473833,1.058329 1.0583333,1.058333 0.5844998,-3e-6 1.0583298,-0.473832 1.0583338,-1.058333 -4e-6,-0.5845 -0.473834,-1.05833 -1.0583338,-1.058334 z m 0,0.264584 a 0.79374999,0.79374999 0 0 1 0.7937498,0.79375 0.79374999,0.79374999 0 0 1 -0.7937498,0.79375 0.79374999,0.79374999 0 0 1 -0.79375,-0.79375 0.79374999,0.79374999 0 0 1 0.79375,-0.79375 z" />
  <path
     id="path1118"
     style="opacity:0.3;fill:#000000;stroke-width:0.0700035"
     d="m 8.6149776,9.5317183 -0.67076,0.6707597 a 1.0583408,1.0583408 0 0 1 0.374654,0.374138 l 0.670244,-0.6707607 a 1.0583408,1.0583408 0 0 1 -0.374138,-0.374137 z m -0.296622,2.1166667 a 1.0583408,1.0583408 0 0 1 -0.374138,0.374138 l 0.67076,0.67076 a 1.0583408,1.0583408 0 0 1 0.374138,-0.374138 z" />
</svg>
