<?xml version="1.0" encoding="UTF-8" standalone="no"?>
<!-- Created with Inkscape (http://www.inkscape.org/) -->

<svg
   width="64"
   height="64"
   viewBox="0 0 16.933333 16.933334"
   version="1.1"
   id="svg5"
   inkscape:version="1.1.2 (0a00cf5339, 2022-02-04, custom)"
   sodipodi:docname="folder-templates.svg"
   xmlns:inkscape="http://www.inkscape.org/namespaces/inkscape"
   xmlns:sodipodi="http://sodipodi.sourceforge.net/DTD/sodipodi-0.dtd"
   xmlns:xlink="http://www.w3.org/1999/xlink"
   xmlns="http://www.w3.org/2000/svg"
   xmlns:svg="http://www.w3.org/2000/svg">
  <sodipodi:namedview
     id="namedview7"
     pagecolor="#ffffff"
     bordercolor="#666666"
     borderopacity="1.0"
     inkscape:pageshadow="2"
     inkscape:pageopacity="0.0"
     inkscape:pagecheckerboard="0"
     inkscape:document-units="px"
     showgrid="false"
     units="px"
     height="64px"
     inkscape:zoom="15.564393"
     inkscape:cx="32.028233"
     inkscape:cy="32.477977"
     inkscape:window-width="1920"
     inkscape:window-height="1021"
     inkscape:window-x="0"
     inkscape:window-y="0"
     inkscape:window-maximized="1"
     inkscape:current-layer="svg5" />
  <defs
     id="defs2">
    <linearGradient
       inkscape:collect="always"
       id="linearGradient3964">
      <stop
         style="stop-color:#000000;stop-opacity:1;"
         offset="0"
         id="stop3960" />
      <stop
         style="stop-color:#000000;stop-opacity:0;"
         offset="1"
         id="stop3962" />
    </linearGradient>
    <linearGradient
       inkscape:collect="always"
       xlink:href="#linearGradient3964"
       id="linearGradient3966"
       x1="56"
       y1="50"
       x2="62"
       y2="56"
       gradientUnits="userSpaceOnUse"
       gradientTransform="scale(0.26458334)" />
  </defs>
  <path
     id="rect2149"
     style="opacity:0.3;fill:#000000;fill-opacity:1;stroke:none;stroke-width:0.529167;stroke-linejoin:round;stroke-miterlimit:4;stroke-dasharray:none;stroke-opacity:1"
     d="m 3.1750001,2.1166667 c -0.2931584,0 -0.5291667,0.2360083 -0.5291667,0.5291667 h -0.79375 c -0.2931584,0 -0.5291667,0.2360083 -0.5291667,0.5291666 v 5.8208335 c 0,0.2931584 0.2360083,0.5291667 0.5291667,0.5291667 H 15.610417 c 0.293158,0 0.529167,-0.2360083 0.529167,-0.5291667 V 3.175 c 0,-0.2931583 -0.236009,-0.5291666 -0.529167,-0.5291666 H 7.9375002 c 0,-0.2931584 -0.2360083,-0.5291667 -0.5291667,-0.5291667 z" />
  <path
     id="rect2689"
     style="fill:#ffffff;fill-opacity:1;stroke:none;stroke-width:0.529167;stroke-linejoin:round;stroke-miterlimit:4;stroke-dasharray:none;stroke-opacity:1"
     d="m 3.3072918,2.3812501 c -0.2931584,0 -0.3968751,0.2360083 -0.3968751,0.5291666 H 1.8520834 C 1.7055042,2.9104167 1.5875,3.0284209 1.5875,3.1750001 v 5.8208335 c 0,0.1465791 0.1180042,0.2645833 0.2645834,0.2645833 H 15.610417 c 0.146579,0 0.264583,-0.1180042 0.264583,-0.2645833 V 3.1750001 c 0,-0.1465792 -0.118004,-0.2645834 -0.264583,-0.2645834 H 7.6729169 c 0,-0.2931583 -0.1037167,-0.5291666 -0.396875,-0.5291666 z"
     sodipodi:nodetypes="scsssssssscss" />
  <path
     id="rect3270"
     style="opacity:0.3;fill:#000000;fill-opacity:1;stroke-width:0.529167;stroke-linejoin:round"
     d="m 3.7041667,2.9104168 h 3.1749999 c 0.1465792,0 0.2645834,0.1180042 0.2645834,0.2645834 0,0.1465792 -0.1180042,0.2645833 -0.2645834,0.2645833 H 3.7041667 c -0.1465792,0 -0.2645834,-0.1180041 -0.2645834,-0.2645833 0,-0.1465792 0.1180042,-0.2645834 0.2645834,-0.2645834 z" />
  <path
     style="color:#000000;opacity:0.55;fill:#998800;fill-opacity:1;stroke:none;stroke-linejoin:round;-inkscape-stroke:none"
     d="M 8.4657553,3.96875 C 8.2301056,3.9704142 8.0194607,4.0910048 7.914974,4.2363281 7.8104873,4.3816515 7.7713793,4.5153654 7.7059896,4.6367187 c -0.00135,0.00258 -0.00265,0.00519 -0.00391,0.00781 L 7.5106771,5.0273437 H 0.79388021 c -0.006508,-2.404e-4 -0.0130231,-2.404e-4 -0.0195313,0 -0.26296665,0.020228 -0.50976557,0.2401959 -0.50976557,0.5292969 v 8.9960934 c 0,0.288582 0.24071437,0.529297 0.52929687,0.529297 H 16.139583 c 0.288582,0 0.529297,-0.240715 0.529297,-0.529297 V 4.4980469 C 16.66888,4.2094656 16.428164,3.96875 16.139583,3.96875 H 8.4677084 c -6.5e-4,-2.4e-6 -0.0013,-2.4e-6 -0.00195,0 z"
     id="path1470"
     sodipodi:nodetypes="sscccccssssssscss" />
  <path
     style="color:#000000;fill:#e9d26b;fill-opacity:1;stroke:none;stroke-width:0.529167;stroke-linejoin:round;-inkscape-stroke:none"
     d="M 0.79375005,5.2916669 H 7.6729167 L 7.9375001,4.7625 C 8.0921218,4.4755455 8.1157904,4.2358116 8.4666667,4.2333336 h 7.6729163 c 0.14658,0 0.264584,0.1180042 0.264584,0.2645833 V 14.552083 c 0,0.146579 -0.118004,0.264584 -0.264584,0.264584 H 0.79375005 c -0.14657918,0 -0.26458335,-0.118005 -0.26458335,-0.264584 V 5.5562502 c 0,-0.1465791 0.11843592,-0.2533411 0.26458335,-0.2645833 z"
     id="path1468" />
  <path
     id="rect3575"
     style="opacity:0.1;fill:url(#linearGradient3966);fill-opacity:1;stroke-width:0.529167;stroke-linejoin:round"
     d="m 16.404167,11.641667 -3.175,3.175 h 2.910417 c 0.14658,0 0.264583,-0.118004 0.264583,-0.264583 z" />
  <path
     id="rect852"
     style="opacity:0.15;stroke-width:0.999999;stroke-linejoin:round;stroke-opacity:0.501961"
     d="M 24,28.5 V 47 h 18.5 z m 2,5 L 37.5,45 H 26 Z"
     transform="scale(0.26458334)"
     sodipodi:nodetypes="cccccccc" />
  <path
     id="path878"
     style="stroke-width:3.7796;fill:#000000;opacity:0.3"
     d="M 23 26 L 23 48 L 45 48 L 23 26 z M 24 28.5 L 42.5 47 L 24 47 L 24 28.5 z M 26 33.5 L 26 45 L 37.5 45 L 26 33.5 z M 27 36 L 35 44 L 27 44 L 27 36 z "
     transform="scale(0.26458334)" />
</svg>
