<?xml version="1.0" encoding="UTF-8" standalone="no"?>
<!-- Created with Inkscape (http://www.inkscape.org/) -->

<svg
   width="64"
   height="64"
   viewBox="0 0 16.933333 16.933334"
   version="1.1"
   id="svg5"
   inkscape:version="1.1.2 (0a00cf5339, 2022-02-04, custom)"
   sodipodi:docname="user-home-open.svg"
   xmlns:inkscape="http://www.inkscape.org/namespaces/inkscape"
   xmlns:sodipodi="http://sodipodi.sourceforge.net/DTD/sodipodi-0.dtd"
   xmlns:xlink="http://www.w3.org/1999/xlink"
   xmlns="http://www.w3.org/2000/svg"
   xmlns:svg="http://www.w3.org/2000/svg">
  <sodipodi:namedview
     id="namedview7"
     pagecolor="#ffffff"
     bordercolor="#666666"
     borderopacity="1.0"
     inkscape:pageshadow="2"
     inkscape:pageopacity="0.0"
     inkscape:pagecheckerboard="0"
     inkscape:document-units="px"
     showgrid="false"
     units="px"
     height="64px"
     inkscape:zoom="8"
     inkscape:cx="32.6875"
     inkscape:cy="50.6875"
     inkscape:window-width="1920"
     inkscape:window-height="1021"
     inkscape:window-x="0"
     inkscape:window-y="0"
     inkscape:window-maximized="1"
     inkscape:current-layer="svg5" />
  <defs
     id="defs2">
    <linearGradient
       inkscape:collect="always"
       id="linearGradient3964">
      <stop
         style="stop-color:#000000;stop-opacity:1;"
         offset="0"
         id="stop3960" />
      <stop
         style="stop-color:#000000;stop-opacity:0;"
         offset="1"
         id="stop3962" />
    </linearGradient>
    <linearGradient
       inkscape:collect="always"
       xlink:href="#linearGradient3964"
       id="linearGradient3966"
       x1="56"
       y1="50"
       x2="62"
       y2="56"
       gradientUnits="userSpaceOnUse"
       gradientTransform="scale(0.26458334)" />
  </defs>
  <path
     id="rect2149"
     style="opacity:0.3;fill:#000000;fill-opacity:1;stroke:none;stroke-width:0.529167;stroke-linejoin:round;stroke-miterlimit:4;stroke-dasharray:none;stroke-opacity:1"
     d="m 3.1750001,2.1166667 c -0.2931584,0 -0.5291667,0.2360083 -0.5291667,0.5291667 h -0.79375 c -0.2931584,0 -0.5291667,0.2360083 -0.5291667,0.5291666 v 5.8208335 c 0,0.2931584 0.2360083,0.5291667 0.5291667,0.5291667 H 15.610417 c 0.293158,0 0.529167,-0.2360083 0.529167,-0.5291667 V 3.175 c 0,-0.2931583 -0.236009,-0.5291666 -0.529167,-0.5291666 H 7.9375002 c 0,-0.2931584 -0.2360083,-0.5291667 -0.5291667,-0.5291667 z" />
  <path
     id="rect2689"
     style="fill:#ffffff;fill-opacity:1;stroke:none;stroke-width:0.529167;stroke-linejoin:round;stroke-miterlimit:4;stroke-dasharray:none;stroke-opacity:1"
     d="m 3.3072918,2.3812501 c -0.2931584,0 -0.3968751,0.2360083 -0.3968751,0.5291666 H 1.8520834 C 1.7055042,2.9104167 1.5875,3.0284209 1.5875,3.1750001 v 5.8208335 c 0,0.1465791 0.1180042,0.2645833 0.2645834,0.2645833 H 15.610417 c 0.146579,0 0.264583,-0.1180042 0.264583,-0.2645833 V 3.1750001 c 0,-0.1465792 -0.118004,-0.2645834 -0.264583,-0.2645834 H 7.6729169 c 0,-0.2931583 -0.1037167,-0.5291666 -0.396875,-0.5291666 z"
     sodipodi:nodetypes="scsssssssscss" />
  <path
     style="color:#000000;opacity:0.55;fill:#360079;fill-opacity:1;stroke:none;stroke-linejoin:round;-inkscape-stroke:none"
     d="m 8.4657553,6.3500694 c -0.2356556,0 -0.4462946,0.1222548 -0.5507813,0.2675781 -0.1044867,0.1453234 -0.1435947,0.2790373 -0.2089844,0.4003906 -0.00135,0.00258 -0.00265,0.00519 -0.00391,0.00781 L 7.5106771,7.4086631 H 0.79388021 c -0.006508,-2.404e-4 -0.0130231,-2.404e-4 -0.0195313,0 C 0.51138226,7.4288911 0.26458334,7.648859 0.26458334,7.93796 v 6.614774 c 0,0.288582 0.24071437,0.529297 0.52929687,0.529297 H 16.139583 c 0.288582,0 0.529297,-0.240715 0.529297,-0.529297 V 6.8793663 c 0,-0.2885813 -0.240716,-0.5292969 -0.529297,-0.5292969 H 8.4677084 c -6.5e-4,-2.4e-6 -0.0013,0 -0.00195,0 z"
     id="path1470"
     sodipodi:nodetypes="sscccccssssssscss" />
  <path
     style="color:#000000;fill:#a46be9;fill-opacity:1;stroke:none;stroke-width:0.529167;stroke-linejoin:round;-inkscape-stroke:none"
     d="M 0.79375005,7.6729863 H 7.6729167 L 7.9375001,7.1438194 C 8.0921218,6.8568649 8.1157904,6.617131 8.4666667,6.614653 h 7.6729163 c 0.14658,0 0.264584,0.1180042 0.264584,0.2645833 v 7.6728467 c 0,0.146579 -0.118004,0.264584 -0.264584,0.264584 H 0.79375005 c -0.14657918,0 -0.26458335,-0.118005 -0.26458335,-0.264584 V 7.9375696 c 0,-0.1465791 0.11843592,-0.2533411 0.26458335,-0.2645833 z"
     id="path1468"
     sodipodi:nodetypes="ccccsssssssc" />
  <path
     id="rect3575"
     style="opacity:0.1;fill:url(#linearGradient3966);fill-opacity:1;stroke-width:0.529167;stroke-linejoin:round"
     d="m 16.404167,11.641667 -3.175,3.175 h 2.910417 c 0.14658,0 0.264583,-0.118004 0.264583,-0.264583 z" />
  <path
     id="rect852"
     style="opacity:0.3;fill:#000000;stroke-width:0.264583;stroke-linejoin:round;stroke-opacity:0.501961"
     d="M 8.4666669,8.7312501 5.8208335,10.31875 h 0.5291667 v 3.175 h 4.2333338 v -3.175 H 11.1125 Z m 0,0.3505729 1.8520831,1.071562 v 3.075782 H 6.6145835 v -3.075782 z"
     sodipodi:nodetypes="cccccccccccccc" />
  <path
     id="rect1441"
     style="opacity:0.15;fill:#000000;stroke-width:0.350011;stroke-linejoin:round;stroke-opacity:0.501961"
     d="M 6.6145835,10.153385 8.4666667,9.0818229 10.31875,10.153385 v 3.075782 H 6.6145835 Z"
     sodipodi:nodetypes="cccccc" />
</svg>
