<?xml version="1.0" encoding="UTF-8" standalone="no"?>
<!-- Created with Inkscape (http://www.inkscape.org/) -->

<svg
   width="24"
   height="24"
   viewBox="0 0 6.3499997 6.3500003"
   version="1.1"
   id="svg2469"
   inkscape:version="1.1.2 (0a00cf5339, 2022-02-04, custom)"
   sodipodi:docname="user-trash.svg"
   xmlns:inkscape="http://www.inkscape.org/namespaces/inkscape"
   xmlns:sodipodi="http://sodipodi.sourceforge.net/DTD/sodipodi-0.dtd"
   xmlns="http://www.w3.org/2000/svg"
   xmlns:svg="http://www.w3.org/2000/svg">
  <sodipodi:namedview
     id="namedview2471"
     pagecolor="#ffffff"
     bordercolor="#666666"
     borderopacity="1.0"
     inkscape:pageshadow="2"
     inkscape:pageopacity="0.0"
     inkscape:pagecheckerboard="0"
     inkscape:document-units="px"
     showgrid="false"
     units="px"
     inkscape:zoom="1"
     inkscape:cx="10"
     inkscape:cy="7"
     inkscape:window-width="1623"
     inkscape:window-height="908"
     inkscape:window-x="23"
     inkscape:window-y="15"
     inkscape:window-maximized="0"
     inkscape:current-layer="svg2469"
     showguides="false" />
  <defs
     id="defs2466" />
  <path
     style="color:#000000;fill:#b3b3b3;stroke:none;stroke-width:0.264583;stroke-linecap:round;stroke-linejoin:round;-inkscape-stroke:none"
     d="M 5.1601562,1.323828 A 1.984375,0.66145831 0 0 1 3.1757812,1.9852863 1.984375,0.66145831 0 0 1 1.1914062,1.323828 1.984375,0.66145831 0 0 1 3.1757812,0.66236964 1.984375,0.66145831 0 0 1 5.1601562,1.323828 Z"
     id="path3355" />
  <path
     style="color:#000000;opacity:0.3;fill:#000000;stroke:none;stroke-linecap:round;stroke-linejoin:round;-inkscape-stroke:none"
     d="m 3.1755209,0.52916667 c -0.5598855,0 -1.0670606,0.0750879 -1.4453126,0.20117187 C 1.5410824,0.79338054 1.3841815,0.86912215 1.2653646,0.96276041 1.1465476,1.0563987 1.0583333,1.1791386 1.0583333,1.3240885 c 0,0.14495 0.088214,0.2676899 0.2070313,0.3613282 0.1188169,0.093638 0.2757178,0.1693799 0.4648437,0.2324218 0.378252,0.126084 0.8854271,0.1992188 1.4453126,0.1992188 0.5598854,0 1.0670605,-0.073135 1.4453124,-0.1992188 C 4.8099593,1.8547966 4.9668602,1.7790549 5.0856771,1.6854167 5.204494,1.5917784 5.2927083,1.4690385 5.2927083,1.3240885 5.2927084,1.1791386 5.204494,1.0563987 5.0856771,0.96276041 4.9668602,0.86912215 4.8099593,0.79338053 4.6208333,0.73033854 4.2425814,0.60425456 3.7354063,0.52916666 3.1755209,0.52916667 Z m 0,0.26562499 c 0.5360535,0 1.0213782,0.0741834 1.3613281,0.1875 0.1699749,0.0566583 0.3027531,0.12286684 0.3847656,0.18750004 0.082013,0.064633 0.1054687,0.1165903 0.1054687,0.1542968 0,0.037707 -0.023456,0.087711 -0.1054687,0.1523438 -0.082013,0.064633 -0.2147907,0.1327948 -0.3847656,0.1894531 -0.3399499,0.1133166 -0.8252746,0.1875 -1.3613281,0.1875 -0.5360536,0 -1.0213783,-0.074183 -1.3613282,-0.1875 C 1.6442178,1.6092271 1.5114396,1.5410654 1.4294271,1.4764323 1.3474146,1.4117992 1.3239583,1.3617951 1.3239583,1.3240885 c 0,-0.037707 0.023456,-0.089664 0.1054688,-0.1542968 0.082013,-0.064633 0.2147907,-0.1308417 0.3847656,-0.18750004 0.3399499,-0.1133166 0.8252746,-0.18749999 1.3613282,-0.1875 z"
     id="path3357" />
  <path
     style="color:#000000;fill:#d8d8d8;stroke:none;stroke-width:0.264583;stroke-linecap:round;stroke-linejoin:bevel;-inkscape-stroke:none"
     d="M 1.1914062,1.4561198 1.7205729,5.1602864 A 1.4552083,0.52916663 0 0 0 3.1757812,5.6894531 1.4552083,0.52916663 0 0 0 4.6309895,5.1602864 L 5.1601562,1.4561198 H 5.1188151 C 4.9303172,1.7639358 4.1182712,1.9850887 3.1757812,1.9852864 2.2332914,1.9850887 1.4212452,1.7639358 1.2327474,1.4561198 Z"
     id="path3361" />
  <path
     style="color:#000000;opacity:0.3;fill:#000000;stroke:none;stroke-width:0.264583;stroke-linecap:round;stroke-linejoin:bevel;-inkscape-stroke:none"
     d="m 1.1914062,1.3238281 -0.1307413,0.1508952 0.5291666,3.7041665 -0.00155,-0.018603 c 0,0.1222158 0.068493,0.2276007 0.160197,0.3064412 0.091704,0.078841 0.2111246,0.1406634 0.35295,0.1922365 0.2836509,0.1031457 0.6595095,0.1627806 1.074353,0.1627806 0.4148434,0 0.7907023,-0.059635 1.0743531,-0.1627806 C 4.39196,5.6073915 4.511381,5.5455686 4.6030845,5.466728 4.6947885,5.387887 4.7632815,5.2825026 4.7632815,5.1602868 L 4.7617202,5.1788893 5.2908868,1.4747228 5.1601562,1.3238281 H 5.1188151 L 5.0061605,1.3868734 C 4.9487266,1.4806626 4.7249801,1.6185278 4.395345,1.7083008 4.0657099,1.7980737 3.6366864,1.8528981 3.1757812,1.8529948 2.7148761,1.8528981 2.2858525,1.7980737 1.9562174,1.7083008 1.6265824,1.6185278 1.4028359,1.4806625 1.345402,1.3868734 L 1.2327474,1.3238281 Z M 1.3655558,1.7418904 C 1.5068192,1.8311674 1.6759291,1.9061071 1.886971,1.9635823 2.2461053,2.0613893 2.6941974,2.1174771 3.1757812,2.1175781 3.657365,2.1174771 4.1054572,2.0613891 4.4645915,1.9635823 4.6756332,1.9061073 4.8447432,1.8311674 4.9860067,1.7418904 l -0.4857586,3.3997924 -0.00155,0.018604 c 0,0.02391 -0.012642,0.057644 -0.068213,0.1054198 -0.055571,0.047777 -0.1492694,0.09999 -0.2707846,0.1441773 -0.2430304,0.088375 -0.5950741,0.1472779 -0.9839193,0.1472779 -0.3888451,0 -0.7408888,-0.058903 -0.9839192,-0.1472779 C 2.0703468,5.3656962 1.9766488,5.3134828 1.9210775,5.2657062 1.8655061,5.2179299 1.8528646,5.1841957 1.8528646,5.1602864 l -0.00155,-0.018603 z"
     id="path3363" />
</svg>
