<?xml version="1.0" encoding="UTF-8" standalone="no"?>
<!-- Created with Inkscape (http://www.inkscape.org/) -->

<svg
   width="16"
   height="16"
   viewBox="0 0 4.2333332 4.2333335"
   version="1.1"
   id="svg841"
   inkscape:version="1.1.2 (0a00cf5339, 2022-02-04, custom)"
   sodipodi:docname="weather-few-clouds-night.svg"
   xmlns:inkscape="http://www.inkscape.org/namespaces/inkscape"
   xmlns:sodipodi="http://sodipodi.sourceforge.net/DTD/sodipodi-0.dtd"
   xmlns="http://www.w3.org/2000/svg"
   xmlns:svg="http://www.w3.org/2000/svg">
  <sodipodi:namedview
     id="namedview843"
     pagecolor="#ffffff"
     bordercolor="#666666"
     borderopacity="1.0"
     inkscape:pageshadow="2"
     inkscape:pageopacity="0.0"
     inkscape:pagecheckerboard="0"
     inkscape:document-units="px"
     showgrid="false"
     units="px"
     showguides="false"
     inkscape:zoom="49.9375"
     inkscape:cx="8"
     inkscape:cy="8"
     inkscape:window-width="1920"
     inkscape:window-height="1019"
     inkscape:window-x="0"
     inkscape:window-y="31"
     inkscape:window-maximized="1"
     inkscape:current-layer="svg841" />
  <defs
     id="defs838" />
  <circle
     style="fill:#90a4ae;fill-opacity:1;stroke-width:0.283482;stroke-linecap:round;stroke-linejoin:round"
     id="path924"
     cx="2.2489583"
     cy="1.984375"
     r="1.984375" />
  <circle
     style="fill:#eceff1;fill-opacity:1;stroke-width:0.286631;stroke-linecap:round;stroke-linejoin:round"
     id="path1204"
     cx="2.2489583"
     cy="1.9843751"
     r="1.7197917" />
  <path
     id="path1572"
     style="fill:#d1d9dd;fill-opacity:1;stroke-width:0.264583;stroke-linecap:round;stroke-linejoin:round"
     d="M 1.8520833,0.52916667 A 0.26458336,0.26458336 0 0 0 1.5875,0.79374998 0.26458336,0.26458336 0 0 0 1.8520833,1.0583334 0.26458336,0.26458336 0 0 0 2.1166666,0.79374998 0.26458336,0.26458336 0 0 0 1.8520833,0.52916667 Z m 1.190625,0.26458331 A 0.13229167,0.13229167 0 0 0 2.9104166,0.92604168 0.13229167,0.13229167 0 0 0 3.0427083,1.0583334 0.13229167,0.13229167 0 0 0 3.1749999,0.92604168 0.13229167,0.13229167 0 0 0 3.0427083,0.79374998 Z M 1.3229166,1.3229167 A 0.52916669,0.52916669 0 0 0 0.79375,1.8520833 0.52916669,0.52916669 0 0 0 1.3229166,2.38125 0.52916669,0.52916669 0 0 0 1.8520833,1.8520833 0.52916669,0.52916669 0 0 0 1.3229166,1.3229167 Z M 2.9104166,1.5875 A 0.52916669,0.52916669 0 0 0 2.3812499,2.1166667 0.52916669,0.52916669 0 0 0 2.9104166,2.6458333 0.52916669,0.52916669 0 0 0 3.4395833,2.1166667 0.52916669,0.52916669 0 0 0 2.9104166,1.5875 Z M 1.8520833,2.6458333 A 0.26458336,0.26458336 0 0 0 1.5875,2.9104167 0.26458336,0.26458336 0 0 0 1.8520833,3.175 0.26458336,0.26458336 0 0 0 2.1166666,2.9104167 0.26458336,0.26458336 0 0 0 1.8520833,2.6458333 Z" />
  <path
     id="path844"
     style="fill:#bdbdbd;fill-opacity:1;stroke-width:0.297656;stroke-linecap:round;stroke-linejoin:round"
     d="M 1.190625,1.8520833 C 0.53306096,1.8520833 -2.9999999e-8,2.3851443 0,3.0427083 -2.9999999e-8,3.7002722 0.53306096,4.2333333 1.190625,4.2333333 H 2.2489584 C 2.7603971,4.2333333 3.175,3.8187304 3.175,3.3072916 3.175,2.7958528 2.7603971,2.38125 2.2489584,2.38125 2.2267134,2.3813103 2.2044784,2.3821721 2.1822954,2.38383 1.9616363,2.0517093 1.5893696,1.8520937 1.190625,1.8520833 Z"
     sodipodi:nodetypes="csccsccc" />
  <path
     id="path1271"
     style="fill:#f5f5f5;fill-opacity:1;stroke-width:0.280866;stroke-linecap:round;stroke-linejoin:round"
     d="m 1.190625,2.1166666 c -0.51143869,0 -0.92604167,0.414603 -0.92604167,0.9260417 0,0.5114388 0.41460298,0.9260416 0.92604167,0.9260416 h 1.0583334 c 0.3653133,0 0.6614583,-0.2961449 0.6614583,-0.6614583 0,-0.3653134 -0.296145,-0.6614583 -0.6614583,-0.6614583 -0.070248,1.492e-4 -0.1400247,0.011488 -0.2067058,0.03359 C 1.8967214,2.3381907 1.5615951,2.1167389 1.190625,2.1166666 Z"
     sodipodi:nodetypes="csccsccc" />
  <path
     id="path1660"
     style="fill:#bdbdbd;fill-opacity:1;stroke-width:0.264583;stroke-linecap:round;stroke-linejoin:round"
     d="M 2.1822958,2.3838338 1.9714559,2.545581 A 0.92604163,0.92604163 0 0 1 2.1166667,3.0427083 0.92604163,0.92604163 0 0 1 1.9668051,3.5434529 L 2.1781617,3.707784 A 1.1906249,1.1906249 0 0 0 2.38125,3.0427083 1.1906249,1.1906249 0 0 0 2.1822958,2.3838338 Z" />
</svg>
