<?xml version="1.0" encoding="UTF-8" standalone="no"?>
<!-- Created with Inkscape (http://www.inkscape.org/) -->

<svg
   width="16"
   height="16"
   viewBox="0 0 4.2333332 4.2333335"
   version="1.1"
   id="svg841"
   inkscape:version="1.1.2 (0a00cf5339, 2022-02-04, custom)"
   sodipodi:docname="weather-many-clouds.svg"
   xmlns:inkscape="http://www.inkscape.org/namespaces/inkscape"
   xmlns:sodipodi="http://sodipodi.sourceforge.net/DTD/sodipodi-0.dtd"
   xmlns="http://www.w3.org/2000/svg"
   xmlns:svg="http://www.w3.org/2000/svg">
  <sodipodi:namedview
     id="namedview843"
     pagecolor="#ffffff"
     bordercolor="#666666"
     borderopacity="1.0"
     inkscape:pageshadow="2"
     inkscape:pageopacity="0.0"
     inkscape:pagecheckerboard="0"
     inkscape:document-units="px"
     showgrid="false"
     units="px"
     showguides="false"
     inkscape:zoom="30.15625"
     inkscape:cx="5.7533679"
     inkscape:cy="10.230052"
     inkscape:window-width="1920"
     inkscape:window-height="1019"
     inkscape:window-x="0"
     inkscape:window-y="31"
     inkscape:window-maximized="1"
     inkscape:current-layer="svg841" />
  <defs
     id="defs838" />
  <path
     id="path1007"
     style="fill:#bdbdbd;stroke-width:0.264583;stroke-linecap:round;stroke-linejoin:round"
     d="m 2.1166666,0.26458334 c -0.7306267,-3e-8 -1.32291664,0.59228992 -1.32291661,1.32291666 -3e-8,0.7306268 0.59228991,1.3229167 1.32291661,1.3229167 h 1.190625 c 0.5114388,0 0.9260417,-0.4146029 0.9260417,-0.9260417 C 4.2331975,1.4816907 3.8320519,1.0709122 3.3295124,1.0588501 3.1192065,0.57641768 2.6429457,0.26452476 2.1166666,0.26458334 Z"
     sodipodi:nodetypes="csccccc" />
  <path
     id="path1276"
     style="fill:#f5f5f5;fill-opacity:1;stroke-width:0.264583;stroke-linecap:round;stroke-linejoin:round"
     d="m 2.1166666,0.52916667 c -0.5845013,2e-8 -1.0583333,0.47383203 -1.0583333,1.05833333 0,0.5845014 0.473832,1.0583333 1.0583333,1.0583333 h 1.190625 C 3.672605,2.6458333 3.96875,2.3496884 3.96875,1.984375 3.96875,1.6190617 3.672605,1.3229167 3.3072916,1.3229167 3.252924,1.3229831 3.1987722,1.329752 3.1460612,1.3430705 3.0328415,0.86610376 2.6068869,0.52931753 2.1166666,0.52916667 Z"
     sodipodi:nodetypes="csccsccc" />
  <path
     id="path1276-7"
     style="fill:#bdbdbd;fill-opacity:1;stroke-width:0.330729;stroke-linecap:round;stroke-linejoin:round"
     d="M 3.3289957,1.0588501 3.0809488,1.1580689 A 1.0583333,1.0583333 0 0 1 3.175,1.5875 1.0583333,1.0583333 0 0 1 2.8649414,2.3357748 L 3.05201,2.5228434 A 1.3229166,1.3229166 0 0 0 3.4395833,1.5875 1.3229166,1.3229166 0 0 0 3.3289957,1.0588501 Z" />
  <path
     id="path844"
     style="fill:#bdbdbd;fill-opacity:1;stroke-width:1.125;stroke-linecap:round;stroke-linejoin:round"
     d="M 4.5,7 C 2.0147186,6.9999999 -1.1045696e-7,9.0147186 0,11.5 -1.1045696e-7,13.985281 2.0147186,16 4.5,16 h 4 C 10.432997,16 12,14.432997 12,12.5 12,10.567003 10.432997,9 8.5,9 8.4159256,9.000228 8.3318867,9.0034853 8.2480469,9.0097656 7.4140585,7.7544921 6.0070661,7.0000391 4.5,7 Z"
     sodipodi:nodetypes="csccsccc"
     transform="scale(0.26458333)" />
  <path
     id="path1271"
     style="fill:#f5f5f5;fill-opacity:1;stroke-width:1.06154;stroke-linecap:round;stroke-linejoin:round"
     d="M 4.5,8 C 2.5670034,8 1,9.5670034 1,11.5 1,13.432997 2.5670034,15 4.5,15 h 4 C 9.8807119,15 11,13.880712 11,12.5 11,11.119288 9.8807119,9.9999999 8.5,10 8.2344942,10.000564 7.9707731,10.043418 7.71875,10.126953 7.1687107,8.8372563 5.9020916,8.0002732 4.5,8 Z"
     sodipodi:nodetypes="csccsccc"
     transform="scale(0.26458333)" />
  <path
     id="path1660"
     style="fill:#bdbdbd;fill-opacity:1;stroke-width:0.999999;stroke-linecap:round;stroke-linejoin:round"
     d="M 8.2480469 9.0097656 L 7.4511719 9.6210938 A 3.4999999 3.4999999 0 0 1 8 11.5 A 3.4999999 3.4999999 0 0 1 7.4335938 13.392578 L 8.2324219 14.013672 A 4.4999997 4.4999997 0 0 0 9 11.5 A 4.4999997 4.4999997 0 0 0 8.2480469 9.0097656 z "
     transform="scale(0.26458333)" />
</svg>
