<?xml version="1.0" encoding="UTF-8" standalone="no"?>
<!-- Created with Inkscape (http://www.inkscape.org/) -->

<svg
   width="16"
   height="16"
   viewBox="0 0 4.2333332 4.2333335"
   version="1.1"
   id="svg841"
   inkscape:version="1.1.2 (0a00cf5339, 2022-02-04, custom)"
   sodipodi:docname="weather-clear-night.svg"
   xmlns:inkscape="http://www.inkscape.org/namespaces/inkscape"
   xmlns:sodipodi="http://sodipodi.sourceforge.net/DTD/sodipodi-0.dtd"
   xmlns="http://www.w3.org/2000/svg"
   xmlns:svg="http://www.w3.org/2000/svg">
  <sodipodi:namedview
     id="namedview843"
     pagecolor="#ffffff"
     bordercolor="#666666"
     borderopacity="1.0"
     inkscape:pageshadow="2"
     inkscape:pageopacity="0.0"
     inkscape:pagecheckerboard="0"
     inkscape:document-units="px"
     showgrid="false"
     units="px"
     showguides="false"
     inkscape:zoom="49.9375"
     inkscape:cx="8"
     inkscape:cy="9.6020025"
     inkscape:window-width="1920"
     inkscape:window-height="1019"
     inkscape:window-x="0"
     inkscape:window-y="31"
     inkscape:window-maximized="1"
     inkscape:current-layer="svg841" />
  <defs
     id="defs838" />
  <circle
     style="fill:#90a4ae;fill-opacity:1;stroke-width:0.302381;stroke-linecap:round;stroke-linejoin:round"
     id="path924"
     cx="2.1166668"
     cy="2.1166668"
     r="2.1166668" />
  <circle
     style="fill:#eceff1;fill-opacity:1;stroke-width:0.30868;stroke-linecap:round;stroke-linejoin:round"
     id="path1204"
     cx="2.1166668"
     cy="2.1166668"
     r="1.8520833" />
  <path
     id="path1572"
     style="fill:#d1d9dd;fill-opacity:1;stroke-width:0.999999;stroke-linecap:round;stroke-linejoin:round"
     d="M 7 3 A 1.0000001 1.0000001 0 0 0 6 4 A 1.0000001 1.0000001 0 0 0 7 5 A 1.0000001 1.0000001 0 0 0 8 4 A 1.0000001 1.0000001 0 0 0 7 3 z M 11.5 4 A 0.50000003 0.50000003 0 0 0 11 4.5 A 0.50000003 0.50000003 0 0 0 11.5 5 A 0.50000003 0.50000003 0 0 0 12 4.5 A 0.50000003 0.50000003 0 0 0 11.5 4 z M 5 6 A 2.0000001 2.0000001 0 0 0 3 8 A 2.0000001 2.0000001 0 0 0 5 10 A 2.0000001 2.0000001 0 0 0 7 8 A 2.0000001 2.0000001 0 0 0 5 6 z M 11 7 A 2.0000001 2.0000001 0 0 0 9 9 A 2.0000001 2.0000001 0 0 0 11 11 A 2.0000001 2.0000001 0 0 0 13 9 A 2.0000001 2.0000001 0 0 0 11 7 z M 7 11 A 1.0000001 1.0000001 0 0 0 6 12 A 1.0000001 1.0000001 0 0 0 7 13 A 1.0000001 1.0000001 0 0 0 8 12 A 1.0000001 1.0000001 0 0 0 7 11 z "
     transform="scale(0.26458333)" />
</svg>
