<?xml version="1.0" encoding="UTF-8" standalone="no"?>
<!-- Created with Inkscape (http://www.inkscape.org/) -->

<svg
   width="16"
   height="16"
   viewBox="0 0 4.2333332 4.2333335"
   version="1.1"
   id="svg841"
   inkscape:version="1.1.2 (0a00cf5339, 2022-02-04, custom)"
   sodipodi:docname="weather-showers.svg"
   xmlns:inkscape="http://www.inkscape.org/namespaces/inkscape"
   xmlns:sodipodi="http://sodipodi.sourceforge.net/DTD/sodipodi-0.dtd"
   xmlns="http://www.w3.org/2000/svg"
   xmlns:svg="http://www.w3.org/2000/svg">
  <sodipodi:namedview
     id="namedview843"
     pagecolor="#ffffff"
     bordercolor="#666666"
     borderopacity="1.0"
     inkscape:pageshadow="2"
     inkscape:pageopacity="0.0"
     inkscape:pagecheckerboard="0"
     inkscape:document-units="px"
     showgrid="false"
     units="px"
     showguides="false"
     inkscape:zoom="30.15625"
     inkscape:cx="5.2227979"
     inkscape:cy="9.7658031"
     inkscape:window-width="1920"
     inkscape:window-height="1019"
     inkscape:window-x="0"
     inkscape:window-y="31"
     inkscape:window-maximized="1"
     inkscape:current-layer="svg841" />
  <defs
     id="defs838" />
  <path
     id="path928"
     style="fill:#b4b4b4;stroke-width:0.999999;stroke-linecap:round;stroke-linejoin:round;fill-opacity:1"
     d="M 6,0 C 2.6862915,-5.5228477e-8 -5.5228477e-8,2.6862915 0,6 c -5.5228477e-8,3.3137085 2.6862915,6 6,6 h 5.5 C 13.985281,12 16,9.9852814 16,7.5 16,5.0147186 13.985281,2.9999999 11.5,3 c -0.09904,-1.26e-5 -0.198051,0.00324 -0.296875,0.00977 C 10.13257,1.1474407 8.1481017,-4.8210524e-4 6,0 Z"
     transform="scale(0.26458333)"
     sodipodi:nodetypes="csccsccc" />
  <path
     id="path1391"
     style="fill:#dadada;fill-opacity:1;stroke-width:1.08454;stroke-linecap:round;stroke-linejoin:round"
     d="m 6,1 c -2.7614238,-1.1e-7 -5.00000011,2.2385762 -5,5 -1.1e-7,2.7614238 2.2385762,5 5,5 h 5.5 C 13.432997,11 15,9.4329966 15,7.5 15,5.5670034 13.432997,4 11.5,4 11.20603,4.0010281 10.913361,4.0390882 10.628906,4.1132812 9.862034,2.2312313 8.0322904,1.0005935 6,1 Z"
     transform="scale(0.26458333)"
     sodipodi:nodetypes="csccsccc" />
  <path
     id="path3883"
     style="fill:#b4b4b4;fill-opacity:1;stroke-width:0.999999;stroke-linecap:round;stroke-linejoin:round"
     d="M 11.201172 3.0136719 L 10.628906 4.1132812 A 4.9999997 4.9999997 0 0 1 11 6 A 4.9999997 4.9999997 0 0 1 9.5351562 9.5351562 L 10.242188 10.242188 A 5.9999998 5.9999998 0 0 0 12 6 A 5.9999998 5.9999998 0 0 0 11.201172 3.0136719 z "
     transform="scale(0.26458333)" />
  <path
     id="rect7592"
     style="fill:#2196f2;fill-opacity:1;stroke-width:0.999999;stroke-linecap:round;stroke-linejoin:round"
     d="M 5 13 L 5 16 L 6 16 L 6 13 L 5 13 z M 7 13 L 7 15 L 8 15 L 8 13 L 7 13 z M 9 13 L 9 16 L 10 16 L 10 13 L 9 13 z M 11 13 L 11 15 L 12 15 L 12 13 L 11 13 z "
     transform="scale(0.26458333)" />
</svg>
