<?xml version="1.0" encoding="UTF-8" standalone="no"?>
<!-- Created with Inkscape (http://www.inkscape.org/) -->

<svg
   width="32"
   height="32"
   viewBox="0 0 8.4666665 8.466667"
   version="1.1"
   id="svg5"
   inkscape:version="1.1.2 (0a00cf5339, 2022-02-04, custom)"
   sodipodi:docname="accessories-notes.svg"
   xmlns:inkscape="http://www.inkscape.org/namespaces/inkscape"
   xmlns:sodipodi="http://sodipodi.sourceforge.net/DTD/sodipodi-0.dtd"
   xmlns="http://www.w3.org/2000/svg"
   xmlns:svg="http://www.w3.org/2000/svg">
  <sodipodi:namedview
     id="namedview7"
     pagecolor="#ffffff"
     bordercolor="#666666"
     borderopacity="1.0"
     inkscape:pageshadow="2"
     inkscape:pageopacity="0.0"
     inkscape:pagecheckerboard="0"
     inkscape:document-units="px"
     showgrid="false"
     units="px"
     height="64px"
     inkscape:zoom="25.1875"
     inkscape:cx="15.980149"
     inkscape:cy="16"
     inkscape:window-width="1851"
     inkscape:window-height="1009"
     inkscape:window-x="69"
     inkscape:window-y="31"
     inkscape:window-maximized="1"
     inkscape:current-layer="svg5"
     showguides="false" />
  <defs
     id="defs2" />
  <path
     id="rect967"
     style="opacity:0.75;fill:#b5950b;stroke-width:0.529167;stroke-linecap:round;stroke-linejoin:round"
     d="M 1.3229167,0.5291667 H 7.14375 c 0.4397375,0 0.79375,0.35401249 0.79375,0.79375 V 5.4239584 L 5.4239584,7.9375 H 1.3229167 c -0.43973751,0 -0.79375,-0.3540125 -0.79375,-0.79375 V 1.3229167 c 0,-0.43973751 0.35401249,-0.79375 0.79375,-0.79375 z"
     sodipodi:nodetypes="sssccssss" />
  <path
     d="M 1.3229166,0.52916671 H 7.14375 c 0.4397375,0 0.79375,0.3540125 0.79375,0.79374999 V 2.6458334 H 0.5291666 V 1.3229167 c 0,-0.43973749 0.3540125,-0.79374999 0.79375,-0.79374999 z"
     style="opacity:0.75;fill:#be9c00;fill-opacity:1;stroke-width:0.140009;stroke-linecap:round;stroke-linejoin:round"
     id="path3385"
     sodipodi:nodetypes="sssccss" />
  <path
     id="rect1071"
     style="fill:#f5d858;stroke-width:0.529167;stroke-linecap:round;stroke-linejoin:round"
     d="M 1.3229167,0.79375005 H 7.14375 c 0.2931583,0 0.5291667,0.23600835 0.5291667,0.52916665 v 3.7041666 l -2.6458333,1e-7 -1e-7,2.6458333 H 1.3229167 c -0.2931583,0 -0.52916665,-0.2360084 -0.52916665,-0.5291667 V 1.3229167 c 0,-0.2931583 0.23600835,-0.52916665 0.52916665,-0.52916665 z"
     sodipodi:nodetypes="ssscccssss" />
  <path
     id="rect1304"
     style="opacity:1;fill:#e5c63e;stroke-width:0.264583;stroke-linecap:round;stroke-linejoin:round"
     d="M 5.2916665,5.2916665 H 7.6729164 L 5.2916665,7.6729164 Z"
     sodipodi:nodetypes="cccc" />
  <path
     d="m 1.3229167,0.79375005 h 5.8208334 c 0.2931583,0 0.5291666,0.23600845 0.5291666,0.52916675 V 2.3812501 H 0.79375003 l 2e-8,-1.0583333 c 0,-0.2931583 0.23600835,-0.52916675 0.52916665,-0.52916675 z"
     style="fill:#f1c915;fill-opacity:1;stroke-width:0.140009;stroke-linecap:round;stroke-linejoin:round"
     id="path2981"
     sodipodi:nodetypes="ssscccs" />
  <rect
     style="opacity:1;fill:#be9c00;fill-opacity:1;stroke-width:0.264583;stroke-linecap:round;stroke-linejoin:round"
     id="rect4205"
     width="6.8791666"
     height="0.26458332"
     x="0.79375005"
     y="2.3812501" />
</svg>
