<?xml version="1.0" encoding="UTF-8" standalone="no"?>
<!-- Created with Inkscape (http://www.inkscape.org/) -->

<svg
   width="32"
   height="32"
   viewBox="0 0 8.4666665 8.466667"
   version="1.1"
   id="svg5"
   inkscape:version="1.1.2 (0a00cf5339, 2022-02-04, custom)"
   sodipodi:docname="applications-games.svg"
   xmlns:inkscape="http://www.inkscape.org/namespaces/inkscape"
   xmlns:sodipodi="http://sodipodi.sourceforge.net/DTD/sodipodi-0.dtd"
   xmlns="http://www.w3.org/2000/svg"
   xmlns:svg="http://www.w3.org/2000/svg">
  <sodipodi:namedview
     id="namedview7"
     pagecolor="#ffffff"
     bordercolor="#666666"
     borderopacity="1.0"
     inkscape:pageshadow="2"
     inkscape:pageopacity="0.0"
     inkscape:pagecheckerboard="0"
     inkscape:document-units="px"
     showgrid="false"
     units="px"
     height="64px"
     inkscape:zoom="25.1875"
     inkscape:cx="16"
     inkscape:cy="16"
     inkscape:window-width="1851"
     inkscape:window-height="1009"
     inkscape:window-x="69"
     inkscape:window-y="31"
     inkscape:window-maximized="1"
     inkscape:current-layer="svg5"
     showguides="false" />
  <defs
     id="defs2" />
  <path
     style="color:#000000;opacity:1;fill:#b3b3b3;fill-opacity:1;stroke-width:0.264583;stroke-linecap:round;stroke-linejoin:round;-inkscape-stroke:none"
     d="M 1.984375,1.3229167 C 0.88960893,1.3229167 0,2.2125256 0,3.3072918 0,3.653901 0.09964153,3.9746911 0.25579835,4.2586549 L 0.02015381,6.1097048 0.02635498,6.0771486 C 0.00879987,6.1453251 3.7137447e-4,6.2146801 0,6.2833376 c -1.5328264e-6,5.2e-4 -1.5328264e-6,0.00104 0,0.00156 0,0.4751178 0.39887171,0.8588526 0.8753988,0.8588526 0.2258432,3.328e-4 0.4335263,-0.098593 0.596346,-0.2516643 0.00623,-0.00439 0.012262,-0.00904 0.018087,-0.013951 C 1.5164487,6.855969 1.609204,6.7659963 1.609204,6.7659963 L 2.7042277,5.5381635 C 2.9530573,5.4978809 3.1921406,5.4170711 3.4132285,5.2916668 h 1.6402098 c 0.2226813,0.1263957 0.4620464,0.2061184 0.7095176,0.2464967 l 1.0945069,1.227832 c 0,0 0.084524,0.083758 0.1374592,0.1260882 0.162944,0.1531904 0.3708334,0.2521319 0.5968628,0.2516665 0.476295,-2.821e-4 0.8748821,-0.3839094 0.8748821,-0.8588624 1.5e-6,-5.2e-4 1.5e-6,-0.00104 0,-0.00156 -3.704e-4,-0.068655 -0.0088,-0.138013 -0.026355,-0.206189 l 0.0062,0.032556 L 8.210869,4.258644 C 8.3670253,3.9746911 8.4666669,3.653901 8.4666669,3.3072918 c 0,-1.0947661 -0.8896088,-1.9843751 -1.9843751,-1.9843751 z m 0,0.5291667 h 4.4979168 c 0.8107612,0 1.4552084,0.6444472 1.4552084,1.4552084 0,0.2868818 -0.081451,0.5510284 -0.2222087,0.7751466 -0.032509,0.051878 -0.046024,0.1134238 -0.038241,0.1741495 L 7.92148,6.1763673 c 0.00138,0.010971 0.00346,0.021844 0.0062,0.032556 0.0062,0.024066 0.00959,0.049941 0.00982,0.076481 -2.786e-4,0.1811756 -0.1479426,0.329179 -0.346233,0.329179 h -5.291e-4 c -0.1027372,2.116e-4 -0.1999917,-0.044606 -0.2671668,-0.122473 -0.00103,-1.825e-4 -0.00207,-3.589e-4 -0.0031,-5.292e-4 -3.388e-4,-8.651e-4 -6.821e-4,-0.00173 -0.00103,-0.00259 L 6.122096,5.1459176 C 6.0780719,5.0967288 6.0172519,5.0657716 5.951575,5.0591229 5.6856809,5.0321021 5.4351657,4.9492515 5.2198367,4.8064252 5.1764641,4.7777304 5.1255976,4.7624525 5.0735922,4.7625001 H 3.3930747 c -0.051601,1.3e-6 -0.1020749,0.01509 -0.1452107,0.043408 -0.2171806,0.1427821 -0.4675725,0.2277449 -0.7307049,0.252698 -0.066493,0.00629 -0.1281497,0.037483 -0.1725993,0.087333 l -1.197343,1.3430706 c -3.479e-4,8.615e-4 -6.912e-4,0.00172 -0.00103,0.00259 -0.00103,1.702e-4 -0.00207,3.466e-4 -0.0031,5.291e-4 -0.067179,0.077848 -0.16443433,0.1226663 -0.26717124,0.1224546 h -5.1594e-4 c -0.19829124,0 -0.34595507,-0.1480032 -0.34623294,-0.329179 v -5.291e-4 c 2.6458e-4,-0.026347 0.003663,-0.052059 0.009818,-0.075964 0.002745,-0.010708 0.004816,-0.021577 0.006201,-0.032544 L 0.78961591,4.2565879 C 0.79739928,4.1958622 0.78388477,4.1343164 0.75137536,4.0824384 0.61061758,3.8583202 0.52916668,3.5941736 0.52916668,3.3072918 c 0,-0.8107612 0.64444722,-1.4552084 1.45520832,-1.4552084 z"
     id="path1846"
     sodipodi:nodetypes="ssccccccccccccccccsccccsssssscccccssccccccccccccccssscccccss" />
  <path
     style="color:#000000;opacity:1;fill:#f9f9f9;fill-opacity:1;stroke-width:0.529167;stroke-linecap:round;stroke-linejoin:round;-inkscape-stroke:none"
     d="m 1.984375,1.5875 c -0.9527645,0 -1.71979166,0.7670272 -1.71979166,1.7197918 0,0.3371813 0.0961506,0.6508146 0.26251628,0.9157065 L 0.2826701,6.1431952 c -0.0119171,0.046281 -0.0178283,0.093804 -0.0180868,0.1415934 0,0.3282685 0.27331295,0.594279 0.61081546,0.594279 C 1.0552072,6.879438 1.2261783,6.8012246 1.3435873,6.6651271 l 0.00103,5.292e-4 V 6.6651271 L 2.5419638,5.3221558 C 2.8457303,5.2933493 3.1381222,5.1946981 3.3930747,5.0270835 h 1.6805175 c 0.2550004,0.1691402 0.5477925,0.2642483 0.8511109,0.2950723 l 1.197343,1.3429713 v 5.292e-4 l 0.00103,-5.292e-4 c 0.1174091,0.1360975 0.28838,0.2143107 0.4681884,0.2139405 0.3375025,0 0.6108156,-0.2660105 0.6108156,-0.594279 -2.591e-4,-0.04779 -0.00617,-0.095312 -0.018087,-0.1415934 L 7.9395671,4.2229983 C 8.1059329,3.9581064 8.2020835,3.6444731 8.2020835,3.3072918 8.2020835,2.3545272 7.4350564,1.5875 6.4822918,1.5875 Z"
     id="path1844"
     sodipodi:nodetypes="ssccccccccccccccccccsss" />
  <path
     id="rect1472"
     style="opacity:0.5;fill:#b3b3b3;stroke-width:0.999999;stroke-linecap:round;stroke-linejoin:round"
     d="M 1.9921875 15.960938 L 1.0683594 23.210938 C 1.0233187 23.385858 1.0009789 23.565473 1 23.746094 C 1 24.986794 2.0329937 25.992186 3.3085938 25.992188 C 3.9881845 25.993587 4.6343745 25.697978 5.078125 25.183594 L 5.0820312 25.185547 L 5.0820312 25.183594 L 9.6074219 20.115234 L 1.9921875 15.960938 z M 30.005859 15.960938 L 22.449219 20.083984 L 22.392578 20.123047 L 26.917969 25.191406 L 26.917969 25.193359 L 26.921875 25.191406 C 27.365626 25.705789 28.011815 26.0014 28.691406 26 C 29.967006 26 31 24.994606 31 23.753906 C 30.999021 23.573285 30.976681 23.39367 30.931641 23.21875 L 30.005859 15.960938 z "
     transform="scale(0.26458334)" />
  <circle
     style="opacity:1;fill:#b3b3b3;fill-opacity:1;stroke:none;stroke-width:0.529167;stroke-linecap:round;stroke-linejoin:round;stroke-miterlimit:4;stroke-dasharray:none;stroke-opacity:1"
     id="path2240"
     cx="3.175"
     cy="5.0270834"
     r="0.79374999" />
  <circle
     style="opacity:1;fill:#b3b3b3;fill-opacity:1;stroke:none;stroke-width:0.529167;stroke-linecap:round;stroke-linejoin:round;stroke-miterlimit:4;stroke-dasharray:none;stroke-opacity:1"
     id="path2366"
     cx="5.2916665"
     cy="5.0270834"
     r="0.79374999" />
  <circle
     style="opacity:1;fill:#666666;fill-opacity:1;stroke:none;stroke-width:0.529167;stroke-linecap:round;stroke-linejoin:round;stroke-miterlimit:4;stroke-dasharray:none;stroke-opacity:1"
     id="path2470"
     cx="3.175"
     cy="5.0270834"
     r="0.5291667" />
  <circle
     style="fill:#666666;fill-opacity:1;stroke:none;stroke-width:0.529167;stroke-linecap:round;stroke-linejoin:round;stroke-miterlimit:4;stroke-dasharray:none;stroke-opacity:1"
     id="path2470-6"
     cx="5.2916665"
     cy="5.0270834"
     r="0.5291667" />
  <circle
     style="opacity:1;fill:#f36137;fill-opacity:1;stroke:none;stroke-width:0.529167;stroke-linecap:round;stroke-linejoin:round;stroke-miterlimit:4;stroke-dasharray:none;stroke-opacity:1"
     id="path3377"
     cx="6.0854168"
     cy="3.175"
     r="0.26458335" />
  <circle
     style="opacity:1;fill:#27ae60;fill-opacity:1;stroke:none;stroke-width:0.529167;stroke-linecap:round;stroke-linejoin:round;stroke-miterlimit:4;stroke-dasharray:none;stroke-opacity:1"
     id="path3511"
     cx="6.6145835"
     cy="2.6458333"
     r="0.26458335" />
  <circle
     style="opacity:1;fill:#2980b9;fill-opacity:1;stroke:none;stroke-width:0.529167;stroke-linecap:round;stroke-linejoin:round;stroke-miterlimit:4;stroke-dasharray:none;stroke-opacity:1"
     id="path3667"
     cx="6.6145835"
     cy="3.7041667"
     r="0.26458335" />
  <circle
     style="opacity:1;fill:#f05242;fill-opacity:1;stroke:none;stroke-width:0.529167;stroke-linecap:round;stroke-linejoin:round;stroke-miterlimit:4;stroke-dasharray:none;stroke-opacity:1"
     id="path3823"
     cx="7.1437502"
     cy="3.175"
     r="0.26458335" />
  <path
     id="path3895"
     style="color:#000000;fill:#000000;fill-opacity:0.25;stroke:none;stroke-width:0.15875;stroke-linecap:round;stroke-linejoin:round;stroke-opacity:0.25;-inkscape-stroke:none"
     d="m 6.6147901,2.301875 c -0.1890432,0 -0.344165,0.1551338 -0.344165,0.344165 0,0.1890313 0.1551218,0.344165 0.344165,0.344165 0.1890432,0 0.344165,-0.1551337 0.344165,-0.344165 0,-0.1890312 -0.1551218,-0.3441651 -0.344165,-0.344165 z m 0,0.1591633 c 0.1032656,0 0.1855184,0.081783 0.1855184,0.1850017 0,0.1032192 -0.082253,0.1850017 -0.1855184,0.1850017 -0.1032656,0 -0.1855184,-0.081783 -0.1855184,-0.1850017 0,-0.1032192 0.082253,-0.1850017 0.1855184,-0.1850017 z M 6.0856234,2.8310417 c -0.1890157,0 -0.344165,0.1551588 -0.344165,0.344165 0,0.1890061 0.1551493,0.3436482 0.344165,0.3436482 0.1890157,0 0.344165,-0.1546421 0.344165,-0.3436482 0,-0.1890062 -0.1551493,-0.344165 -0.344165,-0.344165 z m 1.0583334,0 c -0.1890157,0 -0.344165,0.1551588 -0.344165,0.344165 0,0.1890061 0.1551493,0.3436482 0.344165,0.3436482 0.1890157,0 0.344165,-0.1546421 0.344165,-0.3436482 0,-0.1890062 -0.1551493,-0.344165 -0.344165,-0.344165 z M 6.0856234,2.990205 c 0.1032346,0 0.1850017,0.081804 0.1850017,0.1850017 0,0.1031975 -0.081767,0.1850017 -0.1850017,0.1850017 -0.1032346,0 -0.1850017,-0.081804 -0.1850017,-0.1850017 0,-0.1031976 0.081767,-0.1850017 0.1850017,-0.1850017 z m 1.0583334,0 c 0.1032346,0 0.1850017,0.081804 0.1850017,0.1850017 0,0.1031975 -0.081767,0.1850017 -0.1850017,0.1850017 -0.1032346,0 -0.1850017,-0.081804 -0.1850017,-0.1850017 0,-0.1031976 0.081767,-0.1850017 0.1850017,-0.1850017 z M 6.6147901,3.3602084 c -0.1890157,0 -0.344165,0.1551588 -0.344165,0.344165 0,0.1890061 0.1551493,0.3436482 0.344165,0.3436482 0.1890157,0 0.344165,-0.1546421 0.344165,-0.3436482 0,-0.1890062 -0.1551493,-0.344165 -0.344165,-0.344165 z m 0,0.1591633 c 0.1032346,0 0.1850017,0.081804 0.1850017,0.1850017 0,0.1031975 -0.081767,0.1850016 -0.1850017,0.1850016 -0.1032346,0 -0.1850017,-0.081804 -0.1850017,-0.1850016 0,-0.1031976 0.081767,-0.1850017 0.1850017,-0.1850017 z" />
  <path
     id="rect12215"
     style="opacity:0.2;fill:#000000;fill-opacity:1;stroke:none;stroke-width:0.529167;stroke-linecap:round;stroke-linejoin:round;stroke-miterlimit:4;stroke-dasharray:none;stroke-opacity:1"
     d="m 2.2489584,2.1166667 c -0.1465792,0 -0.2645833,0.1180041 -0.2645833,0.2645833 V 2.778125 H 1.5875 c -0.1465792,0 -0.2645833,0.1180042 -0.2645833,0.2645834 v 0.2645833 c 0,0.1465792 0.1180041,0.2645834 0.2645833,0.2645834 h 0.3968751 v 0.396875 c 0,0.1465791 0.1180041,0.2645833 0.2645833,0.2645833 h 0.2645833 c 0.1465792,0 0.2645834,-0.1180042 0.2645834,-0.2645833 v -0.396875 h 0.396875 c 0.1465792,0 0.2645833,-0.1180042 0.2645833,-0.2645834 V 3.0427084 c 0,-0.1465792 -0.1180041,-0.2645834 -0.2645833,-0.2645834 H 2.7781251 V 2.38125 c 0,-0.1465792 -0.1180042,-0.2645833 -0.2645834,-0.2645833 z"
     sodipodi:nodetypes="sscsssscsssscsssscsss" />
  <path
     id="rect12340"
     style="opacity:1;fill:#4d4d4d;fill-opacity:1;stroke:none;stroke-width:0.529167;stroke-linecap:round;stroke-linejoin:round;stroke-miterlimit:4;stroke-dasharray:none;stroke-opacity:1"
     d="M 2.2489584,2.38125 V 3.0427084 H 1.5875 V 3.3072917 H 2.2489584 V 3.9687501 H 2.5135417 V 3.3072917 H 3.1750001 V 3.0427084 H 2.5135417 V 2.38125 Z"
     sodipodi:nodetypes="ccccccccccccc" />
</svg>
