<?xml version="1.0" encoding="UTF-8" standalone="no"?>
<!-- Created with Inkscape (http://www.inkscape.org/) -->

<svg
   width="32"
   height="32"
   viewBox="0 0 8.4666665 8.466667"
   version="1.1"
   id="svg5"
   inkscape:version="1.1.2 (0a00cf5339, 2022-02-04, custom)"
   sodipodi:docname="applications-internet.svg"
   xmlns:inkscape="http://www.inkscape.org/namespaces/inkscape"
   xmlns:sodipodi="http://sodipodi.sourceforge.net/DTD/sodipodi-0.dtd"
   xmlns="http://www.w3.org/2000/svg"
   xmlns:svg="http://www.w3.org/2000/svg">
  <sodipodi:namedview
     id="namedview7"
     pagecolor="#ffffff"
     bordercolor="#666666"
     borderopacity="1.0"
     inkscape:pageshadow="2"
     inkscape:pageopacity="0.0"
     inkscape:pagecheckerboard="0"
     inkscape:document-units="px"
     showgrid="false"
     units="px"
     height="64px"
     inkscape:zoom="24.96875"
     inkscape:cx="16"
     inkscape:cy="16"
     inkscape:window-width="1920"
     inkscape:window-height="1019"
     inkscape:window-x="0"
     inkscape:window-y="31"
     inkscape:window-maximized="1"
     inkscape:current-layer="svg5"
     showguides="false" />
  <defs
     id="defs2" />
  <path
     id="rect1160"
     style="opacity:1;fill:#67748d;stroke-width:0.264583;stroke-linecap:round"
     d="m 1.3229166,0.66145831 h 5.8208336 c 0.3664479,0 0.6614583,0.29501041 0.6614583,0.66145829 v 5.8208336 c 0,0.3664479 -0.2950104,0.6614583 -0.6614583,0.6614583 H 1.3229166 c -0.36644788,0 -0.66145829,-0.2950104 -0.66145829,-0.6614583 V 1.3229166 c 0,-0.36644788 0.29501041,-0.66145829 0.66145829,-0.66145829 z" />
  <path
     id="rect967"
     style="opacity:0.5;fill:#1c2c54;fill-opacity:1;stroke-width:2;stroke-linecap:round;stroke-linejoin:round"
     d="M 5 2 C 3.338 2 2 3.338 2 5 L 2 27 C 2 28.662 3.338 30 5 30 L 27 30 C 28.662 30 30 28.662 30 27 L 30 5 C 30 3.338 28.662 2 27 2 L 5 2 z M 5 3 L 27 3 C 28.108 3 29 3.8919999 29 5 L 29 27 C 29 28.108 28.108 29 27 29 L 5 29 C 3.8919999 29 3 28.108 3 27 L 3 5 C 3 3.8919999 3.8919999 3 5 3 z "
     transform="scale(0.26458334)" />
  <path
     id="rect1644"
     style="opacity:1;fill:#f9f9f9;fill-opacity:1;stroke-width:0.999999;stroke-linecap:round"
     d="M 18 8 A 5.9999999 5.9999999 0 0 0 13.333984 10.230469 A 4.0000002 4.0000002 0 0 0 12 10 A 4.0000002 4.0000002 0 0 0 8 14 A 4.0000002 4.0000002 0 0 0 8.0234375 14.404297 C 6.2422731 15.167743 5 16.933056 5 19 C 5 21.77 7.2300001 24 10 24 L 22 24 C 24.77 24 27 21.77 27 19 C 27 16.936153 25.761255 15.173504 23.984375 14.408203 A 5.9999999 5.9999999 0 0 0 24 14 A 5.9999999 5.9999999 0 0 0 18 8 z "
     transform="scale(0.26458334)" />
</svg>
