<?xml version="1.0" encoding="UTF-8" standalone="no"?>
<!-- Created with Inkscape (http://www.inkscape.org/) -->

<svg
   width="32"
   height="32"
   viewBox="0 0 8.4666665 8.466667"
   version="1.1"
   id="svg5"
   inkscape:version="1.1.2 (0a00cf5339, 2022-02-04, custom)"
   sodipodi:docname="cs-desklets.svg"
   xmlns:inkscape="http://www.inkscape.org/namespaces/inkscape"
   xmlns:sodipodi="http://sodipodi.sourceforge.net/DTD/sodipodi-0.dtd"
   xmlns="http://www.w3.org/2000/svg"
   xmlns:svg="http://www.w3.org/2000/svg">
  <sodipodi:namedview
     id="namedview7"
     pagecolor="#ffffff"
     bordercolor="#666666"
     borderopacity="1.0"
     inkscape:pageshadow="2"
     inkscape:pageopacity="0.0"
     inkscape:pagecheckerboard="0"
     inkscape:document-units="px"
     showgrid="false"
     units="px"
     height="64px"
     inkscape:zoom="25.1875"
     inkscape:cx="15.980149"
     inkscape:cy="16"
     inkscape:window-width="1851"
     inkscape:window-height="1009"
     inkscape:window-x="69"
     inkscape:window-y="31"
     inkscape:window-maximized="1"
     inkscape:current-layer="svg5"
     showguides="false" />
  <defs
     id="defs2" />
  <path
     id="rect967"
     style="opacity:0.75;fill:#b5950b;stroke-width:0.529167;stroke-linecap:round;stroke-linejoin:round"
     d="M 1.3229167,0.5291667 H 7.14375 c 0.4397375,0 0.79375,0.35401249 0.79375,0.79375 V 5.4239584 L 5.4239584,7.9375 H 1.3229167 c -0.43973751,0 -0.79375,-0.3540125 -0.79375,-0.79375 V 1.3229167 c 0,-0.43973751 0.35401249,-0.79375 0.79375,-0.79375 z"
     sodipodi:nodetypes="sssccssss" />
  <path
     id="rect1071"
     style="fill:#f5d858;stroke-width:0.529167;stroke-linecap:round;stroke-linejoin:round"
     d="M 1.3229167,0.79375005 H 7.14375 c 0.2931583,0 0.5291667,0.23600835 0.5291667,0.52916665 v 3.7041666 l -2.6458333,1e-7 -1e-7,2.6458333 H 1.3229167 c -0.2931583,0 -0.52916665,-0.2360084 -0.52916665,-0.5291667 V 1.3229167 c 0,-0.2931583 0.23600835,-0.52916665 0.52916665,-0.52916665 z"
     sodipodi:nodetypes="ssscccssss" />
  <path
     id="rect8"
     style="opacity:0.1;fill:#000000;stroke-width:0.264583"
     d="M 1.3229167,1.3229167 V 1.5875 H 7.1437509 V 1.3229167 Z m 0,0.7937499 V 2.3812499 H 7.1437509 V 2.1166666 Z m 0,0.7937501 V 3.175 H 7.1437509 V 2.9104167 Z m 0,0.79375 V 3.9687499 H 7.1437509 V 3.7041667 Z m 0,0.7937499 V 4.7625001 H 7.1437509 V 4.4979166 Z m 0,0.7937501 V 5.55625 H 5.0270843 V 5.2916667 Z m 0,0.79375 V 6.35 H 5.0270843 V 6.0854167 Z m 0,0.7937501 V 7.1437502 H 5.0270843 V 6.8791667 Z"
     sodipodi:nodetypes="cccccccccccccccccccccccccccccccccccccccc" />
  <path
     id="rect1304"
     style="opacity:1;fill:#e5c63e;stroke-width:0.264583;stroke-linecap:round;stroke-linejoin:round"
     d="M 5.2916665,5.2916665 H 7.6729164 L 5.2916665,7.6729164 Z"
     sodipodi:nodetypes="cccc" />
</svg>
