<?xml version="1.0" encoding="UTF-8" standalone="no"?>
<!-- Created with Inkscape (http://www.inkscape.org/) -->

<svg
   width="32"
   height="32"
   viewBox="0 0 8.4666665 8.466667"
   version="1.1"
   id="svg5"
   inkscape:version="1.1.2 (0a00cf5339, 2022-02-04, custom)"
   sodipodi:docname="cs-online-accounts.svg"
   xmlns:inkscape="http://www.inkscape.org/namespaces/inkscape"
   xmlns:sodipodi="http://sodipodi.sourceforge.net/DTD/sodipodi-0.dtd"
   xmlns="http://www.w3.org/2000/svg"
   xmlns:svg="http://www.w3.org/2000/svg">
  <sodipodi:namedview
     id="namedview7"
     pagecolor="#ffffff"
     bordercolor="#666666"
     borderopacity="1.0"
     inkscape:pageshadow="2"
     inkscape:pageopacity="0.0"
     inkscape:pagecheckerboard="0"
     inkscape:document-units="px"
     showgrid="false"
     units="px"
     height="64px"
     inkscape:zoom="26.3125"
     inkscape:cx="15.980998"
     inkscape:cy="16"
     inkscape:window-width="1920"
     inkscape:window-height="1019"
     inkscape:window-x="0"
     inkscape:window-y="31"
     inkscape:window-maximized="1"
     inkscape:current-layer="svg5"
     showguides="false" />
  <defs
     id="defs2" />
  <rect
     style="opacity:0.75;fill:#1b73c2;fill-opacity:1;stroke-width:0.529167;stroke-linecap:round;stroke-linejoin:round"
     id="rect967"
     width="7.4083333"
     height="7.4083333"
     x="0.5291667"
     y="0.5291667"
     ry="0.79374999" />
  <rect
     style="fill:#51a5f4;fill-opacity:1;stroke-width:0.529167;stroke-linecap:round;stroke-linejoin:round"
     id="rect1071"
     width="6.8791666"
     height="6.8791666"
     x="0.79375005"
     y="0.79375005"
     ry="0.5291667" />
  <path
     id="path1887"
     style="opacity:1;fill:#f5f5f5;fill-opacity:1;stroke-width:2.16667;stroke-linecap:round;stroke-linejoin:round"
     d="m 17,9.5 c -2.622634,0.00158 -4.987389,1.579106 -5.996094,4 H 11 c -2.4852814,0 -4.5000001,2.014719 -4.5,4.5 -1e-7,2.485281 2.0147186,4.5 4.5,4.5 h 11 c 1.932997,0 3.5,-1.567003 3.5,-3.5 3.32e-4,-1.352977 -0.77917,-2.58497 -2.001953,-3.164062 C 23.40905,12.311075 20.525986,9.499936 17,9.5 Z"
     transform="scale(0.26458334)"
     sodipodi:nodetypes="ccssccccc" />
  <path
     id="path2603"
     style="opacity:0.2;fill:#000000;fill-opacity:1;stroke-width:2;stroke-linecap:round;stroke-linejoin:round"
     d="M 17 9 C 14.292257 9.0007643 11.827803 10.563107 10.671875 13.011719 C 8.0438691 13.184554 6.0004954 15.366317 6 18 C 5.9999999 20.761424 8.2385762 23 11 23 L 22 23 C 24.209139 23 26 21.209139 26 19 C 25.999449 17.564243 25.229446 16.238913 23.982422 15.527344 C 23.733811 11.853829 20.681918 9.0008428 17 9 z M 17 10 C 20.313709 9.9999999 23 12.686291 23 16 C 22.998831 16.056014 22.996878 16.112009 22.994141 16.167969 C 24.19634 16.590212 25.000654 17.725806 25 19 C 25 20.656854 23.656854 22 22 22 L 11 22 C 8.790861 22 7.0000001 20.209139 7 18 C 7.0000001 15.790861 8.790861 14 11 14 C 11.114103 14.000331 11.22814 14.005544 11.341797 14.015625 C 12.184248 11.611715 14.452746 10.0018 17 10 z "
     transform="scale(0.26458334)" />
</svg>
