<?xml version="1.0" encoding="UTF-8" standalone="no"?>
<!-- Created with Inkscape (http://www.inkscape.org/) -->

<svg
   width="32"
   height="32"
   viewBox="0 0 8.4666665 8.466667"
   version="1.1"
   id="svg5"
   inkscape:version="1.1.2 (0a00cf5339, 2022-02-04, custom)"
   sodipodi:docname="cs-panel.svg"
   xmlns:inkscape="http://www.inkscape.org/namespaces/inkscape"
   xmlns:sodipodi="http://sodipodi.sourceforge.net/DTD/sodipodi-0.dtd"
   xmlns="http://www.w3.org/2000/svg"
   xmlns:svg="http://www.w3.org/2000/svg">
  <sodipodi:namedview
     id="namedview7"
     pagecolor="#ffffff"
     bordercolor="#666666"
     borderopacity="1.0"
     inkscape:pageshadow="2"
     inkscape:pageopacity="0.0"
     inkscape:pagecheckerboard="0"
     inkscape:document-units="px"
     showgrid="false"
     units="px"
     height="64px"
     inkscape:zoom="15.592592"
     inkscape:cx="13.051069"
     inkscape:cy="13.403801"
     inkscape:window-width="1920"
     inkscape:window-height="1019"
     inkscape:window-x="0"
     inkscape:window-y="31"
     inkscape:window-maximized="1"
     inkscape:current-layer="svg5"
     showguides="false" />
  <defs
     id="defs2" />
  <rect
     style="opacity:1;fill:#f9f9f9;stroke-width:0.529167;stroke-linecap:round;stroke-linejoin:round;fill-opacity:1"
     id="rect990"
     width="7.6729169"
     height="6.8791666"
     x="0.39687499"
     y="0.92604166"
     ry="0.39687499" />
  <path
     id="rect1620"
     style="opacity:1;fill:#e6e6e6;fill-opacity:1;stroke-width:0.529167;stroke-linecap:round;stroke-linejoin:round"
     d="m 0.79375002,7.8052087 c -0.21986876,0 -0.39687501,-0.1770062 -0.39687501,-0.396875 V 6.3500001 H 8.0697919 v 1.0583336 c 0,0.2198688 -0.1770063,0.396875 -0.396875,0.396875 z"
     sodipodi:nodetypes="ssccsss" />
  <path
     id="rect4073"
     style="opacity:0.2;fill:#000000;fill-opacity:1;stroke-width:2;stroke-linecap:round;stroke-linejoin:round"
     d="M 3 3 C 1.8919999 3 1 3.8919999 1 5 L 1 28 C 1 29.108 1.8919999 30 3 30 L 29 30 C 30.108 30 31 29.108 31 28 L 31 5 C 31 3.8919999 30.108 3 29 3 L 3 3 z M 3 4 L 29 4 C 29.554 4 30 4.446 30 5 L 30 28 C 30 28.554 29.554 29 29 29 L 3 29 C 2.446 29 2 28.554 2 28 L 2 5 C 2 4.446 2.446 4 3 4 z "
     transform="scale(0.26458334)" />
  <rect
     style="opacity:1;fill:#b3b3b3;fill-opacity:1;stroke-width:0.529167;stroke-linecap:round;stroke-linejoin:round"
     id="rect1230"
     width="2.1166668"
     height="0.26458335"
     x="5.2916665"
     y="6.8791666" />
  <path
     id="path1549"
     style="opacity:0.75;fill:#b3b3b3;stroke-width:0.264584;stroke-linecap:round;stroke-linejoin:round"
     d="M 8.4746094 25 C 8.2096947 25.013342 8 25.231658 8 25.5 L 8 27.5 C 8 27.777 8.2229984 28 8.5 28 L 10.5 28 C 10.777 28 11 27.777002 11 27.5 L 11 25.5 C 11 25.223 10.777002 25 10.5 25 L 8.5 25 C 8.4913437 25 8.483155 24.99957 8.4746094 25 z M 12.474609 25 C 12.209695 25.013342 12 25.231658 12 25.5 L 12 27.5 C 12 27.777 12.222998 28 12.5 28 L 14.5 28 C 14.777 28 15 27.777002 15 27.5 L 15 25.5 C 15 25.223 14.777002 25 14.5 25 L 12.5 25 C 12.491344 25 12.483155 24.99957 12.474609 25 z "
     transform="scale(0.26458334)" />
  <circle
     style="opacity:0.9;fill:#cccccc;fill-opacity:1;stroke-width:0.529167;stroke-linecap:round;stroke-linejoin:round"
     id="path1666"
     cx="1.4552083"
     cy="7.0114584"
     r="0.39687499" />
  <circle
     style="opacity:0.9;fill:#9f9f9f;fill-opacity:1;stroke-width:0.529166;stroke-linecap:round;stroke-linejoin:round"
     id="path1833"
     cx="1.4552083"
     cy="7.0114584"
     r="0.26458335" />
  <rect
     style="opacity:0.15;fill:#000000;fill-opacity:1;stroke-width:0.529167;stroke-linecap:round;stroke-linejoin:round"
     id="rect2102"
     width="7.4083333"
     height="0.26458335"
     x="0.5291667"
     y="6.0854168" />
  <path
     id="rect2314"
     style="opacity:0.75;fill:#f9f9f9;fill-opacity:1;stroke-width:2;stroke-linecap:round;stroke-linejoin:round"
     d="M 8.5 25.5 L 8.5 27.5 L 10.5 27.5 L 10.5 25.5 L 8.5 25.5 z M 12.5 25.5 L 12.5 27.5 L 14.5 27.5 L 14.5 25.5 L 12.5 25.5 z "
     transform="scale(0.26458334)" />
</svg>
