<?xml version="1.0" encoding="UTF-8" standalone="no"?>
<!-- Created with Inkscape (http://www.inkscape.org/) -->

<svg
   width="32"
   height="32"
   viewBox="0 0 8.4666665 8.466667"
   version="1.1"
   id="svg5"
   inkscape:version="1.1.2 (0a00cf5339, 2022-02-04, custom)"
   sodipodi:docname="device-notifier.svg"
   xmlns:inkscape="http://www.inkscape.org/namespaces/inkscape"
   xmlns:sodipodi="http://sodipodi.sourceforge.net/DTD/sodipodi-0.dtd"
   xmlns="http://www.w3.org/2000/svg"
   xmlns:svg="http://www.w3.org/2000/svg">
  <sodipodi:namedview
     id="namedview7"
     pagecolor="#ffffff"
     bordercolor="#666666"
     borderopacity="1.0"
     inkscape:pageshadow="2"
     inkscape:pageopacity="0.0"
     inkscape:pagecheckerboard="0"
     inkscape:document-units="px"
     showgrid="false"
     units="px"
     height="64px"
     inkscape:zoom="17.721864"
     inkscape:cx="19.213555"
     inkscape:cy="16.871815"
     inkscape:window-width="1920"
     inkscape:window-height="1019"
     inkscape:window-x="0"
     inkscape:window-y="31"
     inkscape:window-maximized="1"
     inkscape:current-layer="svg5"
     showguides="false" />
  <defs
     id="defs2" />
  <rect
     style="opacity:1;fill:#b7b7b7;fill-opacity:1;stroke-width:0.15875;stroke-linejoin:round"
     id="rect929"
     width="3.96875"
     height="2.3812499"
     x="2.2489583"
     y="0.13229166" />
  <path
     id="rect1141"
     style="opacity:0.5;fill:#2c3854;fill-opacity:1;stroke-width:0.264583;stroke-linejoin:round"
     d="M 2.1166667,0 V 2.6458335 H 6.3499998 V 0 Z M 2.38125,0.2645834 H 6.0854168 V 2.3812501 H 2.38125 Z"
     sodipodi:nodetypes="cccccccccc" />
  <path
     id="rect8"
     d="m 2.9104166,0.7937501 v 0.79375 H 3.96875 v -0.79375 z m 1.5874999,0 v 0.79375 H 5.55625 v -0.79375 z"
     style="fill:#707680;fill-opacity:1;stroke-width:0.132291"
     sodipodi:nodetypes="cccccccccc" />
  <path
     id="rect2299"
     style="opacity:1;fill:#5e94ff;fill-opacity:1;stroke-width:0.999999;stroke-linejoin:round"
     d="M 8,8.5 C 7.1689998,8.5 6.5,9.1690002 6.5,10 v 18 c 0,1.939 1.561,3.5 3.5,3.5 h 12 c 1.527313,0 2.820665,-0.969251 3.300781,-2.328125 C 25.431099,28.969254 25.5,28.596351 25.5,28 V 10 C 25.5,9.1690002 24.831001,8.5 24,8.5 Z"
     transform="scale(0.26458334)" />
  <path
     id="rect1571"
     style="opacity:0.3;fill:#000000;stroke-width:0.999999;stroke-linejoin:round"
     d="M 8,8 C 6.8919998,8 6,8.8920001 6,10 v 18 c 0,2.209139 1.7908611,4 4,4 h 12 c 2.209139,0 4,-1.790861 4,-4 V 10 C 26,8.8920001 25.108003,8 24,8 Z m 0,1 h 16 c 0.553999,0 1,0.4460003 1,1 v 18 c -7.21e-4,0.113597 -0.0079,0.227061 -0.02148,0.339844 -0.0067,0.06014 -0.01512,0.120061 -0.02539,0.179687 -0.008,0.04643 -0.01714,0.09267 -0.02734,0.138672 -7.25e-4,0.0032 -0.0012,0.0065 -0.002,0.0098 -0.0038,0.01435 -0.0077,0.02867 -0.01172,0.04297 -0.0085,0.03459 -0.01588,0.06954 -0.02539,0.103515 -0.02068,0.07313 -0.04414,0.145448 -0.07031,0.216797 -0.0072,0.01884 -0.01418,0.03779 -0.02148,0.05664 -0.05518,0.142184 -0.121131,0.279954 -0.197266,0.412109 -0.0084,0.01309 -0.01683,0.02611 -0.02539,0.03906 -0.0632,0.107097 -0.132995,0.21016 -0.208985,0.308594 -0.04187,0.05289 -0.08552,0.104351 -0.130859,0.154297 -0.01922,0.02177 -0.03875,0.04325 -0.05859,0.06445 -0.03489,0.03671 -0.07071,0.07253 -0.107422,0.107422 -0.0212,0.01984 -0.04269,0.03938 -0.06445,0.05859 -0.04995,0.04534 -0.101408,0.08899 -0.154297,0.130859 -0.09843,0.07599 -0.201497,0.145787 -0.308594,0.208985 -0.01296,0.0086 -0.02598,0.01703 -0.03906,0.02539 -0.0039,0.002 -0.0078,0.0039 -0.01172,0.0059 -0.0053,0.0031 -0.01028,0.0068 -0.01563,0.0098 -0.123794,0.06958 -0.252373,0.130277 -0.384765,0.181641 -0.01881,0.0074 -0.03769,0.01451 -0.05664,0.02148 -0.104909,0.03783 -0.211846,0.06978 -0.320312,0.0957 -0.01445,0.0035 -0.02846,0.0084 -0.04297,0.01172 -0.0033,6.56e-4 -0.0065,0.0013 -0.0098,0.002 -0.0053,0.0012 -0.01037,0.0028 -0.01563,0.0039 -0.04085,0.0087 -0.08187,0.01648 -0.123047,0.02344 -0.05963,0.01027 -0.119549,0.01874 -0.179687,0.02539 -0.0033,3.71e-4 -0.0064,0.0016 -0.0098,0.002 C 22.220495,30.993043 22.110301,30.999563 22,31 H 10 C 8.3431457,31 7,29.656854 7,28 V 10 C 7,9.4460003 7.4459999,9 8,9 Z"
     transform="scale(0.26458334)"
     sodipodi:nodetypes="sssssssssssscccsccccccccccccccccccccccccsccssss" />
  <path
     d="m 3.96875,3.7041667 v 2.38125 h 0.5291667 v -2.38125 z m 0.2645833,2.9104167 c -0.1465791,0 -0.2645833,0.1180042 -0.2645833,0.2645833 0,0.1465792 0.1180042,0.2645834 0.2645833,0.2645834 0.1465792,0 0.2645834,-0.1180042 0.2645834,-0.2645834 0,-0.1465791 -0.1180042,-0.2645833 -0.2645834,-0.2645833 z"
     style="fill:#ffffff;stroke-width:0.264583"
     id="path860" />
</svg>
