<?xml version="1.0" encoding="UTF-8" standalone="no"?>
<!-- Created with Inkscape (http://www.inkscape.org/) -->

<svg
   width="32"
   height="32"
   viewBox="0 0 8.4666665 8.466667"
   version="1.1"
   id="svg5"
   inkscape:version="1.1.2 (0a00cf5339, 2022-02-04, custom)"
   sodipodi:docname="ktip.svg"
   xmlns:inkscape="http://www.inkscape.org/namespaces/inkscape"
   xmlns:sodipodi="http://sodipodi.sourceforge.net/DTD/sodipodi-0.dtd"
   xmlns="http://www.w3.org/2000/svg"
   xmlns:svg="http://www.w3.org/2000/svg">
  <sodipodi:namedview
     id="namedview7"
     pagecolor="#ffffff"
     bordercolor="#666666"
     borderopacity="1.0"
     inkscape:pageshadow="2"
     inkscape:pageopacity="0.0"
     inkscape:pagecheckerboard="0"
     inkscape:document-units="px"
     showgrid="false"
     units="px"
     height="64px"
     inkscape:zoom="28.066667"
     inkscape:cx="16.015439"
     inkscape:cy="15.997625"
     inkscape:window-width="1920"
     inkscape:window-height="1019"
     inkscape:window-x="0"
     inkscape:window-y="31"
     inkscape:window-maximized="1"
     inkscape:current-layer="svg5" />
  <defs
     id="defs2" />
  <path
     style="color:#000000;fill:#58adf8;stroke:none;stroke-width:0.264583;stroke-linejoin:round;-inkscape-stroke:none;fill-opacity:1"
     d="M 8.0697917,4.2333335 A 3.8364583,3.8364584 0 0 1 4.2333334,8.0697919 3.8364583,3.8364584 0 0 1 0.396875,4.2333335 3.8364583,3.8364584 0 0 1 4.2333334,0.396875 3.8364583,3.8364584 0 0 1 8.0697917,4.2333335 Z"
     id="path880" />
  <path
     style="color:#000000;opacity:0.35;fill:#002e99;stroke:none;stroke-linejoin:round;-inkscape-stroke:none;fill-opacity:1"
     d="m 4.2333333,0.26458334 c -2.190311,0 -3.96874996,1.77843896 -3.96874996,3.96874996 1e-7,2.1903111 1.77843896,3.9687501 3.96874996,3.9687501 2.1903111,0 3.9687501,-1.778439 3.9687501,-3.9687501 0,-2.190311 -1.778439,-3.96874996 -3.9687501,-3.96874996 z m 0,0.2636719 c 2.0473198,0 3.7031251,1.65775836 3.7031251,3.70507806 0,2.0473198 -1.6558053,3.7031251 -3.7031251,3.7031251 -2.0473197,0 -3.70507806,-1.6558053 -3.70507806,-3.7031251 0,-2.0473197 1.65775836,-3.70507806 3.70507806,-3.70507806 z"
     id="path882" />
  <path
     d="m 4.2486155,2.4706608 c -0.1216475,0 -0.2262644,-0.043793 -0.3138507,-0.1313792 C 3.8471788,2.2516956 3.8033855,2.1470785 3.8033855,2.025431 c 0,-0.1216476 0.043794,-0.2238314 0.1313793,-0.3065517 C 4.0223508,1.6312933 4.126968,1.5875 4.2486155,1.5875 c 0.121647,0 0.226264,0.043794 0.3138504,0.1313793 0.087586,0.08272 0.1313791,0.1849041 0.1313791,0.3065517 0,0.1216475 -0.043795,0.2262643 -0.1313791,0.3138506 -0.082721,0.087586 -0.187337,0.1313792 -0.3138504,0.1313792 z M 3.9420636,3.1567528 H 4.5551669 V 6.8791667 H 3.9420636 Z"
     style="font-size:13.8678px;line-height:1.25;font-family:'Google Sans';-inkscape-font-specification:'Google Sans';fill:#f2f2f2;fill-opacity:1;stroke-width:0.048279"
     id="path48347" />
</svg>
