<?xml version="1.0" encoding="UTF-8" standalone="no"?>
<!-- Created with Inkscape (http://www.inkscape.org/) -->

<svg
   width="32"
   height="32"
   viewBox="0 0 8.4666665 8.466667"
   version="1.1"
   id="svg5"
   inkscape:version="1.1.2 (0a00cf5339, 2022-02-04, custom)"
   sodipodi:docname="org.gnome.Software.Create.svg"
   xmlns:inkscape="http://www.inkscape.org/namespaces/inkscape"
   xmlns:sodipodi="http://sodipodi.sourceforge.net/DTD/sodipodi-0.dtd"
   xmlns:xlink="http://www.w3.org/1999/xlink"
   xmlns="http://www.w3.org/2000/svg"
   xmlns:svg="http://www.w3.org/2000/svg">
  <sodipodi:namedview
     id="namedview7"
     pagecolor="#ffffff"
     bordercolor="#666666"
     borderopacity="1.0"
     inkscape:pageshadow="2"
     inkscape:pageopacity="0.0"
     inkscape:pagecheckerboard="0"
     inkscape:document-units="px"
     showgrid="false"
     units="px"
     height="64px"
     inkscape:zoom="25.1875"
     inkscape:cx="16"
     inkscape:cy="16"
     inkscape:window-width="1851"
     inkscape:window-height="1009"
     inkscape:window-x="69"
     inkscape:window-y="31"
     inkscape:window-maximized="1"
     inkscape:current-layer="svg5"
     showguides="false" />
  <defs
     id="defs2">
    <linearGradient
       inkscape:collect="always"
       id="linearGradient3068">
      <stop
         style="stop-color:#f075e6;stop-opacity:1"
         offset="0"
         id="stop3064" />
      <stop
         style="stop-color:#b837e8;stop-opacity:1;"
         offset="0.47318611"
         id="stop7517" />
      <stop
         style="stop-color:#6137e8;stop-opacity:1"
         offset="1"
         id="stop3066" />
    </linearGradient>
    <linearGradient
       inkscape:collect="always"
       xlink:href="#linearGradient3068"
       id="linearGradient3070"
       x1="2"
       y1="9"
       x2="16"
       y2="20"
       gradientUnits="userSpaceOnUse" />
  </defs>
  <path
     id="rect4073"
     style="opacity:0.2;fill:#000000;fill-opacity:1;stroke-width:0.529167;stroke-linecap:round;stroke-linejoin:round"
     d="m 0.79375002,1.0583333 c -0.29315837,0 -0.52916668,0.2360084 -0.52916668,0.5291667 v 5.0270835 c 0,0.2931583 0.23600831,0.5291667 0.52916668,0.5291667 H 7.6729169 c 0.2931583,0 0.5291666,-0.2360084 0.5291666,-0.5291667 V 1.5875 c 0,-0.2931583 -0.2360083,-0.5291667 -0.5291666,-0.5291667 z"
     sodipodi:nodetypes="sssssssss" />
  <path
     id="rect990"
     style="opacity:1;fill:#f9f9f9;fill-opacity:1;stroke-width:0.529167;stroke-linecap:round;stroke-linejoin:round"
     d="m 0.79375002,1.3229167 c -0.1465792,0 -0.26458334,0.1180041 -0.26458334,0.2645833 v 5.0270835 c 0,0.1465792 0.11800414,0.2645833 0.26458334,0.2645833 H 7.6729169 c 0.1465799,0 0.2645833,-0.1180041 0.2645833,-0.2645833 V 1.5875 c 0,-0.1465792 -0.1180034,-0.2645833 -0.2645833,-0.2645833 z"
     sodipodi:nodetypes="sssssssss" />
  <path
     id="rect1096"
     style="fill:url(#linearGradient3070);stroke-width:0.999999;stroke-linecap:round;stroke-linejoin:round;fill-opacity:1"
     d="M 2 9 C 2.487773 11.470738 2.9820379 13.14803 6 16 C 9.4564698 18.706382 12.666667 18.666666 16 20 C 15.512227 17.529262 15.017962 15.85197 12 13 C 8.5435302 10.293619 5.3333331 10.333333 2 9 z "
     transform="scale(0.26458334)" />
  <path
     style="color:#000000;fill:#cd9c57;stroke:none;stroke-width:0.264583;stroke-linecap:round;stroke-linejoin:round;-inkscape-stroke:none"
     d="M 8.1685826,1.2336571 7.9814939,1.0465684 c -0.1036472,-0.10364716 -0.2668969,-0.0998817 -0.3741773,0 L 4.8945307,3.5722656 5.6428854,4.3206203 8.1685826,1.6078345 c 0.099882,-0.1072805 0.1036471,-0.2705303 0,-0.3741774 z"
     id="path5985" />
  <path
     id="rect4846"
     style="fill:#cacaca;fill-opacity:1;stroke:none;stroke-width:0.264583;stroke-linecap:round;stroke-linejoin:round;stroke-miterlimit:4;stroke-dasharray:none;stroke-opacity:0.3"
     d="M 6.1840541,3.7392567 5.6428856,4.3206202 4.8945309,3.5722655 5.4758943,3.0310969 Z" />
  <path
     style="color:#000000;fill:#4e4e4e;fill-opacity:1;stroke:none;stroke-width:0.264583;stroke-linecap:round;stroke-linejoin:round;-inkscape-stroke:none"
     d="m 5.8208333,4.3656249 c 0,0.5114387 -0.414603,0.9260417 -0.9260417,0.9260417 l -0.6614582,2e-7 c 0,0 -0.2645835,-0.6417206 -0.2645835,-0.9260419 0,-0.5114387 0.414603,-0.9260417 0.9260417,-0.9260417 0.5114387,0 0.9260417,0.414603 0.9260417,0.9260417 z"
     id="path4064"
     sodipodi:nodetypes="sscsss" />
  <path
     id="path5987"
     style="color:#000000;fill:#000000;fill-opacity:0.3;stroke:none;stroke-width:3.77953;stroke-linecap:round;stroke-linejoin:round;-inkscape-stroke:none"
     d="M 29.466797 3.1699219 C 29.085557 3.1718152 28.703172 3.3150833 28.410156 3.5878906 L 18.833984 12.511719 C 18.723573 12.502494 18.610767 12.498047 18.498047 12.498047 C 16.294833 12.498047 14.498047 14.294832 14.498047 16.498047 C 14.498047 17.190443 14.773438 18.058377 15.029297 18.816406 C 15.285156 19.574436 15.539063 20.189453 15.539062 20.189453 C 15.615436 20.375398 15.795084 20.498038 15.996094 20.5 L 18.498047 20.5 C 20.701262 20.5 22.5 18.701261 22.5 16.498047 C 22.5 16.282066 22.48246 16.070158 22.449219 15.863281 L 31.240234 6.4179688 C 31.785857 5.8319378 31.810155 4.8902336 31.228516 4.3085938 L 30.519531 3.5976562 C 30.228711 3.3068365 29.848036 3.1680285 29.466797 3.1699219 z M 29.460938 4.1621094 C 29.586372 4.1591415 29.707677 4.2076765 29.808594 4.3085938 L 30.519531 5.0175781 C 30.721373 5.2194117 30.717214 5.5133805 30.507812 5.7382812 L 22.101562 14.765625 C 21.670735 13.875424 20.920186 13.165942 20 12.791016 L 29.09375 4.3242188 C 29.206204 4.2195257 29.335502 4.1650772 29.460938 4.1621094 z M 18.421875 13.501953 C 18.447692 13.501305 18.472066 13.501953 18.498047 13.501953 C 18.784917 13.501953 19.061635 13.54297 19.324219 13.617188 C 19.330154 13.618865 19.335877 13.621334 19.341797 13.623047 C 19.453493 13.655362 19.564049 13.691895 19.669922 13.736328 C 19.671244 13.736883 19.672507 13.737724 19.673828 13.738281 C 19.78739 13.786137 19.896087 13.841491 20.001953 13.902344 C 20.101443 13.959531 20.197234 14.022026 20.289062 14.089844 C 20.291681 14.091777 20.294263 14.093761 20.296875 14.095703 C 20.29992 14.097971 20.303605 14.099283 20.306641 14.101562 C 20.312863 14.106226 20.318034 14.112477 20.324219 14.117188 C 20.413332 14.185056 20.499251 14.256757 20.580078 14.333984 C 20.581401 14.335251 20.582664 14.336622 20.583984 14.337891 C 20.584643 14.338522 20.585279 14.339212 20.585938 14.339844 C 20.672646 14.423145 20.753929 14.512295 20.830078 14.605469 C 20.906643 14.699151 20.978077 14.797708 21.042969 14.900391 C 21.108484 15.004061 21.166159 15.110817 21.21875 15.222656 C 21.270935 15.333634 21.317021 15.448377 21.355469 15.566406 C 21.450899 15.859361 21.503906 16.172243 21.503906 16.498047 C 21.503906 16.600662 21.498271 16.702795 21.488281 16.802734 C 21.488154 16.804008 21.48841 16.805367 21.488281 16.806641 C 21.479119 16.897137 21.466197 16.986299 21.449219 17.074219 C 21.448596 17.077446 21.447898 17.080761 21.447266 17.083984 C 21.447019 17.08524 21.447514 17.086636 21.447266 17.087891 C 21.430814 17.171036 21.409855 17.251527 21.386719 17.332031 C 21.384509 17.339738 21.383129 17.347788 21.380859 17.355469 C 21.379287 17.360778 21.376601 17.365797 21.375 17.371094 C 21.35 17.453815 21.320817 17.535716 21.289062 17.615234 C 21.254899 17.700783 21.21736 17.783795 21.175781 17.865234 C 21.134378 17.94633 21.089359 18.024955 21.041016 18.101562 C 20.992638 18.178223 20.941633 18.252466 20.886719 18.324219 C 20.835175 18.391568 20.78156 18.456859 20.724609 18.519531 C 20.720596 18.523954 20.71693 18.528805 20.712891 18.533203 C 20.707319 18.539262 20.700934 18.544768 20.695312 18.550781 C 20.639994 18.609958 20.581392 18.668119 20.521484 18.722656 C 20.520808 18.723272 20.520208 18.723994 20.519531 18.724609 C 20.456191 18.782166 20.39038 18.836639 20.322266 18.888672 C 20.318965 18.891194 20.315812 18.893976 20.3125 18.896484 C 20.307372 18.900369 20.302029 18.904351 20.296875 18.908203 C 20.234095 18.955124 20.169968 18.999029 20.103516 19.041016 C 20.098766 19.044017 20.094611 19.047806 20.089844 19.050781 C 20.087375 19.052322 20.084505 19.053154 20.082031 19.054688 C 20.013044 19.097457 19.941717 19.136639 19.869141 19.173828 C 19.863168 19.17689 19.857559 19.180571 19.851562 19.183594 C 19.845781 19.186507 19.839787 19.188529 19.833984 19.191406 C 19.758149 19.229002 19.680881 19.263702 19.601562 19.294922 C 19.518873 19.327468 19.433764 19.357563 19.347656 19.382812 C 19.345077 19.383569 19.342426 19.384016 19.339844 19.384766 C 19.336669 19.385687 19.333257 19.385807 19.330078 19.386719 C 19.243975 19.411405 19.157467 19.432189 19.068359 19.449219 C 18.982266 19.465672 18.895197 19.479316 18.806641 19.488281 C 18.800092 19.488946 18.793671 19.489612 18.787109 19.490234 C 18.782006 19.490718 18.776595 19.489776 18.771484 19.490234 C 18.681518 19.498302 18.590149 19.503906 18.498047 19.503906 L 16.351562 19.503906 C 16.312913 19.407375 16.26627 19.29233 16.205078 19.132812 C 16.143886 18.973295 16.068145 18.769307 15.974609 18.492188 C 15.913574 18.311357 15.852631 18.120684 15.796875 17.929688 C 15.741119 17.738691 15.690308 17.54736 15.646484 17.367188 C 15.602661 17.187015 15.566254 17.017498 15.541016 16.869141 C 15.528397 16.794962 15.518444 16.726351 15.511719 16.664062 C 15.504993 16.601774 15.501953 16.545822 15.501953 16.498047 C 15.501953 16.422973 15.506369 16.349033 15.511719 16.275391 C 15.513657 16.248676 15.514953 16.221822 15.517578 16.195312 C 15.51829 16.188129 15.518769 16.180996 15.519531 16.173828 C 15.526516 16.108136 15.535761 16.042834 15.546875 15.978516 C 15.549462 15.963543 15.551881 15.948487 15.554688 15.933594 C 15.568266 15.861512 15.584919 15.790818 15.603516 15.720703 C 15.608902 15.700379 15.615296 15.680305 15.621094 15.660156 C 15.641744 15.588444 15.66373 15.518568 15.689453 15.449219 C 15.692405 15.441244 15.696201 15.433723 15.699219 15.425781 C 15.726453 15.354238 15.754691 15.283594 15.787109 15.214844 C 15.787973 15.213012 15.788195 15.210814 15.789062 15.208984 C 15.795677 15.195023 15.803724 15.181808 15.810547 15.167969 C 15.84042 15.107385 15.872491 15.046433 15.90625 14.988281 C 15.911509 14.979228 15.916524 14.96993 15.921875 14.960938 C 15.922161 14.960456 15.921588 14.959466 15.921875 14.958984 C 15.96488 14.886756 16.011798 14.818087 16.060547 14.75 C 16.103971 14.689351 16.149528 14.631338 16.197266 14.574219 C 16.212695 14.555756 16.228276 14.537609 16.244141 14.519531 C 16.283417 14.474774 16.323377 14.430988 16.365234 14.388672 C 16.384629 14.369059 16.403898 14.349148 16.423828 14.330078 C 16.476481 14.279699 16.531647 14.231989 16.587891 14.185547 C 16.648472 14.135523 16.710906 14.088163 16.775391 14.042969 C 16.778068 14.041092 16.780519 14.038977 16.783203 14.037109 C 16.786572 14.034765 16.78959 14.031628 16.792969 14.029297 C 16.802283 14.022872 16.812875 14.01804 16.822266 14.011719 C 16.884839 13.969586 16.947823 13.928031 17.013672 13.890625 C 17.016962 13.888755 17.02014 13.886623 17.023438 13.884766 C 17.095556 13.844165 17.170376 13.808085 17.246094 13.773438 C 17.319319 13.739931 17.394397 13.709295 17.470703 13.681641 C 17.488132 13.67533 17.505857 13.670059 17.523438 13.664062 C 17.583899 13.643419 17.644863 13.62426 17.707031 13.607422 C 17.73681 13.599363 17.766728 13.591148 17.796875 13.583984 C 17.855468 13.570045 17.914707 13.557347 17.974609 13.546875 C 17.979134 13.546084 17.983749 13.545693 17.988281 13.544922 C 17.994227 13.543912 17.999902 13.541991 18.005859 13.541016 C 18.141769 13.51873 18.280285 13.505505 18.421875 13.501953 z "
     transform="scale(0.26458334)" />
</svg>
