<?xml version="1.0" encoding="UTF-8" standalone="no"?>
<!-- Created with Inkscape (http://www.inkscape.org/) -->

<svg
   width="32"
   height="32"
   viewBox="0 0 8.4666665 8.466667"
   version="1.1"
   id="svg5"
   inkscape:version="1.1.2 (0a00cf5339, 2022-02-04, custom)"
   sodipodi:docname="preferences-desktop-font-installer.svg"
   xmlns:inkscape="http://www.inkscape.org/namespaces/inkscape"
   xmlns:sodipodi="http://sodipodi.sourceforge.net/DTD/sodipodi-0.dtd"
   xmlns="http://www.w3.org/2000/svg"
   xmlns:svg="http://www.w3.org/2000/svg">
  <sodipodi:namedview
     id="namedview7"
     pagecolor="#ffffff"
     bordercolor="#666666"
     borderopacity="1.0"
     inkscape:pageshadow="2"
     inkscape:pageopacity="0.0"
     inkscape:pagecheckerboard="0"
     inkscape:document-units="px"
     showgrid="false"
     units="px"
     height="64px"
     inkscape:zoom="26.3125"
     inkscape:cx="15.980998"
     inkscape:cy="16"
     inkscape:window-width="1920"
     inkscape:window-height="1019"
     inkscape:window-x="0"
     inkscape:window-y="31"
     inkscape:window-maximized="1"
     inkscape:current-layer="svg5"
     showguides="false" />
  <defs
     id="defs2" />
  <rect
     style="opacity:0.6;fill:#003ac8;fill-opacity:1;stroke-width:0.529167;stroke-linecap:round;stroke-linejoin:round"
     id="rect967"
     width="7.4083333"
     height="7.4083333"
     x="0.5291667"
     y="0.5291667"
     ry="0.79374999" />
  <rect
     style="fill:#7cb2ff;fill-opacity:1;stroke-width:0.529167;stroke-linecap:round;stroke-linejoin:round"
     id="rect1071"
     width="6.8791666"
     height="6.8791666"
     x="0.79375005"
     y="0.79375005"
     ry="0.5291667" />
  <path
     id="path1077"
     style="opacity:0.1;fill:#0000ff;stroke-width:0.999999"
     d="M 5 3 C 3.8919999 3 3 3.8919999 3 5 L 3 14.699219 C 6.608217 20.720926 13.320884 24.512303 20.667969 24.521484 C 23.544427 24.520156 26.382312 23.933894 29 22.808594 L 29 5 C 29 3.8919999 28.108 3 27 3 L 5 3 z "
     transform="scale(0.26458334)" />
  <path
     id="path8181"
     style="font-weight:500;font-size:9.03016px;line-height:1.25;font-family:'Google Sans';-inkscape-font-specification:'Google Sans Medium';fill:#f9f9f9;fill-opacity:1;stroke-width:0.10159"
     d="M 2.9452731,3.9687501 1.8520834,6.8783414 H 2.3560063 L 2.6201765,6.1346655 H 3.7945239 L 4.0545083,6.8783414 H 4.5584312 L 3.4652415,3.9687501 Z m 0.247892,0.5404322 h 0.024184 l 0.113947,0.3371891 0.3088185,0.8657615 H 2.7704 L 3.0792184,4.8463714 Z m 2.4826403,0.2316141 c -0.1787974,0 -0.3413564,0.035139 -0.487645,0.105575 -0.1462887,0.070435 -0.2653125,0.1694009 -0.3574202,0.2967262 l 0.3127718,0.239753 c 0.05689,-0.081272 0.131367,-0.1448649 0.2234748,-0.1909187 0.094817,-0.046054 0.1950264,-0.069066 0.3006796,-0.069066 0.1489975,0 0.2709749,0.040582 0.3657918,0.1218531 0.094817,0.078562 0.142317,0.1814931 0.142317,0.3088185 V 5.6591129 C 6.118885,5.6320223 6.0416871,5.6077664 5.9441613,5.586094 5.8466358,5.5617128 5.736786,5.5495846 5.6148789,5.5495846 c -0.2465237,0 -0.4509083,0.062117 -0.6134512,0.1867329 -0.1598339,0.1246163 -0.239753,0.2940939 -0.239753,0.5081088 0,0.1354524 0.032419,0.2571974 0.097436,0.3655593 0.065017,0.1056528 0.1558202,0.1882927 0.2723091,0.247892 0.1164892,0.05689 0.2491177,0.085343 0.3981155,0.085343 0.1408703,0 0.2655686,-0.029698 0.3739307,-0.089297 0.1083618,-0.059599 0.192246,-0.1340764 0.2518455,-0.2234749 h 0.020462 v 0.2478924 h 0.43881 V 5.586094 c 0,-0.2681959 -0.081163,-0.475534 -0.2437061,-0.6218228 C 6.2083368,4.8152735 5.97651,4.7407964 5.6758054,4.7407964 Z m 0.024417,1.1499304 c 0.089399,0 0.1747595,0.010883 0.256031,0.032556 0.083981,0.021673 0.1572135,0.050126 0.2195218,0.085343 0,0.1002349 -0.024489,0.1937588 -0.073252,0.2804482 -0.048763,0.08669 -0.1163214,0.155725 -0.203011,0.207197 -0.08669,0.051472 -0.1844107,0.077204 -0.2927729,0.077204 -0.1164892,0 -0.2112572,-0.029698 -0.2844014,-0.089297 C 5.2491939,6.42187 5.212577,6.3431949 5.212577,6.2483783 c 0,-0.1056528 0.039338,-0.1910137 0.1179,-0.256031 C 5.40904,5.9246213 5.5322608,5.8907255 5.7002224,5.8907268 Z" />
  <path
     d="m 2.38125,1.5875 c 0,1.0116257 0.8200848,1.8317104 1.8317105,1.8317104 1.0116257,0 1.8317105,-0.8200847 1.8317105,-1.8317104 H 5.5866772 C 5.5868232,2.3462861 4.9717466,2.9614813 4.2129605,2.9614813 3.4540709,2.9616273 2.8388332,2.3463894 2.8389792,1.5875 Z"
     style="fill:#ffffff;stroke-width:0.264583;paint-order:stroke markers fill"
     id="path858" />
</svg>
