<?xml version="1.0" encoding="UTF-8" standalone="no"?>
<!-- Created with Inkscape (http://www.inkscape.org/) -->

<svg
   width="32"
   height="32"
   viewBox="0 0 8.4666665 8.466667"
   version="1.1"
   id="svg5"
   inkscape:version="1.1.2 (0a00cf5339, 2022-02-04, custom)"
   sodipodi:docname="preferences-desktop-keyboard.svg"
   xmlns:inkscape="http://www.inkscape.org/namespaces/inkscape"
   xmlns:sodipodi="http://sodipodi.sourceforge.net/DTD/sodipodi-0.dtd"
   xmlns="http://www.w3.org/2000/svg"
   xmlns:svg="http://www.w3.org/2000/svg">
  <sodipodi:namedview
     id="namedview7"
     pagecolor="#ffffff"
     bordercolor="#666666"
     borderopacity="1.0"
     inkscape:pageshadow="2"
     inkscape:pageopacity="0.0"
     inkscape:pagecheckerboard="0"
     inkscape:document-units="px"
     showgrid="false"
     units="px"
     height="64px"
     inkscape:zoom="25.1875"
     inkscape:cx="15.980149"
     inkscape:cy="16"
     inkscape:window-width="1851"
     inkscape:window-height="1009"
     inkscape:window-x="69"
     inkscape:window-y="31"
     inkscape:window-maximized="1"
     inkscape:current-layer="svg5"
     showguides="false" />
  <defs
     id="defs2" />
  <rect
     style="opacity:0.3;fill:#555761;fill-opacity:1;stroke-width:0.529167;stroke-linecap:round;stroke-linejoin:round"
     id="rect967"
     width="7.4083333"
     height="7.4083333"
     x="0.5291667"
     y="0.5291667"
     ry="0.79374999" />
  <rect
     style="fill:#efefef;fill-opacity:1;stroke-width:0.529167;stroke-linecap:round;stroke-linejoin:round"
     id="rect1071"
     width="6.8791666"
     height="6.8791666"
     x="0.79375005"
     y="0.79375005"
     ry="0.5291667" />
  <path
     d="m 6.6145834,3.0614938 c 0,0.1566334 -0.024254,0.3000376 -0.07276,0.4302126 -0.048507,0.130175 -0.1169458,0.2310693 -0.2053167,0.3026833 -0.088194,0.07179 -0.1896181,0.1076854 -0.3042708,0.1076854 -0.094897,0 -0.1748896,-0.028751 -0.2399771,-0.086254 C 5.7269944,3.7584945 5.6883653,3.6852049 5.6763709,3.5959522 H 5.6631419 C 5.6190449,3.6919082 5.5555446,3.766873 5.4726419,3.820848 5.3911499,3.874999 5.2941363,3.902075 5.1816003,3.902075 5.0161476,3.902075 4.8865017,3.845807 4.7926628,3.7332708 4.7000584,3.6196766 4.6537563,3.4657772 4.6537563,3.271573 c 0,-0.2250723 0.065087,-0.4076348 0.1952625,-0.5476875 0.130175,-0.141111 0.301184,-0.2116667 0.5130271,-0.2116667 0.074965,0 0.1598965,0.00706 0.2547938,0.021167 0.094897,0.013406 0.1804458,0.032191 0.2566458,0.056356 l -0.04154,0.777875 v 0.036248 c 0,0.1963208 0.073378,0.2944812 0.2201334,0.2944812 0.1003652,0 0.1819452,-0.059002 0.2447395,-0.1770062 0.062971,-0.1190625 0.094456,-0.2734027 0.094456,-0.4630209 0,-0.1998485 -0.040834,-0.3747381 -0.1225021,-0.5246687 C 6.1871049,2.3837195 6.0706882,2.2684494 5.919523,2.1878397 5.7695924,2.1061716 5.5969959,2.0653376 5.4017334,2.0653376 c -0.2460625,0 -0.4601104,0.051241 -0.6421438,0.1537229 -0.1820333,0.1016 -0.3210277,0.2472089 -0.4169833,0.4368271 -0.095956,0.188736 -0.1439333,0.4071937 -0.1439333,0.6553729 0,0.3363736 0.088812,0.595048 0.2664354,0.776023 0.1776235,0.180975 0.433564,0.2714625 0.7678208,0.2714625 0.2315986,0 0.4721048,-0.047449 0.7215188,-0.1423459 V 4.4365335 C 5.7426049,4.5291376 5.5020986,4.5754397 5.2329292,4.5754397 4.8325265,4.5754397 4.5214646,4.4656376 4.2997438,4.2460335 4.0790813,4.0255474 3.96875,3.7177486 3.96875,3.3226376 3.96875,3.0360057 4.02784,2.7806828 4.1460209,2.5566688 4.2638486,2.3326549 4.4320355,2.1595292 4.6505813,2.0372917 4.8689507,1.9138195 5.1193349,1.8520834 5.4017334,1.8520834 c 0.2370667,0 0.4477631,0.050094 0.6320896,0.1502833 0.1852083,0.099307 0.3280834,0.2410355 0.428625,0.4251855 0.1014235,0.1832681 0.1521354,0.3945818 0.1521354,0.6339416 z M 4.903523,3.2781876 c 0,0.2801057 0.1075973,0.4201583 0.3227917,0.4201583 0.2284235,0 0.3525131,-0.1725964 0.3722687,-0.5177895 l 0.023283,-0.4318001 c -0.079375,-0.022048 -0.1659818,-0.033073 -0.2598208,-0.033073 -0.1434042,0 -0.2559402,0.049565 -0.3376083,0.1486959 -0.08061,0.099307 -0.1209146,0.2372431 -0.1209143,0.4138084 z"
     style="font-weight:400;font-size:12.808px;font-family:'Open Sans';letter-spacing:0;word-spacing:0;opacity:0.7;fill:#555761;stroke-width:0.264583"
     id="path887" />
  <path
     id="rect1178"
     style="opacity:0.1;fill:#000000;fill-opacity:1;stroke-width:2;stroke-linecap:round;stroke-linejoin:round"
     d="M 3 25 L 3 27 C 3 28.108 3.8919999 29 5 29 L 27 29 C 28.108 29 29 28.108 29 27 L 29 25 C 29 26.108 28.108 27 27 27 L 5 27 C 3.8919999 27 3 26.108 3 25 z "
     transform="scale(0.26458334)" />
</svg>
