<?xml version="1.0" encoding="UTF-8" standalone="no"?>
<!-- Created with Inkscape (http://www.inkscape.org/) -->

<svg
   width="32"
   height="32"
   viewBox="0 0 8.4666665 8.466667"
   version="1.1"
   id="svg5"
   inkscape:version="1.1.2 (0a00cf5339, 2022-02-04, custom)"
   sodipodi:docname="preferences-desktop-font.svg"
   xmlns:inkscape="http://www.inkscape.org/namespaces/inkscape"
   xmlns:sodipodi="http://sodipodi.sourceforge.net/DTD/sodipodi-0.dtd"
   xmlns="http://www.w3.org/2000/svg"
   xmlns:svg="http://www.w3.org/2000/svg">
  <sodipodi:namedview
     id="namedview7"
     pagecolor="#ffffff"
     bordercolor="#666666"
     borderopacity="1.0"
     inkscape:pageshadow="2"
     inkscape:pageopacity="0.0"
     inkscape:pagecheckerboard="0"
     inkscape:document-units="px"
     showgrid="false"
     units="px"
     height="64px"
     inkscape:zoom="13.15625"
     inkscape:cx="11.667458"
     inkscape:cy="17.102138"
     inkscape:window-width="1920"
     inkscape:window-height="1019"
     inkscape:window-x="0"
     inkscape:window-y="31"
     inkscape:window-maximized="1"
     inkscape:current-layer="svg5"
     showguides="false" />
  <defs
     id="defs2" />
  <rect
     style="opacity:0.35;fill:#555761;fill-opacity:1;stroke-width:0.529167;stroke-linecap:round;stroke-linejoin:round"
     id="rect967"
     width="7.4083333"
     height="7.4083333"
     x="0.5291667"
     y="0.5291667"
     ry="0.79374999" />
  <rect
     style="fill:#f2f2f2;fill-opacity:1;stroke-width:0.529167;stroke-linecap:round;stroke-linejoin:round"
     id="rect1071"
     width="6.8791666"
     height="6.8791666"
     x="0.79375005"
     y="0.79375005"
     ry="0.5291667" />
  <path
     id="path8181"
     style="font-weight:500;font-size:9.03016px;line-height:1.25;font-family:'Google Sans';-inkscape-font-specification:'Google Sans Medium';fill:#666666;fill-opacity:1;stroke-width:0.124166"
     d="M 2.6590374,2.38125 1.3229167,5.9374171 H 1.9388225 L 2.2616971,5.0284799 H 3.6970106 L 4.0147693,5.9374171 H 4.6306751 L 3.2945544,2.38125 Z m 0.3029791,0.6605283 h 0.029558 l 0.1392686,0.41212 0.3774448,1.0581529 H 2.4453036 L 2.8227484,3.4538983 Z m 3.0343382,0.2830838 c -0.2185301,0 -0.4172134,0.042948 -0.5960105,0.1290362 C 5.2215469,3.5399853 5.0760733,3.6609438 4.9634973,3.8165636 L 5.3457739,4.109595 C 5.4153059,4.010263 5.5063336,3.9325379 5.6189098,3.87625 5.7347967,3.819962 5.8572754,3.791836 5.986407,3.791836 c 0.1821081,0 0.3311916,0.0496 0.4470789,0.1489315 0.1158872,0.09602 0.173943,0.221825 0.173943,0.3774449 V 4.447249 C 6.5378964,4.4141382 6.4435434,4.3844921 6.3243452,4.3580037 6.2051474,4.3282044 6.0708865,4.3133811 5.921889,4.3133811 c -0.3013067,0 -0.5511101,0.075921 -0.7497737,0.228229 C 4.9767627,4.693919 4.8790839,4.9010582 4.8790839,5.162632 c 0,0.165553 0.039623,0.3143524 0.1190884,0.4467947 0.079465,0.1291312 0.1904469,0.2301355 0.3328222,0.3029791 0.1423757,0.069532 0.3044772,0.1043086 0.4865856,0.1043086 0.1721749,0 0.3245839,-0.036297 0.4570265,-0.1091409 0.1324422,-0.072843 0.2349673,-0.1638711 0.3078111,-0.273136 h 0.025009 V 5.9374171 H 7.1437501 V 4.3580037 c 0,-0.327795 -0.099199,-0.5812083 -0.2978631,-0.7600057 C 6.6472264,3.4158897 6.3638826,3.3248621 5.9963547,3.3248621 Z m 0.029843,1.4054705 c 0.1092652,0 0.213595,0.013302 0.3129268,0.039791 0.1026432,0.026489 0.1921498,0.061265 0.2683044,0.1043086 0,0.1225093 -0.029931,0.2368162 -0.08953,0.34277 -0.059599,0.1059542 -0.1421706,0.1903305 -0.2481245,0.2532407 -0.1059542,0.06291 -0.2253909,0.094361 -0.3578336,0.094361 -0.1423757,0 -0.2582032,-0.036297 -0.3476017,-0.1091409 C 5.4749411,5.379509 5.4301869,5.2833503 5.4301869,5.1674633 c 0,-0.1291311 0.04808,-0.2334612 0.1441,-0.3129267 0.096021,-0.082776 0.2466247,-0.1242044 0.4519108,-0.124204 z" />
</svg>
