<?xml version="1.0" encoding="UTF-8" standalone="no"?>
<!-- Created with Inkscape (http://www.inkscape.org/) -->

<svg
   width="32"
   height="32"
   viewBox="0 0 8.4666665 8.466667"
   version="1.1"
   id="svg5"
   inkscape:version="1.1.2 (0a00cf5339, 2022-02-04, custom)"
   sodipodi:docname="preferences-other.svg"
   xmlns:inkscape="http://www.inkscape.org/namespaces/inkscape"
   xmlns:sodipodi="http://sodipodi.sourceforge.net/DTD/sodipodi-0.dtd"
   xmlns="http://www.w3.org/2000/svg"
   xmlns:svg="http://www.w3.org/2000/svg">
  <sodipodi:namedview
     id="namedview7"
     pagecolor="#ffffff"
     bordercolor="#666666"
     borderopacity="1.0"
     inkscape:pageshadow="2"
     inkscape:pageopacity="0.0"
     inkscape:pagecheckerboard="0"
     inkscape:document-units="px"
     showgrid="false"
     units="px"
     height="64px"
     inkscape:zoom="28.066667"
     inkscape:cx="16.015439"
     inkscape:cy="15.997625"
     inkscape:window-width="1920"
     inkscape:window-height="1019"
     inkscape:window-x="0"
     inkscape:window-y="31"
     inkscape:window-maximized="1"
     inkscape:current-layer="svg5" />
  <defs
     id="defs2" />
  <path
     style="color:#000000;fill:#ececec;stroke:none;stroke-width:0.264583;stroke-linejoin:round;-inkscape-stroke:none;fill-opacity:1"
     d="M 8.0697917,4.2333335 A 3.8364583,3.8364584 0 0 1 4.2333334,8.0697919 3.8364583,3.8364584 0 0 1 0.396875,4.2333335 3.8364583,3.8364584 0 0 1 4.2333334,0.396875 3.8364583,3.8364584 0 0 1 8.0697917,4.2333335 Z"
     id="path880" />
  <path
     style="color:#000000;opacity:0.35;fill:#000000;stroke:none;stroke-linejoin:round;-inkscape-stroke:none;fill-opacity:1"
     d="m 4.2333333,0.26458334 c -2.190311,0 -3.96874996,1.77843896 -3.96874996,3.96874996 1e-7,2.1903111 1.77843896,3.9687501 3.96874996,3.9687501 2.1903111,0 3.9687501,-1.778439 3.9687501,-3.9687501 0,-2.190311 -1.778439,-3.96874996 -3.9687501,-3.96874996 z m 0,0.2636719 c 2.0473198,0 3.7031251,1.65775836 3.7031251,3.70507806 0,2.0473198 -1.6558053,3.7031251 -3.7031251,3.7031251 -2.0473197,0 -3.70507806,-1.6558053 -3.70507806,-3.7031251 0,-2.0473197 1.65775836,-3.70507806 3.70507806,-3.70507806 z"
     id="path882" />
  <path
     d="m 4.2333334,3.4395834 c -0.4397375,0 -0.79375,0.3540125 -0.79375,0.79375 0,0.4397375 0.3540125,0.79375 0.79375,0.79375 0.4397375,0 0.79375,-0.3540125 0.79375,-0.79375 0,-0.4397375 -0.3540125,-0.79375 -0.79375,-0.79375 z m -2.1166667,0 c -0.4397375,0 -0.79375,0.3540125 -0.79375,0.79375 0,0.4397375 0.3540125,0.79375 0.79375,0.79375 0.4397375,0 0.79375,-0.3540125 0.79375,-0.79375 0,-0.4397375 -0.3540125,-0.79375 -0.79375,-0.79375 z m 4.2333334,0 c -0.4397375,0 -0.79375,0.3540125 -0.79375,0.79375 0,0.4397375 0.3540125,0.79375 0.79375,0.79375 0.4397375,0 0.79375,-0.3540125 0.79375,-0.79375 0,-0.4397375 -0.3540125,-0.79375 -0.79375,-0.79375 z"
     style="fill:#808080;stroke-width:0.396875"
     id="path1112" />
</svg>
