<?xml version="1.0" encoding="UTF-8" standalone="no"?>
<!-- Created with Inkscape (http://www.inkscape.org/) -->

<svg
   width="32"
   height="32"
   viewBox="0 0 8.4666665 8.466667"
   version="1.1"
   id="svg5"
   inkscape:version="1.1.2 (0a00cf5339, 2022-02-04, custom)"
   sodipodi:docname="preferences-desktop-color.svg"
   xmlns:inkscape="http://www.inkscape.org/namespaces/inkscape"
   xmlns:sodipodi="http://sodipodi.sourceforge.net/DTD/sodipodi-0.dtd"
   xmlns="http://www.w3.org/2000/svg"
   xmlns:svg="http://www.w3.org/2000/svg">
  <sodipodi:namedview
     id="namedview7"
     pagecolor="#ffffff"
     bordercolor="#666666"
     borderopacity="1.0"
     inkscape:pageshadow="2"
     inkscape:pageopacity="0.0"
     inkscape:pagecheckerboard="0"
     inkscape:document-units="px"
     showgrid="false"
     units="px"
     height="64px"
     inkscape:zoom="6.578125"
     inkscape:cx="-1.4441805"
     inkscape:cy="8.5130641"
     inkscape:window-width="1920"
     inkscape:window-height="1019"
     inkscape:window-x="0"
     inkscape:window-y="31"
     inkscape:window-maximized="1"
     inkscape:current-layer="svg5"
     showguides="false" />
  <defs
     id="defs2" />
  <path
     style="color:#000000;opacity:0.3;fill:#4f6698;fill-opacity:1;stroke:none;stroke-width:0.714239;stroke-linejoin:round;-inkscape-stroke:none"
     d="m 4.2333331,0.26458334 c -2.1906047,-10e-9 -3.96874986,1.77814506 -3.96874976,3.96874986 5e-7,2.1906043 1.77814546,3.9687502 3.96874976,3.9687502 2.190604,-7e-7 3.9687495,-1.7781462 3.9687502,-3.9687502 0,-2.1906044 -1.7781458,-3.96874942 -3.9687502,-3.96874986 z"
     id="path1285"
     sodipodi:nodetypes="sssss" />
  <g
     id="g1547"
     transform="matrix(0.68181814,0,0,0.68181814,-0.09621216,-0.0962121)">
    <path
       d="m 4.0583133,1.7537245 1.0583333,1e-7 1.2332605,4.5963335 -3.3713819,-3.3697999 z"
       style="fill:#ff5474;fill-opacity:1;stroke-width:0.529167;stroke-linecap:round;stroke-linejoin:round"
       id="path47268" />
    <path
       d="M 1.7737666,3.8899494 2.9785252,2.9802582 6.3499071,6.3500581 1.7523118,5.1164831 Z"
       style="fill:#e92f61;fill-opacity:1;stroke-width:0.529167;stroke-linecap:round;stroke-linejoin:round"
       id="path7876"
       sodipodi:nodetypes="ccccc" />
    <path
       d="M 1.2445999,6.357099 1.7523118,5.1164831 6.3499071,6.3500581 1.7523118,7.5836327 Z"
       style="fill:#e861e2;fill-opacity:1;stroke-width:0.529167;stroke-linecap:round;stroke-linejoin:round"
       id="path11402"
       sodipodi:nodetypes="ccccc" />
    <path
       d="M 1.7737666,8.8242486 1.7523118,7.5836327 6.3499074,6.3500581 2.9785252,9.7198573 Z"
       style="fill:#421ca8;fill-opacity:1;stroke-width:0.529167;stroke-linecap:round;stroke-linejoin:round"
       id="path14778"
       sodipodi:nodetypes="ccccc" />
    <path
       d="M 10.926047,8.8242486 10.947502,7.5836327 6.3499071,6.3500581 9.7212893,9.7198573 Z"
       style="fill:#cee834;fill-opacity:1;stroke-width:0.529167;stroke-linecap:round;stroke-linejoin:round"
       id="path38501" />
    <path
       d="M 3.9118879,10.712244 2.9785252,9.7198573 6.3499074,6.3500581 5.1166466,10.946392 Z"
       style="fill:#139dcb;fill-opacity:1;stroke-width:0.529167;stroke-linecap:round;stroke-linejoin:round"
       id="path17315"
       sodipodi:nodetypes="ccccc" />
    <path
       d="M 8.7879269,10.712244 9.7212893,9.7198573 6.3499071,6.3500581 7.5831679,10.946392 Z"
       style="fill:#32d439;fill-opacity:1;stroke-width:0.529167;stroke-linecap:round;stroke-linejoin:round"
       id="path42328" />
    <path
       d="M 6.3145297,11.409611 5.1166466,10.946392 6.3499071,6.3500581 7.5831679,10.946392 Z"
       style="fill:#3ed4f0;fill-opacity:1;stroke-width:0.529167;stroke-linecap:round;stroke-linejoin:round"
       id="path19812"
       sodipodi:nodetypes="ccccc" />
    <path
       d="M 6.3145297,1.1586105 5.1166466,1.7537246 6.3499071,6.3500582 7.5831679,1.7537246 Z"
       style="fill:#ee332c;fill-opacity:1;stroke-width:0.529167;stroke-linecap:round;stroke-linejoin:round"
       id="path22659"
       sodipodi:nodetypes="ccccc" />
    <path
       d="M 8.9818176,1.8559775 7.5831679,1.7537245 6.3499071,6.3500581 9.7212893,2.9802582 Z"
       style="fill:#fa7c1a;fill-opacity:1;stroke-width:0.529167;stroke-linecap:round;stroke-linejoin:round"
       id="path30307"
       sodipodi:nodetypes="ccccc" />
    <path
       d="m 10.758652,3.6312361 0.18885,1.485247 -4.5975949,1.233575 3.3713822,-3.3697999 z"
       style="fill:#f7ac1b;fill-opacity:1;stroke-width:0.529167;stroke-linecap:round;stroke-linejoin:round"
       id="path30427"
       sodipodi:nodetypes="ccccc" />
    <path
       d="M 11.287819,6.3500579 10.947502,7.5836327 6.3499071,6.3500581 10.947502,5.1164831 Z"
       style="fill:#ffe600;fill-opacity:1;stroke-width:0.529167;stroke-linecap:round;stroke-linejoin:round"
       id="path33822"
       sodipodi:nodetypes="ccccc" />
  </g>
  <path
     id="path1283"
     style="color:#000000;fill:#fcfcfc;fill-opacity:1;stroke:none;stroke-width:0.180691;stroke-linejoin:round;-inkscape-stroke:none"
     d="m 4.2333332,0.52916666 c -2.0457546,3.2e-7 -3.70416626,1.65841194 -3.70416656,3.70416664 3e-7,2.0457546 1.65841196,3.7041663 3.70416656,3.7041666 2.0457546,-3e-7 3.7041664,-1.658412 3.7041666,-3.7041666 -2e-7,-2.0457547 -1.658412,-3.70416632 -3.7041666,-3.70416664 z m 0,0.52916664 c 1.7535041,-10e-8 3.175,1.4214959 3.175,3.175 0,1.753504 -1.4214959,3.1749999 -3.175,3.1749999 -1.753504,0 -3.175,-1.4214959 -3.1749999,-3.1749999 -10e-8,-1.7535041 1.4214959,-3.1750001 3.1749999,-3.175 z" />
  <path
     id="path1281"
     style="opacity:0.3;fill:#4f6698;fill-opacity:1;stroke:none;stroke-width:0.352777;stroke-linecap:round;stroke-linejoin:round"
     d="m 4.2333332,1.0583333 c -1.753504,-10e-8 -3.175,1.4214959 -3.1749999,3.175 -10e-8,1.753504 1.4214959,3.1749999 3.1749999,3.1749999 1.7535041,0 3.175,-1.4214959 3.175,-3.1749999 0,-1.7535041 -1.4214959,-3.1750001 -3.175,-3.175 z m 0,0.2645833 c 1.6073787,-1e-7 2.9104166,1.3030378 2.9104166,2.9104167 0,1.6073786 -1.3030379,2.9104166 -2.9104166,2.9104166 -1.6073789,0 -2.9104167,-1.303038 -2.9104166,-2.9104166 -1e-7,-1.6073789 1.3030377,-2.9104168 2.9104166,-2.9104167 z" />
  <circle
     style="opacity:0.25;fill:#ffffff;fill-opacity:1;stroke:none;stroke-width:0.352778;stroke-linecap:round;stroke-linejoin:round"
     id="path1593"
     cx="4.2333336"
     cy="4.2333336"
     r="3.175" />
</svg>
