<?xml version="1.0" encoding="UTF-8" standalone="no"?>
<!-- Created with Inkscape (http://www.inkscape.org/) -->

<svg
   width="32"
   height="32"
   viewBox="0 0 8.4666665 8.466667"
   version="1.1"
   id="svg5"
   inkscape:version="1.1.2 (0a00cf5339, 2022-02-04, custom)"
   sodipodi:docname="preferences-desktop-user-password.svg"
   xmlns:inkscape="http://www.inkscape.org/namespaces/inkscape"
   xmlns:sodipodi="http://sodipodi.sourceforge.net/DTD/sodipodi-0.dtd"
   xmlns="http://www.w3.org/2000/svg"
   xmlns:svg="http://www.w3.org/2000/svg">
  <sodipodi:namedview
     id="namedview7"
     pagecolor="#ffffff"
     bordercolor="#666666"
     borderopacity="1.0"
     inkscape:pageshadow="2"
     inkscape:pageopacity="0.0"
     inkscape:pagecheckerboard="0"
     inkscape:document-units="px"
     showgrid="false"
     units="px"
     height="64px"
     inkscape:zoom="26.3125"
     inkscape:cx="15.980998"
     inkscape:cy="16"
     inkscape:window-width="1920"
     inkscape:window-height="1019"
     inkscape:window-x="0"
     inkscape:window-y="31"
     inkscape:window-maximized="1"
     inkscape:current-layer="svg5"
     showguides="false" />
  <defs
     id="defs2" />
  <path
     style="color:#000000;fill:#42557f;fill-opacity:0.291;stroke-width:0.264583;-inkscape-stroke:none"
     d="m 3.5015999,5.8208334 c -0.1669249,0 -0.3255571,0.1208442 -0.3250446,0.2955893 v 1.1575521 l -0.4790406,0.032556 h 0.00878 c -0.1669248,0 -0.3250447,0.1210519 -0.3250447,0.2950723 v 0.335897 H 6.0854215 V 7.6016033 C 6.0854215,7.4273416 5.92752,7.306531 5.7603769,7.306531 h 0.00878 L 5.2927052,7.2744915 V 6.115906 c 0,-0.1742792 -0.15812,-0.2950726 -0.3250448,-0.2950726 z m 0,0.2645833 h 1.4660605 c 0.046858,0 0.060462,0.024323 0.060462,0.030489 v 1.4055989 l 0.7276042,0.049609 h 0.00465 c 0.04664,0 0.060461,0.024834 0.060461,0.030489 v 0.071313 h -3.174999 v -0.071312 c 0,-0.00642 0.013602,-0.030489 0.060462,-0.030489 h 0.00413 l 0.730708,-0.049609 V 6.115906 6.1153768 c -1.67e-5,-0.0057 0.013602,-0.029973 0.060461,-0.029973 z"
     id="path12" />
  <path
     d="m 3.5597463,5.9291514 c -0.068792,0 -0.1195917,0.048683 -0.1190625,0.1076854 v 1.4152563 l -0.6733646,0.048683 h -0.00265 c -0.068792,0 -0.1190625,0.048683 -0.1190625,0.1076855 v 0.071173 h 3.1750001 v -0.071173 c 0,-0.059002 -0.050271,-0.1076855 -0.1190625,-0.1076855 h -0.00317 L 5.025538,7.4520931 V 6.0368368 c 0,-0.059002 -0.050271,-0.1076854 -0.1190625,-0.1076854 z"
     style="fill:#fafafa;stroke-width:0.264583"
     id="path2390" />
  <path
     id="rect976"
     style="opacity:0.8;fill:#252831;stroke-width:0.518025;stroke-linecap:round;stroke-linejoin:round"
     d="m 0.5291667,0.52916667 h 7.4083338 c 0.2931583,0 0.5291667,0.23600839 0.5291667,0.52916673 v 5.0270833 c 0,0.2931583 -0.2360084,0.5291667 -0.5291667,0.5291667 H 0.5291667 C 0.23600835,6.6145834 0,6.378575 0,6.0854167 V 1.0583334 C 0,0.76517506 0.23600835,0.52916667 0.5291667,0.52916667 Z" />
  <path
     id="rect1340"
     style="opacity:1;fill:#434855;stroke-width:0.529167;stroke-linecap:round;stroke-linejoin:round"
     d="M 0.5291667,0.79374996 H 7.9375 c 0.1465792,0 0.2645833,0.1180042 0.2645833,0.26458334 V 6.0854166 C 8.2020833,6.2319958 8.0840792,6.35 7.9375,6.35 H 0.5291667 C 0.38258752,6.35 0.26458335,6.2319958 0.26458335,6.0854166 V 1.0583333 c 0,-0.14657914 0.11800417,-0.26458334 0.26458335,-0.26458334 z" />
  <rect
     style="opacity:1;fill:#5294e2;fill-opacity:1;stroke-width:0.529167;stroke-linecap:round;stroke-linejoin:round"
     id="rect2097"
     width="7.4083333"
     height="5.0270834"
     x="0.5291667"
     y="1.0583333" />
  <path
     d="m 4.2333334,1.5875 c -0.4397375,0 -0.79375,0.3540126 -0.79375,0.7937501 V 3.4395835 H 2.9104167 V 5.2916668 H 5.5562501 V 3.4395835 H 5.0270834 V 2.3812501 C 5.0270834,1.9415126 4.6730709,1.5875 4.2333334,1.5875 Z m 0,0.2645834 c 0.3298031,0 0.5291667,0.1444096 0.5291667,0.5291667 V 3.4395835 H 3.7041667 V 2.3812501 c 0,-0.3847571 0.1993662,-0.5291667 0.5291667,-0.5291667 z"
     style="fill:#ffffff;stroke-width:0.264583"
     id="path858" />
</svg>
