<?xml version="1.0" encoding="UTF-8" standalone="no"?>
<svg
   width="32"
   height="32"
   version="1.0"
   id="svg10"
   sodipodi:docname="preferences-desktop-user.svg"
   inkscape:version="1.1.2 (0a00cf5339, 2022-02-04, custom)"
   xmlns:inkscape="http://www.inkscape.org/namespaces/inkscape"
   xmlns:sodipodi="http://sodipodi.sourceforge.net/DTD/sodipodi-0.dtd"
   xmlns="http://www.w3.org/2000/svg"
   xmlns:svg="http://www.w3.org/2000/svg">
  <defs
     id="defs14" />
  <sodipodi:namedview
     id="namedview12"
     pagecolor="#ffffff"
     bordercolor="#666666"
     borderopacity="1.0"
     inkscape:pageshadow="2"
     inkscape:pageopacity="0.0"
     inkscape:pagecheckerboard="0"
     showgrid="false"
     inkscape:zoom="6.296875"
     inkscape:cx="-18.342432"
     inkscape:cy="28.744417"
     inkscape:window-width="1851"
     inkscape:window-height="1009"
     inkscape:window-x="69"
     inkscape:window-y="31"
     inkscape:window-maximized="1"
     inkscape:current-layer="svg10" />
  <path
     d="m 13.052,12.5 c 0.312,1.542 0.585,2.708 0.332,4.25 C 11.412,18.46 6.17,19.23 6.177,21 L 5.5,26.313 c 0,1.76 4.701,3.187 10.5,3.187 5.799,0 10.5,-1.427 10.5,-3.187 L 25.823,21 c -0.009,-1.516 -5.281,-2.48 -7.229,-4.25 -0.166,-1.431 0.066,-2.819 0.354,-4.25 z"
     style="color:#000000;fill:#e6e6e6;stroke:none;-inkscape-stroke:none"
     id="path1301" />
  <path
     style="color:#000000;fill:#b8b8b8;stroke:none;-inkscape-stroke:none"
     d="m 12.441406,12 0.121094,0.599609 c 0.296349,1.464646 0.506727,2.521218 0.332031,3.851563 -0.883307,0.70074 -2.529276,1.327111 -4.042968,1.9375 -0.787226,0.317445 -1.524479,0.637727 -2.105469,1.02539 -0.58099,0.387664 -1.0710862,0.898456 -1.0683596,1.587891 L 5.6816406,20.9375 5,26.28125 v 0.03125 c 0,0.662585 0.4317774,1.214901 1.033203,1.646484 0.601426,0.431584 1.412606,0.787299 2.396485,1.085938 C 10.397444,29.6422 13.05949,30 16,30 c 2.94051,0 5.602556,-0.3578 7.570312,-0.955078 0.983879,-0.298639 1.795059,-0.654354 2.396485,-1.085938 C 26.568223,27.527401 27,26.975085 27,26.3125 v -0.03125 l -0.681641,-5.34375 0.0039,0.05859 c -0.002,-0.334234 -0.152204,-0.630939 -0.351563,-0.865235 -0.199359,-0.234295 -0.451159,-0.427329 -0.740234,-0.609375 -0.578152,-0.36409 -1.314437,-0.685372 -2.101563,-1.013672 -1.507065,-0.628576 -3.139262,-1.309938 -4.019531,-2.037109 -0.109624,-1.267607 0.05777,-2.52777 0.328125,-3.871094 L 19.558594,12 Z m 1.207031,1 h 4.759766 c -0.234362,1.247074 -0.46295,2.492853 -0.310547,3.806641 l 0.02148,0.1875 0.138671,0.125 c 1.106717,1.005589 2.933381,1.6656 4.484375,2.3125 0.775498,0.323449 1.481325,0.639153 1.955079,0.9375 0.236876,0.149173 0.413433,0.294647 0.511718,0.410156 0.09829,0.115509 0.113016,0.179843 0.113282,0.224609 v 0.0293 l 0.673828,5.285156 c -0.0021,0.216861 -0.155179,0.499391 -0.613282,0.828125 -0.461229,0.330979 -1.18727,0.663296 -2.103515,0.941407 C 21.446807,28.644111 18.858484,29 16,29 13.141516,29 10.553193,28.644111 8.720703,28.087891 7.804458,27.80978 7.078417,27.477463 6.617188,27.146484 6.159085,26.81775 6.006006,26.53522 6.003906,26.318359 L 6.677734,21.03125 v -0.0332 c -7.73e-4,-0.195564 0.161507,-0.443992 0.623047,-0.751953 0.46154,-0.307961 1.15493,-0.619633 1.923828,-0.929688 1.537797,-0.620109 3.362721,-1.215128 4.486328,-2.189453 l 0.136719,-0.117187 0.0293,-0.179688 C 14.108742,15.417359 13.903217,14.267961 13.648437,13 Z"
     id="path854" />
  <path
     d="m 16,2.5 c -2.485,0 -4.5,2 -4.5,4.466 0.02,0.9129996 0.093,1.9979996 0.6,4.467 0.3,0.957 2.976,3.709 3,4.028 0.582,0.319 1.5,0.319 2.1,0 0,-0.319 2.4,-3.071 2.7,-4.028 C 20.47,8.8669996 20.47,7.9229996 20.5,6.966 20.5,4.5 18.485,2.5 16,2.5 Z"
     style="color:#000000;fill:#f2f2f2;stroke:none;-inkscape-stroke:none"
     id="path1101" />
  <path
     style="color:#000000;fill:#cacaca;stroke:none;-inkscape-stroke:none"
     d="m 16,2 c -2.753274,0 -5,2.2284287 -5,4.9667969 v 0.00391 0.00586 c 0.02039,0.9309607 0.09847,2.0686338 0.609375,4.5566401 l 0.0059,0.02539 0.0078,0.02344 c 0.118005,0.376437 0.361009,0.723483 0.666015,1.136719 0.305007,0.413236 0.674106,0.862453 1.03125,1.289063 0.357145,0.426609 0.702958,0.829225 0.955079,1.138671 0.12606,0.154723 0.229539,0.287175 0.292968,0.376954 0.02078,0.02941 0.02829,0.04334 0.03906,0.06055 l 0.01367,0.185547 0.238281,0.13086 c 0.776329,0.425513 1.789519,0.42019 2.576172,0.002 l 0.263672,-0.140625 v -0.210938 c 0.0087,-0.01606 0.01468,-0.0258 0.03125,-0.05273 0.05396,-0.08773 0.1426,-0.219036 0.253906,-0.373047 0.222611,-0.308021 0.533068,-0.712665 0.853516,-1.138672 0.320447,-0.426007 0.650902,-0.875196 0.927734,-1.287109 0.276832,-0.411914 0.499869,-0.761632 0.611328,-1.117188 l 0.0059,-0.01953 0.0059,-0.02148 C 20.964301,8.9496765 20.970323,7.9291287 21,6.9824219 v -0.00781 -0.00781 C 21,4.2284287 18.753274,2 16,2 Z m 0,1 c 2.214569,0 3.994588,1.7702595 3.998047,3.9609375 -0.0299,0.9586152 -0.02953,1.8376231 -0.582031,4.3359375 -0.04267,0.128146 -0.225081,0.468604 -0.478516,0.845703 -0.257542,0.383211 -0.583339,0.820695 -0.900391,1.242188 -0.317051,0.421492 -0.626517,0.826693 -0.863281,1.154297 -0.118382,0.163801 -0.218414,0.307981 -0.296875,0.435546 -0.0095,0.01537 -0.01652,0.02995 -0.02539,0.04492 -0.407045,0.164577 -1.038223,0.168309 -1.417968,0.0039 -0.01651,-0.02501 -0.0305,-0.05023 -0.04883,-0.07617 C 15.296085,14.821741 15.183657,14.678707 15.05078,14.515618 14.785028,14.189447 14.438292,13.786124 14.085937,13.365234 13.733583,12.944345 13.375618,12.506888 13.09375,12.125 12.817137,11.750233 12.623571,11.408237 12.585937,11.298828 12.094046,8.8928649 12.01959,7.8500656 12,6.9628906 12.002162,4.7711055 13.784623,3 16,3 Z"
     id="path860" />
</svg>
