<?xml version="1.0" encoding="UTF-8" standalone="no"?>
<!-- Created with Inkscape (http://www.inkscape.org/) -->

<svg
   width="32"
   height="32"
   viewBox="0 0 8.4666665 8.466667"
   version="1.1"
   id="svg5"
   inkscape:version="1.1.2 (0a00cf5339, 2022-02-04, custom)"
   sodipodi:docname="preferences-desktop-accessibility.svg"
   xmlns:inkscape="http://www.inkscape.org/namespaces/inkscape"
   xmlns:sodipodi="http://sodipodi.sourceforge.net/DTD/sodipodi-0.dtd"
   xmlns="http://www.w3.org/2000/svg"
   xmlns:svg="http://www.w3.org/2000/svg">
  <sodipodi:namedview
     id="namedview7"
     pagecolor="#ffffff"
     bordercolor="#666666"
     borderopacity="1.0"
     inkscape:pageshadow="2"
     inkscape:pageopacity="0.0"
     inkscape:pagecheckerboard="0"
     inkscape:document-units="px"
     showgrid="false"
     units="px"
     height="64px"
     inkscape:zoom="28.066667"
     inkscape:cx="16.015439"
     inkscape:cy="15.997625"
     inkscape:window-width="1851"
     inkscape:window-height="1009"
     inkscape:window-x="69"
     inkscape:window-y="31"
     inkscape:window-maximized="1"
     inkscape:current-layer="svg5" />
  <defs
     id="defs2" />
  <path
     style="color:#000000;fill:#4ea2f3;stroke:none;stroke-width:0.264583;stroke-linejoin:round;-inkscape-stroke:none;fill-opacity:1"
     d="M 8.0697917,4.2333335 A 3.8364583,3.8364584 0 0 1 4.2333334,8.0697919 3.8364583,3.8364584 0 0 1 0.396875,4.2333335 3.8364583,3.8364584 0 0 1 4.2333334,0.396875 3.8364583,3.8364584 0 0 1 8.0697917,4.2333335 Z"
     id="path880" />
  <path
     style="color:#000000;opacity:0.35;fill:#002e99;stroke:none;stroke-linejoin:round;-inkscape-stroke:none;fill-opacity:1"
     d="m 4.2333333,0.26458334 c -2.190311,0 -3.96874996,1.77843896 -3.96874996,3.96874996 1e-7,2.1903111 1.77843896,3.9687501 3.96874996,3.9687501 2.1903111,0 3.9687501,-1.778439 3.9687501,-3.9687501 0,-2.190311 -1.778439,-3.96874996 -3.9687501,-3.96874996 z m 0,0.2636719 c 2.0473198,0 3.7031251,1.65775836 3.7031251,3.70507806 0,2.0473198 -1.6558053,3.7031251 -3.7031251,3.7031251 -2.0473197,0 -3.70507806,-1.6558053 -3.70507806,-3.7031251 0,-2.0473197 1.65775836,-3.70507806 3.70507806,-3.70507806 z"
     id="path882" />
  <path
     d="M 4.8418866,2.4278167 C 4.8401366,2.7470834 4.5801306,3.0046042 4.2608619,3.0032856 3.9415931,3.0046056 3.681586,2.7470834 3.6798369,2.4278167 c 0,-0.3177646 0.26035,-0.5757333 0.581025,-0.5757333 0.320675,0 0.5810247,0.2579687 0.5810247,0.5757333 z m 1.4499167,0.6119814 c -0.026765,0.00426 -0.052148,0.014774 -0.074083,0.030692 L 4.2333452,3.3771418 2.2595535,3.0662564 c -0.052102,-0.038252 -0.1205808,-0.046006 -0.1799168,-0.020373 -0.057219,0.029839 -0.093702,0.088415 -0.09525,0.1529292 -7.937e-4,0.061648 0.038894,0.1145645 0.09525,0.142875 L 3.626391,3.8279918 3.6158077,4.9440044 3.0699723,6.6156419 c -0.052652,0.075935 -0.036513,0.1738313 0.042333,0.2246313 0.078846,0.050535 0.1905,0.03519 0.2434167,-0.04101 l 0.8805336,-1.8041943 0.864129,1.8010188 c 0.046831,0.079111 0.1508125,0.1063625 0.2328333,0.061383 0.08135,-0.043069 0.1102625,-0.1453462 0.0635,-0.2246313 L 4.8609366,4.9540585 4.83977,3.9036627 6.40822,3.3358668 C 6.471833,3.2937928 6.49813,3.2134764 6.47172,3.1419272 6.4442033,3.0720772 6.3687971,3.0313314 6.2918033,3.0397981 Z"
     style="fill:#ffffff;stroke-width:0.264583"
     id="path875" />
</svg>
