<?xml version="1.0" encoding="UTF-8" standalone="no"?>
<!-- Created with Inkscape (http://www.inkscape.org/) -->

<svg
   width="32"
   height="32"
   viewBox="0 0 8.4666665 8.466667"
   version="1.1"
   id="svg5"
   inkscape:version="1.1.2 (0a00cf5339, 2022-02-04, custom)"
   sodipodi:docname="preferences-system-hotcorner.svg"
   xmlns:inkscape="http://www.inkscape.org/namespaces/inkscape"
   xmlns:sodipodi="http://sodipodi.sourceforge.net/DTD/sodipodi-0.dtd"
   xmlns="http://www.w3.org/2000/svg"
   xmlns:svg="http://www.w3.org/2000/svg">
  <sodipodi:namedview
     id="namedview7"
     pagecolor="#ffffff"
     bordercolor="#666666"
     borderopacity="1.0"
     inkscape:pageshadow="2"
     inkscape:pageopacity="0.0"
     inkscape:pagecheckerboard="0"
     inkscape:document-units="px"
     showgrid="false"
     units="px"
     height="64px"
     inkscape:zoom="16"
     inkscape:cx="6.78125"
     inkscape:cy="11.4375"
     inkscape:window-width="1920"
     inkscape:window-height="1019"
     inkscape:window-x="0"
     inkscape:window-y="31"
     inkscape:window-maximized="1"
     inkscape:current-layer="svg5"
     showguides="false" />
  <defs
     id="defs2" />
  <rect
     style="opacity:1;fill:#4fa4f4;stroke-width:0.529167;stroke-linecap:round;stroke-linejoin:round;fill-opacity:1"
     id="rect990"
     width="7.6729169"
     height="6.8791666"
     x="0.39687499"
     y="0.92604166"
     ry="0.39687499" />
  <g
     id="g836"
     transform="matrix(-1,0,0,1,8.4666669,0)">
    <path
       id="path4689"
       style="opacity:0.15;fill:#000000;fill-opacity:1;stroke-width:2.73789;stroke-linecap:round;stroke-linejoin:round"
       d="m 29.875,19.5 c -5.177671,0 -9.375,4.19733 -9.375,9.375 0.0012,0.208548 0.01031,0.416997 0.02539,0.625 H 29 c 0.831,0 1.5,-0.669 1.5,-1.5 V 19.525391 C 30.291996,19.510351 30.083547,19.5012 29.875,19.5 Z"
       transform="matrix(-0.26458334,0,0,0.26458334,8.4666669,0)" />
    <path
       id="path1383"
       style="opacity:0.15;fill:#000000;fill-opacity:1;stroke-width:0.507077;stroke-linecap:round;stroke-linejoin:round"
       d="m 30.0625,22.5 c -3.624366,0 -6.562503,2.938135 -6.5625,6.5625 7.94e-4,0.145985 0.007,0.291897 0.01758,0.4375 H 29 c 0.831,0 1.5,-0.669 1.5,-1.5 V 22.517578 C 30.354398,22.507098 30.208483,22.50084 30.0625,22.5 Z"
       transform="matrix(-0.26458334,0,0,0.26458334,8.4666669,0)" />
    <path
       id="path1624"
       style="opacity:0.15;fill:#000000;fill-opacity:1;stroke-width:0.0766654;stroke-linecap:round;stroke-linejoin:round"
       d="m 30.25,25.5 c -2.07107,0 -3.750002,1.67893 -3.75,3.75 4.6e-4,0.08342 0.0038,0.1668 0.0098,0.25 H 29 c 0.831,0 1.5,-0.669 1.5,-1.5 v -2.490234 c -0.0624,-0.0045 -0.124957,-0.0084 -0.1875,-0.0098 -0.02085,-4.68e-4 -0.04164,1.2e-4 -0.0625,0 z"
       transform="matrix(-0.26458334,0,0,0.26458334,8.4666669,0)" />
    <path
       d="m 7.9044273,4.762499 c 0.055178,-3.175e-4 0.1103302,-0.00249 0.1653646,-0.00646 V 2.1166667 H 5.4304181 c -0.00399,0.055034 -0.00615,0.1101863 -0.00646,0.1653646 -1.1e-6,1.3699241 1.1105426,2.4804677 2.4804681,2.4804677 z"
       style="opacity:0.15;fill:#000000;fill-opacity:1;stroke-width:0.191664;stroke-linecap:round;stroke-linejoin:round"
       id="path1744"
       sodipodi:nodetypes="sccccss" />
    <path
       d="m 7.9540367,3.9687491 c 0.038625,-2.223e-4 0.077231,-0.00174 0.1157552,-0.00452 V 2.1166667 H 6.2222305 c -0.00279,0.038524 -0.0043,0.07713 -0.00452,0.1157552 -8e-7,0.9589468 0.7773796,1.7363272 1.7363273,1.7363272 z"
       style="opacity:0.15;fill:#000000;fill-opacity:1;stroke-width:0.0354978;stroke-linecap:round;stroke-linejoin:round"
       id="path1974"
       sodipodi:nodetypes="sccccss" />
    <path
       d="m 8.0036459,3.1750004 c 0.022071,-1.269e-4 0.044132,-10e-4 0.066146,-0.00258 V 2.1166667 H 7.0140413 c -0.00159,0.022014 -0.00246,0.044074 -0.00258,0.066146 -5e-7,0.5479702 0.4442174,0.9921878 0.9921875,0.9921878 z"
       style="opacity:0.15;fill:#000000;fill-opacity:1;stroke-width:0.00536694;stroke-linecap:round;stroke-linejoin:round"
       id="path2094" />
  </g>
  <path
     id="rect1620"
     style="opacity:0.35;fill:#000000;stroke-width:2;stroke-linecap:round;stroke-linejoin:round"
     d="M 3,3.5 C 2.169,3.5 1.5,4.169 1.5,5 l 0,2.9999999 h 29 L 30.5,5 C 30.5,4.169 29.831,3.5 29,3.5 Z"
     sodipodi:nodetypes="ssccsss"
     transform="scale(0.26458334)" />
  <path
     id="rect4073"
     style="opacity:0.35;fill:#002e99;fill-opacity:1;stroke-width:2;stroke-linecap:round;stroke-linejoin:round"
     d="M 3 3 C 1.8919999 3 1 3.8919999 1 5 L 1 28 C 1 29.108 1.8919999 30 3 30 L 29 30 C 30.108 30 31 29.108 31 28 L 31 5 C 31 3.8919999 30.108 3 29 3 L 3 3 z M 3 4 L 29 4 C 29.554 4 30 4.446 30 5 L 30 28 C 30 28.554 29.554 29 29 29 L 3 29 C 2.446 29 2 28.554 2 28 L 2 5 C 2 4.446 2.446 4 3 4 z "
     transform="scale(0.26458334)" />
  <path
     id="path4418"
     style="opacity:0.5;fill:#000000;stroke-width:2;stroke-linecap:round;stroke-linejoin:round"
     d="M 3,3 C 1.8919999,3 1,3.8919998 1,5 l -4e-8,2.9999999 H 2 L 2,5 C 2,4.4459999 2.446,4 3,4 h 26 c 0.554,0 1,0.4459999 1,1 l 0,2.9999999 h 1 L 31,5 C 31,3.8919998 30.108,3 29,3 Z"
     transform="scale(0.26458334)"
     sodipodi:nodetypes="ssccssssccsss" />
</svg>
