<?xml version="1.0" encoding="UTF-8" standalone="no"?>
<!-- Created with Inkscape (http://www.inkscape.org/) -->

<svg
   width="32"
   height="32"
   viewBox="0 0 8.4666665 8.466667"
   version="1.1"
   id="svg5"
   inkscape:version="1.1.2 (0a00cf5339, 2022-02-04, custom)"
   sodipodi:docname="preferences-system-network.svg"
   xmlns:inkscape="http://www.inkscape.org/namespaces/inkscape"
   xmlns:sodipodi="http://sodipodi.sourceforge.net/DTD/sodipodi-0.dtd"
   xmlns:xlink="http://www.w3.org/1999/xlink"
   xmlns="http://www.w3.org/2000/svg"
   xmlns:svg="http://www.w3.org/2000/svg">
  <sodipodi:namedview
     id="namedview7"
     pagecolor="#ffffff"
     bordercolor="#666666"
     borderopacity="1.0"
     inkscape:pageshadow="2"
     inkscape:pageopacity="0.0"
     inkscape:pagecheckerboard="0"
     inkscape:document-units="px"
     showgrid="false"
     units="px"
     height="64px"
     inkscape:zoom="26.3125"
     inkscape:cx="15.980998"
     inkscape:cy="16"
     inkscape:window-width="1920"
     inkscape:window-height="1019"
     inkscape:window-x="0"
     inkscape:window-y="31"
     inkscape:window-maximized="1"
     inkscape:current-layer="svg5" />
  <defs
     id="defs2">
    <linearGradient
       gradientTransform="matrix(0.12097715,-0.12097715,-0.12097715,-0.12097715,3.9267952,10.169913)"
       gradientUnits="userSpaceOnUse"
       xlink:href="#linearGradient1610"
       id="l"
       y2="24.414"
       x2="2.8729999"
       y1="25.827999"
       x1="48.126999" />
    <linearGradient
       inkscape:collect="always"
       id="linearGradient1610">
      <stop
         style="stop-color:#ffffff;stop-opacity:1;"
         offset="0"
         id="stop1606" />
      <stop
         style="stop-color:#ffffff;stop-opacity:0;"
         offset="1"
         id="stop1608" />
    </linearGradient>
    <linearGradient
       gradientTransform="matrix(0,0.17108753,0.17108753,0,0.32622988,-0.07583156)"
       gradientUnits="userSpaceOnUse"
       xlink:href="#linearGradient1610"
       id="j"
       y2="23"
       x2="47.5"
       y1="23"
       x1="3.5" />
    <linearGradient
       gradientTransform="matrix(0.17108753,0,0,-0.17108753,-0.10186602,8.2220312)"
       gradientUnits="userSpaceOnUse"
       xlink:href="#linearGradient1610"
       id="m"
       y2="23"
       x2="47.5"
       y1="23"
       x1="4.4899998" />
    <linearGradient
       gradientTransform="matrix(0.12097715,0.12097715,-0.12097715,0.12097715,3.9586381,-1.5806299)"
       gradientUnits="userSpaceOnUse"
       xlink:href="#linearGradient1610"
       id="k"
       y2="27.243"
       x2="4.2870002"
       y1="23.707001"
       x1="46.006001" />
  </defs>
  <path
     style="color:#000000;fill:#5294e2;stroke:none;stroke-width:0.264583;stroke-linejoin:round;-inkscape-stroke:none;fill-opacity:1"
     d="M 8.0697917,4.2333335 A 3.8364583,3.8364584 0 0 1 4.2333334,8.0697919 3.8364583,3.8364584 0 0 1 0.396875,4.2333335 3.8364583,3.8364584 0 0 1 4.2333334,0.396875 3.8364583,3.8364584 0 0 1 8.0697917,4.2333335 Z"
     id="path880" />
  <path
     style="color:#000000;opacity:0.8;fill:url(#j);fill-opacity:1;stroke-width:0.264583;stroke-linecap:round;stroke-linejoin:round;-inkscape-stroke:none"
     d="M 4.256388,0.4762629 A 0.13229167,0.13229167 0 0 0 4.1246131,0.60907136 0.13229167,0.13229167 0 0 0 4.2579382,0.74084627 C 4.6251627,0.73896727 4.9454178,1.0217022 5.203617,1.5258113 5.4618162,2.0299204 5.6401187,2.7374789 5.7152135,3.497784 5.8654037,5.0183942 5.5878415,6.7502374 4.8532507,7.5280291 a 0.13229167,0.13229167 0 0 0 0.00568,0.1870686 0.13229167,0.13229167 0 0 0 0.1865519,-0.00517 C 5.8871234,6.8187978 6.1337905,5.041011 5.9787634,3.4714291 5.90125,2.686638 5.7198011,1.9541405 5.4387448,1.4054052 5.1576885,0.85666993 4.7592567,0.47368917 4.256388,0.4762629 Z"
     id="path105" />
  <path
     id="path107"
     style="fill:#ffffff;fill-opacity:1;stroke-width:0.264583;marker:none"
     d="m 1.4126338,2.0477433 a 0.34210626,0.34210626 0 0 0 -0.3167765,0.3410644 0.34210626,0.34210626 0 0 0 0.6841959,0 A 0.34210626,0.34210626 0 0 0 1.4126338,2.0477433 Z M 7.4324212,3.15982 a 0.34223855,0.34223855 0 0 0 -0.31626,0.3410646 0.34223855,0.34223855 0 1 0 0.684197,0 A 0.34223855,0.34223855 0 0 0 7.4324212,3.15982 Z M 1.4064326,5.5911965 a 0.34223855,0.34223855 0 0 0 0,0.6841958 0.34223855,0.34223855 0 0 0 0,-0.6841958 z m 3.5563721,1.5787148 a 0.34210626,0.34210626 0 0 0 -0.3167764,0.3410646 0.34210626,0.34210626 0 0 0 0.6841958,0 0.34210626,0.34210626 0 0 0 -0.3674194,-0.3410646 z" />
  <path
     style="color:#000000;opacity:0.8;fill:url(#k);fill-opacity:1;stroke-width:0.264583;stroke-linecap:round;stroke-linejoin:round;-inkscape-stroke:none"
     d="M 1.4307205,2.13611 A 0.13229167,0.13229167 0 0 0 1.2891271,2.2585831 c -0.042985,0.6007234 0.2118528,1.2678664 0.6237346,1.9187461 0.4118817,0.6508795 0.985314,1.2866011 1.60507,1.8128092 0.619756,0.5262081 1.2844148,0.9429864 1.8903239,1.1508341 0.6059091,0.2078479 1.1793826,0.2077355 1.5471926,-0.15968 a 0.13229167,0.13229167 0 0 0 0,-0.1870689 0.13229167,0.13229167 0 0 0 -0.187069,0 C 6.4984002,7.0639136 6.0527269,7.082508 5.4940385,6.8908587 4.9353502,6.699209 4.2898758,6.2982774 3.6889806,5.7880835 3.0880856,5.2778896 2.5306886,4.6584648 2.1366206,4.0357356 1.7425526,3.4130064 1.516672,2.7880979 1.5531937,2.2777034 A 0.13229167,0.13229167 0 0 0 1.4307205,2.13611 Z"
     id="path109" />
  <path
     style="color:#000000;opacity:0.8;fill:url(#l);fill-opacity:1;stroke-width:0.264583;stroke-linecap:round;stroke-linejoin:round;-inkscape-stroke:none"
     d="M 6.4381672,1.3454605 C 6.212662,1.295154 5.9562659,1.3070146 5.6893754,1.3676814 5.1555946,1.4890149 4.554143,1.7980044 3.9649328,2.2234432 2.7865128,3.0743204 1.6553492,4.3890073 1.3284012,5.6697444 a 0.13229167,0.13229167 0 0 0 0.095601,0.1607137 0.13229167,0.13229167 0 0 0 0.1612305,-0.095085 C 1.8861947,4.5564317 2.9822544,3.2593814 4.1199623,2.4379004 4.6888159,2.0271599 5.2677359,1.7346631 5.7477697,1.6255468 6.2278042,1.5164305 6.5822202,1.5824836 6.7895662,1.8555069 a 0.13229167,0.13229167 0 0 0 0.185519,0.025322 0.13229167,0.13229167 0 0 0 0.02532,-0.1850017 C 6.8580642,1.5083989 6.6636712,1.3957671 6.4381662,1.3454605 Z"
     id="path113" />
  <path
     style="color:#000000;fill:url(#m);fill-opacity:1;stroke-width:0.264583;stroke-linecap:round;stroke-linejoin:round;-inkscape-stroke:none"
     d="M 4.3183998,2.5242 C 3.9255805,2.5245095 3.5342631,2.5516529 3.1592972,2.6027482 2.4093655,2.7049388 1.7261768,2.9040825 1.2286657,3.1949601 0.73115468,3.4858378 0.40377488,3.8920031 0.45506958,4.3768002 a 0.13229167,0.13229167 0 0 0 0.1452108,0.1178221 0.13229167,0.13229167 0 0 0 0.1178222,-0.1457274 C 0.68066598,3.9950729 0.91089408,3.6871108 1.3619909,3.4233699 1.8130878,3.159629 2.469761,2.9635672 3.194954,2.8647477 4.6453398,2.6671087 6.3716052,2.8640598 7.3166662,3.5427425 a 0.13229167,0.13229167 0 0 0 0.185002,-0.030489 0.13229167,0.13229167 0 0 0 -0.03049,-0.184485 C 6.6864392,2.7642267 5.4968574,2.5232721 4.3183998,2.5242 Z"
     id="path117" />
  <path
     style="color:#000000;opacity:0.35;fill:#002e99;fill-opacity:1;stroke:none;stroke-linejoin:round;-inkscape-stroke:none"
     d="m 4.2333333,8.2020834 c -2.190311,0 -3.96874996,-1.778439 -3.96874996,-3.96875 1e-7,-2.1903111 1.77843896,-3.96875006 3.96874996,-3.96875006 2.1903111,0 3.9687501,1.77843896 3.9687501,3.96875006 0,2.190311 -1.778439,3.96875 -3.9687501,3.96875 z m 0,-0.2636719 c 2.0473198,0 3.7031251,-1.6577584 3.7031251,-3.7050781 0,-2.0473198 -1.6558053,-3.70312506 -3.7031251,-3.70312506 -2.0473197,0 -3.70507806,1.65580526 -3.70507806,3.70312506 0,2.0473197 1.65775836,3.7050781 3.70507806,3.7050781 z"
     id="path882" />
</svg>
