<?xml version="1.0" encoding="UTF-8" standalone="no"?>
<!-- Created with Inkscape (http://www.inkscape.org/) -->

<svg
   width="32"
   height="32"
   viewBox="0 0 8.4666665 8.466667"
   version="1.1"
   id="svg5"
   inkscape:version="1.1.2 (0a00cf5339, 2022-02-04, custom)"
   sodipodi:docname="preferences-desktop-display.svg"
   xmlns:inkscape="http://www.inkscape.org/namespaces/inkscape"
   xmlns:sodipodi="http://sodipodi.sourceforge.net/DTD/sodipodi-0.dtd"
   xmlns="http://www.w3.org/2000/svg"
   xmlns:svg="http://www.w3.org/2000/svg">
  <sodipodi:namedview
     id="namedview7"
     pagecolor="#ffffff"
     bordercolor="#666666"
     borderopacity="1.0"
     inkscape:pageshadow="2"
     inkscape:pageopacity="0.0"
     inkscape:pagecheckerboard="0"
     inkscape:document-units="px"
     showgrid="false"
     units="px"
     height="64px"
     inkscape:zoom="26.3125"
     inkscape:cx="15.980998"
     inkscape:cy="16"
     inkscape:window-width="1920"
     inkscape:window-height="1019"
     inkscape:window-x="0"
     inkscape:window-y="31"
     inkscape:window-maximized="1"
     inkscape:current-layer="svg5"
     showguides="false" />
  <defs
     id="defs2" />
  <path
     id="rect976"
     style="opacity:0.8;fill:#000000;stroke-width:0.518025;stroke-linecap:round;stroke-linejoin:round"
     d="M 0.79375004,0.79375001 H 7.6729171 c 0.2931583,0 0.5291667,0.23600839 0.5291667,0.52916679 v 5.8208333 c 0,0.2931583 -0.2360084,0.5291667 -0.5291667,0.5291667 H 0.79375004 c -0.29315835,0 -0.5291667,-0.2360084 -0.5291667,-0.5291667 V 1.3229168 c 0,-0.2931584 0.23600835,-0.52916679 0.5291667,-0.52916679 z"
     sodipodi:nodetypes="sssssssss" />
  <path
     id="rect1340"
     style="opacity:1;fill:#4d4d4d;fill-opacity:1;stroke-width:0.529167;stroke-linecap:round;stroke-linejoin:round"
     d="M 0.79375004,1.0583333 H 7.6729166 c 0.1465792,0 0.2645833,0.1180042 0.2645833,0.2645834 V 7.14375 c 0,0.1465792 -0.1180041,0.2645834 -0.2645833,0.2645834 H 0.79375004 c -0.14657918,0 -0.26458335,-0.1180042 -0.26458335,-0.2645834 V 1.3229167 c 0,-0.1465792 0.11800417,-0.2645834 0.26458335,-0.2645834 z"
     sodipodi:nodetypes="sssssssss" />
  <path
     d="M 2.778125,1.5875 2.1166667,2.6458334 h 0.5291666 v 2.3812501 h -0.79375 V 4.4979168 L 0.79375001,5.1593751 1.8520833,5.8208335 V 5.2916668 h 0.79375 v 0.79375 H 2.1166667 L 2.778125,7.1437502 3.4395836,6.0854168 H 2.9104167 v -0.79375 H 6.3500001 V 5.8208335 L 7.4083335,5.1593751 6.3500001,4.4979168 V 5.0270835 H 2.9104167 V 2.6458334 h 0.5291669 z"
     style="color:#000000;overflow:visible;fill:#f2f2f2;stroke-width:0.264583;marker:none"
     id="path894" />
</svg>
