<?xml version="1.0" encoding="UTF-8" standalone="no"?>
<svg
   width="32"
   height="32"
   version="1.0"
   id="svg10"
   sodipodi:docname="system-users.svg"
   inkscape:version="1.1.2 (0a00cf5339, 2022-02-04, custom)"
   xmlns:inkscape="http://www.inkscape.org/namespaces/inkscape"
   xmlns:sodipodi="http://sodipodi.sourceforge.net/DTD/sodipodi-0.dtd"
   xmlns="http://www.w3.org/2000/svg"
   xmlns:svg="http://www.w3.org/2000/svg">
  <defs
     id="defs14" />
  <sodipodi:namedview
     id="namedview12"
     pagecolor="#ffffff"
     bordercolor="#666666"
     borderopacity="1.0"
     inkscape:pageshadow="2"
     inkscape:pageopacity="0.0"
     inkscape:pagecheckerboard="0"
     showgrid="false"
     inkscape:zoom="25.1875"
     inkscape:cx="15.980149"
     inkscape:cy="16"
     inkscape:window-width="1851"
     inkscape:window-height="1009"
     inkscape:window-x="69"
     inkscape:window-y="31"
     inkscape:window-maximized="1"
     inkscape:current-layer="svg10" />
  <path
     d="M 7.554,13.5 C 7.792,14.679 7.7,15.57 7.507,16.75 6.005,18.058 2.01,18.646 2.017,20 L 1.5,24.063 C 1.5,25.409 5.082,26.5 9.4999998,26.5 13.918,26.5 17.5,25.409 17.5,24.063 L 16.984,20 c -0.006,-1.159 -4.024,-1.896 -5.508,-3.25 -0.126,-1.094 -0.15,-2.156 0.07,-3.25 z"
     style="color:#000000;fill:#f5f5f5;-inkscape-stroke:none;stroke:none"
     id="path1501" />
  <path
     style="color:#000000;fill:#dbdbdb;-inkscape-stroke:none;stroke:none"
     d="m 6.9433594,13 0.1210937,0.599609 c 0.2073282,1.027059 0.1147366,1.813716 -0.046875,2.84961 -0.6511401,0.504015 -1.8664883,0.982698 -3.0097656,1.445312 -0.6020023,0.243594 -1.1681711,0.488883 -1.625,0.794922 -0.4568289,0.306039 -0.8682564,0.727947 -0.8652344,1.3125 L 1.5214844,19.9375 1,24.03125 v 0.03125 c 0,0.558268 0.3609975,1.013424 0.8359375,1.355469 0.47494,0.342045 1.1035461,0.614874 1.8613281,0.845703 C 5.2128297,26.725329 7.2498449,27 9.5,27 c 2.250155,0 4.28717,-0.274671 5.802734,-0.736328 0.757782,-0.230829 1.386388,-0.503658 1.861328,-0.845703 C 17.639003,25.075924 18,24.620768 18,24.0625 v -0.03125 l -0.519531,-4.09375 0.0039,0.06055 c -0.0015,-0.289181 -0.1331,-0.545062 -0.296875,-0.738281 -0.163775,-0.19322 -0.365316,-0.345157 -0.591797,-0.488282 -0.452962,-0.286249 -1.017949,-0.533534 -1.61914,-0.785156 -1.139925,-0.477103 -2.351359,-0.995337 -3,-1.521484 -0.09894,-0.978148 -0.130511,-1.917109 0.06055,-2.867188 L 12.15625,13 Z m 1.09375,1 h 3.0058596 c -0.121046,0.947159 -0.171122,1.88049 -0.06445,2.806641 l 0.02148,0.1875 0.138672,0.125 c 0.87461,0.797993 2.274011,1.29751 3.453125,1.791015 0.589557,0.246753 1.122228,0.486813 1.470703,0.707031 0.174237,0.11011 0.300377,0.214849 0.363281,0.289063 0.06291,0.07421 0.05859,0.09513 0.05859,0.0957 v 0.03125 l 0.511719,4.033203 c -0.0014,0.11496 -0.08589,0.299905 -0.417969,0.539063 -0.334747,0.241079 -0.87644,0.492954 -1.566406,0.703125 C 13.631786,25.728936 11.66784,26 9.5,26 7.3321596,26 5.3682143,25.728936 3.9882813,25.308594 3.2983147,25.098423 2.7566217,24.846548 2.421875,24.605469 2.0897968,24.366311 2.0052794,24.181366 2.0039063,24.066406 L 2.5175781,20.03125 v -0.0332 c -4.779e-4,-0.09245 0.084673,-0.252618 0.421875,-0.478516 0.3372016,-0.225898 0.8597378,-0.463063 1.4433594,-0.699219 1.1672431,-0.472311 2.5645427,-0.919547 3.453125,-1.693359 L 7.9707031,17.007812 8,16.830078 C 8.1612268,15.844339 8.1500938,14.967437 8.0371094,14 Z"
     id="path986" />
  <path
     d="m 9.5,6.5000004 c -1.657,0 -3,1.363 -3,3.045 C 6.513,10.168 6.562,10.907 6.9,12.59 c 0.2,0.653 1.984,2.83 2,3.047 0.388,0.218 1,0.218 1.4,0 0,-0.218 1.6,-2.394 1.8,-3.047 0.38,-1.75 0.38,-2.392 0.4,-3.0449996 0,-1.682 -1.343,-3.045 -3,-3.045 z"
     style="color:#000000;fill:#ffffff;-inkscape-stroke:none;stroke:none"
     id="path1701" />
  <path
     style="color:#000000;fill:#e5e5e5;-inkscape-stroke:none;stroke:none"
     d="M 9.5,6 C 7.5688116,6 6,7.5967724 6,9.5449219 v 0.00586 0.00391 C 6.013375,10.195646 6.06843,10.98595 6.4101562,12.687504 l 0.00391,0.02539 0.00781,0.02344 c 0.088173,0.287884 0.2509361,0.535313 0.4550781,0.847656 0.2041421,0.312344 0.4493822,0.657595 0.6875,0.986329 0.2381178,0.328733 0.4694038,0.641624 0.6367188,0.878906 0.083657,0.118641 0.1504624,0.219286 0.1914062,0.285156 0.0084,0.01351 0.0098,0.01538 0.015625,0.02539 l 0.013672,0.18164 0.2324219,0.13086 c 0.5837472,0.327981 1.2965989,0.324457 1.8847658,0.0039 l 0.261718,-0.142578 v -0.208985 c 0.0037,-0.0072 0.0032,-0.0071 0.0078,-0.01563 0.03471,-0.0642 0.09416,-0.165175 0.167969,-0.283203 0.147619,-0.236055 0.354842,-0.548953 0.568359,-0.876953 0.213517,-0.327999 0.434141,-0.671639 0.619141,-0.982422 0.184999,-0.310782 0.332166,-0.562686 0.414062,-0.830078 l 0.0059,-0.01953 0.0039,-0.02148 C 12.973271,10.920534 12.980307,10.203523 13,9.5605469 v -0.00781 -0.00781 C 13,7.5967724 11.431188,6 9.5,6 Z m 0,1 c 1.381261,0 2.495551,1.1273944 2.498047,2.5410156 -0.01982,0.6530634 -0.02081,1.2353754 -0.382813,2.9140624 -0.02183,0.0656 -0.142555,0.317399 -0.310546,0.59961 -0.171251,0.287685 -0.388127,0.624343 -0.59961,0.949218 -0.211483,0.324875 -0.417541,0.638916 -0.576172,0.892578 -0.07095,0.113453 -0.127292,0.209884 -0.1777341,0.300782 -0.2137225,0.06777 -0.5174266,0.07132 -0.7128906,0.0039 -0.059917,-0.096 -0.1332924,-0.204155 -0.2207032,-0.328119 C 8.8396434,14.620704 8.6079286,14.308641 8.3730469,13.984375 8.1381652,13.660109 7.8999982,13.32339 7.7128906,13.037109 7.5296403,12.756731 7.4032916,12.502114 7.3867187,12.455078 7.0646188,10.839701 7.0125939,10.139303 7,9.5429688 7.0010382,8.1280466 8.1178346,7 9.5,7 Z"
     id="path980" />
  <path
     d="m 17.052,12.5 c 0.312,1.542 0.585,2.708 0.332,4.25 -1.972,1.71 -7.214,2.48 -7.207,4.25 L 9.5,26.313 c 0,1.76 4.701,3.187 10.5,3.187 5.799,0 10.5,-1.427 10.5,-3.187 L 29.823,21 c -0.009,-1.516 -5.281,-2.48 -7.229,-4.25 -0.166,-1.431 0.066,-2.819 0.354,-4.25 z"
     style="color:#000000;fill:#e6e6e6;-inkscape-stroke:none;stroke:none"
     id="path1301" />
  <path
     style="color:#000000;fill:#b8b8b8;-inkscape-stroke:none;stroke:none"
     d="m 16.441406,12 0.121094,0.599609 c 0.296349,1.464646 0.506727,2.521218 0.332031,3.851563 -0.883307,0.70074 -2.529276,1.327111 -4.042968,1.9375 -0.787226,0.317445 -1.524479,0.637727 -2.105469,1.02539 -0.58099,0.387664 -1.0710862,0.898456 -1.0683596,1.587891 L 9.6816406,20.9375 9,26.28125 v 0.03125 c 0,0.662585 0.4317774,1.214901 1.033203,1.646484 0.601426,0.431584 1.412606,0.787299 2.396485,1.085938 C 14.397444,29.6422 17.05949,30 20,30 c 2.94051,0 5.602556,-0.3578 7.570312,-0.955078 0.983879,-0.298639 1.795059,-0.654354 2.396485,-1.085938 C 30.568223,27.527401 31,26.975085 31,26.3125 v -0.03125 l -0.681641,-5.34375 0.0039,0.05859 c -0.002,-0.334234 -0.152204,-0.630939 -0.351563,-0.865235 -0.199359,-0.234295 -0.451159,-0.427329 -0.740234,-0.609375 -0.578152,-0.36409 -1.314437,-0.685372 -2.101563,-1.013672 -1.507065,-0.628576 -3.139262,-1.309938 -4.019531,-2.037109 -0.109624,-1.267607 0.05777,-2.52777 0.328125,-3.871094 L 23.558594,12 Z m 1.207031,1 h 4.759766 c -0.234362,1.247074 -0.46295,2.492853 -0.310547,3.806641 l 0.02148,0.1875 0.138671,0.125 c 1.106717,1.005589 2.933381,1.6656 4.484375,2.3125 0.775498,0.323449 1.481325,0.639153 1.955079,0.9375 0.236876,0.149173 0.413433,0.294647 0.511718,0.410156 0.09829,0.115509 0.113016,0.179843 0.113282,0.224609 v 0.0293 l 0.673828,5.285156 c -0.0021,0.216861 -0.155179,0.499391 -0.613282,0.828125 -0.461229,0.330979 -1.18727,0.663296 -2.103515,0.941407 C 25.446807,28.644111 22.858484,29 20,29 17.141516,29 14.553193,28.644111 12.720703,28.087891 11.804458,27.80978 11.078417,27.477463 10.617188,27.146484 10.159085,26.81775 10.006006,26.53522 10.003906,26.318359 l 0.673828,-5.287109 v -0.0332 c -7.73e-4,-0.195564 0.161507,-0.443992 0.623047,-0.751953 0.46154,-0.307961 1.15493,-0.619633 1.923828,-0.929688 1.537797,-0.620109 3.362721,-1.215128 4.486328,-2.189453 l 0.136719,-0.117187 0.0293,-0.179688 C 18.108742,15.417359 17.903217,14.267961 17.648437,13 Z"
     id="path854" />
  <path
     d="m 20,2.5 c -2.485,0 -4.5,2 -4.5,4.466 0.02,0.9129996 0.093,1.9979996 0.6,4.467 0.3,0.957 2.976,3.709 3,4.028 0.582,0.319 1.5,0.319 2.1,0 0,-0.319 2.4,-3.071 2.7,-4.028 C 24.47,8.8669996 24.47,7.9229996 24.5,6.966 24.5,4.5 22.485,2.5 20,2.5 Z"
     style="color:#000000;fill:#f2f2f2;-inkscape-stroke:none;stroke:none"
     id="path1101" />
  <path
     style="color:#000000;fill:#cacaca;-inkscape-stroke:none;stroke:none"
     d="m 20,2 c -2.753274,0 -5,2.2284287 -5,4.9667969 v 0.00391 0.00586 c 0.02039,0.9309607 0.09847,2.0686338 0.609375,4.5566401 l 0.0059,0.02539 0.0078,0.02344 c 0.118005,0.376437 0.361009,0.723483 0.666015,1.136719 0.305007,0.413236 0.674106,0.862453 1.03125,1.289063 0.357145,0.426609 0.702958,0.829225 0.955079,1.138671 0.12606,0.154723 0.229539,0.287175 0.292968,0.376954 0.02078,0.02941 0.02829,0.04334 0.03906,0.06055 l 0.01367,0.185547 0.238281,0.13086 c 0.776329,0.425513 1.789519,0.42019 2.576172,0.002 l 0.263672,-0.140625 v -0.210938 c 0.0087,-0.01606 0.01468,-0.0258 0.03125,-0.05273 0.05396,-0.08773 0.1426,-0.219036 0.253906,-0.373047 0.222611,-0.308021 0.533068,-0.712665 0.853516,-1.138672 0.320447,-0.426007 0.650902,-0.875196 0.927734,-1.287109 0.276832,-0.411914 0.499869,-0.761632 0.611328,-1.117188 l 0.0059,-0.01953 0.0059,-0.02148 C 24.964301,8.9496765 24.970323,7.9291287 25,6.9824219 v -0.00781 -0.00781 C 25,4.2284287 22.753274,2 20,2 Z m 0,1 c 2.214569,0 3.994588,1.7702595 3.998047,3.9609375 -0.0299,0.9586152 -0.02953,1.8376231 -0.582031,4.3359375 -0.04267,0.128146 -0.225081,0.468604 -0.478516,0.845703 -0.257542,0.383211 -0.583339,0.820695 -0.900391,1.242188 -0.317051,0.421492 -0.626517,0.826693 -0.863281,1.154297 -0.118382,0.163801 -0.218414,0.307981 -0.296875,0.435546 -0.0095,0.01537 -0.01652,0.02995 -0.02539,0.04492 -0.407045,0.164577 -1.038223,0.168309 -1.417968,0.0039 -0.01651,-0.02501 -0.0305,-0.05023 -0.04883,-0.07617 C 19.296085,14.821741 19.183657,14.678707 19.05078,14.515618 18.785028,14.189447 18.438292,13.786124 18.085937,13.365234 17.733583,12.944345 17.375618,12.506888 17.09375,12.125 16.817137,11.750233 16.623571,11.408237 16.585937,11.298828 16.094046,8.8928649 16.01959,7.8500656 16,6.9628906 16.002162,4.7711055 17.784623,3 20,3 Z"
     id="path860" />
</svg>
