<?xml version="1.0" encoding="UTF-8" standalone="no"?>
<!-- Created with Inkscape (http://www.inkscape.org/) -->

<svg
   width="32"
   height="32"
   viewBox="0 0 8.4666665 8.466667"
   version="1.1"
   id="svg5"
   inkscape:version="1.1.2 (0a00cf5339, 2022-02-04, custom)"
   sodipodi:docname="dialog-question.svg"
   xmlns:inkscape="http://www.inkscape.org/namespaces/inkscape"
   xmlns:sodipodi="http://sodipodi.sourceforge.net/DTD/sodipodi-0.dtd"
   xmlns="http://www.w3.org/2000/svg"
   xmlns:svg="http://www.w3.org/2000/svg">
  <sodipodi:namedview
     id="namedview7"
     pagecolor="#ffffff"
     bordercolor="#666666"
     borderopacity="1.0"
     inkscape:pageshadow="2"
     inkscape:pageopacity="0.0"
     inkscape:pagecheckerboard="0"
     inkscape:document-units="px"
     showgrid="false"
     units="px"
     height="64px"
     inkscape:zoom="28.066667"
     inkscape:cx="16.015439"
     inkscape:cy="15.997625"
     inkscape:window-width="1920"
     inkscape:window-height="1019"
     inkscape:window-x="0"
     inkscape:window-y="31"
     inkscape:window-maximized="1"
     inkscape:current-layer="svg5" />
  <defs
     id="defs2" />
  <path
     style="color:#000000;fill:#58adf8;stroke:none;stroke-width:0.264583;stroke-linejoin:round;-inkscape-stroke:none;fill-opacity:1"
     d="M 8.0697917,4.2333335 A 3.8364583,3.8364584 0 0 1 4.2333334,8.0697919 3.8364583,3.8364584 0 0 1 0.396875,4.2333335 3.8364583,3.8364584 0 0 1 4.2333334,0.396875 3.8364583,3.8364584 0 0 1 8.0697917,4.2333335 Z"
     id="path880" />
  <path
     style="color:#000000;opacity:0.35;fill:#002e99;stroke:none;stroke-linejoin:round;-inkscape-stroke:none;fill-opacity:1"
     d="m 4.2333333,0.26458334 c -2.190311,0 -3.96874996,1.77843896 -3.96874996,3.96874996 1e-7,2.1903111 1.77843896,3.9687501 3.96874996,3.9687501 2.1903111,0 3.9687501,-1.778439 3.9687501,-3.9687501 0,-2.190311 -1.778439,-3.96874996 -3.9687501,-3.96874996 z m 0,0.2636719 c 2.0473198,0 3.7031251,1.65775836 3.7031251,3.70507806 0,2.0473198 -1.6558053,3.7031251 -3.7031251,3.7031251 -2.0473197,0 -3.70507806,-1.6558053 -3.70507806,-3.7031251 0,-2.0473197 1.65775836,-3.70507806 3.70507806,-3.70507806 z"
     id="path882" />
  <path
     d="m 3.9110293,4.9790425 c 0,-0.2390093 0.045411,-0.4373869 0.1362354,-0.5951331 C 4.1380882,4.2261632 4.3006144,4.0373457 4.5348433,3.8174571 4.7260512,3.6453705 4.8622864,3.4995748 4.9435496,3.3800702 5.0295927,3.2557851 5.0726148,3.1075994 5.0726148,2.9355129 5.0726148,2.7060637 4.9985217,2.5220264 4.8503364,2.3834011 4.7021501,2.2399956 4.4966022,2.1682928 4.2336921,2.1682928 c -0.2390095,0 -0.4302169,0.069313 -0.5736226,0.2079381 C 3.5214441,2.510076 3.41628,2.6773827 3.3445772,2.8781504 L 2.778125,2.6415312 C 2.8832892,2.3642803 3.0553759,2.1204909 3.2943853,1.9101627 3.5333946,1.6950541 3.8441067,1.5875 4.2265216,1.5875 c 0.2868112,0 0.5401612,0.059752 0.7600496,0.1792571 0.2246689,0.1147245 0.3967557,0.2748607 0.51626,0.4804088 0.1242849,0.2055479 0.1864271,0.4349968 0.1864271,0.688347 0,0.26291 -0.066921,0.4875789 -0.2007679,0.6740061 C 5.3594262,3.7911662 5.1921196,3.9752033 4.9865712,4.1616307 4.8288254,4.3050363 4.7141006,4.4412715 4.642398,4.5703367 4.5706951,4.6994018 4.5348433,4.8499778 4.5348433,5.0220646 V 5.323216 h -0.623814 z m 0.3083223,1.9001242 c -0.124285,0 -0.2318392,-0.043022 -0.3226629,-0.1290652 -0.086043,-0.090823 -0.129065,-0.200767 -0.129065,-0.3298328 0,-0.1242853 0.043021,-0.229449 0.129065,-0.3154921 0.090824,-0.090824 0.1983779,-0.1362353 0.3226629,-0.1362353 0.129065,0 0.236619,0.045411 0.3226623,0.1362353 0.090823,0.086043 0.1362351,0.1912068 0.1362351,0.3154921 0,0.1290658 -0.045411,0.2390094 -0.1362351,0.3298328 -0.086043,0.086044 -0.1935973,0.1290652 -0.3226623,0.1290652 z"
     style="font-size:12.1895px;line-height:1.25;font-family:'Google Sans';-inkscape-font-specification:'Google Sans';fill:#f2f2f2;fill-opacity:1;stroke-width:0.0474283"
     id="path43341" />
</svg>
