<?xml version="1.0" encoding="UTF-8" standalone="no"?>
<!-- Created with Inkscape (http://www.inkscape.org/) -->

<svg
   width="32"
   height="32"
   viewBox="0 0 8.4666665 8.466667"
   version="1.1"
   id="svg5"
   inkscape:version="1.1.2 (0a00cf5339, 2022-02-04, custom)"
   sodipodi:docname="system-software-install.svg"
   xmlns:inkscape="http://www.inkscape.org/namespaces/inkscape"
   xmlns:sodipodi="http://sodipodi.sourceforge.net/DTD/sodipodi-0.dtd"
   xmlns="http://www.w3.org/2000/svg"
   xmlns:svg="http://www.w3.org/2000/svg">
  <sodipodi:namedview
     id="namedview7"
     pagecolor="#ffffff"
     bordercolor="#666666"
     borderopacity="1.0"
     inkscape:pageshadow="2"
     inkscape:pageopacity="0.0"
     inkscape:pagecheckerboard="0"
     inkscape:document-units="px"
     showgrid="false"
     units="px"
     height="64px"
     inkscape:zoom="9.3028736"
     inkscape:cx="9.1907086"
     inkscape:cy="10.964354"
     inkscape:window-width="1920"
     inkscape:window-height="1019"
     inkscape:window-x="0"
     inkscape:window-y="31"
     inkscape:window-maximized="1"
     inkscape:current-layer="svg5"
     showguides="false" />
  <defs
     id="defs2" />
  <rect
     style="opacity:0.6;fill:#003ac8;fill-opacity:1;stroke-width:0.529167;stroke-linecap:round;stroke-linejoin:round"
     id="rect967"
     width="7.4083333"
     height="7.4083333"
     x="0.5291667"
     y="0.5291667"
     ry="0.79374999" />
  <rect
     style="fill:#7cb2ff;fill-opacity:1;stroke-width:0.529167;stroke-linecap:round;stroke-linejoin:round"
     id="rect1071"
     width="6.8791666"
     height="6.8791666"
     x="0.79375005"
     y="0.79375005"
     ry="0.5291667" />
  <path
     id="path1077"
     style="opacity:0.1;fill:#0000ff;stroke-width:0.999999"
     d="M 5 3 C 3.8919999 3 3 3.8919999 3 5 L 3 14.699219 C 6.608217 20.720926 13.320884 24.512303 20.667969 24.521484 C 23.544427 24.520156 26.382312 23.933894 29 22.808594 L 29 5 C 29 3.8919999 28.108 3 27 3 L 5 3 z "
     transform="scale(0.26458334)" />
  <path
     d="m 2.38125,1.5875 c 0,1.0116257 0.8200848,1.8317104 1.8317105,1.8317104 1.0116257,0 1.8317105,-0.8200847 1.8317105,-1.8317104 H 5.5866772 C 5.5868232,2.3462861 4.9717466,2.9614813 4.2129605,2.9614813 3.4540709,2.9616273 2.8388332,2.3463894 2.8389792,1.5875 Z"
     style="fill:#ffffff;stroke-width:0.264583;paint-order:stroke markers fill"
     id="path858" />
</svg>
