<?xml version="1.0" encoding="UTF-8" standalone="no"?>
<!-- Created with Inkscape (http://www.inkscape.org/) -->

<svg
   width="32"
   height="32"
   viewBox="0 0 8.4666665 8.466667"
   version="1.1"
   id="svg5"
   inkscape:version="1.1.2 (0a00cf5339, 2022-02-04, custom)"
   sodipodi:docname="utilties-terminal.svg"
   xmlns:inkscape="http://www.inkscape.org/namespaces/inkscape"
   xmlns:sodipodi="http://sodipodi.sourceforge.net/DTD/sodipodi-0.dtd"
   xmlns="http://www.w3.org/2000/svg"
   xmlns:svg="http://www.w3.org/2000/svg">
  <sodipodi:namedview
     id="namedview7"
     pagecolor="#ffffff"
     bordercolor="#666666"
     borderopacity="1.0"
     inkscape:pageshadow="2"
     inkscape:pageopacity="0.0"
     inkscape:pagecheckerboard="0"
     inkscape:document-units="px"
     showgrid="false"
     units="px"
     height="64px"
     inkscape:zoom="26.3125"
     inkscape:cx="15.980998"
     inkscape:cy="16"
     inkscape:window-width="1920"
     inkscape:window-height="1019"
     inkscape:window-x="0"
     inkscape:window-y="31"
     inkscape:window-maximized="1"
     inkscape:current-layer="svg5"
     showguides="false" />
  <defs
     id="defs2" />
  <rect
     style="fill:#454d51;fill-opacity:1;stroke-width:0.529167;stroke-linecap:round;stroke-linejoin:round"
     id="rect1071"
     width="7.1437502"
     height="7.1437502"
     x="0.66145831"
     y="0.66145831"
     ry="0.66145831" />
  <path
     id="rect967"
     style="opacity:0.75;fill:#000000;fill-opacity:1;stroke-width:2;stroke-linecap:round;stroke-linejoin:round"
     d="M 5 2 C 3.338 2 2 3.338 2 5 L 2 27 C 2 28.662 3.338 30 5 30 L 27 30 C 28.662 30 30 28.662 30 27 L 30 5 C 30 3.338 28.662 2 27 2 L 5 2 z M 5 3 L 27 3 C 28.108 3 29 3.8919999 29 5 L 29 27 C 29 28.108 28.108 29 27 29 L 5 29 C 3.8919999 29 3 28.108 3 27 L 3 5 C 3 3.8919999 3.8919999 3 5 3 z "
     transform="scale(0.26458334)" />
  <path
     id="rect1364"
     style="opacity:1;fill:#ffffff;stroke-width:0.529167;stroke-linecap:round;stroke-linejoin:round"
     d="M 2.7781251,3.7041667 H 4.365625 c 0.07329,0 0.1322917,0.059002 0.1322917,0.1322917 0,0.07329 -0.059002,0.1322917 -0.1322917,0.1322917 H 2.7781251 c -0.07329,0 -0.1322917,-0.059002 -0.1322917,-0.1322917 0,-0.07329 0.059002,-0.1322917 0.1322917,-0.1322917 z"
     sodipodi:nodetypes="sssssss" />
  <path
     id="path1764"
     style="opacity:1;fill:#ffffff;stroke-width:0.140009;stroke-linecap:round;stroke-linejoin:round"
     d="m 1.7236394,1.5875482 c 0.021316,5.758e-4 0.042694,0.00664 0.062528,0.018087 l 1.5957683,0.9213908 0.00103,5.167e-4 c 0.00248,0.00123 0.00483,0.00274 0.00723,0.00413 9.424e-4,5.469e-4 0.00217,9.795e-4 0.0031,0.00155 9.017e-4,5.535e-4 0.0017,9.787e-4 0.00258,0.00155 8.964e-4,5.807e-4 0.0017,9.469e-4 0.00258,0.00155 0.00107,7.239e-4 0.00206,0.00183 0.0031,0.00258 6.768e-4,4.926e-4 0.0014,0.00104 0.00207,0.00155 0.00109,8.17e-4 0.00204,0.00174 0.0031,0.00258 0.00166,0.00134 0.00356,0.0027 0.00517,0.00413 5.985e-4,5.34e-4 0.00148,10e-4 0.00207,0.00155 0.00266,0.00246 0.00476,0.00505 0.00723,0.00775 4.879e-4,5.334e-4 0.00107,0.00101 0.00155,0.00155 0.00139,0.00155 0.00283,0.00304 0.00413,0.00465 1.463e-4,1.81e-4 3.712e-4,3.347e-4 5.167e-4,5.168e-4 7.975e-4,9.916e-4 0.0013,0.00209 0.00207,0.0031 5.49e-4,7.3e-4 0.00101,0.00132 0.00155,0.00207 7.694e-4,0.00106 0.00185,0.00202 0.00258,0.0031 5.397e-4,7.966e-4 0.00103,0.00177 0.00155,0.00258 5.808e-4,8.961e-4 9.925e-4,0.00168 0.00155,0.00258 6.591e-4,0.00107 0.00143,0.002 0.00207,0.0031 1.146e-4,1.984e-4 4.032e-4,3.18e-4 5.167e-4,5.167e-4 3.599e-4,6.308e-4 6.843e-4,0.00143 0.00103,0.00207 6.21e-4,0.00113 9.655e-4,0.00248 0.00155,0.00362 3.569e-4,6.996e-4 6.898e-4,0.00136 0.00103,0.00207 9.491e-4,0.00194 0.00174,0.00372 0.00258,0.00568 6.072e-4,0.00141 0.00151,0.00272 0.00207,0.00413 2.415e-4,6.18e-4 2.844e-4,0.00145 5.167e-4,0.00207 6.466e-4,0.00174 0.0015,0.00342 0.00207,0.00517 1.037e-4,3.194e-4 -1.008e-4,7.136e-4 0,0.00103 4.638e-4,0.00146 0.00114,0.00318 0.00155,0.00465 8.81e-5,3.194e-4 -8.57e-5,7.131e-4 0,0.00103 4.821e-4,0.00178 0.00115,0.00338 0.00155,0.00517 7.27e-5,3.236e-4 -7.04e-5,7.094e-4 0,0.00103 3.881e-4,0.00178 7.207e-4,0.00339 0.00103,0.00517 3.101e-4,0.00176 7.946e-4,0.00339 0.00103,0.00517 4.6e-5,3.456e-4 -4.34e-5,6.877e-4 0,0.00103 4.39e-5,3.476e-4 -4.13e-5,6.853e-4 0,0.00103 3.83e-5,3.263e-4 -3.6e-5,7.075e-4 0,0.00103 3.921e-4,0.00355 9.3e-4,0.00727 0.00103,0.010852 9.6e-6,3.27e-4 -7.1e-6,7.064e-4 0,0.00103 3.52e-5,0.0018 3.87e-5,0.00389 0,0.00568 -3.9e-6,1.775e-4 4.8e-6,3.392e-4 0,5.167e-4 -9.52e-5,0.00373 -6.249e-4,0.00716 -0.00103,0.010852 -3.79e-5,3.413e-4 4.02e-5,6.924e-4 0,0.00103 -7.91e-5,6.718e-4 8.94e-5,0.0014 0,0.00207 -2.389e-4,0.00177 -7.234e-4,0.00341 -0.00103,0.00517 -3.024e-4,0.00172 -6.641e-4,0.00347 -0.00103,0.00517 -7.52e-5,3.434e-4 7.8e-5,6.9e-4 0,0.00103 -8.411e-4,0.00371 -0.00193,0.00771 -0.0031,0.011369 -1.675e-4,5.228e-4 -3.421e-4,0.00103 -5.167e-4,0.00155 -5.011e-4,0.0015 -9.948e-4,0.00316 -0.00155,0.00465 -1.953e-4,5.183e-4 -3.146e-4,0.00103 -5.167e-4,0.00155 -5.662e-4,0.00146 -0.00145,0.00269 -0.00207,0.00413 -8.081e-4,0.00187 -0.00168,0.00383 -0.00258,0.00568 -6.776e-4,0.00139 -0.00134,0.00276 -0.00207,0.00413 -5.363e-4,0.00101 -9.871e-4,0.00211 -0.00155,0.0031 -2.005e-4,3.548e-4 -3.124e-4,6.797e-4 -5.167e-4,0.00103 -5.887e-4,0.00102 -0.00145,0.0021 -0.00207,0.0031 -9.064e-4,0.00148 -0.00163,0.00322 -0.00258,0.00465 -1.408e-4,2.085e-4 -3.749e-4,3.087e-4 -5.17e-4,5.167e-4 -7.686e-4,0.00114 -0.00179,0.00199 -0.00258,0.0031 -4.926e-4,6.768e-4 -0.00104,0.0014 -0.00155,0.00207 -0.00127,0.0017 -0.00228,0.00355 -0.00362,0.00517 -9.406e-4,0.00114 -0.00213,0.002 -0.0031,0.0031 -6.94e-4,7.779e-4 -0.00135,0.00182 -0.00207,0.00258 -7.467e-4,8.028e-4 -0.0013,0.0018 -0.00207,0.00258 -5.943e-4,6.043e-4 -0.00146,9.562e-4 -0.00207,0.00155 -0.0025,0.00246 -0.00509,0.005 -0.00775,0.00723 -6.3e-4,5.231e-4 -0.00143,0.00104 -0.00207,0.00155 -0.00102,8.242e-4 -0.00206,0.00179 -0.0031,0.00258 -6.477e-4,4.847e-4 -0.00141,5.588e-4 -0.00207,0.00103 -0.0011,8.062e-4 -0.00197,0.00181 -0.0031,0.00258 -7.966e-4,5.397e-4 -0.00177,0.00103 -0.00258,0.00155 -9.377e-4,6.091e-4 -0.00163,0.00148 -0.00258,0.00207 -9.938e-4,6.083e-4 -0.00209,9.644e-4 -0.0031,0.00155 -0.0027,0.00156 -0.00547,0.00329 -0.00827,0.00465 L 1.7861679,3.686645 C 1.722697,3.72329 1.6419454,3.70154 1.6053003,3.6380691 1.5686553,3.5745982 1.5904053,3.4938465 1.6538762,3.4572015 L 3.0589585,2.6458815 1.6538762,1.8345616 C 1.5904052,1.7979166 1.5686552,1.7171648 1.6053002,1.653694 1.6304942,1.610058 1.6767442,1.586281 1.7236394,1.5875482 Z" />
</svg>
