<?xml version="1.0" encoding="UTF-8" standalone="no"?>
<!-- Created with Inkscape (http://www.inkscape.org/) -->

<svg
   width="32"
   height="32"
   viewBox="0 0 8.4666665 8.466667"
   version="1.1"
   id="svg5"
   inkscape:version="1.1.2 (0a00cf5339, 2022-02-04, custom)"
   sodipodi:docname="wingpanel.svg"
   xmlns:inkscape="http://www.inkscape.org/namespaces/inkscape"
   xmlns:sodipodi="http://sodipodi.sourceforge.net/DTD/sodipodi-0.dtd"
   xmlns="http://www.w3.org/2000/svg"
   xmlns:svg="http://www.w3.org/2000/svg">
  <sodipodi:namedview
     id="namedview7"
     pagecolor="#ffffff"
     bordercolor="#666666"
     borderopacity="1.0"
     inkscape:pageshadow="2"
     inkscape:pageopacity="0.0"
     inkscape:pagecheckerboard="0"
     inkscape:document-units="px"
     showgrid="false"
     units="px"
     height="64px"
     inkscape:zoom="26.3125"
     inkscape:cx="15.980998"
     inkscape:cy="16.019002"
     inkscape:window-width="1920"
     inkscape:window-height="1019"
     inkscape:window-x="0"
     inkscape:window-y="31"
     inkscape:window-maximized="1"
     inkscape:current-layer="svg5"
     showguides="false" />
  <defs
     id="defs2" />
  <rect
     style="opacity:1;fill:#4fa4f4;stroke-width:0.529167;stroke-linecap:round;stroke-linejoin:round;fill-opacity:1"
     id="rect990"
     width="7.6729169"
     height="6.8791666"
     x="0.39687499"
     y="0.92604166"
     ry="0.39687499" />
  <path
     id="rect1620"
     style="opacity:0.35;fill:#000000;stroke-width:2;stroke-linecap:round;stroke-linejoin:round"
     d="M 3,3.5 C 2.169,3.5 1.5,4.169 1.5,5 l 0,2.9999999 h 29 L 30.5,5 C 30.5,4.169 29.831,3.5 29,3.5 Z"
     sodipodi:nodetypes="ssccsss"
     transform="scale(0.26458334)" />
  <path
     id="rect4073"
     style="opacity:0.35;fill:#002e99;fill-opacity:1;stroke-width:2;stroke-linecap:round;stroke-linejoin:round"
     d="M 3 3 C 1.8919999 3 1 3.8919999 1 5 L 1 28 C 1 29.108 1.8919999 30 3 30 L 29 30 C 30.108 30 31 29.108 31 28 L 31 5 C 31 3.8919999 30.108 3 29 3 L 3 3 z M 3 4 L 29 4 C 29.554 4 30 4.446 30 5 L 30 28 C 30 28.554 29.554 29 29 29 L 3 29 C 2.446 29 2 28.554 2 28 L 2 5 C 2 4.446 2.446 4 3 4 z "
     transform="scale(0.26458334)" />
  <path
     id="path4418"
     style="opacity:0.5;fill:#000000;stroke-width:2;stroke-linecap:round;stroke-linejoin:round"
     d="M 3,3 C 1.8919999,3 1,3.8919998 1,5 l -4e-8,2.9999999 H 2 L 2,5 C 2,4.4459999 2.446,4 3,4 h 26 c 0.554,0 1,0.4459999 1,1 l 0,2.9999999 h 1 L 31,5 C 31,3.8919998 30.108,3 29,3 Z"
     transform="scale(0.26458334)"
     sodipodi:nodetypes="ssccssssccsss" />
</svg>
