<?xml version="1.0" encoding="UTF-8" standalone="no"?>
<!-- Created with Inkscape (http://www.inkscape.org/) -->

<svg
   width="32"
   height="32"
   viewBox="0 0 8.4666665 8.466667"
   version="1.1"
   id="svg5"
   inkscape:version="1.1.2 (0a00cf5339, 2022-02-04, custom)"
   sodipodi:docname="workspace-switcher-right-top.svg"
   xmlns:inkscape="http://www.inkscape.org/namespaces/inkscape"
   xmlns:sodipodi="http://sodipodi.sourceforge.net/DTD/sodipodi-0.dtd"
   xmlns="http://www.w3.org/2000/svg"
   xmlns:svg="http://www.w3.org/2000/svg">
  <sodipodi:namedview
     id="namedview7"
     pagecolor="#ffffff"
     bordercolor="#666666"
     borderopacity="1.0"
     inkscape:pageshadow="2"
     inkscape:pageopacity="0.0"
     inkscape:pagecheckerboard="0"
     inkscape:document-units="px"
     showgrid="false"
     units="px"
     height="64px"
     inkscape:zoom="18.605747"
     inkscape:cx="17.279607"
     inkscape:cy="20.262556"
     inkscape:window-width="1920"
     inkscape:window-height="1019"
     inkscape:window-x="0"
     inkscape:window-y="31"
     inkscape:window-maximized="1"
     inkscape:current-layer="svg5"
     showguides="true" />
  <defs
     id="defs2" />
  <path
     id="rect990"
     style="opacity:1;fill:#638df5;fill-opacity:1;stroke-width:0.529167;stroke-linecap:round;stroke-linejoin:round"
     d="m 1.0583334,1.1906249 h 6.3500002 c 0.2198687,0 0.396875,0.1770063 0.396875,0.3968751 v 5.2916666 c 0,0.2198687 -0.1770063,0.396875 -0.396875,0.396875 H 1.0583334 c -0.21986884,0 -0.39687508,-0.1770063 -0.39687508,-0.396875 V 1.5875 c 0,-0.2198688 0.17700624,-0.3968751 0.39687508,-0.3968751 z"
     sodipodi:nodetypes="sssssssss" />
  <path
     id="rect4073"
     style="opacity:0.75;fill:#0d3bbb;fill-opacity:1;stroke-width:0.529167;stroke-linecap:round;stroke-linejoin:round"
     d="m 1.0583334,1.0583333 c -0.29315844,0 -0.52916673,0.2360083 -0.52916673,0.5291667 v 5.2916668 c 0,0.2931584 0.23600829,0.5291667 0.52916673,0.5291667 h 6.3500002 c 0.2931583,0 0.5291666,-0.2360083 0.5291666,-0.5291667 V 1.5875 c 0,-0.2931584 -0.2360083,-0.5291667 -0.5291666,-0.5291667 z m 0,0.2645833 h 6.3500002 c 0.1465791,0 0.2645833,0.1180042 0.2645833,0.2645834 v 5.2916668 c 0,0.1465792 -0.1180042,0.2645834 -0.2645833,0.2645834 H 1.0583334 c -0.14657924,0 -0.26458334,-0.1180042 -0.26458334,-0.2645834 V 1.5875 c 0,-0.1465792 0.1180041,-0.2645834 0.26458334,-0.2645834 z"
     sodipodi:nodetypes="ssssssssssssssssss" />
  <path
     d="m 4.2333336,0.66145827 h 3.7041669 c 0.2198685,0 0.396875,0.17700627 0.396875,0.39687503 V 3.96875 c 0,0.2198684 -0.1770065,0.396875 -0.396875,0.396875 H 4.2333336 c -0.2198689,0 -0.3968752,-0.1770066 -0.3968752,-0.396875 V 1.0583333 c 0,-0.21986876 0.1770063,-0.39687503 0.3968752,-0.39687503 z"
     style="opacity:1;fill:#ffffff;fill-opacity:1;stroke-width:0.140009;stroke-linecap:round;stroke-linejoin:round"
     id="path1589"
     sodipodi:nodetypes="sssssssss" />
  <path
     d="m 4.2333336,4.4979167 c -0.2931585,0 -0.5291668,-0.2360083 -0.5291668,-0.5291667 V 1.0583333 c 0,-0.29315856 0.2360083,-0.52916663 0.5291668,-0.52916663 h 3.704167 c 0.2931581,0 0.5291664,0.23600807 0.5291664,0.52916663 V 3.96875 c 0,0.2931584 -0.2360083,0.5291667 -0.5291664,0.5291667 z m 0,-0.2645833 h 3.704167 c 0.1465789,0 0.2645831,-0.1180042 0.2645831,-0.2645834 V 1.0583333 c 0,-0.14657916 -0.1180042,-0.26458356 -0.2645831,-0.26458356 h -3.704167 c -0.1465793,0 -0.2645834,0.1180044 -0.2645834,0.26458356 V 3.96875 c 0,0.1465792 0.1180041,0.2645834 0.2645834,0.2645834 z"
     style="opacity:0.2;fill:#000000;fill-opacity:1;stroke-width:0.140009;stroke-linecap:round;stroke-linejoin:round"
     id="path1727"
     sodipodi:nodetypes="ssssssssssssssssss" />
</svg>
