<?xml version="1.0" encoding="UTF-8" standalone="no"?>
<!-- Created with Inkscape (http://www.inkscape.org/) -->

<svg
   width="64"
   height="64"
   viewBox="0 0 16.933333 16.933334"
   version="1.1"
   id="svg5"
   inkscape:version="1.1.2 (0a00cf5339, 2022-02-04, custom)"
   sodipodi:docname="accessories-calculator.svg"
   xmlns:inkscape="http://www.inkscape.org/namespaces/inkscape"
   xmlns:sodipodi="http://sodipodi.sourceforge.net/DTD/sodipodi-0.dtd"
   xmlns:xlink="http://www.w3.org/1999/xlink"
   xmlns="http://www.w3.org/2000/svg"
   xmlns:svg="http://www.w3.org/2000/svg">
  <sodipodi:namedview
     id="namedview7"
     pagecolor="#ffffff"
     bordercolor="#666666"
     borderopacity="1.0"
     inkscape:pageshadow="2"
     inkscape:pageopacity="0.0"
     inkscape:pagecheckerboard="0"
     inkscape:document-units="px"
     showgrid="false"
     units="px"
     height="64px"
     inkscape:zoom="5.2906739"
     inkscape:cx="43.283711"
     inkscape:cy="8.1275091"
     inkscape:window-width="1920"
     inkscape:window-height="1019"
     inkscape:window-x="0"
     inkscape:window-y="31"
     inkscape:window-maximized="1"
     inkscape:current-layer="svg5" />
  <defs
     id="defs2">
    <linearGradient
       inkscape:collect="always"
       id="linearGradient1402">
      <stop
         style="stop-color:#e6c46c;stop-opacity:1;"
         offset="0"
         id="stop1398" />
      <stop
         style="stop-color:#e18f51;stop-opacity:1"
         offset="1"
         id="stop1400" />
    </linearGradient>
    <linearGradient
       inkscape:collect="always"
       id="linearGradient2373">
      <stop
         style="stop-color:#4d4d4d;stop-opacity:1"
         offset="0"
         id="stop2369" />
      <stop
         style="stop-color:#808080;stop-opacity:1"
         offset="1"
         id="stop2371" />
    </linearGradient>
    <linearGradient
       inkscape:collect="always"
       xlink:href="#linearGradient2373"
       id="linearGradient2375"
       x1="9.7895832"
       y1="16.933334"
       x2="9.7895842"
       y2="4.2529297e-07"
       gradientUnits="userSpaceOnUse" />
    <linearGradient
       inkscape:collect="always"
       xlink:href="#linearGradient1402"
       id="linearGradient1404"
       x1="42"
       y1="24"
       x2="42"
       y2="65"
       gradientUnits="userSpaceOnUse" />
  </defs>
  <path
     id="rect846"
     style="fill:#51565b;stroke-width:1.03703"
     d="M 14 4 C 8.4599996 4 4 8.4599996 4 14 L 4 50 C 4 55.539997 8.4599996 60 14 60 L 50 60 C 55.539997 60 60 55.539997 60 50 L 60 14 C 60 8.4599996 55.539997 4 50 4 L 14 4 z M 15.285156 6 L 48.714844 6 C 53.859125 6 58 10.14087 58 15.285156 L 58 48.714844 C 58 53.859125 53.859125 58 48.714844 58 L 15.285156 58 C 10.14087 58 6 53.859125 6 48.714844 L 6 15.285156 C 6 10.14087 10.14087 6 15.285156 6 z "
     transform="scale(0.26458334)" />
  <path
     id="rect950"
     style="fill:url(#linearGradient2375);fill-opacity:1;stroke-width:0.264583"
     d="m 3.7041665,1.3229166 h 9.5250005 c 1.319213,0 2.38125,1.0620375 2.38125,2.3812499 v 9.5250005 c 0,1.319213 -1.062037,2.38125 -2.38125,2.38125 H 3.7041665 c -1.3192124,0 -2.3812499,-1.062037 -2.3812499,-2.38125 V 3.7041665 c 0,-1.3192124 1.0620375,-2.3812499 2.3812499,-2.3812499 z" />
  <path
     id="path3168"
     style="fill:url(#linearGradient1404);fill-opacity:1;stroke-width:0.25227;stroke-linejoin:round;stroke-opacity:0.501961"
     d="M 32 32 L 32 59 L 50 59 C 54.986002 59 59 54.986002 59 50 L 59 32 L 32 32 z "
     transform="scale(0.26458334)" />
  <path
     id="rect22"
     style="fill:#f1f1f1;fill-opacity:1;stroke-width:3.7796"
     d="M 18 14 L 18 19 L 13 19 L 13 21 L 18 21 L 18 26 L 20 26 L 20 21 L 25 21 L 25 19 L 20 19 L 20 14 L 18 14 z M 39 19 L 39 21 L 52 21 L 52 19 L 39 19 z M 14.464844 39.050781 L 13.050781 40.464844 L 17.585938 45 L 13.050781 49.535156 L 14.464844 50.949219 L 19 46.414062 L 23.535156 50.949219 L 24.951172 49.535156 L 20.414062 45 L 24.707031 40.464844 L 23.292969 39.050781 L 19 43.585938 L 14.464844 39.050781 z M 39 41 L 39 42.998047 L 52 42.998047 L 52 41 L 39 41 z M 39 47.001953 L 39 49 L 52 49 L 52 47.001953 L 39 47.001953 z "
     transform="scale(0.26458334)" />
</svg>
