<?xml version="1.0" encoding="UTF-8" standalone="no"?>
<!-- Created with Inkscape (http://www.inkscape.org/) -->

<svg
   width="64"
   height="64"
   viewBox="0 0 16.933333 16.933334"
   version="1.1"
   id="svg5"
   inkscape:version="1.1.2 (0a00cf5339, 2022-02-04, custom)"
   sodipodi:docname="kalendar.svg"
   xmlns:inkscape="http://www.inkscape.org/namespaces/inkscape"
   xmlns:sodipodi="http://sodipodi.sourceforge.net/DTD/sodipodi-0.dtd"
   xmlns:xlink="http://www.w3.org/1999/xlink"
   xmlns="http://www.w3.org/2000/svg"
   xmlns:svg="http://www.w3.org/2000/svg">
  <sodipodi:namedview
     id="namedview7"
     pagecolor="#ffffff"
     bordercolor="#666666"
     borderopacity="1.0"
     inkscape:pageshadow="2"
     inkscape:pageopacity="0.0"
     inkscape:pagecheckerboard="0"
     inkscape:document-units="px"
     showgrid="false"
     units="px"
     height="64px"
     showguides="false"
     inkscape:zoom="5.5850387"
     inkscape:cx="33.034686"
     inkscape:cy="54.968285"
     inkscape:window-width="1920"
     inkscape:window-height="1019"
     inkscape:window-x="0"
     inkscape:window-y="31"
     inkscape:window-maximized="1"
     inkscape:current-layer="svg5" />
  <defs
     id="defs2">
    <linearGradient
       inkscape:collect="always"
       xlink:href="#linearGradient2373"
       id="linearGradient2375"
       x1="9.7895832"
       y1="16.933334"
       x2="9.7895842"
       y2="4.2529297e-07"
       gradientUnits="userSpaceOnUse" />
    <linearGradient
       inkscape:collect="always"
       id="linearGradient2373">
      <stop
         style="stop-color:#117ab6;stop-opacity:1"
         offset="0"
         id="stop2369" />
      <stop
         style="stop-color:#2aaedb;stop-opacity:1"
         offset="1"
         id="stop2371" />
    </linearGradient>
  </defs>
  <path
     id="rect846"
     style="fill:#51565b;stroke-width:0.274381"
     d="m 3.7041667,1.0583333 c -1.4657918,0 -2.6458334,1.1800416 -2.6458334,2.6458334 v 9.5250003 c 0,1.465791 1.1800416,2.645834 2.6458334,2.645834 h 9.5250013 c 1.465791,0 2.645834,-1.180043 2.645834,-2.645834 V 3.7041667 c 0,-1.4657918 -1.180043,-2.6458334 -2.645834,-2.6458334 z M 4.0441975,1.5875 h 8.8449395 c 1.361091,0 2.456698,1.0956052 2.456698,2.4566976 v 8.8449384 c 0,1.361091 -1.095607,2.456698 -2.456698,2.456698 H 4.0441975 c -1.3610923,0 -2.4566976,-1.095607 -2.4566976,-2.456698 V 4.0441976 C 1.5874999,2.6831052 2.6831052,1.5875 4.0441975,1.5875 Z" />
  <path
     id="rect950"
     style="fill:url(#linearGradient2375);fill-opacity:1;stroke-width:0.264583"
     d="m 3.7041664,1.3229166 h 9.5250016 c 1.319213,0 2.38125,1.0620375 2.38125,2.3812499 v 9.5250005 c 0,1.319213 -1.062037,2.38125 -2.38125,2.38125 H 3.7041664 c -1.3192124,0 -2.3812499,-1.062037 -2.3812499,-2.38125 V 3.7041665 c 0,-1.3192124 1.0620375,-2.3812499 2.3812499,-2.3812499 z" />
  <path
     d="m 5.7241984,5.5562499 c -0.6942736,0 -1.2496075,0.1985848 -1.6655315,0.5953125 C 3.645942,6.54829 3.4395832,7.0680743 3.4395832,7.7111573 h 0.8878012 c 0,-0.4479184 0.1216797,-0.7968935 0.3648355,-1.0464479 0.2463552,-0.2527539 0.590459,-0.3787884 1.0319785,-0.3787884 0.3679328,0 0.6618735,0.1168087 0.8826333,0.3503663 0.2207599,0.2335575 0.3312459,0.5323694 0.3312459,0.8971029 0,0.2719506 -0.068614,0.5362466 -0.206189,0.7922 C 6.5975131,8.578344 6.3512503,8.9078344 5.9929158,9.3141606 l -2.418974,2.6871734 v 0.638204 H 8.1524739 V 11.915034 H 4.6441607 L 6.5158812,9.8851843 C 7.3925215,8.9349582 7.8305297,8.1158452 7.8305297,7.4279704 7.8305297,6.8616737 7.642204,6.4090517 7.2646727,6.0699135 6.8871416,5.727576 6.3736798,5.5562499 5.7241984,5.5562499 Z m 5.5474646,0 c -0.617487,0 -1.114884,0.1727776 -1.4924146,0.5183145 -0.3775313,0.3455371 -0.566374,0.8127722 -0.566374,1.4014649 3e-7,0.3455373 0.08955,0.6540915 0.2687177,0.9260419 0.1791671,0.2719504 0.4239784,0.484632 0.7343219,0.6382044 C 9.8511809,9.1970466 9.5650139,9.4277606 9.3570517,9.7317053 9.1522891,10.035649 9.049577,10.376334 9.049577,10.753865 c 0,0.60149 0.2020044,1.082821 0.6051309,1.444356 0.4063261,0.358334 0.9450781,0.537435 1.6169551,0.537435 0.665479,0 1.201328,-0.179101 1.607654,-0.537435 0.409526,-0.358334 0.614433,-0.839666 0.614433,-1.444356 0,-0.380731 -0.107067,-0.721416 -0.321427,-1.0221597 -0.211162,-0.3007447 -0.499297,-0.5294907 -0.86403,-0.6862627 0.313543,-0.1535715 0.561773,-0.3667701 0.74414,-0.6387203 0.185566,-0.2719506 0.278019,-0.5819563 0.278019,-0.930693 1e-6,-0.5886927 -0.190294,-1.0559278 -0.571024,-1.4014649 C 12.381896,5.7290275 11.885951,5.5562499 11.271663,5.5562499 Z m 0,0.7296711 c 0.339139,0 0.618982,0.1119378 0.839743,0.335897 0.220759,0.2239592 0.331245,0.5135457 0.331245,0.8686808 0,0.3551354 -0.107066,0.6427536 -0.321427,0.8635135 -0.211161,0.2175603 -0.494425,0.3265951 -0.849561,0.3265951 -0.355135,0 -0.639851,-0.1090348 -0.854211,-0.3265951 -0.211162,-0.2207599 -0.316776,-0.5083781 -0.316776,-0.8635135 0,-0.3711324 0.107066,-0.6641386 0.321427,-0.8784995 0.217561,-0.2175603 0.500825,-0.3260783 0.84956,-0.3260783 z m -0.0093,3.1238406 c 0.399928,0 0.723096,0.1231307 0.96945,0.3694867 0.249555,0.2463537 0.374138,0.5651677 0.374138,0.9554967 0,0.393528 -0.118261,0.704985 -0.355018,0.935343 -0.236756,0.227158 -0.563343,0.341064 -0.979268,0.341064 -0.419123,0 -0.747162,-0.113906 -0.983919,-0.341064 -0.233557,-0.227159 -0.3503661,-0.538615 -0.3503661,-0.935343 0,-0.396728 0.1202291,-0.716992 0.3601851,-0.9601477 0.243152,-0.243156 0.564869,-0.3648357 0.964795,-0.3648357 z"
     style="font-size:10.5833px;line-height:1.25;font-family:Roboto;-inkscape-font-specification:Roboto;fill:#f9f9f9;fill-opacity:1;stroke-width:0.245716"
     id="path4406" />
  <path
     id="path1247"
     style="opacity:0.3;fill:#000000;fill-opacity:1;stroke-width:0.98318;stroke-linecap:round;stroke-linejoin:round"
     d="m 18,8 c -1.104569,10e-8 -2,0.8954305 -2,2 0,1.104569 0.895431,2 2,2 1.104569,0 2,-0.895431 2,-2 0,-1.1045695 -0.895431,-1.9999999 -2,-2 z m 27.999999,0 c -1.104569,10e-8 -2,0.8954305 -2,2 0,1.104569 0.895431,2 2,2 1.10457,0 2,-0.895431 2,-2 0,-1.1045695 -0.89543,-1.9999999 -2,-2 z"
     transform="scale(0.26458334)"
     sodipodi:nodetypes="ssssssssss" />
</svg>
