<?xml version="1.0" encoding="UTF-8" standalone="no"?>
<!-- Created with Inkscape (http://www.inkscape.org/) -->

<svg
   width="64"
   height="64"
   viewBox="0 0 16.933333 16.933334"
   version="1.1"
   id="svg5"
   inkscape:version="1.1.2 (0a00cf5339, 2022-02-04, custom)"
   sodipodi:docname="information.svg"
   xmlns:inkscape="http://www.inkscape.org/namespaces/inkscape"
   xmlns:sodipodi="http://sodipodi.sourceforge.net/DTD/sodipodi-0.dtd"
   xmlns:xlink="http://www.w3.org/1999/xlink"
   xmlns="http://www.w3.org/2000/svg"
   xmlns:svg="http://www.w3.org/2000/svg">
  <sodipodi:namedview
     id="namedview7"
     pagecolor="#ffffff"
     bordercolor="#666666"
     borderopacity="1.0"
     inkscape:pageshadow="2"
     inkscape:pageopacity="0.0"
     inkscape:pagecheckerboard="0"
     inkscape:document-units="px"
     showgrid="false"
     units="px"
     height="64px"
     inkscape:zoom="1"
     inkscape:cx="32"
     inkscape:cy="38"
     inkscape:window-width="1920"
     inkscape:window-height="1020"
     inkscape:window-x="0"
     inkscape:window-y="0"
     inkscape:window-maximized="1"
     inkscape:current-layer="svg5" />
  <defs
     id="defs2">
    <linearGradient
       inkscape:collect="always"
       id="linearGradient2373">
      <stop
         style="stop-color:#0963df;stop-opacity:1"
         offset="0"
         id="stop2369" />
      <stop
         style="stop-color:#4cb6ff;stop-opacity:1"
         offset="1"
         id="stop2371" />
    </linearGradient>
    <linearGradient
       inkscape:collect="always"
       xlink:href="#linearGradient2373"
       id="linearGradient2375"
       x1="9.7895832"
       y1="16.933334"
       x2="9.7895842"
       y2="4.2529297e-07"
       gradientUnits="userSpaceOnUse" />
  </defs>
  <path
     id="rect846"
     style="fill:#51565b;stroke-width:1.03703"
     d="M 14 4 C 8.4599996 4 4 8.4599996 4 14 L 4 50 C 4 55.539997 8.4599996 60 14 60 L 50 60 C 55.539997 60 60 55.539997 60 50 L 60 14 C 60 8.4599996 55.539997 4 50 4 L 14 4 z M 15.285156 6 L 48.714844 6 C 53.859125 6 58 10.14087 58 15.285156 L 58 48.714844 C 58 53.859125 53.859125 58 48.714844 58 L 15.285156 58 C 10.14087 58 6 53.859125 6 48.714844 L 6 15.285156 C 6 10.14087 10.14087 6 15.285156 6 z "
     transform="scale(0.26458334)" />
  <path
     id="rect950"
     style="fill:url(#linearGradient2375);fill-opacity:1;stroke-width:0.264583"
     d="m 3.7041665,1.3229166 h 9.5250005 c 1.319213,0 2.38125,1.0620375 2.38125,2.3812499 v 9.5250005 c 0,1.319213 -1.062037,2.38125 -2.38125,2.38125 H 3.7041665 c -1.3192124,0 -2.3812499,-1.062037 -2.3812499,-2.38125 V 3.7041665 c 0,-1.3192124 1.0620375,-2.3812499 2.3812499,-2.3812499 z" />
  <path
     d="M 8.518853,5.3821704 C 8.2877228,5.3821704 8.0889509,5.2989634 7.9225372,5.13255 7.7561236,4.9661363 7.6729169,4.7673647 7.6729169,4.5362347 c 0,-0.2311302 0.083207,-0.4252793 0.2496203,-0.5824476 0.1664137,-0.1664137 0.3651856,-0.2496204 0.5963158,-0.2496204 0.231129,0 0.4299009,0.083207 0.5963151,0.2496204 0.1664128,0.1571683 0.2496198,0.3513174 0.2496198,0.5824476 0,0.23113 -0.08321,0.4299016 -0.2496198,0.5963153 C 8.957999,5.2989637 8.7592281,5.3821704 8.518853,5.3821704 Z M 7.9364048,6.6857436 H 9.1012999 V 13.758322 H 7.9364048 Z"
     style="font-size:13.8678px;line-height:1.25;font-family:'Google Sans';-inkscape-font-specification:'Google Sans';fill:#000000;fill-opacity:1;stroke-width:0.0242702;opacity:0.2"
     id="path941" />
  <path
     d="m 8.5188528,5.1175871 c -0.23113,0 -0.429902,-0.083207 -0.5963158,-0.2496204 C 7.7561234,4.701553 7.6729167,4.5027814 7.6729167,4.2716514 c 0,-0.2311302 0.083207,-0.4252793 0.2496203,-0.5824477 0.1664138,-0.1664136 0.3651858,-0.2496203 0.5963158,-0.2496203 0.231129,0 0.429901,0.083207 0.596315,0.2496203 0.166413,0.1571684 0.24962,0.3513175 0.24962,0.5824477 0,0.23113 -0.08321,0.4299016 -0.24962,0.5963153 -0.157169,0.1664137 -0.35594,0.2496204 -0.596315,0.2496204 z m -0.582448,1.3035732 h 1.164895 v 7.0725777 h -1.164895 z"
     style="font-size:13.8678px;line-height:1.25;font-family:'Google Sans';-inkscape-font-specification:'Google Sans';fill:#f2f2f2;fill-opacity:1;stroke-width:0.09173"
     id="path48347"
     sodipodi:nodetypes="ssscscscsccccc" />
</svg>
