<?xml version="1.0" encoding="UTF-8" standalone="no"?>
<!-- Created with Inkscape (http://www.inkscape.org/) -->

<svg
   width="64"
   height="64"
   viewBox="0 0 16.933333 16.933334"
   version="1.1"
   id="svg5"
   inkscape:version="1.1.2 (0a00cf5339, 2022-02-04, custom)"
   sodipodi:docname="utilities-terminal-su.svg"
   xmlns:inkscape="http://www.inkscape.org/namespaces/inkscape"
   xmlns:sodipodi="http://sodipodi.sourceforge.net/DTD/sodipodi-0.dtd"
   xmlns:xlink="http://www.w3.org/1999/xlink"
   xmlns="http://www.w3.org/2000/svg"
   xmlns:svg="http://www.w3.org/2000/svg">
  <sodipodi:namedview
     id="namedview7"
     pagecolor="#ffffff"
     bordercolor="#666666"
     borderopacity="1.0"
     inkscape:pageshadow="2"
     inkscape:pageopacity="0.0"
     inkscape:pagecheckerboard="0"
     inkscape:document-units="px"
     showgrid="false"
     units="px"
     height="64px"
     inkscape:zoom="12.53125"
     inkscape:cx="23.620948"
     inkscape:cy="22.822943"
     inkscape:window-width="1920"
     inkscape:window-height="1020"
     inkscape:window-x="0"
     inkscape:window-y="0"
     inkscape:window-maximized="1"
     inkscape:current-layer="svg5" />
  <defs
     id="defs2">
    <linearGradient
       inkscape:collect="always"
       id="linearGradient2373">
      <stop
         style="stop-color:#643269;stop-opacity:1"
         offset="0"
         id="stop2369" />
      <stop
         style="stop-color:#832e81;stop-opacity:1"
         offset="1"
         id="stop2371" />
    </linearGradient>
    <linearGradient
       inkscape:collect="always"
       xlink:href="#linearGradient2373"
       id="linearGradient2375"
       x1="9.7895832"
       y1="16.933334"
       x2="9.7895842"
       y2="4.2529297e-07"
       gradientUnits="userSpaceOnUse" />
  </defs>
  <path
     id="rect846"
     style="fill:#51565b;stroke-width:1.03703"
     d="M 14 4 C 8.4599996 4 4 8.4599996 4 14 L 4 50 C 4 55.539997 8.4599996 60 14 60 L 50 60 C 55.539997 60 60 55.539997 60 50 L 60 14 C 60 8.4599996 55.539997 4 50 4 L 14 4 z M 15.285156 6 L 48.714844 6 C 53.859125 6 58 10.14087 58 15.285156 L 58 48.714844 C 58 53.859125 53.859125 58 48.714844 58 L 15.285156 58 C 10.14087 58 6 53.859125 6 48.714844 L 6 15.285156 C 6 10.14087 10.14087 6 15.285156 6 z "
     transform="scale(0.26458334)" />
  <path
     id="rect950"
     style="fill:url(#linearGradient2375);fill-opacity:1;stroke-width:0.264583"
     d="m 3.7041665,1.3229166 h 9.5250005 c 1.319213,0 2.38125,1.0620375 2.38125,2.3812499 v 9.5250005 c 0,1.319213 -1.062037,2.38125 -2.38125,2.38125 H 3.7041665 c -1.3192124,0 -2.3812499,-1.062037 -2.3812499,-2.38125 V 3.7041665 c 0,-1.3192124 1.0620375,-2.3812499 2.3812499,-2.3812499 z" />
  <path
     d="M 3.8137206,3.7041667 3.4395834,4.0783039 4.8586182,5.4978557 3.4395834,6.9168905 3.8137206,7.2910283 5.6074097,5.4978557 Z m 2.0071128,3.175 V 7.4083334 H 8.7312501 V 6.8791667 Z"
     style="opacity:0.2;fill:#000000;stroke-width:0.0700042;stroke-linejoin:round"
     id="path2199" />
  <path
     id="rect956"
     style="opacity:1;fill:#ffffff;stroke-width:0.264583;stroke-linejoin:round"
     d="M 3.8137207,3.4395834 3.4395834,3.8137206 4.8586182,5.2332724 3.4395834,6.6523072 3.8137207,7.0264448 5.6074097,5.2332724 Z M 5.8208335,6.6145835 V 7.1437502 H 8.7312502 V 6.6145835 Z"
     sodipodi:nodetypes="cccccccccccc" />
</svg>
