<?xml version="1.0" encoding="UTF-8" standalone="no"?>
<!-- Created with Inkscape (http://www.inkscape.org/) -->

<svg
   width="16"
   height="16"
   viewBox="0 0 4.2333332 4.2333335"
   version="1.1"
   id="svg5"
   inkscape:version="1.1.2 (0a00cf5339, 2022-02-04, custom)"
   sodipodi:docname="network-cellular-connected.svg"
   xmlns:inkscape="http://www.inkscape.org/namespaces/inkscape"
   xmlns:sodipodi="http://sodipodi.sourceforge.net/DTD/sodipodi-0.dtd"
   xmlns="http://www.w3.org/2000/svg"
   xmlns:svg="http://www.w3.org/2000/svg">
  <sodipodi:namedview
     id="namedview7"
     pagecolor="#ffffff"
     bordercolor="#666666"
     borderopacity="1.0"
     inkscape:pageshadow="2"
     inkscape:pageopacity="0.0"
     inkscape:pagecheckerboard="0"
     inkscape:document-units="px"
     showgrid="false"
     units="px"
     showguides="false"
     inkscape:zoom="50.125"
     inkscape:cx="8"
     inkscape:cy="8"
     inkscape:window-width="1920"
     inkscape:window-height="1020"
     inkscape:window-x="0"
     inkscape:window-y="0"
     inkscape:window-maximized="1"
     inkscape:current-layer="g2412" />
  <defs
     id="defs2" />
  <g
     id="g2412"
     style="fill:#5d656b;fill-opacity:1">
    <path
       id="path1144"
       style="color:#000000;opacity:0.15;fill:#000000;fill-opacity:1;stroke:none;stroke-width:0.626086;-inkscape-stroke:none"
       d="m 14,5 -1,1 h 1 z m -1,1 -1,1 h 1 z m 0,1 v 1 h 1 V 7 Z m 0,1 h -1 v 1 h 1 z m 0,1 v 1 h 1 V 9 Z m 0,1 h -1 v 1 h 1 z m 0,1 v 1 h 1 v -1 z m 0,1 h -1 v 1 h 1 z m 0,1 v 1 h 1 v -1 z m -1,0 h -1 v 1 h 1 z m -1,0 v -1 h -1 v 1 z m -1,0 H 9 v 1 h 1 z M 9,13 V 12 H 8 v 1 z M 8,13 H 7 v 1 h 1 z m -1,0 v -1 l -1,1 z m -1,0 -1,1 h 1 z m 1,-1 h 1 v -1 z m 1,-1 h 1 v -1 z m 1,-1 h 1 V 9 Z m 1,-1 h 1 V 8 Z m 1,-1 h 1 V 7 Z m 0,1 v 1 h 1 V 9 Z m 0,1 h -1 v 1 h 1 z m 0,1 v 1 h 1 v -1 z m -1,0 H 9 v 1 h 1 z"
       transform="scale(0.26458333)" />
    <path
       style="color:#000000;fill:#5d656b;fill-opacity:1;stroke:none;-inkscape-stroke:none"
       d="M 4.2333333,3.0296875e-7 3.296875e-8,4.2333333 H 4.2333333 Z M 3.96875,0.66145803 V 3.96875 H 0.6614583 Z"
       id="path1146"
       sodipodi:nodetypes="cccccccc" />
  </g>
</svg>
