<?xml version="1.0" encoding="UTF-8" standalone="no"?>
<!-- Created with Inkscape (http://www.inkscape.org/) -->

<svg
   width="16"
   height="16"
   viewBox="0 0 4.2333332 4.2333335"
   version="1.1"
   id="svg5"
   inkscape:version="1.1.2 (0a00cf5339, 2022-02-04, custom)"
   sodipodi:docname="network-cellular-secure-signal-ok.svg"
   xmlns:inkscape="http://www.inkscape.org/namespaces/inkscape"
   xmlns:sodipodi="http://sodipodi.sourceforge.net/DTD/sodipodi-0.dtd"
   xmlns="http://www.w3.org/2000/svg"
   xmlns:svg="http://www.w3.org/2000/svg">
  <sodipodi:namedview
     id="namedview7"
     pagecolor="#ffffff"
     bordercolor="#666666"
     borderopacity="1.0"
     inkscape:pageshadow="2"
     inkscape:pageopacity="0.0"
     inkscape:pagecheckerboard="0"
     inkscape:document-units="px"
     showgrid="false"
     units="px"
     showguides="false"
     inkscape:zoom="50.125"
     inkscape:cx="8"
     inkscape:cy="11.062344"
     inkscape:window-width="1920"
     inkscape:window-height="1020"
     inkscape:window-x="0"
     inkscape:window-y="0"
     inkscape:window-maximized="1"
     inkscape:current-layer="g2412" />
  <defs
     id="defs2" />
  <g
     id="g2412"
     style="fill:#5d656b;fill-opacity:1">
    <path
       id="path1144"
       style="color:#000000;fill:#5d656b;fill-opacity:1;stroke:none;stroke-width:0.626086;-inkscape-stroke:none"
       d="m 10,9 -5,5 h 4 v -3 h 1 z"
       transform="scale(0.26458333)" />
    <path
       id="path1146"
       style="color:#000000;fill:#5d656b;fill-opacity:1;stroke:none;stroke-width:3.77953;-inkscape-stroke:none"
       d="M 16,0 0,16 H 9 V 15 H 2.5 L 15,2.5 v 6.5000001 h 1 z"
       transform="scale(0.26458333)"
       sodipodi:nodetypes="ccccccccc" />
    <path
       d="m 3.4395832,2.38125 c -0.2931583,0 -0.5291666,0.2407707 -0.5291666,0.5373687 V 3.175 H 2.6458332 V 4.2333333 H 4.2333333 V 3.175 H 3.9687499 V 2.9186187 C 3.9687499,2.6222854 3.7327416,2.38125 3.4395832,2.38125 Z m 0,0.2645832 c 0.1465792,0 0.2645834,0.1169459 0.2645834,0.2645834 V 3.175 H 3.1749999 V 2.9104166 c 0,-0.1476375 0.1180042,-0.2645834 0.2645833,-0.2645834 z"
       style="color:#000000;overflow:visible;fill:#5d656b;fill-opacity:1;stroke-width:0.0700042;marker:none"
       id="path1311" />
  </g>
</svg>
