<?xml version="1.0" encoding="UTF-8" standalone="no"?>
<!-- Created with Inkscape (http://www.inkscape.org/) -->

<svg
   width="24"
   height="24"
   viewBox="0 0 6.3499997 6.3500003"
   version="1.1"
   id="svg2469"
   inkscape:version="1.1.2 (0a00cf5339, 2022-02-04, custom)"
   sodipodi:docname="folder-default-open.svg"
   xmlns:inkscape="http://www.inkscape.org/namespaces/inkscape"
   xmlns:sodipodi="http://sodipodi.sourceforge.net/DTD/sodipodi-0.dtd"
   xmlns="http://www.w3.org/2000/svg"
   xmlns:svg="http://www.w3.org/2000/svg">
  <sodipodi:namedview
     id="namedview2471"
     pagecolor="#ffffff"
     bordercolor="#666666"
     borderopacity="1.0"
     inkscape:pageshadow="2"
     inkscape:pageopacity="0.0"
     inkscape:pagecheckerboard="0"
     inkscape:document-units="px"
     showgrid="false"
     units="px"
     inkscape:zoom="12.828125"
     inkscape:cx="8.0292326"
     inkscape:cy="22.060901"
     inkscape:window-width="1920"
     inkscape:window-height="1020"
     inkscape:window-x="0"
     inkscape:window-y="0"
     inkscape:window-maximized="1"
     inkscape:current-layer="svg2469"
     showguides="false" />
  <defs
     id="defs2466" />
  <path
     id="rect3166"
     style="opacity:0.45;fill:#4f6698;fill-opacity:1;stroke-width:0.264583;stroke-linejoin:round"
     d="M 1.5735473,0.79380092 C 1.2867706,0.80101792 1.0583333,1.0343898 1.0583333,1.3229675 0.91175416,1.3229675 0.79375,1.483911 0.79375,1.8521341 v 1.5875 c 0,0.1465792 0.11800416,0.2645833 0.2645833,0.2645833 h 4.2333333 c 0.1465792,0 0.2645833,-0.1180041 0.2645833,-0.2645833 v -1.5875 c 0,-0.2922506 -0.2369161,-0.5291665 -0.5291666,-0.5291666 H 2.9104166 c 0,-0.2931583 -0.2360083,-0.52916658 -0.5291666,-0.52916658 H 1.5875 c -0.00458,0 -0.0094,-1.1456e-4 -0.013953,0 z"
     sodipodi:nodetypes="scssssssscsss" />
  <path
     id="rect3604"
     style="fill:#ffffff;fill-opacity:1;stroke-width:0.264583;stroke-linejoin:round"
     d="m 1.5875,1.0583842 c -0.1465792,0 -0.2645833,0.1180042 -0.2645833,0.2645833 v 0.2645833 c -0.1461253,0 -0.2645834,0.118458 -0.2645834,0.2645833 V 3.1750508 H 5.2916666 V 1.8521341 c 0,-0.1461253 -0.1184582,-0.2645833 -0.2645833,-0.2645833 h -2.38125 V 1.3229675 c 0,-0.1465791 -0.1180042,-0.2645833 -0.2645833,-0.2645833 z" />
  <path
     id="rect2552"
     style="opacity:0.6;fill:#276a23;stroke-width:0.32208;stroke-linejoin:round"
     d="M 0.79375003,2.38125 H 5.5562502 c 0.2931583,0 0.5291667,0.2360083 0.5291667,0.5291666 v 2.38125 c 0,0.2931584 -0.2360084,0.5291667 -0.5291667,0.5291667 H 0.79375003 c -0.29315835,0 -0.5291667,-0.2360083 -0.5291667,-0.5291667 v -2.38125 c 0,-0.2931583 0.23600835,-0.5291666 0.5291667,-0.5291666 z"
     sodipodi:nodetypes="sssssssss" />
  <path
     id="rect2686"
     style="fill:#82be6c;stroke-width:0.229136;stroke-linejoin:round"
     d="M 0.79375003,2.6458333 H 5.55625 c 0.1465791,0 0.2645833,0.1180041 0.2645833,0.2645833 v 2.38125 C 5.8208333,5.4382458 5.7028291,5.55625 5.55625,5.55625 H 0.79375003 c -0.14657918,0 -0.26458335,-0.1180042 -0.26458335,-0.2645834 v -2.38125 c 0,-0.1465792 0.11800417,-0.2645833 0.26458335,-0.2645833 z"
     sodipodi:nodetypes="sssssssss" />
</svg>
