<?xml version="1.0" encoding="UTF-8" standalone="no"?>
<!-- Created with Inkscape (http://www.inkscape.org/) -->

<svg
   width="24"
   height="24"
   viewBox="0 0 6.3499997 6.3500003"
   version="1.1"
   id="svg2469"
   inkscape:version="1.1.2 (0a00cf5339, 2022-02-04, custom)"
   sodipodi:docname="folder-default-images-open.svg"
   xmlns:inkscape="http://www.inkscape.org/namespaces/inkscape"
   xmlns:sodipodi="http://sodipodi.sourceforge.net/DTD/sodipodi-0.dtd"
   xmlns="http://www.w3.org/2000/svg"
   xmlns:svg="http://www.w3.org/2000/svg">
  <sodipodi:namedview
     id="namedview2471"
     pagecolor="#ffffff"
     bordercolor="#666666"
     borderopacity="1.0"
     inkscape:pageshadow="2"
     inkscape:pageopacity="0.0"
     inkscape:pagecheckerboard="0"
     inkscape:document-units="px"
     showgrid="false"
     units="px"
     inkscape:zoom="13.46717"
     inkscape:cx="27.288584"
     inkscape:cy="23.204578"
     inkscape:window-width="1541"
     inkscape:window-height="945"
     inkscape:window-x="23"
     inkscape:window-y="15"
     inkscape:window-maximized="0"
     inkscape:current-layer="svg2469"
     showguides="false" />
  <defs
     id="defs2466" />
  <path
     id="rect3166"
     style="opacity:0.45;fill:#4f6698;fill-opacity:1;stroke-width:0.264583;stroke-linejoin:round"
     d="M 1.5735473,0.79380092 C 1.2867706,0.80101792 1.0583333,1.0343898 1.0583333,1.3229675 0.91175416,1.3229675 0.79375,1.483911 0.79375,1.8521341 v 1.5875 c 0,0.1465792 0.11800416,0.2645833 0.2645833,0.2645833 h 4.2333333 c 0.1465792,0 0.2645833,-0.1180041 0.2645833,-0.2645833 v -1.5875 c 0,-0.2922506 -0.2369161,-0.5291665 -0.5291666,-0.5291666 H 2.9104166 c 0,-0.2931583 -0.2360083,-0.52916658 -0.5291666,-0.52916658 H 1.5875 c -0.00458,0 -0.0094,-1.1456e-4 -0.013953,0 z"
     sodipodi:nodetypes="scssssssscsss" />
  <path
     id="rect3604"
     style="fill:#ffffff;fill-opacity:1;stroke-width:0.264583;stroke-linejoin:round"
     d="m 1.5875,1.0583842 c -0.1465792,0 -0.2645833,0.1180042 -0.2645833,0.2645833 v 0.2645833 c -0.1461253,0 -0.2645834,0.118458 -0.2645834,0.2645833 V 3.1750508 H 5.2916666 V 1.8521341 c 0,-0.1461253 -0.1184582,-0.2645833 -0.2645833,-0.2645833 h -2.38125 V 1.3229675 c 0,-0.1465791 -0.1180042,-0.2645833 -0.2645833,-0.2645833 z" />
  <path
     id="rect2552"
     style="opacity:0.6;fill:#998800;stroke-width:0.32208;stroke-linejoin:round"
     d="M 0.79375003,2.38125 H 5.5562502 c 0.2931583,0 0.5291667,0.2360083 0.5291667,0.5291666 v 2.38125 c 0,0.2931584 -0.2360084,0.5291667 -0.5291667,0.5291667 H 0.79375003 c -0.29315835,0 -0.5291667,-0.2360083 -0.5291667,-0.5291667 v -2.38125 c 0,-0.2931583 0.23600835,-0.5291666 0.5291667,-0.5291666 z"
     sodipodi:nodetypes="sssssssss" />
  <path
     id="rect2686"
     style="fill:#e9d26b;stroke-width:0.229136;stroke-linejoin:round"
     d="M 0.79375003,2.6458333 H 5.55625 c 0.1465791,0 0.2645833,0.1180041 0.2645833,0.2645833 v 2.38125 C 5.8208333,5.4382458 5.7028291,5.55625 5.55625,5.55625 H 0.79375003 c -0.14657918,0 -0.26458335,-0.1180042 -0.26458335,-0.2645834 v -2.38125 c 0,-0.1465792 0.11800417,-0.2645833 0.26458335,-0.2645833 z"
     sodipodi:nodetypes="sssssssss" />
  <path
     id="path2173"
     style="color:#000000;opacity:0.15;fill:#000000;stroke-width:0.264572;stroke-linecap:round;stroke-linejoin:round;-inkscape-stroke:none"
     d="M 2.64635,3.1750502 2.3817667,3.4396335 H 1.8526 V 5.0276502 H 4.2333333 V 3.4396335 H 3.7041666 L 3.4395833,3.1750502 Z m 0.3963583,0.2645833 c 0.3653134,0 0.6614584,0.296145 0.6614583,0.6614584 0,0.3653133 -0.296145,0.6614583 -0.6614583,0.6614583 -0.3653134,1e-7 -0.6614584,-0.2961449 -0.6614584,-0.6614583 -10e-8,-0.3653134 0.296145,-0.6614585 0.6614584,-0.6614584 z"
     sodipodi:nodetypes="cccccccccsssss" />
  <path
     id="path2175"
     style="color:#000000;fill:#000000;fill-opacity:0.3;stroke-width:0.999958;stroke-linecap:round;stroke-linejoin:round;-inkscape-stroke:none"
     d="m 2.6391153,2.9104668 c -0.032756,0.00176 -0.063639,0.01583 -0.086816,0.039274 L 2.3275065,3.1760836 H 1.7203084 c -0.072647,-2.997e-4 -0.131939,0.05807 -0.1328085,0.1307415 v 1.8541502 c 8.695e-4,0.072672 0.060162,0.1310413 0.1328085,0.1307415 h 2.6447998 c 0.072647,2.91e-4 0.131939,-0.05807 0.1328084,-0.1307415 V 3.3068251 C 4.4970435,3.2341536 4.4377548,3.1757839 4.3651082,3.1760836 H 3.7599773 L 3.5331177,2.9497409 c -0.024722,-0.025006 -0.058378,-0.039138 -0.093534,-0.039274 h -0.79375 c -0.0022,8.5e-6 -0.00453,-1.17e-4 -0.00672,0 z m 0.00723,0.2645834 h 0.793238 l 0.2645833,0.2645833 c 3.439e-4,1.3e-6 6.895e-4,1.3e-6 0.00103,0 h 0.5271032 0.00103 v 1.5880167 h -0.00103 v 5.167e-4 H 1.8531168 V 5.0276502 H 1.8526 V 3.4396335 h 5.168e-4 0.5286499 5.168e-4 z m 0.396363,0.2645833 A 0.6614583,0.6614583 0 0 0 2.3812499,4.1010918 0.6614583,0.6614583 0 0 0 3.0427083,4.7625501 0.6614583,0.6614583 0 0 0 3.7041666,4.1010918 0.6614583,0.6614583 0 0 0 3.0427083,3.4396335 Z m 0,0.2645833 a 0.396875,0.396875 0 0 1 0.396875,0.396875 0.396875,0.396875 0 0 1 -0.396875,0.396875 0.396875,0.396875 0 0 1 -0.396875,-0.396875 0.396875,0.396875 0 0 1 0.396875,-0.396875 z" />
</svg>
