<?xml version="1.0" encoding="UTF-8" standalone="no"?>
<!-- Created with Inkscape (http://www.inkscape.org/) -->

<svg
   width="24"
   height="24"
   viewBox="0 0 6.3499997 6.3500003"
   version="1.1"
   id="svg2469"
   inkscape:version="1.1.2 (0a00cf5339, 2022-02-04, custom)"
   sodipodi:docname="user-trash-full.svg"
   xmlns:inkscape="http://www.inkscape.org/namespaces/inkscape"
   xmlns:sodipodi="http://sodipodi.sourceforge.net/DTD/sodipodi-0.dtd"
   xmlns="http://www.w3.org/2000/svg"
   xmlns:svg="http://www.w3.org/2000/svg">
  <sodipodi:namedview
     id="namedview2471"
     pagecolor="#ffffff"
     bordercolor="#666666"
     borderopacity="1.0"
     inkscape:pageshadow="2"
     inkscape:pageopacity="0.0"
     inkscape:pagecheckerboard="0"
     inkscape:document-units="px"
     showgrid="false"
     units="px"
     inkscape:zoom="19.045455"
     inkscape:cx="4.4367541"
     inkscape:cy="5.3818614"
     inkscape:window-width="1920"
     inkscape:window-height="1021"
     inkscape:window-x="0"
     inkscape:window-y="0"
     inkscape:window-maximized="1"
     inkscape:current-layer="svg2469"
     showguides="false" />
  <defs
     id="defs2466" />
  <path
     style="color:#000000;fill:#b3b3b3;stroke:none;stroke-width:0.264583;stroke-linecap:round;stroke-linejoin:round;-inkscape-stroke:none"
     d="M 5.1601562,1.3229165 A 1.984375,0.66145831 0 0 1 3.1757812,1.9843748 1.984375,0.66145831 0 0 1 1.1914062,1.3229165 1.984375,0.66145831 0 0 1 3.1757812,0.66145819 1.984375,0.66145831 0 0 1 5.1601562,1.3229165 Z"
     id="path3355" />
  <path
     style="color:#000000;opacity:0.3;fill:#000000;stroke:none;stroke-linecap:round;stroke-linejoin:round;-inkscape-stroke:none"
     d="m 3.1755209,0.52825522 c -0.5598855,0 -1.0670606,0.0750879 -1.4453126,0.20117187 C 1.5410824,0.79246908 1.3841815,0.8682107 1.2653646,0.96184896 1.1465476,1.0554872 1.0583333,1.1782272 1.0583333,1.323177 c 0,0.14495 0.088214,0.2676899 0.2070313,0.3613282 0.1188169,0.093638 0.2757178,0.1693799 0.4648437,0.2324218 0.378252,0.126084 0.8854271,0.1992188 1.4453126,0.1992188 0.5598854,0 1.0670605,-0.073135 1.4453124,-0.1992188 C 4.8099593,1.8538851 4.9668602,1.7781434 5.0856771,1.6845052 5.204494,1.5908669 5.2927083,1.468127 5.2927083,1.323177 5.2927084,1.1782272 5.204494,1.0554872 5.0856771,0.96184896 4.9668602,0.8682107 4.8099593,0.79246908 4.6208333,0.72942709 4.2425814,0.60334311 3.7354063,0.52825521 3.1755209,0.52825522 Z m 0,0.26562499 c 0.5360535,0 1.0213782,0.0741834 1.3613281,0.1875 0.1699749,0.0566583 0.3027531,0.12286689 0.3847656,0.18749999 0.082013,0.064633 0.1054687,0.1165903 0.1054687,0.1542968 0,0.037707 -0.023456,0.087711 -0.1054687,0.1523438 -0.082013,0.064633 -0.2147907,0.1327948 -0.3847656,0.1894531 -0.3399499,0.1133166 -0.8252746,0.1875 -1.3613281,0.1875 -0.5360536,0 -1.0213783,-0.074183 -1.3613282,-0.1875 C 1.6442178,1.6083156 1.5114396,1.5401539 1.4294271,1.4755208 1.3474146,1.4108877 1.3239583,1.3608836 1.3239583,1.323177 c 0,-0.037707 0.023456,-0.089664 0.1054688,-0.1542968 0.082013,-0.064633 0.2147907,-0.1308417 0.3847656,-0.18749999 0.3399499,-0.1133166 0.8252746,-0.18749999 1.3613282,-0.1875 z"
     id="path3357" />
  <g
     id="g4944"
     transform="rotate(5.5,12.184356,-20.304358)">
    <path
       id="rect4059"
       style="opacity:1;fill:#fafafa;stroke-width:0.264583;stroke-linecap:round;stroke-linejoin:bevel"
       d="M 4.6302085,1.984375 H 7.0114584 V 4.8947916 H 4.6302085 Z"
       sodipodi:nodetypes="ccccc" />
    <path
       id="rect4207"
       style="opacity:0.2;fill:#4f6698;fill-opacity:1;stroke:none;stroke-width:1.10782;stroke-linecap:round;stroke-linejoin:bevel;stroke-miterlimit:4;stroke-dasharray:none;stroke-opacity:1"
       d="M 17.5,7 C 17.223,7 17,7.223 17,7.5 v 11 c 0,0.277 0.223,0.5 0.5,0.5 h 9 C 26.777,19 27,18.777 27,18.5 V 7.5 C 27,7.223 26.777,7 26.5,7 Z M 18,8 h 8 v 10 h -8 z"
       transform="scale(0.26458333)"
       sodipodi:nodetypes="sssssssssccccc" />
  </g>
  <g
     id="g5153"
     transform="rotate(30,2.7323466,0.78795193)">
    <path
       id="rect4059-3-2"
       style="fill:#fafafa;stroke-width:0.264583;stroke-linecap:round;stroke-linejoin:bevel"
       d="M 2.2753762,0.75304082 4.575487,0.13672801 5.3287582,2.9479745 3.0286474,3.5642874 Z"
       sodipodi:nodetypes="ccccc" />
    <path
       id="rect4207-5-9"
       style="opacity:0.2;fill:#4f6698;fill-opacity:1;stroke:none;stroke-width:0.293111;stroke-linecap:round;stroke-linejoin:bevel;stroke-miterlimit:4;stroke-dasharray:none;stroke-opacity:1"
       d="m 2.2411364,0.62525688 c -0.070791,0.0189729 -0.112513,0.0912314 -0.093544,0.16202351 L 2.9008633,3.598527 c 0.018973,0.070791 0.091231,0.112513 0.1620235,0.093544 L 5.3629976,3.0757585 C 5.4337896,3.0567894 5.4755107,2.9845272 5.456542,2.913735 L 4.7032708,0.10248836 C 4.6843021,0.03169612 4.6120395,-0.01002468 4.5412472,0.00894406 Z m 0.1962631,0.22132825 2.044543,-0.54783354 0.684792,2.55567871 -2.044543,0.5478336 z"
       sodipodi:nodetypes="sssssssssccccc" />
  </g>
  <g
     id="g4989"
     transform="rotate(-20.5,12.435982,4.9691182)">
    <path
       id="rect4059-3"
       style="fill:#fafafa;stroke-width:0.264583;stroke-linecap:round;stroke-linejoin:bevel"
       d="M 3.3025919,-2.2711275 5.672879,-2.0428948 5.3939279,0.85412277 3.0236408,0.62589009 Z"
       sodipodi:nodetypes="ccccc" />
    <path
       id="rect4207-5"
       style="opacity:0.2;fill:#4f6698;fill-opacity:1;stroke:none;stroke-width:0.293111;stroke-linecap:round;stroke-linejoin:bevel;stroke-miterlimit:4;stroke-dasharray:none;stroke-opacity:1"
       d="m 3.3152713,-2.4028102 c -0.072952,-0.00702 -0.1373377,0.046051 -0.1443622,0.119003 L 2.891958,0.61321047 c -0.00702,0.0729522 0.046051,0.13733772 0.119003,0.14436222 L 5.3812481,0.9858054 C 5.4542001,0.9928294 5.5185859,0.9397545 5.5256104,0.86680237 L 5.8045615,-2.0302153 C 5.811586,-2.1031674 5.7585106,-2.167553 5.6855584,-2.1745775 Z M 3.4215947,-2.1267654 5.5285166,-1.9238918 5.2749247,0.70976056 3.1680028,0.50688704 Z"
       sodipodi:nodetypes="sssssssssccccc" />
  </g>
  <path
     style="color:#000000;fill:#d8d8d8;stroke:none;stroke-width:0.264583;stroke-linecap:round;stroke-linejoin:bevel;-inkscape-stroke:none"
     d="M 1.1914062,1.4552083 1.7205729,5.1593749 A 1.4552083,0.52916663 0 0 0 3.1757812,5.6885416 1.4552083,0.52916663 0 0 0 4.6309895,5.1593749 L 5.1601562,1.4552083 H 5.1188151 C 4.9303172,1.7630243 4.1182712,1.9841772 3.1757812,1.9843749 2.2332914,1.9841772 1.4212452,1.7630243 1.2327474,1.4552083 Z"
     id="path3361" />
  <path
     style="color:#000000;opacity:0.3;fill:#000000;stroke:none;stroke-width:0.264583;stroke-linecap:round;stroke-linejoin:bevel;-inkscape-stroke:none"
     d="M 1.1914062,1.3229166 H 1.0591146 l 0.5307169,3.8550617 -0.00155,-0.018603 c 0,0.1222158 0.068493,0.2276007 0.160197,0.3064412 0.091704,0.078841 0.2111246,0.1406634 0.35295,0.1922365 0.2836509,0.1031457 0.6595095,0.1627806 1.074353,0.1627806 0.4148434,0 0.7907023,-0.059635 1.0743531,-0.1627806 C 4.39196,5.60648 4.511381,5.5446571 4.6030845,5.4658165 4.6947885,5.3869755 4.7632815,5.2815911 4.7632815,5.1593753 l -0.00156,0.018603 0.5307277,-3.8550612 H 5.1601575 5.1188151 L 5.0061605,1.3859619 C 4.9487266,1.4797511 4.7249801,1.6176163 4.395345,1.7073893 4.0657099,1.7971622 3.6366864,1.8519866 3.1757812,1.8520833 2.7148761,1.8519866 2.2858525,1.7971622 1.9562174,1.7073893 1.6265824,1.6176163 1.4028359,1.479751 1.345402,1.3859619 L 1.2327474,1.3229166 Z M 1.3655558,1.7409789 C 1.5068192,1.8302559 1.6759291,1.9051956 1.886971,1.9626708 2.2461053,2.0604778 2.6941974,2.1165656 3.1757812,2.1166666 3.657365,2.1165656 4.1054572,2.0604776 4.4645915,1.9626708 4.6756332,1.9051958 4.8447432,1.8302559 4.9860067,1.7409789 l -0.4857586,3.3997924 -0.00155,0.018604 c 0,0.02391 -0.012642,0.057644 -0.068213,0.1054198 -0.055571,0.047777 -0.1492694,0.09999 -0.2707846,0.1441773 -0.2430304,0.088375 -0.5950741,0.1472779 -0.9839193,0.1472779 -0.3888451,0 -0.7408888,-0.058903 -0.9839192,-0.1472779 C 2.0703468,5.3647847 1.9766488,5.3125713 1.9210775,5.2647947 1.8655061,5.2170184 1.8528646,5.1832842 1.8528646,5.1593749 l -0.00155,-0.018603 z"
     id="path3363"
     sodipodi:nodetypes="ccccsssssccccccscsccccscscccsssssccc" />
</svg>
