<?xml version="1.0" encoding="UTF-8" standalone="no"?>
<!-- Created with Inkscape (http://www.inkscape.org/) -->

<svg
   width="48"
   height="48"
   viewBox="0 0 12.7 12.7"
   version="1.1"
   id="svg5"
   inkscape:version="1.1.2 (0a00cf5339, 2022-02-04, custom)"
   sodipodi:docname="foursquare.svg"
   xmlns:inkscape="http://www.inkscape.org/namespaces/inkscape"
   xmlns:sodipodi="http://sodipodi.sourceforge.net/DTD/sodipodi-0.dtd"
   xmlns="http://www.w3.org/2000/svg"
   xmlns:svg="http://www.w3.org/2000/svg">
  <sodipodi:namedview
     id="namedview7"
     pagecolor="#ffffff"
     bordercolor="#666666"
     borderopacity="1.0"
     inkscape:pageshadow="2"
     inkscape:pageopacity="0.0"
     inkscape:pagecheckerboard="0"
     inkscape:document-units="px"
     showgrid="false"
     units="px"
     height="64px"
     inkscape:zoom="17.541667"
     inkscape:cx="23.971496"
     inkscape:cy="24"
     inkscape:window-width="1920"
     inkscape:window-height="1019"
     inkscape:window-x="0"
     inkscape:window-y="31"
     inkscape:window-maximized="1"
     inkscape:current-layer="svg5" />
  <defs
     id="defs2" />
  <path
     id="rect926"
     style="opacity:1;fill:#ef2976;stroke-width:0.529167;stroke-linecap:round;stroke-linejoin:round;fill-opacity:1"
     d="m 2.1166666,1.190625 h 8.4666664 c 0.513027,0 0.926041,0.4130145 0.926041,0.9260416 v 8.4666664 c 0,0.513027 -0.413014,0.926041 -0.926041,0.926041 H 2.1166666 c -0.5130271,0 -0.9260416,-0.413014 -0.9260416,-0.926041 V 2.1166666 c 0,-0.5130271 0.4130145,-0.9260416 0.9260416,-0.9260416 z"
     sodipodi:nodetypes="sssssssss" />
  <path
     id="rect1360"
     style="opacity:0.75;fill:#a40c46;fill-opacity:1;stroke-width:0.529167;stroke-linecap:round;stroke-linejoin:round"
     d="m 2.1166667,1.0583333 c -0.5863167,0 -1.0583334,0.4720167 -1.0583334,1.0583333 v 8.4666664 c 0,0.586317 0.4720167,1.058333 1.0583334,1.058333 h 8.4666663 c 0.586317,0 1.058334,-0.472016 1.058334,-1.058333 V 2.1166666 c 0,-0.5863166 -0.472017,-1.0583333 -1.058334,-1.0583333 z m 0,0.2645833 h 8.4666663 c 0.439738,0 0.79375,0.3540125 0.79375,0.79375 v 8.4666664 c 0,0.439737 -0.354012,0.79375 -0.79375,0.79375 H 2.1166667 c -0.4397375,0 -0.79375,-0.354013 -0.79375,-0.79375 V 2.1166666 c 0,-0.4397375 0.3540125,-0.79375 0.79375,-0.79375 z"
     sodipodi:nodetypes="ssssssssssssssssss" />
  <path
     d="M 8.074025,4.1682458 7.9091896,4.9638479 C 7.8875837,5.0560732 7.8062476,5.1219476 7.7115458,5.1239208 H 6.28015 c -0.1598083,0 -0.2918354,0.1317625 -0.2918354,0.2918355 v 0.1743604 c 0,0.1600729 0.1320271,0.2918354 0.2921,0.2918354 H 7.4903542 C 7.6083308,5.8841521 7.6959561,5.9919748 7.673975,6.1079063 7.650162,6.2304083 7.5231625,6.85165 7.5091396,6.9175313 7.4996096,6.9881753 7.4244726,7.0776042 7.3112313,7.0776042 H 6.3227479 c -0.2071687,0.00476 -0.2495021,0.00953 -0.3720041,0.1600729 -0.1225021,0.1508125 -1.2051771,1.5065375 -1.2051771,1.5065375 -0.00953,0.014288 -0.018785,0.00953 -0.018785,-0.0045 V 4.130675 c 0,-0.1084792 0.089429,-0.1979083 0.1976438,-0.1979083 h 2.9707412 c 0.1034521,0 0.2071687,0.1037166 0.1788583,0.2354791 M 8.2904542,3.175 H 4.6233292 C 4.119298,3.175 3.96875,3.556 3.96875,3.7962417 v 5.8285062 c 0,0.287073 0.14605,0.37174 0.2259542,0.4048121 0.080169,0.03307 0.2918354,0.05636 0.4426479,-0.09419 L 6.4074146,7.8734708 c 0.02831,-0.033073 0.042333,-0.033073 0.061119,-0.033073 h 1.101725 c 0.4709584,0 0.5603875,-0.3249083 0.6119813,-0.5225521 C 8.2245729,7.1530104 8.7095542,4.7990125 8.8603667,4.0552687 8.9733437,3.4811229 8.8272937,3.175 8.2904542,3.175"
     style="fill:#ffffff;stroke-width:0.264583"
     id="path854" />
</svg>
