<?xml version="1.0" encoding="UTF-8" standalone="no"?>
<!-- Created with Inkscape (http://www.inkscape.org/) -->

<svg
   width="48"
   height="48"
   viewBox="0 0 12.7 12.7"
   version="1.1"
   id="svg5"
   inkscape:version="1.1.2 (0a00cf5339, 2022-02-04, custom)"
   sodipodi:docname="ktip.svg"
   xmlns:inkscape="http://www.inkscape.org/namespaces/inkscape"
   xmlns:sodipodi="http://sodipodi.sourceforge.net/DTD/sodipodi-0.dtd"
   xmlns="http://www.w3.org/2000/svg"
   xmlns:svg="http://www.w3.org/2000/svg">
  <sodipodi:namedview
     id="namedview7"
     pagecolor="#ffffff"
     bordercolor="#666666"
     borderopacity="1.0"
     inkscape:pageshadow="2"
     inkscape:pageopacity="0.0"
     inkscape:pagecheckerboard="0"
     inkscape:document-units="px"
     showgrid="false"
     units="px"
     height="64px"
     inkscape:zoom="16.729167"
     inkscape:cx="24"
     inkscape:cy="24.029887"
     inkscape:window-width="1851"
     inkscape:window-height="1009"
     inkscape:window-x="69"
     inkscape:window-y="31"
     inkscape:window-maximized="1"
     inkscape:current-layer="svg5" />
  <defs
     id="defs2" />
  <path
     style="color:#000000;fill:#52a6f5;stroke:none;stroke-width:0.264583;stroke-linejoin:round;-inkscape-stroke:none;fill-opacity:1"
     d="M 11.773958,6.3500006 A 5.4239587,5.4239588 0 0 1 6.3500004,11.773958 5.4239587,5.4239588 0 0 1 0.92604168,6.3500006 5.4239587,5.4239588 0 0 1 6.3500004,0.92604168 5.4239587,5.4239588 0 0 1 11.773958,6.3500006 Z"
     id="path1283" />
  <path
     style="color:#000000;opacity:0.35;fill:#002e99;stroke:none;stroke-width:0.99993;stroke-linejoin:round;-inkscape-stroke:none;fill-opacity:1"
     d="M 6.3500001,0.79375001 C 3.2831533,0.79375 0.79374994,3.2831532 0.79375001,6.3500001 0.7937508,9.4168463 3.2831539,11.90625 6.3500001,11.90625 c 3.0668457,-10e-7 5.5562489,-2.4894041 5.5562499,-5.5562499 0,-3.0668464 -2.4894036,-5.55624947 -5.5562499,-5.55625009 z m 0,0.26560629 c 2.9238651,6e-7 5.2925959,2.3667787 5.2925959,5.2906438 -10e-7,2.9238646 -2.3687314,5.2925959 -5.2925959,5.2925959 -2.9238649,0 -5.290643,-2.3687309 -5.2906438,-5.2925959 0,-2.9238656 2.3667783,-5.2906438 5.2906438,-5.2906438 z"
     id="path1285" />
  <path
     d="m 6.3118638,3.8822586 c -0.1703065,0 -0.3167703,-0.06131 -0.4393911,-0.183931 C 5.749852,3.5757068 5.6885417,3.4292433 5.6885417,3.2589368 c 0,-0.1703067 0.061311,-0.3133641 0.183931,-0.4291725 0.1226208,-0.1226207 0.2690846,-0.183931 0.4393911,-0.183931 0.1703058,0 0.3167696,0.061311 0.4393906,0.183931 0.1226202,0.1158084 0.1839307,0.2588658 0.1839307,0.4291725 0,0.1703065 -0.061313,0.31677 -0.1839307,0.4393908 -0.1158089,0.1226207 -0.2622719,0.183931 -0.4393906,0.183931 z M 5.8826911,4.8427874 H 6.7410358 V 10.054167 H 5.8826911 Z"
     style="font-size:13.8678px;line-height:1.25;font-family:'Google Sans';-inkscape-font-specification:'Google Sans';fill:#f2f2f2;fill-opacity:1;stroke-width:0.0675906"
     id="path48347" />
</svg>
