<?xml version="1.0" encoding="UTF-8" standalone="no"?>
<!-- Created with Inkscape (http://www.inkscape.org/) -->

<svg
   width="48"
   height="48"
   viewBox="0 0 12.7 12.7"
   version="1.1"
   id="svg5"
   inkscape:version="1.1.2 (0a00cf5339, 2022-02-04, custom)"
   sodipodi:docname="lastfm.svg"
   xmlns:inkscape="http://www.inkscape.org/namespaces/inkscape"
   xmlns:sodipodi="http://sodipodi.sourceforge.net/DTD/sodipodi-0.dtd"
   xmlns="http://www.w3.org/2000/svg"
   xmlns:svg="http://www.w3.org/2000/svg">
  <sodipodi:namedview
     id="namedview7"
     pagecolor="#ffffff"
     bordercolor="#666666"
     borderopacity="1.0"
     inkscape:pageshadow="2"
     inkscape:pageopacity="0.0"
     inkscape:pagecheckerboard="0"
     inkscape:document-units="px"
     showgrid="false"
     units="px"
     height="64px"
     inkscape:zoom="17.541667"
     inkscape:cx="23.971496"
     inkscape:cy="24"
     inkscape:window-width="1920"
     inkscape:window-height="1019"
     inkscape:window-x="0"
     inkscape:window-y="31"
     inkscape:window-maximized="1"
     inkscape:current-layer="svg5"
     showguides="false" />
  <defs
     id="defs2" />
  <path
     style="color:#000000;fill:#961919;stroke:none;stroke-width:0.25813;stroke-linejoin:round;-inkscape-stroke:none;opacity:0.9;fill-opacity:1"
     d="M 11.641667,6.3500008 A 5.2916672,5.2916673 0 0 1 6.3500006,11.641667 5.2916672,5.2916673 0 0 1 1.0583333,6.3500008 5.2916672,5.2916673 0 0 1 6.3500006,1.0583333 5.2916672,5.2916673 0 0 1 11.641667,6.3500008 Z"
     id="path1283" />
  <circle
     style="opacity:1;fill:#e33035;stroke-width:0.558565;stroke-linecap:round;stroke-linejoin:round;fill-opacity:1"
     id="path1041"
     cx="6.3499999"
     cy="6.3499999"
     r="5.0270834" />
  <path
     d="M 4.6533332,8.4464514 C 4.5156943,8.4279305 4.2708514,8.348238 4.1075506,8.2696303 3.0435022,7.7597783 2.608342,6.4756495 3.1324288,5.3941387 3.7311543,4.1573968 5.3648241,3.8421193 6.34791,4.7736643 c 0.2842683,0.268949 0.4105276,0.4984486 0.838544,1.5160096 0.4468018,1.0641542 0.5293783,1.2314766 0.6741583,1.3733462 0.1551093,0.1508919 0.2988468,0.2017184 0.5738548,0.2017184 0.451829,0 0.7744883,-0.2792677 0.7744883,-0.6689461 0,-0.3298296 -0.1159351,-0.4354512 -0.7072577,-0.6453716 C 7.6012147,6.2256183 7.3095382,5.9320631 7.3084798,5.3425185 c 0,-0.3144838 0.079671,-0.5241396 0.2821517,-0.7414683 C 7.8812497,4.2908262 8.3825823,4.1883795 8.8262092,4.34242 9.015463,4.409677 9.4114411,4.7601441 9.4114411,4.8604741 c 0,0.04871 -0.2294864,0.197485 -0.3567907,0.2327011 -0.067231,0.017462 -0.1251981,-0.00529 -0.2027528,-0.079693 -0.157226,-0.1508919 -0.2636308,-0.197485 -0.451829,-0.197485 -0.3247761,0 -0.5262034,0.1953683 -0.5262034,0.5109104 0,0.3144837 0.1281086,0.4208991 0.7681384,0.636905 0.8819358,0.297815 1.1423907,0.5667639 1.1476828,1.1891168 0.0053,0.5376334 -0.2368971,0.9254331 -0.7186344,1.1549327 -0.2191624,0.103505 -0.2935288,0.1167606 -0.6514042,0.1167606 -0.5108575,0 -0.7403306,-0.095038 -1.0267421,-0.4177241 C 7.2004768,7.7898349 7.0051323,7.3824295 6.3796838,5.8952595 6.120289,5.278992 5.7873082,4.9769437 5.2320008,4.8580929 4.9506428,4.798006 4.5589007,4.8538595 4.3034718,4.9883472 4.0543985,5.1185752 3.7762102,5.4124214 3.644924,5.6811058 3.5364025,5.8992283 3.5260784,5.9603735 3.5260784,6.3397066 c 0,0.3618706 0.014557,0.4476485 0.1053465,0.6461654 0.1376389,0.3031067 0.4084109,0.5831681 0.7061994,0.73406 0.2151936,0.1085321 0.2821517,0.1220523 0.6254487,0.1220523 0.3298031,0 0.4144962,-0.01561 0.611161,-0.1095904 C 5.7986906,7.622777 6.1004372,7.3538281 6.2235215,7.1524008 L 6.2875774,7.0478374 6.413834,7.3363656 c 0.070408,0.1593585 0.1270502,0.309192 0.1270502,0.3361795 0,0.079693 -0.2853266,0.3401748 -0.5468408,0.5024438 -0.3970338,0.2451364 -0.853096,0.3369733 -1.3401145,0.270801"
     style="fill:#ffffff;stroke-width:0.264583"
     id="path874" />
</svg>
