<?xml version="1.0" encoding="UTF-8" standalone="no"?>
<!-- Created with Inkscape (http://www.inkscape.org/) -->

<svg
   width="48"
   height="48"
   viewBox="0 0 12.7 12.7"
   version="1.1"
   id="svg5"
   inkscape:version="1.1.2 (0a00cf5339, 2022-02-04, custom)"
   sodipodi:docname="microsoft.svg"
   xmlns:inkscape="http://www.inkscape.org/namespaces/inkscape"
   xmlns:sodipodi="http://sodipodi.sourceforge.net/DTD/sodipodi-0.dtd"
   xmlns="http://www.w3.org/2000/svg"
   xmlns:svg="http://www.w3.org/2000/svg">
  <sodipodi:namedview
     id="namedview7"
     pagecolor="#ffffff"
     bordercolor="#666666"
     borderopacity="1.0"
     inkscape:pageshadow="2"
     inkscape:pageopacity="0.0"
     inkscape:pagecheckerboard="0"
     inkscape:document-units="px"
     showgrid="false"
     units="px"
     height="64px"
     inkscape:zoom="17.541667"
     inkscape:cx="23.971496"
     inkscape:cy="24"
     inkscape:window-width="1920"
     inkscape:window-height="1019"
     inkscape:window-x="0"
     inkscape:window-y="31"
     inkscape:window-maximized="1"
     inkscape:current-layer="svg5" />
  <defs
     id="defs2" />
  <path
     id="rect926"
     style="opacity:1;fill:#f6f5f4;stroke-width:0.529167;stroke-linecap:round;stroke-linejoin:round;fill-opacity:1"
     d="m 2.1166666,1.190625 h 8.4666664 c 0.513027,0 0.926041,0.4130145 0.926041,0.9260416 v 8.4666664 c 0,0.513027 -0.413014,0.926041 -0.926041,0.926041 H 2.1166666 c -0.5130271,0 -0.9260416,-0.413014 -0.9260416,-0.926041 V 2.1166666 c 0,-0.5130271 0.4130145,-0.9260416 0.9260416,-0.9260416 z"
     sodipodi:nodetypes="sssssssss" />
  <path
     id="rect1360"
     style="opacity:0.2;fill:#000000;fill-opacity:1;stroke-width:0.529167;stroke-linecap:round;stroke-linejoin:round"
     d="m 2.1166667,1.0583333 c -0.5863167,0 -1.0583334,0.4720167 -1.0583334,1.0583333 v 8.4666664 c 0,0.586317 0.4720167,1.058333 1.0583334,1.058333 h 8.4666663 c 0.586317,0 1.058334,-0.472016 1.058334,-1.058333 V 2.1166666 c 0,-0.5863166 -0.472017,-1.0583333 -1.058334,-1.0583333 z m 0,0.2645833 h 8.4666663 c 0.439738,0 0.79375,0.3540125 0.79375,0.79375 v 8.4666664 c 0,0.439737 -0.354012,0.79375 -0.79375,0.79375 H 2.1166667 c -0.4397375,0 -0.79375,-0.354013 -0.79375,-0.79375 V 2.1166666 c 0,-0.4397375 0.3540125,-0.79375 0.79375,-0.79375 z"
     sodipodi:nodetypes="ssssssssssssssssss" />
  <rect
     style="fill:#00aeef;fill-opacity:1;stroke-width:0.529167;stroke-linecap:round;stroke-linejoin:round"
     id="rect881"
     width="2.9102845"
     height="2.9102845"
     x="3.175"
     y="6.6147127" />
  <rect
     style="fill:#f26522;fill-opacity:1;stroke-width:0.529167;stroke-linecap:round;stroke-linejoin:round"
     id="rect3111"
     width="2.9102845"
     height="2.9102845"
     x="3.175"
     y="3.175" />
  <rect
     style="fill:#ffc20e;fill-opacity:1;stroke-width:0.529167;stroke-linecap:round;stroke-linejoin:round"
     id="rect6140"
     width="2.9102845"
     height="2.9102845"
     x="6.6147161"
     y="6.6147156" />
  <rect
     style="fill:#8dc63f;fill-opacity:1;stroke-width:0.529167;stroke-linecap:round;stroke-linejoin:round"
     id="rect9013"
     width="2.9102845"
     height="2.9102845"
     x="6.6147161"
     y="3.175" />
</svg>
