<?xml version="1.0" encoding="UTF-8" standalone="no"?>
<!-- Created with Inkscape (http://www.inkscape.org/) -->

<svg
   width="48"
   height="48"
   viewBox="0 0 12.7 12.7"
   version="1.1"
   id="svg5"
   inkscape:version="1.1.2 (0a00cf5339, 2022-02-04, custom)"
   sodipodi:docname="ms-exchange.svg"
   xmlns:inkscape="http://www.inkscape.org/namespaces/inkscape"
   xmlns:sodipodi="http://sodipodi.sourceforge.net/DTD/sodipodi-0.dtd"
   xmlns="http://www.w3.org/2000/svg"
   xmlns:svg="http://www.w3.org/2000/svg">
  <sodipodi:namedview
     id="namedview7"
     pagecolor="#ffffff"
     bordercolor="#666666"
     borderopacity="1.0"
     inkscape:pageshadow="2"
     inkscape:pageopacity="0.0"
     inkscape:pagecheckerboard="0"
     inkscape:document-units="px"
     showgrid="false"
     units="px"
     height="64px"
     inkscape:zoom="17.541667"
     inkscape:cx="23.971496"
     inkscape:cy="24"
     inkscape:window-width="1920"
     inkscape:window-height="1019"
     inkscape:window-x="0"
     inkscape:window-y="31"
     inkscape:window-maximized="1"
     inkscape:current-layer="svg5" />
  <defs
     id="defs2" />
  <path
     style="color:#000000;opacity:0.2;fill:#000000;stroke-linecap:round;stroke-linejoin:round;-inkscape-stroke:none"
     d="m 10.453113,1.0585937 c 0.655029,0 1.189453,0.5344241 1.189453,1.1894532 v 1.984375 c 0.0023,0.5215237 -0.191942,0.8250808 -0.470703,1.1113281 a -0.26460981,0.26460981 0 0 1 -0.0039,0.00195 l -5.8203122,5.822266 a -0.26460981,0.26460981 0 0 1 -0.00195,0.002 C 5.059869,11.448312 4.754466,11.644305 4.2343626,11.642622 H 2.2499872 c -0.655029,0 -1.191406,-0.536377 -1.191406,-1.191406 V 8.4667969 a -0.26460981,0.26460981 0 0 1 0,-0.00391 c 0.00543,-0.4099548 0.112187,-0.7481561 0.476563,-1.1093713 L 7.3554571,1.5332031 a -0.26460981,0.26460981 0 0 1 0.00195,-0.00391 C 7.6436579,1.2505357 7.9472154,1.0563231 8.4687383,1.0585937 Z m 0,0.5292969 H 8.4687383 a -0.26460981,0.26460981 0 0 1 -0.00195,0 C 8.0427527,1.5860406 7.9928595,1.6508156 7.7265539,1.9101562 L 1.9081942,7.7285156 a -0.26460981,0.26460981 0 0 1 -0.002,0 c -0.307147,0.3044827 -0.313573,0.3809362 -0.318359,0.7421875 v 1.9804689 c 0,0.371024 0.291085,0.662109 0.662109,0.662109 h 1.9844191 a -0.26460981,0.26460981 0 0 1 0.00195,0 c 0.4240347,0.0018 0.4739284,-0.06292 0.7402344,-0.322265 L 10.791004,4.9746094 C 11.050345,4.7083034 11.115117,4.6584097 11.11327,4.234375 a -0.26460981,0.26460981 0 0 1 0,-0.00195 V 2.24805 c 0,-0.3710242 -0.289133,-0.6601563 -0.660157,-0.6601563 z"
     id="path4739" />
  <path
     style="color:#000000;fill:#00a0f8;stroke-width:0.529167;stroke-linecap:round;stroke-linejoin:round;-inkscape-stroke:none;fill-opacity:1"
     d="m 10.451034,1.3229339 c 0.513027,0 0.926042,0.4130145 0.926042,0.9260416 v 1.984375 c 0.0021,0.4727797 -0.127824,0.6497648 -0.396875,0.9260417 L 5.1593677,10.980226 C 4.8830908,11.249277 4.7061057,11.379161 4.233326,11.377101 H 2.2489507 c -0.513027,0 -0.926041,-0.413015 -0.926041,-0.926042 V 8.4666838 c 0.00511,-0.3856053 0.061113,-0.5931924 0.396875,-0.9260417 L 7.5406176,1.7198089 C 7.8168945,1.4507577 7.9938796,1.3208755 8.4666593,1.3229339 Z"
     id="path4737"
     sodipodi:nodetypes="ssccccssccccs" />
  <path
     style="color:#000000;fill:#000000;stroke:none;stroke-width:1.00013;stroke-linecap:round;stroke-linejoin:round;stroke-miterlimit:4;stroke-dasharray:none;opacity:0.2"
     d="m 2.2480469,1.0585937 c -0.6550291,0 -1.1894531,0.5344242 -1.1894532,1.1894532 v 1.984375 c -0.00232,0.521544 0.1919504,0.82509 0.4707032,1.1113281 a 0.26460996,0.26460996 0 0 0 0.00391,0.00195 L 2.0625,5.875 a 0.26460996,0.26460996 0 0 0 0.00195,0.00391 c 0.2862472,0.2787594 0.5898041,0.4729756 1.1113282,0.4707032 h 1.9843749 c 0.6550289,0 1.1894532,-0.5344246 1.1894532,-1.1894532 V 3.1757813 a 0.26460996,0.26460996 0 0 0 0,-0.00391 C 6.3441953,2.7625212 6.2380671,2.423112 5.875,2.0625 V 2.06055 L 5.3457031,1.5332031 A 0.26460996,0.26460996 0 0 0 5.34375,1.5292969 C 5.0575023,1.2505358 4.7539451,1.0563232 4.2324219,1.0585937 Z m 0,0.5292969 h 1.984375 a 0.26460996,0.26460996 0 0 0 0.00195,0 c 0.4240359,-0.00185 0.4739287,0.062925 0.7402344,0.3222656 L 5.50195,2.4355469 a 0.26460996,0.26460996 0 0 0 0,0.00195 c 0.3071501,0.3044835 0.3135816,0.3789883 0.3183594,0.7402344 v 1.9824218 c 0,0.3710245 -0.2891321,0.6601563 -0.6601563,0.6601563 H 3.1757813 a 0.26460996,0.26460996 0 0 0 -0.00195,0 C 2.7497932,5.8221601 2.6999,5.7573869 2.4335938,5.4980469 L 1.9101562,4.9746094 C 1.6508056,4.7082944 1.5860072,4.6583897 1.5878906,4.234375 a 0.26460996,0.26460996 0 0 0 0,-0.00195 V 2.24805 c 0,-0.3710244 0.2891323,-0.6601563 0.6601563,-0.6601563 z"
     id="path6394" />
  <path
     style="color:#000000;fill:#000000;stroke:none;stroke-width:1.00013;stroke-linecap:round;stroke-linejoin:round;stroke-miterlimit:4;stroke-dasharray:none;opacity:0.2"
     d="m 7.5410156,6.3496094 c -0.655029,0 -1.1914062,0.5363772 -1.1914062,1.1914062 v 1.984375 c -0.00173,0.5201224 0.1943183,0.8235624 0.4726562,1.1093754 a 0.26460996,0.26460996 0 0 0 0.00195,0.0039 l 0.5292969,0.529297 a 0.26460996,0.26460996 0 0 0 0.00195,0.002 c 0.2858217,0.278345 0.5912245,0.474339 1.1113282,0.472656 h 1.9843753 c 0.655029,0 1.191406,-0.536378 1.191406,-1.191406 V 8.4667969 a 0.26460996,0.26460996 0 0 0 0,-0.00391 C 11.637156,8.0529274 11.530393,7.7147294 11.166016,7.3535156 L 10.638672,6.8242187 a 0.26460996,0.26460996 0 0 0 -0.0039,-0.00195 C 10.348944,6.5439194 10.045492,6.3479295 9.5253906,6.3496094 Z m 0,0.5292968 h 1.984375 c 0.4240364,-0.00185 0.4739288,0.062925 0.7402344,0.3222657 l 0.527344,0.5273437 a 0.26460996,0.26460996 0 0 0 0.002,0 c 0.30715,0.3044836 0.313581,0.3809415 0.318359,0.7421875 v 1.9804689 c 0,0.371024 -0.291085,0.662109 -0.662109,0.662109 H 8.4667969 a 0.26460996,0.26460996 0 0 0 -0.00195,0 c -0.424035,0.0018 -0.4739281,-0.06292 -0.7402344,-0.322265 l -0.5234375,-0.525391 -0.00195,-0.002 C 6.9419301,9.999572 6.8770289,9.9480563 6.8789062,9.5253906 v -1.984375 c 0,-0.3710243 0.2910855,-0.6621094 0.6621094,-0.6621094 z"
     id="path6350" />
  <path
     style="color:#000000;fill:#006de5;stroke:none;stroke-width:1.00013;stroke-linecap:round;stroke-linejoin:round;stroke-miterlimit:4;stroke-dasharray:none;fill-opacity:1"
     d="m 7.5406423,6.6146006 c -0.513027,0 -0.926041,0.4130145 -0.926041,0.9260417 V 9.525017 c -0.0021,0.4727807 0.127823,0.649766 0.396875,0.926043 l 0.5291653,0.529168 c 0.276277,0.26905 0.4532616,0.398934 0.9260416,0.396874 H 10.45106 c 0.513027,0 0.92604,-0.413014 0.92604,-0.926041 V 8.4666836 C 11.372,8.0810786 11.31599,7.8734916 10.980226,7.5406426 L 10.45106,7.0114756 C 10.174783,6.7424245 9.9977977,6.6125423 9.5250172,6.6146006 Z"
     id="path6348" />
  <path
     style="color:#000000;fill:#27beff;stroke:none;stroke-width:1.00013;stroke-linecap:round;stroke-linejoin:round;stroke-miterlimit:4;stroke-dasharray:none;fill-opacity:1"
     d="m 2.2489754,1.3229339 c -0.513027,0 -0.926041,0.4130145 -0.926041,0.9260417 v 1.984375 c -0.0021,0.4727798 0.127823,0.6497649 0.396875,0.9260417 l 0.5291653,0.529168 c 0.276277,0.26905 0.453262,0.398934 0.926042,0.396874 h 1.9843756 c 0.513027,0 0.92604,-0.413014 0.92604,-0.926041 V 3.1750169 c -0.0051,-0.385605 -0.06111,-0.593192 -0.396874,-0.926041 L 5.1593924,1.7198089 C 4.8831154,1.4507578 4.7061304,1.3208756 4.2333504,1.3229339 Z"
     id="path6392" />
  <rect
     style="opacity:0.2;fill:#000000;fill-opacity:1;stroke:none;stroke-width:1.25015;stroke-linecap:round;stroke-linejoin:round;stroke-miterlimit:4;stroke-dasharray:none;stroke-opacity:1"
     id="rect7548"
     width="5.2916665"
     height="5.2916665"
     x="0.26458332"
     y="3.4395833" />
  <rect
     style="opacity:1;fill:#196ece;fill-opacity:1;stroke:none;stroke-width:1.00012;stroke-linecap:round;stroke-linejoin:round;stroke-miterlimit:4;stroke-dasharray:none;stroke-opacity:1"
     id="rect7772"
     width="4.7624998"
     height="4.7624998"
     x="0.52916664"
     y="3.7041667"
     ry="0.26458332" />
  <path
     d="M 3.6797099,7.6729177 H 1.8520833 V 4.4979169 H 3.6797099 V 5.0493175 H 2.5235471 V 5.747462 H 3.5996679 V 6.2988629 H 2.5235471 v 0.8182073 h 1.1561628 z"
     style="font-weight:bold;font-size:4.44678px;line-height:1.25;font-family:'Noto Sans';-inkscape-font-specification:'Noto Sans Bold';stroke-width:0.0294137;fill:#f9f9f9"
     id="path18173" />
</svg>
