<?xml version="1.0" encoding="UTF-8" standalone="no"?>
<!-- Created with Inkscape (http://www.inkscape.org/) -->

<svg
   width="48"
   height="48"
   viewBox="0 0 12.7 12.7"
   version="1.1"
   id="svg5"
   inkscape:version="1.1.2 (0a00cf5339, 2022-02-04, custom)"
   sodipodi:docname="goa-account-owncloud.svg"
   xmlns:inkscape="http://www.inkscape.org/namespaces/inkscape"
   xmlns:sodipodi="http://sodipodi.sourceforge.net/DTD/sodipodi-0.dtd"
   xmlns="http://www.w3.org/2000/svg"
   xmlns:svg="http://www.w3.org/2000/svg">
  <sodipodi:namedview
     id="namedview7"
     pagecolor="#ffffff"
     bordercolor="#666666"
     borderopacity="1.0"
     inkscape:pageshadow="2"
     inkscape:pageopacity="0.0"
     inkscape:pagecheckerboard="0"
     inkscape:document-units="px"
     showgrid="false"
     units="px"
     height="64px"
     inkscape:zoom="8.7708335"
     inkscape:cx="8.4940616"
     inkscape:cy="33.064132"
     inkscape:window-width="1920"
     inkscape:window-height="1019"
     inkscape:window-x="0"
     inkscape:window-y="31"
     inkscape:window-maximized="1"
     inkscape:current-layer="svg5" />
  <defs
     id="defs2" />
  <path
     id="rect926"
     style="opacity:1;fill:#0082c9;stroke-width:0.529167;stroke-linecap:round;stroke-linejoin:round"
     d="m 2.1166666,1.190625 h 8.4666664 c 0.513027,0 0.926041,0.4130145 0.926041,0.9260416 v 8.4666664 c 0,0.513027 -0.413014,0.926041 -0.926041,0.926041 H 2.1166666 c -0.5130271,0 -0.9260416,-0.413014 -0.9260416,-0.926041 V 2.1166666 c 0,-0.5130271 0.4130145,-0.9260416 0.9260416,-0.9260416 z"
     sodipodi:nodetypes="sssssssss" />
  <path
     d="m 6.3560853,4.5640626 c -0.8175625,0 -1.5038916,0.5595938 -1.7134416,1.3125979 -0.1830917,-0.4026958 -0.5860521,-0.6879166 -1.0541,-0.6879166 -0.6371167,0 -1.1615208,0.523875 -1.1615208,1.1612562 0,0.6376458 0.523875,1.1615208 1.1615208,1.1615208 0.4680479,0 0.8704792,-0.28575 1.0538354,-0.6884458 0.20955,0.7530042 0.8961437,1.3128625 1.7137062,1.3128625 0.8128,0 1.4956896,-0.5535083 1.7097375,-1.3001625 0.1860021,0.3952875 0.5826125,0.6757458 1.0453688,0.6757458 0.6376458,0 1.1615204,-0.5241395 1.1615204,-1.1615208 0,-0.6376458 -0.5238746,-1.1615208 -1.1615204,-1.1615208 C 8.6486999,5.1887439 8.2515603,5.4689376 8.0658228,5.8644897 7.8515103,5.1178356 7.1688853,4.5640626 6.3560853,4.5640626 Z m 0,0.6818313 c 0.6109375,-0.0028 1.1069072,0.4931688 1.1041063,1.1041062 0.0028,0.6109375 -0.4931688,1.1069071 -1.1041063,1.1041063 C 5.7451479,7.4569083 5.2491782,6.9609376 5.2519791,6.3500001 5.2491772,5.7390627 5.7451479,5.243093 6.3560853,5.2458939 Z M 3.5885437,5.8703105 c 0.2688167,0 0.479425,0.2106084 0.479425,0.479425 0.00298,0.2660886 -0.2133333,0.4826408 -0.479425,0.4799542 -0.2660901,0.00283 -0.482523,-0.2135994 -0.4796896,-0.4796896 0,-0.2688166 0.2106084,-0.479425 0.479425,-0.479425 z m 5.5229124,0 c 0.2688167,0 0.4796896,0.2106084 0.4796896,0.479425 0.00298,0.2661934 -0.2134947,0.4827903 -0.4796896,0.4799542 -0.2660901,0.00283 -0.482523,-0.2135994 -0.4796895,-0.4796896 0,-0.2688166 0.2106083,-0.479425 0.4796895,-0.479425 z"
     style="color:#000000;text-indent:0;text-decoration-line:none;text-decoration-style:solid;text-decoration-color:#000000;text-transform:none;white-space:normal;isolation:auto;mix-blend-mode:normal;fill:#ffffff;stroke-width:0.264583"
     id="path1316" />
  <path
     id="rect1360"
     style="opacity:0.75;fill:#006498;fill-opacity:1;stroke-width:0.529167;stroke-linecap:round;stroke-linejoin:round"
     d="m 2.1166667,1.0583333 c -0.5863167,0 -1.0583334,0.4720167 -1.0583334,1.0583333 v 8.4666664 c 0,0.586317 0.4720167,1.058333 1.0583334,1.058333 h 8.4666663 c 0.586317,0 1.058334,-0.472016 1.058334,-1.058333 V 2.1166666 c 0,-0.5863166 -0.472017,-1.0583333 -1.058334,-1.0583333 z m 0,0.2645833 h 8.4666663 c 0.439738,0 0.79375,0.3540125 0.79375,0.79375 v 8.4666664 c 0,0.439737 -0.354012,0.79375 -0.79375,0.79375 H 2.1166667 c -0.4397375,0 -0.79375,-0.354013 -0.79375,-0.79375 V 2.1166666 c 0,-0.4397375 0.3540125,-0.79375 0.79375,-0.79375 z"
     sodipodi:nodetypes="ssssssssssssssssss" />
</svg>
