<?xml version="1.0" encoding="UTF-8" standalone="no"?>
<!-- Created with Inkscape (http://www.inkscape.org/) -->

<svg
   width="48"
   height="48"
   viewBox="0 0 12.7 12.7"
   version="1.1"
   id="svg5"
   inkscape:version="1.1.2 (0a00cf5339, 2022-02-04, custom)"
   sodipodi:docname="preferences-desktop-notification.svg"
   xmlns:inkscape="http://www.inkscape.org/namespaces/inkscape"
   xmlns:sodipodi="http://sodipodi.sourceforge.net/DTD/sodipodi-0.dtd"
   xmlns="http://www.w3.org/2000/svg"
   xmlns:svg="http://www.w3.org/2000/svg">
  <sodipodi:namedview
     id="namedview7"
     pagecolor="#ffffff"
     bordercolor="#666666"
     borderopacity="1.0"
     inkscape:pageshadow="2"
     inkscape:pageopacity="0.0"
     inkscape:pagecheckerboard="0"
     inkscape:document-units="px"
     showgrid="false"
     units="px"
     height="64px"
     inkscape:zoom="17.541667"
     inkscape:cx="23.971496"
     inkscape:cy="24"
     inkscape:window-width="1920"
     inkscape:window-height="1019"
     inkscape:window-x="0"
     inkscape:window-y="31"
     inkscape:window-maximized="1"
     inkscape:current-layer="svg5" />
  <defs
     id="defs2" />
  <path
     id="rect925"
     style="opacity:0.25;fill:#4f6698;fill-opacity:1;stroke-width:0.479728;stroke-linecap:round;stroke-linejoin:round"
     d="M 2.6458332,2.6458333 H 11.1125 c 0.439738,0 0.79375,0.3540124 0.79375,0.7937499 v 6.085417 c 0,0.4397374 -0.354012,0.7937498 -0.79375,0.7937498 H 9.3265625 L 8.4666667,11.377083 7.6067708,10.31875 H 2.6458332 c -0.4397375,0 -0.79375,-0.3540124 -0.79375,-0.7937498 v -6.085417 c 0,-0.4397375 0.3540125,-0.7937499 0.79375,-0.7937499 z"
     sodipodi:nodetypes="ssssscccssss" />
  <path
     id="rect1131"
     style="fill:#f5f5f5;stroke-width:2;stroke-linecap:round;stroke-linejoin:round"
     d="m 10,11 c -1.1079999,0 -2,0.892 -2,2 v 23 c 0,1.108 0.8920001,2 2,2 H 29 L 32,41.750001 35,38 h 7 c 1.107999,0 2,-0.892 2,-2 V 13 c 0,-1.108 -0.892001,-2 -2,-2 z"
     transform="scale(0.26458333)"
     sodipodi:nodetypes="sssscccsssss" />
  <circle
     style="opacity:1;fill:#ff5566;fill-opacity:1;stroke-width:0.529167;stroke-linecap:round;stroke-linejoin:round"
     id="path2063"
     cx="3.0427084"
     cy="3.0427084"
     r="2.2489583" />
  <path
     d="M 3.4395848,4.4334308 H 3.0120105 V 2.3679995 L 2.38125,2.5835535 V 2.221352 L 3.3848129,1.8520834 h 0.054772 z"
     style="font-weight:500;font-size:3.61848px;line-height:1.25;font-family:Roboto;-inkscape-font-specification:'Roboto Medium';stroke-width:0.0239349;fill:#ffffff"
     id="path18678" />
</svg>
