<?xml version="1.0" encoding="UTF-8" standalone="no"?>
<!-- Created with Inkscape (http://www.inkscape.org/) -->

<svg
   width="48"
   height="48"
   viewBox="0 0 12.7 12.7"
   version="1.1"
   id="svg5"
   inkscape:version="1.1.2 (0a00cf5339, 2022-02-04, custom)"
   sodipodi:docname="preferences-desktop-wallpaper.svg"
   xmlns:inkscape="http://www.inkscape.org/namespaces/inkscape"
   xmlns:sodipodi="http://sodipodi.sourceforge.net/DTD/sodipodi-0.dtd"
   xmlns="http://www.w3.org/2000/svg"
   xmlns:svg="http://www.w3.org/2000/svg">
  <sodipodi:namedview
     id="namedview7"
     pagecolor="#ffffff"
     bordercolor="#666666"
     borderopacity="1.0"
     inkscape:pageshadow="2"
     inkscape:pageopacity="0.0"
     inkscape:pagecheckerboard="0"
     inkscape:document-units="px"
     showgrid="false"
     units="px"
     height="64px"
     inkscape:zoom="16.645833"
     inkscape:cx="24"
     inkscape:cy="24"
     inkscape:window-width="1920"
     inkscape:window-height="1019"
     inkscape:window-x="0"
     inkscape:window-y="31"
     inkscape:window-maximized="1"
     inkscape:current-layer="svg5"
     showguides="false" />
  <defs
     id="defs2" />
  <path
     d="m 5.1764278,8.2020833 c -0.2206802,0 -0.4110813,0.1689544 -0.4139282,0.3865396 v 5.291e-4 1.861896 l -0.655257,0.08631 0.010851,-5.29e-4 c -0.2206789,-4e-6 -0.4139269,0.168794 -0.4139269,0.388603 v 0.451652 h 5.2916662 v -0.451652 c 0,-0.219974 -0.193403,-0.388607 -0.4139282,-0.388607 l 0.010853,5.29e-4 -0.6552583,-0.08632 V 8.5901733 c 0,-0.2198552 -0.193403,-0.38809 -0.4139282,-0.38809 z"
     style="color:#000000;opacity:0.3;fill:#42557f;fill-opacity:1;stroke-width:0.264583;-inkscape-stroke:none"
     id="path1408" />
  <path
     d="m 5.2091186,8.4666666 c -0.1031875,0 -0.1783291,0.07329 -0.1788583,0.1616604 v 2.055418 l -0.8784166,0.07302 h -0.0045 c -0.1031875,0 -0.1785937,0.07329 -0.1785937,0.161661 v 0.225954 h 4.7625019 v -0.225954 c 0,-0.08837 -0.075406,-0.161396 -0.1785937,-0.161396 h -0.00476 L 7.669479,10.683745 V 8.6283266 c 0,-0.088371 -0.075406,-0.1613958 -0.1785937,-0.1613958 z"
     style="fill:#fafafa;stroke-width:0.264583"
     id="path858"
     sodipodi:nodetypes="ccccssccssccscc" />
  <path
     id="rect1634"
     style="fill:#414757;stroke-width:0.264583;stroke-linecap:round"
     d="M 0.79374997,1.4552083 H 11.906251 c 0.109934,0 0.209153,0.044251 0.280888,0.1159867 0.07174,0.071735 0.115987,0.1709539 0.115987,0.2808883 v 3.571875 3.571875 c 0,0.1099344 -0.04425,0.2091532 -0.115987,0.2808883 -0.07174,0.071735 -0.170954,0.1159867 -0.280888,0.1159867 H 0.79374997 c -0.21986874,0 -0.39687499,-0.1770062 -0.39687499,-0.396875 v -7.14375 c 0,-0.2198688 0.17700625,-0.396875 0.39687499,-0.396875 z"
     sodipodi:nodetypes="sssscsssssss" />
  <path
     id="rect1281"
     style="opacity:0.8;fill:#252831;fill-opacity:1;stroke-width:0.264583;stroke-linecap:round"
     d="m 0.79374999,1.3229167 c -0.2931583,0 -0.52916666,0.2360083 -0.52916666,0.5291666 v 7.1437499 c 0,0.2931583 0.23600836,0.5291667 0.52916666,0.5291667 H 11.90625 c 0.146579,0 0.278871,-0.059002 0.374518,-0.154649 0.09565,-0.095647 0.154649,-0.2279385 0.154649,-0.3745177 V 5.4239583 1.8520833 c 0,-0.1465791 -0.059,-0.2788708 -0.154649,-0.3745177 -0.09565,-0.095647 -0.227939,-0.1546489 -0.374518,-0.1546489 z m 0,0.2645833 H 11.90625 c 0.07329,0 0.139435,0.029501 0.187259,0.077325 0.04782,0.047823 0.07733,0.1139692 0.07733,0.1872588 v 3.571875 3.5718749 c 0,0.07329 -0.0295,0.1394355 -0.07733,0.1872589 -0.04782,0.047823 -0.11397,0.077324 -0.187259,0.077324 H 0.79374999 c -0.14657916,0 -0.26458333,-0.1180042 -0.26458333,-0.2645834 V 1.8520833 c 0,-0.1465792 0.11800417,-0.2645833 0.26458333,-0.2645833 z"
     sodipodi:nodetypes="ssssssscsssssssscsssssss" />
  <rect
     style="fill:#5294e2;fill-opacity:1;stroke-width:0.200088;stroke-linejoin:round"
     id="rect2689"
     width="11.1125"
     height="7.1437502"
     x="0.79374999"
     y="1.8520833" />
  <rect
     style="fill:#747c94;fill-opacity:1;stroke:none;stroke-width:0.396875;stroke-linecap:round;stroke-linejoin:round"
     id="rect847"
     width="3.175"
     height="3.175"
     x="8.7312498"
     y="1.8520833" />
  <path
     id="rect1215"
     style="fill:#fcfcfc;stroke-width:0.396875;stroke-linecap:round;stroke-linejoin:round"
     d="M 8.7312498,1.8520835 11.90625,5.0270836 H 8.7312498 Z"
     sodipodi:nodetypes="cccc" />
</svg>
