<?xml version="1.0" encoding="UTF-8" standalone="no"?>
<!-- Created with Inkscape (http://www.inkscape.org/) -->

<svg
   width="48"
   height="48"
   viewBox="0 0 12.7 12.7"
   version="1.1"
   id="svg5"
   inkscape:version="1.1.2 (0a00cf5339, 2022-02-04, custom)"
   sodipodi:docname="preferences-desktop-notification-rtl.svg"
   xmlns:inkscape="http://www.inkscape.org/namespaces/inkscape"
   xmlns:sodipodi="http://sodipodi.sourceforge.net/DTD/sodipodi-0.dtd"
   xmlns="http://www.w3.org/2000/svg"
   xmlns:svg="http://www.w3.org/2000/svg">
  <sodipodi:namedview
     id="namedview7"
     pagecolor="#ffffff"
     bordercolor="#666666"
     borderopacity="1.0"
     inkscape:pageshadow="2"
     inkscape:pageopacity="0.0"
     inkscape:pagecheckerboard="0"
     inkscape:document-units="px"
     showgrid="false"
     units="px"
     height="64px"
     inkscape:zoom="17.541667"
     inkscape:cx="23.971496"
     inkscape:cy="24"
     inkscape:window-width="1920"
     inkscape:window-height="1019"
     inkscape:window-x="0"
     inkscape:window-y="31"
     inkscape:window-maximized="1"
     inkscape:current-layer="svg5" />
  <defs
     id="defs2" />
  <path
     id="rect925"
     style="opacity:0.25;fill:#4f6698;fill-opacity:1;stroke-width:0.479728;stroke-linecap:round;stroke-linejoin:round"
     d="m 1.5874998,2.6458333 h 8.4666662 c 0.439738,0 0.79375,0.3540124 0.79375,0.7937499 v 6.085417 c 0,0.4397374 -0.354012,0.7937498 -0.79375,0.7937498 H 5.0932291 L 4.2333333,11.377083 3.3734374,10.31875 H 1.5874998 c -0.4397375,0 -0.79374997,-0.3540124 -0.79374997,-0.7937498 v -6.085417 c 0,-0.4397375 0.35401247,-0.7937499 0.79374997,-0.7937499 z"
     sodipodi:nodetypes="ssssscccssss" />
  <path
     id="rect1131"
     style="fill:#f5f5f5;stroke-width:0.529167;stroke-linecap:round;stroke-linejoin:round"
     d="m 1.5874999,2.9104166 c -0.2931583,0 -0.5291666,0.2360084 -0.5291666,0.5291667 v 6.0854166 c 0,0.2931583 0.2360083,0.5291671 0.5291666,0.5291671 h 1.8520833 l 0.79375,0.992187 0.79375,-0.992187 h 5.0270828 c 0.293158,0 0.529167,-0.2360088 0.529167,-0.5291671 V 3.4395833 c 0,-0.2931583 -0.236009,-0.5291667 -0.529167,-0.5291667 z"
     sodipodi:nodetypes="sssscccsssss" />
  <circle
     style="opacity:1;fill:#ff5566;fill-opacity:1;stroke-width:0.529167;stroke-linecap:round;stroke-linejoin:round"
     id="path2063"
     cx="9.6572914"
     cy="3.0427084"
     r="2.2489583" />
  <path
     d="M 10.05417,4.4334308 H 9.6265952 V 2.3679995 L 8.9958347,2.5835535 V 2.221352 L 9.9993976,1.8520834 h 0.05477 z"
     style="font-weight:500;font-size:3.61848px;line-height:1.25;font-family:Roboto;-inkscape-font-specification:'Roboto Medium';fill:#ffffff;stroke-width:0.0239349"
     id="path18678" />
</svg>
