<?xml version="1.0" encoding="UTF-8" standalone="no"?>
<!-- Created with Inkscape (http://www.inkscape.org/) -->

<svg
   width="48"
   height="48"
   viewBox="0 0 12.7 12.7"
   version="1.1"
   id="svg5"
   inkscape:version="1.1.2 (0a00cf5339, 2022-02-04, custom)"
   sodipodi:docname="dialog-error.svg"
   xmlns:inkscape="http://www.inkscape.org/namespaces/inkscape"
   xmlns:sodipodi="http://sodipodi.sourceforge.net/DTD/sodipodi-0.dtd"
   xmlns="http://www.w3.org/2000/svg"
   xmlns:svg="http://www.w3.org/2000/svg">
  <sodipodi:namedview
     id="namedview7"
     pagecolor="#ffffff"
     bordercolor="#666666"
     borderopacity="1.0"
     inkscape:pageshadow="2"
     inkscape:pageopacity="0.0"
     inkscape:pagecheckerboard="0"
     inkscape:document-units="px"
     showgrid="false"
     units="px"
     height="64px"
     inkscape:zoom="4.5354271"
     inkscape:cx="11.134563"
     inkscape:cy="47.735306"
     inkscape:window-width="1920"
     inkscape:window-height="1011"
     inkscape:window-x="0"
     inkscape:window-y="32"
     inkscape:window-maximized="1"
     inkscape:current-layer="svg5" />
  <defs
     id="defs2" />
  <path
     style="color:#000000;fill:#e85f5f;stroke:none;stroke-width:0.264583;stroke-linejoin:round;-inkscape-stroke:none"
     d="M 11.773958,6.3500006 A 5.4239587,5.4239588 0 0 1 6.3500004,11.773958 5.4239587,5.4239588 0 0 1 0.92604168,6.3500006 5.4239587,5.4239588 0 0 1 6.3500004,0.92604168 5.4239587,5.4239588 0 0 1 11.773958,6.3500006 Z"
     id="path1283" />
  <path
     style="color:#000000;opacity:0.2;fill:#000000;stroke:none;stroke-width:0.99993;stroke-linejoin:round;-inkscape-stroke:none"
     d="M 6.3500001,0.79375001 C 3.2831533,0.79375 0.79374994,3.2831532 0.79375001,6.3500001 0.7937508,9.4168463 3.2831539,11.90625 6.3500001,11.90625 c 3.0668457,-10e-7 5.5562489,-2.4894041 5.5562499,-5.5562499 0,-3.0668464 -2.4894036,-5.55624947 -5.5562499,-5.55625009 z m 0,0.26560629 c 2.9238651,6e-7 5.2925959,2.3667787 5.2925959,5.2906438 -10e-7,2.9238646 -2.3687314,5.2925959 -5.2925959,5.2925959 -2.9238649,0 -5.290643,-2.3687309 -5.2906438,-5.2925959 0,-2.9238656 2.3667783,-5.2906438 5.2906438,-5.2906438 z"
     id="path1285" />
  <path
     d="M 6.7651811,7.9230697 H 5.9218333 L 5.8561835,2.6458334 H 6.8358809 Z M 5.8208334,9.5289666 c 0,-0.1515002 0.045449,-0.2777492 0.1363501,-0.3787494 0.094266,-0.1043653 0.2322996,-0.1565498 0.4140991,-0.1565498 0.1817996,0 0.3198328,0.052182 0.4140991,0.1565498 0.094266,0.1009994 0.1413996,0.2272492 0.1413996,0.3787494 0,0.1514991 -0.047135,0.2777493 -0.1413996,0.3787488 -0.094266,0.097633 -0.2322995,0.1464516 -0.4140991,0.1464516 -0.1817995,0 -0.3198326,-0.04882 -0.4140991,-0.1464516 C 5.8662844,9.8067159 5.8208334,9.6804657 5.8208334,9.5289666 Z"
     style="font-size:14.7748px;line-height:1.25;font-family:Roboto;-inkscape-font-specification:Roboto;fill:#f2f2f2;fill-opacity:1;stroke-width:0.0684107"
     id="path31783" />
</svg>
