<?xml version="1.0" encoding="UTF-8" standalone="no"?>
<!-- Created with Inkscape (http://www.inkscape.org/) -->

<svg
   width="48"
   height="48"
   viewBox="0 0 12.7 12.7"
   version="1.1"
   id="svg5"
   inkscape:version="1.1.2 (0a00cf5339, 2022-02-04, custom)"
   sodipodi:docname="ubuntuone.svg"
   xmlns:inkscape="http://www.inkscape.org/namespaces/inkscape"
   xmlns:sodipodi="http://sodipodi.sourceforge.net/DTD/sodipodi-0.dtd"
   xmlns="http://www.w3.org/2000/svg"
   xmlns:svg="http://www.w3.org/2000/svg">
  <sodipodi:namedview
     id="namedview7"
     pagecolor="#ffffff"
     bordercolor="#666666"
     borderopacity="1.0"
     inkscape:pageshadow="2"
     inkscape:pageopacity="0.0"
     inkscape:pagecheckerboard="0"
     inkscape:document-units="px"
     showgrid="false"
     units="px"
     height="64px"
     inkscape:zoom="8.7708335"
     inkscape:cx="8.5510687"
     inkscape:cy="33.064132"
     inkscape:window-width="1851"
     inkscape:window-height="1009"
     inkscape:window-x="69"
     inkscape:window-y="31"
     inkscape:window-maximized="1"
     inkscape:current-layer="svg5" />
  <defs
     id="defs2" />
  <path
     id="rect926"
     style="opacity:1;fill:#e95420;stroke-width:0.529167;stroke-linecap:round;stroke-linejoin:round;fill-opacity:1"
     d="m 2.1166666,1.190625 h 8.4666664 c 0.513027,0 0.926041,0.4130145 0.926041,0.9260416 v 8.4666664 c 0,0.513027 -0.413014,0.926041 -0.926041,0.926041 H 2.1166666 c -0.5130271,0 -0.9260416,-0.413014 -0.9260416,-0.926041 V 2.1166666 c 0,-0.5130271 0.4130145,-0.9260416 0.9260416,-0.9260416 z"
     sodipodi:nodetypes="sssssssss" />
  <path
     id="rect1360"
     style="opacity:0.75;fill:#a43610;fill-opacity:1;stroke-width:0.529167;stroke-linecap:round;stroke-linejoin:round"
     d="m 2.1166667,1.0583333 c -0.5863167,0 -1.0583334,0.4720167 -1.0583334,1.0583333 v 8.4666664 c 0,0.586317 0.4720167,1.058333 1.0583334,1.058333 h 8.4666663 c 0.586317,0 1.058334,-0.472016 1.058334,-1.058333 V 2.1166666 c 0,-0.5863166 -0.472017,-1.0583333 -1.058334,-1.0583333 z m 0,0.2645833 h 8.4666663 c 0.439738,0 0.79375,0.3540125 0.79375,0.79375 v 8.4666664 c 0,0.439737 -0.354012,0.79375 -0.79375,0.79375 H 2.1166667 c -0.4397375,0 -0.79375,-0.354013 -0.79375,-0.79375 V 2.1166666 c 0,-0.4397375 0.3540125,-0.79375 0.79375,-0.79375 z"
     sodipodi:nodetypes="ssssssssssssssssss" />
  <path
     d="m 4.5971428,3.1867106 -0.739775,0.010583 -0.1529292,0.00185 -2.646e-4,0.4423834 c -5.291e-4,1.1562291 0.027781,4.0835788 0.040481,4.1875601 0.014023,0.1164166 0.017727,0.1359958 0.064029,0.3391958 0.1285875,0.5635625 0.5476875,1.1514666 0.99695,1.3977946 0.3582459,0.196585 0.6439959,0.296862 1.0247313,0.360362 0.3712104,0.06165 1.41605,0.0071 2.0711583,-0.108215 0.060854,-0.01058 0.1666875,-0.0291 0.2346854,-0.04048 0.2382983,-0.03913 0.4752311,-0.08616 0.7104062,-0.141023 0.028575,-0.0069 0.074877,-0.01587 0.1031875,-0.02064 l 0.0508,-0.0085 -0.00926,-3.2004003 c -0.00714,-2.4621748 -0.012965,-3.2030081 -0.024871,-3.210681 -0.00873,-0.00556 -0.3997854,-0.00873 -0.8694208,-0.00714 l -0.8538104,0.00318 -0.00344,2.4979313 -0.00318,2.4979309 -1.6226896,-0.00688 -0.00661,-1.649677 L 5.6009719,4.8821606 4.9077636,4.8689314 5.0834469,4.5030127 C 5.1800198,4.3019293 5.3609948,3.9288669 5.4856136,3.6743377 5.6099678,3.4195439 5.7115678,3.2025856 5.7115678,3.1920023 c 0,-0.021696 -0.03175,-0.021696 -1.114425,-0.00529"
     style="fill:#ffffff;stroke-width:0.264583"
     id="path854" />
</svg>
