<?xml version="1.0" encoding="UTF-8" standalone="no"?>
<!-- Created with Inkscape (http://www.inkscape.org/) -->

<svg
   width="64"
   height="64"
   viewBox="0 0 16.933333 16.933334"
   version="1.1"
   id="svg5"
   inkscape:version="1.1.2 (0a00cf5339, 2022-02-04, custom)"
   sodipodi:docname="computer-laptop.svg"
   xmlns:inkscape="http://www.inkscape.org/namespaces/inkscape"
   xmlns:sodipodi="http://sodipodi.sourceforge.net/DTD/sodipodi-0.dtd"
   xmlns="http://www.w3.org/2000/svg"
   xmlns:svg="http://www.w3.org/2000/svg">
  <sodipodi:namedview
     id="namedview7"
     pagecolor="#ffffff"
     bordercolor="#666666"
     borderopacity="1.0"
     inkscape:pageshadow="2"
     inkscape:pageopacity="0.0"
     inkscape:pagecheckerboard="0"
     inkscape:document-units="px"
     showgrid="false"
     units="px"
     height="64px"
     inkscape:zoom="12.53125"
     inkscape:cx="32"
     inkscape:cy="32"
     inkscape:window-width="1920"
     inkscape:window-height="1020"
     inkscape:window-x="0"
     inkscape:window-y="0"
     inkscape:window-maximized="1"
     inkscape:current-layer="svg5"
     showguides="false" />
  <defs
     id="defs2" />
  <rect
     style="fill:#414757;fill-opacity:1;stroke-width:0.264583;stroke-linejoin:round"
     id="rect2161"
     width="12.964583"
     height="8.7312498"
     x="1.984375"
     y="4.3656249"
     ry="0.39687499" />
  <path
     id="rect846"
     style="opacity:0.8;fill:#252831;fill-opacity:1;stroke-width:0.264583;stroke-linejoin:round"
     d="m 2.3812501,4.2333334 c -0.2931583,0 -0.5291667,0.2360084 -0.5291667,0.5291667 v 7.9375009 c 0,0.293158 0.2360084,0.529167 0.5291667,0.529167 H 14.552084 c 0.293158,0 0.529166,-0.236009 0.529166,-0.529167 V 4.7625001 c 0,-0.2931583 -0.236008,-0.5291667 -0.529166,-0.5291667 z m 0,0.2645833 H 14.552084 c 0.146579,0 0.264583,0.1180042 0.264583,0.2645834 v 7.9375009 c 0,0.146579 -0.118004,0.264583 -0.264583,0.264583 H 2.3812501 c -0.1465792,0 -0.2645833,-0.118004 -0.2645833,-0.264583 V 4.7625001 c 0,-0.1465792 0.1180041,-0.2645834 0.2645833,-0.2645834 z"
     sodipodi:nodetypes="ssssssssssssssssss" />
  <rect
     style="fill:#5294e2;fill-opacity:1;stroke-width:0.212697;stroke-linejoin:round"
     id="rect2689"
     width="12.170834"
     height="7.9375"
     x="2.3812499"
     y="4.7624998" />
  <g
     id="path2"
     transform="scale(0.26458334)">
    <path
       style="color:#000000;fill:#3e5380;fill-opacity:0.29;stroke-linecap:round;stroke-linejoin:round;-inkscape-stroke:none;paint-order:markers stroke fill"
       d="m 2,50 a 1.0001,1.0001 0 0 0 -1,1 v 1 a 1.0001,1.0001 0 0 0 0.9003906,0.994141 l 10.0000004,1 A 1.0001,1.0001 0 0 0 12,54 h 40 a 1.0001,1.0001 0 0 0 0.09961,-0.0059 l 10,-1 A 1.0001,1.0001 0 0 0 63,52 V 51 A 1.0001,1.0001 0 0 0 62,50 H 38 a 1.0001,1.0001 0 0 0 -0.707031,0.292969 L 36.585937,51 H 27.414062 L 26.707031,50.292969 A 1.0001,1.0001 0 0 0 26,50 Z"
       id="path852" />
    <path
       style="color:#000000;fill:#ffffff;stroke-width:2;stroke-linecap:round;stroke-linejoin:round;-inkscape-stroke:none;paint-order:markers stroke fill"
       d="m 2,51 h 24 l 1,1 h 10 l 1,-1 h 24 v 1 L 52,53 H 12 L 2,52 Z"
       id="path854" />
  </g>
  <path
     d="M 0.52916671,13.49375 H 6.8791668 l 0.2645833,0.264584 H 9.7895837 L 10.054167,13.49375 h 6.35 v 0.264584 l -2.645833,0.264583 H 3.175 L 0.52916671,13.758334 Z"
     style="fill:#ffffff;stroke-width:0.264583;paint-order:markers stroke fill"
     id="path961" />
</svg>
