<?xml version="1.0" encoding="UTF-8" standalone="no"?>
<!-- Created with Inkscape (http://www.inkscape.org/) -->

<svg
   width="64"
   height="64"
   viewBox="0 0 16.933333 16.933334"
   version="1.1"
   id="svg5"
   inkscape:version="1.1.2 (0a00cf5339, 2022-02-04, custom)"
   sodipodi:docname="media-flash-memory-stick.svg"
   xmlns:inkscape="http://www.inkscape.org/namespaces/inkscape"
   xmlns:sodipodi="http://sodipodi.sourceforge.net/DTD/sodipodi-0.dtd"
   xmlns="http://www.w3.org/2000/svg"
   xmlns:svg="http://www.w3.org/2000/svg">
  <sodipodi:namedview
     id="namedview7"
     pagecolor="#ffffff"
     bordercolor="#666666"
     borderopacity="1.0"
     inkscape:pageshadow="2"
     inkscape:pageopacity="0.0"
     inkscape:pagecheckerboard="0"
     inkscape:document-units="px"
     showgrid="false"
     units="px"
     height="64px"
     inkscape:zoom="12.53125"
     inkscape:cx="32"
     inkscape:cy="32"
     inkscape:window-width="1920"
     inkscape:window-height="1020"
     inkscape:window-x="0"
     inkscape:window-y="0"
     inkscape:window-maximized="1"
     inkscape:current-layer="svg5"
     showguides="false" />
  <defs
     id="defs2" />
  <rect
     style="opacity:1;fill:#b7b7b7;fill-opacity:1;stroke-width:0.264583;stroke-linejoin:round"
     id="rect929"
     width="6.6145835"
     height="3.96875"
     x="5.1593752"
     y="1.190625" />
  <path
     id="rect1141"
     style="opacity:0.5;fill:#2c3854;fill-opacity:1;stroke-width:0.264583;stroke-linejoin:round"
     d="M 5.0270835,1.0583333 V 5.2916668 H 11.90625 V 1.0583333 Z M 5.2916668,1.3229167 H 11.641667 V 5.0270834 H 5.2916668 Z" />
  <path
     id="rect8"
     d="m 6.0854167,2.38125 v 1.0583334 h 1.5875 V 2.38125 Z m 3.175,0 V 3.4395834 H 10.847917 V 2.38125 Z"
     style="fill:#707680;fill-opacity:1;stroke-width:0.264583" />
  <path
     id="rect2299"
     style="opacity:1;fill:#3e92ce;fill-opacity:1;stroke-width:0.264583;stroke-linejoin:round"
     d="m 4.4979168,4.6302083 c -0.2198688,0 -0.396875,0.1770063 -0.396875,0.396875 v 8.9958337 c 0,1.099343 0.8850312,1.984375 1.984375,1.984375 h 4.7625002 c 1.099343,0 1.984375,-0.885032 1.984375,-1.984375 V 5.0270833 c 0,-0.2198687 -0.177006,-0.396875 -0.396875,-0.396875 z"
     sodipodi:nodetypes="sccssccss" />
  <path
     id="rect1571"
     style="opacity:0.3;fill:#2c3854;stroke-width:0.264583;stroke-linejoin:round"
     d="m 4.4979168,4.4979166 c -0.2931584,0 -0.5291667,0.2360084 -0.5291667,0.5291667 v 8.9958337 c 0,1.172633 0.9440334,2.116667 2.1166667,2.116667 h 4.7625002 c 1.172633,0 2.116667,-0.944034 2.116667,-2.116667 V 5.0270833 c 0,-0.2931583 -0.236008,-0.5291667 -0.529167,-0.5291667 z m 0,0.2645834 H 12.435417 C 12.581996,4.7625 12.7,4.8805042 12.7,5.0270833 v 8.9958337 c 0,1.026054 -0.826028,1.852084 -1.852083,1.852084 H 6.0854168 c -1.0260542,0 -1.8520834,-0.82603 -1.8520834,-1.852084 V 5.0270833 C 4.2333334,4.8805042 4.3513376,4.7625 4.4979168,4.7625 Z"
     sodipodi:nodetypes="ssssssssssssssssss" />
  <path
     id="rect10"
     d="m 6.6151,11.906251 c -0.1468723,0 -0.2651,0.059 -0.2651,0.132291 0,0.07329 0.1182277,0.132292 0.2651,0.132292 h 3.703132 c 0.146873,0 0.265101,-0.059 0.265101,-0.132292 0,-0.07329 -0.118228,-0.132291 -0.265101,-0.132291 z m 0.4630209,1.058333 c -0.110081,0 -0.1989543,0.059 -0.1989543,0.132292 0,0.07329 0.088873,0.132291 0.1989543,0.132291 h 2.7770914 c 0.110081,0 0.1989537,-0.059 0.1989537,-0.132291 0,-0.07329 -0.08887,-0.132292 -0.1989537,-0.132292 z m 0.4630208,1.058333 c -0.073436,0 -0.1328084,0.059 -0.1328084,0.132292 0,0.07329 0.059372,0.132292 0.1328084,0.132292 h 1.8510499 c 0.07344,0 0.1328077,-0.059 0.1328077,-0.132292 0,-0.07329 -0.05937,-0.132292 -0.1328077,-0.132292 z"
     style="stroke-width:0.264583;fill:#000000;opacity:0.25" />
</svg>
