<?xml version="1.0" encoding="UTF-8" standalone="no"?>
<!-- Created with Inkscape (http://www.inkscape.org/) -->

<svg
   width="64"
   height="64"
   viewBox="0 0 16.933333 16.933334"
   version="1.1"
   id="svg5"
   inkscape:version="1.1.2 (0a00cf5339, 2022-02-04, custom)"
   sodipodi:docname="devhelp.svg"
   xmlns:inkscape="http://www.inkscape.org/namespaces/inkscape"
   xmlns:sodipodi="http://sodipodi.sourceforge.net/DTD/sodipodi-0.dtd"
   xmlns="http://www.w3.org/2000/svg"
   xmlns:svg="http://www.w3.org/2000/svg">
  <sodipodi:namedview
     id="namedview7"
     pagecolor="#ffffff"
     bordercolor="#666666"
     borderopacity="1.0"
     inkscape:pageshadow="2"
     inkscape:pageopacity="0.0"
     inkscape:pagecheckerboard="0"
     inkscape:document-units="px"
     showgrid="false"
     units="px"
     height="64px"
     showguides="false"
     inkscape:zoom="12.484375"
     inkscape:cx="32"
     inkscape:cy="32"
     inkscape:window-width="1541"
     inkscape:window-height="947"
     inkscape:window-x="64"
     inkscape:window-y="90"
     inkscape:window-maximized="0"
     inkscape:current-layer="svg5" />
  <defs
     id="defs2" />
  <rect
     style="opacity:0.7;fill:#d4c528;fill-opacity:1;stroke-width:0.529167;stroke-linecap:round;stroke-linejoin:round"
     id="rect2902"
     width="2.9104168"
     height="4.4979167"
     x="11.90625"
     y="10.583331"
     ry="0.26458335" />
  <rect
     style="opacity:0.7;fill:#3e83b5;fill-opacity:1;stroke-width:0.529167;stroke-linecap:round;stroke-linejoin:round"
     id="rect2024"
     width="2.9104168"
     height="4.4979167"
     x="11.90625"
     y="6.3500004"
     ry="0.26458335" />
  <rect
     style="opacity:0.7;fill:#359e17;fill-opacity:1;stroke-width:0.529167;stroke-linecap:round;stroke-linejoin:round"
     id="rect1896"
     width="2.9104166"
     height="4.4979167"
     x="11.90625"
     y="2.1166668"
     ry="0.26458335" />
  <rect
     style="opacity:1;fill:#71c659;fill-opacity:0.997063;stroke-width:0.529167;stroke-linecap:round;stroke-linejoin:round"
     id="rect1322"
     width="2.3812499"
     height="3.96875"
     x="12.170833"
     y="2.3812501" />
  <rect
     style="opacity:1;fill:#3c98da;fill-opacity:1;stroke-width:0.529167;stroke-linecap:round;stroke-linejoin:round"
     id="rect2420"
     width="2.3812499"
     height="3.9687502"
     x="12.170832"
     y="6.614584" />
  <rect
     style="opacity:1;fill:#eac312;fill-opacity:0.992961;stroke-width:0.529167;stroke-linecap:round;stroke-linejoin:round"
     id="rect3348"
     width="2.3812499"
     height="3.9687476"
     x="12.170832"
     y="10.847916" />
  <path
     id="rect1201"
     style="fill:#ba1d1d;stroke-width:0.264583;stroke-linejoin:round;stroke-opacity:0.501961"
     d="m 3.7041667,1.190625 h 9.2604163 c 0.513027,0 0.926042,0.4130145 0.926042,0.9260416 V 14.816666 c 0,0.513027 -0.413015,0.926042 -0.926042,0.926042 H 3.7041667 c -0.5130271,0 -0.9260417,-0.413015 -0.9260417,-0.926042 V 2.1166666 c 0,-0.5130271 0.4130146,-0.9260416 0.9260417,-0.9260416 z"
     sodipodi:nodetypes="sssssssss" />
  <path
     id="rect4603"
     style="opacity:1;fill:#4d4d4d;fill-opacity:1;stroke-width:0.25227;stroke-linejoin:round;stroke-opacity:0.501961"
     d="m 2.7781251,2.1166667 c 0,-0.5130271 0.413015,-0.9260417 0.9260418,-0.9260417 H 5.291667 V 15.74271 H 3.7041669 c -0.5130268,0 -0.9260418,-0.413015 -0.9260418,-0.926042 z"
     sodipodi:nodetypes="ssccsss" />
  <path
     id="rect890"
     style="opacity:0.2;fill:#000000;stroke-width:0.264583;stroke-linejoin:round;stroke-opacity:0.501961"
     d="m 3.7041668,1.0583334 c -0.5863167,0 -1.0583333,0.4720166 -1.0583333,1.0583333 V 14.816667 c 0,0.586317 0.4720166,1.058333 1.0583333,1.058333 h 9.2604172 c 0.586317,0 1.058333,-0.472016 1.058333,-1.058333 V 2.1166667 c 0,-0.5863167 -0.472016,-1.0583333 -1.058333,-1.0583333 z m 0,0.2645833 h 9.2604172 c 0.439738,0 0.79375,0.3540125 0.79375,0.79375 V 14.816667 c 0,0.439738 -0.354012,0.79375 -0.79375,0.79375 H 3.7041668 c -0.4397375,0 -0.79375,-0.354012 -0.79375,-0.79375 V 2.1166667 c 0,-0.4397375 0.3540125,-0.79375 0.79375,-0.79375 z"
     sodipodi:nodetypes="ssssssssssssssssss" />
  <path
     d="m 8.5219604,5.2637618 c -0.3466155,0 -0.6214078,0.1041562 -0.8247558,0.3121258 -0.2033479,0.2033476 -0.304891,0.4760436 -0.304891,0.8180377 v 1.212846 c 0,0.1894832 -0.048675,0.3349919 -0.1457274,0.4366657 -0.092431,0.1016741 -0.2149087,0.1524455 -0.3674195,0.1524455 v 0.4857589 c 0.1525108,0 0.2749886,0.050771 0.3674195,0.1524455 0.097052,0.1016738 0.1457274,0.2471825 0.1457274,0.4366657 v 1.2128464 c 0,0.341994 0.1015431,0.61469 0.304891,0.818038 0.203348,0.20797 0.4781403,0.312126 0.8247558,0.312126 H 8.6744059 V 11.128521 H 8.5291952 c -0.1756188,0 -0.3190309,-0.06019 -0.429948,-0.180351 -0.110917,-0.12016 -0.166398,-0.281894 -0.166398,-0.485242 V 9.250082 c 0,-0.2218341 -0.039256,-0.3956 -0.1178224,-0.5203817 C 7.7364606,8.6002974 7.6186925,8.5081732 7.4615601,8.4527144 V 8.4248093 C 7.6186925,8.3693508 7.7364606,8.2772268 7.8150268,8.1478236 7.893593,8.0184204 7.9328492,7.8446542 7.9328492,7.6274419 v -1.212846 c 0,-0.2033477 0.055481,-0.3650814 0.166398,-0.4852416 C 8.2101643,5.809194 8.3535764,5.7490034 8.5291952,5.7490034 H 8.6744059 V 5.2637618 Z m 1.6407276,0 v 0.4852416 h 0.145728 c 0.175618,0 0.319031,0.060191 0.429948,0.1803509 0.115539,0.1201602 0.173115,0.2818939 0.173115,0.4852416 v 1.212846 c 0,0.2172123 0.03716,0.3909785 0.111105,0.5203817 0.07857,0.1294032 0.196334,0.2215272 0.353467,0.2769857 v 0.027905 c -0.157133,0.055459 -0.274901,0.1475828 -0.353467,0.276986 -0.07395,0.1247817 -0.111105,0.2985476 -0.111105,0.5203817 v 1.212846 c 0,0.203348 -0.05758,0.365082 -0.173115,0.485242 -0.110917,0.120161 -0.25433,0.180351 -0.429948,0.180351 h -0.145728 v 0.485242 h 0.152445 c 0.346616,0 0.621926,-0.104156 0.825273,-0.312126 0.203348,-0.203348 0.304891,-0.476044 0.304891,-0.818038 V 9.2707526 c 0,-0.1894832 0.04606,-0.3349919 0.138493,-0.4366657 0.09705,-0.1016741 0.222143,-0.1524455 0.374654,-0.1524455 V 8.1958825 c -0.152511,0 -0.277602,-0.050771 -0.374654,-0.1524455 C 11.49136,7.9417632 11.445297,7.7962545 11.445297,7.6067713 v -1.212846 c 0,-0.3419941 -0.101543,-0.6146901 -0.304891,-0.8180377 C 10.937059,5.367918 10.661749,5.2637618 10.315133,5.2637618 Z"
     style="font-size:10.5833px;line-height:1.25;font-family:'Google Sans';-inkscape-font-specification:'Google Sans';fill:#ffffff;stroke-width:0.173308"
     id="path5774" />
</svg>
