<?xml version="1.0" encoding="UTF-8" standalone="no"?>
<!-- Created with Inkscape (http://www.inkscape.org/) -->

<svg
   width="64"
   height="64"
   viewBox="0 0 16.933333 16.933334"
   version="1.1"
   id="svg5"
   inkscape:version="1.1.2 (0a00cf5339, 2022-02-04, custom)"
   sodipodi:docname="gnome-boxes.svg"
   xmlns:inkscape="http://www.inkscape.org/namespaces/inkscape"
   xmlns:sodipodi="http://sodipodi.sourceforge.net/DTD/sodipodi-0.dtd"
   xmlns="http://www.w3.org/2000/svg"
   xmlns:svg="http://www.w3.org/2000/svg">
  <sodipodi:namedview
     id="namedview7"
     pagecolor="#ffffff"
     bordercolor="#666666"
     borderopacity="1.0"
     inkscape:pageshadow="2"
     inkscape:pageopacity="0.0"
     inkscape:pagecheckerboard="0"
     inkscape:document-units="px"
     showgrid="false"
     units="px"
     height="64px"
     showguides="false"
     inkscape:zoom="13.15625"
     inkscape:cx="31.961995"
     inkscape:cy="32"
     inkscape:window-width="1920"
     inkscape:window-height="1019"
     inkscape:window-x="0"
     inkscape:window-y="31"
     inkscape:window-maximized="1"
     inkscape:current-layer="svg5" />
  <defs
     id="defs2" />
  <path
     id="rect1201"
     style="fill:#4d4d4d;fill-opacity:1;stroke-width:0.999999;stroke-linejoin:round;stroke-opacity:0.501961"
     d="M 8 5 C 6.338 5 5 6.3379993 5 8 L 5 56 C 5 57.662002 6.338 59 8 59 L 56 59 C 57.662002 59 59 57.662002 59 56 L 59 8 C 59 6.3379993 57.662002 5 56 5 L 8 5 z "
     transform="scale(0.26458334)" />
  <path
     id="rect890"
     style="opacity:0.6;fill:#1a1a1a;stroke-width:0.999999;stroke-linejoin:round;stroke-opacity:0.501961;fill-opacity:1"
     d="M 8,4 C 5.7839999,4 4,5.7839999 4,8 v 48 c 0,2.216001 1.7839999,4 4,4 h 48 c 2.216001,0 4,-1.783999 4,-4 V 8 C 60,5.7839999 58.216001,4 56,4 Z m 0,1 h 48 c 1.662002,0 3,1.338 3,3 0,16 0,32 0,48 0,1.662002 -1.337998,3 -3,3 H 8 C 6.338,59 5,57.662002 5,56 5,40 5,24 5,8 5,6.338 6.338,5 8,5 Z"
     transform="scale(0.26458334)"
     sodipodi:nodetypes="sssssssssssccssccs" />
  <path
     id="rect1356"
     style="fill:#c1c1c1;fill-opacity:1;stroke-width:0.306387;stroke-linecap:round;stroke-linejoin:round"
     d="M 4.2333334,4.2333334 V 12.7 H 12.7 V 4.2333334 Z M 5.6658039,5.2916667 H 11.267529 L 9.9446127,6.6145834 H 9.7895833 7.14375 6.9887206 Z M 5.2916667,5.6658039 6.6145833,6.9887206 V 7.14375 9.7895833 9.9404784 L 5.2916667,11.263395 Z m 6.3499993,0 V 11.263395 L 10.31875,9.9404784 V 9.7895833 7.14375 6.9887206 Z M 7.14375,7.14375 H 9.7895833 V 9.7895833 H 7.14375 Z m -0.1591633,3.175 H 7.14375 9.7895833 9.9487466 l 1.3229164,1.322917 H 5.6616701 Z" />
  <path
     id="path1191"
     style="fill:#ffffff;stroke-width:0.367665;stroke-linecap:round;stroke-linejoin:round"
     d="M 4.7625,3.4395834 A 1.3229166,1.3229166 0 0 0 3.4395834,4.7625 1.3229166,1.3229166 0 0 0 4.7625,6.0854167 1.3229166,1.3229166 0 0 0 6.0854167,4.7625 1.3229166,1.3229166 0 0 0 4.7625,3.4395834 Z m 7.408333,0 A 1.3229166,1.3229166 0 0 0 10.847916,4.7625 1.3229166,1.3229166 0 0 0 12.170833,6.0854167 1.3229166,1.3229166 0 0 0 13.49375,4.7625 1.3229166,1.3229166 0 0 0 12.170833,3.4395834 Z M 6.8791667,6.0854167 a 0.79374999,0.79374999 0 0 0 -0.79375,0.79375 0.79374999,0.79374999 0 0 0 0.79375,0.79375 0.79374999,0.79374999 0 0 0 0.79375,-0.79375 0.79374999,0.79374999 0 0 0 -0.79375,-0.79375 z m 3.1750003,0 a 0.79374999,0.79374999 0 0 0 -0.7937504,0.79375 0.79374999,0.79374999 0 0 0 0.7937504,0.79375 0.79374999,0.79374999 0 0 0 0.793749,-0.79375 0.79374999,0.79374999 0 0 0 -0.793749,-0.79375 z m -3.1750003,3.175 a 0.79374999,0.79374999 0 0 0 -0.79375,0.7937503 0.79374999,0.79374999 0 0 0 0.79375,0.79375 0.79374999,0.79374999 0 0 0 0.79375,-0.79375 0.79374999,0.79374999 0 0 0 -0.79375,-0.7937503 z m 3.1750003,0 a 0.79374999,0.79374999 0 0 0 -0.7937504,0.7937503 0.79374999,0.79374999 0 0 0 0.7937504,0.79375 0.79374999,0.79374999 0 0 0 0.793749,-0.79375 0.79374999,0.79374999 0 0 0 -0.793749,-0.7937503 z M 4.7625,10.847917 A 1.3229166,1.3229166 0 0 0 3.4395834,12.170833 1.3229166,1.3229166 0 0 0 4.7625,13.49375 1.3229166,1.3229166 0 0 0 6.0854167,12.170833 1.3229166,1.3229166 0 0 0 4.7625,10.847917 Z m 7.408333,0 a 1.3229166,1.3229166 0 0 0 -1.322917,1.322916 1.3229166,1.3229166 0 0 0 1.322917,1.322917 1.3229166,1.3229166 0 0 0 1.322917,-1.322917 1.3229166,1.3229166 0 0 0 -1.322917,-1.322916 z" />
</svg>
