<?xml version="1.0" encoding="UTF-8" standalone="no"?>
<!-- Created with Inkscape (http://www.inkscape.org/) -->

<svg
   width="64"
   height="64"
   viewBox="0 0 16.933333 16.933334"
   version="1.1"
   id="svg5"
   inkscape:version="1.1.2 (0a00cf5339, 2022-02-04, custom)"
   sodipodi:docname="io.github.seadve.kooha.svg"
   xmlns:inkscape="http://www.inkscape.org/namespaces/inkscape"
   xmlns:sodipodi="http://sodipodi.sourceforge.net/DTD/sodipodi-0.dtd"
   xmlns="http://www.w3.org/2000/svg"
   xmlns:svg="http://www.w3.org/2000/svg">
  <sodipodi:namedview
     id="namedview7"
     pagecolor="#ffffff"
     bordercolor="#666666"
     borderopacity="1.0"
     inkscape:pageshadow="2"
     inkscape:pageopacity="0.0"
     inkscape:pagecheckerboard="0"
     inkscape:document-units="px"
     showgrid="false"
     units="px"
     height="64px"
     showguides="false"
     inkscape:zoom="13.15625"
     inkscape:cx="31.961995"
     inkscape:cy="32"
     inkscape:window-width="1920"
     inkscape:window-height="1019"
     inkscape:window-x="0"
     inkscape:window-y="31"
     inkscape:window-maximized="1"
     inkscape:current-layer="svg5" />
  <defs
     id="defs2" />
  <path
     id="rect1201"
     style="fill:#e6e6e6;fill-opacity:1;stroke-width:0.264583;stroke-linejoin:round;stroke-opacity:0.501961"
     d="m 2.1166667,3.1750001 c -0.4397375,0 -0.79375,0.3540122 -0.79375,0.79375 v 8.9958329 c 0,0.439738 0.3540125,0.79375 0.79375,0.79375 H 14.816667 c 0.439738,0 0.79375,-0.354012 0.79375,-0.79375 V 3.9687501 c 0,-0.4397378 -0.354012,-0.79375 -0.79375,-0.79375 z"
     sodipodi:nodetypes="sssssssss" />
  <path
     id="path1197"
     style="fill:#b3b3b3;fill-opacity:1;stroke-width:0.264583;stroke-linejoin:round;stroke-opacity:0.501961"
     d="M 5 46 L 5 49 C 5 50.662002 6.338 52 8 52 L 56 52 C 57.662002 52 59 50.662002 59 49 L 59 46 C 59 47.662002 57.662002 49 56 49 L 8 49 C 6.338 49 5 47.662002 5 46 z "
     transform="scale(0.26458334)" />
  <path
     id="rect890"
     style="opacity:0.6;fill:#5b5b5b;fill-opacity:1;stroke-width:0.264583;stroke-linejoin:round;stroke-opacity:0.501961"
     d="m 2.1166667,2.9104167 c -0.5863167,0 -1.0583333,0.4720167 -1.0583333,1.0583334 v 8.9958329 c 0,0.586317 0.4720166,1.058334 1.0583333,1.058334 H 14.816667 c 0.586317,0 1.058333,-0.472017 1.058333,-1.058334 V 3.9687501 c 0,-0.5863167 -0.472016,-1.0583334 -1.058333,-1.0583334 z m 0,0.2645834 H 14.816667 c 0.439738,0 0.79375,0.3540125 0.79375,0.79375 v 8.9958329 c 0,0.439738 -0.354012,0.79375 -0.79375,0.79375 H 2.1166667 c -0.4397375,0 -0.79375,-0.354012 -0.79375,-0.79375 V 3.9687501 c 0,-0.4397375 0.3540125,-0.79375 0.79375,-0.79375 z"
     sodipodi:nodetypes="sssssssssssccssccs" />
  <path
     id="rect1416"
     style="opacity:1;fill:#ff8080;stroke-width:0.264583;stroke-linecap:round;stroke-linejoin:round;stroke-opacity:0.3"
     d="M 2.1166667,3.7041669 H 14.816667 c 0.146579,0 0.264583,0.1180042 0.264583,0.2645833 v 8.2020828 c 0,0.14658 -0.118004,0.264584 -0.264583,0.264584 H 2.1166667 c -0.1465792,0 -0.2645834,-0.118004 -0.2645834,-0.264584 V 3.9687502 c 0,-0.1465791 0.1180042,-0.2645833 0.2645834,-0.2645833 z" />
</svg>
