<?xml version="1.0" encoding="UTF-8" standalone="no"?>
<!-- Created with Inkscape (http://www.inkscape.org/) -->

<svg
   width="64"
   height="64"
   viewBox="0 0 16.933333 16.933334"
   version="1.1"
   id="svg5"
   inkscape:version="1.1.2 (0a00cf5339, 2022-02-04, custom)"
   sodipodi:docname="microsoft-edge.svg"
   xmlns:inkscape="http://www.inkscape.org/namespaces/inkscape"
   xmlns:sodipodi="http://sodipodi.sourceforge.net/DTD/sodipodi-0.dtd"
   xmlns="http://www.w3.org/2000/svg"
   xmlns:svg="http://www.w3.org/2000/svg">
  <sodipodi:namedview
     id="namedview7"
     pagecolor="#ffffff"
     bordercolor="#666666"
     borderopacity="1.0"
     inkscape:pageshadow="2"
     inkscape:pageopacity="0.0"
     inkscape:pagecheckerboard="0"
     inkscape:document-units="px"
     showgrid="false"
     units="px"
     height="64px"
     inkscape:zoom="4.6293397"
     inkscape:cx="42.770679"
     inkscape:cy="57.351592"
     inkscape:window-width="1920"
     inkscape:window-height="1019"
     inkscape:window-x="0"
     inkscape:window-y="31"
     inkscape:window-maximized="1"
     inkscape:current-layer="svg5" />
  <defs
     id="defs2" />
  <path
     d="m 9.8235984,9.3130695 c -0.045204,0.05859 -0.1841659,0.139501 -0.1841659,0.315833 0,0.145637 0.094874,0.285697 0.2634139,0.4034355 0.8025076,0.558008 2.3154756,0.484347 2.3193916,0.484347 0.594651,-0.0014 1.178004,-0.16233 1.689311,-0.465932 C 14.961046,9.4380315 15.60729,8.6313965 15.609778,7.4162447 15.624287,6.1657444 15.163293,5.3343442 14.976894,4.9660442 13.794339,2.653136 11.241771,1.3229961 8.4660266,1.3229961 4.5597182,1.3226204 1.3775743,4.4596317 1.322541,8.3648815 1.3493327,6.3259496 3.3762633,4.4342317 5.7873849,4.4342317 c 0.1953286,0 1.3092642,0.018973 2.3439173,0.5618956 0.9118865,0.47879 1.3896182,1.3018823 1.7216967,1.8749698 0.4826531,0.9105636 0.5033961,1.7468584 -0.02902,2.4419724 z"
     style="color:#000000;fill:#50cfa8;stroke-width:0.264583;stroke-linecap:round;stroke-linejoin:round;-inkscape-stroke:none"
     id="path1021" />
  <path
     d="m 14.217709,11.954966 c -0.684609,0.67355 -1.746541,0.833438 -2.591726,0.837591 -2.6408333,0 -4.941359,-2.030597 -4.941359,-4.3613915 0.00689,-0.6365614 0.3576902,-1.2195972 0.9169136,-1.5238945 -2.388579,0.1004411 -3.0024918,2.5891335 -3.0024918,4.047332 0,4.122473 3.8002105,4.540515 4.6185668,4.540515 0.4414573,0 1.1072544,-0.128342 1.5068024,-0.254448 l 0.07311,-0.02455 c 1.537653,-0.531495 2.848504,-1.57062 3.716602,-2.9464 0.124013,-0.195361 -0.09461,-0.427091 -0.296889,-0.314722 z"
     style="color:#000000;fill:#0b4f92;stroke-width:0.264583;stroke-linecap:round;stroke-linejoin:round;-inkscape-stroke:none"
     id="path1379" />
  <path
     d="M 7.0090773,14.793913 C 6.5113166,14.485012 6.0799135,14.080226 5.7400033,13.603156 4.0906172,11.34372 5.0925943,8.1432138 7.6022731,6.9073451 7.7763954,6.8253189 8.07384,6.6768903 8.4695508,6.6841452 c 0.5650971,0.00413 1.0956926,0.2725738 1.4337243,0.7253817 0.2253669,0.3008577 0.3496199,0.6653742 0.3549389,1.0412146 0,-0.01172 1.365065,-4.4418249 -4.4648443,-4.4418249 -2.449989,0 -4.4648441,2.3246557 -4.4648441,4.3643019 -0.00966,1.078865 0.2212049,2.1463525 0.6758517,3.1247305 1.5379171,3.280833 5.2892858,4.890823 8.7270177,3.744648 -1.1769202,0.371025 -2.6717631,0.207888 -3.7179256,-0.446405 z"
     style="color:#000000;fill:#067fd7;stroke-width:0.264583;stroke-linecap:round;stroke-linejoin:round;-inkscape-stroke:none"
     id="path1141" />
  <path
     id="path858"
     style="color:#000000;fill:#000000;fill-opacity:0.25;stroke-width:0.264583;stroke-linecap:round;stroke-linejoin:round;-inkscape-stroke:none"
     d="M 8.4661502,1.190625 C 4.4892527,1.1905236 1.2466542,4.3868816 1.190625,8.3627975 v 5.29e-4 a 0.1323049,0.1323049 0 0 0 0.00568,0.01292 c -0.00921,1.097107 0.22598,2.1826305 0.6883301,3.1775845 a 0.1323049,0.1323049 0 0 0 0,5.29e-4 c 1.5654951,3.339665 5.3856848,4.979345 8.8852459,3.814237 3.18e-4,-1.08e-4 7.15e-4,1.09e-4 10e-4,0 6.88e-4,-2.28e-4 0.0014,-2.91e-4 0.0021,-5.29e-4 a 0.1323049,0.1323049 0 0 0 0.0072,-0.0067 l 0.05995,-0.01964 a 0.1323049,0.1323049 0 0 0 0.001,-5.29e-4 c 1.566042,-0.541292 2.90118,-1.599667 3.785308,-3.000851 0.09354,-0.147357 0.05871,-0.327474 -0.04186,-0.434082 -0.08576,-0.09091 -0.227122,-0.119493 -0.361735,-0.07855 a 0.1323049,0.1323049 0 0 0 -0.01344,-0.0047 h -5.29e-4 l 0.0021,0.0067 c -0.01918,0.0066 -0.03875,-10e-4 -0.05736,0.0093 a 0.1323049,0.1323049 0 0 0 -0.01809,0.04444 l -0.01034,-0.02274 c -0.643069,0.63268 -1.669677,0.795239 -2.498556,0.799434 -2.5724209,0 -4.8084925,-1.984544 -4.809526,-4.2276485 v -5.3e-4 C 6.823617,7.8459465 7.1451421,7.3093543 7.6583873,7.0269486 l 0.00103,-5.291e-4 c 3.44e-4,-1.731e-4 6.879e-4,-3.44e-4 0.00103,-5.292e-4 3.175e-4,-1.46e-4 7.144e-4,-3.704e-4 0.00103,-5.292e-4 C 7.8387542,6.9417931 8.107464,6.8099945 8.4671185,6.8165885 a 0.1323049,0.1323049 0 0 0 0.00156,0 c 0.5238101,0.00383 1.015275,0.2520796 1.3286012,0.6717935 a 0.1323049,0.1323049 0 0 0 0,5.292e-4 c 0.141336,0.1886193 0.2385873,0.4043894 0.2889163,0.6320025 0.01031,0.4009488 -0.1066644,0.7717978 -0.3669027,1.1115598 -0.00108,0.0014 -0.2118733,0.150524 -0.2118733,0.396359 0,0.20309 0.1300673,0.3795145 0.319877,0.5121125 a 0.1323049,0.1323049 0 0 0 5.292e-4,0 c 0.4354868,0.302806 1.0305898,0.42191 1.5203218,0.474391 0.489731,0.05248 0.872408,0.03359 0.874365,0.03359 a 0.1323049,0.1323049 0 0 0 5.29e-4,0 c 0.618306,-0.0015 1.224837,-0.168531 1.756482,-0.484209 h -10e-4 c 1.072422,-0.6261065 1.760738,-1.4857825 1.763717,-2.7471185 v -5.302e-4 c 0.01472,-1.2833774 -0.46411,-2.1495512 -0.64702,-2.5109578 a 0.1323049,0.1323049 0 0 0 0,-5.292e-4 C 13.886931,2.5425109 11.28447,1.1907926 8.4666669,1.190625 Z m 0,0.2645834 c 2.7334788,0 5.2366228,1.308334 6.3934088,3.5708417 0.189973,0.3753059 0.632687,1.1716039 0.618567,2.3884848 a 0.1323049,0.1323049 0 0 0 -5.29e-4,0.00156 c -0.0024,1.1683666 -0.606201,1.9211046 -1.632459,2.5202596 a 0.1323049,0.1323049 0 0 0 -5.29e-4,5.29e-4 c -0.490968,0.2915245 -1.051128,0.4461455 -1.622123,0.4475175 -0.002,0 -0.377586,0.01815 -0.845943,-0.03204 -0.468204,-0.05017 -1.030304,-0.173368 -1.3973317,-0.4283975 -0.1472692,-0.10288 -0.2072225,-0.206889 -0.2072225,-0.295072 0,-0.106557 0.067082,-0.119659 0.1560629,-0.234611 a 0.1323049,0.1323049 0 0 0 0.00156,-5.3e-4 c 0.1978433,-0.258301 0.3221853,-0.538014 0.3798223,-0.832507 a 0.1323049,0.1323049 0 0 0 0.08113,-0.110587 c 0,-4.6e-5 -0.0026,0.02735 -0.0031,0.02946 5.55e-4,-0.002 0.0011,-0.0042 0.0021,-0.0078 0.0025,-0.0091 0.0064,-0.02295 0.01085,-0.04031 0.009,-0.03471 0.0212,-0.085032 0.03462,-0.1483111 0.02686,-0.1265118 0.058,-0.3055122 0.077,-0.5203346 0.038,-0.429645 0.02708,-1.0024071 -0.175184,-1.581299 C 10.13456,5.6031701 9.7367823,5.0191876 9.0185547,4.587844 8.3003273,4.1565001 7.2676585,3.8767763 5.7934282,3.8767763 c -1.2668343,0 -2.4154056,0.5995339 -3.2463135,1.4572753 C 2.2804429,5.6093426 2.0467563,5.9116071 1.8510499,6.2301109 2.786606,3.4563861 5.3822265,1.4549115 8.4661502,1.4552084 Z M 5.7934449,4.1413496 c 1.4407211,0 2.4232177,0.2736768 3.0887004,0.6733439 0.6654832,0.3996669 1.0198825,0.9240759 1.2050947,1.4541747 0.185212,0.530099 0.196992,1.0669333 0.16123,1.4712281 -0.0012,0.01411 -0.0038,0.020325 -0.0052,0.034106 C 10.181381,7.6187089 10.110762,7.4658723 10.009209,7.3303022 9.646575,6.8445388 9.0769916,6.5566494 8.4708013,6.5520551 H 8.4702721 C 8.0411476,6.5446442 7.7165562,6.7072502 7.5457806,6.7876997 a 0.1323049,0.1323049 0 0 0 -0.00206,0.00103 c -2.5777924,1.2694105 -3.609428,4.5630473 -1.9115115,6.8910533 0,0 5.292e-4,5.29e-4 5.292e-4,5.29e-4 2.347e-4,3.17e-4 2.91e-4,7.14e-4 5.291e-4,10e-4 0.3499184,0.490693 0.7937313,0.906911 1.3058633,1.224731 a 0.1323049,0.1323049 0 0 0 0.00414,0.0021 c 0.4423934,0.276683 0.9641925,0.445093 1.5017171,0.548804 -2.6435758,-0.01066 -5.1428626,-1.502768 -6.3205696,-4.01475 v -5.3e-4 C 1.6781942,10.481266 1.4514084,9.4332135 1.4608928,8.3741665 a 0.1323049,0.1323049 0 0 0 0,-5.29e-4 0.1323049,0.1323049 0 0 0 0,-5.3e-4 c 0,-0.9762605 0.4873925,-2.0406261 1.2764079,-2.8551224 C 3.526316,4.7034889 4.610293,4.1413249 5.7934449,4.1413249 Z M 6.7566936,7.6103885 C 6.6293298,7.8605618 6.5557187,8.1385932 6.5525718,8.4294595 a 0.1323049,0.1323049 0 0 0 0,0.0016 c 0,2.4178415 2.3654642,4.4937835 5.0741102,4.4937835 a 0.1323049,0.1323049 0 0 0 5.29e-4,0 c 0.850966,-0.0042 1.928724,-0.161801 2.654618,-0.854211 0.04971,-0.02761 0.08228,-0.01295 0.110588,0.01705 0.02831,0.03001 0.04081,0.0631 0.01033,0.111105 a 0.1323049,0.1323049 0 0 0 0,5.29e-4 c -0.852067,1.350374 -2.138565,2.370127 -3.64784,2.891813 l -0.06977,0.02323 c -0.09567,0.0302 -0.209152,0.0605 -0.331763,0.0894 -3.7e-4,9e-5 -6.61e-4,4.24e-4 -0.001,5.29e-4 -0.0012,2.57e-4 -0.0024,2.61e-4 -0.0036,5.3e-4 -0.04099,0.0096 -0.08646,0.0177 -0.129191,0.02687 -1.0479581,0.190546 -2.2639463,-0.0025 -3.1357307,-0.54777 a 0.1323049,0.1323049 0 0 0 -0.00517,-0.0026 c -5.292e-4,-3.17e-4 -0.00103,-7.14e-4 -0.00156,-10e-4 -0.4822352,-0.29959 -0.9000512,-0.691711 -1.2294254,-1.153993 a 0.1323049,0.1323049 0 0 0 -0.00103,-10e-4 C 4.4631026,11.629971 5.0050431,9.0503625 6.7566936,7.6103885 Z" />
</svg>
