<?xml version="1.0" encoding="UTF-8" standalone="no"?>
<!-- Created with Inkscape (http://www.inkscape.org/) -->

<svg
   width="64"
   height="64"
   viewBox="0 0 16.933333 16.933334"
   version="1.1"
   id="svg5"
   inkscape:version="1.1.2 (0a00cf5339, 2022-02-04, custom)"
   sodipodi:docname="visualstudiocode.svg"
   xmlns:inkscape="http://www.inkscape.org/namespaces/inkscape"
   xmlns:sodipodi="http://sodipodi.sourceforge.net/DTD/sodipodi-0.dtd"
   xmlns="http://www.w3.org/2000/svg"
   xmlns:svg="http://www.w3.org/2000/svg">
  <sodipodi:namedview
     id="namedview7"
     pagecolor="#ffffff"
     bordercolor="#666666"
     borderopacity="1.0"
     inkscape:pageshadow="2"
     inkscape:pageopacity="0.0"
     inkscape:pagecheckerboard="0"
     inkscape:document-units="px"
     showgrid="false"
     units="px"
     height="64px"
     showguides="false"
     inkscape:zoom="8.4330001"
     inkscape:cx="39.784181"
     inkscape:cy="33.440057"
     inkscape:window-width="1920"
     inkscape:window-height="1019"
     inkscape:window-x="0"
     inkscape:window-y="31"
     inkscape:window-maximized="1"
     inkscape:current-layer="svg5" />
  <defs
     id="defs2" />
  <path
     style="color:#000000;fill:#000000;fill-opacity:0.19608;fill-rule:evenodd;stroke-width:1.00002;-inkscape-stroke:none;paint-order:stroke fill markers"
     d="m 11.691708,1.4433021 -0.146487,0.017578 c -0.167732,0.018718 -0.334924,0.076541 -0.49415,0.1816442 l -0.121096,0.08008 0.0918,0.1132835 c -0.01049,-0.013064 0.01806,0.046227 0.02734,0.1367214 0.0093,0.090495 0.01273,0.2140555 0.01172,0.3574289 -0.002,0.2867469 -0.02015,0.6524674 -0.02734,1.0234577 -0.0072,0.3709903 -0.0035,0.7462917 0.03906,1.0605678 0.04261,0.3142761 0.109684,0.5846161 0.320318,0.716811 l 0.380868,0.2382859 v 6.2012945 l -0.642592,0.482431 c -0.191991,0.143853 -0.24949,0.400972 -0.273442,0.693373 -0.02395,0.292401 -0.0037,0.632634 0.02734,0.96877 0.03108,0.336134 0.07329,0.668018 0.09961,0.929705 0.01316,0.130843 0.02207,0.24458 0.02344,0.330084 0.0014,0.0855 -0.01391,0.147433 -0.0098,0.138675 l -0.05078,0.107424 0.101564,0.0625 c 0.169592,0.103505 0.417775,0.220826 0.675794,0.189457 0.0783,-0.0096 0.159143,-0.03152 0.238287,-0.07031 l 2.830133,-1.386747 c 0.151353,-0.07418 0.313062,-0.144979 0.449228,-0.253911 0.136166,-0.108932 0.244145,-0.274653 0.244145,-0.486337 V 3.6562363 c 0,-0.2116851 -0.107979,-0.3754502 -0.244145,-0.4843846 C 15.106394,3.0629174 14.944688,2.9921115 14.793332,2.9179405 L 11.963199,1.5311944 c -0.07906,-0.03875 -0.159743,-0.060762 -0.238287,-0.070313 -0.0115,-0.0014 -0.02183,8.346e-4 -0.0332,0 z m -0.117189,0.2793023 c 0.04053,-0.00453 0.07984,-0.00478 0.119142,0 0.05154,0.00627 0.102796,0.021631 0.1543,0.046876 l 2.828181,1.3867461 c 0.157041,0.076957 0.305795,0.1454147 0.402352,0.2226607 0.09656,0.077246 0.144534,0.1455924 0.144534,0.2773492 v 9.6193306 c 0,0.131756 -0.04798,0.202057 -0.144534,0.279302 -0.09656,0.07724 -0.245308,0.145694 -0.402352,0.222661 l -2.828181,1.386746 c -0.05142,0.02521 -0.10252,0.04051 -0.1543,0.04687 -0.127466,0.0155 -0.298471,-0.0607 -0.435554,-0.132816 0.0021,-0.03546 0.01629,-0.0656 0.01563,-0.107424 -0.0016,-0.0995 -0.0119,-0.219406 -0.02539,-0.353522 -0.02698,-0.268233 -0.06914,-0.596286 -0.09961,-0.9258 -0.03047,-0.329513 -0.04893,-0.660312 -0.02734,-0.923846 0.02159,-0.263533 0.092,-0.446991 0.167972,-0.503916 l 0.750015,-0.560558 V 5.2226733 L 11.533502,4.9062609 c -0.07297,-0.045799 -0.160222,-0.2397161 -0.199223,-0.5273542 -0.039,-0.287638 -0.0442,-0.6537099 -0.03711,-1.0195513 0.0071,-0.3658414 0.02526,-0.7313646 0.02734,-1.0273639 10e-4,-0.1479997 -6.16e-4,-0.2785577 -0.01172,-0.3867264 -0.0045,-0.04386 -0.02786,-0.073848 -0.03516,-0.1113303 0.09891,-0.052825 0.196619,-0.1001414 0.296881,-0.1113304 z"
     id="path867" />
  <path
     style="color:#000000;fill:#35a0f3;fill-rule:evenodd;stroke-width:0.264587;-inkscape-stroke:none;paint-order:stroke fill markers"
     d="m 11.559286,1.5915757 c -0.147479,0.016458 -0.290998,0.066977 -0.434419,0.1616475 0.224378,0.2793156 -0.228581,2.9089939 0.338636,3.2649811 l 0.442663,0.277833 v 6.3412977 l -0.695341,0.520979 c -0.535936,0.401557 0.04852,2.714626 -0.09207,3.012124 0.155315,0.09479 0.387351,0.195981 0.590385,0.171298 0.06504,-0.008 0.130876,-0.0261 0.19616,-0.0581 l 2.82965,-1.387486 c 0.308397,-0.151144 0.619646,-0.276204 0.619646,-0.619646 V 3.6570298 c 0,-0.3434422 -0.311249,-0.4685183 -0.619646,-0.6196458 L 11.905302,1.6498973 c -0.06528,-0.031998 -0.131121,-0.050184 -0.19616,-0.058093 -0.05077,-0.00617 -0.100702,-0.00549 -0.149856,0 z"
     id="path869" />
  <path
     style="color:#000000;fill:#000000;fill-opacity:0.19608;fill-rule:evenodd;stroke-width:1.00002;-inkscape-stroke:none;paint-order:stroke fill markers"
     d="M 11.638973,1.5917425 C 11.390542,1.4780693 11.093338,1.56733 10.857708,1.7851056 l -9.2286979,8.5275114 -0.00781,0.02148 0.029298,-0.03906 c -0.1062499,0.0982 -0.1983718,0.229184 -0.2324265,0.384774 -0.034055,0.155589 0.00487,0.340081 0.1484404,0.476571 l 0.8613452,0.820329 c 0.2013505,0.191444 0.4481908,0.210984 0.6367312,0.158206 0.1878516,-0.05259 0.3318729,-0.163155 0.4101644,-0.224614 L 12.039372,5.361348 V 2.4316027 c 0,-0.4294144 -0.151969,-0.726187 -0.400399,-0.8398602 z m -0.11133,0.240239 c 0.126773,0.058007 0.246098,0.2299635 0.246099,0.5996212 V 5.230486 l -8.4611049,6.470831 c -0.070763,0.05557 -0.1931063,0.142127 -0.3203188,0.177737 -0.1272125,0.03561 -0.2437936,0.03462 -0.3808669,-0.0957 l -0.8613451,-0.81838 c -0.082404,-0.07834 -0.092676,-0.1442 -0.07422,-0.22852 0.018455,-0.08432 0.081367,-0.180643 0.1542999,-0.248052 l 0.019531,-0.01953 9.1876808,-8.4904022 C 11.219765,1.8099223 11.40087,1.7739756 11.527643,1.8319825 Z"
     id="path861" />
  <path
     style="color:#000000;fill:#11539f;fill-rule:evenodd;stroke-width:0.264587;-inkscape-stroke:none;paint-order:stroke fill markers"
     d="M 1.7399033,10.391221 10.946857,1.8820677 c 0.417996,-0.3863235 0.959406,-0.2493376 0.959406,0.5497355 V 5.2958304 L 3.3945025,11.805753 c -0.1488466,0.116897 -0.5367178,0.396116 -0.8751419,0.07434 l -0.8611307,-0.81872 c -0.2259744,-0.21483 -0.097559,-0.504427 0.081625,-0.670038 z"
     id="path863" />
  <path
     style="color:#000000;fill:#000000;fill-opacity:0.19608;fill-rule:evenodd;stroke-width:1.00002;-inkscape-stroke:none;paint-order:stroke fill markers"
     d="M 3.0645853,4.7929774 C 2.8760445,4.7401995 2.6292041,4.7616904 2.4278541,4.9531368 L 1.5665089,5.7715123 C 1.4229424,5.9080092 1.3840136,6.0924961 1.4180685,6.2480842 1.4521235,6.4036723 1.5442468,6.53661 1.650495,6.6348105 l 9.207213,8.5079805 c 0.23563,0.217775 0.532834,0.307036 0.781265,0.193363 0.248431,-0.113673 0.400399,-0.410446 0.400399,-0.83986 V 11.566548 L 3.4767028,5.0195443 3.4747497,5.0175912 C 3.3963459,4.9560595 3.2520628,4.8454577 3.0645853,4.7929774 Z M 1.650495,6.6348105 1.617291,6.5859815 1.627061,6.6133255 Z M 2.9923183,5.0488418 c 0.1272121,0.03561 0.2495566,0.1221637 0.3203188,0.1777379 l 8.4611049,6.4708313 v 2.798883 c 0,0.369657 -0.119326,0.541614 -0.246099,0.599621 -0.126773,0.05801 -0.307878,0.02206 -0.490245,-0.146487 L 1.8516708,6.460979 1.830186,6.4394942 C 1.757251,6.3720835 1.6943411,6.2777117 1.6758861,6.1933956 1.6574311,6.1090796 1.6676986,6.0412721 1.7501063,5.9629223 L 2.6114514,5.1445468 C 2.7485251,5.0142153 2.8651062,5.0132315 2.9923183,5.0488418 Z"
     id="path855" />
  <path
     style="color:#000000;fill:#1a81da;fill-rule:evenodd;stroke-width:0.264587;-inkscape-stroke:none;paint-order:stroke fill markers"
     d="m 1.7399033,6.5374355 9.2069537,8.5091535 c 0.417996,0.386323 0.959406,0.249338 0.959406,-0.549735 V 11.632827 L 3.3945025,5.1229037 C 3.2456559,5.0060047 2.8577847,4.7267885 2.5193606,5.0485667 L 1.6582299,5.8672721 c -0.2259744,0.2148469 -0.097559,0.5044266 0.081625,0.670038 z"
     id="path857" />
</svg>
