<?xml version="1.0" encoding="UTF-8" standalone="no"?>
<!-- Created with Inkscape (http://www.inkscape.org/) -->

<svg
   width="64"
   height="64"
   viewBox="0 0 16.933333 16.933334"
   version="1.1"
   id="svg5"
   inkscape:version="1.1.2 (0a00cf5339, 2022-02-04, custom)"
   sodipodi:docname="accessories-screenshot.svg"
   xmlns:inkscape="http://www.inkscape.org/namespaces/inkscape"
   xmlns:sodipodi="http://sodipodi.sourceforge.net/DTD/sodipodi-0.dtd"
   xmlns="http://www.w3.org/2000/svg"
   xmlns:svg="http://www.w3.org/2000/svg">
  <sodipodi:namedview
     id="namedview7"
     pagecolor="#ffffff"
     bordercolor="#666666"
     borderopacity="1.0"
     inkscape:pageshadow="2"
     inkscape:pageopacity="0.0"
     inkscape:pagecheckerboard="0"
     inkscape:document-units="px"
     showgrid="false"
     units="px"
     height="64px"
     inkscape:zoom="1"
     inkscape:cx="32.5"
     inkscape:cy="32"
     inkscape:window-width="1920"
     inkscape:window-height="1019"
     inkscape:window-x="0"
     inkscape:window-y="31"
     inkscape:window-maximized="1"
     inkscape:current-layer="svg5" />
  <defs
     id="defs2" />
  <path
     id="path1233"
     style="color:#000000;opacity:0.3;fill:#42557f;fill-opacity:1;stroke:none;stroke-width:0.264583;-inkscape-stroke:none"
     d="m 6.6145835,9.2604169 c -0.1465792,0 -0.2645833,0.1180044 -0.2645833,0.2645834 V 13.91388 l -0.8299236,0.109037 c -0.2686823,0.0051 -0.4929931,0.218677 -0.4929931,0.485241 V 15.08125 H 11.90625 v -0.573092 c 0,-0.265819 -0.22305,-0.478269 -0.490409,-0.484725 L 10.583334,13.91388 V 9.5250003 c 0,-0.146579 -0.118005,-0.2645834 -0.264584,-0.2645834 z m 0,4.8947911 H 10.31875 l 1.079004,0.132292 h 0.0057 c 0.13723,0 0.23823,0.100086 0.23823,0.220658 v 0.308509 H 5.2916668 v -0.308509 c 0,-0.120691 0.1006504,-0.220658 0.2382285,-0.220658 h 0.0062 z" />
  <path
     id="rect950"
     style="fill:#fafafa;fill-opacity:1;stroke-width:0.25227;stroke-linejoin:round"
     d="M 6.6145835,9.5250003 V 14.155208 L 5.5355796,14.2875 h -0.00568 c -0.1375846,0 -0.2382295,0.100008 -0.2382295,0.220658 v 0.308509 H 11.64167 v -0.308509 c 0,-0.12065 -0.100909,-0.220658 -0.238228,-0.220658 h -0.0062 L 10.31875,14.155208 V 9.5250003 Z" />
  <path
     id="rect2161"
     style="fill:#414757;stroke-width:0.264583;stroke-linejoin:round"
     d="M 1.0583333,1.984375 H 15.875 c 0.219868,0 0.396875,0.1770062 0.396875,0.396875 v 9.789583 c 0,0.219869 -0.177007,0.396875 -0.396875,0.396875 H 1.0583333 c -0.21986873,0 -0.39687498,-0.177006 -0.39687498,-0.396875 V 2.38125 c 0,-0.2198688 0.17700625,-0.396875 0.39687498,-0.396875 z"
     sodipodi:nodetypes="sssssssss" />
  <path
     id="rect846"
     style="opacity:0.8;fill:#252831;fill-opacity:1;stroke-width:0.264583;stroke-linejoin:round"
     d="m 1.0583334,1.8520834 c -0.29315834,0 -0.52916673,0.2360084 -0.52916673,0.5291667 v 9.7895839 c 0,0.293158 0.23600839,0.529167 0.52916673,0.529167 H 15.875 c 0.293158,0 0.529166,-0.236009 0.529166,-0.529167 V 2.3812501 c 0,-0.2931583 -0.236008,-0.5291667 -0.529166,-0.5291667 z m 0,0.2645833 H 15.875 c 0.146579,0 0.264583,0.1180042 0.264583,0.2645834 v 9.7895839 c 0,0.146579 -0.118004,0.264583 -0.264583,0.264583 H 1.0583334 c -0.14657922,0 -0.26458339,-0.118004 -0.26458339,-0.264583 V 2.3812501 c 0,-0.1465792 0.11800417,-0.2645834 0.26458339,-0.2645834 z"
     sodipodi:nodetypes="ssssssssssssssssss" />
  <path
     id="rect2689"
     style="fill:#4d4d4d;stroke-width:0.253484;stroke-linejoin:round"
     d="M 1.3229167,2.6458335 H 15.610416 V 11.90625 H 1.3229167 Z"
     sodipodi:nodetypes="ccccc" />
  <path
     id="rect847"
     style="opacity:0.8;fill:#ffffff;stroke-width:1.95789;stroke-linejoin:round"
     d="M 15 13 L 15 17 L 11 17 L 11 19 L 17 19 L 17 13 L 15 13 z M 21 17 L 21 19 L 25 19 L 25 17 L 21 17 z M 28 17 L 28 19 L 32 19 L 32 17 L 28 17 z M 35 17 L 35 19 L 39 19 L 39 17 L 35 17 z M 43 17 L 43 19 L 47 19 L 47 23 L 49 23 L 49 17 L 43 17 z M 15 23 L 15 29 L 17 29 L 17 23 L 15 23 z M 47 26 L 47 32 L 49 32 L 49 26 L 47 26 z M 15 32 L 15 38 L 21 38 L 21 36 L 17 36 L 17 32 L 15 32 z M 25 36 L 25 38 L 29 38 L 29 36 L 25 36 z M 32 36 L 32 38 L 36 38 L 36 36 L 32 36 z M 39 36 L 39 38 L 43 38 L 43 36 L 39 36 z M 47 36 L 47 42 L 49 42 L 49 38 L 53 38 L 53 36 L 47 36 z "
     transform="scale(0.26458334)" />
  <path
     id="path12"
     style="fill:#e6e6e6;fill-opacity:1;stroke-width:1.00002"
     d="m 11.390063,8.4956055 c 0,0 -1.309759,2.7598875 1.874304,4.5289225 v -1.06195 z m 4.011124,0 -1.873787,3.4669725 v 1.06195 c 3.184062,-1.769035 1.873787,-4.5289225 1.873787,-4.5289225 z" />
  <path
     id="path14"
     style="color:#000000;opacity:0.5;fill:#000000;stroke:none;stroke-width:1.00002;-inkscape-stroke:none"
     d="M 11.382311,8.2020834 11.27069,8.4387616 c 0,0 -0.342568,0.7198574 -0.269234,1.6675984 0.07333,0.947741 0.575002,2.130935 2.199349,3.033407 l 0.19327,0.10852 v 0.001 l 10e-4,-5.29e-4 10e-4,5.29e-4 v -0.001 l 0.19482,-0.10852 c 1.62441,-0.902472 2.126079,-2.085666 2.199412,-3.033407 0.07333,-0.947741 -0.269234,-1.6675986 -0.269234,-1.6675984 l -0.111621,-0.2366782 -2.014347,3.7248376 -0.01499,-0.02739 z m 3.954797,0.6914308 c 0.08142,0.2111986 0.242253,0.5139246 0.189653,1.1937258 -0.06348,0.820447 -0.531552,1.812056 -1.86707,2.648417 v -0.738456 z m -3.88245,0.00206 1.677417,3.1016198 v 0.738456 c -1.335516,-0.836357 -1.803586,-1.827966 -1.867069,-2.648414 -0.05252,-0.6787151 0.108055,-0.9797173 0.189652,-1.191658 z" />
  <path
     d="m 12.50034,12.994738 c -0.48801,0.026 -1.792035,0.323006 -1.792035,1.234024 0,1.040021 0.775015,1.406028 1.238024,1.406028 0.464009,0 1.220024,-0.350007 1.239024,-1.406028 0.014,-0.842016 -0.287005,-1.182023 -0.52901,-1.234024 -0.05187,-0.0052 -0.104133,-0.0052 -0.156003,0 z m 1.568031,0 c -0.242005,0.052 -0.543011,0.392008 -0.528011,1.234024 0.018,1.055021 0.766016,1.406028 1.230025,1.406028 0.463009,0 1.238024,-0.365007 1.238024,-1.406028 0,-1.04102 -1.698033,-1.286025 -1.940038,-1.234024 z m -1.568031,0.666013 c 0,0 0.156003,1.800036 -0.793016,1.094022 -1.05602,-0.786016 0.793016,-1.094022 0.793016,-1.094022 z m 1.717034,0 c 0,0 1.856036,0.308006 0.800016,1.094022 -0.949019,0.707014 -0.800016,-1.094022 -0.800016,-1.094022 z"
     style="color:#000000;overflow:visible;fill:#e1594d;stroke-width:0.264583;marker:none"
     id="path1148" />
  <path
     style="color:#000000;opacity:0.6;fill:#640000;stroke-width:1.00002;stroke-linecap:round;stroke-linejoin:round;-inkscape-stroke:none"
     d="m 12.50134,12.862438 c -0.264235,0.01398 -0.72084,0.09611 -1.130881,0.298834 -0.410041,0.202724 -0.787126,0.549759 -0.787126,1.068381 0,0.5533 0.211705,0.946434 0.490245,1.19143 0.278538,0.244996 0.614335,0.34571 0.880876,0.34571 0.265051,0 0.596613,-0.09647 0.873064,-0.339851 0.276452,-0.243377 0.488541,-0.636264 0.498057,-1.195336 0.0148,-0.873615 -0.297032,-1.293251 -0.632825,-1.365262 -0.07218,-0.01581 -0.121512,-0.0076 -0.19141,-0.0039 z m 1.539093,0.0039 c -0.335997,0.07197 -0.647909,0.491636 -0.632825,1.365262 0.0095,0.558595 0.21784,0.951736 0.492198,1.195336 0.274356,0.243601 0.603967,0.339851 0.869157,0.339851 0.266429,0 0.602376,-0.100715 0.880877,-0.34571 0.2785,-0.244996 0.490244,-0.63813 0.490244,-1.19143 0,-0.296272 -0.125342,-0.544986 -0.306647,-0.732436 -0.181306,-0.18745 -0.41545,-0.320954 -0.65431,-0.417977 -0.23886,-0.09702 -0.481887,-0.156179 -0.683607,-0.189457 -0.201721,-0.03328 -0.342762,-0.04753 -0.455087,-0.02344 z m -1.404324,0.257819 c 0.147647,0.03166 0.437551,0.292251 0.423836,1.101583 -0.0084,0.496322 -0.183948,0.80626 -0.406258,1.001974 -0.222311,0.195713 -0.500921,0.275395 -0.699233,0.275395 -0.197085,0 -0.480311,-0.08354 -0.705092,-0.281255 -0.22478,-0.197712 -0.400399,-0.504586 -0.400399,-0.992207 0,-0.392317 0.274892,-0.650235 0.638685,-0.830094 0.363793,-0.17986 0.804196,-0.259681 1.027364,-0.27149 0.06958,-0.0037 0.133033,-0.0013 0.121097,-0.0039 z m 1.459012,0 c 0.0085,-0.0018 0.172769,-0.0051 0.357429,0.02539 0.184661,0.03046 0.411082,0.08809 0.626966,0.175785 0.215884,0.08769 0.419819,0.205928 0.564464,0.355476 0.144646,0.149546 0.232426,0.324518 0.232426,0.548838 0,0.487621 -0.175646,0.794495 -0.400398,0.992207 -0.224752,0.197713 -0.510111,0.281255 -0.707045,0.281255 -0.198438,0 -0.473128,-0.07984 -0.693373,-0.275395 -0.220245,-0.195556 -0.395853,-0.505438 -0.404305,-1.001974 -0.01397,-0.809321 0.275864,-1.06989 0.423836,-1.101582 z m -1.609406,0.406258 c 0,0 -0.470962,0.07397 -0.832048,0.26563 -0.180543,0.09583 -0.353763,0.226508 -0.390632,0.433602 -0.01844,0.103547 0.0071,0.215646 0.07031,0.320319 0.06319,0.104673 0.161706,0.205549 0.302741,0.310553 0.128775,0.09586 0.244518,0.155688 0.357429,0.179691 0.11291,0.024 0.224835,0.0083 0.312506,-0.04297 0.175341,-0.10245 0.24785,-0.299515 0.291021,-0.496103 0.08634,-0.393175 0.04297,-0.851579 0.04297,-0.851579 -0.0066,-0.07723 -0.0779,-0.132273 -0.1543,-0.119143 z m 1.751987,0 c -0.07569,-0.01186 -0.145618,0.04282 -0.152347,0.119143 0,0 -0.04172,0.460364 0.04687,0.853532 0.0443,0.196584 0.117127,0.392054 0.292975,0.49415 0.08792,0.05105 0.199416,0.06695 0.312506,0.04297 0.11309,-0.02398 0.230602,-0.0838 0.359382,-0.179691 0.141067,-0.105028 0.239738,-0.205729 0.302741,-0.310553 0.063,-0.104824 0.08737,-0.218701 0.06836,-0.322272 -0.03802,-0.207143 -0.213045,-0.335907 -0.394538,-0.431649 -0.362989,-0.191485 -0.835955,-0.26563 -0.835955,-0.26563 z m -1.869177,0.312506 c 0.0066,0.130765 0.02533,0.343914 -0.03125,0.601574 -0.03628,0.165209 -0.101799,0.287843 -0.164066,0.324225 -0.03113,0.01819 -0.06281,0.02648 -0.12305,0.01367 -0.06024,-0.01281 -0.147279,-0.05199 -0.255864,-0.132814 -0.122876,-0.09148 -0.196588,-0.173734 -0.23438,-0.236334 -0.03779,-0.0626 -0.04154,-0.100882 -0.03516,-0.136721 0.01276,-0.07168 0.102414,-0.166722 0.251958,-0.246099 0.235381,-0.124939 0.461675,-0.160788 0.591808,-0.187503 z m 1.990274,0 c 0.132031,0.02705 0.355816,0.06301 0.591808,0.187503 0.150639,0.07946 0.242717,0.174469 0.255864,0.246099 0.0066,0.03581 0.0043,0.07427 -0.0332,0.136721 -0.03753,0.06245 -0.111537,0.144873 -0.23438,0.236334 -0.108514,0.0808 -0.195395,0.118037 -0.255864,0.130861 -0.06047,0.01282 -0.09337,0.0066 -0.125003,-0.01172 -0.06327,-0.03674 -0.130741,-0.159012 -0.167972,-0.324225 -0.05806,-0.257631 -0.03723,-0.470801 -0.03125,-0.601574 z"
     id="path22"
     sodipodi:nodetypes="csssssccccscsssssssssccssssscccccsssssscccscccscscsccccsscsssccsssscssssscscccccssc" />
</svg>
