<?xml version="1.0" encoding="UTF-8" standalone="no"?>
<!-- Created with Inkscape (http://www.inkscape.org/) -->

<svg
   width="64"
   height="64"
   viewBox="0 0 16.933333 16.933334"
   version="1.1"
   id="svg5"
   inkscape:version="1.1.2 (0a00cf5339, 2022-02-04, custom)"
   sodipodi:docname="accessories-dictionary.svg"
   xmlns:inkscape="http://www.inkscape.org/namespaces/inkscape"
   xmlns:sodipodi="http://sodipodi.sourceforge.net/DTD/sodipodi-0.dtd"
   xmlns="http://www.w3.org/2000/svg"
   xmlns:svg="http://www.w3.org/2000/svg">
  <sodipodi:namedview
     id="namedview7"
     pagecolor="#ffffff"
     bordercolor="#666666"
     borderopacity="1.0"
     inkscape:pageshadow="2"
     inkscape:pageopacity="0.0"
     inkscape:pagecheckerboard="0"
     inkscape:document-units="px"
     showgrid="false"
     units="px"
     height="64px"
     showguides="false"
     inkscape:zoom="9.0748972"
     inkscape:cx="22.975467"
     inkscape:cy="37.851668"
     inkscape:window-width="1920"
     inkscape:window-height="1021"
     inkscape:window-x="0"
     inkscape:window-y="0"
     inkscape:window-maximized="1"
     inkscape:current-layer="svg5" />
  <defs
     id="defs2" />
  <rect
     style="fill:#976e55;fill-opacity:1;stroke-width:0.264583;stroke-linejoin:round;stroke-opacity:0.501961"
     id="rect1201"
     width="11.377084"
     height="14.552083"
     x="2.778125"
     y="1.190625"
     ry="0.92604166" />
  <path
     d="M 8.0024633,6.3500001 6.6597629,9.942543 c -0.072571,0.193523 -0.1388472,0.320453 -0.1993232,0.380929 -0.056444,0.06048 -0.1432335,0.09065 -0.2601537,0.09065 H 6.0854167 v 0.253953 H 7.5609993 V 10.414127 H 7.421916 c -0.2660943,0 -0.3992371,-0.09892 -0.3992371,-0.296475 0,-0.0766 0.018343,-0.163097 0.054629,-0.259858 L 7.3070469,9.2226175 H 8.8974988 L 9.1393442,9.900021 c 0.016125,0.04435 0.028257,0.08478 0.036321,0.12107 0.00806,0.03628 0.012108,0.07051 0.012108,0.102762 0,0.193524 -0.121012,0.290274 -0.3629159,0.290274 h -0.139084 v 0.253953 h 1.6630937 v -0.253953 h -0.07855 c -0.11692,0 -0.207753,-0.02209 -0.2722608,-0.06644 -0.060475,-0.04435 -0.1127471,-0.128969 -0.1570957,-0.253954 L 8.4740473,6.3500001 Z m 0.1089634,0.5566285 c 0.032254,0.1451423 0.074564,0.2963336 0.1269762,0.4535711 0.052413,0.1572376 0.1108968,0.3243079 0.1754045,0.5017041 L 8.7885351,8.9202365 H 7.421916 L 7.8329648,7.8075696 c 0.068539,-0.1894912 0.1251491,-0.3506439 0.1694985,-0.483691 0.044349,-0.1330471 0.080741,-0.2721077 0.1089634,-0.41725 z m 3.8825223,0.459477 c -0.197554,0 -0.37922,0.020218 -0.544521,0.060535 -0.165302,0.036285 -0.298149,0.096644 -0.398942,0.1813103 -0.09676,0.084666 -0.145285,0.1975913 -0.145285,0.3387018 0,0.1370789 0.04231,0.2359989 0.126977,0.2964749 0.0887,0.056444 0.217797,0.084454 0.38713,0.084454 0,-0.1290156 0.01213,-0.2419405 0.03632,-0.3387021 0.02822,-0.1007931 0.08266,-0.1792 0.163298,-0.2356442 0.08063,-0.056444 0.197603,-0.084749 0.350809,-0.084749 0.165301,0 0.288188,0.032348 0.368822,0.096856 0.08063,0.064508 0.133201,0.153171 0.157392,0.2660595 0.02419,0.1088567 0.03603,0.2357867 0.03603,0.3809288 v 0.3629159 l -0.501706,0.018013 c -0.463647,0.016127 -0.81051,0.1007468 -1.040319,0.2539526 -0.225777,0.1532059 -0.338701,0.3911863 -0.338701,0.7137249 0,0.330602 0.08866,0.5745 0.26606,0.731738 0.177396,0.157237 0.401371,0.23594 0.671498,0.23594 0.169332,0 0.306223,-0.02426 0.411048,-0.07264 0.108857,-0.05241 0.203734,-0.120857 0.284368,-0.205524 0.08063,-0.0887 0.163085,-0.189492 0.247752,-0.302381 h 0.04843 l 0.09686,0.520013 h 0.816488 V 10.41413 h -0.01831 c -0.137079,0 -0.23383,-0.03018 -0.290274,-0.09065 -0.05644,-0.06048 -0.08446,-0.17557 -0.08446,-0.344903 V 8.4123311 c 0,-0.3830144 -0.093,-0.6530484 -0.278462,-0.8102857 C 12.640821,7.4448078 12.36487,7.3661056 11.993949,7.3661056 Z m 0.538026,1.6571883 V 9.512891 c 0,0.258031 -0.07249,0.463662 -0.217631,0.616869 -0.145143,0.149174 -0.340518,0.223832 -0.586454,0.223832 -0.32657,0 -0.489893,-0.187288 -0.489893,-0.56224 0,-0.2378714 0.0644,-0.4173678 0.193418,-0.5383197 0.133047,-0.1249836 0.371028,-0.1955986 0.713725,-0.2117254 z"
     style="font-size:10.5833px;line-height:1.25;font-family:'Noto Serif';-inkscape-font-specification:'Noto Serif';fill:#f1f1f1;fill-opacity:1;stroke-width:0.15119"
     id="path867" />
  <path
     id="rect4603"
     style="opacity:1;fill:#6d6d6d;fill-opacity:1;stroke-width:0.25227;stroke-linejoin:round;stroke-opacity:0.501961"
     d="m 2.7781251,2.1166667 c 0,-0.5130271 0.413015,-0.9260417 0.9260418,-0.9260417 H 5.291667 V 15.74271 H 3.7041669 c -0.5130268,0 -0.9260418,-0.413015 -0.9260418,-0.926042 z"
     sodipodi:nodetypes="ssccsss" />
  <path
     id="rect890"
     style="opacity:0.2;fill:#000000;stroke-width:0.264583;stroke-linejoin:round;stroke-opacity:0.501961"
     d="m 3.7041668,1.0583334 c -0.5863167,0 -1.0583333,0.4720166 -1.0583333,1.0583333 V 14.816667 c 0,0.586317 0.4720166,1.058333 1.0583333,1.058333 h 9.5250012 c 0.586317,0 1.058333,-0.472016 1.058333,-1.058333 V 2.1166667 c 0,-0.5863167 -0.472016,-1.0583333 -1.058333,-1.0583333 z m 0,0.2645833 h 9.5250012 c 0.439738,0 0.79375,0.3540125 0.79375,0.79375 V 14.816667 c 0,0.439738 -0.354012,0.79375 -0.79375,0.79375 H 3.7041668 c -0.4397375,0 -0.79375,-0.354012 -0.79375,-0.79375 V 2.1166667 c 0,-0.4397375 0.3540125,-0.79375 0.79375,-0.79375 z"
     sodipodi:nodetypes="ssssssssssssssssss" />
</svg>
