<?xml version="1.0" encoding="UTF-8" standalone="no"?>
<svg
   width="64"
   height="64"
   version="1"
   id="svg28"
   sodipodi:docname="accessories-notes.svg"
   inkscape:version="1.1.2 (0a00cf5339, 2022-02-04)"
   xmlns:inkscape="http://www.inkscape.org/namespaces/inkscape"
   xmlns:sodipodi="http://sodipodi.sourceforge.net/DTD/sodipodi-0.dtd"
   xmlns="http://www.w3.org/2000/svg"
   xmlns:svg="http://www.w3.org/2000/svg">
  <defs
     id="defs32" />
  <sodipodi:namedview
     id="namedview30"
     pagecolor="#ffffff"
     bordercolor="#666666"
     borderopacity="1.0"
     inkscape:pageshadow="2"
     inkscape:pageopacity="0.0"
     inkscape:pagecheckerboard="0"
     showgrid="false"
     inkscape:zoom="12.484375"
     inkscape:cx="31.95995"
     inkscape:cy="32"
     inkscape:window-width="1920"
     inkscape:window-height="1022"
     inkscape:window-x="0"
     inkscape:window-y="0"
     inkscape:window-maximized="1"
     inkscape:current-layer="svg28" />
  <path
     id="path1862"
     style="color:#000000;opacity:0.75;fill:#b5950b;stroke:none;stroke-linejoin:round;-inkscape-stroke:none;fill-opacity:1"
     d="M 9 5 A 4 4 0 0 0 5 9 L 5 55 A 4 4 0 0 0 9 59 L 44 59 C 44.265199 58.999949 44.519519 58.894567 44.707031 58.707031 L 58.707031 44.707031 C 58.894567 44.519519 58.999949 44.265199 59 44 L 59 9 A 4 4 0 0 0 55 5 L 9 5 z " />
  <path
     id="rect2319"
     style="opacity:1;fill:#e5c63e;fill-opacity:1;stroke-width:2;stroke-linejoin:round"
     d="M 44,44 H 58 L 44,58 Z"
     sodipodi:nodetypes="cccc" />
  <path
     id="rect1114"
     style="opacity:1;fill:#f5d858;fill-opacity:1;stroke-linecap:round"
     d="m 9,6 h 46 c 1.662,0 3,1.338 3,3 V 43 H 43 V 58 H 9 C 7.338,58 6,56.662 6,55 V 9 C 6,7.338 7.338,6 9,6 Z"
     sodipodi:nodetypes="ssscccssss" />
  <path
     id="rect2444"
     style="fill:#be9c00;stroke-width:2.10286;stroke-linecap:round;stroke-linejoin:round"
     d="m 9,5 h 46.000001 c 2.216,0 4,1.7840002 4,4.0000001 V 17 H 5.0000001 V 9.0000001 C 5.0000001,6.7840002 6.7840001,5 9,5 Z"
     sodipodi:nodetypes="sssccss" />
  <path
     id="rect1353"
     style="opacity:1;fill:#f1c915;stroke-width:0.930949;fill-opacity:1"
     d="M 9 6 C 7.338 6 6 7.338 6 9 L 6 16 L 58 16 L 58 9 C 58 7.338 56.662 6 55 6 L 9 6 z " />
</svg>
