<?xml version="1.0" encoding="UTF-8" standalone="no"?>
<svg
   width="64"
   height="64"
   version="1"
   id="svg28"
   sodipodi:docname="org.xfce.mousepad.svg"
   inkscape:version="1.1.2 (0a00cf5339, 2022-02-04, custom)"
   xmlns:inkscape="http://www.inkscape.org/namespaces/inkscape"
   xmlns:sodipodi="http://sodipodi.sourceforge.net/DTD/sodipodi-0.dtd"
   xmlns="http://www.w3.org/2000/svg"
   xmlns:svg="http://www.w3.org/2000/svg">
  <defs
     id="defs32" />
  <sodipodi:namedview
     id="namedview30"
     pagecolor="#ffffff"
     bordercolor="#666666"
     borderopacity="1.0"
     inkscape:pageshadow="2"
     inkscape:pageopacity="0.0"
     inkscape:pagecheckerboard="0"
     showgrid="false"
     inkscape:zoom="12.484375"
     inkscape:cx="32"
     inkscape:cy="31.95995"
     inkscape:window-width="1851"
     inkscape:window-height="1009"
     inkscape:window-x="69"
     inkscape:window-y="31"
     inkscape:window-maximized="1"
     inkscape:current-layer="svg28" />
  <path
     style="color:#000000;opacity:0.3;fill:#000000;stroke:none;stroke-linejoin:round;-inkscape-stroke:none;fill-opacity:1"
     d="M 10,5 C 9.447738,5.0000552 9.000055,5.4477381 9,6 v 52 c 5.5e-5,0.552262 0.447738,0.999945 1,1 h 30 c 0.265199,-5.1e-5 0.519519,-0.105433 0.707031,-0.292969 l 14,-14 C 54.894567,44.519519 54.999949,44.265199 55,44 V 6 C 54.999945,5.4477381 54.552262,5.0000552 54,5 Z"
     id="path1862"
     sodipodi:nodetypes="ccccccccccc" />
  <path
     style="color:#000000;fill:#fafafa;stroke:none;stroke-width:2;stroke-linejoin:round;-inkscape-stroke:none;fill-opacity:1"
     d="M 10,6 H 54 V 43 H 39 V 58 H 10 Z"
     id="path1860"
     sodipodi:nodetypes="ccccccc" />
  <path
     id="rect2319"
     style="opacity:1;fill:#f0f0f0;stroke-width:2;stroke-linejoin:round;fill-opacity:1"
     d="M 40,44 H 54 L 40,58 Z"
     sodipodi:nodetypes="cccc" />
  <g
     id="g5095"
     transform="matrix(-0.70710678,-0.70710678,-0.70710678,0.70710678,85.250536,20.022635)">
    <path
       style="color:#000000;fill:#ecdebb;fill-opacity:1;stroke:none;stroke-linecap:round;stroke-linejoin:round;-inkscape-stroke:none"
       d="m 32.5,50.5 -5.5,7 -5.5,-7 z"
       id="path2594" />
    <path
       id="rect3710"
       style="opacity:1;fill:#eec55a;stroke-linecap:round;stroke-linejoin:round"
       d="m 23,12.5 h 8 c 0.831,0 1.5,0.669 1.5,1.5 v 36.5 h -11 V 14 c 0,-0.831 0.669,-1.5 1.5,-1.5 z"
       sodipodi:nodetypes="sssccss" />
    <path
       id="rect4802"
       style="opacity:1;fill:#4d4d4d;fill-opacity:1;stroke:none;stroke-linecap:round;stroke-linejoin:round;stroke-opacity:1"
       d="M 24.642578,54.5 27,57.5 l 2.357422,-3 z" />
    <path
       id="rect1213"
       style="opacity:0.3;fill:#000000;stroke-linecap:round"
       d="m 23,12 c -1.108,0 -2,0.892 -2,2 v 36.498047 h 0.01172 c -0.0031,0.110619 0.03054,0.21915 0.0957,0.308594 l 5.5,7.002929 c 0.200237,0.253698 0.584919,0.253698 0.785156,0 l 5.5,-7.002929 c 0.06795,-0.08844 0.104387,-0.197064 0.103516,-0.308594 H 33 V 14 c 0,-1.108 -0.892,-2 -2,-2 z m 0,1 h 8 c 0.554,0 1,0.446 1,1 V 50 H 22 V 14 c 0,-0.554 0.446,-1 1,-1 z m -0.472656,37.998047 h 8.945312 L 27,56.690429 Z"
       sodipodi:nodetypes="ssccccccccssssssccsscccc" />
  </g>
</svg>
