<?xml version="1.0" encoding="UTF-8" standalone="no"?>
<!-- Created with Inkscape (http://www.inkscape.org/) -->

<svg
   width="64"
   height="64"
   viewBox="0 0 16.933333 16.933334"
   version="1.1"
   id="svg5"
   inkscape:version="1.1.2 (0a00cf5339, 2022-02-04, custom)"
   sodipodi:docname="accessories-calculator.svg"
   xmlns:inkscape="http://www.inkscape.org/namespaces/inkscape"
   xmlns:sodipodi="http://sodipodi.sourceforge.net/DTD/sodipodi-0.dtd"
   xmlns="http://www.w3.org/2000/svg"
   xmlns:svg="http://www.w3.org/2000/svg">
  <sodipodi:namedview
     id="namedview7"
     pagecolor="#ffffff"
     bordercolor="#666666"
     borderopacity="1.0"
     inkscape:pageshadow="2"
     inkscape:pageopacity="0.0"
     inkscape:pagecheckerboard="0"
     inkscape:document-units="px"
     showgrid="false"
     units="px"
     height="64px"
     showguides="false"
     inkscape:zoom="12.546875"
     inkscape:cx="32"
     inkscape:cy="32"
     inkscape:window-width="1920"
     inkscape:window-height="1021"
     inkscape:window-x="0"
     inkscape:window-y="0"
     inkscape:window-maximized="1"
     inkscape:current-layer="svg5" />
  <defs
     id="defs2" />
  <path
     id="rect1201"
     style="fill:#4d4d4d;fill-opacity:1;stroke-width:0.264583;stroke-linejoin:round;stroke-opacity:0.501961"
     d="m 2.38125,1.5875 c -0.4397375,0 -0.79375,0.3540123 -0.79375,0.79375 v 12.170833 c 0,0.439738 0.3540125,0.79375 0.79375,0.79375 H 14.552084 V 1.5875 Z"
     sodipodi:nodetypes="ssssccs" />
  <path
     d="m 1.5874965,8.4666667 h 6.8791702 v 6.8791683 l -6.0854194,-2e-6 c -0.4397369,0 -0.7937508,-0.354012 -0.7937508,-0.793751 z"
     style="opacity:0.1;fill:#ffffff;fill-opacity:1;stroke-width:0.0667464;stroke-linejoin:round;stroke-opacity:0.501961"
     id="path2446"
     sodipodi:nodetypes="cccssc" />
  <path
     id="rect4603"
     style="fill:#e6c46c;fill-opacity:1;stroke-width:0.25227;stroke-linejoin:round;stroke-opacity:0.501961"
     d="m 15.345837,2.3812495 c 0,-0.4397376 -0.354014,-0.7937501 -0.793751,-0.7937501 l -6.0854193,6e-7 v 13.758334 l 6.0854193,-10e-7 c 0.439737,0 0.793751,-0.354012 0.793751,-0.793751 z"
     sodipodi:nodetypes="ssccsss" />
  <path
     d="m 15.345837,2.3812495 c 0,-0.4397376 -0.354014,-0.7937501 -0.793751,-0.7937501 l -5.8208359,6e-7 v 13.758334 l 5.8208359,-2e-6 c 0.439737,0 0.793751,-0.354012 0.793751,-0.793751 z"
     style="fill:#e6c46c;fill-opacity:1;stroke-width:0.0667464;stroke-linejoin:round;stroke-opacity:0.501961"
     id="path3168"
     sodipodi:nodetypes="ssccsss" />
  <path
     id="rect22"
     style="stroke-width:3.7796;fill:#f1f1f1;fill-opacity:1"
     d="M 18 14 L 18 19 L 13 19 L 13 21 L 18 21 L 18 26 L 20 26 L 20 21 L 25 21 L 25 19 L 20 19 L 20 14 L 18 14 z M 39 28 L 39 29.998047 L 51 29.998047 L 51 28 L 39 28 z M 39 34.001953 L 39 36 L 51 36 L 51 34.001953 L 39 34.001953 z M 13 43.998047 L 13 45.998047 L 25 45.998047 L 25 43.998047 L 13 43.998047 z "
     transform="scale(0.26458334)" />
  <rect
     style="opacity:0.3;fill:#9a5900;fill-opacity:1;stroke-width:0.259637;stroke-linejoin:round;stroke-opacity:0.501961"
     id="rect4449"
     width="0.26458335"
     height="13.758333"
     x="8.4666672"
     y="1.5875" />
  <path
     id="rect890"
     style="opacity:0.2;fill:#000000;stroke-width:0.264583;stroke-linejoin:round;stroke-opacity:0.501961"
     d="m 2.38125,1.3229167 c -0.5863167,0 -1.0583334,0.4720166 -1.0583334,1.0583333 v 12.170834 c 0,0.586317 0.4720167,1.058333 1.0583334,1.058333 h 12.170834 c 0.586317,0 1.058333,-0.472016 1.058333,-1.058333 V 2.38125 c 0,-0.5863167 -0.472016,-1.0583333 -1.058333,-1.0583333 z m 0,0.2645833 h 12.170834 c 0.439738,0 0.79375,0.3540125 0.79375,0.79375 v 12.170834 c 0,0.439738 -0.354012,0.79375 -0.79375,0.79375 H 2.38125 c -0.4397375,0 -0.79375,-0.354012 -0.79375,-0.79375 V 2.38125 c 0,-0.4397375 0.3540125,-0.79375 0.79375,-0.79375 z"
     sodipodi:nodetypes="sssssssssssccssccs" />
</svg>
