<?xml version="1.0" encoding="UTF-8" standalone="no"?>
<!-- Created with Inkscape (http://www.inkscape.org/) -->

<svg
   width="64"
   height="64"
   viewBox="0 0 16.933333 16.933334"
   version="1.1"
   id="svg5"
   inkscape:version="1.1.2 (0a00cf5339, 2022-02-04, custom)"
   sodipodi:docname="accessories-calculator.svg"
   xmlns:inkscape="http://www.inkscape.org/namespaces/inkscape"
   xmlns:sodipodi="http://sodipodi.sourceforge.net/DTD/sodipodi-0.dtd"
   xmlns="http://www.w3.org/2000/svg"
   xmlns:svg="http://www.w3.org/2000/svg">
  <sodipodi:namedview
     id="namedview7"
     pagecolor="#ffffff"
     bordercolor="#666666"
     borderopacity="1.0"
     inkscape:pageshadow="2"
     inkscape:pageopacity="0.0"
     inkscape:pagecheckerboard="0"
     inkscape:document-units="px"
     showgrid="false"
     units="px"
     height="64px"
     showguides="false"
     inkscape:zoom="8.905126"
     inkscape:cx="33.463872"
     inkscape:cy="36.608129"
     inkscape:window-width="1851"
     inkscape:window-height="1009"
     inkscape:window-x="69"
     inkscape:window-y="31"
     inkscape:window-maximized="1"
     inkscape:current-layer="svg5" />
  <defs
     id="defs2" />
  <path
     id="rect1063"
     style="opacity:1;fill:#ffffff;stroke-width:0.529167;stroke-linejoin:round"
     d="m 2.38125,1.4552083 h 12.170833 c 0.513028,0 0.926042,0.4130146 0.926042,0.9260417 v 12.170833 c 0,0.513028 -0.413014,0.926042 -0.926042,0.926042 H 2.38125 c -0.5130271,0 -0.9260417,-0.413014 -0.9260417,-0.926042 V 2.38125 c 0,-0.5130271 0.4130146,-0.9260417 0.9260417,-0.9260417 z"
     sodipodi:nodetypes="sssssssss" />
  <path
     id="rect1179"
     style="opacity:1;fill:#eeeeee;fill-opacity:1;stroke-width:0.999999;stroke-linecap:round;stroke-linejoin:round"
     d="M 5.5 32 L 5.5 55 C 5.5 56.939003 7.061 58.5 9 58.5 L 32 58.5 L 32 32 L 5.5 32 z "
     transform="scale(0.26458334)" />
  <path
     id="rect18"
     style="fill:#787878;fill-opacity:1;stroke-width:1.00002"
     d="M 5.0270834,3.7041667 V 5.0270834 H 3.7041667 V 5.55625 H 5.0270834 V 6.8791667 H 5.5562499 V 5.55625 h 1.322917 V 5.0270834 H 5.5562499 V 3.7041667 Z M 3.7041667,11.641667 v 0.529167 h 3.1750002 v -0.529167 z"
     sodipodi:nodetypes="cccccccccccccccccc" />
  <path
     id="rect1372"
     style="opacity:1;fill:#d96b5f;fill-opacity:1;stroke-width:0.999999;stroke-linecap:round;stroke-linejoin:round"
     d="M 32 5.5 L 32 58.5 L 55 58.5 C 56.939003 58.5 58.5 56.939003 58.5 55 L 58.5 9 C 58.5 7.061 56.939003 5.5 55 5.5 L 32 5.5 z "
     transform="scale(0.26458334)" />
  <path
     id="rect22"
     style="fill:#ffffff;stroke-width:1.00017"
     d="m 10.318749,7.4083333 v 0.5291669 h 3.175 V 7.4083333 Z m 0,1.5875003 v 0.5291657 h 3.175 V 8.9958336 Z" />
  <path
     id="rect890"
     style="opacity:0.2;fill:#000000;fill-opacity:1;stroke-width:0.999999;stroke-linejoin:round;stroke-opacity:0.501961"
     d="M 9 5 C 6.7839999 5 5 6.7839999 5 9 L 5 55 C 5 57.216001 6.7839999 59 9 59 L 55 59 C 57.216001 59 59 57.216001 59 55 L 59 9 C 59 6.7839999 57.216001 5 55 5 L 9 5 z M 9 6 L 55 6 C 56.662002 6 58 7.3379993 58 9 L 58 55 C 58 56.662002 56.662002 58 55 58 L 9 58 C 7.338 58 6 56.662002 6 55 L 6 9 C 6 7.3379993 7.338 6 9 6 z "
     transform="scale(0.26458334)" />
</svg>
