<?xml version="1.0" encoding="UTF-8" standalone="no"?>
<!-- Created with Inkscape (http://www.inkscape.org/) -->

<svg
   width="64"
   height="64"
   viewBox="0 0 16.933333 16.933334"
   version="1.1"
   id="svg5"
   inkscape:version="1.1.2 (0a00cf5339, 2022-02-04, custom)"
   sodipodi:docname="akregator.svg"
   xmlns:inkscape="http://www.inkscape.org/namespaces/inkscape"
   xmlns:sodipodi="http://sodipodi.sourceforge.net/DTD/sodipodi-0.dtd"
   xmlns="http://www.w3.org/2000/svg"
   xmlns:svg="http://www.w3.org/2000/svg">
  <sodipodi:namedview
     id="namedview7"
     pagecolor="#ffffff"
     bordercolor="#666666"
     borderopacity="1.0"
     inkscape:pageshadow="2"
     inkscape:pageopacity="0.0"
     inkscape:pagecheckerboard="0"
     inkscape:document-units="px"
     showgrid="false"
     units="px"
     height="64px"
     showguides="true"
     inkscape:zoom="6.2421875"
     inkscape:cx="35.564456"
     inkscape:cy="43.414268"
     inkscape:window-width="1851"
     inkscape:window-height="1009"
     inkscape:window-x="69"
     inkscape:window-y="31"
     inkscape:window-maximized="1"
     inkscape:current-layer="svg5" />
  <defs
     id="defs2" />
  <path
     id="rect3815"
     style="opacity:1;fill:#da510e;fill-opacity:1;stroke-width:0.999999;stroke-linecap:round;stroke-linejoin:round"
     d="M 17 5 C 13.676 5 11 7.676 11 11 L 11 39.013672 A 10.5 10.5 0 0 0 5 48.5 A 10.5 10.5 0 0 0 15.5 59 A 10.5 10.5 0 0 0 24.986328 53 L 53 53 C 56.324 53 59 50.324 59 47 L 59 11 C 59 7.676 56.324 5 53 5 L 17 5 z "
     transform="scale(0.26458334)" />
  <path
     id="rect4515"
     style="opacity:1;fill:#f2793f;fill-opacity:1;stroke-width:0.999999;stroke-linecap:round;stroke-linejoin:round"
     d="M 17 6 C 14.23 6 12 8.2300002 12 11 L 12 39.669922 A 9.5 9.5 0 0 0 6 48.5 A 9.5 9.5 0 0 0 15.5 58 A 9.5 9.5 0 0 0 24.330078 52 L 53 52 C 55.770001 52 58 49.770001 58 47 L 58 11 C 58 8.2300002 55.770001 6 53 6 L 17 6 z "
     transform="scale(0.26458334)" />
  <path
     d="m 4.1804165,5.6104896 v 1.42875 c 3.1564653,0 5.7149978,2.5585347 5.7149978,5.7150004 h 1.4287497 c 0,-3.9469223 -3.1982558,-7.1437504 -7.1437475,-7.1437504 m 0,2.8575 v 1.4287507 c 1.5780544,0 2.8574993,1.2794457 2.8574993,2.8574997 h 1.4287491 c 0,-2.367082 -1.9191668,-4.2862504 -4.2862484,-4.2862504 m 0,2.8575004 c -0.7890272,0 -1.42875,0.639723 -1.42875,1.42875 0,0.789027 0.6397228,1.42875 1.42875,1.42875 0.7890272,0 1.42875,-0.639723 1.42875,-1.42875 0,-0.789027 -0.6397228,-1.42875 -1.42875,-1.42875"
     style="fill:#ffffff;stroke-width:1.17591"
     id="path856" />
</svg>
