<?xml version="1.0" encoding="UTF-8" standalone="no"?>
<!-- Created with Inkscape (http://www.inkscape.org/) -->

<svg
   width="64"
   height="64"
   viewBox="0 0 16.933333 16.933334"
   version="1.1"
   id="svg5"
   inkscape:version="1.1.2 (0a00cf5339, 2022-02-04, custom)"
   sodipodi:docname="applications-educations.svg"
   xmlns:inkscape="http://www.inkscape.org/namespaces/inkscape"
   xmlns:sodipodi="http://sodipodi.sourceforge.net/DTD/sodipodi-0.dtd"
   xmlns="http://www.w3.org/2000/svg"
   xmlns:svg="http://www.w3.org/2000/svg">
  <sodipodi:namedview
     id="namedview7"
     pagecolor="#ffffff"
     bordercolor="#666666"
     borderopacity="1.0"
     inkscape:pageshadow="2"
     inkscape:pageopacity="0.0"
     inkscape:pagecheckerboard="0"
     inkscape:document-units="px"
     showgrid="false"
     units="px"
     height="64px"
     showguides="false"
     inkscape:zoom="12.859375"
     inkscape:cx="32"
     inkscape:cy="32"
     inkscape:window-width="1920"
     inkscape:window-height="1019"
     inkscape:window-x="0"
     inkscape:window-y="31"
     inkscape:window-maximized="1"
     inkscape:current-layer="svg5" />
  <defs
     id="defs2" />
  <path
     id="rect890"
     style="opacity:0.75;fill:#7b5c20;fill-opacity:1;stroke-width:0.264583;stroke-linejoin:round;stroke-opacity:0.501961"
     d="m 2.38125,1.3229167 c -0.5863167,0 -1.0583333,0.4720166 -1.0583333,1.0583333 v 12.170833 c 0,0.586317 0.4720166,1.058334 1.0583333,1.058334 h 12.170834 c 0.586317,0 1.058333,-0.472017 1.058333,-1.058334 V 2.38125 c 0,-0.5863167 -0.472016,-1.0583333 -1.058333,-1.0583333 z"
     sodipodi:nodetypes="sssssssss" />
  <path
     id="rect1201"
     style="fill:#b79b6c;fill-opacity:1;stroke-width:0.264583;stroke-linejoin:round;stroke-opacity:0.501961"
     d="m 2.38125,1.5875 c -0.4397375,0 -0.79375,0.3540123 -0.79375,0.79375 v 12.170833 c 0,0.439738 0.3540125,0.79375 0.79375,0.79375 h 12.170834 c 0.439738,0 0.79375,-0.354012 0.79375,-0.79375 V 2.38125 c 0,-0.4397377 -0.354012,-0.79375 -0.79375,-0.79375 z"
     sodipodi:nodetypes="sssssssss" />
  <path
     id="rect944"
     style="fill:#3b6225;stroke-width:0.529167;stroke-linejoin:round;fill-opacity:1"
     d="M 2.6458335,2.3812499 H 14.2875 c 0.14658,0 0.264584,0.1180042 0.264584,0.2645834 V 14.2875 c 0,0.146579 -0.118004,0.264583 -0.264584,0.264583 H 2.6458335 c -0.1465792,0 -0.2645834,-0.118004 -0.2645834,-0.264583 V 2.6458333 c 0,-0.1465792 0.1180042,-0.2645834 0.2645834,-0.2645834 z" />
  <rect
     style="fill:#007ad9;fill-opacity:1;stroke-width:0.141426;stroke-linecap:round;stroke-linejoin:round"
     id="rect3077"
     width="2.1166668"
     height="0.5291667"
     x="8.2020855"
     y="14.022917" />
  <rect
     style="fill:#d6d6d6;fill-opacity:1;stroke-width:0.141425;stroke-linecap:round;stroke-linejoin:round"
     id="rect3371"
     width="2.1166668"
     height="0.5291667"
     x="11.377083"
     y="14.022917" />
  <path
     d="M 8.4674169,5.2916666 4.2333334,6.9847 8.4674169,8.6797339 11.64248,7.4097084 v 0.7430145 c -0.241109,0.1050389 -0.397012,0.343017 -0.397008,0.606013 1.29e-4,0.2707597 0.16537,0.5140637 0.417008,0.6140107 L 11.311473,10.58377 h 1.270025 L 12.220491,9.3397466 c 0.213942,-0.11502 0.347567,-0.338111 0.348007,-0.5810107 3e-6,-0.262996 -0.1559,-0.5009741 -0.397008,-0.606013 V 7.1977041 L 12.7005,6.9856998 8.4674169,5.2926665 Z M 6.350375,8.4667289 v 2.2220431 c 0,0.526338 0.947832,0.953019 2.1170419,0.953019 1.1688191,-2.48e-4 2.1160421,-0.426856 2.1160421,-0.953019 V 8.4667289 L 8.4674169,9.3617466 Z"
     style="fill:#ffffff;stroke-width:0.264583"
     id="path858" />
</svg>
