<?xml version="1.0" encoding="UTF-8" standalone="no"?>
<!-- Created with Inkscape (http://www.inkscape.org/) -->

<svg
   width="64"
   height="64"
   viewBox="0 0 16.933333 16.933334"
   version="1.1"
   id="svg5"
   inkscape:version="1.1.2 (0a00cf5339, 2022-02-04, custom)"
   sodipodi:docname="accessories-archiver.svg"
   xmlns:inkscape="http://www.inkscape.org/namespaces/inkscape"
   xmlns:sodipodi="http://sodipodi.sourceforge.net/DTD/sodipodi-0.dtd"
   xmlns="http://www.w3.org/2000/svg"
   xmlns:svg="http://www.w3.org/2000/svg">
  <sodipodi:namedview
     id="namedview7"
     pagecolor="#ffffff"
     bordercolor="#666666"
     borderopacity="1.0"
     inkscape:pageshadow="2"
     inkscape:pageopacity="0.0"
     inkscape:pagecheckerboard="0"
     inkscape:document-units="px"
     showgrid="false"
     units="px"
     height="64px"
     showguides="true"
     inkscape:zoom="11.025628"
     inkscape:cx="31.063991"
     inkscape:cy="32.107015"
     inkscape:window-width="1920"
     inkscape:window-height="1019"
     inkscape:window-x="0"
     inkscape:window-y="31"
     inkscape:window-maximized="1"
     inkscape:current-layer="svg5" />
  <defs
     id="defs2" />
  <path
     id="rect3815"
     style="opacity:0.9;fill:#ac9863;stroke-width:0.264583;stroke-linecap:round;stroke-linejoin:round;fill-opacity:1"
     d="M 2.9104166,1.3229166 H 14.022917 c 0.879475,0 1.5875,0.708025 1.5875,1.5875 V 14.022917 c 0,0.879475 -0.708025,1.5875 -1.5875,1.5875 H 2.9104166 c -0.879475,0 -1.5875,-0.708025 -1.5875,-1.5875 V 2.9104166 c 0,-0.879475 0.708025,-1.5875 1.5875,-1.5875 z" />
  <path
     id="rect4515"
     style="opacity:1;fill:#d5c9a3;stroke-width:0.264583;stroke-linecap:round;stroke-linejoin:round;fill-opacity:1"
     d="M 2.9104166,1.5875 H 14.022916 c 0.732896,0 1.322917,0.5900208 1.322917,1.3229166 V 14.022917 c 0,0.732896 -0.590021,1.322916 -1.322917,1.322916 H 2.9104166 C 2.1775208,15.345833 1.5875,14.755813 1.5875,14.022917 V 2.9104166 C 1.5875,2.1775208 2.1775208,1.5875 2.9104166,1.5875 Z" />
  <path
     id="rect2142"
     style="opacity:1;fill:#ebebeb;stroke-width:0.529167;stroke-linecap:round;stroke-linejoin:round;fill-opacity:1"
     d="m 8.7312501,1.5885301 0.00465,6.8781368 c 9.91e-5,0.1465792 -0.1180042,0.2645834 -0.2645833,0.2645834 -0.1465792,0 -0.2645834,-0.1180042 -0.2645834,-0.2645834 l -0.00465,-6.8781368 z"
     sodipodi:nodetypes="cssscc" />
  <path
     id="path6"
     d="m 7.9375001,1.5875001 v 6.889502 c 0,0.2860146 0.2368021,0.519865 0.5291667,0.519865 0.2923646,0 0.5291667,-0.2338504 0.5291667,-0.519865 V 1.5875001 H 8.7265993 c 3.26e-5,3.466e-4 -4.28e-5,6.905e-4 0,0.00103 H 8.4666668 V 1.8531179 H 8.7312502 V 2.1177013 H 8.4666668 V 2.3822846 H 8.7312502 V 2.646868 H 8.4666668 V 2.9114514 H 8.7312502 V 3.1760347 H 8.4666668 V 3.440618 H 8.7312502 V 3.7052014 H 8.4666668 V 3.9697847 H 8.7312502 V 4.2343681 H 8.4666668 V 4.4989514 H 8.7312502 V 4.7635347 H 8.4666668 V 5.0281181 H 8.7312502 V 5.2927014 H 8.4666668 V 5.5572848 H 8.7312502 V 5.8218681 H 8.4666668 V 6.0864514 H 8.7312502 V 6.3510348 H 8.4666668 V 6.6156181 H 8.7312502 V 6.8802015 H 8.4666668 V 7.1447848 H 8.7312502 V 7.4093681 H 8.4666668 V 7.6739515 H 8.7312502 V 7.9385348 H 8.4666668 V 8.2031182 H 8.7312502 V 8.444447 c 0,0.00794 -0.00148,0.015478 -0.00206,0.023254 H 8.4666668 v 0.2645834 c 0.036513,0 0.071185,-0.00827 0.1028362,-0.022738 -0.031558,0.014396 -0.066361,0.022737 -0.1028362,0.022737 -0.1392825,0 -0.2515632,-0.116164 -0.2625164,-0.2645834 H 8.4666668 V 8.2031171 H 8.2020835 V 7.9385338 H 8.4666668 V 7.6739504 H 8.2020835 V 7.4093671 H 8.4666668 V 7.1447837 H 8.2020835 V 6.8802004 H 8.4666668 V 6.6156171 H 8.2020835 V 6.3510337 H 8.4666668 V 6.0864504 H 8.2020835 V 5.821867 H 8.4666668 V 5.5572837 H 8.2020835 V 5.2927004 H 8.4666668 V 5.028117 H 8.2020835 V 4.7635337 H 8.4666668 V 4.4989503 H 8.2020835 V 4.234367 H 8.4666668 V 3.9697837 H 8.2020835 V 3.7052003 H 8.4666668 V 3.440617 H 8.2020835 V 3.1760336 H 8.4666668 V 2.9114503 H 8.2020835 V 2.646867 H 8.4666668 V 2.3822836 H 8.2020835 V 2.1177003 H 8.4666668 V 1.8531169 H 8.2020835 V 1.611788 c 0,-0.00873 0.00386,-0.015821 0.00465,-0.024288 z"
     style="opacity:0.3;fill:#000000;stroke-width:0.264583" />
  <path
     d="M 8.2020835,1.8531169 V 2.1177003 H 8.4666668 V 1.8531169 Z m 0,0.5291667 V 2.646867 H 8.4666668 V 2.3822836 Z m 0,0.5291667 V 3.1760336 H 8.4666668 V 2.9114503 Z m 0,0.5291667 V 3.7052003 H 8.4666668 V 3.440617 Z m 0,0.5291667 V 4.234367 H 8.4666668 V 3.9697837 Z m 0,0.5291666 V 4.7635337 H 8.4666668 V 4.4989503 Z m 0,0.5291667 V 5.2927004 H 8.4666668 V 5.028117 Z m 0,0.5291667 V 5.821867 H 8.4666668 V 5.5572837 Z m 0,0.5291667 V 6.3510337 H 8.4666668 V 6.0864504 Z m 0,0.5291667 V 6.8802004 H 8.4666668 V 6.6156171 Z m 0,0.5291666 V 7.4093671 H 8.4666668 V 7.1447837 Z m 0,0.5291667 V 7.9385338 H 8.4666668 V 7.6739504 Z"
     style="opacity:0.35;fill:#ffffff;stroke-width:0.264583"
     id="path897" />
  <path
     id="rect3490"
     style="opacity:1;fill:#b3b3b3;stroke-width:2;stroke-linecap:round;stroke-linejoin:round"
     d="M 32 24 C 29.784 24 28 25.784 28 28 L 28 36 C 28 38.216001 29.784 40 32 40 C 34.216 40 36 38.216001 36 36 L 36 28 C 36 25.784 34.216 24 32 24 z M 32 26 A 2.0000001 2.0000001 0 0 1 34 28 A 2.0000001 2.0000001 0 0 1 32 30 A 2.0000001 2.0000001 0 0 1 30 28 A 2.0000001 2.0000001 0 0 1 32 26 z M 31.947266 32 C 31.96447 31.999567 31.982687 32 32 32 C 33.108 32 34 32.892 34 34 L 34 36 C 34 37.108 33.108 38 32 38 C 30.892 38 30 37.108 30 36 L 30 34 C 30 32.909312 30.863385 32.027277 31.947266 32 z "
     transform="scale(0.26458334)" />
  <path
     id="rect3177"
     style="opacity:0.25;fill:#000000;fill-opacity:1;stroke:none;stroke-width:2;stroke-linecap:round;stroke-linejoin:round"
     d="M 32 23.5 C 29.507 23.5 27.5 25.507 27.5 28 L 27.5 36 C 27.5 38.493 29.507 40.5 32 40.5 C 34.493 40.5 36.5 38.493 36.5 36 L 36.5 28 C 36.5 25.507 34.493 23.5 32 23.5 z M 32 24.5 C 33.939 24.5 35.5 26.061 35.5 28 L 35.5 36 C 35.5 37.939 33.939 39.5 32 39.5 C 30.061 39.5 28.5 37.939 28.5 36 L 28.5 28 C 28.5 26.061 30.061 24.5 32 24.5 z M 32 25.5 A 2.4999999 2.4999999 0 0 0 29.5 28 A 2.4999999 2.4999999 0 0 0 32 30.5 A 2.4999999 2.4999999 0 0 0 34.5 28 A 2.4999999 2.4999999 0 0 0 32 25.5 z M 32 26.5 A 1.5 1.5 0 0 1 33.5 28 A 1.5 1.5 0 0 1 32 29.5 A 1.5 1.5 0 0 1 30.5 28 A 1.5 1.5 0 0 1 32 26.5 z M 31.935547 31.5 C 30.580696 31.534096 29.5 32.636641 29.5 34 L 29.5 36 C 29.5 37.385 30.615 38.5 32 38.5 C 33.385 38.5 34.5 37.385 34.5 36 L 34.5 34 C 34.5 32.615 33.385 31.5 32 31.5 C 31.978359 31.5 31.957052 31.499459 31.935547 31.5 z M 31.960938 32.5 C 31.973841 32.499675 31.987016 32.5 32 32.5 C 32.831 32.5 33.5 33.169 33.5 34 L 33.5 36 C 33.5 36.831 32.831 37.5 32 37.5 C 31.169 37.5 30.5 36.831 30.5 36 L 30.5 34 C 30.5 33.181984 31.148026 32.520458 31.960938 32.5 z "
     transform="scale(0.26458334)" />
</svg>
