<?xml version="1.0" encoding="UTF-8" standalone="no"?>
<!-- Created with Inkscape (http://www.inkscape.org/) -->

<svg
   width="64"
   height="64"
   viewBox="0 0 16.933333 16.933334"
   version="1.1"
   id="svg5"
   inkscape:version="1.1.2 (0a00cf5339, 2022-02-04, custom)"
   sodipodi:docname="caja-actions.svg"
   xmlns:inkscape="http://www.inkscape.org/namespaces/inkscape"
   xmlns:sodipodi="http://sodipodi.sourceforge.net/DTD/sodipodi-0.dtd"
   xmlns="http://www.w3.org/2000/svg"
   xmlns:svg="http://www.w3.org/2000/svg">
  <sodipodi:namedview
     id="namedview7"
     pagecolor="#ffffff"
     bordercolor="#666666"
     borderopacity="1.0"
     inkscape:pageshadow="2"
     inkscape:pageopacity="0.0"
     inkscape:pagecheckerboard="0"
     inkscape:document-units="px"
     showgrid="false"
     units="px"
     height="64px"
     inkscape:zoom="12.59375"
     inkscape:cx="31.960298"
     inkscape:cy="32"
     inkscape:window-width="1851"
     inkscape:window-height="1009"
     inkscape:window-x="69"
     inkscape:window-y="31"
     inkscape:window-maximized="1"
     inkscape:current-layer="svg5" />
  <defs
     id="defs2" />
  <path
     style="color:#000000;fill:#000000;stroke-linejoin:round;-inkscape-stroke:none;opacity:0.3"
     d="m 2.3813803,2.1166667 c -0.2885816,0 -0.5292969,0.2407153 -0.5292969,0.5292969 v 6.8789062 c 0,0.2885816 0.2407155,0.5292972 0.5292969,0.5292972 H 14.552018 c 0.288582,-10e-7 0.529297,-0.2407158 0.529297,-0.5292972 V 3.7045573 c 0,-0.2885813 -0.240715,-0.5292968 -0.529297,-0.5292968 H 7.5356771 l -0.4492187,-0.5625 c -0.00129,-0.00132 -0.00259,-0.00262 -0.00391,-0.00391 C 6.9938316,2.5027175 6.9334628,2.4013951 6.8247396,2.2983073 6.7160165,2.1952196 6.5380954,2.1168769 6.3501303,2.1166667 Z"
     id="path3420"
     sodipodi:nodetypes="sssscssscccscs" />
  <path
     style="color:#000000;fill:#ffffff;stroke-width:0.529167;stroke-linejoin:round;-inkscape-stroke:none"
     d="m 2.3812501,2.3812501 c -0.1465791,0 -0.2645833,0.1180042 -0.2645833,0.2645834 v 6.8791668 c 0,0.146579 0.1180042,0.264583 0.2645833,0.264583 H 14.552083 c 0.146579,0 0.264583,-0.118004 0.264583,-0.264583 V 3.7041668 c 0,-0.1465792 -0.118004,-0.2645834 -0.264583,-0.2645834 H 7.4083334 L 6.8791667,2.778125 C 6.6804771,2.5404319 6.6235123,2.3815559 6.3500001,2.3812501 Z"
     id="path3418" />
  <path
     id="path1470"
     style="color:#000000;opacity:0.55;fill:#003579;fill-opacity:1;stroke:none;stroke-width:3.77953;stroke-linejoin:round;-inkscape-stroke:none"
     d="M 31.996094 19 C 31.105427 19 30.308976 19.462465 29.914062 20.011719 C 29.519152 20.560973 29.372142 21.066732 29.125 21.525391 C 29.119898 21.535142 29.114137 21.544782 29.109375 21.554688 L 28.386719 23.001953 L 7 23.001953 C 6.9753953 23.001045 6.9503787 23.001045 6.9257812 23.001953 C 5.9318902 23.078405 5 23.909288 5 25.001953 L 5 47 A 10 9.9999993 0 0 0 15 57 L 49 57 A 9.9999998 9.999999 0 0 0 59 47 L 59 21 C 59 19.909299 58.0907 19 57 19 L 32.003906 19 C 32.00145 18.999991 31.99855 19 31.996094 19 z "
     transform="scale(0.26458334)" />
  <path
     id="path1468"
     style="color:#000000;fill:#6ba4e9;fill-opacity:1;stroke:none;stroke-width:2;stroke-linejoin:round;-inkscape-stroke:none"
     d="M 32 20 C 30.673853 20.009366 30.584397 20.915448 30 22 L 29 24 L 7 24 C 6.4476319 24.04249 6 24.446 6 25 L 6 47 A 8.9999997 8.9999994 0 0 0 15 56 L 49 56 A 8.9999942 8.9999935 0 0 0 58 47 L 58 21 C 58 20.446 57.554003 20 57 20 L 32 20 z "
     transform="scale(0.26458334)" />
  <path
     id="rect2547"
     style="opacity:0.2;fill:#000000;fill-opacity:1;stroke-width:0.220486;stroke-linecap:round;stroke-linejoin:round"
     d="m 9.9218745,6.0854167 h 3.1749995 c 0.366447,0 0.661458,0.2950104 0.661458,0.6614583 0,0.366448 -0.295011,0.6614584 -0.661458,0.6614584 H 9.9218745 c -0.3664473,0 -0.6614577,-0.2950104 -0.6614577,-0.6614584 0,-0.3664479 0.2950104,-0.6614583 0.6614577,-0.6614583 z"
     sodipodi:nodetypes="sssssss" />
  <path
     id="rect2197"
     style="opacity:1;fill:#f2f2f2;stroke-width:0.198437;stroke-linecap:round;stroke-linejoin:round"
     d="m 9.9218745,6.35 h 3.1749995 c 0.219869,0 0.396875,0.1770063 0.396875,0.396875 0,0.2198688 -0.177006,0.396875 -0.396875,0.396875 H 9.9218745 C 9.7020064,7.14375 9.5250001,6.9667438 9.5250001,6.746875 9.5250001,6.5270063 9.7020064,6.35 9.9218745,6.35 Z"
     sodipodi:nodetypes="sssssss" />
  <circle
     style="opacity:0.7;fill:#333333;stroke-width:0.544232;stroke-linejoin:round"
     id="path845"
     cx="12.435417"
     cy="12.435417"
     r="3.96875" />
  <circle
     style="fill:#808080;stroke-width:0.49389;stroke-linejoin:round"
     id="path1011"
     cx="12.435417"
     cy="12.435418"
     r="3.7041667" />
  <path
     d="m 11.887356,10.318749 -0.04667,0.557529 c -0.176775,0.06548 -0.34113,0.160544 -0.48604,0.281119 l -0.50673,-0.238601 -0.529167,0.91657 0.460058,0.319511 c -0.01639,0.09263 -0.02488,0.186475 -0.0254,0.280537 5e-5,0.09442 0.0081,0.188658 0.02418,0.281702 l -0.458788,0.318559 0.529167,0.916569 0.50554,-0.238008 c 0.145399,0.120063 0.310158,0.214525 0.487231,0.279347 l 0.04667,0.558694 h 1.058333 l 0.04667,-0.55753 c 0.176783,-0.06548 0.341148,-0.160542 0.486065,-0.28112 l 0.50673,0.238601 0.529168,-0.916569 -0.460058,-0.319511 c 0.01639,-0.09263 0.02488,-0.186475 0.0254,-0.280538 -5e-5,-0.09442 -0.0081,-0.188658 -0.02418,-0.281702 l 0.458894,-0.31832 -0.529167,-0.91657 -0.50554,0.238009 c -0.145399,-0.120063 -0.310158,-0.214526 -0.48723,-0.279347 l -0.04667,-0.558693 h -1.058334 z m 0.529167,1.511934 c 0.334055,-2.9e-5 0.604866,0.270783 0.604837,0.604837 2.9e-5,0.334055 -0.270782,0.604867 -0.604837,0.604838 -0.334055,2.9e-5 -0.604867,-0.270783 -0.604838,-0.604838 -2.9e-5,-0.334054 0.270783,-0.604866 0.604838,-0.604837 z"
     style="fill:#ffffff;stroke-width:0.264583"
     id="path870" />
</svg>
