<?xml version="1.0" encoding="UTF-8" standalone="no"?>
<!-- Created with Inkscape (http://www.inkscape.org/) -->

<svg
   width="64"
   height="64"
   viewBox="0 0 16.933333 16.933334"
   version="1.1"
   id="svg5"
   inkscape:version="1.1.2 (0a00cf5339, 2022-02-04, custom)"
   sodipodi:docname="com.gexperts.tilix.svg"
   xmlns:inkscape="http://www.inkscape.org/namespaces/inkscape"
   xmlns:sodipodi="http://sodipodi.sourceforge.net/DTD/sodipodi-0.dtd"
   xmlns="http://www.w3.org/2000/svg"
   xmlns:svg="http://www.w3.org/2000/svg">
  <sodipodi:namedview
     id="namedview7"
     pagecolor="#ffffff"
     bordercolor="#666666"
     borderopacity="1.0"
     inkscape:pageshadow="2"
     inkscape:pageopacity="0.0"
     inkscape:pagecheckerboard="0"
     inkscape:document-units="px"
     showgrid="false"
     units="px"
     height="64px"
     showguides="false"
     inkscape:zoom="13.15625"
     inkscape:cx="31.961995"
     inkscape:cy="32"
     inkscape:window-width="1920"
     inkscape:window-height="1019"
     inkscape:window-x="0"
     inkscape:window-y="31"
     inkscape:window-maximized="1"
     inkscape:current-layer="svg5" />
  <defs
     id="defs2" />
  <path
     id="rect890"
     style="opacity:0.6;fill:#5b5b5b;fill-opacity:1;stroke-width:0.264583;stroke-linejoin:round;stroke-opacity:0.501961"
     d="m 2.38125,2.1166667 c -0.5863167,0 -1.0583333,0.4720166 -1.0583333,1.0583333 v 10.583333 c 0,0.586317 0.4720166,1.058334 1.0583333,1.058334 h 12.170834 c 0.586317,0 1.058333,-0.472017 1.058333,-1.058334 V 3.175 c 0,-0.5863167 -0.472016,-1.0583333 -1.058333,-1.0583333 z"
     sodipodi:nodetypes="sssssssss" />
  <path
     id="rect1201"
     style="fill:#e6e6e6;fill-opacity:1;stroke-width:0.264583;stroke-linejoin:round;stroke-opacity:0.501961"
     d="M 2.38125,2.38125 C 1.9415125,2.38125 1.5875,2.7352623 1.5875,3.175 v 10.583333 c 0,0.439738 0.3540125,0.79375 0.79375,0.79375 h 12.170834 c 0.439738,0 0.79375,-0.354012 0.79375,-0.79375 V 3.175 c 0,-0.4397377 -0.354012,-0.79375 -0.79375,-0.79375 z"
     sodipodi:nodetypes="sssssssss" />
  <path
     id="rect845"
     style="opacity:1;fill:#454d51;stroke-width:0.264583;stroke-linecap:round;stroke-linejoin:round"
     d="m 2.3812501,2.9104168 c -0.1465791,0 -0.2645834,0.1180042 -0.2645834,0.2645833 v 9.5250009 c 0,0.146579 0.1180043,0.264583 0.2645834,0.264583 H 8.2020835 V 2.9104168 Z m 6.3500001,0 v 4.7625 H 14.816667 V 3.1750001 c 0,-0.1465791 -0.118606,-0.2513126 -0.264583,-0.2645833 z m 0,5.2916666 v 4.7625006 h 5.8208338 c 0.146579,0 0.264583,-0.118004 0.264583,-0.264583 V 8.2020834 Z"
     sodipodi:nodetypes="ssssccscccsscccsscc" />
  <path
     id="path11232"
     style="fill:#ffffff;stroke-width:1.89922;paint-order:stroke markers fill"
     d="M 35.517578 13 C 35.501364 12.999507 35.484953 13.000883 35.46875 13.001953 C 35.301888 13.013367 35.151738 13.106967 35.068359 13.251953 C 34.928645 13.49249 35.010524 13.799328 35.251953 13.9375 L 40.650391 17.052734 L 35.251953 20.169922 C 35.011118 20.308067 34.929314 20.615152 35.068359 20.855469 C 35.208905 21.096671 35.514658 21.177707 35.755859 21.039062 L 41.847656 17.523438 C 41.997817 17.434158 42.090373 17.270392 42.089844 17.095703 C 42.093623 17.080509 42.091985 17.067913 42.09375 17.052734 C 42.09375 17.037541 42.093495 17.026894 42.089844 17.011719 C 42.090747 16.836677 41.998119 16.673442 41.847656 16.583984 L 35.755859 13.066406 C 35.697228 13.032957 35.633429 13.011915 35.566406 13.003906 C 35.550305 13.001846 35.533792 13.000493 35.517578 13 z M 11.517578 14 C 11.501364 13.999507 11.484953 14.000883 11.46875 14.001953 C 11.301888 14.013367 11.151738 14.106967 11.068359 14.251953 C 10.928645 14.49249 11.010524 14.799328 11.251953 14.9375 L 16.650391 18.052734 L 11.251953 21.169922 C 11.011118 21.308067 10.929314 21.615152 11.068359 21.855469 C 11.208905 22.096671 11.514658 22.177707 11.755859 22.039062 L 17.847656 18.523438 C 17.997813 18.434158 18.090373 18.270392 18.089844 18.095703 C 18.093661 18.080509 18.091833 18.067913 18.09375 18.052734 C 18.09375 18.037541 18.093647 18.026894 18.089844 18.011719 C 18.090749 17.836677 17.998115 17.673442 17.847656 17.583984 L 11.755859 14.066406 C 11.697228 14.032957 11.633429 14.011915 11.566406 14.003906 C 11.550305 14.001846 11.533792 14.000493 11.517578 14 z M 38.548828 22.123047 C 38.282182 22.136464 38.070312 22.355398 38.070312 22.625 C 38.070312 22.903298 38.295399 23.126953 38.574219 23.126953 L 45.607422 23.126953 C 45.886238 23.126953 46.109375 22.9033 46.109375 22.625 C 46.109375 22.346702 45.886241 22.123047 45.607422 22.123047 L 38.574219 22.123047 C 38.565526 22.123047 38.557521 22.122614 38.548828 22.123047 z M 14.548828 23.123047 C 14.282167 23.136464 14.070312 23.355398 14.070312 23.625 C 14.070312 23.903298 14.295392 24.126953 14.574219 24.126953 L 21.607422 24.126953 C 21.886245 24.126953 22.109375 23.9033 22.109375 23.625 C 22.109375 23.346702 21.886246 23.123047 21.607422 23.123047 L 14.574219 23.123047 C 14.565488 23.123047 14.557445 23.122614 14.548828 23.123047 z M 35.517578 33 C 35.501364 32.999507 35.484953 33.000883 35.46875 33.001953 C 35.301888 33.013367 35.151738 33.106967 35.068359 33.251953 C 34.928645 33.49249 35.010524 33.799328 35.251953 33.9375 L 40.650391 37.052734 L 35.251953 40.169922 C 35.011118 40.308064 34.929314 40.615151 35.068359 40.855469 C 35.208905 41.096678 35.514658 41.177696 35.755859 41.039062 L 41.847656 37.523438 C 41.997817 37.434165 42.090373 37.270382 42.089844 37.095703 C 42.093623 37.080509 42.091985 37.067913 42.09375 37.052734 C 42.09375 37.037541 42.093495 37.026894 42.089844 37.011719 C 42.090747 36.836677 41.998119 36.673442 41.847656 36.583984 L 35.755859 33.066406 C 35.697228 33.032957 35.633429 33.011915 35.566406 33.003906 C 35.550305 33.001846 35.533792 33.000493 35.517578 33 z M 38.548828 42.123047 C 38.282182 42.136653 38.070312 42.355403 38.070312 42.625 C 38.070312 42.903287 38.295399 43.126953 38.574219 43.126953 L 45.607422 43.126953 C 45.886238 43.126953 46.109375 42.90329 46.109375 42.625 C 46.109375 42.346713 45.886241 42.123047 45.607422 42.123047 L 38.574219 42.123047 C 38.565526 42.123047 38.557521 42.122612 38.548828 42.123047 z "
     transform="scale(0.26458334)" />
  <path
     id="path1197"
     style="fill:#b3b3b3;fill-opacity:1;stroke-width:0.0700043;stroke-linejoin:round;stroke-opacity:0.501961"
     d="m 1.5875,12.964583 v 0.79375 c 0,0.439738 0.3540125,0.79375 0.79375,0.79375 h 12.170833 c 0.439738,0 0.79375,-0.354012 0.79375,-0.79375 v -0.79375 c 0,0.439738 -0.354012,0.79375 -0.79375,0.79375 H 2.38125 c -0.4397375,0 -0.79375,-0.354012 -0.79375,-0.79375 z"
     sodipodi:nodetypes="csssscssc" />
</svg>
