<?xml version="1.0" encoding="UTF-8" standalone="no"?>
<!-- Created with Inkscape (http://www.inkscape.org/) -->

<svg
   width="64"
   height="64"
   viewBox="0 0 16.933333 16.933334"
   version="1.1"
   id="svg5"
   inkscape:version="1.1.2 (0a00cf5339, 2022-02-04, custom)"
   sodipodi:docname="deja-dup.svg"
   xmlns:inkscape="http://www.inkscape.org/namespaces/inkscape"
   xmlns:sodipodi="http://sodipodi.sourceforge.net/DTD/sodipodi-0.dtd"
   xmlns="http://www.w3.org/2000/svg"
   xmlns:svg="http://www.w3.org/2000/svg">
  <sodipodi:namedview
     id="namedview7"
     pagecolor="#ffffff"
     bordercolor="#666666"
     borderopacity="1.0"
     inkscape:pageshadow="2"
     inkscape:pageopacity="0.0"
     inkscape:pagecheckerboard="0"
     inkscape:document-units="px"
     showgrid="false"
     units="px"
     height="64px"
     showguides="true"
     inkscape:zoom="12.484375"
     inkscape:cx="32"
     inkscape:cy="32"
     inkscape:window-width="1920"
     inkscape:window-height="1019"
     inkscape:window-x="0"
     inkscape:window-y="31"
     inkscape:window-maximized="1"
     inkscape:current-layer="svg5" />
  <defs
     id="defs2" />
  <path
     id="rect890"
     style="opacity:0.8;fill:#1c1c1c;fill-opacity:1;stroke-width:0.264583;stroke-linejoin:round;stroke-opacity:0.501961"
     d="m 3.9687501,1.0583333 c -0.5863167,0 -1.0583333,0.4720166 -1.0583333,1.0583333 V 14.816667 c 0,0.586317 0.4720166,1.058334 1.0583333,1.058334 h 8.9958349 c 0.586317,0 1.058333,-0.472017 1.058333,-1.058334 V 2.1166666 c 0,-0.5863167 -0.472016,-1.0583333 -1.058333,-1.0583333 z"
     sodipodi:nodetypes="sssssssss" />
  <path
     id="rect1201"
     style="fill:#606060;fill-opacity:1;stroke-width:0.264583;stroke-linejoin:round;stroke-opacity:0.501961"
     d="m 3.9687501,1.3229166 c -0.4397375,0 -0.79375,0.3540123 -0.79375,0.79375 V 14.816667 c 0,0.439738 0.3540125,0.79375 0.79375,0.79375 h 8.9958349 c 0.439738,0 0.79375,-0.354012 0.79375,-0.79375 V 2.1166666 c 0,-0.4397377 -0.354012,-0.79375 -0.79375,-0.79375 z"
     sodipodi:nodetypes="sssssssss" />
  <rect
     style="fill:#898989;fill-opacity:1;stroke-width:0.529167;stroke-linejoin:round"
     id="rect1326"
     width="8.7312498"
     height="12.435417"
     x="4.1010418"
     y="2.2489583"
     ry="0.39687499" />
  <path
     id="rect1736"
     style="opacity:0.75;fill:#4d4d4d;fill-opacity:1;stroke-width:2;stroke-linejoin:round"
     d="M 17 8 C 15.892 8 15 8.8919999 15 10 L 15 54 C 15 55.108 15.892 56 17 56 L 47 56 C 48.108 56 49 55.108 49 54 L 49 10 C 49 8.8919999 48.108 8 47 8 L 17 8 z M 17 9 L 47 9 C 47.554 9 48 9.446 48 10 L 48 54 C 48 54.554 47.554 55 47 55 L 17 55 C 16.446 55 16 54.554 16 54 L 16 10 C 16 9.446 16.446 9 17 9 z "
     transform="scale(0.26458334)" />
  <path
     id="rect2127"
     style="opacity:0.75;fill:#4d4d4d;stroke-width:0.529167;stroke-linejoin:round"
     d="m 4.2333334,3.96875 c 0.2931583,0 0.5291667,0.2360083 0.5291667,0.5291667 v 1.5874998 c 0,0.2931584 -0.2360084,0.5291667 -0.5291667,0.5291667 -0.2931584,0 -0.5291667,-0.2360083 -0.5291667,-0.5291667 V 4.4979167 c 0,-0.2931584 0.2360083,-0.5291667 0.5291667,-0.5291667 z" />
  <path
     id="rect2270"
     style="opacity:0.75;fill:#4d4d4d;stroke-width:0.466979;stroke-linejoin:round"
     d="m 4.2333336,10.31875 c 0.2931583,0 0.5291667,0.236009 0.5291667,0.529167 v 1.587501 c 0,0.293159 -0.2360084,0.529167 -0.5291667,0.529167 -0.2931584,0 -0.5291667,-0.236008 -0.5291667,-0.529167 v -1.587501 c 0,-0.293158 0.2360083,-0.529167 0.5291667,-0.529167 z" />
  <path
     id="rect2614"
     style="opacity:1;fill:#dddddd;stroke-width:0.352778;stroke-linejoin:round"
     d="m 4.2333333,4.2333334 c 0.1465792,0 0.2645834,0.1180041 0.2645834,0.2645833 v 1.5875 C 4.4979167,6.2319959 4.3799125,6.35 4.2333333,6.35 4.0867542,6.35 3.96875,6.2319959 3.96875,6.0854167 v -1.5875 c 0,-0.1465792 0.1180042,-0.2645833 0.2645833,-0.2645833 z"
     sodipodi:nodetypes="sssssss" />
  <path
     id="rect3204"
     style="opacity:1;fill:#dddddd;stroke-width:0.352778;stroke-linejoin:round"
     d="m 4.2333333,10.583334 c 0.1465792,0 0.2645834,0.118005 0.2645834,0.264583 v 1.5875 c 0,0.14658 -0.1180042,0.264584 -0.2645834,0.264584 -0.1465791,0 -0.2645833,-0.118004 -0.2645833,-0.264584 v -1.5875 c 0,-0.146578 0.1180042,-0.264583 0.2645833,-0.264583 z"
     sodipodi:nodetypes="sssssss" />
  <path
     id="rect3748"
     style="opacity:0.3;stroke-width:2;stroke-linejoin:round;fill:#000000"
     d="M 21.564453 30.998047 C 20.889526 31.012551 20.238563 31.370291 19.875 32 C 19.321 32.959556 19.647863 34.178421 20.607422 34.732422 L 29.066406 39.615234 A 2.9999999 2.9999999 0 0 0 30 41.234375 L 30 51 C 30 52.108003 30.892 53 32 53 C 33.108 53 34 52.108003 34 51 L 34 41.234375 A 2.9999999 2.9999999 0 0 0 34.933594 39.615234 L 43.392578 34.732422 C 44.352136 34.178419 44.678984 32.959549 44.125 32 C 43.570997 31.040443 42.35214 30.713578 41.392578 31.267578 L 32.935547 36.150391 A 2.9999999 2.9999999 0 0 0 32 36 A 2.9999999 2.9999999 0 0 0 31.064453 36.150391 L 22.607422 31.267578 C 22.277574 31.07714 21.917986 30.990449 21.564453 30.998047 z "
     transform="scale(0.26458334)" />
  <path
     id="rect4385"
     style="opacity:1;fill:#f2f2f2;stroke-width:2;stroke-linejoin:round"
     d="M 21.585938 32 C 21.248474 32.007252 20.923968 32.185145 20.742188 32.5 C 20.465187 32.979777 20.627644 33.588235 21.107422 33.865234 L 30.634766 39.365234 C 30.886094 39.510334 31.246577 39.402723 31.535156 39.267578 C 31.273842 39.449926 31 39.709805 31 40 L 31 51 C 31 51.553999 31.446 52 32 52 C 32.554 52 33 51.553999 33 51 L 33 40 C 33 39.709805 32.726158 39.449926 32.464844 39.267578 C 32.753423 39.402723 33.113906 39.510334 33.365234 39.365234 L 42.892578 33.865234 C 43.372355 33.588237 43.534829 32.979777 43.257812 32.5 C 42.980815 32.020221 42.372355 31.857766 41.892578 32.134766 L 32.365234 37.634766 C 32.113456 37.780132 32.027085 38.146966 32 38.464844 C 31.972915 38.146966 31.886544 37.780132 31.634766 37.634766 L 22.107422 32.134766 C 21.942499 32.039547 21.762704 31.996201 21.585938 32 z "
     transform="scale(0.26458334)" />
  <circle
     style="opacity:0.3;fill:#000000;fill-opacity:1;stroke-width:0.529167;stroke-linejoin:round"
     id="path5435"
     cx="8.4666672"
     cy="10.31875"
     r="1.0583334" />
  <circle
     style="opacity:1;fill:#b3b3b3;fill-opacity:1;stroke-width:0.793813;stroke-linejoin:round"
     id="path5039"
     cx="8.4666672"
     cy="10.318749"
     r="0.79374999" />
  <circle
     style="opacity:0.1;fill:#000000;fill-opacity:1;stroke-width:0.115755;stroke-linecap:round;stroke-linejoin:round"
     id="path1580"
     cx="8.4666672"
     cy="5.2916665"
     r="1.8520833" />
  <circle
     style="opacity:0.25;fill:#000000;fill-opacity:1;stroke-width:0.101763;stroke-linecap:round;stroke-linejoin:round"
     id="path1720"
     cx="8.4666662"
     cy="5.2916665"
     r="1.3229166" />
  <path
     id="path1842"
     style="fill:#f2f2f2;fill-opacity:1;stroke-width:0.115755;stroke-linecap:round;stroke-linejoin:round"
     d="M 8.4666662,4.018359 8.1214352,4.4327716 A 0.9260417,0.9260417 0 0 0 7.5406245,5.2916662 0.9260417,0.9260417 0 0 0 8.4666662,6.2177079 0.9260417,0.9260417 0 0 0 9.3927076,5.2916662 0.9260417,0.9260417 0 0 0 8.8116708,4.4323195 Z" />
</svg>
