<?xml version="1.0" encoding="UTF-8" standalone="no"?>
<!-- Created with Inkscape (http://www.inkscape.org/) -->

<svg
   width="64"
   height="64"
   viewBox="0 0 16.933333 16.933334"
   version="1.1"
   id="svg5"
   inkscape:version="1.1.2 (0a00cf5339, 2022-02-04, custom)"
   sodipodi:docname="desktop-environment-xfce.svg"
   xmlns:inkscape="http://www.inkscape.org/namespaces/inkscape"
   xmlns:sodipodi="http://sodipodi.sourceforge.net/DTD/sodipodi-0.dtd"
   xmlns="http://www.w3.org/2000/svg"
   xmlns:svg="http://www.w3.org/2000/svg">
  <sodipodi:namedview
     id="namedview7"
     pagecolor="#ffffff"
     bordercolor="#666666"
     borderopacity="1.0"
     inkscape:pageshadow="2"
     inkscape:pageopacity="0.0"
     inkscape:pagecheckerboard="0"
     inkscape:document-units="px"
     showgrid="false"
     units="px"
     height="64px"
     inkscape:zoom="12.59375"
     inkscape:cx="31.960298"
     inkscape:cy="32"
     inkscape:window-width="1851"
     inkscape:window-height="1009"
     inkscape:window-x="69"
     inkscape:window-y="31"
     inkscape:window-maximized="1"
     inkscape:current-layer="svg5" />
  <defs
     id="defs2" />
  <circle
     style="fill:#002f78;fill-opacity:1;stroke-width:0.529167;stroke-linecap:round;stroke-linejoin:round"
     id="path1809"
     cx="8.4666662"
     cy="8.4666662"
     r="7.4083333" />
  <circle
     style="opacity:1;fill:#0044aa;fill-opacity:1;stroke-width:0.511861;stroke-linejoin:round"
     id="path24384"
     cx="8.4666672"
     cy="8.4666672"
     r="7.1437502" />
  <path
     d="m 2.5140986,5.2931264 c -0.027009,0.052923 -0.054018,0.1054809 -0.079932,0.1584034 0.4106073,0.2281158 1.5938865,0.8226753 2.1555975,1.1748849 0.7098945,0.4346967 1.6694383,1.3216081 1.7449895,1.4708871 -0.7383632,1.2858396 -0.403307,2.4238612 -0.4905385,2.5450372 -0.062777,0.101101 -0.6431024,0.738363 -0.4562304,0.832528 0.1854118,0.09271 0.4803196,-0.05292 0.5248474,-0.08139 0.092706,-0.05694 0.188332,-0.139789 0.1481841,0.02409 -0.078472,0.335056 -0.4346966,1.140576 0.056937,0.969398 0.059857,-0.03431 0.8511434,-0.90662 0.9467697,-0.936549 1.5741772,0.410607 3.3348611,0.222275 3.6607911,0.06971 0.169718,0.01131 0.650038,0.313522 0.923776,0.457691 0.273739,0.142708 1.019402,0.500393 0.798586,-0.149644 -0.06862,-0.205487 -0.558791,-0.729969 -0.479225,-0.764278 0.175193,-0.06971 0.608794,0.181033 0.775592,0.228116 0.498934,0.139789 0.566091,-0.05402 0.251109,-0.48032 -0.310966,-0.426302 -0.357684,-0.360604 -0.45623,-0.557331 -0.07701,-0.158404 0,-0.3335965 0.05694,-0.3762995 0.101101,-0.07701 1.590967,-0.9040666 1.940257,-1.2205083 0.517548,-0.4704641 0,-1.0577243 -0.127015,-1.1405754 -1.073419,-0.7726717 -2.175671,-0.6073341 -2.189905,-0.729969 -0.0073,-0.1397884 -0.0043,-0.5430965 -0.023,-0.6828859 C 12.089458,5.1573522 11.651842,5.3956873 11.591985,5.3956873 11.154368,5.4643043 11.315327,6.134051 11.500735,6.764379 11.514965,6.9253372 11.348171,6.854165 11.249626,6.684447 10.91311,5.7818406 10.771861,5.7975351 10.679155,5.7705259 c -0.08979,-0.020077 -0.406227,0.172638 -0.400752,0.5376222 0.0015,0.1040205 0.125554,0.6003994 0.125554,0.752963 C 10.197379,7.2421425 10.18716,7.6527499 9.9703603,7.8023935 9.3389376,7.9334226 7.8216971,7.4903317 7.6322702,7.4702573 6.976393,7.3476229 6.6898804,7.839622 6.5844001,7.721367 5.7332603,6.7461297 4.432821,6.0220011 3.8696504,5.8964462 3.6513897,5.8493631 2.9144863,5.5241616 2.6491427,5.3602835 2.6064396,5.3347348 2.5578967,5.3161205 2.5108136,5.2916667 M 14.215861,6.1471903 c -0.205486,0.220816 -0.169718,1.0464102 -0.127015,1.0394754 0.209502,-0.042704 0.189792,-1.1059022 0.127015,-1.0394754 m 0.59456,0.1255548 c -0.02409,-0.067157 -0.564631,0.6916452 -0.469006,0.9708584 0.0427,0.1211744 0.541637,-0.7584376 0.469006,-0.9708584 m -2.807095,1.2902195 c 0.0073,-0.0073 0.01569,0.00296 0.02409,0.011314 0.06278,0.2080414 0.132488,0.4062275 0.546016,0.4562301 0.04855,0.00584 -0.229576,0.168258 -0.420462,0.068618 -0.1741,-0.1054818 -0.189794,-0.48908 -0.149646,-0.5361631 m 1.072324,1.0478701 c 0.03832,-0.00584 0.0657,-0.00434 0.09271,0 0.1011,0.025548 -0.733619,0.46061 -0.798587,0.4007528 -0.03978,-0.038322 0.444916,-0.3522097 0.70734,-0.4007528 m 0.216801,0.2751979 c 0.08687,0.0073 -0.483239,0.5974795 -0.547477,0.5361617 -0.04708,-0.042704 0.369365,-0.5503957 0.547477,-0.5361617"
     style="fill:#f9f9f9;stroke-width:0.264583"
     id="path858" />
</svg>
