<?xml version="1.0" encoding="UTF-8" standalone="no"?>
<!-- Created with Inkscape (http://www.inkscape.org/) -->

<svg
   width="64"
   height="64"
   viewBox="0 0 16.933333 16.933334"
   version="1.1"
   id="svg5"
   inkscape:version="1.1.2 (0a00cf5339, 2022-02-04)"
   sodipodi:docname="discord.svg"
   xmlns:inkscape="http://www.inkscape.org/namespaces/inkscape"
   xmlns:sodipodi="http://sodipodi.sourceforge.net/DTD/sodipodi-0.dtd"
   xmlns="http://www.w3.org/2000/svg"
   xmlns:svg="http://www.w3.org/2000/svg">
  <sodipodi:namedview
     id="namedview7"
     pagecolor="#ffffff"
     bordercolor="#666666"
     borderopacity="1.0"
     inkscape:pageshadow="2"
     inkscape:pageopacity="0.0"
     inkscape:pagecheckerboard="0"
     inkscape:document-units="px"
     showgrid="false"
     units="px"
     height="64px"
     inkscape:zoom="9.7468874"
     inkscape:cx="17.749256"
     inkscape:cy="35.036826"
     inkscape:window-width="1920"
     inkscape:window-height="1011"
     inkscape:window-x="0"
     inkscape:window-y="0"
     inkscape:window-maximized="1"
     inkscape:current-layer="svg5"
     showguides="false" />
  <defs
     id="defs2" />
  <circle
     style="opacity:0.8;fill:#0e1cb1;fill-opacity:1;stroke-width:0.548766;stroke-linecap:round;stroke-linejoin:round"
     id="path1150"
     cx="8.4666672"
     cy="8.4666672"
     r="7.4083333" />
  <circle
     style="opacity:1;fill:#5865f2;fill-opacity:1;stroke-width:0.502554;stroke-linejoin:round"
     id="path24384"
     cx="8.4666672"
     cy="8.4666672"
     r="7.1437502" />
  <path
     d="m 7.019721,4.7625754 c 0,0 -1.233014,-0.027037 -2.538896,0.9433049 0,0 -1.305825,2.349227 -1.305825,5.2421167 0,0 0.761776,1.30506 2.765942,1.368546 0,0 0.335068,-0.397995 0.607126,-0.742602 -1.151714,-0.344606 -1.586809,-1.061219 -1.586809,-1.061219 0,0 0.09015,0.0636 0.253387,0.154291 0.0091,0 0.01823,0.0084 0.03638,0.01756 0.02721,0.01813 0.05433,0.02702 0.08154,0.04515 0.226715,0.126959 0.453743,0.226961 0.662321,0.308581 0.371814,0.154166 0.816511,0.290364 1.333422,0.390117 0.680147,0.126943 1.477641,0.172014 2.348228,0.0088 0.426226,-0.08161 0.86243,-0.199676 1.315861,-0.390117 0.317401,-0.117892 0.670589,-0.28952 1.042402,-0.534374 0,0 -0.454013,0.73446 -1.642005,1.069999 0.27206,0.335539 0.599603,0.725042 0.599603,0.725042 2.004165,-0.06348 2.765942,-1.368831 2.765942,-1.359766 0,-2.8928892 -1.305826,-5.2421164 -1.305826,-5.2421164 C 11.155694,4.7355403 9.912357,4.7625757 9.912357,4.7625757 L 9.785663,4.9080862 c 1.541664,0.4624991 2.257911,1.1427537 2.257911,1.1427537 C 11.100437,5.5429968 10.175527,5.2888248 9.31401,5.18907 8.661069,5.116519 8.03578,5.134082 7.482593,5.206633 c -0.05441,0 -0.09988,0.00976 -0.154291,0.018812 C 7.0109,5.261721 6.240182,5.3699702 5.26984,5.7961941 4.934301,5.9412921 4.734213,6.050837 4.734213,6.050837 c 0,0 0.743473,-0.7166324 2.375824,-1.1791314 z M 6.775114,8.1093017 c 0.516911,0 0.933556,0.4440586 0.924489,0.9972442 0,0.5531864 -0.407578,0.9972441 -0.924489,0.9972441 -0.507843,0 -0.925743,-0.4440577 -0.925743,-0.9972441 0,-0.5531856 0.408832,-0.9972442 0.925743,-0.9972442 z m 3.310349,0 c 0.507842,0 0.924489,0.4440586 0.924489,0.9972442 0,0.5531864 -0.407578,0.9972441 -0.924489,0.9972441 -0.507842,0 -0.925743,-0.4440577 -0.925743,-0.9972441 0,-0.5531856 0.408831,-0.9972442 0.925743,-0.9972442 z"
     style="fill:#ffffff;fill-opacity:1;stroke-width:0.156267"
     id="path853" />
</svg>
