<?xml version="1.0" encoding="UTF-8" standalone="no"?>
<svg
   width="64"
   height="64"
   version="1"
   id="svg28"
   sodipodi:docname="disk-utility.svg"
   inkscape:version="1.1.2 (0a00cf5339, 2022-02-04, custom)"
   xmlns:inkscape="http://www.inkscape.org/namespaces/inkscape"
   xmlns:sodipodi="http://sodipodi.sourceforge.net/DTD/sodipodi-0.dtd"
   xmlns="http://www.w3.org/2000/svg"
   xmlns:svg="http://www.w3.org/2000/svg">
  <defs
     id="defs32" />
  <sodipodi:namedview
     id="namedview30"
     pagecolor="#ffffff"
     bordercolor="#666666"
     borderopacity="1.0"
     inkscape:pageshadow="2"
     inkscape:pageopacity="0.0"
     inkscape:pagecheckerboard="0"
     showgrid="false"
     inkscape:zoom="10.46875"
     inkscape:cx="32"
     inkscape:cy="31.952239"
     inkscape:window-width="1625"
     inkscape:window-height="947"
     inkscape:window-x="180"
     inkscape:window-y="53"
     inkscape:window-maximized="0"
     inkscape:current-layer="svg28" />
  <path
     id="rect871"
     style="opacity:0.25;stroke-width:2;stroke-linejoin:round"
     d="m 11,4 h 42 c 0.554,0 1,0.446 1,1 v 54 c 0,0.554 -0.446,1 -1,1 H 11 c -0.554,0 -1,-0.446 -1,-1 V 5 c 0,-0.554 0.446,-1 1,-1 z" />
  <rect
     style="opacity:1;fill:#e1e3e7;fill-opacity:1;stroke-width:2;stroke-linejoin:round"
     id="rect1170"
     width="42"
     height="54"
     x="11"
     y="5" />
  <path
     id="rect6"
     d="m 13,6 c -0.554,0 -1,0.446 -1,1 0,0.554 0.446,1 1,1 0.554,0 1,-0.446 1,-1 0,-0.554 -0.446,-1 -1,-1 z m 38,0 c -0.554,0 -1,0.446 -1,1 0,0.554 0.446,1 1,1 0.554,0 1,-0.446 1,-1 C 52,6.446 51.554,6 51,6 Z M 13,31 c -0.554,0 -1,0.446 -1,1 0,0.554 0.446,1 1,1 0.554,0 1,-0.446 1,-1 0,-0.554 -0.446,-1 -1,-1 z m 38,0 c -0.554,0 -1,0.446 -1,1 0,0.554 0.446,1 1,1 0.554,0 1,-0.446 1,-1 0,-0.554 -0.446,-1 -1,-1 z M 13,56 c -0.554,0 -1,0.446 -1,1 0,0.554 0.446,1 1,1 0.554,0 1,-0.446 1,-1 0,-0.554 -0.446,-1 -1,-1 z m 38,0 c -0.554,0 -1,0.446 -1,1 0,0.554 0.446,1 1,1 0.554,0 1,-0.446 1,-1 0,-0.554 -0.446,-1 -1,-1 z"
     style="fill:#8c8c8c;fill-opacity:1" />
  <path
     d="m 39,8.499999 -17.934,18.17 c -3.53236,3.125549 -5.558251,7.613374 -5.566,12.33 0,9.112698 7.387302,16.5 16.5,16.5 9.112698,0 16.5,-7.387302 16.5,-16.5 -0.0027,-0.284211 -0.01266,-0.568306 -0.03,-0.852 0.01756,-0.0475 0.02768,-0.09742 0.03,-0.148 v -29 c 0,-0.277 -0.223,-0.5 -0.5,-0.5 z"
     style="color:#000000;fill:#edeff3;-inkscape-stroke:none"
     id="path3038" />
  <path
     style="color:#000000;fill:#cbcdd1;-inkscape-stroke:none"
     d="M 38.791015,8 38.644531,8.148437 20.734375,26.294922 C 17.095184,29.514998 15.007984,34.140727 15,39 c 0,9.382909 7.617091,17 17,17 9.382909,0 17,-7.617091 17,-17 v -0.002 -0.002 c -0.0026,-0.275903 -0.01329,-0.55268 -0.0293,-0.828125 0.0095,-0.0483 0.02703,-0.0952 0.0293,-0.144532 V 38.011723 9.000004 c 0,-0.545351 -0.454649,-1 -1,-1 z m 0.417969,1 H 48 v 28.976562 0.0039 l -0.03516,0.09375 0.0059,0.103515 c 0.01681,0.275105 0.02672,0.550581 0.0293,0.826179 C 47.99794,47.844546 40.841185,55 32.00004,55 c -8.842469,0 -16,-7.157531 -16,-16 0.0075,-4.57397 1.970962,-8.924063 5.396484,-11.955078 l 0.01367,-0.01172 z"
     id="path2929" />
  <path
     style="color:#000000;fill:#e1e3e7;stroke:none;-inkscape-stroke:none"
     d="M 38.5,39 A 6.5,6.5 0 0 1 32,45.5 6.5,6.5 0 0 1 25.5,39 6.5,6.5 0 0 1 32,32.5 6.5,6.5 0 0 1 38.5,39 Z"
     id="path3154" />
  <path
     style="color:#000000;fill:#cfd1d5;stroke:none;-inkscape-stroke:none"
     d="m 32,32 c -3.860067,0 -7,3.139933 -7,7 0,3.860067 3.139933,7 7,7 3.860067,0 7,-3.139933 7,-7 0,-3.860067 -3.139933,-7 -7,-7 z m 0,1 c 3.319628,0 6,2.680373 6,6 0,3.319627 -2.680372,6 -6,6 -3.319627,0 -6,-2.680373 -6,-6 0,-3.319627 2.680373,-6 6,-6 z"
     id="path3156" />
  <rect
     style="opacity:1;fill:#313643;fill-opacity:1;stroke:none;stroke-width:2.05019;stroke-linejoin:round"
     id="rect3280"
     width="21"
     height="13"
     x="17"
     y="11" />
  <rect
     style="opacity:1;fill:#4c5263;fill-opacity:1;stroke:none;stroke-width:2;stroke-linejoin:round"
     id="rect3706"
     width="19"
     height="11"
     x="18"
     y="12"
     ry="1" />
  <path
     d="m 19,14 v 1 h 3.19 v -1 z m 3.609,0 v 1 h 3.021 v -1 z m 3.441,0 v 1 h 2.644 v -1 z m 3.063,0 v 1 h 1.175 V 14 Z M 19,17 v 1 h 5.078 v -1 z m 5.581,0 v 1 h 2.434 v -1 z m 2.896,0 v 1 H 28.61 V 17 Z M 19,20 v 1 h 5.623 v -1 z m 6.043,0 v 1 h 2.943 V 20 Z M 31,20 v 1 h 5.078 v -1 z"
     style="fill:#e9eaee"
     id="path8078" />
  <circle
     style="opacity:0.7;fill:#333333;stroke-width:2.05694;stroke-linejoin:round"
     id="path845"
     cx="45"
     cy="49"
     r="15" />
  <circle
     style="fill:#808080;stroke-width:1.86667;stroke-linejoin:round"
     id="path1011"
     cx="45"
     cy="49.000004"
     r="14" />
  <path
     d="m 42.92859,41.000003 -0.17639,2.1072 c -0.668126,0.247484 -1.28931,0.606781 -1.837002,1.062497 l -1.9152,-0.901799 -2.000001,3.464202 1.738802,1.2076 c -0.06195,0.350098 -0.09404,0.704788 -0.096,1.060297 1.89e-4,0.356863 0.03061,0.713039 0.09139,1.064701 l -1.734002,1.204002 2.000001,3.464198 1.910699,-0.899558 c 0.549543,0.453782 1.172254,0.810803 1.841503,1.0558 l 0.17639,2.111599 h 3.999999 l 0.176391,-2.1072 c 0.668159,-0.247483 1.289378,-0.606773 1.837099,-1.0625 l 1.9152,0.901799 2.000002,-3.464198 -1.738802,-1.207601 c 0.06195,-0.350097 0.09403,-0.704787 0.096,-1.060301 -1.89e-4,-0.356863 -0.03061,-0.713038 -0.09139,-1.0647 l 1.734402,-1.203099 -2.000001,-3.464202 -1.910702,0.899562 c -0.54954,-0.453782 -1.172251,-0.810807 -1.8415,-1.0558 l -0.17639,-2.111599 h -4.000003 z m 2.000002,5.7144 c 1.26257,-1.1e-4 2.286107,1.023432 2.285998,2.285998 1.09e-4,1.26257 -1.023428,2.286112 -2.285998,2.286002 -1.262571,1.1e-4 -2.286112,-1.023432 -2.286002,-2.286002 -1.1e-4,-1.262566 1.023431,-2.286108 2.286002,-2.285998 z"
     style="fill:#ffffff;stroke-width:0.999999"
     id="path870" />
</svg>
