<?xml version="1.0" encoding="UTF-8" standalone="no"?>
<!-- Created with Inkscape (http://www.inkscape.org/) -->

<svg
   width="64"
   height="64"
   viewBox="0 0 16.933333 16.933334"
   version="1.1"
   id="svg5"
   inkscape:version="1.1.2 (0a00cf5339, 2022-02-04, custom)"
   sodipodi:docname="emacs.svg"
   xmlns:inkscape="http://www.inkscape.org/namespaces/inkscape"
   xmlns:sodipodi="http://sodipodi.sourceforge.net/DTD/sodipodi-0.dtd"
   xmlns="http://www.w3.org/2000/svg"
   xmlns:svg="http://www.w3.org/2000/svg">
  <sodipodi:namedview
     id="namedview7"
     pagecolor="#ffffff"
     bordercolor="#666666"
     borderopacity="1.0"
     inkscape:pageshadow="2"
     inkscape:pageopacity="0.0"
     inkscape:pagecheckerboard="0"
     inkscape:document-units="px"
     showgrid="false"
     units="px"
     height="64px"
     inkscape:zoom="12.484375"
     inkscape:cx="24.991239"
     inkscape:cy="26.513141"
     inkscape:window-width="1851"
     inkscape:window-height="1009"
     inkscape:window-x="69"
     inkscape:window-y="31"
     inkscape:window-maximized="1"
     inkscape:current-layer="svg5" />
  <defs
     id="defs2" />
  <circle
     style="opacity:1;fill:#7d41b6;fill-opacity:1;stroke-width:0.511861;stroke-linejoin:round"
     id="path24384"
     cx="8.4666672"
     cy="8.4666672"
     r="7.2760415" />
  <path
     id="path7088"
     style="opacity:0.75;fill:#532081;fill-opacity:1;stroke-width:2;stroke-linejoin:round"
     d="M 32 4 A 28 28 0 0 0 4 32 A 28 28 0 0 0 32 60 A 28 28 0 0 0 60 32 A 28 28 0 0 0 32 4 z M 32 5 A 27 27 0 0 1 59 32 A 27 27 0 0 1 32 59 A 27 27 0 0 1 5 32 A 27 27 0 0 1 32 5 z "
     transform="scale(0.26458334)" />
  <path
     d="m 5.5589982,12.700002 c 0,0 0.5677797,0.267094 1.3235668,0.361342 0.3060718,0.03817 1.4706179,0.171572 2.3635084,0.168079 0,0 1.0874596,10e-4 1.6877296,-0.08404 0.628103,-0.08922 0.983905,-0.203089 1.181966,-0.430323 0.0052,-0.05418 0.09559,-0.23079 -0.148565,-0.401103 C 11.343017,11.87853 10.536113,11.759354 8.9687662,11.387096 7.2355832,10.951345 6.6910603,10.534051 6.4322523,10.232116 6.186927,9.9294635 6.5048937,9.3009155 7.9014675,8.9925795 8.6085728,8.8205045 11.095799,8.7312505 11.095799,8.7312505 10.340223,8.1314035 9.0680879,7.1150755 8.778166,6.8866935 8.5238768,6.6863835 8.1140806,6.3789885 8.0700552,6.1042899 8.0106367,5.8368885 8.4315398,5.7081354 8.6543973,5.6932822 c 0.7180056,-0.049518 1.6985237,0.1404056 2.5700367,0.3137186 0.438085,0.08712 0.514997,0.074282 0.514997,0.074282 0.623923,0.029712 1.233216,-0.4028544 1.208452,-1.0911798 -0.005,-0.6982153 -0.827039,-1.2581108 -1.599654,-1.2825575 -0.781597,-0.00338 -2.6336808,-0.00338 -2.6336808,-0.00338 2.0897258,0.4308192 2.5445188,0.6481078 2.6535238,0.8996662 0.06456,0.1486387 -0.107417,0.2963249 -0.683135,0.2674861 C 10.057892,4.8398877 8.7731124,4.688074 8.7731124,4.688074 7.5502431,4.4999079 6.8041449,4.3216366 6.4326804,4.8069214 c -0.2426372,0.3170412 0.03467,0.7031897 0.1436066,0.9309365 0.4852847,0.8468013 1.2186306,1.4277566 1.7511157,1.8371616 0.2003634,0.154052 0.8120891,0.49519 0.8120891,0.49519 -1.9015062,-0.519949 -3.5225686,-0.227789 -4.4832433,0.277307 -1.1042865,0.653661 -0.9153793,1.7566775 0.8368534,2.7879425 1.0349674,0.609106 1.656039,0.901674 3.3505413,1.109737 0.9904659,0.157931 1.1910168,0.222551 1.1835028,0.304992 -0.01062,0.116075 -1.2253059,0.160058 -1.5445961,0.182081 -0.8123534,0.05602 -2.9132967,-0.03227 -2.923774,-0.03227 z"
     style="fill:#ffffff;stroke-width:0.264583"
     id="path858" />
</svg>
