<?xml version="1.0" encoding="UTF-8" standalone="no"?>
<!-- Created with Inkscape (http://www.inkscape.org/) -->

<svg
   width="64"
   height="64"
   viewBox="0 0 16.933333 16.933334"
   version="1.1"
   id="svg5"
   inkscape:version="1.1.2 (0a00cf5339, 2022-02-04, custom)"
   sodipodi:docname="epiphany.svg"
   xmlns:inkscape="http://www.inkscape.org/namespaces/inkscape"
   xmlns:sodipodi="http://sodipodi.sourceforge.net/DTD/sodipodi-0.dtd"
   xmlns="http://www.w3.org/2000/svg"
   xmlns:svg="http://www.w3.org/2000/svg">
  <sodipodi:namedview
     id="namedview7"
     pagecolor="#ffffff"
     bordercolor="#666666"
     borderopacity="1.0"
     inkscape:pageshadow="2"
     inkscape:pageopacity="0.0"
     inkscape:pagecheckerboard="0"
     inkscape:document-units="px"
     showgrid="false"
     units="px"
     height="64px"
     inkscape:zoom="12.484375"
     inkscape:cx="36.525657"
     inkscape:cy="38.08761"
     inkscape:window-width="1920"
     inkscape:window-height="1019"
     inkscape:window-x="0"
     inkscape:window-y="31"
     inkscape:window-maximized="1"
     inkscape:current-layer="svg5" />
  <defs
     id="defs2" />
  <circle
     style="opacity:1;fill:#2da8da;fill-opacity:1;stroke-width:0.511861;stroke-linejoin:round"
     id="path24384"
     cx="8.4666672"
     cy="8.4666672"
     r="7.2760415" />
  <path
     id="path925"
     style="opacity:1;fill:#228bf3;fill-opacity:1;stroke-width:2;stroke-linejoin:round"
     d="M 32 4.5 L 32 47 C 27.198438 47 22.445576 48.470573 18.757812 50.355469 C 20.33634 53.826641 22.41878 56.590517 24.716797 58.498047 A 27.499999 27.499999 0 0 0 32 59.5 A 27.499999 27.499999 0 0 0 59.5 32 A 27.499999 27.499999 0 0 0 32 4.5 z "
     transform="scale(0.26458334)" />
  <path
     id="path16"
     style="fill:#2da8da;stroke-width:0.999999"
     d="M 31.996094 4.5 L 31.996094 32 L 48.996094 32 C 48.996094 21.447011 45.618026 11.826782 40.478516 6.6132812 C 40.39562 6.5291925 40.312321 6.447016 40.228516 6.3652344 C 40.312458 6.4465907 40.395334 6.5295391 40.478516 6.6132812 C 42.287979 8.4349425 43.915539 10.816536 45.214844 13.667969 C 46.879335 12.816752 48.250073 11.82045 49.388672 10.697266 A 27.499999 27.499999 0 0 0 37.589844 5.0761719 C 37.039785 5.9200623 36.764134 7.8503105 35.933594 7.7617188 C 35.179556 7.6812873 33.856794 5.5242678 32.832031 4.5136719 A 27.499999 27.499999 0 0 0 32 4.5 A 27.499999 27.499999 0 0 0 31.996094 4.5 z "
     transform="scale(0.26458334)" />
  <path
     id="path6"
     style="fill:#2669bc;stroke-width:0.999999"
     d="M 49 32 C 48.941682 38.493229 47.553513 45.30612 45.240234 50.384766 C 46.903238 51.234385 48.251408 52.184021 49.384766 53.294922 A 27.499999 27.499999 0 0 0 59.5 32 L 49 32 z M 45.240234 50.384766 C 41.55247 48.49987 36.801565 47 32 47 L 32 59.5 A 27.499999 27.499999 0 0 0 39.287109 58.498047 C 41.58347 56.596411 43.662456 53.854292 45.240234 50.384766 z "
     transform="scale(0.26458334)" />
  <path
     id="path1086"
     style="fill:#1b58a2;stroke-width:0.999999"
     d="M 45.240234 50.384766 C 43.660608 53.854874 41.578993 56.595442 39.283203 58.498047 A 27.499999 27.499999 0 0 0 49.382812 53.296875 C 48.249382 52.186279 46.901106 51.234136 45.240234 50.384766 z "
     transform="scale(0.26458334)" />
  <path
     id="path20"
     style="fill:#3acabc;stroke-width:0.999999"
     d="M 32 4.5 A 27.499999 27.499999 0 0 0 31.464844 4.5195312 C 30.535973 6.1118365 29.367423 10.834491 28.566406 10.917969 C 27.636787 11.014848 27.073241 6.5188371 26.28125 5.1132812 A 27.499999 27.499999 0 0 0 24.714844 5.5019531 C 18.906039 10.369135 14.994141 20.644359 14.994141 32 L 4.5 32 A 27.499999 27.499999 0 0 0 14.615234 53.294922 C 15.747759 52.180433 17.092136 51.204457 18.753906 50.355469 C 16.440627 45.276823 15.056381 38.493229 14.998047 32 L 31.996094 32 L 31.996094 17 C 36.797655 17 41.525261 15.554687 45.214844 13.667969 C 43.627396 10.180682 41.551108 7.3867493 39.246094 5.4726562 A 27.499999 27.499999 0 0 0 32 4.5 z "
     transform="scale(0.26458334)" />
  <path
     id="path30"
     style="fill:#62dd9f;stroke-width:0.999999"
     d="M 32 4.5 A 27.499999 27.499999 0 0 0 24.722656 5.5 C 23.147179 6.8190421 21.68328 8.5540044 20.408203 10.638672 C 19.026912 10.288431 17.614363 9.8597158 16.394531 9.8007812 C 16.188858 9.7908445 15.98856 9.7932542 15.794922 9.8066406 A 27.499999 27.499999 0 0 0 4.5 32 L 14.998047 32 C 14.998047 24.587501 16.669938 17.641597 19.443359 12.353516 C 19.220466 12.784836 19.004029 13.226567 18.796875 13.681641 C 22.486459 15.56836 27.198438 17 32 17 L 32 4.5 z "
     transform="scale(0.26458334)" />
  <path
     id="path32"
     style="fill:#79f68b;stroke-width:0.999999"
     d="M 24.728516 5.4980469 A 27.499999 27.499999 0 0 0 14.615234 10.705078 C 15.754564 11.82741 17.133999 12.832249 18.794922 13.681641 C 20.47174 10.224037 22.457089 7.4173019 24.728516 5.4980469 z "
     transform="scale(0.26458334)" />
  <path
     id="path7088"
     style="opacity:0.5;fill:#007199;fill-opacity:1;stroke-width:2;stroke-linejoin:round"
     d="M 32 4 A 28 28 0 0 0 4 32 A 28 28 0 0 0 32 60 A 28 28 0 0 0 60 32 A 28 28 0 0 0 32 4 z M 32 5 A 27 27 0 0 1 59 32 A 27 27 0 0 1 32 59 A 27 27 0 0 1 5 32 A 27 27 0 0 1 32 5 z "
     transform="scale(0.26458334)" />
</svg>
