<?xml version="1.0" encoding="UTF-8" standalone="no"?>
<!-- Created with Inkscape (http://www.inkscape.org/) -->

<svg
   width="64"
   height="64"
   viewBox="0 0 16.933333 16.933334"
   version="1.1"
   id="svg5"
   inkscape:version="1.1.2 (0a00cf5339, 2022-02-04, custom)"
   sodipodi:docname="evince.svg"
   xmlns:inkscape="http://www.inkscape.org/namespaces/inkscape"
   xmlns:sodipodi="http://sodipodi.sourceforge.net/DTD/sodipodi-0.dtd"
   xmlns="http://www.w3.org/2000/svg"
   xmlns:svg="http://www.w3.org/2000/svg">
  <sodipodi:namedview
     id="namedview7"
     pagecolor="#ffffff"
     bordercolor="#666666"
     borderopacity="1.0"
     inkscape:pageshadow="2"
     inkscape:pageopacity="0.0"
     inkscape:pagecheckerboard="0"
     inkscape:document-units="px"
     showgrid="false"
     units="px"
     height="64px"
     showguides="false"
     inkscape:zoom="15.421875"
     inkscape:cx="32"
     inkscape:cy="25.126646"
     inkscape:window-width="1920"
     inkscape:window-height="1019"
     inkscape:window-x="0"
     inkscape:window-y="31"
     inkscape:window-maximized="1"
     inkscape:current-layer="svg5" />
  <defs
     id="defs2" />
  <rect
     style="opacity:0.9;fill:#981414;stroke-width:0.264583;stroke-linecap:round;stroke-linejoin:round;fill-opacity:1"
     id="rect925"
     width="14.2875"
     height="14.2875"
     x="1.3229166"
     y="1.3229166"
     ry="1.5875" />
  <rect
     style="opacity:1;fill:#e45656;fill-opacity:1;stroke-width:0.264583;stroke-linecap:round;stroke-linejoin:round"
     id="rect1029"
     width="13.758333"
     height="13.758333"
     x="1.5875"
     y="1.5875"
     ry="1.3229166" />
  <path
     id="path1812"
     style="color:#000000;opacity:0.3;fill:#000000;stroke:none;stroke-width:3.77953;-inkscape-stroke:none"
     d="M 35.667969 6 C 18.73205 20.338522 9.1022623 22.372766 6 22.609375 L 6 30.101562 L 6.1425781 30.082031 C 8.7718635 29.714841 15.301337 28.451657 22.271484 24.080078 C 29.683059 19.430644 36.847576 12.605854 39.478516 10.054688 C 38.347042 13.548301 37.445062 17.838417 36.96875 25.113281 C 36.393201 33.903839 36.1701 45.175205 36.142578 58 L 53 58 C 54.374487 58 55.615484 57.450255 56.517578 56.558594 C 56.247423 56.835624 55.872701 57.006975 55.445312 57.003906 L 55.4375 57.003906 L 38.164062 57.003906 C 38.202349 44.682503 38.41565 33.693698 38.96875 25.246094 C 39.539198 16.533418 40.551415 10.256253 41.789062 7.8242188 L 40.652344 6.9980469 L 50.994141 6.9980469 C 50.104587 10.702019 48.393586 19.176722 49.738281 29.394531 L 49.738281 29.416016 L 49.746094 29.447266 C 51.388616 38.372538 53.579864 48.306845 56.966797 55.474609 C 56.954135 55.897608 56.787733 56.281563 56.517578 56.558594 C 57.433473 55.653292 58 54.395513 58 53 L 58 52.996094 C 55.194132 46.313108 53.22728 37.29509 51.724609 29.136719 C 50.331067 18.547765 52.389473 9.2202374 53.150391 6.2441406 L 53.212891 6.0039062 C 53.142166 6.000966 53.071473 6 53 6 L 35.667969 6 z M 37.558594 6.9980469 L 39.826172 6.9980469 C 39.250588 7.5671874 29.509349 17.181681 21.208984 22.388672 C 15.187419 26.165313 9.8383059 27.364505 6.9980469 27.837891 L 6.9980469 24.330078 C 11.021499 23.897427 20.717263 21.390247 37.558594 6.9980469 z M 6 31.535156 L 6 39.595703 L 6.0019531 39.595703 C 9.2803429 39.595699 13.828968 41.681178 18.152344 45.125 C 22.346697 48.466052 26.34428 53.046003 29.007812 58 L 35.777344 58 L 35.707031 57.740234 C 34.284764 52.432315 28.387889 46.129941 22.152344 40.902344 C 19.034571 38.288543 15.825355 35.984023 13.007812 34.310547 C 10.190269 32.637071 7.8764465 31.535156 6.0019531 31.535156 L 6 31.535156 z M 6.9980469 33.949219 C 8.1458244 34.191366 9.7410762 34.696526 11.988281 36.03125 C 14.683889 37.632302 17.825294 39.88763 20.869141 42.439453 C 26.452058 47.119914 31.296713 52.760479 33.011719 56.996094 L 30.664062 56.996094 C 27.851758 51.797596 23.778922 47.048306 19.400391 43.560547 C 15.20645 40.219822 10.860239 38.172049 6.9980469 37.847656 L 6.9980469 33.949219 z "
     transform="scale(0.26458334)" />
  <path
     id="path856"
     style="color:#000000;overflow:visible;fill:#ffffff;stroke-width:0.999999;marker:none"
     d="M 37.216797 6 C 19.492797 21.231 9.367 23.380188 6 23.617188 L 6 29.091797 C 8.5420002 28.736797 14.931328 27.502375 21.736328 23.234375 C 30.462328 17.760375 40.894531 7.3671875 40.894531 7.3671875 C 38.033531 12.989188 37.199531 32.370999 37.144531 58 L 53 58 C 55.149765 58 56.972362 56.656095 57.681641 54.759766 C 54.4701 47.791072 52.341863 38.019809 50.730469 29.263672 C 49.31047 18.473671 51.406595 9.0390002 52.183594 6 L 37.216797 6 z M 6 32.539062 L 6 38.599609 C 13.358 38.599609 24.669578 47.442049 30.142578 57.998047 L 34.738281 57.998047 C 32.167281 48.403047 11.614 32.539062 6 32.539062 z "
     transform="scale(0.26458334)" />
</svg>
