<?xml version="1.0" encoding="UTF-8" standalone="no"?>
<!-- Created with Inkscape (http://www.inkscape.org/) -->

<svg
   width="64"
   height="64"
   viewBox="0 0 16.933333 16.933334"
   version="1.1"
   id="svg5"
   inkscape:version="1.1.2 (0a00cf5339, 2022-02-04, custom)"
   sodipodi:docname="firefox.svg"
   xmlns:inkscape="http://www.inkscape.org/namespaces/inkscape"
   xmlns:sodipodi="http://sodipodi.sourceforge.net/DTD/sodipodi-0.dtd"
   xmlns="http://www.w3.org/2000/svg"
   xmlns:svg="http://www.w3.org/2000/svg">
  <sodipodi:namedview
     id="namedview7"
     pagecolor="#ffffff"
     bordercolor="#666666"
     borderopacity="1.0"
     inkscape:pageshadow="2"
     inkscape:pageopacity="0.0"
     inkscape:pagecheckerboard="0"
     inkscape:document-units="px"
     showgrid="false"
     units="px"
     height="64px"
     showguides="false"
     inkscape:zoom="13.15625"
     inkscape:cx="31.961995"
     inkscape:cy="32"
     inkscape:window-width="1920"
     inkscape:window-height="1019"
     inkscape:window-x="0"
     inkscape:window-y="31"
     inkscape:window-maximized="1"
     inkscape:current-layer="svg5" />
  <defs
     id="defs2" />
  <path
     d="m 5.9304664,5.3865124 c 0.05795,0.036866 0.1057519,0.069026 0.1476428,0.097996 C 5.9151182,4.9140237 5.9081713,4.3102575 6.0579929,3.7361738 5.3981909,4.0558008 4.8119139,4.5088995 4.3362592,5.0667999 4.3711399,5.0659268 5.4086803,5.0472765 5.9303905,5.3864462 Z"
     style="color:#000000;fill:#ff7f1f;stroke-width:0.0700035;-inkscape-stroke:none;fill-opacity:1"
     id="path2949" />
  <path
     style="color:#000000;opacity:0.1;fill:#000000;fill-opacity:0.999043;stroke-width:1.00002;-inkscape-stroke:none"
     d="M 6.2579854,3.4925 6.0001678,3.6175025 C 5.3238914,3.9451099 4.7239922,4.4089803 4.2364612,4.9808105 l -0.1933633,0.226567 0.2968809,-0.00781 c 0.00825,-2.062e-4 0.276102,-0.0053 0.5957149,0.031251 0.3189877,0.036484 0.6934704,0.1190312 0.91994,0.2656303 4.439e-4,2.874e-4 0.00151,-2.878e-4 0.00195,0 l 0.00195,0.00195 c 0.05635,0.035848 0.1017406,0.067462 0.1425809,0.095705 L 6.3068144,5.8030924 6.2052499,5.4476166 C 6.0487596,4.8998848 6.0418721,4.3210367 6.1857184,3.7698493 Z M 5.9337602,3.9964162 C 5.8619456,4.4174747 5.8618192,4.8414454 5.9474324,5.2601129 5.6573061,5.0894177 5.2855142,5.003798 4.9649911,4.9671384 4.8209117,4.9506594 4.8007972,4.9578251 4.6954546,4.9534663 5.0615641,4.5756659 5.4707464,4.2469847 5.9337602,3.9964162 Z"
     id="path2941" />
  <path
     style="color:#000000;fill:#f74e66;stroke-width:0.264583;-inkscape-stroke:none"
     d="M 3.9690966,6.2515296 C 2.297985,7.5438409 1.3317204,6.6089237 1.3317204,8.8685845 c 0,3.8993395 3.1984037,7.0603785 7.1438345,7.0603785 3.9454301,0 7.1438341,-3.161039 7.1438341,-7.0603785 0,-1.8154076 -0.693293,-3.4707929 -1.832446,-4.7216543 0.02539,-9.789e-4 -0.10653,-0.102376 -0.174541,-0.077066 0.476222,0.7893487 0.750322,1.714359 0.750322,2.7034531 0,2.8945449 -1.609828,5.7620937 -4.5043727,5.7620937 C 7.999203,12.625652 5.5226127,11.437112 5.1414283,10.324923 4.8954986,9.6073694 4.9575767,8.8014666 5.6266741,8.3553566 5.9901061,8.1246542 6.5199591,7.8968678 7.3582284,7.8701187 8.1239855,7.3665126 7.7513956,7.4237967 7.7145611,7.271324 7.4766835,7.2062775 7.0544293,7.1163856 6.4714178,6.657533 5.9550379,6.2511213 5.7152008,6.0970166 4.2103645,6.0829601 3.9260732,5.5355393 3.9969619,6.9015206 3.9690966,6.2515296 Z"
     id="path883" />
  <path
     style="color:#000000;fill:#000000;stroke-width:0.264583;-inkscape-stroke:none;opacity:0.2"
     d="m 13.566191,3.9459167 -0.149345,0.055811 0.08217,0.1364258 c 0.464205,0.7694306 0.731222,1.6703289 0.731222,2.6349813 0,1.4227458 -0.397229,2.8389543 -1.14205,3.8902012 -0.744821,1.051248 -1.826192,1.739946 -3.2297769,1.739946 h -0.0031 -0.00362 C 8.953049,12.446901 7.8842143,12.1782 7.0022506,11.76146 6.1202872,11.344722 5.4332275,10.768606 5.2664394,10.281964 5.1495066,9.9407871 5.1081543,9.5818065 5.1708378,9.2639384 5.233476,8.9463014 5.3943917,8.6697181 5.6994877,8.4660543 5.6997095,8.4659064 5.6997788,8.4656839 5.7000169,8.4655251 6.0475114,8.2453545 6.5480203,8.0284927 7.362448,8.0025043 l 0.037207,-0.00156 0.031523,-0.020153 C 7.6257695,7.8528149 7.7500274,7.759797 7.8327034,7.6821002 7.9153796,7.6044035 7.9726473,7.5350583 7.9696459,7.4350868 7.9681377,7.3851012 7.9457011,7.3405284 7.9241706,7.3131303 7.9026415,7.2857324 7.8823826,7.2702035 7.8678435,7.2578366 7.8387652,7.2331033 7.839849,7.2270624 7.8430388,7.2402656 L 7.8249519,7.1643011 7.7495043,7.1436292 C 7.5031182,7.0762562 7.1184098,6.9983303 6.553195,6.5534845 6.2935691,6.3491486 6.0824364,6.1934191 5.7485928,6.096148 5.4287827,6.0029657 4.9767027,5.9661714 4.2763313,5.9566215 4.2516668,5.9183003 4.2316497,5.8747542 4.1910653,5.8486178 4.1585144,5.8276549 4.1091659,5.8118844 4.0603238,5.8212295 4.0114818,5.8305795 3.9757068,5.8594715 3.954387,5.8853085 3.911749,5.9369825 3.900093,5.9849865 3.887724,6.0356868 3.877944,6.0757878 3.872333,6.1175598 3.867052,6.1586768 3.0650301,6.7711223 2.4455226,6.8545552 1.9679437,7.0774833 1.7268071,7.1900432 1.5193063,7.3528347 1.3891676,7.6319717 1.259029,7.9111085 1.1995151,8.2942458 1.1995151,8.8685887 c 0,3.9716763 3.2599547,7.1928433 7.2760419,7.1928433 4.016087,0 7.276042,-3.221167 7.276042,-7.1928433 0,-1.8332582 -0.697566,-3.505262 -1.840198,-4.7754192 -7.41e-4,-0.00169 -0.0013,-0.00519 -0.0021,-0.00672 -0.01762,-0.03789 -0.02818,-0.042274 -0.03876,-0.052193 -0.02115,-0.019838 -0.0426,-0.034609 -0.06925,-0.050126 -0.05329,-0.031033 -0.120799,-0.080787 -0.235128,-0.038241 z m 0.444934,0.7141684 c 0.912208,1.1694639 1.475879,2.6174436 1.475879,4.2085288 0,3.8269941 -3.136692,6.9282591 -7.0114581,6.9282591 -3.8747664,0 -7.0114586,-3.101265 -7.0114586,-6.9282591 0,-0.5554864 0.06159,-0.9029992 0.1648479,-1.1244792 0.103258,-0.2214801 0.2413004,-0.3291401 0.4506185,-0.4268476 0.3824,-0.1784998 1.0147663,-0.3259386 1.771468,-0.8474935 8.203e-4,0.00201 0.00979,0.023209 0.00982,0.023254 2.57e-5,4.84e-5 0.06612,0.060451 0.066146,0.060462 2.54e-5,1.06e-5 0.1467358,-0.031496 0.1467609,-0.031523 2.54e-5,-2.68e-5 0.026847,-0.042311 0.026872,-0.042375 2.51e-5,-6.37e-5 0.00474,-0.013285 0.00568,-0.017052 0.00188,-0.00754 0.00217,-0.011068 0.00259,-0.013952 0.00167,-0.011538 0.00127,-0.013396 0.00156,-0.018087 0.0023,-0.037532 0.00459,-0.1213271 0.01447,-0.2103232 4.497e-4,-0.00416 0.00156,-0.00722 0.00206,-0.011369 l 0.00259,0.00568 0.079582,5.292e-4 c 0.7479678,0.00699 1.1741653,0.049977 1.4655435,0.1348753 0.2913785,0.084898 0.4579316,0.2092693 0.7146851,0.4113446 0.5808782,0.4571735 1.0203201,0.563332 1.2567709,0.6268352 0.01801,0.019749 0.033612,0.055301 0.045992,0.065629 -5.821e-4,-0.00619 0.00622,-0.00855 -0.040825,0.035657 C 7.5927622,7.5444243 7.4759754,7.6319918 7.3040661,7.746214 6.4772754,7.7824593 5.9263243,8.0086868 5.5558526,8.2438583 l -0.00156,5.291e-4 -0.00103,0.00103 C 5.1896901,8.4878234 4.9850688,8.8368035 4.9109217,9.2128021 4.8367743,9.5888007 4.8873447,9.991395 5.0163415,10.36777 c 0.2143958,0.625548 0.956341,1.199959 1.8727539,1.632976 0.9161013,0.432869 2.0142222,0.71301 2.9744957,0.666626 3.175e-4,-1.6e-5 7.144e-4,1.6e-5 0.00103,0 1.4878499,-0.0022 2.6569989,-0.746503 3.4395829,-1.85105 0.783728,-1.1061606 1.190625,-2.5713681 1.190625,-4.0431643 0,-0.7586681 -0.199706,-1.4582418 -0.483691,-2.1130493 z"
     id="path885" />
  <path
     style="color:#000000;fill:#ffde36;fill-opacity:1;stroke-width:0.264586;-inkscape-stroke:none"
     d="M 10.695559,0.97120687 C 8.8989237,2.0231276 8.2896947,3.9704887 8.2336938,4.9446078 c 0.083418,-0.0061 0.1658856,-0.012919 0.2511472,-0.012919 1.2977937,0.00238 2.494428,0.7012227 3.134176,1.8303794 0.01281,0.009 0.02466,0.018383 0.03669,0.027389 0.0026,0.00413 0.0052,0.00826 0.0078,0.012401 0.0393,0.02972 0.07578,0.059272 0.10697,0.08785 1.621632,1.4948294 0.771785,3.6079238 0.708484,3.7584278 1.317326,-1.0853223 2.159348,-2.6908065 1.906343,-4.347539 -0.809124,-2.0171393 -2.1806,-2.8299009 -3.300621,-4.6002357 -0.05666,-0.089508 -0.113294,-0.1792032 -0.168465,-0.273885 -0.03156,-0.054035 -0.05659,-0.1029537 -0.07855,-0.1477946 -0.04655,-0.089914 -0.08245,-0.1849522 -0.10697,-0.28318693 -1.03e-4,-0.00917 -0.0069,-0.016877 -0.01602,-0.018087 -0.0044,-0.0012 -0.009,-0.0012 -0.01343,0 -9.53e-4,0 -0.0025,0.00155 -0.0036,0.00155 -0.0011,3.651e-4 -0.0036,0.00171 -0.0052,0.00259 0,0 0,0 5.29e-4,-0.0062 z"
     id="path2597" />
  <path
     style="color:#000000;fill:#000000;fill-opacity:1;stroke-width:0.264583;-inkscape-stroke:none;opacity:0.1"
     d="m 10.676439,0.84666667 -0.0088,0.0031 0.0217,-0.0031 z m -0.0088,0.0031 -0.0041,0.00103 c -2.14e-4,3.37e-5 -0.0021,5.133e-4 -0.0021,5.16e-4 -3.7e-5,1.15e-5 -0.0035,0.00143 -0.0052,0.00207 -0.0045,0.00171 -0.01087,0.00366 -0.01395,0.00517 -0.0033,0.00161 -0.0024,0.00164 -0.0041,0.00259 0.0019,-0.00101 0.0014,-8.679e-4 0.0052,-0.00259 0.0014,-6.588e-4 0.0034,-0.00104 0.0062,-0.00207 -0.007,0.00276 -0.01153,0.00412 -0.01137,0.00465 -7.94e-4,4.445e-4 -0.0016,7.329e-4 -0.0021,0.00103 7.1e-5,4.66e-5 -0.0016,4.815e-4 -0.0016,5.159e-4 l -0.0057,-0.00568 C 8.7820811,1.9383026 8.1599785,3.9179377 8.1014019,4.9368562 l -0.00827,0.1508951 0.1503786,-0.011369 c 0.084243,-0.00616 0.1631201,-0.012401 0.2413288,-0.012401 1.2504494,0.0023 2.4025267,0.6752349 3.0189367,1.7631997 l 0.01499,0.02584 0.02429,0.017052 c 0.0036,0.00251 0.0092,0.00713 0.01344,0.010334 l 0.0078,0.012401 0.01964,0.01447 c 0.03706,0.028026 0.07035,0.055539 0.09715,0.080099 0.779017,0.7184433 0.960141,1.5745564 0.943094,2.2825477 -0.01705,0.708167 -0.239271,1.2607303 -0.267166,1.3270503 l 0.206189,0.153479 c 1.345388,-1.1084413 2.214395,-2.7573702 1.952852,-4.4700105 l -0.0021,-0.014986 -0.0057,-0.013951 c -0.823748,-2.0536827 -2.208241,-2.8773827 -3.311956,-4.621941 -0.0566,-0.08942 -0.112239,-0.1776932 -0.165881,-0.269751 -0.02938,-0.05031 -0.05268,-0.09621 -0.0739,-0.1395264 l -5.3e-4,-0.00103 -10e-4,-0.00155 c -0.04181,-0.080774 -0.07408,-0.1659961 -0.0961,-0.25424692 l 0.0041,0.030489 c -8.11e-4,-0.072158 -0.05692,-0.13212751 -0.127642,-0.1441772 -0.01949,-0.00344 -0.0395,-0.00396 -0.05891,0 0.01022,-0.00141 0.02127,-0.0031 0.02119,-0.0031 h -0.0062 c -0.0075,0.00113 -0.01267,0.00195 -0.02015,0.0031 -0.0012,2.831e-4 -0.0024,-3.0961e-4 -0.0036,0 z m -0.01654,0.029972 0.173115,0.1131714 -0.0021,0.025321 -0.01447,0.022738 z m 0.0057,0.29197193 c 0.02068,0.056255 0.03596,0.114633 0.06356,0.1679484 0.02245,0.045771 0.04849,0.096702 0.08165,0.153479 0.0567,0.097306 0.114332,0.1884242 0.171048,0.2780192 1.133067,1.7909536 2.486092,2.5953663 3.281454,4.5635456 0.21244,1.4272583 -0.438724,2.8024545 -1.493449,3.8390422 0.06021,-0.2436413 0.119133,-0.5442263 0.127641,-0.8976193 0.01829,-0.7597126 -0.186237,-1.7072946 -1.028362,-2.4835696 h -5.29e-4 v -5.292e-4 c -0.02899,-0.026565 -0.06191,-0.052298 -0.09508,-0.078031 l -0.0098,-0.015502 -0.02015,-0.014986 c -0.0062,-0.00463 -0.01573,-0.011681 -0.02429,-0.018087 C 11.042644,5.5155454 9.8165667,4.8018293 8.4848278,4.7993858 c -0.032719,0 -0.061256,0.00321 -0.092501,0.00465 C 8.4872948,3.86067 9.0788117,2.1640989 10.656789,1.1717008 Z"
     id="path2599" />
  <circle
     style="opacity:1;fill:#8357cd;stroke-width:0.264583;stroke-linecap:round;stroke-linejoin:round;stroke-opacity:0.3;fill-opacity:1"
     id="path944"
     cx="8.4666672"
     cy="8.4666672"
     r="3.5718751" />
  <path
     id="path1320"
     style="opacity:0.1;fill:#000000;stroke-width:0.999999;stroke-linecap:round;stroke-linejoin:round;stroke-opacity:0.3"
     d="M 32 18 A 14 14 0 0 0 18 32 A 14 14 0 0 0 32 46 A 14 14 0 0 0 46 32 A 14 14 0 0 0 32 18 z M 32 19 A 13 13 0 0 1 45 32 A 13 13 0 0 1 32 45 A 13 13 0 0 1 19 32 A 13 13 0 0 1 32 19 z "
     transform="scale(0.26458334)" />
  <path
     style="color:#000000;fill:#ffba36;stroke-width:0.264586;-inkscape-stroke:none"
     d="M 10.304062,6.2268504 A 2.4693485,2.4693485 0 0 0 9.9015032,6.2464878 C 12.474253,7.5328128 11.783772,11.962189 8.2184014,11.794986 A 3.1807627,3.1807627 0 0 1 7.2877089,11.615669 c -0.070008,-0.02621 -0.1397984,-0.05516 -0.2098064,-0.0863 -0.040417,-0.01848 -0.081055,-0.03662 -0.1209227,-0.05736 l 0.00517,0.0031 c 0.4971899,0.339386 2.9526264,1.168887 5.5200762,-0.922425 l 0.0041,-0.0093 c 0.06404,-0.149482 0.913927,-2.263063 -0.708484,-3.7573926 v -5.292e-4 c -0.03119,-0.028587 -0.06818,-0.05813 -0.107488,-0.08785 -0.01458,-0.010893 -0.02895,-0.021662 -0.04444,-0.032557 A 2.4693485,2.4693485 0 0 0 10.304062,6.226838 Z M 4.6744318,6.7151927 a 2.697753,2.697753 0 0 0 -1.4975829,0.3963582 1.8368362,1.8368362 0 0 0 1.69447,1.0655681 c -0.1325126,1.1695228 0.4857185,2.533167 1.982308,3.248381 0.033404,0.01604 0.064894,0.03323 0.099219,0.04857 C 6.0793884,11.022847 5.3581958,10.169254 5.2681938,9.1331328 h -5.291e-4 c 0,0 0.3302169,-1.2304158 2.3641968,-1.2304158 0.2198044,0 0.8491524,-0.6132526 0.8604125,-0.7911661 A 3.5618701,3.5618701 0 0 1 5.80665,7.0056144 2.697753,2.697753 0 0 0 4.6744194,6.7151927 Z"
     id="path1697" />
  <path
     style="color:#000000;fill:#000000;fill-opacity:1;stroke-width:0.264583;-inkscape-stroke:none;opacity:0.1"
     d="m 10.308196,6.0945588 c -0.141702,-0.00467 -0.283171,0.00222 -0.4237468,0.020671 l -0.428914,0.056328 0.387057,0.1932696 C 11.070406,6.9787108 11.517348,8.3407132 11.233204,9.5351768 10.94906,10.729639 9.9522832,11.743717 8.2246024,11.662694 H 8.2240733 8.2235441 C 7.9282977,11.650644 7.637323,11.592304 7.357964,11.496297 c -0.093972,-0.04023 -0.2336194,-0.083 -0.2837037,-0.114722 -0.016393,-0.0077 -0.033833,-0.01546 -0.049093,-0.02325 -0.00228,-0.0012 -0.00499,-0.0025 -0.00723,-0.0036 l -0.02584,0.04599 0.021187,-0.04392 C 6.1805134,10.926562 5.4991361,10.115346 5.405112,9.1439858 5.4146185,9.1110488 5.4852226,8.8815584 5.7761488,8.6158528 6.088471,8.3306062 6.6415366,8.0350095 7.6318496,8.0350095 c 0.1164672,0 0.2003723,-0.054798 0.2992064,-0.1209228 C 8.0298899,7.8479624 8.1333987,7.7619761 8.2307795,7.6701739 8.3281604,7.5783721 8.4188278,7.4811053 8.4886447,7.3911213 8.5584621,7.3011376 8.6166179,7.2370457 8.624037,7.11982 l 0.01292,-0.2015382 -0.1896526,0.06873 C 7.6050552,7.2920177 6.6770225,7.2556105 5.8614156,6.8852089 l 0.00517,0.00259 C 5.497691,6.7006665 5.0919638,6.5964424 4.6785418,6.5829108 4.1254918,6.5649404 3.5793303,6.7097052 3.1075783,6.9989062 l -0.1002522,0.061495 0.049609,0.1064532 c 0.3081528,0.666274 0.9631781,1.0888332 1.6893024,1.1260297 -0.081037,1.1958797 0.5609691,2.5402029 2.0500041,3.2519979 0.027433,0.01317 0.059329,0.02968 0.096118,0.04651 0.00262,0.0012 0.00402,0.0024 0.00672,0.0036 l 0.00156,-0.0036 c 0.042772,0.02203 0.084216,0.0409 0.1224732,0.05839 h 5.292e-4 l 5.291e-4,5.29e-4 c 0.072018,0.03204 0.1441088,0.0621 0.2170412,0.0894 l 0.00103,5.29e-4 h 0.00156 c 0.010313,0.0036 0.021695,0.0027 0.03204,0.0062 0.3810506,0.162206 0.9112454,0.319952 1.6717325,0.311092 1.0235454,-0.01192 2.3120072,-0.338393 3.6183832,-1.402499 l 0.02429,-0.01964 0.01757,-0.03927 v -5.29e-4 c 0.03748,-0.08748 0.270574,-0.6634992 0.288872,-1.4231692 0.0179,-0.7440201 -0.186962,-1.6666642 -0.986527,-2.4334659 v -0.011883 l -0.04289,-0.039274 c -0.03612,-0.033107 -0.07619,-0.064519 -0.117305,-0.095602 v -5.291e-4 h -5.3e-4 c -0.01449,-0.010824 -0.02999,-0.02228 -0.04754,-0.034623 v -5.292e-4 h -5.29e-4 C 11.291053,6.2722006 10.807592,6.1116275 10.308689,6.0945344 Z m -0.0088,0.2645833 h 5.3e-4 c 0.448003,0.015449 0.882108,0.1591254 1.25057,0.414445 0.01324,0.00933 0.02636,0.019163 0.04082,0.029973 0.03725,0.028183 0.07104,0.055654 0.09715,0.079581 0.779877,0.7183091 0.960666,1.5744753 0.943611,2.2825477 -0.01659,0.688956 -0.224005,1.2167562 -0.259932,1.3027632 -1.0087,0.813858 -1.984871,1.158472 -2.8329019,1.270724 1.0531929,-0.358323 1.7260029,-1.195414 1.9513019,-2.1425052 0.281285,-1.1824455 -0.138962,-2.4964782 -1.222664,-3.2359786 0.01052,2.024e-4 0.021,-0.00191 0.03152,-0.00156 z M 4.6702984,6.8474843 c 0.3747757,0.012266 0.7420118,0.1063104 1.07642,0.2759523 l 0.00259,0.00156 0.00259,0.00103 c 0.7691154,0.3492876 1.6281151,0.4059862 2.4396443,0.1984375 -0.045901,0.051374 -0.087272,0.1012655 -0.1421101,0.1529622 -0.088839,0.08375 -0.1842764,0.1621039 -0.2656167,0.2165242 -0.081341,0.05442 -0.1584937,0.076481 -0.1519288,0.076481 -1.0436649,0 -1.6727038,0.3196121 -2.0339844,0.6495729 C 5.236628,8.7499682 5.1400554,9.0990356 5.1400554,9.0990356 L 5.1074991,9.2194418 C 5.0137962,8.8730184 4.9648453,8.5251155 5.0025771,8.192105 l 0.017052,-0.1493448 -0.1503783,0.00206 C 4.2418854,8.0541532 3.6760451,7.7103612 3.3711514,7.1704586 3.7704532,6.9541694 4.2147751,6.8326788 4.6702969,6.8474809 Z m 0.454236,2.4179405 h 0.040824 c 0.014083,0.104192 0.046704,0.201254 0.072347,0.301273 -0.041195,-0.100273 -0.08384,-0.199553 -0.113171,-0.301273 z"
     id="path1699" />
  <path
     style="color:#000000;fill:#ff7f1f;stroke-width:0.264585;-inkscape-stroke:none;fill-opacity:1"
     d="m 1.3894719,8.6542138 c 0.5520009,3.2617652 3.5081692,5.7522142 6.8642349,5.8472162 3.1059622,0.08784 5.0903012,-1.715234 5.9101172,-3.474269 a 6.4778276,6.4778276 0 0 0 0.222574,-4.8275951 v -0.00697 c 0,-0.00523 -0.0011,-0.00872 0,-0.00697 l 0.0013,0.012027 c 0.253755,1.6567329 -0.588911,3.2617639 -1.906237,4.3471861 l -0.0041,0.0092 C 9.9106098,12.64448 7.4542618,11.815264 6.9570516,11.476827 q -0.052032,-0.02489 -0.104072,-0.05182 C 5.3564501,10.70968 4.7381379,9.3461628 4.8706405,8.1768398 A 1.8368362,1.8368362 0 0 1 3.1763071,7.1110189 2.6977531,2.6977531 0 0 1 5.805959,7.0054468 3.5618702,3.5618702 0 0 0 8.4915118,7.1110189 C 8.4887408,7.0528867 7.2438873,6.557368 6.7585777,6.0793985 6.4992826,5.8237935 6.3761902,5.7007011 6.267118,5.6082393 A 2.1384421,2.1384421 0 0 0 6.0825644,5.4683465 C 6.0401166,5.4394109 5.9923166,5.4080353 5.9349215,5.3703506 5.4131912,5.0311439 4.3756908,5.0497843 4.3412901,5.0507143 h -0.00332 C 4.0545144,4.6916372 4.0744548,3.5067839 4.0906852,3.259379 A 1.2785252,1.2785252 0 0 0 3.8518705,3.3861615 5.2090026,5.2090026 0 0 0 3.1527867,3.9850333 6.246123,6.246123 0 0 0 2.4813835,4.7854391 v 8.715e-4 -8.715e-4 A 6.040919,6.040919 0 0 0 1.5217246,6.9525817 c -0.00351,0.014554 -0.2576351,1.1256221 -0.1323227,1.7017331 z"
     id="path1075" />
  <path
     style="color:#000000;fill:#000000;fill-opacity:1;stroke-width:1.00002;-inkscape-stroke:none;opacity:0.1"
     d="m 4.235603,3.0585134 -0.1933632,0.078127 c -0.09254,0.037188 -0.1810272,0.084811 -0.263677,0.1406277 h -0.00195 l -0.00195,0.00195 C 3.5184605,3.4620708 3.279869,3.6674847 3.0597987,3.8925143 2.8966101,4.0569143 2.75872,4.2427597 2.6144774,4.4237746 v -0.054689 l -0.2402392,0.3398505 -0.025391,0.035157 v 0.021484 C 1.8982921,5.4182882 1.5667874,6.1474782 1.3937501,6.9218703 c -0.00552,0.022889 -0.0183,0.080224 -0.041017,0.1972695 -0.022716,0.1170463 -0.051589,0.2761475 -0.076173,0.4550872 -0.048909,0.3559868 -0.084482,0.7787558 -0.015625,1.1015838 h -0.00195 c 3.515e-4,0.0021 0.0016,0.0038 0.00195,0.0059 l 0.064454,0.298833 0.029298,-0.04297 c 0.6795942,3.1889462 3.5717632,5.6013612 6.8946673,5.6954242 3.1586882,0.08933 5.1955532,-1.749106 6.0352752,-3.550851 0.702192,-1.5378492 0.779112,-3.2843422 0.232427,-4.8829087 -0.0012,0.00656 -0.0028,0.011005 -0.0039,0.017578 -0.0012,-0.00817 0.0051,-0.015267 0.0039,-0.023437 v -0.00391 c -3.14e-4,-0.00209 0.0023,-0.00377 0.002,-0.00586 -3.38e-4,-0.00443 -0.0021,-0.012668 -0.002,-0.011719 l -0.002,-0.031251 -0.01758,-0.025391 c -6.9e-5,-1.094e-4 -0.0058,-0.0097 -0.0059,-0.00977 -5.2e-5,-6.93e-5 -0.02145,-0.021455 -0.02148,-0.021485 0,0 -0.0098,-0.00781 -0.0098,-0.00781 0,0 -0.07422,0.1093771 -0.07422,0.1093771 0,0 -0.121096,-0.054688 -0.121096,-0.054688 -1.3e-5,4.07e-5 -0.01172,0.048755 -0.01172,0.048829 -3e-6,7.4e-5 -5e-6,0.013566 0,0.013672 v 0.029259 l 0.002,0.00586 c 0.239197,1.596506 -0.571433,3.155295 -1.857459,4.2149272 l -0.02539,0.01953 c -1.252909,1.012544 -2.4686972,1.318792 -3.4335872,1.33011 -0.9705,0.01139 -1.7018609,-0.285312 -1.9082407,-0.425789 l -0.00781,-0.0059 -0.00781,-0.0039 c -0.033423,-0.01599 -0.068078,-0.03345 -0.1015645,-0.05078 h -0.00195 l -0.00195,-0.002 C 5.45918,10.611541 4.8752205,9.3035648 5.0012431,8.1914268 l 0.017578,-0.14844 -0.1503935,0.002 C 4.2508209,8.0540378 3.7119161,7.7010174 3.4035554,7.175782 4.1357648,6.7913264 5.0015919,6.7457711 5.7453984,7.1230466 l 0.00391,0.00195 h 0.00195 c 0.878469,0.3987936 1.8781474,0.4399326 2.7852114,0.1113303 l 0.0918,-0.033204 -0.0039,-0.097658 c -2.2e-5,-4.543e-4 -0.0076,-0.038556 -0.0078,-0.039064 -1.72e-4,-5.073e-4 -0.0079,-0.016827 -0.01172,-0.023437 -0.0076,-0.013221 -0.01362,-0.022891 -0.01953,-0.029298 -0.01182,-0.012809 -0.02063,-0.01898 -0.0293,-0.025389 -0.01734,-0.012816 -0.03471,-0.021841 -0.05469,-0.033204 -0.03996,-0.022726 -0.09124,-0.048669 -0.1543,-0.08008 C 8.2208838,6.8121744 8.0508468,6.7292795 7.8665338,6.6347557 7.4979078,6.4457081 7.069537,6.1996935 6.8508889,5.9843523 6.5918092,5.7289596 6.4686318,5.6059452 6.3528322,5.5077804 6.2902397,5.4547614 6.2254746,5.4052796 6.1575159,5.35934 6.1136517,5.329439 6.0645092,5.297408 6.0071223,5.2597286 5.7117318,5.0676784 5.3082321,4.9898227 4.9699925,4.9511288 4.6818887,4.9181704 4.5123612,4.9229818 4.4309194,4.9237845 4.3404918,4.7827194 4.2599667,4.4479719 4.2336499,4.1034558 4.2058851,3.7399857 4.2144871,3.3809701 4.2219308,3.2675019 Z m -0.2734429,0.417977 c -0.00466,0.1752488 -0.013714,0.3646884 0.00781,0.6464971 0.029072,0.3805762 0.077167,0.7735174 0.2636771,1.0097855 l 0.041017,0.050782 h 0.06836 0.00195 c 0.00515,-1.393e-4 0.2761722,-0.0053 0.5957148,0.031251 0.3195427,0.036555 0.6955539,0.1184741 0.9218932,0.2656302 0.057403,0.03769 0.1035026,0.069688 0.1445341,0.097658 h 0.00195 c 0.06004,0.040587 0.1165791,0.084021 0.1718783,0.1308619 0.1023446,0.086759 0.2248746,0.2090361 0.4843846,0.4648529 0.2666609,0.2626278 0.7042806,0.5045426 1.0800996,0.6972794 0.134003,0.068722 0.237831,0.1197967 0.343757,0.1718784 C 7.3474908,7.2249414 6.5687336,7.2039653 5.8664853,6.8867137 l -0.00586,-0.00195 C 4.9855668,6.4433602 3.9426557,6.4858912 3.1066746,6.9980441 l -0.099611,0.062501 0.048829,0.1054707 c 0.3101234,0.670798 0.9770281,1.081158 1.709018,1.113304 -0.086459,1.197785 0.535954,2.5488422 2.0273837,3.2637352 0.029876,0.01546 0.059933,0.02846 0.089846,0.04297 0.2908293,0.19796 1.0369245,0.484674 2.0605875,0.472666 1.023662,-0.01201 2.3112202,-0.338694 3.6172592,-1.402371 l 0.02539,-0.01953 0.01563,-0.03516 0.002,-0.0039 c 1.075337,-0.9041202 1.676448,-2.1762122 1.779279,-3.525466 0.269326,1.3110428 0.224037,2.6697948 -0.337897,3.900468 -0.800254,1.715941 -2.734714,3.482882 -5.7872232,3.396551 C 4.9642752,14.276073 2.0615877,11.82891 1.5207049,8.6328418 l -0.00195,-0.0059 c -3.169e-4,-0.0015 3.115e-4,-0.0044 0,-0.0059 -0.053701,-0.25307 -0.027641,-0.666456 0.019528,-1.0097847 0.023721,-0.17266 0.052217,-0.3299925 0.07422,-0.443368 0.022003,-0.1133756 0.040876,-0.1992098 0.03711,-0.1835974 l 0.00195,-0.00195 v -0.00195 C 1.8214122,6.2188548 2.139307,5.4989328 2.5890862,4.8612832 l -0.2343796,-0.07422 h 0.2597708 l -0.025391,0.07422 C 2.7858845,4.5822386 3.0067477,4.3204053 3.2473023,4.0780647 3.4557539,3.8647971 3.6824619,3.6694662 3.92505,3.496022 L 3.92896,3.494072 C 3.939372,3.487102 3.951535,3.483118 3.962164,3.476494 Z"
     id="path1077" />
</svg>
