<?xml version="1.0" encoding="UTF-8" standalone="no"?>
<!-- Created with Inkscape (http://www.inkscape.org/) -->

<svg
   width="64"
   height="64"
   viewBox="0 0 16.933333 16.933334"
   version="1.1"
   id="svg5"
   inkscape:version="1.1.2 (0a00cf5339, 2022-02-04, custom)"
   sodipodi:docname="org.gnome.Extensions.svg"
   xmlns:inkscape="http://www.inkscape.org/namespaces/inkscape"
   xmlns:sodipodi="http://sodipodi.sourceforge.net/DTD/sodipodi-0.dtd"
   xmlns="http://www.w3.org/2000/svg"
   xmlns:svg="http://www.w3.org/2000/svg">
  <sodipodi:namedview
     id="namedview7"
     pagecolor="#ffffff"
     bordercolor="#666666"
     borderopacity="1.0"
     inkscape:pageshadow="2"
     inkscape:pageopacity="0.0"
     inkscape:pagecheckerboard="0"
     inkscape:document-units="px"
     showgrid="false"
     units="px"
     height="64px"
     showguides="false"
     inkscape:zoom="8.905126"
     inkscape:cx="16.058167"
     inkscape:cy="34.586821"
     inkscape:window-width="1851"
     inkscape:window-height="1009"
     inkscape:window-x="69"
     inkscape:window-y="31"
     inkscape:window-maximized="1"
     inkscape:current-layer="svg5" />
  <defs
     id="defs2" />
  <path
     id="rect1063"
     style="opacity:1;fill:#75c253;fill-opacity:1;stroke-width:2;stroke-linejoin:round"
     d="M 28 5.5 C 23.857864 5.5 20.5 8.8578642 20.5 13 C 20.5013 14.220156 20.800347 15.421561 21.371094 16.5 L 11 16.5 C 9.061 16.5 7.5 18.061 7.5 20 L 7.5 29.931641 C 8.3000901 29.647791 9.1457678 29.50091 10 29.5 C 14.142135 29.5 17.5 32.857866 17.5 37 C 17.5 41.142142 14.142135 44.5 10 44.5 C 9.1457678 44.499063 8.3000901 44.352183 7.5 44.068359 L 7.5 54 C 7.5 55.939003 9.061 57.5 11 57.5 L 21.371094 57.5 C 20.800347 56.421561 20.5013 55.220156 20.5 54 C 20.5 49.857861 23.857864 46.5 28 46.5 C 32.142136 46.5 35.5 49.857861 35.5 54 C 35.498661 55.220156 35.199651 56.421561 34.628906 57.5 L 45 57.5 C 46.939 57.5 48.5 55.939003 48.5 54 L 48.5 43.628906 C 49.578439 44.199653 50.779844 44.498662 52 44.5 C 56.142135 44.5 59.5 41.142142 59.5 37 C 59.5 32.857867 56.142135 29.5 52 29.5 C 50.779844 29.5013 49.578439 29.800348 48.5 30.371094 L 48.5 20 C 48.5 18.061 46.939 16.5 45 16.5 L 34.628906 16.5 C 35.199652 15.421561 35.498661 14.220156 35.5 13 C 35.5 8.8578642 32.142136 5.5 28 5.5 z "
     transform="scale(0.26458334)" />
  <path
     id="rect890"
     style="opacity:0.5;fill:#036600;fill-opacity:1;stroke-width:0.999999;stroke-linejoin:round;stroke-opacity:0.501961"
     d="M 28 5 C 23.581722 5.0000004 20.000001 8.5817216 20 13 C 20.00316 14.028877 20.20476 15.047485 20.59375 16 L 11 16 C 8.7840003 16 7 17.784 7 20 L 7 30.677734 C 7.3237241 30.523877 7.6584981 30.39704 8 30.294922 C 8.6473662 30.101342 9.3205498 30.000465 10 30 C 13.865993 30 17 33.134006 17 37 C 16.999999 40.865994 13.865993 44 10 44 C 9.3205498 43.999531 8.6473662 43.898666 8 43.705078 C 7.658497 43.602955 7.3237248 43.476115 7 43.322266 L 7 44.40625 L 7 54 C 7 56.216001 8.7840003 58 11 58 L 17.523438 58 L 22.257812 58 C 22.037213 57.683234 21.843191 57.348756 21.677734 57 C 21.232214 56.062609 21.000715 55.037881 21 54 C 21 50.134004 24.134007 47 28 47 C 31.865992 47 35 50.134004 35 54 C 34.999286 55.037881 34.767785 56.062609 34.322266 57 C 34.156798 57.348775 33.962795 57.683234 33.742188 58 L 38.837891 58 L 45 58 C 47.215997 58 49 56.216001 49 54 L 49 44.40625 C 49.952513 44.795239 50.971122 44.99684 52 45 C 56.418279 45 60 41.418282 60 37 C 60 32.581723 56.418275 29 52 29 C 50.971122 29.00316 49.952513 29.20476 49 29.59375 L 49 20 C 49 17.784 47.215997 16 45 16 L 35.40625 16 C 35.795241 15.047485 35.99684 14.028877 36 13 C 36 8.581722 32.418278 5.0000004 28 5 z M 28 6 C 31.865993 6 35 9.1340066 35 13 C 34.999285 14.037878 34.767785 15.062609 34.322266 16 C 34.156809 16.348756 33.962787 16.683231 33.742188 17 L 45 17 C 46.662002 17 48 18.337999 48 20 L 48 31.257812 C 48.316762 31.037213 48.65124 30.843191 49 30.677734 C 49.937391 30.232214 50.962123 30.000715 52 30 C 55.865992 29.999999 59 33.134007 59 37 C 59 40.865998 55.865996 44 52 44 C 50.962123 43.999282 49.937391 43.767789 49 43.322266 C 48.651225 43.156798 48.316766 42.962791 48 42.742188 L 48 54 C 48 55.662002 46.662002 57 45 57 L 38.837891 57 L 35.40625 57 C 35.795243 56.047483 35.99684 55.028878 36 54 C 36 49.581721 32.418279 46 28 46 C 23.581722 46 20.000001 49.581721 20 54 C 20.00316 55.028878 20.20476 56.047483 20.59375 57 L 17.523438 57 L 11 57 C 9.338 57 8 55.662002 8 54 L 8 44.738281 C 8.6515119 44.908662 9.3237658 44.997921 10 45 C 14.418278 45 18 41.418282 18 37 C 18 32.581723 14.418278 29 10 29 C 9.3237669 29.002066 8.6515119 29.091338 8 29.261719 L 8 20 C 8 18.337999 9.338 17 11 17 L 22.257812 17 C 22.037212 16.683231 21.843191 16.348757 21.677734 16 C 21.232214 15.062609 21.000715 14.037878 21 13 C 21 9.1340066 24.134007 6 28 6 z "
     transform="scale(0.26458334)" />
</svg>
