<?xml version="1.0" encoding="UTF-8" standalone="no"?>
<!-- Created with Inkscape (http://www.inkscape.org/) -->

<svg
   width="64"
   height="64"
   viewBox="0 0 16.933333 16.933334"
   version="1.1"
   id="svg5"
   inkscape:version="1.1.2 (0a00cf5339, 2022-02-04, custom)"
   sodipodi:docname="gnome-boxes.svg"
   xmlns:inkscape="http://www.inkscape.org/namespaces/inkscape"
   xmlns:sodipodi="http://sodipodi.sourceforge.net/DTD/sodipodi-0.dtd"
   xmlns="http://www.w3.org/2000/svg"
   xmlns:svg="http://www.w3.org/2000/svg">
  <sodipodi:namedview
     id="namedview7"
     pagecolor="#ffffff"
     bordercolor="#666666"
     borderopacity="1.0"
     inkscape:pageshadow="2"
     inkscape:pageopacity="0.0"
     inkscape:pagecheckerboard="0"
     inkscape:document-units="px"
     showgrid="false"
     units="px"
     height="64px"
     showguides="false"
     inkscape:zoom="6.578125"
     inkscape:cx="8.7410926"
     inkscape:cy="45.909739"
     inkscape:window-width="1920"
     inkscape:window-height="1019"
     inkscape:window-x="0"
     inkscape:window-y="31"
     inkscape:window-maximized="1"
     inkscape:current-layer="svg5" />
  <defs
     id="defs2" />
  <path
     id="rect890"
     style="opacity:0.6;fill:#1a1a1a;fill-opacity:1;stroke-width:0.264583;stroke-linejoin:round;stroke-opacity:0.501961"
     d="m 2.38125,1.3229167 c -0.5863167,0 -1.0583333,0.4720166 -1.0583333,1.0583333 v 12.170833 c 0,0.586317 0.4720166,1.058334 1.0583333,1.058334 h 12.170834 c 0.586317,0 1.058333,-0.472017 1.058333,-1.058334 V 2.38125 c 0,-0.5863167 -0.472016,-1.0583333 -1.058333,-1.0583333 z"
     sodipodi:nodetypes="sssssssss" />
  <path
     id="rect1201"
     style="fill:#4d4d4d;fill-opacity:1;stroke-width:0.264583;stroke-linejoin:round;stroke-opacity:0.501961"
     d="m 2.38125,1.5875 c -0.4397375,0 -0.79375,0.3540123 -0.79375,0.79375 v 12.170833 c 0,0.439738 0.3540125,0.79375 0.79375,0.79375 h 12.170834 c 0.439738,0 0.79375,-0.354012 0.79375,-0.79375 V 2.38125 c 0,-0.4397377 -0.354012,-0.79375 -0.79375,-0.79375 z"
     sodipodi:nodetypes="sssssssss" />
  <path
     id="rect1356"
     style="fill:#c1c1c1;fill-opacity:1;stroke-width:0.306387;stroke-linecap:round;stroke-linejoin:round"
     d="M 4.2333334,4.2333334 V 12.7 H 12.7 V 4.2333334 Z M 5.6658039,5.2916667 H 11.267529 L 9.9446127,6.6145834 H 9.7895833 7.14375 6.9887206 Z M 5.2916667,5.6658039 6.6145833,6.9887206 V 7.14375 9.7895833 9.9404784 L 5.2916667,11.263395 Z m 6.3499993,0 V 11.263395 L 10.31875,9.9404784 V 9.7895833 7.14375 6.9887206 Z M 7.14375,7.14375 H 9.7895833 V 9.7895833 H 7.14375 Z m -0.1591633,3.175 H 7.14375 9.7895833 9.9487466 l 1.3229164,1.322917 H 5.6616701 Z" />
  <path
     id="path1191"
     style="fill:#ffffff;stroke-width:0.367665;stroke-linecap:round;stroke-linejoin:round"
     d="M 4.7625,3.4395834 A 1.3229166,1.3229166 0 0 0 3.4395834,4.7625 1.3229166,1.3229166 0 0 0 4.7625,6.0854167 1.3229166,1.3229166 0 0 0 6.0854167,4.7625 1.3229166,1.3229166 0 0 0 4.7625,3.4395834 Z m 7.408333,0 A 1.3229166,1.3229166 0 0 0 10.847916,4.7625 1.3229166,1.3229166 0 0 0 12.170833,6.0854167 1.3229166,1.3229166 0 0 0 13.49375,4.7625 1.3229166,1.3229166 0 0 0 12.170833,3.4395834 Z M 6.8791667,6.0854167 a 0.79374999,0.79374999 0 0 0 -0.79375,0.79375 0.79374999,0.79374999 0 0 0 0.79375,0.79375 0.79374999,0.79374999 0 0 0 0.79375,-0.79375 0.79374999,0.79374999 0 0 0 -0.79375,-0.79375 z m 3.1750003,0 a 0.79374999,0.79374999 0 0 0 -0.7937504,0.79375 0.79374999,0.79374999 0 0 0 0.7937504,0.79375 0.79374999,0.79374999 0 0 0 0.793749,-0.79375 0.79374999,0.79374999 0 0 0 -0.793749,-0.79375 z m -3.1750003,3.175 a 0.79374999,0.79374999 0 0 0 -0.79375,0.7937503 0.79374999,0.79374999 0 0 0 0.79375,0.79375 0.79374999,0.79374999 0 0 0 0.79375,-0.79375 0.79374999,0.79374999 0 0 0 -0.79375,-0.7937503 z m 3.1750003,0 a 0.79374999,0.79374999 0 0 0 -0.7937504,0.7937503 0.79374999,0.79374999 0 0 0 0.7937504,0.79375 0.79374999,0.79374999 0 0 0 0.793749,-0.79375 0.79374999,0.79374999 0 0 0 -0.793749,-0.7937503 z M 4.7625,10.847917 A 1.3229166,1.3229166 0 0 0 3.4395834,12.170833 1.3229166,1.3229166 0 0 0 4.7625,13.49375 1.3229166,1.3229166 0 0 0 6.0854167,12.170833 1.3229166,1.3229166 0 0 0 4.7625,10.847917 Z m 7.408333,0 a 1.3229166,1.3229166 0 0 0 -1.322917,1.322916 1.3229166,1.3229166 0 0 0 1.322917,1.322917 1.3229166,1.3229166 0 0 0 1.322917,-1.322917 1.3229166,1.3229166 0 0 0 -1.322917,-1.322916 z" />
</svg>
