<?xml version="1.0" encoding="UTF-8" standalone="no"?>
<!-- Created with Inkscape (http://www.inkscape.org/) -->

<svg
   width="64"
   height="64"
   viewBox="0 0 16.933333 16.933334"
   version="1.1"
   id="svg5"
   inkscape:version="1.1.2 (0a00cf5339, 2022-02-04, custom)"
   sodipodi:docname="gnome-extensions.svg"
   xmlns:inkscape="http://www.inkscape.org/namespaces/inkscape"
   xmlns:sodipodi="http://sodipodi.sourceforge.net/DTD/sodipodi-0.dtd"
   xmlns="http://www.w3.org/2000/svg"
   xmlns:svg="http://www.w3.org/2000/svg">
  <sodipodi:namedview
     id="namedview7"
     pagecolor="#ffffff"
     bordercolor="#666666"
     borderopacity="1.0"
     inkscape:pageshadow="2"
     inkscape:pageopacity="0.0"
     inkscape:pagecheckerboard="0"
     inkscape:document-units="px"
     showgrid="false"
     units="px"
     height="64px"
     showguides="false"
     inkscape:zoom="12.59375"
     inkscape:cx="32"
     inkscape:cy="32"
     inkscape:window-width="1851"
     inkscape:window-height="1009"
     inkscape:window-x="69"
     inkscape:window-y="31"
     inkscape:window-maximized="1"
     inkscape:current-layer="svg5" />
  <defs
     id="defs2" />
  <path
     id="rect1063"
     style="opacity:1;fill:#75c253;fill-opacity:1;stroke-width:0.529167;stroke-linejoin:round"
     d="m 7.4083335,1.4552084 c -1.0959402,0 -1.9843751,0.888435 -1.9843751,1.9843751 3.44e-4,0.322833 0.079467,0.6407047 0.230477,0.9260417 H 2.9104167 c -0.5130271,0 -0.9260417,0.4130146 -0.9260417,0.9260417 v 2.6277467 c 0.2116905,-0.075102 0.4354428,-0.1139642 0.6614584,-0.114205 1.0959399,0 1.984375,0.8884351 1.984375,1.9843747 0,1.0959417 -0.8884351,1.9843757 -1.984375,1.9843757 -0.2260156,-2.48e-4 -0.4497679,-0.03911 -0.6614584,-0.114205 v 2.627747 c 0,0.513028 0.4130146,0.926041 0.9260417,0.926041 h 8.9958343 c 0.513027,0 0.926042,-0.413013 0.926042,-0.926041 v -2.744019 c 0.285337,0.15101 0.603208,0.230123 0.926041,0.230477 1.09594,0 1.984375,-0.888434 1.984375,-1.9843757 0,-1.0959393 -0.888435,-1.9843747 -1.984375,-1.9843747 -0.322833,3.439e-4 -0.640704,0.079467 -0.926041,0.2304769 V 5.2916669 c 0,-0.5130271 -0.413015,-0.9260417 -0.926042,-0.9260417 H 9.1622315 c 0.1510097,-0.285337 0.2301227,-0.6032087 0.230477,-0.9260417 0,-1.0959401 -0.8884349,-1.9843751 -1.984375,-1.9843751 z"
     sodipodi:nodetypes="sccssccsccssssccsccssccs" />
  <path
     id="rect890"
     style="opacity:0.5;fill:#036600;fill-opacity:1;stroke-width:0.264583;stroke-linejoin:round;stroke-opacity:0.501961"
     d="m 7.4083335,1.3229167 c -1.1690027,1e-7 -2.1166666,0.947664 -2.1166668,2.1166668 8.361e-4,0.2722237 0.054176,0.5417305 0.1570964,0.7937501 H 2.9104167 c -0.5863166,0 -1.0583333,0.4720166 -1.0583333,1.0583333 v 2.8251505 c 0.085652,-0.040708 0.1742276,-0.074267 0.2645833,-0.1012857 0.1712823,-0.051218 0.3493955,-0.077908 0.5291667,-0.078031 1.0228773,0 1.8520834,0.829206 1.8520834,1.8520836 -3e-7,1.0228777 -0.8292061,1.8520837 -1.8520834,1.8520837 -0.1797712,-1.24e-4 -0.3578844,-0.02681 -0.5291667,-0.07803 -0.090356,-0.02702 -0.1789311,-0.06058 -0.2645833,-0.101286 v 0.286805 2.538346 c 0,0.586317 0.4720167,1.058333 1.0583333,1.058333 h 8.9958343 c 0.586316,0 1.058333,-0.472016 1.058333,-1.058333 v -2.538346 c 0.252019,0.10292 0.521526,0.15626 0.79375,0.157096 1.169003,0 2.116667,-0.947664 2.116667,-2.1166677 0,-1.1690025 -0.947665,-2.1166665 -2.116667,-2.1166664 -0.272224,8.361e-4 -0.541731,0.054176 -0.79375,0.1570964 V 5.2916669 c 0,-0.5863167 -0.472017,-1.0583333 -1.058333,-1.0583333 H 9.3679038 C 9.4708243,3.981314 9.5241642,3.7118072 9.5250002,3.4395835 9.5250001,2.2705808 8.5773362,1.3229168 7.4083335,1.3229167 Z m 0,0.2645835 c 1.0228774,0 1.8520833,0.8292059 1.8520833,1.8520833 -1.892e-4,0.2746051 -0.06144,0.545732 -0.1793171,0.7937501 -0.043777,0.092275 -0.095112,0.1807715 -0.153479,0.2645833 h 2.9786303 c 0.439738,0 0.79375,0.3540122 0.79375,0.79375 v 2.9786295 c 0.08381,-0.058367 0.172307,-0.109702 0.264583,-0.153479 0.248018,-0.1178772 0.519145,-0.1791278 0.79375,-0.1793171 1.022877,-3e-7 1.852084,0.8292057 1.852084,1.852083 0,1.0228787 -0.829206,1.8520847 -1.852084,1.8520847 -0.274605,-1.9e-4 -0.545732,-0.06144 -0.79375,-0.179318 -0.09228,-0.04378 -0.180772,-0.09511 -0.264583,-0.153478 v 2.978629 c 0,0.439738 -0.354012,0.79375 -0.79375,0.79375 H 2.9104167 c -0.4397375,0 -0.79375,-0.354012 -0.79375,-0.79375 v -2.450497 c 0.1723792,0.04508 0.3502464,0.0687 0.5291667,0.06925 1.1690027,0 2.1166667,-0.947664 2.1166667,-2.1166677 0,-1.1690024 -0.947664,-2.1166664 -2.1166667,-2.1166664 -0.17892,5.466e-4 -0.3567875,0.024163 -0.5291667,0.069243 v -2.450496 c 0,-0.4397378 0.3540125,-0.79375 0.79375,-0.79375 H 5.8890462 C 5.8306789,4.4141051 5.7793442,4.3256089 5.7355672,4.2333336 5.61769,3.9853155 5.5564394,3.7141886 5.5562501,3.4395835 c 1e-7,-1.0228774 0.8292061,-1.8520833 1.8520834,-1.8520833 z"
     sodipodi:nodetypes="sccsscscscsccssssccsccssccsscccsscccscccssssccsccsscccs" />
</svg>
