<?xml version="1.0" encoding="UTF-8" standalone="no"?>
<!-- Created with Inkscape (http://www.inkscape.org/) -->

<svg
   width="64"
   height="64"
   viewBox="0 0 16.933333 16.933334"
   version="1.1"
   id="svg5"
   inkscape:version="1.1.2 (0a00cf5339, 2022-02-04, custom)"
   sodipodi:docname="gnome-todo.svg"
   xmlns:inkscape="http://www.inkscape.org/namespaces/inkscape"
   xmlns:sodipodi="http://sodipodi.sourceforge.net/DTD/sodipodi-0.dtd"
   xmlns="http://www.w3.org/2000/svg"
   xmlns:svg="http://www.w3.org/2000/svg">
  <sodipodi:namedview
     id="namedview7"
     pagecolor="#ffffff"
     bordercolor="#666666"
     borderopacity="1.0"
     inkscape:pageshadow="2"
     inkscape:pageopacity="0.0"
     inkscape:pagecheckerboard="0"
     inkscape:document-units="px"
     showgrid="false"
     units="px"
     height="64px"
     showguides="false"
     inkscape:zoom="18.185903"
     inkscape:cx="31.975317"
     inkscape:cy="38.46386"
     inkscape:window-width="1920"
     inkscape:window-height="1019"
     inkscape:window-x="0"
     inkscape:window-y="31"
     inkscape:window-maximized="1"
     inkscape:current-layer="svg5"
     inkscape:lockguides="true" />
  <defs
     id="defs2" />
  <path
     id="rect927"
     style="opacity:1;fill:#805b20;stroke-width:0.264583;stroke-linecap:round;stroke-linejoin:round"
     d="m 4.2333334,2.38125 h 8.4666676 c 0.732896,0 1.322917,0.5900208 1.322917,1.3229167 V 14.552084 c 0,0.732896 -0.590021,1.322917 -1.322917,1.322917 H 4.2333334 c -0.7328959,0 -1.3229167,-0.590021 -1.3229167,-1.322917 V 3.7041667 c 0,-0.7328959 0.5900208,-1.3229167 1.3229167,-1.3229167 z"
     sodipodi:nodetypes="sssssssss" />
  <path
     id="rect1211"
     style="opacity:1;fill:#b89961;fill-opacity:1;stroke-width:0.264583;stroke-linecap:round;stroke-linejoin:round"
     d="m 4.2333335,2.6458334 h 8.4666675 c 0.586316,0 1.058333,0.4720167 1.058333,1.0583334 V 14.552084 c 0,0.586316 -0.472017,1.058333 -1.058333,1.058333 H 4.2333335 c -0.5863167,0 -1.0583334,-0.472017 -1.0583334,-1.058333 V 3.7041668 c 0,-0.5863167 0.4720167,-1.0583334 1.0583334,-1.0583334 z"
     sodipodi:nodetypes="sssssssss" />
  <path
     id="rect2995"
     style="opacity:0.35;fill:#4f6596;stroke-width:0.264583;stroke-linecap:round;stroke-linejoin:round"
     d="M 4.2333333,3.4395834 H 12.7 c 0.146579,0 0.264583,0.1180041 0.264583,0.2645833 V 14.552085 c 0,0.146579 -0.118004,0.264584 -0.264583,0.264584 H 4.2333333 c -0.1465791,0 -0.2645833,-0.118005 -0.2645833,-0.264584 V 3.7041667 c 0,-0.1465792 0.1180042,-0.2645833 0.2645833,-0.2645833 z"
     sodipodi:nodetypes="sssssssss" />
  <path
     id="rect2997"
     style="opacity:1;fill:#fafafa;stroke-width:0.264583;stroke-linecap:round;stroke-linejoin:round"
     d="M 4.2333336,3.7041667 H 12.700001 V 14.552086 H 4.2333336 Z"
     sodipodi:nodetypes="ccccc" />
  <path
     id="rect1388"
     style="opacity:1;fill:#7c7c7c;fill-opacity:1;stroke-width:0.264583;stroke-linecap:round;stroke-linejoin:round"
     d="M 8.4666669,0.52916667 A 1.3229167,1.3229167 0 0 0 7.1437502,1.8520834 H 5.5562501 c -0.2931583,0 -0.5291666,0.2360083 -0.5291666,0.5291667 v 1.0583333 c 0,0.2931584 0.2360083,0.5291667 0.5291666,0.5291667 h 5.8208339 c 0.293158,0 0.529166,-0.2360083 0.529166,-0.5291667 V 2.3812501 c 0,-0.2931584 -0.236008,-0.5291667 -0.529166,-0.5291667 H 9.7895836 A 1.3229167,1.3229167 0 0 0 8.4666669,0.52916667 Z m 0,0.79375003 A 0.52916671,0.52916671 0 0 1 8.9958336,1.8520834 0.52916671,0.52916671 0 0 1 8.4666669,2.3812501 0.52916671,0.52916671 0 0 1 7.9375002,1.8520834 0.52916671,0.52916671 0 0 1 8.4666669,1.3229167 Z" />
  <path
     id="path2205"
     style="opacity:1;fill:#a4a4a4;fill-opacity:1;stroke-width:0.264583;stroke-linecap:round;stroke-linejoin:round"
     d="M 8.4666669,0.79375001 A 1.0583334,1.0583334 0 0 0 7.4083335,1.8520834 V 2.1166667 H 5.5562501 c -0.1465791,0 -0.2645833,0.1180042 -0.2645833,0.2645834 v 1.0583333 c 0,0.1465792 0.1180042,0.2645834 0.2645833,0.2645834 h 5.8208339 c 0.146579,0 0.264583,-0.1180042 0.264583,-0.2645834 V 2.3812501 c 0,-0.1465792 -0.118004,-0.2645834 -0.264583,-0.2645834 H 9.5250002 V 1.8520834 A 1.0583334,1.0583334 0 0 0 8.4666669,0.79375001 Z m 0,0.26458339 a 0.79374999,0.79374999 0 0 1 0.79375,0.79375 0.79374999,0.79374999 0 0 1 -0.79375,0.79375 0.79374999,0.79374999 0 0 1 -0.79375,-0.79375 0.79374999,0.79374999 0 0 1 0.79375,-0.79375 z" />
  <path
     id="rect3440"
     style="opacity:1;fill:#4d4d4d;fill-opacity:1;stroke-width:0.264583;stroke-linecap:round;stroke-linejoin:round"
     d="M 7.3365034,4.7625001 5.9944663,6.1040202 5.1366374,5.2461915 4.7625001,5.620329 5.620329,6.4781577 5.9944663,6.8528119 6.3686035,6.4781577 7.7106406,5.1366374 Z m 0,3.1750001 L 5.9944663,9.2790203 5.1366374,8.4211916 4.7625001,8.7953291 5.620329,9.6531578 5.9944663,10.027812 6.3686035,9.6531578 7.7106406,8.3116374 Z m 0,3.1750008 -1.3420371,1.34152 -0.8578289,-0.857828 -0.3741373,0.374137 0.8578289,0.857829 0.3741373,0.374654 0.3741372,-0.374654 1.3420371,-1.34152 z" />
  <path
     id="rect3856"
     style="opacity:1;fill:#bdbdbd;fill-opacity:1;stroke-width:0.264583;stroke-linecap:round;stroke-linejoin:round"
     d="M 8.4666669,5.5562501 V 6.0854168 H 11.641667 V 5.5562501 Z m 0,3.1750001 V 9.2604169 H 11.641667 V 8.7312502 Z m 0,3.1750008 v 0.529167 h 3.1750001 v -0.529167 z" />
  <rect
     style="fill:#e6e6e6;stroke-width:0.264583;stroke-linecap:round;stroke-linejoin:round"
     id="rect907"
     width="8.4666672"
     height="0.79374999"
     x="4.2333336"
     y="13.758336" />
</svg>
