<?xml version="1.0" encoding="UTF-8" standalone="no"?>
<!-- Created with Inkscape (http://www.inkscape.org/) -->

<svg
   width="64"
   height="64"
   viewBox="0 0 16.933333 16.933334"
   version="1.1"
   id="svg5"
   inkscape:version="1.1.2 (0a00cf5339, 2022-02-04, custom)"
   sodipodi:docname="google-chrome-beta.svg"
   xmlns:inkscape="http://www.inkscape.org/namespaces/inkscape"
   xmlns:sodipodi="http://sodipodi.sourceforge.net/DTD/sodipodi-0.dtd"
   xmlns="http://www.w3.org/2000/svg"
   xmlns:svg="http://www.w3.org/2000/svg">
  <sodipodi:namedview
     id="namedview7"
     pagecolor="#ffffff"
     bordercolor="#666666"
     borderopacity="1.0"
     inkscape:pageshadow="2"
     inkscape:pageopacity="0.0"
     inkscape:pagecheckerboard="0"
     inkscape:document-units="px"
     showgrid="false"
     units="px"
     height="64px"
     inkscape:zoom="13.15625"
     inkscape:cx="31.961995"
     inkscape:cy="32"
     inkscape:window-width="1920"
     inkscape:window-height="1019"
     inkscape:window-x="0"
     inkscape:window-y="31"
     inkscape:window-maximized="1"
     inkscape:current-layer="svg5" />
  <defs
     id="defs2" />
  <path
     id="path7088"
     style="opacity:0.3;fill:#000000;fill-opacity:1;stroke-width:2;stroke-linejoin:round"
     d="M 32,4 C 16.536027,4 4,16.536027 4,32 4,47.463973 16.536027,60 32,60 47.463973,60 60,47.463973 60,32 60,16.536027 47.463973,4 32,4 Z"
     transform="scale(0.26458334)"
     sodipodi:nodetypes="sssss" />
  <circle
     style="opacity:1;fill:#db3328;fill-opacity:1;stroke-width:0.519546;stroke-linecap:round;stroke-linejoin:round"
     id="path1252"
     cx="8.4666672"
     cy="8.4666672"
     r="7.1437502" />
  <path
     id="rect2005"
     style="opacity:1;fill:#32a651;fill-opacity:1;stroke-width:0.999999;stroke-linecap:round;stroke-linejoin:round"
     d="M 8.7890625 18.226562 A 27 27 0 0 0 5 32 A 27 27 0 0 0 32 59 A 27 27 0 0 0 40.429688 57.636719 L 42.392578 38 L 32 32 L 20.75 38.5 L 8.7890625 18.226562 z "
     transform="scale(0.26458334)" />
  <path
     id="rect1321"
     style="opacity:1;fill:#fbbf12;stroke-width:0.999999;stroke-linecap:round;stroke-linejoin:round"
     d="M 32 19 L 32 32 L 43.5 38 L 30.732422 58.953125 A 27 27 0 0 0 32 59 A 27 27 0 0 0 59 32 A 27 27 0 0 0 55.662109 19 L 32 19 z "
     transform="scale(0.26458334)" />
  <circle
     style="opacity:1;fill:#ffffff;fill-opacity:1;stroke-width:0.264583;stroke-linecap:round;stroke-linejoin:round"
     id="path1173"
     cx="8.4666672"
     cy="8.4666672"
     r="3.4395833" />
  <circle
     style="opacity:1;fill:#4688f4;fill-opacity:1;stroke-width:0.293981;stroke-linecap:round;stroke-linejoin:round"
     id="path2817"
     cx="8.4666662"
     cy="8.4666662"
     r="2.6458333" />
  <path
     id="path897"
     style="opacity:1;fill:#414342;fill-opacity:1;stroke-width:0.999999;stroke-linecap:round;stroke-linejoin:round"
     d="M 5.4863281 37 A 27 27 0 0 0 32 59 A 27 27 0 0 0 58.513672 37 L 5.4863281 37 z "
     transform="scale(0.26458334)" />
  <path
     id="rect7125"
     style="fill:#ffffff;fill-opacity:1;stroke-width:0.365642;stroke-linejoin:round"
     d="m 5.0270834,10.583333 v 2.583961 h 0.9778544 c 0.1371536,0 0.2652393,-0.03096 0.3831432,-0.09352 0.1203099,-0.06256 0.2153202,-0.14926 0.2851001,-0.259943 0.072188,-0.113087 0.107718,-0.239069 0.107718,-0.37863 0,-0.141965 -0.040743,-0.266305 -0.1225537,-0.37218 -0.081811,-0.105878 -0.1874161,-0.180513 -0.3173511,-0.223826 v -0.0142 c 0.1082791,-0.05054 0.1935127,-0.122889 0.2560738,-0.216724 0.064967,-0.09384 0.097398,-0.203195 0.097398,-0.328317 0,-0.132343 -0.033248,-0.25147 -0.1006221,-0.357343 -0.067374,-0.105869 -0.1592828,-0.188819 -0.2747806,-0.248975 -0.1130922,-0.06015 -0.2345026,-0.0903 -0.3644376,-0.0903 z m 4.2984305,0.223823 v 0.519888 H 9.0042933 v 0.278005 h 0.3212206 v 1.079123 c 0,0.08663 0.012056,0.159798 0.036114,0.219954 0.024058,0.06015 0.060242,0.112957 0.1083686,0.158674 0.043308,0.04091 0.096113,0.07333 0.1586754,0.09739 0.064966,0.02406 0.1350414,0.03611 0.2096325,0.03611 0.057746,0 0.1045314,-0.0038 0.1406158,-0.01092 0.038488,-0.0072 0.076146,-0.01928 0.1122378,-0.03611 v -0.299321 c -0.06497,0.04089 -0.132757,0.06127 -0.2025384,0.06127 -0.086632,0 -0.1523033,-0.0264 -0.1980209,-0.07935 -0.038488,-0.04813 -0.05805,-0.122759 -0.05805,-0.223825 V 11.605031 H 10.080196 V 11.327028 H 9.6325364 v -0.519874 z m -3.9952701,0.06837 h 0.6385725 c 0.084217,0 0.1580364,0.02037 0.220598,0.06127 0.064967,0.04091 0.1140216,0.09436 0.1477093,0.15932 0.036094,0.06255 0.054181,0.125957 0.054181,0.190928 0,0.06739 -0.018087,0.133698 -0.054181,0.198667 -0.036092,0.06255 -0.087432,0.114543 -0.1548054,0.15545 -0.064967,0.04091 -0.1410688,0.06127 -0.2276928,0.06127 H 5.3302438 Z m 2.6168573,0.393463 c -0.1780592,0 -0.3348292,0.0445 -0.4695768,0.13352 -0.1347481,0.08903 -0.2388887,0.208157 -0.3134809,0.357342 -0.072188,0.149185 -0.1083641,0.312803 -0.1083641,0.490863 0,0.185277 0.03846,0.352643 0.1154595,0.501827 0.079403,0.146778 0.1887567,0.262162 0.3283165,0.346378 0.1395607,0.08422 0.2971486,0.126425 0.4728014,0.126425 0.192496,0 0.3561153,-0.04303 0.4908624,-0.129649 0.1371544,-0.08664 0.2456871,-0.204934 0.3250911,-0.354118 L 8.5282665,12.615153 c -0.1275291,0.221369 -0.309237,0.332185 -0.5450446,0.332185 -0.1010609,0 -0.1983534,-0.02412 -0.2921955,-0.07223 -0.091436,-0.04813 -0.1675371,-0.120473 -0.2276929,-0.216729 -0.060159,-0.09626 -0.094054,-0.213915 -0.1012679,-0.353474 h 1.4545262 c 0.00728,-0.02646 0.01092,-0.05745 0.01092,-0.09353 0,-0.182872 -0.036184,-0.34567 -0.1083698,-0.487638 C 8.6493757,11.58176 8.5483342,11.470944 8.4159944,11.39154 8.2836526,11.309724 8.1275282,11.268989 7.947064,11.268989 Z m 3.1541579,0 c -0.153998,0 -0.294316,0.03161 -0.421845,0.09418 -0.125125,0.06255 -0.223878,0.149257 -0.296063,0.259943 l 0.230918,0.172866 c 0.05051,-0.07941 0.119145,-0.14052 0.205761,-0.183831 0.08663,-0.04571 0.181631,-0.06902 0.285099,-0.06902 0.146778,0 0.26819,0.0422 0.364437,0.126425 0.09625,0.08182 0.144484,0.191164 0.144484,0.328316 v 0.112242 c -0.05051,-0.03127 -0.123708,-0.05914 -0.21995,-0.0832 -0.09384,-0.02406 -0.196347,-0.03611 -0.307032,-0.03611 -0.223776,0 -0.409229,0.05573 -0.556008,0.166416 -0.146778,0.108279 -0.219954,0.259837 -0.219954,0.454741 0,0.117897 0.02867,0.223509 0.08642,0.317352 0.05775,0.09144 0.139881,0.163787 0.245755,0.216725 0.105874,0.05293 0.22582,0.07935 0.360568,0.07935 0.13234,0 0.251469,-0.03097 0.357343,-0.09352 0.105875,-0.06255 0.185721,-0.138663 0.238658,-0.227692 h 0.0142 v 0.263169 h 0.2922 v -1.165556 c 0,-0.226184 -0.0717,-0.404144 -0.216084,-0.534078 -0.141965,-0.132347 -0.338659,-0.198672 -0.588905,-0.198672 z m -3.1580282,0.278006 c 0.1251238,0 0.2284447,0.0264 0.3102555,0.07935 0.084219,0.05294 0.1459771,0.117806 0.184477,0.194796 0.038499,0.07701 0.060339,0.153919 0.065147,0.230918 H 7.3801258 c 0.031282,-0.151593 0.096786,-0.273003 0.1954421,-0.364441 0.1010598,-0.09384 0.2232906,-0.140614 0.3676629,-0.140614 z m -2.612987,0.443777 h 0.678564 c 0.091436,0 0.1721036,0.02184 0.2418835,0.06514 0.069779,0.04089 0.124046,0.096 0.1625458,0.165771 0.0385,0.06739 0.057408,0.137445 0.057408,0.209633 0,0.0722 -0.018908,0.143075 -0.057408,0.212857 -0.036094,0.06739 -0.088895,0.123097 -0.1586752,0.166417 -0.067372,0.04331 -0.1449399,0.0645 -0.231563,0.0645 H 5.3302438 Z m 5.8039122,0.24898 c 0.09384,0 0.182821,0.01209 0.267038,0.03611 0.08422,0.02405 0.155109,0.05567 0.212856,0.09418 2e-6,0.105875 -0.0264,0.203165 -0.07935,0.292196 -0.05294,0.08903 -0.123825,0.159916 -0.212858,0.212857 -0.08903,0.05294 -0.185503,0.07935 -0.288969,0.07935 -0.117897,0 -0.215196,-0.03096 -0.292195,-0.09353 -0.07701,-0.06255 -0.115466,-0.144692 -0.115466,-0.245753 0,-0.110682 0.0422,-0.200482 0.126425,-0.270265 0.08663,-0.06978 0.214064,-0.105148 0.382499,-0.105148 z" />
</svg>
