<?xml version="1.0" encoding="UTF-8" standalone="no"?>
<!-- Created with Inkscape (http://www.inkscape.org/) -->

<svg
   width="64"
   height="64"
   viewBox="0 0 16.933333 16.933334"
   version="1.1"
   id="svg5"
   inkscape:version="1.1.2 (0a00cf5339, 2022-02-04, custom)"
   sodipodi:docname="google-chrome.svg"
   xmlns:inkscape="http://www.inkscape.org/namespaces/inkscape"
   xmlns:sodipodi="http://sodipodi.sourceforge.net/DTD/sodipodi-0.dtd"
   xmlns="http://www.w3.org/2000/svg"
   xmlns:svg="http://www.w3.org/2000/svg">
  <sodipodi:namedview
     id="namedview7"
     pagecolor="#ffffff"
     bordercolor="#666666"
     borderopacity="1.0"
     inkscape:pageshadow="2"
     inkscape:pageopacity="0.0"
     inkscape:pagecheckerboard="0"
     inkscape:document-units="px"
     showgrid="false"
     units="px"
     height="64px"
     inkscape:zoom="6.578125"
     inkscape:cx="9.8052257"
     inkscape:cy="39.068884"
     inkscape:window-width="1920"
     inkscape:window-height="1019"
     inkscape:window-x="0"
     inkscape:window-y="31"
     inkscape:window-maximized="1"
     inkscape:current-layer="svg5" />
  <defs
     id="defs2" />
  <path
     id="path7088"
     style="opacity:0.3;fill:#000000;fill-opacity:1;stroke-width:2;stroke-linejoin:round"
     d="M 32,4 C 16.536027,4 4,16.536027 4,32 4,47.463973 16.536027,60 32,60 47.463973,60 60,47.463973 60,32 60,16.536027 47.463973,4 32,4 Z"
     transform="scale(0.26458334)"
     sodipodi:nodetypes="sssss" />
  <circle
     style="opacity:1;fill:#db3328;fill-opacity:1;stroke-width:0.519546;stroke-linecap:round;stroke-linejoin:round"
     id="path1252"
     cx="8.4666672"
     cy="8.4666672"
     r="7.1437502" />
  <path
     id="rect2005"
     style="opacity:1;fill:#32a651;fill-opacity:1;stroke-width:0.999999;stroke-linecap:round;stroke-linejoin:round"
     d="M 8.7890625 18.226562 A 27 27 0 0 0 5 32 A 27 27 0 0 0 32 59 A 27 27 0 0 0 40.429688 57.636719 L 42.392578 38 L 32 32 L 20.75 38.5 L 8.7890625 18.226562 z "
     transform="scale(0.26458334)" />
  <path
     id="rect1321"
     style="opacity:1;fill:#fbbf12;stroke-width:0.999999;stroke-linecap:round;stroke-linejoin:round"
     d="M 32 19 L 32 32 L 43.5 38 L 30.732422 58.953125 A 27 27 0 0 0 32 59 A 27 27 0 0 0 59 32 A 27 27 0 0 0 55.662109 19 L 32 19 z "
     transform="scale(0.26458334)" />
  <circle
     style="opacity:1;fill:#ffffff;fill-opacity:1;stroke-width:0.264583;stroke-linecap:round;stroke-linejoin:round"
     id="path1173"
     cx="8.4666672"
     cy="8.4666672"
     r="3.4395833" />
  <circle
     style="opacity:1;fill:#4688f4;fill-opacity:1;stroke-width:0.293981;stroke-linecap:round;stroke-linejoin:round"
     id="path2817"
     cx="8.4666662"
     cy="8.4666662"
     r="2.6458333" />
</svg>
