<?xml version="1.0" encoding="UTF-8" standalone="no"?>
<svg
   width="64"
   height="64"
   version="1"
   id="svg28"
   sodipodi:docname="kinfocenter.svg"
   inkscape:version="1.1.2 (0a00cf5339, 2022-02-04, custom)"
   xmlns:inkscape="http://www.inkscape.org/namespaces/inkscape"
   xmlns:sodipodi="http://sodipodi.sourceforge.net/DTD/sodipodi-0.dtd"
   xmlns="http://www.w3.org/2000/svg"
   xmlns:svg="http://www.w3.org/2000/svg">
  <defs
     id="defs32" />
  <sodipodi:namedview
     id="namedview30"
     pagecolor="#ffffff"
     bordercolor="#666666"
     borderopacity="1.0"
     inkscape:pageshadow="2"
     inkscape:pageopacity="0.0"
     inkscape:pagecheckerboard="0"
     showgrid="false"
     inkscape:zoom="15.96875"
     inkscape:cx="32"
     inkscape:cy="26.990215"
     inkscape:window-width="1920"
     inkscape:window-height="1026"
     inkscape:window-x="0"
     inkscape:window-y="0"
     inkscape:window-maximized="1"
     inkscape:current-layer="svg28" />
  <path
     id="path1266"
     style="color:#000000;fill:#507344;stroke:none;stroke-linecap:round;-inkscape-stroke:none"
     d="M 9.1542969 4 C 6.3163942 4 4 6.3163942 4 9.1542969 L 4 14.845703 L 7.2597656 17.291016 L 4 18.919922 L 4 54.845703 C 4 57.683606 6.3163942 60 9.1542969 60 L 54.845703 60 C 57.683606 60 60 57.683606 60 54.845703 L 60 9.1542969 C 60 6.3163942 57.683606 4 54.845703 4 L 9.1542969 4 z " />
  <path
     d="M 9.1538,5 C 6.8525998,5 4.9999998,6.8526 4.9999998,9.1538 v 5.1923 L 9.1538,17.4615 4.9999998,19.5384 v 35.308 c 0,2.3012 1.8526,4.153799 4.1538002,4.153799 h 45.692 c 2.3012,0 4.1538,-1.8526 4.1538,-4.1538 V 9.1544 c 0,-2.3012 -1.8526,-4.1538 -4.1538,-4.1538 z"
     style="fill:#679c4f;stroke-width:1.0385"
     id="path992" />
  <path
     id="path6"
     d="M 54 14 L 54 15 L 55 15 L 55 14 L 54 14 z M 55 15 L 55 16 L 56 16 L 56 15 L 55 15 z M 55 16 L 54 16 L 54 17 L 55 17 L 55 16 z M 55 17 L 55 18 L 56 18 L 56 17 L 55 17 z M 55 18 L 54 18 L 54 19 L 55 19 L 55 18 z M 55 19 L 55 20 L 56 20 L 56 19 L 55 19 z M 55 20 L 54 20 L 54 21 L 55 21 L 55 20 z M 55 21 L 55 22 L 56 22 L 56 21 L 55 21 z M 55 22 L 54 22 L 54 23 L 55 23 L 55 22 z M 55 23 L 55 24 L 56 24 L 56 23 L 55 23 z M 55 24 L 54 24 L 54 25 L 55 25 L 55 24 z M 55 25 L 55 26 L 56 26 L 56 25 L 55 25 z M 55 26 L 54 26 L 54 27 L 55 27 L 55 26 z M 55 27 L 55 28 L 56 28 L 56 27 L 55 27 z M 55 28 L 54 28 L 54 29 L 55 29 L 55 28 z M 55 29 L 55 30 L 56 30 L 56 29 L 55 29 z M 54 35 L 54 36 L 55 36 L 55 35 L 54 35 z M 55 36 L 55 37 L 56 37 L 56 36 L 55 36 z M 55 37 L 54 37 L 54 38 L 55 38 L 55 37 z M 55 38 L 55 39 L 56 39 L 56 38 L 55 38 z M 55 39 L 54 39 L 54 40 L 55 40 L 55 39 z M 55 40 L 55 41 L 56 41 L 56 40 L 55 40 z M 55 41 L 54 41 L 54 42 L 55 42 L 55 41 z M 55 42 L 55 43 L 56 43 L 56 42 L 55 42 z M 55 43 L 54 43 L 54 44 L 55 44 L 55 43 z M 55 44 L 55 45 L 56 45 L 56 44 L 55 44 z M 55 45 L 54 45 L 54 46 L 55 46 L 55 45 z M 11 53 L 11 54 L 12 54 L 12 53 L 11 53 z M 12 54 L 12 55 L 13 55 L 13 54 L 12 54 z M 13 54 L 14 54 L 14 53 L 13 53 L 13 54 z M 14 54 L 14 55 L 15 55 L 15 54 L 14 54 z M 15 54 L 16 54 L 16 53 L 15 53 L 15 54 z M 16 54 L 16 55 L 17 55 L 17 54 L 16 54 z M 17 54 L 18 54 L 18 53 L 17 53 L 17 54 z M 18 54 L 18 55 L 19 55 L 19 54 L 18 54 z M 19 54 L 20 54 L 20 53 L 19 53 L 19 54 z M 20 54 L 20 55 L 21 55 L 21 54 L 20 54 z M 21 54 L 22 54 L 22 53 L 21 53 L 21 54 z M 22 54 L 22 55 L 23 55 L 23 54 L 22 54 z M 23 54 L 24 54 L 24 53 L 23 53 L 23 54 z M 24 54 L 24 55 L 25 55 L 25 54 L 24 54 z M 25 54 L 26 54 L 26 53 L 25 53 L 25 54 z M 11 54 L 10 54 L 10 55 L 11 55 L 11 54 z M 33 53 L 33 54 L 34 54 L 34 53 L 33 53 z M 34 54 L 34 55 L 35 55 L 35 54 L 34 54 z M 35 54 L 36 54 L 36 53 L 35 53 L 35 54 z M 36 54 L 36 55 L 37 55 L 37 54 L 36 54 z M 37 54 L 38 54 L 38 53 L 37 53 L 37 54 z M 38 54 L 38 55 L 39 55 L 39 54 L 38 54 z M 39 54 L 40 54 L 40 53 L 39 53 L 39 54 z M 40 54 L 40 55 L 41 55 L 41 54 L 40 54 z M 41 54 L 42 54 L 42 53 L 41 53 L 41 54 z M 42 54 L 42 55 L 43 55 L 43 54 L 42 54 z M 43 54 L 44 54 L 44 53 L 43 53 L 43 54 z M 44 54 L 44 55 L 45 55 L 45 54 L 44 54 z M 45 54 L 46 54 L 46 53 L 45 53 L 45 54 z M 46 54 L 46 55 L 47 55 L 47 54 L 46 54 z M 47 54 L 48 54 L 48 53 L 47 53 L 47 54 z M 33 54 L 32 54 L 32 55 L 33 55 L 33 54 z "
     style="fill:#ffffff" />
  <path
     d="m 56,52 -3,3 h 3 z"
     style="fill:#e6ea97;fill-rule:evenodd;stroke-width:1.5"
     id="path2550" />
  <rect
     style="fill:#0b65bb;fill-opacity:1;stroke:none"
     id="rect1944"
     width="36"
     height="36"
     x="14"
     y="13"
     ry="3" />
  <rect
     style="fill:#52a6f5;stroke:none;fill-opacity:1"
     id="rect1549"
     width="34"
     height="34"
     x="15"
     y="14"
     ry="2" />
  <path
     d="m 32.355862,21.673103 c -0.643678,0 -1.197241,-0.231725 -1.660691,-0.695172 C 30.231724,20.514482 30,19.96092 30,19.317242 30,18.673563 30.231725,18.132873 30.695171,17.695172 31.158621,17.231724 31.712184,17 32.355862,17 c 0.643676,0 1.19724,0.231724 1.660689,0.695172 0.463446,0.437701 0.695172,0.978391 0.695172,1.62207 0,0.643678 -0.231733,1.19724 -0.695172,1.660689 -0.437702,0.463448 -0.991264,0.695172 -1.660689,0.695172 z m -1.622069,3.630345 H 33.97793 V 45 h -3.244137 z"
     style="font-size:13.8678px;line-height:1.25;font-family:'Google Sans';-inkscape-font-specification:'Google Sans';fill:#f2f2f2;fill-opacity:1;stroke-width:0.255461"
     id="path48347" />
</svg>
