<?xml version="1.0" encoding="UTF-8" standalone="no"?>
<svg
   width="64"
   height="64"
   version="1.1"
   id="svg10"
   sodipodi:docname="inkscape.svg"
   inkscape:version="1.1.2 (0a00cf5339, 2022-02-04, custom)"
   xmlns:inkscape="http://www.inkscape.org/namespaces/inkscape"
   xmlns:sodipodi="http://sodipodi.sourceforge.net/DTD/sodipodi-0.dtd"
   xmlns="http://www.w3.org/2000/svg"
   xmlns:svg="http://www.w3.org/2000/svg">
  <defs
     id="defs14" />
  <sodipodi:namedview
     id="namedview12"
     pagecolor="#ffffff"
     bordercolor="#666666"
     borderopacity="1.0"
     inkscape:pageshadow="2"
     inkscape:pageopacity="0.0"
     inkscape:pagecheckerboard="0"
     showgrid="false"
     inkscape:zoom="16.064582"
     inkscape:cx="30.564131"
     inkscape:cy="17.709767"
     inkscape:window-width="1920"
     inkscape:window-height="1019"
     inkscape:window-x="0"
     inkscape:window-y="31"
     inkscape:window-maximized="1"
     inkscape:current-layer="svg10" />
  <path
     d="m 32.029788,4.9999994 c -0.06547,-0.00132 -0.130904,0.00404 -0.195325,0.016 -0.03075,0.00585 -0.06122,0.013189 -0.09128,0.022 -0.0013,-2.6e-6 -0.0026,-2.6e-6 -0.0039,0 -0.0092,0.00319 -0.01837,0.00653 -0.02748,0.01 -0.02051,0.00632 -0.0408,0.013325 -0.06086,0.021 -0.02872,0.011639 -0.05689,0.024653 -0.08441,0.039 -0.002,-6e-6 -0.0039,-6e-6 -0.0059,0 -0.0053,0.00328 -0.0105,0.00662 -0.0157,0.01 -0.0248,0.013271 -0.04903,0.027617 -0.07263,0.043 -0.05433,0.03646 -0.104961,0.078333 -0.151156,0.125 -0.01001,0.00946 -0.01983,0.019126 -0.02945,0.029 -6.67e-4,-7e-7 -0.0013,-7e-7 -0.002,0 l -0.02454,0.027 L 17.55022,20.312 c -0.0731,0.08021 -0.132779,0.172095 -0.176658,0.272 L 5.7708802,33.314 c -0.4649345,0.511243 -0.286834,1.338085 0.345499,1.604 l 14.9820948,6.285 -4.356036,2.96 c -0.536141,0.365587 -0.586219,1.149712 -0.101098,1.583 l 7.852251,7 c 0.177604,0.161548 0.406788,0.251819 0.644866,0.254 h 3.926125 v 4 c 1.98e-4,0.378666 0.210313,0.724737 0.542787,0.894 l 1.963062,1 c 0.352739,0.179803 0.776854,0.127022 1.07674,-0.134 l 6.807901,-5.946 9.744643,-5.957 c 0.160056,-0.09776 0.289439,-0.239988 0.372982,-0.41 l 1.963063,-4 c 0.30523,-0.621924 -0.09029,-1.363525 -0.768539,-1.441 l -5.189356,-0.588 12.343737,-5.502 c 0.618669,-0.276075 0.785155,-1.091469 0.325869,-1.596 L 32.753177,5.3479994 l -0.02356,-0.025 c -0.02298,-0.025258 -0.04722,-0.04929 -0.07263,-0.072 -0.02324,-0.021505 -0.04748,-0.041862 -0.07263,-0.061 -0.0013,-2.6e-6 -0.0026,-2.6e-6 -0.0039,0 -0.02533,-0.018937 -0.05153,-0.036624 -0.07852,-0.053 -0.0013,-2.6e-6 -0.0026,-2.6e-6 -0.0039,0 -0.02744,-0.015704 -0.05561,-0.030054 -0.08441,-0.043 -6.67e-4,-7e-7 -0.0013,-7e-7 -0.002,0 -0.02888,-0.013109 -0.05836,-0.02479 -0.08834,-0.035 -0.0013,-2.6e-6 -0.0026,-2.6e-6 -0.0039,0 -0.03001,-0.00982 -0.06048,-0.018165 -0.09128,-0.025 -6.67e-4,-7e-7 -0.0013,-7e-7 -0.002,0 -0.0311,-0.00756 -0.06255,-0.013567 -0.09423,-0.018 -6.67e-4,-7e-7 -0.0013,-7e-7 -0.002,0 -0.03318,-0.00507 -0.0666,-0.00841 -0.100116,-0.01 z"
     style="color:#000000;font-weight:400;line-height:normal;font-family:sans-serif;text-indent:0;text-align:start;text-decoration-line:none;text-decoration-style:solid;text-decoration-color:#000000;text-transform:none;white-space:normal;overflow:visible;isolation:auto;mix-blend-mode:normal;solid-color:#000000;solid-opacity:1;fill:#3d485b;fill-rule:evenodd;stroke-width:0.990723"
     id="path1007" />
  <path
     style="color:#000000;font-weight:400;font-family:sans-serif;fill:#29363b;stroke-width:0.99072;stroke-linecap:round;stroke-linejoin:round;-inkscape-stroke:none"
     d="m 32.030316,5 c -0.09869,-0.00208 -0.19811,0.0054 -0.295224,0.023437 a 0.49081245,0.50005 0 0 0 -0.002,0.00195 c -0.04613,0.00877 -0.09101,0.018033 -0.136111,0.03125 l 0.107355,-0.015625 a 0.49081245,0.50005 0 0 0 -0.139944,0.025391 c -0.01332,0.00481 -0.02517,0.010431 -0.03834,0.015625 -0.01859,0.00618 -0.03726,0.010652 -0.05559,0.017578 a 0.49081245,0.50005 0 0 0 -0.01534,0.00586 c -0.04311,0.017948 -0.08527,0.038518 -0.126524,0.060547 L 31.495461,5.125 a 0.49081245,0.50005 0 0 0 -0.193622,0.054687 0.49081245,0.50005 0 0 0 -0.0077,0.00195 c -0.0067,0.00417 -0.01255,0.0094 -0.01917,0.013672 -0.0012,7.773e-4 -0.0026,0.00117 -0.0038,0.00195 -0.02303,0.012975 -0.0467,0.024846 -0.06901,0.039063 a 0.49081245,0.50005 0 0 0 -0.0096,0.00781 c -0.08149,0.05469 -0.158837,0.1174995 -0.228129,0.1875 -0.0117,0.011555 -0.02318,0.023212 -0.03451,0.035156 a 0.49081245,0.50005 0 0 0 -0.0038,0.00195 c -3.13e-4,3.327e-4 3.13e-4,0.00162 0,0.00195 L 30.9012,5.496079 A 0.49081245,0.50005 0 0 0 30.895426,5.5 L 17.173222,20.470703 a 0.49081245,0.50005 0 0 0 -0.002,0.002 c -0.07383,0.08101 -0.123793,0.178218 -0.178286,0.273438 L 5.3833984,33.474609 c -0.6852822,0.755033 -0.4151282,2.013201 0.5176019,2.40625 a 0.49081245,0.50005 0 0 0 0.00191,0 l 14.1382027,5.927735 -3.590624,2.4375 a 0.49081245,0.50005 0 0 0 0,0.002 c -0.794375,0.540877 -0.871454,1.730934 -0.153363,2.373047 a 0.49081245,0.50005 0 0 0 0,0.002 l 7.85413,6.996094 c 0.267076,0.242823 0.61202,0.378221 0.970028,0.380765 a 0.49081245,0.50005 0 0 0 0.0038,0 h 3.43726 v 3.5 c -2.6e-4,0.567479 0.316493,1.088134 0.814744,1.341797 l 1.963053,1 c 0.528517,0.270276 1.168736,0.190364 1.617985,-0.201172 l 0.002,-0.002 6.778669,-5.916016 9.71558,-5.935547 c 0.24005,-0.146625 0.43448,-0.36025 0.559778,-0.615234 l 1.96497,-4 c 0.452298,-0.919452 -0.150701,-2.048926 -1.154099,-2.162062 L 47.456773,40.628906 58.127043,35.875 a 0.49081245,0.50005 0 0 0 0,-0.002 c 0.913621,-0.407634 1.166061,-1.64461 0.488845,-2.390625 a 0.49081245,0.50005 0 0 0 0,-0.002 L 33.103861,5.5078125 a 0.49081245,0.50005 0 0 0 -0.0058,-0.00586 l -0.01725,-0.019531 -0.0077,-0.00586 c -0.03067,-0.033281 -0.06233,-0.065409 -0.09586,-0.095703 L 32.971585,5.375 c -0.03303,-0.030228 -0.06794,-0.058871 -0.10352,-0.085937 a 0.49081245,0.50005 0 0 0 -0.0077,-0.00195 c -7.17e-4,-5.364e-4 -0.0012,-0.00142 -0.002,-0.00195 -0.03732,-0.027799 -0.0753,-0.054024 -0.115023,-0.078125 A 0.49081245,0.50005 0 0 0 32.628401,5.173835 l 0.09969,0.027344 C 32.686921,5.177623 32.644755,5.156145 32.601562,5.136726 32.558247,5.117062 32.514255,5.099307 32.469287,5.083992 a 0.49081245,0.50005 0 0 0 -0.0096,-0.00195 c -0.04237,-0.013793 -0.08681,-0.02536 -0.130293,-0.035167 l -0.0077,-0.00195 c -6.14e-4,-1.466e-4 -0.0013,1.457e-4 -0.002,0 a 0.49081245,0.50005 0 0 0 -0.0038,0 C 32.275302,5.035395 32.23451,5.027476 32.193237,5.021488 h -0.0038 c -0.04856,-0.00729 -0.09672,-0.013304 -0.145723,-0.015625 l 0.270303,0.2890625 A 0.49081245,0.50005 0 0 0 32.030316,5 Z m -0.03642,1.0019531 a 0.49081245,0.50005 0 0 0 0.0038,0.00391 c 0.01675,7.938e-4 0.03325,0.00137 0.04984,0.00391 a 0.49081245,0.50005 0 0 0 0.0671,0.00586 l -0.05943,-0.00391 c 0.01567,0.00223 0.03062,0.00405 0.04601,0.00781 a 0.49081245,0.50005 0 0 0 0.107354,0.013672 l -0.09393,-0.00977 c 0.01557,0.0034 0.03084,0.00679 0.046,0.011719 0.0017,5.862e-4 0.004,-6.049e-4 0.0058,0 0.01244,0.00446 0.02438,0.010156 0.03643,0.015625 a 0.49081245,0.50005 0 0 0 0.0038,0 0.49081245,0.50005 0 0 0 0.002,0.00195 c 0.01358,0.00619 0.02729,0.012107 0.04026,0.019531 4.4e-4,2.785e-4 0.0015,-2.798e-4 0.002,0 0.01024,0.00653 0.02094,0.014201 0.03067,0.021484 a 0.49081245,0.50005 0 0 0 0.0077,0.00195 c 0.0099,0.00784 0.01947,0.016799 0.02876,0.025391 a 0.49081245,0.50005 0 0 0 0.0058,0.00586 c 0.01271,0.011355 0.02493,0.022527 0.03643,0.035156 a 0.49081245,0.50005 0 0 0 0.0058,0.00781 l 0.02108,0.021484 25.510111,27.9707029 c 0.237161,0.263492 0.157101,0.651269 -0.164866,0.794922 l -12.351518,5.501953 a 0.49081245,0.50005 0 0 0 0.143779,0.955078 l 5.191356,0.589844 c 0.355264,0.04006 0.54548,0.395144 0.385326,0.720703 l -1.964971,4 c -0.04178,0.08504 -0.105894,0.156177 -0.185953,0.205078 l -9.752005,5.957032 a 0.49081245,0.50005 0 0 0 -0.06518,0.04883 l -6.813176,5.945312 c -0.151189,0.132244 -0.362517,0.157479 -0.540606,0.06641 l -1.963054,-1 C 29.648806,57.86208 29.543822,57.690572 29.54391,57.5 v -4 A 0.49081245,0.50005 0 0 0 29.053146,53 h -3.92419 c -0.119501,-8.49e-4 -0.234833,-0.04587 -0.32398,-0.126953 a 0.49081245,0.50005 0 0 0 -0.0038,-0.0039 l -7.856049,-7 c -0.249753,-0.225277 -0.227936,-0.60188 0.04984,-0.791016 l 4.357442,-2.958984 a 0.49081245,0.50005 0 0 0 -0.08435,-0.876954 L 6.276741,34.955078 C 5.9465072,34.815919 5.8615823,34.421617 6.1042071,34.154297 L 17.713828,21.423828 a 0.49081245,0.50005 0 0 0 0.08818,-0.134766 c 0.02195,-0.04996 0.05163,-0.09661 0.08818,-0.136718 L 31.610476,6.1855469 31.487785,6.3164062 h -0.207041 a 0.49081245,0.50005 0 0 0 0.354653,-0.1542968 c 0.0048,-0.00511 0.01033,-0.010732 0.01534,-0.015625 a 0.49081245,0.50005 0 0 0 0.0058,-0.00586 c 0.02246,-0.022683 0.04654,-0.042679 0.07285,-0.060547 7.55e-4,-5.128e-4 0.0012,-0.00144 0.002,-0.00195 0.0087,-0.00528 0.01781,-0.00895 0.02684,-0.013672 a 0.49081245,0.50005 0 0 0 0.01725,-0.00977 0.49081245,0.50005 0 0 0 0.0077,-0.00195 c 0.0095,-0.00507 0.01895,-0.011198 0.02876,-0.015625 l 0.0058,-0.00195 c 0.0083,-0.00302 0.01647,-0.00526 0.02492,-0.00781 a 0.49081245,0.50005 0 0 0 0.02492,-0.00977 0.49081245,0.50005 0 0 0 0.002,0 c 0.01441,-0.00422 0.02744,-0.0069 0.04218,-0.00977 0.02728,-0.00507 0.05473,-0.00555 0.08243,-0.00586 z"
     id="path862" />
  <path
     d="M 32.04901,7.47 42.8,19.39 V 21 h -1.954371 c -0.259144,5.7e-5 -0.507654,0.105451 -0.690869,0.293 l -1.387602,1.42 -2.265116,-1.545 c -0.387626,-0.264507 -0.903818,-0.212185 -1.233207,0.125 l -2.496708,2.555 -0.728979,-5.971 c -0.11892,-0.98267 -1.411532,-1.209794 -1.843949,-0.324 l -2.70778,5.545 -5.13413,0.875 L 20.120512,23.209 19.5,21.303 Z"
     style="color:#000000;font-weight:400;line-height:normal;font-family:sans-serif;text-indent:0;text-align:start;text-decoration-line:none;text-decoration-style:solid;text-decoration-color:#000000;text-transform:none;white-space:normal;overflow:visible;isolation:auto;mix-blend-mode:normal;solid-color:#000000;solid-opacity:1;fill:#eceff1;fill-rule:evenodd;stroke-width:0.988527"
     id="path1207" />
</svg>
