<?xml version="1.0" encoding="UTF-8" standalone="no"?>
<!-- Created with Inkscape (http://www.inkscape.org/) -->

<svg
   width="64"
   height="64"
   viewBox="0 0 16.933333 16.933334"
   version="1.1"
   id="svg5"
   inkscape:version="1.1.2 (0a00cf5339, 2022-02-04, custom)"
   sodipodi:docname="internet-mail.svg"
   xmlns:inkscape="http://www.inkscape.org/namespaces/inkscape"
   xmlns:sodipodi="http://sodipodi.sourceforge.net/DTD/sodipodi-0.dtd"
   xmlns="http://www.w3.org/2000/svg"
   xmlns:svg="http://www.w3.org/2000/svg">
  <sodipodi:namedview
     id="namedview7"
     pagecolor="#ffffff"
     bordercolor="#666666"
     borderopacity="1.0"
     inkscape:pageshadow="2"
     inkscape:pageopacity="0.0"
     inkscape:pagecheckerboard="0"
     inkscape:document-units="px"
     showgrid="false"
     units="px"
     height="64px"
     showguides="false"
     inkscape:zoom="12.859375"
     inkscape:cx="32"
     inkscape:cy="32"
     inkscape:window-width="1920"
     inkscape:window-height="1019"
     inkscape:window-x="0"
     inkscape:window-y="31"
     inkscape:window-maximized="1"
     inkscape:current-layer="svg5" />
  <defs
     id="defs2" />
  <rect
     style="opacity:1;fill:#c19017;stroke-width:0.264583;stroke-linecap:round;stroke-linejoin:round;fill-opacity:1"
     id="rect927"
     width="14.2875"
     height="14.2875"
     x="1.3229166"
     y="1.3229166"
     ry="1.3229166" />
  <path
     id="rect1211"
     style="opacity:1;fill:#f6ba29;fill-opacity:1;stroke-width:0.264583;stroke-linecap:round;stroke-linejoin:round"
     d="M 2.6458334,1.5875 H 14.2875 c 0.586316,0 1.058333,0.4720167 1.058333,1.0583334 V 14.2875 c 0,0.586316 -0.472017,1.058333 -1.058333,1.058333 H 2.6458334 C 2.0595167,15.345833 1.5875,14.873816 1.5875,14.2875 V 2.6458334 C 1.5875,2.0595167 2.0595167,1.5875 2.6458334,1.5875 Z"
     sodipodi:nodetypes="sssssssss" />
  <path
     d="M 2.6458334,1.5875 H 14.287499 c 0.586316,0 1.058333,0.4720168 1.058333,1.0583335 v 7.9374995 c 0,0.586316 -0.472017,1.058333 -1.058333,1.058333 H 2.6458334 C 2.0595167,11.641666 1.5875,11.169649 1.5875,10.583333 V 2.6458335 C 1.5875,2.0595168 2.0595167,1.5875 2.6458334,1.5875 Z"
     style="opacity:1;fill:#f9f06b;fill-opacity:1;stroke-width:0.0700042;stroke-linecap:round;stroke-linejoin:round"
     id="path1760"
     sodipodi:nodetypes="sssssssss" />
  <rect
     style="opacity:1;fill:#f7bc2c;fill-opacity:1;stroke-width:0.264583;stroke-linecap:round;stroke-linejoin:round"
     id="rect2102"
     width="12.170834"
     height="8.4666672"
     x="2.3812499"
     y="2.3812499"
     ry="0.26458335" />
  <rect
     style="opacity:1;fill:#d89a08;fill-opacity:1;stroke-width:0.264583;stroke-linecap:round;stroke-linejoin:round"
     id="rect5632"
     width="11.641666"
     height="5.2916665"
     x="2.6458333"
     y="5.5562501"
     ry="0.26458335" />
  <path
     d="m 3.1887457,3.7041668 c -0.1520433,0 -0.275299,0.1291193 -0.275299,0.2883959 l -0.00303,6.8479463 h 2.273009 v 1.065742 h 6.5664303 v -1.065742 h 2.273009 l -0.0069,-6.8476818 c 0,-0.1592765 -0.123256,-0.2883958 -0.275299,-0.2883958 z"
     style="opacity:0.15;fill:#000000;stroke-width:0.129249"
     id="path5343"
     sodipodi:nodetypes="ccccccccccc" />
  <path
     d="M 3.4400683,3.96875 C 3.2952714,3.96875 3.17789,4.093818 3.17789,4.2480972 L 3.175,10.881202 h 2.164768 v 1.025128 h 6.253695 v -1.025128 h 2.164768 l -0.0066,-6.6328402 c 0,-0.1542792 -0.117381,-0.2793472 -0.262178,-0.2793472 H 6.2874936 Z"
     style="fill:#f6f5f4;stroke-width:0.12414"
     id="path6801" />
  <path
     d="m 8.417507,6.9902917 c -0.529167,0 -1.058122,0.1889336 -1.4634632,0.5668962 L 3.1755291,10.219161 3.175,10.848075 H 13.758334 L 13.757804,10.21969 9.881658,7.5574525 C 9.476184,7.1794952 8.947203,6.9905563 8.418195,6.9905563 h -5.29e-4 z"
     style="opacity:0.1;fill:#000000;stroke-width:0.132292"
     id="path6546" />
  <path
     d="m 8.4198469,7.2548899 c -0.505116,0 -1.0102321,0.1890448 -1.3971323,0.5670021 l -4.1092438,3.032125 2.113624,-0.0061 v 1.322916 h 6.8791672 v -1.322916 h 2.116666 L 9.8171111,7.821892 C 9.4300791,7.4439347 8.924963,7.2548899 8.4199792,7.2548899 Z"
     style="fill:#f0f0ee;stroke-width:0.129249"
     id="path6327" />
  <path
     d="M 3.4401734,3.9688003 C 3.2953691,3.9689061 3.1780652,4.094072 3.178175,4.248359 v 0.00672 L 7.14375,8.4066561 c 0.7242395,0.7657018 1.9159046,0.7657018 2.6401433,0 l 3.9676917,-4.153696 v -0.00465 C 13.751695,4.0940217 13.634391,3.9688558 13.489587,3.96875 H 6.2873651 Z"
     style="opacity:0.1;fill:#000000;stroke-width:0.130104"
     id="path7020" />
  <path
     d="m 11.906251,12.170834 v 0.529167 c 0,0.293158 -0.236009,0.529166 -0.529167,0.529166 H 5.55625 c -0.2931583,0 -0.5291666,-0.236008 -0.5291666,-0.529166 v -0.529167 z"
     style="fill:#c0bfbc;fill-opacity:1;stroke-width:0.132292"
     id="path6082" />
  <path
     d="M 2.6458333,2.38125 C 2.4992541,2.38125 2.38125,2.4992541 2.38125,2.6458333 v 7.9374997 c 0,0.146579 0.1180041,0.264584 0.2645833,0.264584 h 0.2759604 l -0.00827,0.0062 2.1135711,-0.0062 V 12.170833 12.7 c 0,0.293158 0.2360083,0.529167 0.5291667,0.529167 h 5.8208335 c 0.293158,0 0.529166,-0.236009 0.529166,-0.529167 v -0.529167 -1.322916 h 2.116667 0.264583 c 0.14658,0 0.264584,-0.118005 0.264584,-0.264584 V 2.6458333 c 0,-0.1465792 -0.118004,-0.2645833 -0.264584,-0.2645833 z M 2.9104166,2.6458333 H 14.022917 c 0.146579,0 0.264583,0.1180042 0.264583,0.2645833 V 10.31875 c 0,0.146579 -0.118004,0.264583 -0.264583,0.264583 h -2.38125 V 12.7 c 0,0.146579 -0.118004,0.264583 -0.264584,0.264583 H 5.55625 C 5.4096709,12.964583 5.2916667,12.846579 5.2916667,12.7 V 10.583333 H 2.9104166 c -0.1465791,0 -0.2645833,-0.118004 -0.2645833,-0.264583 V 2.9104166 c 0,-0.1465791 0.1180042,-0.2645833 0.2645833,-0.2645833 z"
     style="opacity:0.15;fill:#000000;stroke-width:0.129249"
     id="path4989" />
  <path
     d="m 3.4401734,3.9688003 c -0.066418,1.106e-4 -0.130321,0.027076 -0.1788001,0.075449 l 3.8999584,4.0859606 c 0.7185698,0.7561122 1.8869677,0.7561122 2.6055377,0 L 13.667356,4.0437202 c -0.04829,-0.047926 -0.111773,-0.074683 -0.177768,-0.07493 H 6.2873653 Z"
     style="fill:#f6f5f4;stroke-width:0.129249"
     id="path7275" />
  <path
     id="rect2368"
     style="opacity:1;fill:#f9f06b;fill-opacity:1;stroke-width:0.999999;stroke-linecap:round;stroke-linejoin:round"
     d="m 19,48 v 3.5 c 0,1.108 0.892,2 2,2 h 22 c 1.108,0 2,-0.892 2,-2 V 48 c 0,1.108 -0.892,2 -2,2 H 21 c -1.108,0 -2,-0.892 -2,-2 z"
     transform="scale(0.26458334)"
     sodipodi:nodetypes="csssscssc" />
</svg>
