<?xml version="1.0" encoding="UTF-8" standalone="no"?>
<!-- Created with Inkscape (http://www.inkscape.org/) -->

<svg
   width="64"
   height="64"
   viewBox="0 0 16.933333 16.933334"
   version="1.1"
   id="svg5"
   inkscape:version="1.1.2 (0a00cf5339, 2022-02-04, custom)"
   sodipodi:docname="io.github.seadve.Kooha.svg"
   xmlns:inkscape="http://www.inkscape.org/namespaces/inkscape"
   xmlns:sodipodi="http://sodipodi.sourceforge.net/DTD/sodipodi-0.dtd"
   xmlns="http://www.w3.org/2000/svg"
   xmlns:svg="http://www.w3.org/2000/svg">
  <sodipodi:namedview
     id="namedview7"
     pagecolor="#ffffff"
     bordercolor="#666666"
     borderopacity="1.0"
     inkscape:pageshadow="2"
     inkscape:pageopacity="0.0"
     inkscape:pagecheckerboard="0"
     inkscape:document-units="px"
     showgrid="false"
     units="px"
     height="64px"
     showguides="false"
     inkscape:zoom="12.484375"
     inkscape:cx="31.95995"
     inkscape:cy="32"
     inkscape:window-width="1920"
     inkscape:window-height="1019"
     inkscape:window-x="0"
     inkscape:window-y="31"
     inkscape:window-maximized="1"
     inkscape:current-layer="svg5" />
  <defs
     id="defs2" />
  <path
     id="rect1201"
     style="fill:#e6e6e6;fill-opacity:1;stroke-width:0.264583;stroke-linejoin:round;stroke-opacity:0.501961"
     d="m 2.1166667,2.9104168 c -0.4397375,0 -0.79375,0.3540122 -0.79375,0.79375 v 9.5249992 c 0,0.439738 0.3540125,0.79375 0.79375,0.79375 H 14.816667 c 0.439738,0 0.79375,-0.354012 0.79375,-0.79375 V 3.7041668 c 0,-0.4397378 -0.354012,-0.79375 -0.79375,-0.79375 z"
     sodipodi:nodetypes="sssssssss" />
  <path
     id="path1197"
     style="fill:#b3b3b3;fill-opacity:1;stroke-width:0.0700043;stroke-linejoin:round;stroke-opacity:0.501961"
     d="m 1.3229167,12.435417 v 0.79375 c 0,0.439738 0.3540125,0.79375 0.79375,0.79375 H 14.816667 c 0.439738,0 0.79375,-0.354012 0.79375,-0.79375 v -0.79375 c 0,0.439738 -0.354012,0.79375 -0.79375,0.79375 H 2.1166667 c -0.4397375,0 -0.79375,-0.354012 -0.79375,-0.79375 z"
     sodipodi:nodetypes="csssscssc" />
  <path
     id="rect890"
     style="opacity:0.6;fill:#5b5b5b;fill-opacity:1;stroke-width:0.264583;stroke-linejoin:round;stroke-opacity:0.501961"
     d="m 2.1166667,2.6458334 c -0.5863167,0 -1.0583333,0.4720167 -1.0583333,1.0583334 v 9.5249992 c 0,0.586317 0.4720166,1.058334 1.0583333,1.058334 H 14.816667 c 0.586317,0 1.058333,-0.472017 1.058333,-1.058334 V 3.7041668 c 0,-0.5863167 -0.472016,-1.0583334 -1.058333,-1.0583334 z m 0,0.2645834 H 14.816667 c 0.439738,0 0.79375,0.3540125 0.79375,0.79375 v 9.5249992 c 0,0.439738 -0.354012,0.79375 -0.79375,0.79375 H 2.1166667 c -0.4397375,0 -0.79375,-0.354012 -0.79375,-0.79375 V 3.7041668 c 0,-0.4397375 0.3540125,-0.79375 0.79375,-0.79375 z"
     sodipodi:nodetypes="sssssssssssccssccs" />
  <path
     id="rect1416"
     style="opacity:1;fill:#f13758;stroke-width:0.264583;stroke-linecap:round;stroke-linejoin:round;stroke-opacity:0.3;fill-opacity:1"
     d="M 2.1166667,3.4395836 H 14.816667 c 0.146579,0 0.264583,0.1180042 0.264583,0.2645833 v 8.7312501 c 0,0.14658 -0.118004,0.264583 -0.264583,0.264583 H 2.1166667 C 1.9700875,12.7 1.8520833,12.581997 1.8520833,12.435417 V 3.7041669 c 0,-0.1465791 0.1180042,-0.2645833 0.2645834,-0.2645833 z"
     sodipodi:nodetypes="sssssssss" />
  <path
     id="path8"
     style="fill:#ffffff;stroke-width:0.264583;-inkscape-stroke:none"
     d="m 3.4395834,4.7625001 v 1.4552083 c 0,0.073063 0.059229,0.1322917 0.1322917,0.1322917 0.073063,0 0.1619652,-0.065526 0.1322917,-0.1322917 v -1.190625 h 1.190625 c 0.073063,0 0.1322917,-0.059229 0.1322917,-0.1322917 -10e-8,-0.073063 -0.059229,-0.1322916 -0.1322917,-0.1322916 z m 8.5989586,0 c -0.07306,-2e-7 -0.132292,0.059229 -0.132292,0.1322916 0,0.073063 0.05923,0.1322918 0.132292,0.1322917 h 1.190625 v 1.190625 c 0,0.073063 0.05923,0.1322918 0.132292,0.1322917 0.07306,-4e-7 0.132291,-0.059229 0.132291,-0.1322917 V 4.7625001 Z M 7.9375002,6.6145835 c -0.2931583,0 -0.5291667,0.2360083 -0.5291667,0.5291666 v 0.7937501 0.79375 c 0,0.2931583 0.2360084,0.5291669 0.5291667,0.5291669 h 2.1166668 c 0.293159,0 0.529167,-0.2360086 0.529167,-0.5291669 V 7.1437501 c 0,-0.2931583 -0.236008,-0.5291666 -0.529167,-0.5291666 z M 7.4083335,7.9375002 6.6145835,6.8791668 H 6.3500002 V 8.9958335 H 6.6145835 Z M 8.9798136,6.8791668 c 0.00534,-4.04e-5 0.01068,-4.04e-5 0.01602,0 0.5845014,0 1.0583334,0.473832 1.0583334,1.0583334 0,0.5845014 -0.473832,1.0583333 -1.0583334,1.0583333 -0.5845014,0 -1.0583333,-0.4738319 -1.0583334,-1.0583333 -6.63e-5,-0.5783019 0.4640777,-1.0495796 1.0423134,-1.0583334 z m 0.0031,0.5291667 c -0.2871934,0.00701 -0.5163333,0.2418877 -0.5162477,0.5291667 0,0.2922507 0.236916,0.5291666 0.5291667,0.5291666 0.2922508,2e-7 0.529167,-0.2369158 0.529167,-0.5291666 0,-0.2922508 -0.2369162,-0.5291669 -0.529167,-0.5291667 -0.00431,-5.26e-5 -0.00861,-5.26e-5 -0.012919,0 z M 3.5718751,9.7895843 c -0.073063,0 -0.1322919,0.059229 -0.1322917,0.132292 v 1.4552077 h 1.4552084 c 0.073062,0 0.1322913,-0.05923 0.1322917,-0.132291 2e-7,-0.07306 -0.059229,-0.132292 -0.1322917,-0.132292 H 3.7041668 V 9.9218763 c 2e-7,-0.073063 -0.059229,-0.132292 -0.1322917,-0.132292 z m 9.7895839,0 c -0.07306,-2e-7 -0.161965,0.065526 -0.132292,0.132292 v 1.1906247 h -1.190625 c -0.07306,0 -0.132292,0.05923 -0.132292,0.132292 10e-7,0.07306 0.05923,0.132292 0.132292,0.132291 H 13.49375 V 9.9218763 c 10e-7,-0.073062 -0.05923,-0.1322916 -0.132291,-0.132292 z"
     sodipodi:nodetypes="cssscsssccsccsssccsscsssssssccccccccssccccssccsccsssccssscsscccs" />
  <rect
     style="opacity:0.25;fill:#ffffff;fill-opacity:1;stroke-width:0.572664;stroke-linejoin:round"
     id="rect1396"
     width="11.1125"
     height="7.6729169"
     x="2.9104166"
     y="4.2333336" />
</svg>
