<?xml version="1.0" encoding="UTF-8" standalone="no"?>
<!-- Created with Inkscape (http://www.inkscape.org/) -->

<svg
   width="64"
   height="64"
   viewBox="0 0 16.933333 16.933334"
   version="1.1"
   id="svg5"
   inkscape:version="1.1.2 (0a00cf5339, 2022-02-04, custom)"
   sodipodi:docname="org.kde.kalendar.svg"
   xmlns:inkscape="http://www.inkscape.org/namespaces/inkscape"
   xmlns:sodipodi="http://sodipodi.sourceforge.net/DTD/sodipodi-0.dtd"
   xmlns="http://www.w3.org/2000/svg"
   xmlns:svg="http://www.w3.org/2000/svg">
  <sodipodi:namedview
     id="namedview7"
     pagecolor="#ffffff"
     bordercolor="#666666"
     borderopacity="1.0"
     inkscape:pageshadow="2"
     inkscape:pageopacity="0.0"
     inkscape:pagecheckerboard="0"
     inkscape:document-units="px"
     showgrid="false"
     units="px"
     height="64px"
     showguides="false"
     inkscape:zoom="11.313708"
     inkscape:cx="49.718446"
     inkscape:cy="22.936776"
     inkscape:window-width="1920"
     inkscape:window-height="1021"
     inkscape:window-x="0"
     inkscape:window-y="0"
     inkscape:window-maximized="1"
     inkscape:current-layer="svg5" />
  <defs
     id="defs2" />
  <path
     id="rect1201"
     style="fill:#fafafa;fill-opacity:1;stroke-width:0.999999;stroke-linejoin:round;stroke-opacity:0.501961"
     d="M 8 5 C 6.338 5 5 6.3379993 5 8 L 5 56 C 5 57.662002 6.338 59 8 59 L 56 59 C 57.662002 59 59 57.662002 59 56 L 59 8 C 59 6.3379993 57.662002 5 56 5 L 8 5 z "
     transform="scale(0.26458334)" />
  <path
     d="m 5.7241984,6.6145833 c -0.6942736,0 -1.2496075,0.1985848 -1.6655315,0.5953125 C 3.645942,7.6066234 3.4395832,8.1264077 3.4395832,8.7694907 h 0.8878012 c 0,-0.4479184 0.1216797,-0.7968935 0.3648355,-1.0464479 0.2463552,-0.2527539 0.590459,-0.3787884 1.0319785,-0.3787884 0.3679328,0 0.6618735,0.1168087 0.8826333,0.3503663 0.2207599,0.2335575 0.3312459,0.5323694 0.3312459,0.8971029 0,0.2719506 -0.068614,0.5362466 -0.206189,0.7922 C 6.5975131,9.6366774 6.3512503,9.9661678 5.9929158,10.372494 l -2.418974,2.687174 v 0.638204 H 8.1524739 V 12.973368 H 4.6441607 l 1.8717205,-2.02985 C 7.3925215,9.9932916 7.8305297,9.1741786 7.8305297,8.4863038 7.8305297,7.9200071 7.642204,7.4673851 7.2646727,7.1282469 6.8871416,6.7859094 6.3736798,6.6145833 5.7241984,6.6145833 Z m 5.5474646,0 c -0.617487,0 -1.114884,0.1727776 -1.4924146,0.5183145 -0.3775313,0.3455371 -0.566374,0.8127722 -0.566374,1.4014649 3e-7,0.3455373 0.08955,0.6540915 0.2687177,0.9260419 0.1791671,0.2719504 0.4239784,0.484632 0.7343219,0.6382044 -0.3647331,0.156771 -0.6509001,0.387485 -0.8588623,0.69143 -0.2047626,0.303944 -0.3074747,0.644629 -0.3074747,1.02216 0,0.60149 0.2020044,1.082821 0.6051309,1.444356 0.4063261,0.358334 0.9450781,0.537435 1.6169551,0.537435 0.665479,0 1.201328,-0.179101 1.607654,-0.537435 0.409526,-0.358334 0.614433,-0.839666 0.614433,-1.444356 0,-0.380731 -0.107067,-0.721416 -0.321427,-1.02216 -0.211162,-0.300745 -0.499297,-0.529491 -0.86403,-0.686263 0.313543,-0.1535715 0.561773,-0.3667701 0.74414,-0.6387203 0.185566,-0.2719506 0.278019,-0.5819563 0.278019,-0.930693 C 13.330453,7.94567 13.140158,7.4784349 12.759428,7.1328978 12.381896,6.7873609 11.885951,6.6145833 11.271663,6.6145833 Z m 0,0.7296711 c 0.339139,0 0.618982,0.1119378 0.839743,0.335897 0.220759,0.2239592 0.331245,0.5135457 0.331245,0.8686808 0,0.3551354 -0.107066,0.6427536 -0.321427,0.8635135 -0.211161,0.2175603 -0.494425,0.3265951 -0.849561,0.3265951 -0.355135,0 -0.639851,-0.1090348 -0.854211,-0.3265951 -0.211162,-0.2207599 -0.316776,-0.5083781 -0.316776,-0.8635135 0,-0.3711324 0.107066,-0.6641386 0.321427,-0.8784995 0.217561,-0.2175603 0.500825,-0.3260783 0.84956,-0.3260783 z m -0.0093,3.1238406 c 0.399928,0 0.723096,0.123131 0.96945,0.369487 0.249555,0.246354 0.374138,0.565168 0.374138,0.955497 0,0.393528 -0.118261,0.704985 -0.355018,0.935343 -0.236756,0.227158 -0.563343,0.341064 -0.979268,0.341064 -0.419123,0 -0.747162,-0.113906 -0.983919,-0.341064 -0.233557,-0.227159 -0.3503661,-0.538615 -0.3503661,-0.935343 0,-0.396728 0.1202291,-0.716992 0.3601851,-0.960148 0.243152,-0.243156 0.564869,-0.364836 0.964795,-0.364836 z"
     style="font-size:10.5833px;line-height:1.25;font-family:Roboto;-inkscape-font-specification:Roboto;fill:#616a6e;fill-opacity:1;stroke-width:0.245716"
     id="path4406" />
  <path
     id="rect4603"
     style="fill:#7bb9d7;fill-opacity:1;stroke-width:0.953461;stroke-linejoin:round;stroke-opacity:0.501961"
     d="M 8,5 C 6.338,5 5,6.338 5,8 V 19 H 59 V 8 C 59,6.338 57.662002,5 56,5 Z"
     transform="scale(0.26458334)"
     sodipodi:nodetypes="ssccsss" />
  <path
     id="rect890"
     style="opacity:0.2;fill:#000000;stroke-width:0.999999;stroke-linejoin:round;stroke-opacity:0.501961"
     d="M 8 4 C 5.7839999 4 4 5.7839999 4 8 L 4 56 C 4 58.216001 5.7839999 60 8 60 L 56 60 C 58.216001 60 60 58.216001 60 56 L 60 8 C 60 5.7839999 58.216001 4 56 4 L 8 4 z M 8 5 L 56 5 C 57.662002 5 59 6.338 59 8 L 59 19 L 5 19 L 5 8 C 5 6.338 6.338 5 8 5 z M 5 20 L 59 20 L 59 56 C 59 57.662002 57.662002 59 56 59 L 8 59 C 6.338 59 5 57.662002 5 56 L 5 20 z "
     transform="scale(0.26458334)" />
  <path
     id="rect990"
     style="opacity:0.2;fill:#2c4592;fill-opacity:1;stroke-width:0.999999;stroke-linejoin:round;stroke-opacity:0.501961"
     d="M 8 4 C 5.7839999 4 4 5.7839999 4 8 L 4 20 L 60 20 L 60 8 C 60 5.7839999 58.215997 4 56 4 L 8 4 z M 8 5 L 56 5 C 57.662002 5 59 6.338 59 8 L 59 19 L 5 19 L 5 8 C 5 6.338 6.338 5 8 5 z "
     transform="scale(0.26458334)" />
</svg>
