<?xml version="1.0" encoding="UTF-8" standalone="no"?>
<!-- Created with Inkscape (http://www.inkscape.org/) -->

<svg
   width="64"
   height="64"
   viewBox="0 0 16.933333 16.933334"
   version="1.1"
   id="svg5"
   inkscape:version="1.1.2 (0a00cf5339, 2022-02-04, custom)"
   sodipodi:docname="kdeapp.svg"
   xmlns:inkscape="http://www.inkscape.org/namespaces/inkscape"
   xmlns:sodipodi="http://sodipodi.sourceforge.net/DTD/sodipodi-0.dtd"
   xmlns="http://www.w3.org/2000/svg"
   xmlns:svg="http://www.w3.org/2000/svg">
  <sodipodi:namedview
     id="namedview7"
     pagecolor="#ffffff"
     bordercolor="#666666"
     borderopacity="1.0"
     inkscape:pageshadow="2"
     inkscape:pageopacity="0.0"
     inkscape:pagecheckerboard="0"
     inkscape:document-units="px"
     showgrid="false"
     units="px"
     height="64px"
     showguides="false"
     inkscape:zoom="6.578125"
     inkscape:cx="14.821853"
     inkscape:cy="57.007126"
     inkscape:window-width="1920"
     inkscape:window-height="1019"
     inkscape:window-x="0"
     inkscape:window-y="31"
     inkscape:window-maximized="1"
     inkscape:current-layer="svg5" />
  <defs
     id="defs2" />
  <rect
     style="opacity:0.5;fill:#225981;stroke-width:0.264583;stroke-linecap:round;stroke-linejoin:round;fill-opacity:1"
     id="rect925"
     width="14.2875"
     height="14.2875"
     x="1.3229166"
     y="1.3229166"
     ry="1.5875" />
  <rect
     style="opacity:1;fill:#2c9bff;stroke-width:0.264583;stroke-linecap:round;stroke-linejoin:round;fill-opacity:1"
     id="rect1029"
     width="13.758333"
     height="13.758333"
     x="1.5875"
     y="1.5875"
     ry="1.3229166" />
  <path
     d="M 9.525,2.9104167 7.4083334,3.2308108 V 10.887191 L 9.525,10.31875 V 7.3607911 l 2.116667,3.4871259 2.116667,-0.79375 L 11.1125,6.8791668 13.759367,3.4406169 11.705746,2.9104167 9.525,6.3810061 Z M 5.2151857,4.9867758 c -0.050055,0 -0.1001106,0.019494 -0.1384929,0.057878 L 4.2447022,5.8766442 c -0.076765,0.076765 -0.058285,0.1864291 0,0.2780188 L 5.1056316,7.5065188 C 5.0418445,7.6389274 4.9866098,7.7752879 4.940267,7.9147624 c -0.00204,0.006 -0.00523,0.011557 -0.00723,0.017568 L 3.3713714,8.2795964 C 3.2653941,8.3031523 3.175,8.3674074 3.175,8.4759686 v 0.519865 0.5198649 c 0,0.1085612 0.090394,0.1728206 0.1963706,0.1963706 l 1.5616616,0.3472659 c 0.00342,0.01027 0.00888,0.01974 0.012401,0.02997 0.045109,0.135489 0.098611,0.268037 0.160197,0.396875 l -0.8609293,1.350822 c -0.058285,0.09159 -0.076765,0.201254 0,0.278019 l 0.8319908,0.83199 c 0.076765,0.07676 0.2002195,0.07676 0.2769859,0 L 6.703466,12.087117 c 0.1326933,0.06453 0.2694014,0.120458 0.409277,0.167432 0.00918,0.0032 0.017669,0.0082 0.026871,0.01137 l 0.3462317,1.560628 c 0,0.108562 0.08781,0.196371 0.1963706,0.196371 h 1.175122 c 0.1085612,0 0.1728205,-0.09039 0.1963706,-0.196371 l 0.3462321,-1.60817 c 0.15907,-0.0598 0.313488,-0.131312 0.461988,-0.21394 l 1.317748,0.942578 c 0.07677,0.07676 0.200222,0.07676 0.276986,0 l 0.831991,-0.831991 c 0.07676,-0.07676 0.05828,-0.186429 0,-0.278019 l -0.501261,-0.760677 -0.05271,0.01964 c -0.119195,0.04477 -0.253378,-0.0017 -0.31936,-0.110587 l -0.527098,-0.868169 c -0.439175,1.050499 -1.47634,1.789038 -2.6861415,1.789038 -1.6073788,0 -2.9104168,-1.303038 -2.9104168,-2.9104164 0,-1.2334452 0.7687728,-2.285127 1.8520834,-2.7088789 V 5.7071452 l -0.00413,0.018605 c -0.011681,0.00397 -0.022461,0.010356 -0.034102,0.014468 C 6.9674979,5.7860545 6.8325234,5.8405947 6.701408,5.9035158 L 5.3536787,5.0446534 c -0.038384,-0.038382 -0.088438,-0.057878 -0.138493,-0.057878 z"
     style="fill:#ffffff;stroke-width:0.264583"
     id="path858" />
</svg>
