<?xml version="1.0" encoding="UTF-8" standalone="no"?>
<!-- Created with Inkscape (http://www.inkscape.org/) -->

<svg
   width="64"
   height="64"
   viewBox="0 0 16.933333 16.933334"
   version="1.1"
   id="svg5"
   inkscape:version="1.1.2 (0a00cf5339, 2022-02-04, custom)"
   sodipodi:docname="kdenlive.svg"
   xmlns:inkscape="http://www.inkscape.org/namespaces/inkscape"
   xmlns:sodipodi="http://sodipodi.sourceforge.net/DTD/sodipodi-0.dtd"
   xmlns="http://www.w3.org/2000/svg"
   xmlns:svg="http://www.w3.org/2000/svg">
  <sodipodi:namedview
     id="namedview7"
     pagecolor="#ffffff"
     bordercolor="#666666"
     borderopacity="1.0"
     inkscape:pageshadow="2"
     inkscape:pageopacity="0.0"
     inkscape:pagecheckerboard="0"
     inkscape:document-units="px"
     showgrid="false"
     units="px"
     height="64px"
     showguides="true"
     inkscape:zoom="1"
     inkscape:cx="32"
     inkscape:cy="32"
     inkscape:window-width="1851"
     inkscape:window-height="1009"
     inkscape:window-x="69"
     inkscape:window-y="31"
     inkscape:window-maximized="1"
     inkscape:current-layer="svg5" />
  <defs
     id="defs2" />
  <path
     id="rect1063"
     style="opacity:1;fill:#4d4d4d;fill-opacity:1;stroke-width:0.529167;stroke-linejoin:round"
     d="m 2.38125,2.5135416 h 12.170833 c 0.513028,0 0.926042,0.4130146 0.926042,0.9260417 V 13.49375 c 0,0.513028 -0.413014,0.926042 -0.926042,0.926042 H 2.38125 c -0.5130271,0 -0.9260417,-0.413014 -0.9260417,-0.926042 V 3.4395833 c 0,-0.5130271 0.4130146,-0.9260417 0.9260417,-0.9260417 z"
     sodipodi:nodetypes="sssssssss" />
  <path
     id="rect890"
     style="opacity:0.3;fill:#000000;fill-opacity:1;stroke-width:0.264583;stroke-linejoin:round;stroke-opacity:0.501961"
     d="m 2.3812501,2.38125 c -0.5863167,0 -1.0583334,0.4720166 -1.0583334,1.0583333 V 13.49375 c 0,0.586317 0.4720167,1.058333 1.0583334,1.058333 H 14.552084 c 0.586317,0 1.058333,-0.472016 1.058333,-1.058333 V 3.4395833 c 0,-0.5863167 -0.472016,-1.0583333 -1.058333,-1.0583333 z m 0,0.2645833 H 14.552084 c 0.439738,0 0.79375,0.3540123 0.79375,0.79375 V 13.49375 c 0,0.439738 -0.354012,0.79375 -0.79375,0.79375 H 2.3812501 C 1.9415125,14.2875 1.5875,13.933488 1.5875,13.49375 V 3.4395833 c 0,-0.4397377 0.3540125,-0.79375 0.7937501,-0.79375 z"
     sodipodi:nodetypes="ssssssssssssssssss" />
  <rect
     style="opacity:1;fill:#d44e4e;fill-opacity:1;stroke-width:0.264583;stroke-linecap:round;stroke-linejoin:round;stroke-opacity:0.3"
     id="rect1320"
     width="0.79374999"
     height="12.435417"
     x="8.0697918"
     y="2.2489583" />
  <path
     id="rect1188"
     style="opacity:0.3;fill:#000000;stroke-width:0.999999;stroke-linecap:round;stroke-linejoin:round;stroke-opacity:0.3"
     d="M 30 8 L 30 56 L 34 56 L 34 8 L 30 8 z M 31 9 L 33 9 L 33 55 L 31 55 L 31 9 z "
     transform="scale(0.26458334)" />
  <path
     style="color:#000000;fill:#d44e4e;stroke:none;stroke-width:0.264583;stroke-linecap:round;stroke-linejoin:round;-inkscape-stroke:none"
     d="M 6.7486921,1.9848998 H 10.188276 L 8.4684835,4.3661497 Z"
     id="path2018" />
  <path
     style="color:#000000;fill:#000000;stroke:none;stroke-linecap:round;stroke-linejoin:round;-inkscape-stroke:none;opacity:0.3"
     d="M 6.748155,1.8526124 C 6.6390908,1.8517698 6.575908,1.9758378 6.6407332,2.0635499 l 1.7187561,2.3793549 c 0.052793,0.073428 0.1620509,0.073428 0.2148438,0 L 10.292591,2.0630251 c 0.06483,-0.087712 0.0016,-0.2117803 -0.107422,-0.2109375 z m 0.2597657,0.265625 2.9194356,-5.248e-4 -1.4604451,2.0224578 z"
     id="path2020"
     sodipodi:nodetypes="ccccccccccc" />
  <path
     style="color:#000000;fill:#3873b6;fill-opacity:1;stroke:none;stroke-width:0.264543;stroke-linecap:round;stroke-linejoin:round;-inkscape-stroke:none"
     d="m 10.190717,5.4246907 c -0.0097,2.469e-4 -0.01966,8.379e-4 -0.02941,0.00211 -0.02529,0.0034 -0.04952,0.01 -0.07273,0.020041 -0.09978,0.042276 -0.1652076,0.1402654 -0.1657646,0.2473441 v 6.0767432 c 7.27e-4,0.111322 0.07298,0.205667 0.1636256,0.245235 0.09063,0.03957 0.20901,0.02847 0.293029,-0.04589 l 3.952531,-3.0397767 c 0.117144,-0.1056701 0.117144,-0.2909235 0,-0.3965942 L 10.379476,5.4927255 c -7.17e-4,-7.12e-4 -0.0014,-0.00142 -0.0022,-0.00211 -0.05182,-0.044647 -0.118446,-0.067652 -0.186618,-0.065925 z"
     id="path4323"
     sodipodi:nodetypes="ccccccccccccc" />
  <path
     style="color:#000000;opacity:0.75;fill:#285383;fill-opacity:1;stroke:none;stroke-width:0.999849;stroke-linecap:round;stroke-linejoin:round;-inkscape-stroke:none"
     d="m 10.187981,5.2916667 c -0.01277,3.25e-4 -0.02697,0.00182 -0.04296,0.00391 -6.67e-4,-5e-6 -0.0013,-5e-6 -0.002,0 -0.03602,0.00484 -0.07136,0.014749 -0.105446,0.029295 -0.1482456,0.062813 -0.2471566,0.2085602 -0.2479916,0.3691104 v 6.0776259 c 0.0011,0.16808 0.10642,0.305108 0.2440866,0.365205 0.137643,0.06009 0.308196,0.04254 0.433498,-0.06835 l 3.952241,-3.0388131 c 6.66e-4,5e-6 0.0013,5e-6 0.002,0 0.174232,-0.1571689 0.174232,-0.436532 0,-0.5937013 -6.67e-4,-5e-6 -0.0013,-5e-6 -0.002,0 l -3.946383,-3.0368602 -0.0059,-0.00586 c -0.0014,-0.00133 -0.0017,-4.24e-5 -0.0039,-0.00195 -0.07564,-0.065175 -0.171563,-0.098628 -0.269471,-0.097648 -0.0015,1.49e-5 -0.0024,-0.00198 -0.0039,-0.00195 -6.28e-4,1.31e-5 -0.0013,-1.59e-5 -0.002,0 z m -0.0098,0.2656032 c 0.0031,-4.025e-4 0.0081,1.988e-4 0.01367,0 7.92e-4,-2.84e-5 0.0011,2.11e-5 0.002,0 0.03475,-8.802e-4 0.06785,0.010341 0.09373,0.031248 0.0011,9.154e-4 0.0028,9.999e-4 0.0039,0.00195 -5e-6,6.5e-4 -5e-6,0.0013 0,0.00195 l 3.952242,3.0407661 c 0.05832,0.054362 0.05947,0.1455572 0,0.1992024 l -3.952246,3.0388196 c -0.04274,0.03782 -0.108694,0.04248 -0.15231,0.02344 -0.04315,-0.01884 -0.08277,-0.06913 -0.08396,-0.123037 V 5.6939775 c 2.79e-4,-0.053608 0.03461,-0.1032497 0.08592,-0.1249897 0.01183,-0.00511 0.02316,-0.00984 0.0371,-0.011718 z"
     id="path4325"
     sodipodi:nodetypes="cccccccccccccccsscccscccccccsccccc" />
  <path
     id="rect12602"
     style="opacity:1;fill:#78a5d6;fill-opacity:1;stroke:none;stroke-width:0.741619;stroke-linecap:round;stroke-linejoin:round;stroke-miterlimit:4;stroke-dasharray:none;stroke-opacity:1"
     d="m 22.5,19.5 v 2 h 5 v -2 z m -5,5 v 2 h 10 v -2 z m -4,5 v 2 h 14 v -2 z m -5.0000001,5 v 2 H 27.5 v -2 z M 14.5,39.5 v 2 h 13 v -2 z m 3,5 v 2 h 10 v -2 z"
     sodipodi:nodetypes="cccccccccccccccccccccccccccccc"
     transform="scale(0.26458334)" />
  <path
     id="rect13393"
     style="opacity:0.75;fill:#4e81bb;fill-opacity:1;stroke:none;stroke-width:0.999999;stroke-linecap:round;stroke-linejoin:round;stroke-miterlimit:4;stroke-dasharray:none;stroke-opacity:1"
     d="m 22,19 v 3 h 6 v -3 z m 1,1 h 4 v 1 h -4 z m -6,4 v 3 h 11 v -3 z m 1,1 h 9 v 1 h -9 z m -5,4 v 3 h 15 v -3 z m 1,1 h 13 v 1 H 14 Z m -6.0000001,4 v 3 H 28 v -3 z m 1,1 H 27 v 1 H 8.9999999 Z M 14,39 v 3 h 14 v -3 z m 1,1 h 12 v 1 H 15 Z m 2,4 v 3 h 11 v -3 z m 1,1 h 9 v 1 h -9 z"
     sodipodi:nodetypes="cccccccccccccccccccccccccccccccccccccccccccccccccccccccccccc"
     transform="scale(0.26458334)" />
</svg>
