<?xml version="1.0" encoding="UTF-8" standalone="no"?>
<!-- Created with Inkscape (http://www.inkscape.org/) -->

<svg
   width="64"
   height="64"
   viewBox="0 0 16.933333 16.933334"
   version="1.1"
   id="svg5"
   inkscape:version="1.1.2 (0a00cf5339, 2022-02-04, custom)"
   sodipodi:docname="kmix.svg"
   xmlns:inkscape="http://www.inkscape.org/namespaces/inkscape"
   xmlns:sodipodi="http://sodipodi.sourceforge.net/DTD/sodipodi-0.dtd"
   xmlns="http://www.w3.org/2000/svg"
   xmlns:svg="http://www.w3.org/2000/svg">
  <sodipodi:namedview
     id="namedview7"
     pagecolor="#ffffff"
     bordercolor="#666666"
     borderopacity="1.0"
     inkscape:pageshadow="2"
     inkscape:pageopacity="0.0"
     inkscape:pagecheckerboard="0"
     inkscape:document-units="px"
     showgrid="false"
     units="px"
     height="64px"
     showguides="true"
     inkscape:zoom="12.59375"
     inkscape:cx="31.960298"
     inkscape:cy="32"
     inkscape:window-width="1851"
     inkscape:window-height="1009"
     inkscape:window-x="69"
     inkscape:window-y="31"
     inkscape:window-maximized="1"
     inkscape:current-layer="svg5"
     inkscape:lockguides="false" />
  <defs
     id="defs2" />
  <path
     id="rect873"
     style="opacity:0.7;fill:#252831;stroke-width:0.529167;stroke-linejoin:round;fill-opacity:1"
     d="M 3.4395833,1.3229167 H 13.49375 c 1.172633,0 2.116666,0.9440334 2.116666,2.1166666 V 13.49375 c 0,1.172633 -0.944033,2.116666 -2.116666,2.116666 H 3.4395833 c -1.1726333,0 -2.1166666,-0.944033 -2.1166666,-2.116666 V 3.4395833 c 0,-1.1726332 0.9440333,-2.1166666 2.1166666,-2.1166666 z"
     sodipodi:nodetypes="sssssssss" />
  <path
     id="rect874"
     style="opacity:1;fill:#424755;stroke-width:0.529167;stroke-linejoin:round;fill-opacity:1"
     d="M 3.4395832,1.5875 H 13.493749 c 1.026054,0 1.852083,0.8260292 1.852083,1.8520834 V 13.49375 c 0,1.026054 -0.826029,1.852083 -1.852083,1.852083 H 3.4395832 c -1.0260541,0 -1.8520833,-0.826029 -1.8520833,-1.852083 V 3.4395834 C 1.5874999,2.4135292 2.4135291,1.5875 3.4395832,1.5875 Z"
     sodipodi:nodetypes="sssssssss" />
  <path
     id="rect6"
     d="m 3.1750001,2.9104167 c -0.1465792,0 -0.2645833,0.1180042 -0.2645833,0.2645834 0,0.1465791 0.1180041,0.2645833 0.2645833,0.2645833 0.1465792,0 0.2645833,-0.1180042 0.2645833,-0.2645833 0,-0.1465792 -0.1180041,-0.2645834 -0.2645833,-0.2645834 z m 10.5833339,0 c -0.146579,0 -0.264583,0.1180042 -0.264583,0.2645834 0,0.1465791 0.118004,0.2645833 0.264583,0.2645833 0.146579,0 0.264584,-0.1180042 0.264584,-0.2645833 0,-0.1465792 -0.118005,-0.2645834 -0.264584,-0.2645834 z M 3.1750001,13.493751 c -0.1465792,0 -0.2645833,0.118004 -0.2645833,0.264583 0,0.146579 0.1180041,0.264584 0.2645833,0.264584 0.1465792,0 0.2645833,-0.118005 0.2645833,-0.264584 0,-0.146579 -0.1180041,-0.264583 -0.2645833,-0.264583 z m 10.5833339,0 c -0.146579,0 -0.264583,0.118004 -0.264583,0.264583 0,0.146579 0.118004,0.264584 0.264583,0.264584 0.146579,0 0.264584,-0.118005 0.264584,-0.264584 0,-0.146579 -0.118005,-0.264583 -0.264584,-0.264583 z"
     style="fill:#6b7482;fill-opacity:1;stroke-width:0.264583"
     sodipodi:nodetypes="ssssssssssssssssssss" />
  <circle
     style="fill:#7c8295;fill-opacity:1;stroke:none;stroke-width:0.527297;stroke-linecap:round;stroke-linejoin:round"
     id="path1212"
     cx="8.4666662"
     cy="8.4666662"
     r="5.4239583" />
  <path
     id="path7712"
     style="opacity:0.7;fill:#27212f;fill-opacity:1;stroke-width:2;stroke-linecap:round;stroke-linejoin:round"
     d="M 32 11 A 21 21 0 0 0 11 32 A 21 21 0 0 0 32 53 A 21 21 0 0 0 53 32 A 21 21 0 0 0 32 11 z M 32 12 A 19.999999 19.999999 0 0 1 52 32 A 19.999999 19.999999 0 0 1 32 52 A 19.999999 19.999999 0 0 1 12 32 A 19.999999 19.999999 0 0 1 32 12 z "
     transform="scale(0.26458334)" />
  <circle
     style="fill:#282c35;fill-opacity:1;stroke:none;stroke-width:0.529167;stroke-linecap:round;stroke-linejoin:round"
     id="path7311"
     cx="8.4666672"
     cy="8.4666672"
     r="2.3812501" />
  <circle
     style="fill:#424755;fill-opacity:1;stroke:none;stroke-width:0.463021;stroke-linecap:round;stroke-linejoin:round"
     id="path7657"
     cx="8.4666672"
     cy="8.4666672"
     r="1.8520833" />
</svg>
