<?xml version="1.0" encoding="UTF-8" standalone="no"?>
<!-- Created with Inkscape (http://www.inkscape.org/) -->

<svg
   width="64"
   height="64"
   viewBox="0 0 16.933333 16.933334"
   version="1.1"
   id="svg5"
   inkscape:version="1.1.2 (0a00cf5339, 2022-02-04, custom)"
   sodipodi:docname="kontrast.svg"
   xmlns:inkscape="http://www.inkscape.org/namespaces/inkscape"
   xmlns:sodipodi="http://sodipodi.sourceforge.net/DTD/sodipodi-0.dtd"
   xmlns="http://www.w3.org/2000/svg"
   xmlns:svg="http://www.w3.org/2000/svg">
  <sodipodi:namedview
     id="namedview7"
     pagecolor="#ffffff"
     bordercolor="#666666"
     borderopacity="1.0"
     inkscape:pageshadow="2"
     inkscape:pageopacity="0.0"
     inkscape:pagecheckerboard="0"
     inkscape:document-units="px"
     showgrid="false"
     units="px"
     height="64px"
     inkscape:zoom="13.15625"
     inkscape:cx="31.961995"
     inkscape:cy="32"
     inkscape:window-width="1920"
     inkscape:window-height="1019"
     inkscape:window-x="0"
     inkscape:window-y="31"
     inkscape:window-maximized="1"
     inkscape:current-layer="svg5" />
  <defs
     id="defs2" />
  <circle
     style="opacity:1;fill:#69e1a8;fill-opacity:1;stroke-width:0.511861;stroke-linejoin:round"
     id="path24384"
     cx="8.4666672"
     cy="8.4666672"
     r="7.2760415" />
  <path
     id="path6"
     style="fill:#174c5e;stroke-width:0.999999;fill-opacity:1"
     d="M 31.984375 4.5 A 27.499999 27.499999 0 0 0 4.5 32 A 27.499999 27.499999 0 0 0 31.980469 59.5 L 31.982422 38.001953 L 38.160156 38.001953 L 42.044922 48 L 46.177734 48 L 33.822266 16 L 31.984375 16 L 31.984375 4.5 z M 31.982422 20.222656 L 36.958984 34 L 31.982422 34 L 31.982422 20.222656 z "
     transform="scale(0.26458334)" />
  <path
     style="fill:#69e1a8;stroke-width:0.264583;fill-opacity:1"
     d="m 8.4619112,10.053583 -1.1e-6,-1.0577493 H 7.1613888 l 1.2939078,-3.66447 0.00737,-1.0980304 H 7.9964112 L 4.7153023,12.700001 H 5.786038 l 1.0225728,-2.64525 z"
     id="path12" />
  <path
     id="path7088"
     style="opacity:0.5;fill:#1a1a1a;fill-opacity:1;stroke-width:2;stroke-linejoin:round"
     d="M 32 4 A 28 28 0 0 0 4 32 A 28 28 0 0 0 32 60 A 28 28 0 0 0 60 32 A 28 28 0 0 0 32 4 z M 32 5 A 27 27 0 0 1 59 32 A 27 27 0 0 1 32 59 A 27 27 0 0 1 5 32 A 27 27 0 0 1 32 5 z "
     transform="scale(0.26458334)" />
</svg>
