<?xml version="1.0" encoding="UTF-8" standalone="no"?>
<!-- Created with Inkscape (http://www.inkscape.org/) -->

<svg
   width="64"
   height="64"
   viewBox="0 0 16.933333 16.933334"
   version="1.1"
   id="svg5"
   inkscape:version="1.1.2 (0a00cf5339, 2022-02-04, custom)"
   sodipodi:docname="libreofficedev6.0-math.svg"
   xmlns:inkscape="http://www.inkscape.org/namespaces/inkscape"
   xmlns:sodipodi="http://sodipodi.sourceforge.net/DTD/sodipodi-0.dtd"
   xmlns="http://www.w3.org/2000/svg"
   xmlns:svg="http://www.w3.org/2000/svg">
  <sodipodi:namedview
     id="namedview7"
     pagecolor="#ffffff"
     bordercolor="#666666"
     borderopacity="1.0"
     inkscape:pageshadow="2"
     inkscape:pageopacity="0.0"
     inkscape:pagecheckerboard="0"
     inkscape:document-units="px"
     showgrid="false"
     units="px"
     height="64px"
     showguides="true"
     inkscape:zoom="12.484375"
     inkscape:cx="32"
     inkscape:cy="32"
     inkscape:window-width="1920"
     inkscape:window-height="1019"
     inkscape:window-x="0"
     inkscape:window-y="31"
     inkscape:window-maximized="1"
     inkscape:current-layer="svg5" />
  <defs
     id="defs2" />
  <path
     id="rect890"
     style="opacity:0.8;fill:#113838;fill-opacity:1;stroke-width:0.264583;stroke-linejoin:round;stroke-opacity:0.501961"
     d="m 3.96875,1.3229167 c -0.5863167,0 -1.0583333,0.4720166 -1.0583333,1.0583333 v 12.170833 c 0,0.586317 0.4720166,1.058333 1.0583333,1.058333 h 8.995834 c 0.586317,0 1.058333,-0.472016 1.058333,-1.058333 V 2.38125 c 0,-0.5863167 -0.472016,-1.0583333 -1.058333,-1.0583333 z"
     sodipodi:nodetypes="sssssssss" />
  <path
     id="rect1201"
     style="fill:#327870;fill-opacity:1;stroke-width:0.999999;stroke-linejoin:round;stroke-opacity:0.501961"
     d="M 15 6 C 13.338 6 12 7.338 12 9 L 12 55 C 12 56.662002 13.338 58 15 58 L 49 58 C 50.662002 58 52 56.662002 52 55 L 52 9 C 52 7.338 50.662002 6 49 6 L 15 6 z "
     transform="scale(0.26458334)" />
  <path
     id="rect6453"
     style="fill:#f9f9f9;fill-opacity:1;stroke-width:0.515628;stroke-linejoin:round"
     d="M 4.2333334,2.6458334 V 14.2875 H 12.7 V 6.3500002 L 8.9958336,2.6458334 Z m 5.7546882,0 L 12.7,5.3578126 V 2.6458334 Z" />
  <path
     d="M 8.4537477,7.4083334 7.2951621,11.408089 6.4347492,9.2630004 H 4.7625 V 10.0552 H 5.9479574 L 7.106543,12.964584 H 7.6202067 L 8.9984173,8.2026001 H 11.377084 V 7.4083334 Z m 0.3953245,2.1182169 1.2598718,1.6138547 -1.3776939,1.825729 h 0.6878132 l 1.0319787,-1.384412 1.031978,1.384412 h 0.687814 L 10.821045,11.172962 12.104171,9.5265503 H 11.416875 L 10.47688,10.731645 9.5358522,9.5265503 Z"
     style="opacity:0.5;fill:#4d4d4d;stroke-width:0.264583"
     id="path860" />
</svg>
