<?xml version="1.0" encoding="UTF-8" standalone="no"?>
<!-- Created with Inkscape (http://www.inkscape.org/) -->

<svg
   width="64"
   height="64"
   viewBox="0 0 16.933333 16.933334"
   version="1.1"
   id="svg5"
   inkscape:version="1.1.2 (0a00cf5339, 2022-02-04, custom)"
   sodipodi:docname="libreoffice-base.svg"
   xmlns:inkscape="http://www.inkscape.org/namespaces/inkscape"
   xmlns:sodipodi="http://sodipodi.sourceforge.net/DTD/sodipodi-0.dtd"
   xmlns="http://www.w3.org/2000/svg"
   xmlns:svg="http://www.w3.org/2000/svg">
  <sodipodi:namedview
     id="namedview7"
     pagecolor="#ffffff"
     bordercolor="#666666"
     borderopacity="1.0"
     inkscape:pageshadow="2"
     inkscape:pageopacity="0.0"
     inkscape:pagecheckerboard="0"
     inkscape:document-units="px"
     showgrid="false"
     units="px"
     height="64px"
     showguides="false"
     inkscape:zoom="12.484375"
     inkscape:cx="32"
     inkscape:cy="32"
     inkscape:window-width="1920"
     inkscape:window-height="1019"
     inkscape:window-x="0"
     inkscape:window-y="31"
     inkscape:window-maximized="1"
     inkscape:current-layer="svg5" />
  <defs
     id="defs2" />
  <path
     id="rect890"
     style="opacity:0.8;fill:#6f0b59;fill-opacity:1;stroke-width:0.999999;stroke-linejoin:round;stroke-opacity:0.501961"
     d="M 15 5 C 12.784 5 11 6.7839999 11 9 L 11 55 C 11 57.216001 12.784 59 15 59 L 49 59 C 51.216001 59 53 57.216001 53 55 L 53 9 C 53 6.7839999 51.216001 5 49 5 L 15 5 z "
     transform="scale(0.26458334)" />
  <path
     id="rect1201"
     style="fill:#c426b3;fill-opacity:1;stroke-width:0.999999;stroke-linejoin:round;stroke-opacity:0.501961"
     d="M 15 6 C 13.338002 6 12 7.338 12 9 L 12 55 C 12 56.662002 13.338002 58 15 58 L 49 58 C 50.662002 58 52 56.662002 52 55 L 52 9 C 52 7.338 50.662002 6 49 6 L 15 6 z "
     transform="scale(0.26458334)" />
  <path
     id="rect6453"
     style="fill:#f9f9f9;fill-opacity:1;stroke-width:0.515628;stroke-linejoin:round"
     d="M 4.2333334,2.6458334 V 14.2875 H 12.7 V 6.3500002 L 8.9958336,2.6458334 Z m 5.7546877,0 L 12.7,5.3578126 V 2.6458334 Z" />
  <path
     style="opacity:0.5;fill:#4d4d4d;fill-opacity:1;stroke-width:0.264583"
     d="m 8.4676998,7.1437501 -10e-4,0.00103 c -1.1098741,0 -2.0581599,0.3762467 -2.4510132,0.9089885 -0.032978,0.044726 -0.06193,0.090133 -0.086816,0.1369425 -0.023654,0.044486 -0.044022,0.089771 -0.059945,0.135909 a 2.6458334,1.4546874 0 0 0 -0.010853,0.042375 c -0.00907,0.031268 -0.018902,0.062667 -0.024289,0.094568 a 2.6458334,1.4546874 0 0 0 -0.012917,0.135909 c 1.455e-4,0.047268 0.00496,0.094724 0.013435,0.1415934 a 2.6458334,1.4546874 0 0 0 0.036174,0.135909 2.6458334,1.4546874 0 0 0 0.060978,0.1359091 2.6458334,1.4546874 0 0 0 0.084233,0.1322917 2.6458334,1.4546874 0 0 0 2.4510132,0.9089887 2.6458334,1.4546874 0 0 0 2.4510122,-0.9089887 2.6458334,1.4546874 0 0 0 5.29e-4,-0.00156 2.6458334,1.4546874 0 0 0 0.07183,-0.1121378 c 0.0042,-0.00737 0.0095,-0.014817 0.01344,-0.02222 a 2.6458334,1.4546874 0 0 0 0.04341,-0.096635 c 0.0062,-0.015219 0.01385,-0.030157 0.01912,-0.045475 a 2.6458334,1.4546874 0 0 0 0.0217,-0.080615 c 0.0051,-0.021328 0.01058,-0.042624 0.01395,-0.064079 A 2.6458334,1.4546874 0 0 0 11.112531,8.599473 2.6458334,1.4546874 0 0 0 11.098581,8.454779 C 11.074205,8.312951 11.011317,8.1787205 10.918713,8.0532553 10.525542,7.5203009 9.5773622,7.1437501 8.4676998,7.1437501 Z M 6.0156536,9.7895835 A 2.6458334,1.3468641 0 0 0 5.8208335,10.294979 2.6458334,1.3468641 0 0 0 8.4666668,11.641666 2.6458334,1.3468641 0 0 0 11.112499,10.294462 2.6458334,1.3468641 0 0 0 10.917679,9.7895835 2.6458334,1.3468641 0 0 1 8.4666668,10.631392 2.6458334,1.3468641 0 0 1 6.0156536,9.7895835 Z m 0,1.5874995 a 2.6458334,1.3468641 0 0 0 -0.1948201,0.504879 2.6458334,1.3468641 0 0 0 2.6458333,1.347205 2.6458334,1.3468641 0 0 0 2.6458322,-1.346688 2.6458334,1.3468641 0 0 0 -0.19482,-0.505396 2.6458334,1.3468641 0 0 1 -2.4510122,0.842326 2.6458334,1.3468641 0 0 1 -2.4510132,-0.842326 z"
     id="path12" />
</svg>
