<?xml version="1.0" encoding="UTF-8" standalone="no"?>
<!-- Created with Inkscape (http://www.inkscape.org/) -->

<svg
   width="64"
   height="64"
   viewBox="0 0 16.933333 16.933334"
   version="1.1"
   id="svg5"
   inkscape:version="1.1.2 (0a00cf5339, 2022-02-04, custom)"
   sodipodi:docname="libreoffice-impress.svg"
   xmlns:inkscape="http://www.inkscape.org/namespaces/inkscape"
   xmlns:sodipodi="http://sodipodi.sourceforge.net/DTD/sodipodi-0.dtd"
   xmlns="http://www.w3.org/2000/svg"
   xmlns:svg="http://www.w3.org/2000/svg">
  <sodipodi:namedview
     id="namedview7"
     pagecolor="#ffffff"
     bordercolor="#666666"
     borderopacity="1.0"
     inkscape:pageshadow="2"
     inkscape:pageopacity="0.0"
     inkscape:pagecheckerboard="0"
     inkscape:document-units="px"
     showgrid="false"
     units="px"
     height="64px"
     showguides="false"
     inkscape:zoom="11.247417"
     inkscape:cx="18.53759"
     inkscape:cy="36.675087"
     inkscape:window-width="1920"
     inkscape:window-height="1019"
     inkscape:window-x="0"
     inkscape:window-y="31"
     inkscape:window-maximized="1"
     inkscape:current-layer="svg5" />
  <defs
     id="defs2" />
  <path
     id="rect890"
     style="opacity:0.8;fill:#822912;fill-opacity:1;stroke-width:0.999999;stroke-linejoin:round;stroke-opacity:0.501961"
     d="M 15 5 C 12.784 5 11 6.7839999 11 9 L 11 55 C 11 57.216001 12.784 59 15 59 L 49 59 C 51.216001 59 53 57.216001 53 55 L 53 9 C 53 6.7839999 51.216001 5 49 5 L 15 5 z "
     transform="scale(0.26458334)" />
  <path
     id="rect1201"
     style="fill:#e84a00;fill-opacity:1;stroke-width:0.999999;stroke-linejoin:round;stroke-opacity:0.501961"
     d="M 15 6 C 13.338 6 12 7.338 12 9 L 12 55 C 12 56.662002 13.338 58 15 58 L 49 58 C 50.662002 58 52 56.662002 52 55 L 52 9 C 52 7.338 50.662002 6 49 6 L 15 6 z "
     transform="scale(0.26458334)" />
  <path
     id="rect6453"
     style="opacity:1;fill:#f9f9f9;fill-opacity:1;stroke-width:1.94883;stroke-linejoin:round"
     d="M 16 10 L 16 54 L 48 54 L 48 24 L 34 10 L 16 10 z M 37.75 10 L 48 20.25 L 48 10 L 37.75 10 z "
     transform="scale(0.26458334)" />
  <path
     id="path8"
     style="opacity:0.5;fill:#4d4d4d;fill-opacity:1;stroke-width:1.00002"
     d="M 6.8802002,8.2020838 A 1.323026,1.323026 0 0 0 5.5562501,9.5255169 1.323026,1.323026 0 0 0 6.8791668,10.8474 1.323026,1.323026 0 0 0 8.2020834,9.5255169 H 6.8802002 Z m 1.8510498,0 v 0.5291666 h 2.645833 V 8.2020838 Z m 0,1.5875001 v 0.5286501 h 2.645833 V 9.7895839 Z M 5.5562501,11.377601 v 0.528649 h 4.7619829 v -0.528649 z" />
</svg>
