<?xml version="1.0" encoding="UTF-8" standalone="no"?>
<!-- Created with Inkscape (http://www.inkscape.org/) -->

<svg
   width="64"
   height="64"
   viewBox="0 0 16.933333 16.933334"
   version="1.1"
   id="svg5"
   inkscape:version="1.1.2 (0a00cf5339, 2022-02-04, custom)"
   sodipodi:docname="libreoffice-draw.svg"
   xmlns:inkscape="http://www.inkscape.org/namespaces/inkscape"
   xmlns:sodipodi="http://sodipodi.sourceforge.net/DTD/sodipodi-0.dtd"
   xmlns="http://www.w3.org/2000/svg"
   xmlns:svg="http://www.w3.org/2000/svg">
  <sodipodi:namedview
     id="namedview7"
     pagecolor="#ffffff"
     bordercolor="#666666"
     borderopacity="1.0"
     inkscape:pageshadow="2"
     inkscape:pageopacity="0.0"
     inkscape:pagecheckerboard="0"
     inkscape:document-units="px"
     showgrid="false"
     units="px"
     height="64px"
     showguides="false"
     inkscape:zoom="8.3686447"
     inkscape:cx="14.757467"
     inkscape:cy="31.606074"
     inkscape:window-width="1920"
     inkscape:window-height="1019"
     inkscape:window-x="0"
     inkscape:window-y="31"
     inkscape:window-maximized="1"
     inkscape:current-layer="svg5" />
  <defs
     id="defs2" />
  <path
     id="rect890"
     style="opacity:0.8;fill:#9b700f;fill-opacity:1;stroke-width:0.999999;stroke-linejoin:round;stroke-opacity:0.501961"
     d="M 15 5 C 12.784 5 11 6.7839999 11 9 L 11 55 C 11 57.216001 12.784 59 15 59 L 49 59 C 51.216001 59 53 57.216001 53 55 L 53 9 C 53 6.7839999 51.216001 5 49 5 L 15 5 z "
     transform="scale(0.26458334)" />
  <path
     id="rect1201"
     style="fill:#e6a718;fill-opacity:1;stroke-width:0.999999;stroke-linejoin:round;stroke-opacity:0.501961"
     d="M 15 6 C 13.338 6 12 7.338 12 9 L 12 55 C 12 56.662002 13.338 58 15 58 L 49 58 C 50.662002 58 52 56.662002 52 55 L 52 9 C 52 7.338 50.662002 6 49 6 L 15 6 z "
     transform="scale(0.26458334)" />
  <path
     id="rect6453"
     style="fill:#f9f9f9;fill-opacity:1;stroke-width:0.515628;stroke-linejoin:round"
     d="M 4.2333334,2.6458334 V 14.2875 H 12.7 V 6.3500002 L 8.9958336,2.6458334 Z m 5.7546877,0 L 12.7,5.3578126 V 2.6458334 Z" />
  <path
     style="color:#000000;opacity:0.5;fill:#4d4d4d;fill-opacity:1;stroke-width:0.264583;stroke-linecap:square;-inkscape-stroke:none"
     d="m 10.824148,6.8795493 c -0.102191,0.0032 -0.209401,0.026915 -0.315226,0.085783 -0.344637,0.1916989 -0.467045,0.587878 -0.460954,0.9105387 0.0061,0.3226607 0.09215,0.6384801 0.167432,0.9374106 0.07528,0.2989302 0.139294,0.5813629 0.141077,0.7606767 8.99e-4,0.08966 -0.01297,0.147822 -0.02532,0.174667 -0.01235,0.02684 -0.01361,0.03148 -0.05168,0.05064 -0.07499,0.03774 -0.09663,0.03418 -0.131774,0.02584 -0.03515,-0.0083 -0.0952,-0.03807 -0.1746672,-0.110588 C 9.814098,9.5694783 9.6096571,9.2715168 9.3787591,8.9476412 9.147861,8.6237657 8.8834136,8.2696291 8.5167961,8.0081637 8.1501788,7.7466982 7.6560245,7.5985482 7.1080965,7.7234265 l -0.00723,0.00156 -0.00723,0.00206 C 6.7193039,7.8284677 6.4482544,8.1113721 6.2657726,8.4401859 6.0832906,8.769 5.9740137,9.1586543 5.9205739,9.5708663 c -0.012131,0.09357 0.00913,0.19138 0.00259,0.286804 -0.073519,-0.0026 -0.1287494,-0.02161 -0.204122,-0.02325 L 5.1490391,9.8220103 4.779036,9.8137103 4.7625,10.554234 l 0.3705202,0.0083 0.5699908,0.0124 c 0.090472,0.002 0.1398013,0.02113 0.2258261,0.0248 0.048311,0.499778 0.1579706,0.984615 0.4041098,1.382861 l 0.00723,0.01188 0.00827,0.01085 c 0.458328,0.631363 1.193354,0.872299 1.7792195,0.643888 0.292937,-0.114221 0.5443528,-0.391072 0.5973838,-0.738989 C 8.7780814,11.562333 8.6632332,11.18476 8.4005223,10.776985 8.1424734,10.376433 7.7302089,10.14036 7.2713923,10.012174 7.0907147,9.9616953 6.8592653,9.9687083 6.66006,9.9424103 6.6645447,9.8500323 6.6438305,9.7557633 6.6554086,9.6664583 6.6995504,9.3259654 6.7931502,9.015779 6.913274,8.7993279 7.0322928,8.584868 7.1622487,8.4795964 7.2837941,8.4453445 c 0.3438152,-0.075355 0.5665309,-0.0028 0.8030517,0.1658813 0.2394188,0.1707494 0.4689602,0.4579311 0.688847,0.7663614 0.2198867,0.3084301 0.4233071,0.6338478 0.6976316,0.8841838 0.1371624,0.125168 0.3003989,0.236049 0.5033284,0.284221 0.2029302,0.04817 0.4343862,0.01679 0.6361372,-0.08475 0.175693,-0.08843 0.315833,-0.238823 0.391191,-0.40256 0.07536,-0.1637367 0.09513,-0.3314417 0.09353,-0.4919597 -0.0032,-0.3210357 -0.08842,-0.6349202 -0.163814,-0.9343095 -0.0754,-0.2993893 -0.141175,-0.5840733 -0.144694,-0.7704955 -0.0035,-0.1864222 0.0065,-0.2081392 0.0801,-0.2490806 -0.03239,0.018018 -0.02107,9.525e-4 0.04858,0.019637 0.06965,0.018685 0.174171,0.066158 0.272852,0.1240234 0.197361,0.1157306 0.365352,0.258899 0.365352,0.258899 l 0.28112,0.2413289 0.482658,-0.5617229 -0.280603,-0.2413288 c 0,0 -0.206628,-0.1797034 -0.473873,-0.3364138 -0.133622,-0.078354 -0.283984,-0.1544163 -0.455785,-0.2005041 -0.0859,-0.023044 -0.183063,-0.040411 -0.285254,-0.037207 z M 6.6724634,10.681902 c 0.1216192,0.01955 0.2971914,0.01535 0.399459,0.04392 0.3504715,0.09792 0.5664552,0.236234 0.7058998,0.452685 0.200995,0.31198 0.2298806,0.52232 0.214974,0.620117 -0.014907,0.0978 -0.043354,0.124717 -0.1343586,0.160197 C 7.678346,12.029031 7.2384601,11.952721 6.9582341,11.577966 6.819903,11.348874 6.7238696,11.031019 6.6724634,10.681902 Z"
     id="path12" />
</svg>
