<?xml version="1.0" encoding="UTF-8" standalone="no"?>
<!-- Created with Inkscape (http://www.inkscape.org/) -->

<svg
   width="64"
   height="64"
   viewBox="0 0 16.933333 16.933334"
   version="1.1"
   id="svg5"
   inkscape:version="1.1.2 (0a00cf5339, 2022-02-04, custom)"
   sodipodi:docname="lollypop.svg"
   xmlns:inkscape="http://www.inkscape.org/namespaces/inkscape"
   xmlns:sodipodi="http://sodipodi.sourceforge.net/DTD/sodipodi-0.dtd"
   xmlns="http://www.w3.org/2000/svg"
   xmlns:svg="http://www.w3.org/2000/svg">
  <sodipodi:namedview
     id="namedview7"
     pagecolor="#ffffff"
     bordercolor="#666666"
     borderopacity="1.0"
     inkscape:pageshadow="2"
     inkscape:pageopacity="0.0"
     inkscape:pagecheckerboard="0"
     inkscape:document-units="px"
     showgrid="false"
     units="px"
     height="64px"
     inkscape:zoom="12.484375"
     inkscape:cx="31.95995"
     inkscape:cy="32"
     inkscape:window-width="1920"
     inkscape:window-height="1019"
     inkscape:window-x="0"
     inkscape:window-y="31"
     inkscape:window-maximized="1"
     inkscape:current-layer="svg5" />
  <defs
     id="defs2" />
  <circle
     style="opacity:1;fill:#f9f9f9;fill-opacity:1;stroke-width:0.511861;stroke-linejoin:round"
     id="path24384"
     cx="8.4666672"
     cy="8.4666672"
     r="7.2760415" />
  <path
     d="m 8.4587726,1.3229167 c -0.7043468,0 -1.3828682,0.1033087 -2.0249988,0.2934908 C 5.9724257,2.5966667 5.9900351,4.2859998 6.2154265,5.0784248 6.4361218,5.8520667 6.747209,6.5951853 7.0665133,7.3289118 6.5220845,7.2061634 5.9973962,7.0082115 5.5075563,6.7407562 4.6611652,6.2512136 3.4590781,4.8448062 3.136252,3.701366 2.2875412,4.6467354 1.7071356,5.8019217 1.4552083,7.0471612 2.0304258,7.831369 3.3569476,8.587401 4.3336432,8.831585 5.121339,9.02881 5.9184256,9.113336 6.7108173,9.181426 6.344556,9.559442 5.9477742,9.896369 5.4922954,10.165207 c -0.8487391,0.490716 -2.671826,0.828818 -3.8234349,0.534153 0.3854825,1.171102 1.0673016,2.222588 1.9792176,3.052304 1.0905652,-0.08687 2.5098263,-0.930953 3.0650872,-1.526152 0.557609,-0.595199 1.0377394,-1.260837 1.5073046,-1.928821 0.140868,0.524762 0.2324337,1.050697 0.2371297,1.584849 0,0.98613 -0.5869567,2.751771 -1.373478,3.594676 1.1644253,0.228157 2.3672794,0.163615 3.5006074,-0.187834 0.386218,-0.883995 0.382696,-2.448888 0.117392,-3.432668 -0.213652,-0.800643 -0.528261,-1.550806 -0.852261,-2.289228 0.551739,0.129135 1.08,0.313448 1.575391,0.592852 0.849913,0.489542 2.055522,1.901819 2.374826,3.047608 0.821328,-0.924081 1.388111,-2.045962 1.644652,-3.255401 C 14.820208,9.055812 13.389208,8.255169 12.59799,8.069682 11.810295,7.886545 11.001469,7.802019 10.193817,7.730408 10.553652,7.3505152 10.962668,7.0204457 11.40999,6.7489744 12.258729,6.2594317 14.084164,5.9213301 15.234599,6.2159949 14.832761,5.0068217 14.114981,3.9270654 13.155599,3.0885572 12.189468,3.2036057 10.884077,3.9690297 10.187947,4.687495 9.618599,5.2768244 9.1431643,5.9295482 8.6829906,6.5893152 8.5436576,6.0881674 8.4679316,5.5714792 8.4575996,5.0514235 8.4575996,4.0652947 9.0445553,2.299654 9.829903,1.4567485 9.3774473,1.3680585 8.9174903,1.3232409 8.4564256,1.3229167 Z"
     style="fill:#fa4b8c;fill-opacity:1;stroke-width:0.264583"
     id="path916" />
  <circle
     style="fill:#f9f9f9;fill-opacity:1;stroke:none;stroke-width:0.610577;stroke-linejoin:round;stroke-miterlimit:4;stroke-dasharray:none;stroke-opacity:1"
     id="path8788"
     cx="8.4666672"
     cy="8.4666672"
     r="3.96875" />
  <path
     style="color:#000000;fill:#fa4b8c;stroke:none;stroke-width:0.529167;stroke-linejoin:round;-inkscape-stroke:none"
     d="M 7.1141178,6.3503176 C 6.9852839,6.3450259 6.879209,6.4515453 6.8791667,6.5812419 V 10.35186 c -1.6e-6,0.177849 0.1912903,0.288972 0.3443544,0.200127 L 8.8459713,9.609293 10.468526,8.6666518 c 0.152985,-0.088952 0.152985,-0.3111447 0,-0.400096 L 8.8459713,7.3238615 7.2235211,6.3812204 C 7.1902,6.3616412 7.1525824,6.3510584 7.1141178,6.3500001 Z"
     id="path968" />
  <path
     id="path7088"
     style="opacity:0.5;fill:#751c3d;fill-opacity:1;stroke-width:2;stroke-linejoin:round"
     d="M 32 4 A 28 28 0 0 0 4 32 A 28 28 0 0 0 32 60 A 28 28 0 0 0 60 32 A 28 28 0 0 0 32 4 z M 32 5 A 27 27 0 0 1 59 32 A 27 27 0 0 1 32 59 A 27 27 0 0 1 5 32 A 27 27 0 0 1 32 5 z "
     transform="scale(0.26458334)" />
</svg>
