<?xml version="1.0" encoding="UTF-8" standalone="no"?>
<svg
   width="64"
   height="64"
   version="1"
   id="svg28"
   sodipodi:docname="mousepad.svg"
   inkscape:version="1.1.2 (0a00cf5339, 2022-02-04, custom)"
   xmlns:inkscape="http://www.inkscape.org/namespaces/inkscape"
   xmlns:sodipodi="http://sodipodi.sourceforge.net/DTD/sodipodi-0.dtd"
   xmlns="http://www.w3.org/2000/svg"
   xmlns:svg="http://www.w3.org/2000/svg">
  <defs
     id="defs32" />
  <sodipodi:namedview
     id="namedview30"
     pagecolor="#ffffff"
     bordercolor="#666666"
     borderopacity="1.0"
     inkscape:pageshadow="2"
     inkscape:pageopacity="0.0"
     inkscape:pagecheckerboard="0"
     showgrid="false"
     inkscape:zoom="12.59375"
     inkscape:cx="31.960298"
     inkscape:cy="32"
     inkscape:window-width="1851"
     inkscape:window-height="1009"
     inkscape:window-x="69"
     inkscape:window-y="31"
     inkscape:window-maximized="1"
     inkscape:current-layer="svg28" />
  <path
     id="rect5379"
     style="opacity:0.3;stroke-width:2;stroke-linecap:round;stroke-linejoin:round"
     d="m 11,5 h 42 c 1.108,0 2,0.892 2,2 V 44.5 L 40.5,59 H 11 C 9.892,59 9,58.108 9,57 V 7 C 9,5.892 9.892,5 11,5 Z"
     sodipodi:nodetypes="sssccssss" />
  <path
     id="rect2319"
     style="opacity:1;fill:#f0f0f0;stroke-width:2;stroke-linejoin:round;fill-opacity:1"
     d="M 40,44 H 54 L 40,58 Z"
     sodipodi:nodetypes="cccc" />
  <path
     id="rect1073"
     style="opacity:1;fill:#fafafa;fill-opacity:1;stroke-width:2;stroke-linecap:round;stroke-linejoin:round"
     d="m 11,6 h 42 c 0.554,0 1,0.446 1,1 V 43 H 39 V 58 H 11 c -0.554,0 -1,-0.446 -1,-1 V 7 c 0,-0.554 0.446,-1 1,-1 z"
     sodipodi:nodetypes="ssscccssss" />
  <path
     id="rect5798"
     style="opacity:0.5;fill:#0587af;fill-opacity:1;stroke-width:2;stroke-linecap:round;stroke-linejoin:round"
     d="M 11,5 C 9.892,5 9,5.892 9,7 V 17 H 55 V 7 C 55,5.892 54.108,5 53,5 Z"
     sodipodi:nodetypes="ssccsss" />
  <path
     id="rect850"
     style="opacity:1;stroke-width:2;stroke-linecap:round;stroke-linejoin:round;fill:#36c1ec;fill-opacity:1"
     d="m 11,6 h 42 c 0.554,0 1,0.446 1,1 v 9 H 10 V 7 c 0,-0.554 0.446,-1 1,-1 z"
     sodipodi:nodetypes="sssccss" />
  <g
     id="g5095"
     transform="matrix(-0.70710678,-0.70710678,-0.70710678,0.70710678,85.250536,28.022635)">
    <path
       style="color:#000000;fill:#ecdebb;fill-opacity:1;stroke:none;stroke-linecap:round;stroke-linejoin:round;-inkscape-stroke:none"
       d="m 32.5,50.5 -5.5,7 -5.5,-7 z"
       id="path2594" />
    <path
       id="rect3710"
       style="opacity:1;fill:#eec55a;stroke-linecap:round;stroke-linejoin:round"
       d="m 23,12.5 h 8 c 0.831,0 1.5,0.669 1.5,1.5 v 36.5 h -11 V 14 c 0,-0.831 0.669,-1.5 1.5,-1.5 z"
       sodipodi:nodetypes="sssccss" />
    <path
       id="rect4802"
       style="opacity:1;fill:#4d4d4d;fill-opacity:1;stroke:none;stroke-linecap:round;stroke-linejoin:round;stroke-opacity:1"
       d="M 24.642578,54.5 27,57.5 l 2.357422,-3 z" />
    <path
       id="rect1213"
       style="opacity:0.3;fill:#000000;stroke-linecap:round"
       d="m 23,12 c -1.108,0 -2,0.892 -2,2 v 36.498047 h 0.01172 c -0.0031,0.110619 0.03054,0.21915 0.0957,0.308594 l 5.5,7.002929 c 0.200237,0.253698 0.584919,0.253698 0.785156,0 l 5.5,-7.002929 c 0.06795,-0.08844 0.104387,-0.197064 0.103516,-0.308594 H 33 V 14 c 0,-1.108 -0.892,-2 -2,-2 z m 0,1 h 8 c 0.554,0 1,0.446 1,1 V 50 H 22 V 14 c 0,-0.554 0.446,-1 1,-1 z m -0.472656,37.998047 h 8.945312 L 27,56.690429 Z"
       sodipodi:nodetypes="ssccccccccssssssccsscccc" />
  </g>
</svg>
