<?xml version="1.0" encoding="UTF-8" standalone="no"?>
<svg
   width="64"
   height="64"
   version="1"
   id="svg18"
   sodipodi:docname="multimedia-volume-control.svg"
   inkscape:version="1.1.2 (0a00cf5339, 2022-02-04, custom)"
   xmlns:inkscape="http://www.inkscape.org/namespaces/inkscape"
   xmlns:sodipodi="http://sodipodi.sourceforge.net/DTD/sodipodi-0.dtd"
   xmlns="http://www.w3.org/2000/svg"
   xmlns:svg="http://www.w3.org/2000/svg">
  <defs
     id="defs22" />
  <sodipodi:namedview
     id="namedview20"
     pagecolor="#ffffff"
     bordercolor="#666666"
     borderopacity="1.0"
     inkscape:pageshadow="2"
     inkscape:pageopacity="0.0"
     inkscape:pagecheckerboard="0"
     showgrid="false"
     inkscape:zoom="12.59375"
     inkscape:cx="31.960298"
     inkscape:cy="32"
     inkscape:window-width="1851"
     inkscape:window-height="1009"
     inkscape:window-x="69"
     inkscape:window-y="31"
     inkscape:window-maximized="1"
     inkscape:current-layer="svg18" />
  <path
     d="m 32,6.5 c -4.855329,0.0016 -9.609292,1.389297 -13.703,4 h -5.176 c -1.448523,-0.0033 -2.623773,1.171476 -2.621,2.62 v 5.221 C 7.897325,22.422085 6.509945,27.159641 6.5,32 c 0.0016,4.855329 1.389297,9.609292 4,13.703 v 5.176 c -0.0028,1.448524 1.172477,2.623326 2.621,2.62 h 5.22 c 4.081085,2.602675 8.818641,3.990055 13.659,4 4.855329,-0.0016 9.609292,-1.389297 13.703,-4 h 5.176 c 1.448523,0.0033 2.623773,-1.171476 2.621,-2.62 v -5.221 c 2.602493,-4.080799 3.989865,-8.817981 4,-13.658 -0.0016,-4.855329 -1.389297,-9.609292 -4,-13.703 V 13.121 C 53.5033,11.672085 52.327915,10.496672 50.879,10.5 h -5.22 C 41.577915,7.897325 36.840359,6.509946 32,6.5 Z"
     style="color:#000000;fill:#4c5263;stroke:none;-inkscape-stroke:none"
     id="path996" />
  <path
     style="color:#000000;fill:#252831;fill-opacity:1;-inkscape-stroke:none;stroke:none;opacity:0.8"
     d="m 32,6 c -4.895446,0.0016 -9.685856,1.3951665 -13.828125,4 h -5.048828 -0.002 C 11.402495,9.9971164 9.996709,11.402256 10,13.121094 v 5.095703 C 7.4032483,22.346164 6.0100271,27.11785 6,31.998047 V 32 c 0.0016,4.895446 1.3951665,9.685856 4,13.828125 v 5.050781 c -0.00329,1.718838 1.402495,3.122024 3.121094,3.119141 h 5.095703 c 4.129367,2.596752 8.901053,3.989973 13.78125,4 H 32 c 4.895446,-0.0016 9.685856,-1.395167 13.828125,-4 h 5.050781 C 52.597505,54.00093 54.003291,52.597744 54,50.878906 v -5.095703 c 2.596572,-4.129076 3.989782,-8.901396 4,-13.78125 V 32 C 57.9984,27.104554 56.604833,22.314144 54,18.171875 v -5.048828 -0.002 C 54.002885,11.402035 52.596248,9.9960506 50.876953,10 h -5.09375 C 41.653836,7.4032483 36.88215,6.0100271 32.001953,6 Z M 31.998,7 H 32 c 4.744803,0.01012 9.390083,1.3705662 13.390625,3.921875 L 45.513672,11 h 5.365234 0.002 c 1.177882,-0.0027 2.121847,0.941259 2.119141,2.119141 v 0.002 5.322265 l 0.07813,0.123047 c 2.55918,4.012918 3.919951,8.672161 3.921875,13.431641 -0.0099,4.745149 -1.370394,9.389814 -3.921875,13.390625 L 53,45.511719 v 5.367187 0.002 c 0.0023,1.177559 -0.941582,2.119892 -2.119141,2.117188 h -0.002 -5.322265 l -0.123047,0.08008 c -4.012918,2.55918 -8.672161,3.917998 -13.431641,3.919922 -4.745483,-0.0097 -9.391486,-1.368262 -13.392578,-3.919922 l -0.123047,-0.08008 h -5.365234 -0.002 C 11.941582,53.000751 10.997745,52.058418 11,50.880859 v -0.002 -5.322265 L 10.92187,45.433547 C 8.3623443,41.420126 7.0015515,36.760159 7,32 7.0101202,27.255197 8.3705662,22.609917 10.921875,18.609375 L 11,18.486328 V 13.119141 C 10.997745,11.941582 11.941582,10.997296 13.119141,11 h 0.002 5.322265 l 0.123047,-0.07813 C 22.579324,8.3626953 27.238567,7.0019239 31.998047,7 Z"
     id="path869" />
  <path
     id="rect6"
     d="M 14 13 C 13.446 13 13 13.446 13 14 C 13 14.554 13.446 15 14 15 C 14.554 15 15 14.554 15 14 C 15 13.446 14.554 13 14 13 z M 50 13 C 49.446 13 49 13.446 49 14 C 49 14.554 49.446 15 50 15 C 50.554 15 51 14.554 51 14 C 51 13.446 50.554 13 50 13 z M 14 49 C 13.446 49 13 49.446 13 50 C 13 50.554 13.446 51 14 51 C 14.554 51 15 50.554 15 50 C 15 49.446 14.554 49 14 49 z M 50 49 C 49.446 49 49 49.446 49 50 C 49 50.554 49.446 51 50 51 C 50.554 51 51 50.554 51 50 C 51 49.446 50.554 49 50 49 z "
     style="fill:#b2b7bf;fill-opacity:1" />
  <circle
     style="opacity:1;fill:#f5e366;fill-opacity:1;stroke:none;stroke-width:2.09015;stroke-linecap:round;stroke-linejoin:round"
     id="path1212"
     cx="32"
     cy="32"
     r="21.5" />
  <path
     id="path6893"
     style="opacity:0.8;fill:#272a2f;fill-opacity:1;stroke:none;stroke-width:2.08886;stroke-linecap:round;stroke-linejoin:round"
     d="M 32 10 A 22 22 0 0 0 10 32 A 22 22 0 0 0 32 54 A 22 22 0 0 0 54 32 A 22 22 0 0 0 32 10 z M 32 11 A 21 21 0 0 1 53 32 A 21 21 0 0 1 32 53 A 21 21 0 0 1 11 32 A 21 21 0 0 1 32 11 z " />
  <circle
     style="opacity:1;fill:#282c35;fill-opacity:1;stroke:none;stroke-width:2;stroke-linecap:round;stroke-linejoin:round"
     id="path7311"
     cx="32"
     cy="32"
     r="9" />
  <circle
     style="opacity:1;fill:#424755;fill-opacity:1;stroke:none;stroke-width:1.75;stroke-linecap:round;stroke-linejoin:round"
     id="path7657"
     cx="32"
     cy="32"
     r="7" />
</svg>
