<?xml version="1.0" encoding="UTF-8" standalone="no"?>
<!-- Created with Inkscape (http://www.inkscape.org/) -->

<svg
   width="64"
   height="64"
   viewBox="0 0 16.933333 16.933334"
   version="1.1"
   id="svg5"
   inkscape:version="1.1.2 (0a00cf5339, 2022-02-04, custom)"
   sodipodi:docname="multimedia-photo-manager.svg"
   xmlns:inkscape="http://www.inkscape.org/namespaces/inkscape"
   xmlns:sodipodi="http://sodipodi.sourceforge.net/DTD/sodipodi-0.dtd"
   xmlns="http://www.w3.org/2000/svg"
   xmlns:svg="http://www.w3.org/2000/svg">
  <sodipodi:namedview
     id="namedview7"
     pagecolor="#ffffff"
     bordercolor="#666666"
     borderopacity="1.0"
     inkscape:pageshadow="2"
     inkscape:pageopacity="0.0"
     inkscape:pagecheckerboard="0"
     inkscape:document-units="px"
     showgrid="false"
     units="px"
     height="64px"
     showguides="true"
     inkscape:zoom="12.59375"
     inkscape:cx="31.960298"
     inkscape:cy="32"
     inkscape:window-width="1851"
     inkscape:window-height="1009"
     inkscape:window-x="69"
     inkscape:window-y="31"
     inkscape:window-maximized="1"
     inkscape:current-layer="svg5" />
  <defs
     id="defs2" />
  <g
     id="g2521"
     transform="rotate(13,15.031973,9.3442415)">
    <path
       id="rect1541"
       style="opacity:0.3;stroke-width:0.529167;stroke-linecap:round;stroke-linejoin:round"
       d="M 1.3229171,3.96875 H 15.610417 c 0.146579,0 0.264583,0.1180042 0.264583,0.2645833 V 15.610417 c 0,0.146579 -0.118004,0.264583 -0.264583,0.264583 H 1.3229171 c -0.1465792,0 -0.2645834,-0.118004 -0.2645834,-0.264583 V 4.2333333 c 0,-0.1465791 0.1180042,-0.2645833 0.2645834,-0.2645833 z" />
    <path
       id="rect1764"
       style="opacity:1;fill:#f2f2f2;stroke-width:0.529167;stroke-linecap:round;stroke-linejoin:round"
       d="m 1.322917,4.2333336 h 14.2875 V 15.610417 h -14.2875 z" />
    <path
       id="rect2163"
       style="opacity:1;fill:#3c92bb;stroke-width:0.529167;stroke-linecap:round;stroke-linejoin:round"
       d="M 2.1166668,5.0270834 H 14.816667 V 14.816667 H 2.1166668 Z" />
  </g>
  <path
     id="rect1232"
     style="opacity:0.3;stroke-width:0.529167;stroke-linecap:round;stroke-linejoin:round"
     d="M 1.3229167,3.96875 H 15.610417 c 0.146579,0 0.264583,0.1180042 0.264583,0.2645833 V 15.610416 c 0,0.146579 -0.118004,0.264584 -0.264583,0.264584 H 1.3229167 c -0.1465792,0 -0.2645834,-0.118005 -0.2645834,-0.264584 V 4.2333333 c 0,-0.1465791 0.1180042,-0.2645833 0.2645834,-0.2645833 z" />
  <path
     id="rect930"
     style="opacity:1;fill:#f2f2f2;stroke-width:0.529167;stroke-linecap:round;stroke-linejoin:round"
     d="M 1.3229166,4.2333336 H 15.610417 V 15.610417 H 1.3229166 Z" />
  <rect
     style="opacity:1;fill:#f4ba5a;fill-opacity:1;stroke-width:0.529167;stroke-linecap:round;stroke-linejoin:round"
     id="rect2705"
     width="12.7"
     height="9.7895832"
     x="2.1166666"
     y="5.0270834" />
  <path
     d="m 2.1166666,5.0270834 v 4.9958626 c 0.1883833,0.08678 0.427302,0.165894 0.6852709,0.165894 0.5897562,0 1.1660187,-0.4762499 2.1505333,-0.4762499 0.98425,0 1.7245543,0.5990159 2.9657147,0.5990159 1.2408959,0 1.5202959,-0.8659809 3.1027685,-0.8659809 1.582473,0 1.433777,0.548481 2.424642,0.548481 0.682625,0 0.973931,-0.238389 1.371071,-0.389731 V 5.0270834 Z"
     style="fill:#44b3ed;stroke-width:0.264583"
     id="path1692" />
  <path
     d="m 11.020955,8.9960984 c -0.831321,0 -1.3541383,0.235215 -1.7822343,0.45429 -0.428095,0.21934 -0.751152,0.411427 -1.320535,0.411427 -0.5852583,0 -1.04775,-0.139965 -1.508125,-0.28866 -0.460375,-0.148961 -0.92075,-0.310357 -1.4578542,-0.310357 -0.5273146,0 -0.9517063,0.124355 -1.2985751,0.245269 -0.3471333,0.121444 -0.61595,0.230981 -0.8516937,0.230981 -0.2132543,0 -0.4212168,-0.07276 -0.5916084,-0.151606 -0.029256,-0.01397 -0.061242,-0.02129 -0.093662,-0.02143 v 0.9450916 c 0.3564933,0.08776 0.7224194,0.131394 1.0895542,0.12991 0.5831417,0 0.8797396,-0.106362 1.1038417,-0.201877 0.2243667,-0.09578 0.3632729,-0.173302 0.8154459,-0.173302 0.4341812,0 0.7834312,0.141023 1.2123208,0.295804 0.428625,0.155046 0.931598,0.3175 1.6166048,0.3175 0.850106,0 1.40335,-0.26961 1.861608,-0.519377 0.4577293,-0.250031 0.8122713,-0.4691056 1.3925023,-0.4691056 0.45773,0 0.67019,0.1161516 0.9525,0.2524116 0.282311,0.136525 0.62865,0.288661 1.212321,0.288661 0.743479,0 1.069181,-0.275696 1.443302,-0.4471456 v -0.829998 c -0.02713,-9.4e-5 -0.05404,0.0048 -0.07937,0.01455 -0.435505,0.165894 -0.6604,0.375179 -1.291696,0.375179 -0.455083,0 -0.596899,-0.109008 -0.89482,-0.252677 -0.297921,-0.143404 -0.713317,-0.295804 -1.529821,-0.295804 z"
     style="color:#000000;overflow:visible;opacity:0.1;fill:#ffffff;stroke-width:0.264583;marker:none"
     id="path1467" />
  <path
     d="m 11.020955,9.2122634 c -1.5822093,0 -1.8618733,0.8659806 -3.1027693,0.8659806 -1.2408958,0 -1.9814646,-0.5987516 -2.9659792,-0.5987516 -0.9842501,0 -1.5605126,0.47625 -2.1502688,0.47625 -0.2579687,0 -0.4968875,-0.07911 -0.6852708,-0.166158 V 10.28753 c 0.2836333,0.07541 0.6514041,0.137054 1.0895541,0.137054 1.1168063,0 0.9575271,-0.375179 1.9192876,-0.375179 0.962025,0 1.5284979,0.613304 2.8286601,0.613304 1.610519,0 1.980142,-0.9884836 3.2543753,-0.9884836 0.994834,0 1.069711,0.5410726 2.164821,0.5410726 0.739775,0 0.985573,-0.2841616 1.443302,-0.4688406 v -0.375444 c -0.396875,0.151606 -0.68871,0.389731 -1.37107,0.389731 -0.990865,0 -0.842169,-0.548481 -2.424642,-0.548481 z"
     style="color:#000000;overflow:visible;opacity:0.3;fill:#ffffff;stroke-width:0.264583;marker:none"
     id="path1347" />
  <path
     d="m 11.020955,9.4432444 c -1.5822093,0 -1.8618733,0.8659816 -3.1027693,0.8659816 -1.2408958,0 -1.9814646,-0.5990166 -2.9659792,-0.5990166 -0.9842501,0 -1.5605126,0.4762496 -2.1502688,0.4762496 -0.2579689,0 -0.4968876,-0.07911 -0.685271,-0.165894 v 0.497946 c 0.2836334,0.07541 0.6514043,0.137054 1.0895543,0.137054 1.1168063,0 0.9575271,-0.375179 1.9192876,-0.375179 0.962025,0 1.5284979,0.613304 2.8286601,0.613304 1.610519,0 1.980142,-0.9887476 3.2543753,-0.9887476 0.994834,0 1.069711,0.5413376 2.164821,0.5413376 0.739775,0 0.985573,-0.284427 1.443302,-0.4691066 v -0.375179 c -0.396875,0.151342 -0.68871,0.389732 -1.37107,0.389732 -0.990865,0 -0.842169,-0.548482 -2.424642,-0.548482 z"
     style="color:#000000;overflow:visible;fill:#ffffff;stroke-width:0.264583;marker:none"
     id="path1227" />
  <path
     d="m 4.3939505,11.114017 c 0.1256771,-0.04207 0.5315479,0.804862 0.6577542,0.844814 0.1307041,0.0418 1.0263187,-0.385498 1.1101917,-0.28231 0.081227,0.100012 -0.645848,0.726546 -0.6474355,0.852487 -0.00132,0.13044 0.7051146,0.803011 0.6270625,0.910432 C 6.0658524,13.543156 5.2107193,13.08384 5.0837193,13.12141 4.9519568,13.1603 4.4929047,14.003531 4.360613,13.96649 4.2330838,13.93077 4.431521,13.020075 4.354523,12.917417 4.274619,12.811319 3.2842834,12.659712 3.2808438,12.529273 c -0.0037,-0.125942 0.9741958,-0.229129 1.0538354,-0.3302 0.082021,-0.104775 -0.070644,-1.0414 0.059267,-1.084792 z"
     style="color:#000000;overflow:visible;fill:#f25609;stroke-width:0.264583;marker:none"
     id="path888" />
  <circle
     style="fill:#f9f9f9;stroke-width:0.511529;stroke-linejoin:round;fill-opacity:1"
     id="path1011"
     cx="12.964584"
     cy="12.964583"
     r="3.8364584" />
  <path
     id="path845"
     style="opacity:0.2;fill:#000000;stroke-width:2.05694;stroke-linejoin:round;fill-opacity:1"
     d="M 49 34 A 15 15 0 0 0 34 49 A 15 15 0 0 0 49 64 A 15 15 0 0 0 64 49 A 15 15 0 0 0 49 34 z M 49 35 A 14 14 0 0 1 63 49 A 14 14 0 0 1 49 63 A 14 14 0 0 1 35 49 A 14 14 0 0 1 49 35 z "
     transform="scale(0.26458334)" />
  <circle
     style="opacity:1;fill:#808080;fill-opacity:1;stroke-width:0.176389;stroke-linecap:round;stroke-linejoin:round"
     id="path1337"
     cx="12.964583"
     cy="12.964583"
     r="2.6458333" />
  <circle
     style="opacity:1;fill:#666666;fill-opacity:1;stroke-width:0.176389;stroke-linecap:round;stroke-linejoin:round"
     id="path1661"
     cx="12.964583"
     cy="12.964583"
     r="2.1166668" />
  <circle
     style="opacity:0.3;fill:#000000;fill-opacity:1;stroke-width:0.529167;stroke-linecap:round;stroke-linejoin:round"
     id="path3466"
     cx="12.964583"
     cy="12.964583"
     r="1.3229166" />
  <circle
     style="opacity:1;fill:#333333;fill-opacity:1;stroke-width:0.132291;stroke-linecap:round;stroke-linejoin:round"
     id="path1886"
     cx="12.964583"
     cy="12.964583"
     r="1.0583334" />
  <circle
     style="opacity:0.4;fill:#ffffff;fill-opacity:1;stroke-width:0.105833;stroke-linecap:round;stroke-linejoin:round"
     id="path2100"
     cx="12.3825"
     cy="12.3825"
     r="0.21166667" />
  <circle
     style="opacity:0.4;fill:#ffffff;fill-opacity:1;stroke-width:0.529167;stroke-linecap:round;stroke-linejoin:round"
     id="path3614"
     cx="12.567708"
     cy="12.567708"
     r="0.13229167" />
</svg>
