<?xml version="1.0" encoding="UTF-8" standalone="no"?>
<!-- Created with Inkscape (http://www.inkscape.org/) -->

<svg
   width="64"
   height="64"
   viewBox="0 0 16.933333 16.933334"
   version="1.1"
   id="svg5"
   inkscape:version="1.1.2 (0a00cf5339, 2022-02-04, custom)"
   sodipodi:docname="nvidia.svg"
   xmlns:inkscape="http://www.inkscape.org/namespaces/inkscape"
   xmlns:sodipodi="http://sodipodi.sourceforge.net/DTD/sodipodi-0.dtd"
   xmlns="http://www.w3.org/2000/svg"
   xmlns:svg="http://www.w3.org/2000/svg">
  <sodipodi:namedview
     id="namedview7"
     pagecolor="#ffffff"
     bordercolor="#666666"
     borderopacity="1.0"
     inkscape:pageshadow="2"
     inkscape:pageopacity="0.0"
     inkscape:pagecheckerboard="0"
     inkscape:document-units="px"
     showgrid="false"
     units="px"
     height="64px"
     showguides="false"
     inkscape:zoom="13.15625"
     inkscape:cx="31.961995"
     inkscape:cy="32"
     inkscape:window-width="1920"
     inkscape:window-height="1019"
     inkscape:window-x="0"
     inkscape:window-y="31"
     inkscape:window-maximized="1"
     inkscape:current-layer="svg5" />
  <defs
     id="defs2" />
  <path
     id="rect890"
     style="opacity:0.9;fill:#5b5b5b;fill-opacity:1;stroke-width:0.264583;stroke-linejoin:round;stroke-opacity:0.501961"
     d="m 2.38125,1.3229167 c -0.5863167,0 -1.0583333,0.4720167 -1.0583333,1.0583334 V 14.552084 c 0,0.586317 0.4720166,1.058333 1.0583333,1.058333 h 12.170834 c 0.586317,0 1.058333,-0.472016 1.058333,-1.058333 V 2.3812501 c 0,-0.5863167 -0.472016,-1.0583334 -1.058333,-1.0583334 z"
     sodipodi:nodetypes="sssssssss" />
  <path
     id="rect6085"
     style="opacity:0.9;fill:#309722;fill-opacity:1;stroke-width:0.999999;stroke-linecap:round;stroke-linejoin:round"
     d="M 28 5 L 28 59 L 55 59 C 57.216001 59 59 57.216001 59 55 L 59 9 C 59 6.7839999 57.216001 5 55 5 L 28 5 z "
     transform="scale(0.26458334)" />
  <path
     id="rect1201"
     style="fill:#333333;fill-opacity:1;stroke-width:0.264583;stroke-linejoin:round;stroke-opacity:0.501961"
     d="m 2.38125,1.5875001 c -0.4397375,0 -0.79375,0.3540123 -0.79375,0.79375 V 14.552084 c 0,0.439738 0.3540125,0.79375 0.79375,0.79375 h 10.583334 c 0.439738,0 0.79375,-0.354012 0.79375,-0.79375 V 2.3812501 c 0,-0.4397377 -0.354012,-0.79375 -0.79375,-0.79375 z"
     sodipodi:nodetypes="sssssssss" />
  <path
     id="rect1528"
     style="opacity:1;fill:#4bd239;fill-opacity:1;stroke-width:0.999999;stroke-linecap:round;stroke-linejoin:round"
     d="M 28 6 L 28 21.583984 C 28.031248 21.582568 28.058944 21.581618 28.091797 21.580078 C 28.231643 21.580078 28.367968 21.568359 28.507812 21.568359 C 37.563743 21.507891 43.441406 29.392578 43.441406 29.392578 C 43.441406 29.392578 36.479494 38.046875 29.222656 38.046875 C 28.84527 38.047506 28.467249 38.02837 28.091797 37.990234 L 28.091797 40.269531 C 28.358938 40.288051 28.633755 40.296875 28.912109 40.296875 C 35.662481 40.296875 40.547103 36.774114 45.275391 32.597656 C 46.057764 33.240191 49.266183 34.800269 49.923828 35.484375 C 45.429887 39.335799 34.95143 42.439453 29.013672 42.439453 C 28.706022 42.439 28.398813 42.427857 28.091797 42.408203 L 28.091797 42.404297 C 28.057911 42.402218 28.031669 42.400406 28 42.398438 L 28 58 L 55 58 C 56.662002 58 58 56.662002 58 55 L 58 9 C 58 7.3379993 56.662002 6 55 6 L 28 6 z M 28 42.398438 L 28 40.261719 C 27.794842 40.245247 27.630347 40.219647 27.419922 40.193359 C 19.157713 39.131263 16.333984 29.814453 16.333984 29.814453 C 16.333984 29.814453 20.030801 24.220984 27.419922 23.646484 C 27.626949 23.63334 27.797878 23.615894 28 23.611328 L 28 21.583984 C 27.801168 21.592999 27.625697 21.600855 27.419922 21.617188 C 19.237084 22.293735 12.150391 29.388672 12.150391 29.388672 C 12.150391 29.388672 16.160488 41.263036 27.419922 42.351562 C 27.628957 42.374426 27.798536 42.385913 28 42.398438 z M 28 23.611328 L 28 26.095703 C 28.031678 26.093373 28.0579 26.089945 28.091797 26.087891 C 28.292116 26.076552 28.561526 26.066406 28.765625 26.066406 C 33.051696 26.066406 35.595703 29.482422 35.595703 29.482422 L 32.109375 32.492188 C 30.703362 30.095917 30.072308 28.900818 28.091797 28.447266 C 28.059285 28.439679 28.030873 28.43308 28 28.425781 L 28 36.085938 C 28.030763 36.093077 28.060855 36.100872 28.091797 36.107422 C 28.091797 36.50428 28.95805 36.236328 29.396484 36.236328 C 34.480052 36.236328 39.222656 29.494141 39.222656 29.494141 C 39.222656 29.494141 35.047107 23.775329 28.710938 23.603516 C 28.506544 23.597973 28.30062 23.599091 28.091797 23.605469 L 28.091797 23.609375 C 28.059723 23.609375 28.03035 23.610643 28 23.611328 z M 28 36.085938 C 27.803192 36.04026 27.609293 35.983365 27.419922 35.912109 C 23.901113 34.70263 22.755859 30.496094 22.755859 30.496094 C 22.755859 30.496094 24.796372 27.989281 27.404297 28.310547 L 27.419922 28.310547 C 27.6498 28.342927 27.81553 28.38217 28 28.425781 L 28 26.095703 C 27.798551 26.110523 27.628947 26.129489 27.419922 26.152344 C 22.442187 26.704166 19.445315 30.101564 19.445312 30.101562 C 19.445312 30.101562 21.17602 36.743326 27.419922 37.884766 C 27.626103 37.924028 27.795513 37.952056 28 37.978516 L 28 36.085938 z M 28 37.978516 L 28 40.261719 C 28.029337 40.264074 28.056495 40.26764 28.087891 40.269531 L 28.087891 37.990234 C 28.055452 37.986346 28.030348 37.982442 28 37.978516 z "
     transform="scale(0.26458334)" />
</svg>
