<?xml version="1.0" encoding="UTF-8" standalone="no"?>
<!-- Created with Inkscape (http://www.inkscape.org/) -->

<svg
   width="64"
   height="64"
   viewBox="0 0 16.933333 16.933334"
   version="1.1"
   id="svg5"
   inkscape:version="1.1.2 (0a00cf5339, 2022-02-04, custom)"
   sodipodi:docname="office-calendar.svg"
   xmlns:inkscape="http://www.inkscape.org/namespaces/inkscape"
   xmlns:sodipodi="http://sodipodi.sourceforge.net/DTD/sodipodi-0.dtd"
   xmlns="http://www.w3.org/2000/svg"
   xmlns:svg="http://www.w3.org/2000/svg">
  <sodipodi:namedview
     id="namedview7"
     pagecolor="#ffffff"
     bordercolor="#666666"
     borderopacity="1.0"
     inkscape:pageshadow="2"
     inkscape:pageopacity="0.0"
     inkscape:pagecheckerboard="0"
     inkscape:document-units="px"
     showgrid="false"
     units="px"
     height="64px"
     showguides="false"
     inkscape:zoom="12.59375"
     inkscape:cx="31.960298"
     inkscape:cy="32"
     inkscape:window-width="1851"
     inkscape:window-height="1009"
     inkscape:window-x="69"
     inkscape:window-y="31"
     inkscape:window-maximized="1"
     inkscape:current-layer="svg5" />
  <defs
     id="defs2" />
  <path
     id="rect890"
     style="opacity:0.2;fill:#000000;stroke-width:0.264583;stroke-linejoin:round;stroke-opacity:0.501961"
     d="m 2.38125,1.3229167 c -0.5863167,0 -1.0583333,0.4720166 -1.0583333,1.0583333 v 12.170833 c 0,0.586317 0.4720166,1.058334 1.0583333,1.058334 h 12.170834 c 0.586317,0 1.058333,-0.472017 1.058333,-1.058334 V 2.38125 c 0,-0.5863167 -0.472016,-1.0583333 -1.058333,-1.0583333 z"
     sodipodi:nodetypes="sssssssss" />
  <path
     id="rect1201"
     style="fill:#fafafa;fill-opacity:1;stroke-width:0.264583;stroke-linejoin:round;stroke-opacity:0.501961"
     d="m 2.38125,1.5875 c -0.4397375,0 -0.79375,0.3540123 -0.79375,0.79375 v 12.170833 c 0,0.439738 0.3540125,0.79375 0.79375,0.79375 h 12.170834 c 0.439738,0 0.79375,-0.354012 0.79375,-0.79375 V 2.38125 c 0,-0.4397377 -0.354012,-0.79375 -0.79375,-0.79375 z"
     sodipodi:nodetypes="sssssssss" />
  <path
     id="rect990"
     style="opacity:0.4;fill:#126400;fill-opacity:1;stroke-width:0.264583;stroke-linejoin:round;stroke-opacity:0.501961"
     d="m 2.38125,1.3229167 c -0.5863167,0 -1.0583333,0.4720166 -1.0583333,1.0583333 V 4.7625 H 15.610417 V 2.38125 c 0,-0.5863167 -0.472017,-1.0583333 -1.058333,-1.0583333 z"
     sodipodi:nodetypes="ssccsss" />
  <path
     id="rect4603"
     style="fill:#97da46;fill-opacity:1;stroke-width:0.25227;stroke-linejoin:round;stroke-opacity:0.501961"
     d="M 2.38125,1.5875 C 1.9415125,1.5875 1.5875,1.9449872 1.5875,2.38125 V 4.4979167 H 15.345834 V 2.38125 c 0,-0.4397375 -0.354012,-0.79375 -0.79375,-0.79375 z"
     sodipodi:nodetypes="ssccsss" />
  <path
     style="color:#000000;opacity:0.25;fill:#5e553c;stroke-width:0.264583;-inkscape-stroke:none"
     d="M 2.9104167,6.6145834 V 13.758334 H 14.022917 l -0.0083,-7.1354824 -0.131775,-5.291e-4 z m 0.2645834,0.2645833 1.8593181,0.00156 -0.00362,1.585939 H 3.1750001 Z m 2.1239015,0.00156 1.8479493,0.00156 -5.29e-4,1.584378 H 5.2952717 Z m 2.1125323,0.00156 1.847433,0.00156 5.29e-4,1.5828492 h -1.848466 z m 2.112016,0.00156 1.8427821,0.00156 0.0026,1.5812559 H 9.5239759 Z m 2.1073651,0.00156 2.119767,0.00156 0.0021,1.5796949 H 11.633399 Z M 3.1750001,8.7312501 h 1.855184 l -0.00259,1.3229169 h -1.852594 z m 2.1197674,0 h 1.8510494 l -5.29e-4,1.3229169 H 5.2921711 Z m 2.1156334,0 h 1.849499 l 5.17e-4,1.3229169 h -1.850533 z m 2.114083,0 h 1.8448481 l 0.0021,1.3229169 H 9.5250359 Z m 2.1094321,0 h 2.118733 l 0.0016,1.3229169 H 11.635983 Z M 3.1750001,10.31875 h 1.8515666 l -0.00259,1.322917 H 3.1750001 Z m 2.11615,0 h 1.8541498 l -5.29e-4,1.322917 H 5.2885537 Z m 2.1187338,0 h 1.850533 l 5.29e-4,1.322917 h -1.851579 z m 2.115116,0 h 1.8469161 l 0.0021,1.322917 H 9.5255499 Z m 2.1114991,0 h 2.118217 l 0.0016,1.322917 h -2.11775 z m -8.4614989,1.587501 h 1.848466 l -0.0031,1.5875 h -1.845366 z m 2.1130493,0 h 1.8567345 l -0.001,1.5875 H 5.2849488 Z m 2.1213175,0 h 1.851567 l 0.001,1.5875 h -1.853632 z m 2.11615,0 H 11.3745 l 0.0026,1.5875 H 9.5265669 Z m 2.1135661,0 h 2.117184 l 0.0021,1.5875 H 11.6417 Z"
     id="path10" />
  <path
     id="path1656"
     style="opacity:0.4;fill:#126400;fill-opacity:1;stroke-width:1.5;stroke-linecap:round;stroke-linejoin:round"
     d="M 12.5 10 A 1.5 1.5 0 0 0 11 11.5 A 1.5 1.5 0 0 0 12.5 13 A 1.5 1.5 0 0 0 14 11.5 A 1.5 1.5 0 0 0 12.5 10 z M 51.5 10 A 1.5 1.5 0 0 0 50 11.5 A 1.5 1.5 0 0 0 51.5 13 A 1.5 1.5 0 0 0 53 11.5 A 1.5 1.5 0 0 0 51.5 10 z "
     transform="scale(0.26458334)" />
</svg>
