<?xml version="1.0" encoding="UTF-8" standalone="no"?>
<!-- Created with Inkscape (http://www.inkscape.org/) -->

<svg
   width="64"
   height="64"
   viewBox="0 0 16.933333 16.933334"
   version="1.1"
   id="svg5"
   inkscape:version="1.1.2 (0a00cf5339, 2022-02-04, custom)"
   sodipodi:docname="onboard.svg"
   xmlns:inkscape="http://www.inkscape.org/namespaces/inkscape"
   xmlns:sodipodi="http://sodipodi.sourceforge.net/DTD/sodipodi-0.dtd"
   xmlns="http://www.w3.org/2000/svg"
   xmlns:svg="http://www.w3.org/2000/svg">
  <sodipodi:namedview
     id="namedview7"
     pagecolor="#ffffff"
     bordercolor="#666666"
     borderopacity="1.0"
     inkscape:pageshadow="2"
     inkscape:pageopacity="0.0"
     inkscape:pagecheckerboard="0"
     inkscape:document-units="px"
     showgrid="false"
     units="px"
     height="64px"
     showguides="true"
     inkscape:zoom="12.484375"
     inkscape:cx="32"
     inkscape:cy="32"
     inkscape:window-width="1920"
     inkscape:window-height="1019"
     inkscape:window-x="0"
     inkscape:window-y="31"
     inkscape:window-maximized="1"
     inkscape:current-layer="svg5" />
  <defs
     id="defs2" />
  <path
     id="rect890"
     style="opacity:0.6;fill:#808080;fill-opacity:1;stroke-width:0.529166;stroke-linejoin:round;stroke-opacity:0.501961"
     d="m 3.4395833,1.3229167 c -1.1726334,0 -2.1166666,0.9440334 -2.1166666,2.116667 V 13.493751 c 0,1.172634 0.9440332,2.116668 2.1166666,2.116668 H 13.493751 c 1.172634,0 2.116666,-0.944034 2.116666,-2.116668 V 3.4395837 c 0,-1.1726336 -0.944032,-2.116667 -2.116666,-2.116667 z"
     sodipodi:nodetypes="sssssssss" />
  <rect
     style="opacity:1;fill:#f0f0f0;fill-opacity:1;stroke-width:0.529167;stroke-linejoin:round"
     id="rect1545"
     width="13.758333"
     height="13.758333"
     x="1.5875"
     y="1.5875"
     ry="1.8520833" />
  <path
     id="rect1945"
     style="opacity:1;fill:#f0c734;fill-opacity:1;stroke-width:2;stroke-linejoin:round"
     d="M 13 6 C 9.1220001 6 6 9.1220001 6 13 L 6 32 L 32 32 L 32 6 L 13 6 z "
     transform="scale(0.26458334)" />
  <path
     id="rect2703"
     style="opacity:1;fill:#629df3;fill-opacity:1;stroke-width:2;stroke-linejoin:round"
     d="M 32 32 L 32 58 L 51 58 C 54.878 58 58 54.878 58 51 L 58 32 L 32 32 z "
     transform="scale(0.26458334)" />
  <path
     d="m 5.0270832,2.9104166 c -0.3961678,0 -0.7565906,0.094536 -1.0810711,0.2831868 C 3.6253051,3.3784818 3.3727974,3.6329009 3.187919,3.9573812 3.0030409,4.2818614 2.9104166,4.6384615 2.9104166,5.0270834 c 0,0.3886218 0.092624,0.7452216 0.2775024,1.0697021 C 3.3727974,6.4212658 3.6253051,6.6775962 3.9460121,6.8662476 4.2704926,7.051126 4.6309154,7.14375 5.0270832,7.14375 5.4232511,7.14375 5.7817625,7.051126 6.1024698,6.8662476 6.4269501,6.6775962 6.6813692,6.4212658 6.8662476,6.0967855 7.0511257,5.772305 7.14375,5.4157052 7.14375,5.0270834 7.14375,4.6384615 7.051126,4.2818614 6.8662476,3.9573812 6.6813692,3.6329009 6.4269501,3.3784818 6.1024698,3.1936034 5.7817625,3.0049523 5.4232511,2.9104166 5.0270832,2.9104166 Z m 0,0.7245036 c 0.2490198,0 0.4771962,0.05822 0.6847129,0.1751833 0.2075164,0.1169638 0.369828,0.2811867 0.4867918,0.4924764 0.1207371,0.2112893 0.1813843,0.4528455 0.1813843,0.7245035 0,0.271658 -0.060647,0.5132141 -0.1813843,0.7245034 C 6.0816241,5.9628764 5.9193125,6.1270994 5.7117961,6.2440632 5.5042794,6.361027 5.276103,6.4192465 5.0270832,6.4192465 4.7780634,6.4192465 4.549887,6.3610265 4.3423704,6.2440632 4.1386272,6.1270994 3.9763153,5.9628764 3.8555786,5.7515868 c -0.1169641,-0.2112893 -0.1757,-0.4528454 -0.1757,-0.7245034 0,-0.271658 0.058736,-0.5132142 0.1757,-0.7245035 C 3.9763153,4.0912902 4.1386272,3.9270673 4.3423704,3.8101035 4.549887,3.6931396 4.7780634,3.6349202 5.0270832,3.6349202 Z m 5.5562508,6.1546634 v 4.2333334 h 1.714624 c 0.256207,0 0.488723,-0.04751 0.697632,-0.14211 0.212849,-0.09854 0.38062,-0.236037 0.502812,-0.413411 0.126132,-0.181316 0.189135,-0.388593 0.189135,-0.621151 0,-0.240441 -0.06526,-0.445459 -0.195336,-0.61495 -0.130075,-0.173433 -0.305335,-0.299439 -0.526067,-0.378271 v -0.04754 c 0.169491,-0.08277 0.305244,-0.200776 0.407727,-0.354501 0.106425,-0.157666 0.159681,-0.342672 0.159681,-0.555521 0,-0.201025 -0.05726,-0.386548 -0.171566,-0.556039 -0.114308,-0.169491 -0.271815,-0.303502 -0.47284,-0.4020427 -0.197083,-0.098542 -0.413591,-0.1477947 -0.65009,-0.1477947 z m 0.7984,0.7152014 h 0.821656 c 0.165549,0 0.2973,0.04925 0.395841,0.147795 0.102483,0.0946 0.153996,0.213118 0.153996,0.355017 0,0.145842 -0.05326,0.267845 -0.15968,0.366386 -0.102483,0.0946 -0.240496,0.14211 -0.413928,0.14211 h -0.797885 z m 0,1.697055 h 0.862997 c 0.204966,-1e-6 0.362473,0.05151 0.472839,0.153995 0.110367,0.102484 0.165881,0.234234 0.165881,0.395842 0,0.161607 -0.05552,0.293875 -0.165881,0.396358 -0.106425,0.09854 -0.255927,0.147795 -0.449068,0.147795 h -0.886768 z"
     style="font-weight:bold;font-size:5.65954px;line-height:1.25;font-family:'Google Sans';-inkscape-font-specification:'Google Sans Bold';stroke-width:0.141489;fill:#333333"
     id="path8555" />
</svg>
