<?xml version="1.0" encoding="UTF-8" standalone="no"?>
<!-- Created with Inkscape (http://www.inkscape.org/) -->

<svg
   width="64"
   height="64"
   viewBox="0 0 16.933333 16.933334"
   version="1.1"
   id="svg5"
   inkscape:version="1.1.2 (0a00cf5339, 2022-02-04)"
   sodipodi:docname="opensuse.svg"
   xmlns:inkscape="http://www.inkscape.org/namespaces/inkscape"
   xmlns:sodipodi="http://sodipodi.sourceforge.net/DTD/sodipodi-0.dtd"
   xmlns="http://www.w3.org/2000/svg"
   xmlns:svg="http://www.w3.org/2000/svg">
  <sodipodi:namedview
     id="namedview7"
     pagecolor="#ffffff"
     bordercolor="#666666"
     borderopacity="1.0"
     inkscape:pageshadow="2"
     inkscape:pageopacity="0.0"
     inkscape:pagecheckerboard="0"
     inkscape:document-units="px"
     showgrid="false"
     units="px"
     height="64px"
     inkscape:zoom="15.4375"
     inkscape:cx="32"
     inkscape:cy="31.51417"
     inkscape:window-width="1920"
     inkscape:window-height="1011"
     inkscape:window-x="0"
     inkscape:window-y="0"
     inkscape:window-maximized="1"
     inkscape:current-layer="svg5"
     showguides="false" />
  <defs
     id="defs2" />
  <circle
     style="opacity:0.8;fill:#5b892d;fill-opacity:1;stroke-width:0.548766;stroke-linecap:round;stroke-linejoin:round"
     id="path1150"
     cx="8.4666672"
     cy="8.4666672"
     r="7.4083333" />
  <circle
     style="opacity:1;fill:#81c141;fill-opacity:1;stroke-width:0.502554;stroke-linejoin:round"
     id="path24384"
     cx="8.4666672"
     cy="8.4666672"
     r="7.1437502" />
  <path
     d="m 8.5127329,2.7522074 c -2.2727911,0 -3.5716879,0.930556 -4.419123,1.9791263 0.6494704,0.1781402 1.1033176,0.3264688 1.2495573,0.3748675 0.00175,-0.098204 0.017468,-0.9828589 0.017468,-0.9828589 l 0.012764,-0.028215 0.03292,-0.010081 c 0.1998392,0.028893 4.4610531,0.6590422 6.2557868,1.70502 0.222197,0.1307047 0.331328,0.2671059 0.468915,0.4077822 0.495993,0.5128467 1.15488,2.6476511 1.224666,3.0889634 l -0.02822,0.045688 c -0.0256,0.00947 -0.08826,0.053073 -0.169969,0.1088353 C 12.738794,9.734149 11.759699,10.419453 10.504585,10.307958 9.3757836,10.207316 7.9030893,9.5598685 6.1264318,8.3899503 6.2046488,8.5744167 6.5739369,9.4512629 6.6356558,9.59854 l 0.025527,0.030231 c 0.2572824,0.1329047 2.7255858,1.391352 3.9501762,1.365793 0.988267,-0.01964 2.043282,-0.501912 2.465481,-0.755127 l 0.134357,-0.02553 c 0.03752,0.02945 0.03171,0.08678 0.02016,0.139735 -0.02595,0.120985 -0.08395,0.342974 -0.124281,0.446075 l -0.03291,0.08599 c -0.04804,0.127652 -0.09497,0.250837 -0.184748,0.324483 -0.248993,0.226531 -0.647582,0.405686 -1.269708,0.678519 -0.96219,0.420457 -2.5213394,0.684934 -3.9703274,0.676503 -0.5181362,-0.01259 -1.0204927,-0.06964 -1.4612864,-0.120014 -0.9198142,-0.104455 -1.6670888,-0.188909 -2.1135129,0.157799 1.0856857,1.227036 2.6718022,2.001944 4.4392736,2.001944 3.2731321,0 5.9293031,-2.653281 5.9293031,-5.9266366 0,-3.2729117 -2.656023,-5.9266377 -5.9293031,-5.9266377 h -6.88e-4 z M 10.079364,5.8888805 C 9.6257103,5.8956905 9.1988146,6.0652867 8.8654419,6.3779538 8.5084509,6.708638 8.3028705,7.1609369 8.2856758,7.6476617 8.2530738,8.6509676 9.0428036,9.497884 10.046479,9.5354438 c 0.488873,0.015785 0.951373,-0.1582558 1.307342,-0.4917552 0.354909,-0.331751 0.55986,-0.7809828 0.577751,-1.2670409 0.03436,-1.0047129 -0.75535,-1.8516294 -1.760805,-1.887782 -0.03045,-0.00101 -0.06112,-4.498e-4 -0.09137,0 z m -0.04837,0.5374423 c 0.04184,-0.00254 0.08185,-0.00159 0.124282,0 0.701032,0.024559 1.252224,0.6122734 1.22874,1.3147501 -0.01053,0.3380777 -0.154478,0.6549379 -0.402412,0.88744 C 10.732993,8.8592666 10.409821,8.9782958 10.069276,8.967776 9.3685936,8.94181 8.8194239,8.3517466 8.8425379,7.6503584 8.8534079,7.3109027 8.9990816,6.9970502 9.2456156,6.7655859 9.4619376,6.5627536 9.7381333,6.4441324 10.030968,6.4263228 Z m 0.334114,0.6361504 c -0.312452,0 -0.5649857,0.1692424 -0.5649857,0.3775562 0,0.2069063 0.2525187,0.3775567 0.5649857,0.3775567 0.31143,0 0.562297,-0.1702948 0.562297,-0.3775567 0,-0.2083064 -0.250882,-0.3775562 -0.562297,-0.3775562 z"
     style="fill:#ffffff;stroke-width:0.264583"
     id="path858" />
</svg>
