<?xml version="1.0" encoding="UTF-8" standalone="no"?>
<!-- Created with Inkscape (http://www.inkscape.org/) -->

<svg
   width="64"
   height="64"
   viewBox="0 0 16.933333 16.933334"
   version="1.1"
   id="svg5"
   inkscape:version="1.1.2 (0a00cf5339, 2022-02-04, custom)"
   sodipodi:docname="org.gnome.Shell.Extensions.GSConnect.svg"
   xmlns:inkscape="http://www.inkscape.org/namespaces/inkscape"
   xmlns:sodipodi="http://sodipodi.sourceforge.net/DTD/sodipodi-0.dtd"
   xmlns="http://www.w3.org/2000/svg"
   xmlns:svg="http://www.w3.org/2000/svg">
  <sodipodi:namedview
     id="namedview7"
     pagecolor="#ffffff"
     bordercolor="#666666"
     borderopacity="1.0"
     inkscape:pageshadow="2"
     inkscape:pageopacity="0.0"
     inkscape:pagecheckerboard="0"
     inkscape:document-units="px"
     showgrid="false"
     units="px"
     height="64px"
     inkscape:zoom="12.59375"
     inkscape:cx="32"
     inkscape:cy="32"
     inkscape:window-width="1851"
     inkscape:window-height="1009"
     inkscape:window-x="69"
     inkscape:window-y="31"
     inkscape:window-maximized="1"
     inkscape:current-layer="svg5"
     showguides="false" />
  <defs
     id="defs2" />
  <rect
     style="fill:#414757;fill-opacity:1;stroke-width:0.264583;stroke-linejoin:round"
     id="rect2161"
     width="12.964583"
     height="8.7312498"
     x="1.984375"
     y="3.8364582"
     ry="0.39687499" />
  <path
     id="rect846"
     style="opacity:0.8;fill:#252831;fill-opacity:1;stroke-width:0.264583;stroke-linejoin:round"
     d="m 2.3812501,3.7041667 c -0.2931583,0 -0.5291667,0.2360084 -0.5291667,0.5291667 v 7.9375006 c 0,0.293158 0.2360084,0.529167 0.5291667,0.529167 H 14.552084 c 0.293158,0 0.529166,-0.236009 0.529166,-0.529167 V 4.2333334 c 0,-0.2931583 -0.236008,-0.5291667 -0.529166,-0.5291667 z m 0,0.2645833 H 14.552084 c 0.146579,0 0.264583,0.1180042 0.264583,0.2645834 v 7.9375006 c 0,0.146579 -0.118004,0.264583 -0.264583,0.264583 H 2.3812501 c -0.1465792,0 -0.2645833,-0.118004 -0.2645833,-0.264583 V 4.2333334 c 0,-0.1465792 0.1180041,-0.2645834 0.2645833,-0.2645834 z"
     sodipodi:nodetypes="ssssssssssssssssss" />
  <rect
     style="fill:#808080;fill-opacity:1;stroke-width:0.212697;stroke-linejoin:round"
     id="rect2689"
     width="12.170834"
     height="7.9375"
     x="2.3812499"
     y="4.2333331" />
  <g
     id="path2"
     transform="matrix(0.26458334,0,0,0.26458334,0,-0.52916663)">
    <path
       style="color:#000000;fill:#3e5380;fill-opacity:0.29;stroke-linecap:round;stroke-linejoin:round;-inkscape-stroke:none;paint-order:markers stroke fill"
       d="m 5.9999999,50 c -0.5522618,5.5e-5 -0.9999447,0.447738 -1,1 v 1 c 5.011e-4,0.513354 0.3895943,0.94296 0.9003906,0.994141 l 10.0000005,1 C 15.933476,53.99775 15.96672,53.999706 16,54 h 32 c 0.03328,-3.08e-4 0.06653,-0.0023 0.09961,-0.0059 l 10,-1 C 58.610391,52.94292 58.999478,52.513338 59,52 v -1 c -5.5e-5,-0.552262 -0.447738,-0.999945 -1,-1 H 38 c -0.265199,5.1e-5 -0.519519,0.105433 -0.707031,0.292969 L 36.585937,51 H 27.414062 L 26.707031,50.292969 C 26.519519,50.105433 26.265199,50.000051 26,50 Z"
       id="path852"
       sodipodi:nodetypes="ccccccccccccccccccc" />
    <path
       style="color:#000000;fill:#ffffff;stroke-width:2;stroke-linecap:round;stroke-linejoin:round;-inkscape-stroke:none;paint-order:markers stroke fill"
       d="M 5.9999999,51 H 26 l 1,1 h 10 l 1,-1 h 20 v 1 L 48,53 H 16 L 5.9999999,52 Z"
       id="path854"
       sodipodi:nodetypes="ccccccccccc" />
  </g>
  <path
     d="m 1.5875001,12.964583 h 5.2916667 l 0.2645833,0.264584 h 2.6458336 l 0.2645833,-0.264584 h 5.291667 v 0.264584 L 12.700001,13.49375 H 4.2333333 L 1.5875001,13.229167 Z"
     style="fill:#ffffff;stroke-width:0.264583;paint-order:markers stroke fill"
     id="path961"
     sodipodi:nodetypes="ccccccccccc" />
  <path
     id="rect1268"
     style="opacity:1;fill:#414757;fill-opacity:1;stroke-width:0.264583;stroke-linecap:round;stroke-linejoin:round"
     d="m 11.641666,7.5406251 h 3.175 c 0.366448,0 0.661458,0.2950104 0.661458,0.6614583 v 6.3499996 c 0,0.366448 -0.29501,0.661459 -0.661458,0.661459 h -3.175 c -0.366448,0 -0.661458,-0.295011 -0.661458,-0.661459 V 8.2020834 c 0,-0.3664479 0.29501,-0.6614583 0.661458,-0.6614583 z" />
  <path
     id="rect921"
     style="opacity:0.3;fill:#000000;stroke-width:0.264583;stroke-linecap:round;stroke-linejoin:round"
     d="m 11.641666,7.4083335 c -0.439737,0 -0.79375,0.3540125 -0.79375,0.79375 v 6.3500005 c 0,0.439737 0.354013,0.79375 0.79375,0.79375 h 3.175 c 0.439738,0 0.79375,-0.354013 0.79375,-0.79375 V 8.2020835 c 0,-0.4397375 -0.354012,-0.79375 -0.79375,-0.79375 z m 0,0.2645834 h 3.175 c 0.293159,0 0.529167,0.2360083 0.529167,0.5291666 v 6.3500005 c 0,0.293158 -0.236008,0.529166 -0.529167,0.529166 h -3.175 c -0.293158,0 -0.529166,-0.236008 -0.529166,-0.529166 V 8.2020835 c 0,-0.2931583 0.236008,-0.5291666 0.529166,-0.5291666 z" />
  <path
     id="rect6655"
     style="opacity:1;fill:#5294eb;stroke-width:0.264583;stroke-linecap:round;stroke-linejoin:round"
     d="m 11.641667,7.9375 h 3.174999 c 0.14658,0 0.264584,0.1180042 0.264584,0.2645834 v 6.3499996 c 0,0.14658 -0.118004,0.264584 -0.264584,0.264584 h -3.174999 c -0.14658,0 -0.264584,-0.118004 -0.264584,-0.264584 V 8.2020834 c 0,-0.1465792 0.118004,-0.2645834 0.264584,-0.2645834 z"
     sodipodi:nodetypes="sssssssss" />
  <path
     id="rect7684"
     style="opacity:1;fill:#414757;stroke-width:0.264583;stroke-linecap:round;stroke-linejoin:round"
     d="m 12.7,8.2020833 h 1.058333 c 0.146579,0 0.264584,-0.1180042 0.264584,-0.2645833 L 13.49375,7.6729167 H 12.435417 V 7.9375 c 0,0.1465791 0.118004,0.2645833 0.264583,0.2645833 z"
     sodipodi:nodetypes="ssccccs" />
</svg>
