<?xml version="1.0" encoding="UTF-8" standalone="no"?>
<!-- Created with Inkscape (http://www.inkscape.org/) -->

<svg
   width="64"
   height="64"
   viewBox="0 0 16.933333 16.933334"
   version="1.1"
   id="svg5"
   inkscape:version="1.1.2 (0a00cf5339, 2022-02-04, custom)"
   sodipodi:docname="org.gnome.Connections.svg"
   xmlns:inkscape="http://www.inkscape.org/namespaces/inkscape"
   xmlns:sodipodi="http://sodipodi.sourceforge.net/DTD/sodipodi-0.dtd"
   xmlns="http://www.w3.org/2000/svg"
   xmlns:svg="http://www.w3.org/2000/svg">
  <sodipodi:namedview
     id="namedview7"
     pagecolor="#ffffff"
     bordercolor="#666666"
     borderopacity="1.0"
     inkscape:pageshadow="2"
     inkscape:pageopacity="0.0"
     inkscape:pagecheckerboard="0"
     inkscape:document-units="px"
     showgrid="false"
     units="px"
     height="64px"
     inkscape:zoom="13.15625"
     inkscape:cx="31.961995"
     inkscape:cy="32"
     inkscape:window-width="1920"
     inkscape:window-height="1019"
     inkscape:window-x="0"
     inkscape:window-y="31"
     inkscape:window-maximized="1"
     inkscape:current-layer="svg5" />
  <defs
     id="defs2" />
  <circle
     style="opacity:1;fill:#3176e4;fill-opacity:1;stroke-width:0.511861;stroke-linejoin:round"
     id="path24384"
     cx="8.4666672"
     cy="8.4666672"
     r="7.2760415" />
  <path
     style="color:#000000;fill:#26a269;stroke-width:0.264583;-inkscape-stroke:none;stroke:none"
     d="m 4.8369142,2.6458334 c -0.4913638,0 -1.1513508,0.556028 -1.1513508,1.0583334 H 2.9724285 A 7.2760416,7.2760416 0 0 0 2.5543661,4.2333334 h 0.091467 V 4.7625001 H 2.2071005 A 7.2760416,7.2760416 0 0 0 1.190625,8.4666669 7.2760416,7.2760416 0 0 0 3.6855634,13.944886 v -2.906283 c 1.53e-5,-0.502306 -0.7406024,-0.909505 -1.2319663,-0.909505 -0.4913637,0 -0.8764323,-0.595375 -0.8764323,-1.0981246 0,-0.5023049 0.3850686,-1.0252599 0.8764323,-1.0252604 0.4913636,0 1.2319657,-0.2910004 1.2319663,-0.7937501 0,-0.5023046 0.020233,-0.8878009 0.5115965,-0.8878009 0.4913635,0 1.1084594,-0.4077888 1.1084594,-0.9105387 v -1.274341 c 0,-0.2584808 0.1450584,-0.4681885 0.3979088,-0.4681885 0.2537193,-0.015544 0.646534,0.033073 0.6273517,-0.5953125 C 6.3500621,2.6458334 5.8209517,2.6567631 5.552116,2.6458334 c 0.1304761,0 -0.5512948,0.030101 -0.7152018,0 z M 11.54865,4.545976 c -0.474686,0 -0.859896,0.3932444 -0.859896,0.8784992 v 0.375171 c 0,0.4852548 -0.226566,0.8784992 -0.7012496,0.8784992 C 9.416561,6.7215585 8.9533669,7.2303716 8.9958336,7.8145102 v 1.5342733 c 0,0.4982784 0.2717024,1.1818405 0.7591269,1.1818405 0.5205495,0 0.8283735,0.424625 0.8283735,0.834574 v 0.865063 c 0,0.546516 0.232786,0.998906 0.767395,0.998906 0.534138,-4.76e-4 0.820577,-0.452872 0.820105,-0.998906 v -1.667598 c 0,-0.400359 0.155598,-0.9958115 0.433048,-1.2784749 0.276978,-0.2826634 0.65326,-0.811803 1.044898,-0.8113199 l 0.514697,0.00362 c 0.227905,4.763e-4 0.446858,-0.09183 0.608232,-0.2563151 0.160902,-0.1644822 0.251664,-0.3876535 0.251664,-0.6206339 V 5.4244749 c 0,-0.045392 -0.0044,-0.08979 -0.01085,-0.1333251 A 7.2760416,7.2760416 0 0 0 14.729851,4.7640503 C 14.578566,4.6285612 14.380608,4.545976 14.163477,4.545976 Z"
     id="path14782" />
  <path
     style="color:#000000;fill:#155839;stroke-width:0.264583;-inkscape-stroke:none;opacity:0.6;stroke:none;fill-opacity:1"
     d="m 4.8369142,2.5135417 c -0.2955819,0 -0.6025465,0.1553668 -0.8480103,0.3741375 C 3.7801969,3.0736898 3.6368602,3.3152639 3.5909955,3.5718751 H 2.9119669 L 2.872693,3.6173504 C 2.7225541,3.7902706 2.5803631,3.9702574 2.4468791,4.1563355 L 2.2965007,4.3656251 h 0.217041 V 4.6302084 H 2.1316529 l -0.038241,0.064596 C 1.4168311,5.836568 1.059263,7.1394946 1.0583334,8.4666669 c 0.0019,2.1387211 0.9282413,4.1725961 2.5404136,5.5779541 l 0.219108,0.191203 V 11.038603 C 3.8178646,10.722431 3.5953778,10.464523 3.3274456,10.285677 3.0595134,10.106832 2.7358227,9.996806 2.4535971,9.996806 2.261347,9.996806 2.0777125,9.8777613 1.9373495,9.6893314 1.7969865,9.5009015 1.7094564,9.2485731 1.7094564,9.0309734 c 0,-0.217347 0.086065,-0.4479102 0.2242757,-0.6175333 0.1382105,-0.169623 0.3211156,-0.2754352 0.519865,-0.2754355 0.2717973,0 0.594208,-0.076412 0.8640301,-0.2247924 0.2698218,-0.1483799 0.5002273,-0.384915 0.5002278,-0.7012493 0,-0.2493756 0.010954,-0.4603549 0.061495,-0.5813597 0.02527,-0.060503 0.055029,-0.09807 0.1002525,-0.1260906 0.045223,-0.02802 0.112015,-0.048059 0.2175576,-0.048059 0.2822784,0 0.5803402,-0.1120429 0.8185547,-0.2940389 C 5.253929,5.9804185 5.437911,5.7191245 5.437911,5.4136231 V 4.1392823 c 0,-0.104493 0.029846,-0.1922746 0.074931,-0.2485636 0.045085,-0.056289 0.100834,-0.087333 0.1906863,-0.087333 h 0.00414 0.00414 c 0.1142978,-0.007 0.2977978,0.0087 0.4702553,-0.083716 0.086229,-0.046209 0.1657175,-0.124894 0.214974,-0.2335777 0.04845,-0.1069233 0.069367,-0.240821 0.065103,-0.4077268 0.0051,-0.133006 -0.034335,-0.2517833 -0.1064535,-0.335897 C 6.2828973,2.6575748 6.1866985,2.6085792 6.0900677,2.5776205 5.9129191,2.5208654 5.7318131,2.5227085 5.6017254,2.5187094 c -0.00538,-0.00144 -0.00963,-0.00273 -0.011885,-0.0031 -0.00432,-7.17e-4 -0.0071,-8.149e-4 -0.0093,-0.00103 -0.013121,-0.00131 -0.016044,-6.509e-4 -0.021188,-5.159e-4 -5.027e-4,1.31e-5 -0.00153,-5.292e-4 -0.00206,-5.16e-4 -0.00132,3.12e-5 -0.00346,0 -0.00517,0 -0.00206,0.00516 -0.010687,0.0031 -0.016031,0.00465 0.00432,-0.00107 0.00647,-0.00123 0.00827,-0.00155 0.0036,-6.323e-4 0.005,-9.525e-4 0.00568,-0.00103 0.0055,-6.482e-4 -0.015084,9.366e-4 -0.03824,0.00207 -0.046313,0.00226 -0.1236451,0.00538 -0.2098064,0.00723 -0.1723221,0.00371 -0.3991184,-0.00155 -0.4413166,-0.0093 l -0.011876,-0.00206 z m -0.02377,0.2625164 c 0.1217089,0.022352 0.3176228,0.017248 0.4945436,0.013436 0.08846,-0.0019 0.167096,-0.00479 0.2170409,-0.00723 0.01673,-8.202e-4 0.026581,-0.00175 0.037724,-0.00259 0.1381197,0.00537 0.317259,0.00873 0.4464844,0.050126 0.066853,0.021418 0.1163008,0.050945 0.1457278,0.085266 0.029427,0.034321 0.047515,0.07457 0.043925,0.1550294 v 0.00465 0.00517 c 0.00438,0.1433846 -0.015444,0.2377197 -0.042375,0.2971395 -0.02693,0.05942 -0.057927,0.087426 -0.099219,0.1095539 -0.082585,0.044264 -0.2223148,0.04366 -0.361736,0.052201 h 0.00827 c -0.1629982,0 -0.3062187,0.073367 -0.396875,0.1865519 -0.090658,0.113177 -0.1333272,0.2599332 -0.1333272,0.4139205 v 1.2743408 c 0,0.1972482 -0.124636,0.3908832 -0.3178101,0.5384686 -0.1931739,0.1475851 -0.4492729,0.2397786 -0.6583577,0.2397786 -0.1401387,0 -0.2603178,0.027893 -0.3570841,0.08785 -0.096767,0.059957 -0.1639475,0.1504209 -0.2051555,0.2490804 -0.082416,0.1973191 -0.081649,0.4302342 -0.081649,0.6831623 -3e-7,0.1864151 -0.1399656,0.3469315 -0.3632854,0.4697389 -0.2233197,0.1228074 -0.5168233,0.1917195 -0.7363892,0.1917195 -0.2926139,5e-7 -0.5478559,0.1556734 -0.7250204,0.373104 -0.1771645,0.2174304 -0.2837036,0.4994911 -0.2837036,0.7844481 0,0.2851497 0.1050743,0.5815433 0.2800862,0.8164878 0.175012,0.2349447 0.4295246,0.4139277 0.7286378,0.4139277 0.2091379,0 0.5013572,0.09358 0.7265706,0.243913 0.2252136,0.150331 0.3731096,0.347168 0.373104,0.533301 v 2.569869 C 2.1473062,12.265506 1.3246552,10.420357 1.3229167,8.4666669 1.3237966,7.2104781 1.6641584,5.9810569 2.2934001,4.8947918 h 0.484725 V 4.1630535 C 2.8619689,4.0524336 2.9458328,3.94202 3.0359904,3.8364584 H 3.817855 V 3.7041668 c 0,-0.1932126 0.1398953,-0.4337476 0.3472657,-0.618567 C 4.3724908,2.9007804 4.6411328,2.7781251 4.8369142,2.7781251 Z M 11.54865,4.4136843 c -0.547747,0 -0.992187,0.4555252 -0.992187,1.0107909 v 0.375171 c 0,0.222038 -0.05341,0.4144515 -0.147278,0.5431192 -0.09387,0.1286679 -0.22087,0.2030883 -0.4216794,0.2030883 h -0.00517 l -0.00465,5.292e-4 C 9.3342177,6.5953107 8.816146,7.1652793 8.8640597,7.8243413 l -5.178e-4,-0.00983 v 1.5342733 c 0,0.2731844 0.071208,0.5844538 0.2134238,0.8418094 0.1422156,0.257355 0.372441,0.472322 0.6779948,0.472322 0.4486065,0 0.6960815,0.358558 0.6960815,0.702283 v 0.865063 c 0,0.292041 0.06038,0.566955 0.206706,0.779281 0.146327,0.212326 0.388361,0.351917 0.692981,0.351917 0.304396,-2.65e-4 0.555252,-0.136287 0.715718,-0.346749 0.160467,-0.210462 0.236934,-0.488268 0.236678,-0.784449 v -1.667598 c 0,-0.366082 0.165615,-0.951948 0.395325,-1.1859741 0.14641,-0.1494157 0.307124,-0.3492394 0.475423,-0.5079793 0.168299,-0.15874 0.338719,-0.2637177 0.474907,-0.2635499 l 0.51418,0.00362 C 14.426762,8.6093364 14.680337,8.5021994 14.866276,8.3126749 15.051617,8.12321 15.155664,7.8668782 15.155664,7.59954 V 5.424479 c 0,-0.053863 -0.0052,-0.1049949 -0.0124,-0.1529623 l -0.0031,-0.019637 -0.0088,-0.018603 C 15.042838,5.0505086 14.946792,4.8717447 14.843541,4.6968708 l -0.01033,-0.017571 -0.01499,-0.013952 C 14.644111,4.5094201 14.414152,4.4136843 14.163477,4.4136843 Z m 0,0.2645833 h 2.614828 c 0.179425,0 0.339949,0.069948 0.467155,0.1803506 0.08996,0.1538835 0.174495,0.3111074 0.252698,0.4712891 0.0042,0.03217 0.0078,0.063856 0.0078,0.094568 v 2.1750611 c 0,0.1986224 -0.07748,0.388634 -0.213941,0.5281332 -0.13669,0.1393261 -0.320799,0.2167922 -0.51263,0.2165241 l -0.515214,-0.00362 h -5.29e-4 C 13.393367,8.3402562 13.179522,8.4995793 12.992527,8.675954 12.805531,8.8523284 12.639919,9.0584375 12.509352,9.1916846 12.184172,9.5229842 12.03859,10.128025 12.03859,10.56266 v 1.667598 c 2.16e-4,0.249853 -0.06625,0.471372 -0.182418,0.623735 -0.116169,0.152364 -0.275654,0.242675 -0.505395,0.242879 -0.229989,0 -0.371706,-0.0867 -0.475423,-0.237194 -0.103718,-0.150498 -0.159681,-0.374945 -0.159681,-0.62942 v -0.865063 c 0,-0.476172 -0.368173,-0.966866 -0.9606643,-0.966866 -0.1818704,0 -0.3309933,-0.126902 -0.4464844,-0.335897 C 9.1929847,9.8534405 9.1281252,9.5738772 9.1281252,9.3487835 V 7.8098594 l -5.291e-4,-0.00517 C 9.0905764,7.2954779 9.4988941,6.847819 9.9973103,6.8099206 l -0.00982,5.292e-4 c 0.2738737,0 0.4975377,-0.122341 0.6356207,-0.3116088 0.138082,-0.1892679 0.19792,-0.4359659 0.19792,-0.6991821 v -0.375171 c 0,-0.4152429 0.325983,-0.7462076 0.727605,-0.7462076 z"
     id="path14784"
     sodipodi:nodetypes="sscccccccccccccssssssssssssssssccssccscsssccccccsccsccccsscccscccsssssssssssssssccccccccssccsssssccccsssssscscscscccssccccccsscsccsscccsscscscssssssccccssscc" />
  <path
     d="m 12.699939,8.3079167 v 4.2751913 c 0,0.279203 -0.154757,0.580103 -0.402043,0.812354 -0.247286,0.232251 -0.578423,0.362768 -0.763261,0.362768 H 7.5963736 c -0.2751542,0 -0.6372066,-0.06019 -0.8878009,-0.164331 C 6.4579784,13.489759 6.3837646,13.384813 6.3762931,13.338101 6.301834,12.872581 6.2877635,12.507464 6.2657057,12.184683 6.2436474,11.861901 6.2322383,11.553847 6.0357455,11.239521 5.8392527,10.925195 5.4744346,10.747321 5.0797315,10.673147 4.6850282,10.598973 4.1985692,10.58323 3.5030834,10.58323 v 1.058333 c 0.6750547,0 1.128037,0.02423 1.381311,0.07183 0.2532743,0.0476 0.244978,0.07333 0.2537315,0.08733 0.00875,0.014 0.051025,0.158892 0.071313,0.455787 0.020288,0.296895 0.037137,0.718209 0.1219565,1.248503 0.089752,0.561134 0.5454827,0.889251 0.9709999,1.066085 0.4255175,0.176833 0.8856467,0.245463 1.2939779,0.245463 h 3.9382618 c 0.556699,0 1.073328,-0.260334 1.487764,-0.649573 0.414437,-0.389239 0.735873,-0.940426 0.735873,-1.583883 V 8.3079167 Z"
     style="color:#000000;fill:#ed9700;stroke-width:0.264583;-inkscape-stroke:none"
     id="path1166"
     sodipodi:nodetypes="csssssssssccscssssssscc" />
  <path
     id="path18"
     style="fill:#ffffff;stroke-width:0.264583"
     d="m 13.229166,10.054167 c -0.292489,0 -0.529166,0.236678 -0.529166,0.529167 0,0.292488 0.236677,0.529167 0.529166,0.529167 0.292489,0 0.529167,-0.236679 0.529167,-0.529167 0,-0.292489 -0.236678,-0.529167 -0.529167,-0.529167 z m -8.4666659,0.529167 c -0.2924895,0 -0.5291667,0.236678 -0.5291667,0.529167 0,0.292488 0.2366772,0.529166 0.5291667,0.529166 0.2924889,0 0.5291666,-0.236678 0.5291666,-0.529166 0,-0.292489 -0.2366777,-0.529167 -0.5291666,-0.529167 z m 8.4666659,1.5875 c -0.292489,0 -0.529166,0.236678 -0.529166,0.529167 0,0.292488 0.236677,0.529166 0.529166,0.529166 0.292489,0 0.529167,-0.236678 0.529167,-0.529166 0,-0.292489 -0.236678,-0.529167 -0.529167,-0.529167 z m -7.4083326,0.529167 c -0.2924895,0 -0.5291667,0.236678 -0.5291667,0.529166 0,0.292489 0.2366772,0.529167 0.5291667,0.529167 0.2924884,0 0.5291667,-0.236678 0.5291667,-0.529167 0,-0.292488 -0.2366783,-0.529166 -0.5291667,-0.529166 z m 1.5875001,1.058333 c -0.2924895,0 -0.5291667,0.236678 -0.5291667,0.529167 0,0.292488 0.2366772,0.529166 0.5291667,0.529166 0.2924884,0 0.5291666,-0.236678 0.5291666,-0.529166 0,-0.292489 -0.2366782,-0.529167 -0.5291666,-0.529167 z m 2.1166667,0 c -0.2924895,0 -0.5291667,0.236678 -0.5291667,0.529167 0,0.292488 0.2366772,0.529166 0.5291667,0.529166 0.2924884,0 0.5291668,-0.236678 0.5291668,-0.529166 0,-0.292489 -0.2366784,-0.529167 -0.5291668,-0.529167 z m 2.1166658,0 c -0.292489,0 -0.529166,0.236678 -0.529166,0.529167 0,0.292488 0.236677,0.529166 0.529166,0.529166 0.292489,0 0.529167,-0.236678 0.529167,-0.529166 0,-0.292489 -0.236678,-0.529167 -0.529167,-0.529167 z" />
  <path
     id="path7088"
     style="opacity:0.5;fill:#000000;fill-opacity:1;stroke-width:2;stroke-linejoin:round"
     d="M 32 4 A 28 28 0 0 0 4 32 A 28 28 0 0 0 32 60 A 28 28 0 0 0 60 32 A 28 28 0 0 0 32 4 z M 32 5 A 27 27 0 0 1 59 32 A 27 27 0 0 1 32 59 A 27 27 0 0 1 5 32 A 27 27 0 0 1 32 5 z "
     transform="scale(0.26458334)" />
  <circle
     style="opacity:0.3;fill:#000000;fill-opacity:1;stroke:none;stroke-width:0.529167;stroke-linecap:round;stroke-linejoin:round"
     id="path1789"
     cx="2.9104168"
     cy="11.112499"
     r="1.0583334" />
  <circle
     style="opacity:1;fill:#ffffff;fill-opacity:1;stroke:none;stroke-width:0.529167;stroke-linecap:round;stroke-linejoin:round"
     id="path1977"
     cx="2.9104166"
     cy="11.1125"
     r="0.79374999" />
  <path
     id="rect13053"
     style="opacity:0.8;fill:#3c305f;stroke-width:0.529167;stroke-linecap:round;stroke-linejoin:round"
     d="m 7.4083332,1.0583334 h 7.4083328 c 0.586317,0 1.058334,0.4720166 1.058334,1.0583333 v 5.8208334 c 0,0.5863167 -0.472017,1.0583333 -1.058334,1.0583333 H 7.4083332 c -0.5863167,0 -1.0583333,-0.4720166 -1.0583333,-1.0583333 V 2.1166667 c 0,-0.5863167 0.4720166,-1.0583333 1.0583333,-1.0583333 z" />
  <path
     id="rect2289"
     style="opacity:1;fill:#463c5f;stroke-width:0.568541;stroke-linecap:round;stroke-linejoin:round"
     d="m 7.4083337,1.3229166 h 7.4083333 c 0.439737,0 0.79375,0.3540126 0.79375,0.7937502 v 5.820833 c 0,0.4397376 -0.354013,0.7937501 -0.79375,0.7937501 H 7.4083337 c -0.4397376,0 -0.7937502,-0.3540125 -0.7937502,-0.7937501 v -5.820833 c 0,-0.4397376 0.3540126,-0.7937502 0.7937502,-0.7937502 z" />
  <path
     style="color:#000000;fill:#e6e6e6;stroke:none;stroke-width:1.00013;stroke-miterlimit:4;stroke-dasharray:none;opacity:0.2"
     d="m 8.4666668,2.1166667 0.2089844,0.6445312 1.4707028,4.5292969 0.972656,-0.8574219 0.398438,0.4902344 c 0.23853,0.2939104 0.682647,0.3360766 0.970703,0.089844 0.286511,-0.2462807 0.32626,-0.6828413 0.08789,-0.9765625 L 12.158073,5.5209635 13.085807,4.7045573 Z m 0.921875,1.1230469 2.7890622,1.5605468 -0.751953,0.6601563 0.738281,0.9101562 c 0.05915,0.072885 0.05027,0.180238 -0.01953,0.2402344 -0.06916,0.059117 -0.155847,0.05121 -0.214844,-0.021484 l -0.746094,-0.9160156 -0.783203,0.6875 z"
     id="path20275" />
  <path
     style="color:#000000;fill:#ffffff;stroke:none;stroke-width:1.00013;stroke-miterlimit:4;stroke-dasharray:none"
     d="m 8.9269794,2.6785156 1.3465586,4.1468279 0.878565,-0.7721934 0.571089,0.7030488 c 0.148764,0.1833028 0.414639,0.208362 0.593246,0.055687 0.178154,-0.1531387 0.20257,-0.4250775 0.05381,-0.6083808 l -0.578779,-0.7127946 0.839677,-0.738781 z"
     id="path20273" />
</svg>
