<?xml version="1.0" encoding="UTF-8" standalone="no"?>
<!-- Created with Inkscape (http://www.inkscape.org/) -->

<svg
   width="64"
   height="64"
   viewBox="0 0 16.933333 16.933334"
   version="1.1"
   id="svg5"
   inkscape:version="1.1.2 (0a00cf5339, 2022-02-04, custom)"
   sodipodi:docname="org.gnome.Calls.svg"
   xmlns:inkscape="http://www.inkscape.org/namespaces/inkscape"
   xmlns:sodipodi="http://sodipodi.sourceforge.net/DTD/sodipodi-0.dtd"
   xmlns="http://www.w3.org/2000/svg"
   xmlns:svg="http://www.w3.org/2000/svg">
  <sodipodi:namedview
     id="namedview7"
     pagecolor="#ffffff"
     bordercolor="#666666"
     borderopacity="1.0"
     inkscape:pageshadow="2"
     inkscape:pageopacity="0.0"
     inkscape:pagecheckerboard="0"
     inkscape:document-units="px"
     showgrid="false"
     units="px"
     height="64px"
     inkscape:zoom="12.484375"
     inkscape:cx="31.95995"
     inkscape:cy="32"
     inkscape:window-width="1920"
     inkscape:window-height="1019"
     inkscape:window-x="0"
     inkscape:window-y="31"
     inkscape:window-maximized="1"
     inkscape:current-layer="svg5" />
  <defs
     id="defs2" />
  <path
     id="path7088"
     style="opacity:0.8;fill:#00750f;fill-opacity:1;stroke-width:3.28571;stroke-linejoin:round"
     d="M 46.933594 17 A 32.000001 32.000001 0 0 1 15 47 L 17 47 L 17 60.957031 C 40.813909 59.938314 59.93794 40.813816 60.957031 17 L 46.933594 17 z "
     transform="scale(0.26458334)" />
  <path
     id="path24384"
     style="opacity:1;fill:#2aae0d;fill-opacity:1;stroke-width:3.16569;stroke-linejoin:round"
     d="M 48 15 A 33.000002 33.000002 0 0 1 17 47.935547 L 17 59.949219 A 45.000001 45.000001 0 0 0 60 15 L 48 15 z "
     transform="scale(0.26458334)" />
  <path
     id="rect2872"
     style="opacity:0.8;fill:#166600;stroke-width:2.15463;stroke-linejoin:round"
     d="m 50,4 c -4.986002,0 -9,4.0140004 -9,9 v 4 c 0,4.986 4.013998,9 9,9 h 4 c 3.865993,0 7,-4.924868 7,-11 C 61,8.9248679 57.865993,4 54,4 Z"
     transform="scale(0.26458334)"
     sodipodi:nodetypes="ssssssss" />
  <path
     d="m 7.4083334,13.229166 c 0,-1.319213 -1.0620371,-2.38125 -2.3812502,-2.38125 h -1.058333 c -1.3192131,0 -2.3812502,1.062037 -2.3812502,2.38125 V 14.2875 c 0,1.022877 1.3030381,1.852083 2.9104172,1.852083 1.6073781,0 2.9104162,-0.829206 2.9104162,-1.852083 z"
     style="opacity:0.8;fill:#166600;stroke-width:0.570079;stroke-linejoin:round"
     id="path3533"
     sodipodi:nodetypes="ssssssss" />
  <path
     id="rect3787"
     style="opacity:1;fill:#42d94e;fill-opacity:1;stroke-width:2;stroke-linejoin:round"
     d="m 50,5 c -4.431999,0 -8,3.5679998 -8,8 v 4 c 0,4.432 3.568001,8 8,8 h 4 c 3.313709,-1e-6 6,-4.477154 6,-10 C 60,9.4771535 57.313709,5.0000014 54,5 Z"
     transform="scale(0.26458334)"
     sodipodi:nodetypes="ssssssss" />
  <path
     d="m 7.14375,13.229166 c 0,-1.172633 -0.9440333,-2.116667 -2.1166666,-2.116667 H 3.9687501 c -1.1726334,0 -2.1166667,0.944034 -2.1166667,2.116667 v 1.058333 c 2e-7,0.876752 1.1845801,1.5875 2.6458334,1.5875 1.4612531,0 2.6458329,-0.710748 2.6458332,-1.5875 z"
     style="opacity:1;fill:#42d94e;fill-opacity:1;stroke-width:0.529167;stroke-linejoin:round"
     id="path5502" />
</svg>
