<?xml version="1.0" encoding="UTF-8" standalone="no"?>
<!-- Created with Inkscape (http://www.inkscape.org/) -->

<svg
   width="64"
   height="64"
   viewBox="0 0 16.933333 16.933334"
   version="1.1"
   id="svg5"
   inkscape:version="1.1.2 (0a00cf5339, 2022-02-04, custom)"
   sodipodi:docname="org.gnome.Polari.svg"
   xmlns:inkscape="http://www.inkscape.org/namespaces/inkscape"
   xmlns:sodipodi="http://sodipodi.sourceforge.net/DTD/sodipodi-0.dtd"
   xmlns="http://www.w3.org/2000/svg"
   xmlns:svg="http://www.w3.org/2000/svg">
  <sodipodi:namedview
     id="namedview7"
     pagecolor="#ffffff"
     bordercolor="#666666"
     borderopacity="1.0"
     inkscape:pageshadow="2"
     inkscape:pageopacity="0.0"
     inkscape:pagecheckerboard="0"
     inkscape:document-units="px"
     showgrid="false"
     units="px"
     height="64px"
     showguides="true"
     inkscape:zoom="12.484375"
     inkscape:cx="32"
     inkscape:cy="32"
     inkscape:window-width="1920"
     inkscape:window-height="1019"
     inkscape:window-x="0"
     inkscape:window-y="31"
     inkscape:window-maximized="1"
     inkscape:current-layer="svg5" />
  <defs
     id="defs2" />
  <path
     d="m 14.022919,4.7625 c 0.879475,0 1.5875,0.708025 1.5875,1.5875 v 5.291667 c 0,0.879476 -0.708025,1.587501 -1.5875,1.587501 h -0.529167 v 1.85318 c -1.22e-4,0.224111 -0.145324,0.413184 -0.326079,0.488343 -0.180754,0.07516 -0.414953,0.04801 -0.576192,-0.113172 l -5.29e-4,-5.29e-4 -2.226727,-2.227822 H 6.6145836 c -0.879474,0 -1.5875,-0.708025 -1.5875,-1.587501 V 6.35 c 0,-0.879475 0.708026,-1.5875 1.5875,-1.5875 z"
     style="opacity:0.3;fill:#000000;fill-opacity:1;stroke-width:0.264583;stroke-linecap:round;stroke-linejoin:round;stroke-opacity:0.3"
     id="path9752"
     sodipodi:nodetypes="ssssccssccsssss" />
  <path
     d="m 14.022918,5.0270834 c 0.732896,0 1.322917,0.5900208 1.322917,1.3229167 v 5.2916669 c 0,0.732896 -0.590021,1.322917 -1.322917,1.322917 h -0.793749 v 2.116666 c -1.28e-4,0.235273 -0.284231,0.353405 -0.451135,0.187586 L 10.47378,12.964584 H 6.6145837 c -0.732895,0 -1.322917,-0.590021 -1.322917,-1.322917 V 6.3500001 c 0,-0.7328959 0.590022,-1.3229167 1.322917,-1.3229167 z"
     style="opacity:1;fill:#fafafa;fill-opacity:1;stroke-width:0.140009;stroke-linejoin:round"
     id="path10180" />
  <path
     id="rect5109"
     style="opacity:1;fill:#369c2b;fill-opacity:1;stroke-width:0.264583;stroke-linecap:round;stroke-linejoin:round;stroke-opacity:0.3"
     d="m 2.9104167,1.8520834 c -0.879475,0 -1.5875,0.708025 -1.5875,1.5875 v 5.2916668 c 0,0.8794751 0.708025,1.5874998 1.5875,1.5874998 h 0.5291667 v 1.85371 c 1.22e-4,0.224111 0.145324,0.413183 0.3260783,0.488342 0.1807544,0.07516 0.4177226,0.0453 0.5761922,-0.113171 l 5.292e-4,-5.29e-4 2.2267251,-2.228352 H 10.31875 c 0.879474,0 1.5875,-0.7080247 1.5875,-1.5874998 V 3.4395834 c 0,-0.879475 -0.708026,-1.5875 -1.5875,-1.5875 z"
     sodipodi:nodetypes="ssscccssccsssss" />
  <path
     id="rect1269"
     style="opacity:1;fill:#72d567;fill-opacity:1;stroke-width:0.529167;stroke-linejoin:round"
     d="M 2.9104167,2.1166667 C 2.1775209,2.1166667 1.5875,2.7066876 1.5875,3.4395834 v 5.2916668 c 0,0.7328961 0.5900209,1.3229168 1.3229167,1.3229168 h 0.7937501 v 2.116666 c 1.28e-4,0.235273 0.2842307,0.353405 0.4511352,0.187586 L 6.4595541,10.054167 H 10.31875 c 0.732896,0 1.322917,-0.5900207 1.322917,-1.3229168 V 3.4395834 c 0,-0.7328958 -0.590021,-1.3229167 -1.322917,-1.3229167 z"
     sodipodi:nodetypes="ssssccccsssss" />
  <path
     id="rect10405"
     style="opacity:1;fill:#fafafa;fill-opacity:1;stroke:none;stroke-width:0.529167;stroke-linecap:round;stroke-linejoin:round;stroke-miterlimit:4;stroke-dasharray:none;stroke-opacity:1"
     d="M 5.55625,3.9687501 V 5.0270834 H 4.4979167 V 5.5562501 H 5.55625 V 6.6145834 H 4.4979167 V 7.1437501 H 5.55625 V 8.2020835 H 6.0854166 V 7.1437501 H 7.1437501 V 8.2020835 H 7.6729167 V 7.1437501 H 8.73125 V 6.6145834 H 7.6729167 V 5.5562501 H 8.73125 V 5.0270834 H 7.6729167 V 3.9687501 H 7.1437501 V 5.0270834 H 6.0854166 V 3.9687501 Z m 0.5291666,1.5875 H 7.1437501 V 6.6145834 H 6.0854166 Z"
     sodipodi:nodetypes="cccccccccccccccccccccccccccccccccc" />
</svg>
