<?xml version="1.0" encoding="UTF-8" standalone="no"?>
<!-- Created with Inkscape (http://www.inkscape.org/) -->

<svg
   width="64"
   height="64"
   viewBox="0 0 16.933333 16.933334"
   version="1.1"
   id="svg5"
   inkscape:version="1.1.2 (0a00cf5339, 2022-02-04, custom)"
   sodipodi:docname="org.gnome.Shell.Extensions.GSConnect.svg"
   xmlns:inkscape="http://www.inkscape.org/namespaces/inkscape"
   xmlns:sodipodi="http://sodipodi.sourceforge.net/DTD/sodipodi-0.dtd"
   xmlns="http://www.w3.org/2000/svg"
   xmlns:svg="http://www.w3.org/2000/svg">
  <sodipodi:namedview
     id="namedview7"
     pagecolor="#ffffff"
     bordercolor="#666666"
     borderopacity="1.0"
     inkscape:pageshadow="2"
     inkscape:pageopacity="0.0"
     inkscape:pagecheckerboard="0"
     inkscape:document-units="px"
     showgrid="false"
     units="px"
     height="64px"
     inkscape:zoom="6.578125"
     inkscape:cx="18.014252"
     inkscape:cy="35.876485"
     inkscape:window-width="1920"
     inkscape:window-height="1019"
     inkscape:window-x="0"
     inkscape:window-y="31"
     inkscape:window-maximized="1"
     inkscape:current-layer="svg5"
     showguides="false" />
  <defs
     id="defs2" />
  <rect
     style="fill:#414757;fill-opacity:1;stroke-width:0.264583;stroke-linejoin:round"
     id="rect2161"
     width="12.964583"
     height="8.7312498"
     x="1.984375"
     y="3.8364582"
     ry="0.39687499" />
  <path
     id="rect846"
     style="opacity:0.8;fill:#252831;fill-opacity:1;stroke-width:0.264583;stroke-linejoin:round"
     d="m 2.3812501,3.7041667 c -0.2931583,0 -0.5291667,0.2360084 -0.5291667,0.5291667 v 7.9375006 c 0,0.293158 0.2360084,0.529167 0.5291667,0.529167 H 14.552084 c 0.293158,0 0.529166,-0.236009 0.529166,-0.529167 V 4.2333334 c 0,-0.2931583 -0.236008,-0.5291667 -0.529166,-0.5291667 z m 0,0.2645833 H 14.552084 c 0.146579,0 0.264583,0.1180042 0.264583,0.2645834 v 7.9375006 c 0,0.146579 -0.118004,0.264583 -0.264583,0.264583 H 2.3812501 c -0.1465792,0 -0.2645833,-0.118004 -0.2645833,-0.264583 V 4.2333334 c 0,-0.1465792 0.1180041,-0.2645834 0.2645833,-0.2645834 z"
     sodipodi:nodetypes="ssssssssssssssssss" />
  <rect
     style="fill:#808080;fill-opacity:1;stroke-width:0.212697;stroke-linejoin:round"
     id="rect2689"
     width="12.170834"
     height="7.9375"
     x="2.3812499"
     y="4.2333331" />
  <g
     id="path2"
     transform="matrix(0.26458334,0,0,0.26458334,0,-0.52916663)">
    <path
       style="color:#000000;fill:#3e5380;fill-opacity:0.29;stroke-linecap:round;stroke-linejoin:round;-inkscape-stroke:none;paint-order:markers stroke fill"
       d="m 2,50 a 1.0001,1.0001 0 0 0 -1,1 v 1 a 1.0001,1.0001 0 0 0 0.9003906,0.994141 l 10.0000004,1 A 1.0001,1.0001 0 0 0 12,54 h 40 a 1.0001,1.0001 0 0 0 0.09961,-0.0059 l 10,-1 A 1.0001,1.0001 0 0 0 63,52 V 51 A 1.0001,1.0001 0 0 0 62,50 H 38 a 1.0001,1.0001 0 0 0 -0.707031,0.292969 L 36.585937,51 H 27.414062 L 26.707031,50.292969 A 1.0001,1.0001 0 0 0 26,50 Z"
       id="path852" />
    <path
       style="color:#000000;fill:#ffffff;stroke-width:2;stroke-linecap:round;stroke-linejoin:round;-inkscape-stroke:none;paint-order:markers stroke fill"
       d="m 2,51 h 24 l 1,1 h 10 l 1,-1 h 24 v 1 L 52,53 H 12 L 2,52 Z"
       id="path854" />
  </g>
  <path
     d="M 0.52916671,12.964583 H 6.8791668 l 0.2645833,0.264584 h 2.6458336 l 0.2645833,-0.264584 h 6.35 v 0.264584 L 13.758334,13.49375 H 3.175 L 0.52916671,13.229167 Z"
     style="fill:#ffffff;stroke-width:0.264583;paint-order:markers stroke fill"
     id="path961" />
  <path
     id="rect1268"
     style="opacity:1;fill:#414757;fill-opacity:1;stroke-width:0.264583;stroke-linecap:round;stroke-linejoin:round"
     d="m 12.7,7.5406251 h 3.175 c 0.366448,0 0.661458,0.2950104 0.661458,0.6614583 v 6.3499996 c 0,0.366448 -0.29501,0.661459 -0.661458,0.661459 H 12.7 c -0.366448,0 -0.661458,-0.295011 -0.661458,-0.661459 V 8.2020834 c 0,-0.3664479 0.29501,-0.6614583 0.661458,-0.6614583 z" />
  <path
     id="rect921"
     style="opacity:0.3;fill:#000000;stroke-width:0.264583;stroke-linecap:round;stroke-linejoin:round"
     d="m 12.7,7.4083335 c -0.439737,0 -0.79375,0.3540125 -0.79375,0.79375 v 6.3500005 c 0,0.439737 0.354013,0.79375 0.79375,0.79375 h 3.175 c 0.439738,0 0.79375,-0.354013 0.79375,-0.79375 V 8.2020835 c 0,-0.4397375 -0.354012,-0.79375 -0.79375,-0.79375 z m 0,0.2645834 h 3.175 c 0.293159,0 0.529167,0.2360083 0.529167,0.5291666 v 6.3500005 c 0,0.293158 -0.236008,0.529166 -0.529167,0.529166 H 12.7 c -0.293158,0 -0.529166,-0.236008 -0.529166,-0.529166 V 8.2020835 c 0,-0.2931583 0.236008,-0.5291666 0.529166,-0.5291666 z" />
  <path
     id="rect6655"
     style="opacity:1;fill:#5294eb;stroke-width:0.264583;stroke-linecap:round;stroke-linejoin:round"
     d="M 12.700001,7.9375 H 15.875 c 0.14658,0 0.264584,0.1180042 0.264584,0.2645834 v 6.3499996 c 0,0.14658 -0.118004,0.264584 -0.264584,0.264584 h -3.174999 c -0.14658,0 -0.264584,-0.118004 -0.264584,-0.264584 V 8.2020834 c 0,-0.1465792 0.118004,-0.2645834 0.264584,-0.2645834 z"
     sodipodi:nodetypes="sssssssss" />
  <path
     id="rect7684"
     style="opacity:1;fill:#414757;stroke-width:0.264583;stroke-linecap:round;stroke-linejoin:round"
     d="m 13.758334,8.2020833 h 1.058333 c 0.146579,0 0.264584,-0.1180042 0.264584,-0.2645833 L 14.552084,7.6729167 H 13.493751 V 7.9375 c 0,0.1465791 0.118004,0.2645833 0.264583,0.2645833 z"
     sodipodi:nodetypes="ssccccs" />
</svg>
