<?xml version="1.0" encoding="UTF-8" standalone="no"?>
<!-- Created with Inkscape (http://www.inkscape.org/) -->

<svg
   width="64"
   height="64"
   viewBox="0 0 16.933333 16.933334"
   version="1.1"
   id="svg5"
   inkscape:version="1.1.2 (0a00cf5339, 2022-02-04, custom)"
   sodipodi:docname="org.gnome.Software.Work.svg"
   xmlns:inkscape="http://www.inkscape.org/namespaces/inkscape"
   xmlns:sodipodi="http://sodipodi.sourceforge.net/DTD/sodipodi-0.dtd"
   xmlns="http://www.w3.org/2000/svg"
   xmlns:svg="http://www.w3.org/2000/svg">
  <sodipodi:namedview
     id="namedview7"
     pagecolor="#ffffff"
     bordercolor="#666666"
     borderopacity="1.0"
     inkscape:pageshadow="2"
     inkscape:pageopacity="0.0"
     inkscape:pagecheckerboard="0"
     inkscape:document-units="px"
     showgrid="false"
     units="px"
     height="64px"
     showguides="false"
     inkscape:zoom="9.0929513"
     inkscape:cx="30.62812"
     inkscape:cy="45.034883"
     inkscape:window-width="1920"
     inkscape:window-height="1019"
     inkscape:window-x="0"
     inkscape:window-y="31"
     inkscape:window-maximized="1"
     inkscape:current-layer="svg5" />
  <defs
     id="defs2" />
  <path
     id="rect927"
     style="opacity:1;fill:#2b60b2;fill-opacity:1;stroke-width:0.264583;stroke-linecap:round;stroke-linejoin:round"
     d="M 3.4395834,1.0583333 H 13.49375 c 0.732896,0 1.322917,0.5900208 1.322917,1.3229167 v 12.170833 c 0,0.732896 -0.590021,1.322917 -1.322917,1.322917 H 3.4395834 c -0.7328959,0 -1.3229167,-0.590021 -1.3229167,-1.322917 V 2.38125 c 0,-0.7328959 0.5900208,-1.3229167 1.3229167,-1.3229167 z"
     sodipodi:nodetypes="sssssssss" />
  <path
     id="rect1211"
     style="opacity:1;fill:#1b73ee;fill-opacity:1;stroke-width:0.264583;stroke-linecap:round;stroke-linejoin:round"
     d="M 3.4395835,1.3229167 H 13.49375 c 0.586316,0 1.058333,0.4720167 1.058333,1.0583334 V 14.552083 c 0,0.586316 -0.472017,1.058333 -1.058333,1.058333 H 3.4395835 c -0.5863167,0 -1.0583334,-0.472017 -1.0583334,-1.058333 V 2.3812501 c 0,-0.5863167 0.4720167,-1.0583334 1.0583334,-1.0583334 z"
     sodipodi:nodetypes="sssssssss" />
  <path
     d="M 3.4395835,1.3229167 H 13.493749 c 0.586316,0 1.058333,0.4720168 1.058333,1.0583335 v 8.4666658 c 0,0.586316 -0.472017,1.058333 -1.058333,1.058333 H 3.4395835 c -0.5863167,0 -1.0583334,-0.472017 -1.0583334,-1.058333 V 2.3812502 c 0,-0.5863167 0.4720167,-1.0583335 1.0583334,-1.0583335 z"
     style="opacity:1;fill:#6ba5f4;fill-opacity:1;stroke-width:0.0700042;stroke-linecap:round;stroke-linejoin:round"
     id="path1760"
     sodipodi:nodetypes="sssssssss" />
  <path
     id="rect2102"
     style="opacity:1;fill:#1b73ee;fill-opacity:1;stroke-width:0.264583;stroke-linecap:round;stroke-linejoin:round"
     d="M 3.4395834,2.1166666 H 13.49375 c 0.146579,0 0.264583,0.1180042 0.264583,0.2645834 v 8.466667 c 0,0.146579 -0.118004,0.264583 -0.264583,0.264583 H 3.4395834 C 3.2930042,11.1125 3.175,10.994496 3.175,10.847917 V 2.38125 c 0,-0.1465792 0.1180042,-0.2645834 0.2645834,-0.2645834 z"
     sodipodi:nodetypes="sssssssss" />
  <path
     d="m 3.9824959,2.9104169 c -0.1520433,0 -0.275299,0.1291193 -0.275299,0.2883959 l -0.00303,7.9062792 h 2.273009 v 1.065742 h 4.9789301 v -1.065742 h 2.273009 l -0.0069,-7.9060147 c 0,-0.1592765 -0.123256,-0.2883958 -0.275299,-0.2883958 z"
     style="opacity:0.15;fill:#000000;stroke-width:0.129249"
     id="path5343"
     sodipodi:nodetypes="ccccccccccc" />
  <path
     d="m 4.2338185,3.1750001 c -0.1447969,0 -0.2621783,0.125068 -0.2621783,0.2793472 l -0.00289,7.6914377 h 2.164768 v 1.289631 h 4.6661948 v -1.289631 h 2.164768 l -0.0066,-7.6911731 c 0,-0.1542792 -0.118348,-0.2626422 -0.262178,-0.2793472 H 8.1395771 Z"
     style="fill:#f6f5f4;stroke-width:0.12414"
     id="path6801"
     sodipodi:nodetypes="cccccccccscc" />
  <path
     id="rect3440"
     style="fill:#4d4d4d;fill-opacity:1;stroke-width:0.264583;stroke-linecap:round;stroke-linejoin:round"
     d="M 7.3364269,4.7625001 5.9943898,6.1040202 5.1365609,5.2461915 4.7624236,5.620329 5.6202525,6.4781577 5.9943898,6.8528119 6.368527,6.4781577 7.7105641,5.1366374 Z m 0,3.1750001 L 5.9943898,9.2790201 5.1365609,8.4211916 4.7624236,8.7953291 5.6202525,9.6531581 5.9943898,10.027812 6.368527,9.6531581 7.7105641,8.3116374 Z"
     sodipodi:nodetypes="cccccccccccccccccc" />
  <path
     id="rect3856"
     style="fill:#bdbdbd;fill-opacity:1;stroke-width:0.264583;stroke-linecap:round;stroke-linejoin:round"
     d="M 8.4666669,5.5562501 V 6.0854168 H 12.170833 V 5.5562501 Z m 0,3.1750001 V 9.2604171 H 12.170833 V 8.7312502 Z"
     sodipodi:nodetypes="cccccccccc" />
  <path
     d="m 11.112501,12.435417 v 0.529167 c 0,0.293158 -0.236009,0.529166 -0.529167,0.529166 H 6.3500002 c -0.2931583,0 -0.5291666,-0.236008 -0.5291666,-0.529166 v -0.529167 z"
     style="fill:#c0bfbc;fill-opacity:1;stroke-width:0.132292"
     id="path6082"
     sodipodi:nodetypes="csssscc" />
  <path
     d="m 3.4395835,2.1166667 c -0.1465792,0 -0.2645833,0.1180041 -0.2645833,0.2645833 v 8.466666 c 0,0.146579 0.1180041,0.264584 0.2645833,0.264584 h 0.2759604 l -0.00827,0.0062 2.1135711,-0.0062 v 1.322916 0.529167 c 0,0.293158 0.2360083,0.529167 0.5291667,0.529167 h 4.2333333 c 0.293158,0 0.529166,-0.236009 0.529166,-0.529167 V 12.435416 11.1125 h 2.116667 0.264583 c 0.14658,0 0.264584,-0.118005 0.264584,-0.264584 V 2.38125 c 0,-0.1465792 -0.118004,-0.2645833 -0.264584,-0.2645833 z M 3.7041668,2.38125 h 9.5250002 c 0.146579,0 0.264583,0.1180042 0.264583,0.2645833 v 7.9374997 c 0,0.146579 -0.118004,0.264583 -0.264583,0.264583 h -2.38125 v 2.116667 c 0,0.146579 -0.118004,0.264583 -0.264584,0.264583 H 6.3500002 c -0.1465791,0 -0.3001341,-0.12238 -0.2645833,-0.264583 V 10.847916 H 3.7041668 c -0.1465791,0 -0.2645833,-0.118004 -0.2645833,-0.264583 V 2.6458333 c 0,-0.1465791 0.1180042,-0.2645833 0.2645833,-0.2645833 z"
     style="opacity:0.15;fill:#000000;stroke-width:0.129249"
     id="path4989"
     sodipodi:nodetypes="ssssccccsssscccsssssssssscsssscssss" />
  <path
     id="rect2368"
     style="opacity:1;fill:#6ba5f4;fill-opacity:1;stroke-width:0.264583;stroke-linecap:round;stroke-linejoin:round"
     d="m 5.8208337,12.964583 v 0.926042 c 0,0.293158 0.2360083,0.529167 0.5291667,0.529167 h 4.2333336 c 0.293158,0 0.529167,-0.236009 0.529167,-0.529167 v -0.926042 c 0,0.293159 -0.236009,0.529167 -0.529167,0.529167 H 6.3500004 c -0.2931584,0 -0.5291667,-0.236008 -0.5291667,-0.529167 z"
     sodipodi:nodetypes="csssscssc" />
</svg>
