<?xml version="1.0" encoding="UTF-8" standalone="no"?>
<!-- Created with Inkscape (http://www.inkscape.org/) -->

<svg
   width="64"
   height="64"
   viewBox="0 0 16.933333 16.933334"
   version="1.1"
   id="svg5"
   inkscape:version="1.1.2 (0a00cf5339, 2022-02-04, custom)"
   sodipodi:docname="org.gnome.Software.Learn.svg"
   xmlns:inkscape="http://www.inkscape.org/namespaces/inkscape"
   xmlns:sodipodi="http://sodipodi.sourceforge.net/DTD/sodipodi-0.dtd"
   xmlns="http://www.w3.org/2000/svg"
   xmlns:svg="http://www.w3.org/2000/svg">
  <sodipodi:namedview
     id="namedview7"
     pagecolor="#ffffff"
     bordercolor="#666666"
     borderopacity="1.0"
     inkscape:pageshadow="2"
     inkscape:pageopacity="0.0"
     inkscape:pagecheckerboard="0"
     inkscape:document-units="px"
     showgrid="false"
     units="px"
     height="64px"
     showguides="false"
     inkscape:zoom="12.859375"
     inkscape:cx="32"
     inkscape:cy="32"
     inkscape:window-width="1920"
     inkscape:window-height="1019"
     inkscape:window-x="0"
     inkscape:window-y="31"
     inkscape:window-maximized="1"
     inkscape:current-layer="svg5" />
  <defs
     id="defs2" />
  <path
     id="rect890"
     style="opacity:0.75;fill:#1d793d;fill-opacity:1;stroke-width:0.264583;stroke-linejoin:round;stroke-opacity:0.501961"
     d="m 2.38125,1.3229167 c -0.5863167,0 -1.0583333,0.4720166 -1.0583333,1.0583333 v 12.170833 c 0,0.586317 0.4720166,1.058334 1.0583333,1.058334 h 12.170834 c 0.586317,0 1.058333,-0.472017 1.058333,-1.058334 V 2.38125 c 0,-0.5863167 -0.472016,-1.0583333 -1.058333,-1.0583333 z"
     sodipodi:nodetypes="sssssssss" />
  <path
     id="rect1201"
     style="fill:#34d05c;fill-opacity:1;stroke-width:0.264583;stroke-linejoin:round;stroke-opacity:0.501961"
     d="m 2.38125,1.5875 c -0.4397375,0 -0.79375,0.3540123 -0.79375,0.79375 v 12.170833 c 0,0.439738 0.3540125,0.79375 0.79375,0.79375 h 12.170834 c 0.439738,0 0.79375,-0.354012 0.79375,-0.79375 V 2.38125 c 0,-0.4397377 -0.354012,-0.79375 -0.79375,-0.79375 z"
     sodipodi:nodetypes="sssssssss" />
  <path
     d="M 2.3815157,1.5885001 V 2.3825157 H 1.5875 V 2.647521 H 2.3815157 V 3.7055419 H 1.5875 v 0.2650055 h 0.7940157 v 1.05802 H 1.5875 v 0.265006 h 0.7940157 v 1.05802 H 1.5875 v 0.265006 h 0.7940157 v 1.058021 H 1.5875 v 0.264005 h 0.7940157 v 1.059021 H 1.5875 v 0.264005 H 2.3815157 V 10.320672 H 1.5875 v 0.264005 h 0.7940157 v 1.059021 H 1.5875 v 0.264005 h 0.7940157 v 1.059021 H 1.5875 v 0.264005 H 2.3815157 V 14.28875 H 1.5875 v 0.265005 h 0.7940157 v 0.794016 H 2.646521 v -0.794016 h 1.0580208 v 0.794016 H 3.969547 v -0.794016 h 1.0580209 v 0.794016 h 0.2650053 v -0.794016 h 1.0580207 v 0.794016 H 6.6155992 V 14.553755 H 7.67362 v 0.794016 H 7.9376252 V 14.553755 H 8.996646 v 0.794016 h 0.2640052 v -0.794016 h 1.0590208 v 0.794016 h 0.264005 v -0.794016 h 1.059021 v 0.794016 h 0.264005 v -0.794016 h 1.059021 v 0.794016 h 0.264005 v -0.794016 h 1.058021 v 0.794016 h 0.265005 v -0.794016 h 0.794016 V 14.28875 h -0.794016 v -1.057021 h 0.794016 v -0.264005 h -0.794016 v -1.059021 h 0.794016 v -0.264005 h -0.794016 v -1.059021 h 0.794016 V 10.321672 H 14.552755 V 9.2616514 h 0.794016 v -0.264005 h -0.794016 v -1.059021 h 0.794016 v -0.264005 h -0.794016 v -1.058021 h 0.794016 v -0.265006 h -0.794016 v -1.05802 h 0.794016 v -0.265006 h -0.794016 v -1.05702 h 0.794016 V 3.7065417 H 14.552755 V 2.647521 h 0.794016 V 2.3815157 H 14.552755 V 1.5875 H 14.28775 V 2.3815157 H 13.230729 V 1.5875 H 12.966724 V 2.3815157 H 11.907703 V 1.5875 H 11.643698 V 2.3815157 H 10.584677 V 1.5875 H 10.320672 V 2.3815157 H 9.2606512 V 1.5875 H 8.996646 V 2.3815157 H 7.9376252 V 1.5875 H 7.67362 V 2.3815157 H 6.6155992 V 1.5875 H 6.3505939 V 2.3815157 H 5.2925732 V 1.5875 H 5.0275679 V 2.3815157 H 3.9705471 V 1.5875 H 3.7055417 V 2.3815157 H 2.646521 V 1.5875 H 2.3805157 Z M 2.646521,2.647521 H 3.7045418 V 3.7055419 H 2.646521 Z m 1.323026,0 H 5.0275679 V 3.7055419 H 3.9705471 V 2.647521 Z m 1.3230262,0 H 6.3505939 V 3.7055419 H 5.2925732 Z m 1.323026,0 H 7.67362 V 3.7055419 H 6.6155992 Z m 1.322026,0 H 8.996646 V 3.7055419 H 7.9376252 Z m 1.323026,0 H 10.319672 V 3.7055419 H 9.2606512 Z m 1.3230258,0 h 1.059021 v 1.0580209 h -1.059021 z m 1.323026,0 h 1.059021 v 1.0580209 h -1.059021 z m 1.323026,0 H 14.28775 V 3.7055419 H 13.230729 V 2.647521 Z M 2.646521,3.9705474 h 1.0580208 v 1.05802 H 2.646521 v -1.05702 z m 1.323026,0 h 1.0580209 v 1.05802 H 3.9705471 v -1.05702 z m 1.3230262,0 h 1.0580207 v 1.05802 H 5.2925732 v -1.05702 z m 1.323026,0 H 7.67362 v 1.05802 H 6.6155992 v -1.05702 z m 1.322026,0 H 8.996646 v 1.05802 H 7.9376252 v -1.05702 z m 1.323026,0 h 1.0590208 v 1.05802 H 9.2606512 v -1.05702 z m 1.3230258,0 h 1.059021 v 1.05802 h -1.059021 v -1.05702 z m 1.323026,0 h 1.059021 v 1.05802 h -1.059021 v -1.05702 z m 1.323026,0 h 1.058021 v 1.05802 h -1.057021 v -1.05702 z M 2.646521,5.2935734 h 1.0580208 v 1.05802 H 2.646521 Z m 1.323026,0 h 1.0580209 v 1.05802 H 3.9705471 v -1.05802 z m 1.3230262,0 h 1.0580207 v 1.05802 H 5.2925732 Z m 1.323026,0 H 7.67362 v 1.05802 H 6.6155992 Z m 1.322026,0 H 8.996646 v 1.05802 H 7.9376252 Z m 1.323026,0 h 1.0590208 v 1.05802 H 9.2606512 Z m 1.3230258,0 h 1.059021 v 1.05802 h -1.059021 z m 1.323026,0 h 1.059021 v 1.05802 h -1.059021 z m 1.323026,0 h 1.058021 v 1.05802 h -1.057021 v -1.05802 z M 2.646521,6.6165994 h 1.0580208 v 1.058021 H 2.646521 Z m 1.323026,0 h 1.0580209 v 1.058021 H 3.9705471 v -1.058021 z m 1.3230262,0 h 1.0580207 v 1.058021 H 5.2925732 Z m 1.323026,0 H 7.67362 v 1.058021 H 6.6155992 Z m 1.322026,0 H 8.996646 v 1.058021 H 7.9376252 Z m 1.323026,0 h 1.0590208 v 1.058021 H 9.2606512 Z m 1.3230258,0 h 1.059021 v 1.058021 h -1.059021 z m 1.323026,0 h 1.059021 v 1.058021 h -1.059021 z m 1.323026,0 h 1.058021 v 1.058021 H 13.230729 V 6.6165994 Z M 2.646521,7.9386254 h 1.0580208 v 1.059021 H 2.646521 Z m 1.323026,0 h 1.0580209 v 1.059021 H 3.9705471 v -1.059021 z m 1.3230262,0 h 1.0580207 v 1.059021 H 5.2925732 Z m 1.323026,0 H 7.67362 v 1.059021 H 6.6155992 Z m 1.322026,0 H 8.996646 v 1.059021 H 7.9376252 Z m 1.323026,0 h 1.0590208 v 1.059021 H 9.2606512 Z m 1.3230258,0 h 1.059021 v 1.059021 h -1.059021 z m 1.323026,0 h 1.059021 v 1.059021 h -1.059021 z m 1.323026,0 h 1.058021 v 1.059021 H 13.230729 V 7.9386254 Z M 2.646521,9.2616514 H 3.7045418 V 10.320672 H 2.646521 Z m 1.323026,0 H 5.0275679 V 10.320672 H 3.9705471 V 9.2616514 Z m 1.3230262,0 H 6.3505939 V 10.320672 H 5.2925732 Z m 1.323026,0 H 7.67362 V 10.320672 H 6.6155992 Z m 1.322026,0 H 8.996646 V 10.320672 H 7.9376252 Z m 1.323026,0 H 10.319672 V 10.320672 H 9.2606512 Z m 1.3230258,0 h 1.059021 v 1.0590206 h -1.059021 z m 1.323026,0 h 1.059021 v 1.0590206 h -1.059021 z m 1.323026,0 H 14.28775 V 10.320672 H 13.230729 V 9.2616514 Z M 2.646521,10.584677 h 1.0580208 v 1.059021 H 2.646521 Z m 1.323026,0 h 1.0580209 v 1.059021 H 3.9705471 v -1.059021 z m 1.3230262,0 h 1.0580207 v 1.059021 H 5.2925732 Z m 1.323026,0 H 7.67362 v 1.059021 H 6.6155992 Z m 1.322026,0 H 8.996646 v 1.059021 H 7.9376252 Z m 1.323026,0 h 1.0590208 v 1.059021 H 9.2606512 Z m 1.3230258,0 h 1.059021 v 1.059021 h -1.059021 z m 1.323026,0 h 1.059021 v 1.059021 h -1.059021 z m 1.323026,0 h 1.058021 v 1.059021 H 13.230729 V 10.584677 Z M 2.646521,11.907703 h 1.0580208 v 1.059021 H 2.646521 Z m 1.323026,0 h 1.0580209 v 1.059021 H 3.9705471 v -1.059021 z m 1.3230262,0 h 1.0580207 v 1.059021 H 5.2925732 Z m 1.323026,0 H 7.67362 v 1.059021 H 6.6155992 Z m 1.322026,0 H 8.996646 v 1.059021 H 7.9376252 Z m 1.323026,0 h 1.0590208 v 1.059021 H 9.2606512 Z m 1.3230258,0 h 1.059021 v 1.059021 h -1.059021 z m 1.323026,0 h 1.059021 v 1.059021 h -1.059021 z m 1.323026,0 h 1.058021 v 1.059021 H 13.230729 V 11.907703 Z M 2.646521,13.231729 H 3.7045418 V 14.28975 H 2.646521 Z m 1.323026,0 H 5.0275679 V 14.28975 H 3.9705471 v -1.058021 z m 1.3230262,0 H 6.3505939 V 14.28975 H 5.2925732 Z m 1.323026,0 H 7.67362 V 14.28975 H 6.6155992 Z m 1.322026,0 H 8.996646 V 14.28975 H 7.9376252 Z m 1.323026,0 H 10.319672 V 14.28975 H 9.2606512 Z m 1.3230258,0 h 1.059021 v 1.058021 h -1.059021 z m 1.323026,0 h 1.059021 v 1.058021 h -1.059021 z m 1.323026,0 h 1.058021 v 1.058021 h -1.057021 v -1.058021 z"
     style="opacity:0.1;fill:#ffffff;fill-rule:evenodd;stroke-width:0.264583;paint-order:fill markers stroke"
     id="path858-3" />
  <path
     d="M 8.4674169,5.2916666 4.2333334,6.9847 8.4674169,8.6797339 11.64248,7.4097084 v 0.7430145 c -0.241109,0.1050389 -0.397012,0.343017 -0.397008,0.606013 1.29e-4,0.2707597 0.16537,0.5140637 0.417008,0.6140107 L 11.311473,10.58377 h 1.270025 L 12.220491,9.3397466 c 0.213942,-0.11502 0.347567,-0.338111 0.348007,-0.5810107 3e-6,-0.262996 -0.1559,-0.5009741 -0.397008,-0.606013 V 7.1977041 L 12.7005,6.9856998 8.4674169,5.2926665 Z M 6.350375,8.4667289 v 2.2220431 c 0,0.526338 0.947832,0.953019 2.1170419,0.953019 1.1688191,-2.48e-4 2.1160421,-0.426856 2.1160421,-0.953019 V 8.4667289 L 8.4674169,9.3617466 Z"
     style="fill:#ffffff;stroke-width:0.264583"
     id="path858" />
</svg>
