<?xml version="1.0" encoding="UTF-8" standalone="no"?>
<!-- Created with Inkscape (http://www.inkscape.org/) -->

<svg
   width="64"
   height="64"
   viewBox="0 0 16.933333 16.933334"
   version="1.1"
   id="svg5"
   inkscape:version="1.1.2 (0a00cf5339, 2022-02-04, custom)"
   sodipodi:docname="org.xfce.terminal-settings.svg"
   xmlns:inkscape="http://www.inkscape.org/namespaces/inkscape"
   xmlns:sodipodi="http://sodipodi.sourceforge.net/DTD/sodipodi-0.dtd"
   xmlns="http://www.w3.org/2000/svg"
   xmlns:svg="http://www.w3.org/2000/svg">
  <sodipodi:namedview
     id="namedview7"
     pagecolor="#ffffff"
     bordercolor="#666666"
     borderopacity="1.0"
     inkscape:pageshadow="2"
     inkscape:pageopacity="0.0"
     inkscape:pagecheckerboard="0"
     inkscape:document-units="px"
     showgrid="false"
     units="px"
     height="64px"
     showguides="false"
     inkscape:zoom="1"
     inkscape:cx="38"
     inkscape:cy="50.5"
     inkscape:window-width="1920"
     inkscape:window-height="1019"
     inkscape:window-x="0"
     inkscape:window-y="31"
     inkscape:window-maximized="1"
     inkscape:current-layer="svg5" />
  <defs
     id="defs2" />
  <path
     id="rect1201"
     style="fill:#454d51;fill-opacity:1;stroke-width:0.264583;stroke-linejoin:round;stroke-opacity:0.501961"
     d="m 2.38125,1.5875 c -0.4397375,0 -0.79375,0.3540123 -0.79375,0.79375 v 12.170833 c 0,0.439738 0.3540125,0.79375 0.79375,0.79375 h 12.170834 c 0.439738,0 0.79375,-0.354012 0.79375,-0.79375 V 2.38125 c 0,-0.4397377 -0.354012,-0.79375 -0.79375,-0.79375 z"
     sodipodi:nodetypes="sssssssss" />
  <path
     id="rect890"
     style="opacity:0.6;fill:#5b5b5b;fill-opacity:1;stroke-width:0.264583;stroke-linejoin:round;stroke-opacity:0.501961"
     d="m 2.38125,1.3229167 c -0.5863167,0 -1.0583333,0.4720166 -1.0583333,1.0583333 v 12.170833 c 0,0.586317 0.4720166,1.058334 1.0583333,1.058334 h 12.170834 c 0.586317,0 1.058333,-0.472017 1.058333,-1.058334 V 2.38125 c 0,-0.5863167 -0.472016,-1.0583333 -1.058333,-1.0583333 z m 0,0.2645833 h 12.170834 c 0.439738,0 0.79375,0.3540125 0.79375,0.79375 v 12.170833 c 0,0.439738 -0.354012,0.79375 -0.79375,0.79375 H 2.38125 c -0.4397375,0 -0.79375,-0.354012 -0.79375,-0.79375 V 2.38125 c 0,-0.4397375 0.3540125,-0.79375 0.79375,-0.79375 z"
     sodipodi:nodetypes="sssssssssssccssccs" />
  <path
     d="m 3.6861856,3.4401729 c -0.08786,0.00601 -0.166937,0.055434 -0.2108399,0.1317749 -0.073566,0.1266516 -0.02997,0.2889819 0.097152,0.3617352 L 6.4147013,5.5738927 3.5724972,7.2146194 c -0.1268092,0.07274 -0.1703641,0.2346814 -0.097152,0.3612184 0.074002,0.1270024 0.2352492,0.1701529 0.3622516,0.097152 L 7.0456701,5.8209062 c 0.079063,-0.047009 0.1274037,-0.1322938 0.1271241,-0.2242756 0.00201,-0.008 0.00106,-0.014737 0.00206,-0.022738 0,-0.008 -6.69e-5,-0.014221 -0.00206,-0.022219 C 7.1732705,5.4595063 7.1248922,5.3739829 7.0456701,5.3268802 L 3.8375973,3.4747968 c -0.030873,-0.01761 -0.064961,-0.028857 -0.1002522,-0.033073 -0.016962,-0.00217 -0.034097,-0.00269 -0.051159,-0.00156 z M 5.307792,8.2429804 c -0.1404076,0.00706 -0.2511475,0.1226267 -0.2511475,0.2645833 0,0.1465361 0.1182872,0.2640666 0.2651,0.2640666 h 3.7031328 c 0.1468129,0 0.2645832,-0.1175305 0.2645832,-0.2640666 0,-0.1465357 -0.1177703,-0.2645833 -0.2645832,-0.2645833 H 5.3217445 c -0.00459,0 -0.00942,-2.276e-4 -0.013951,0 z"
     style="fill:#ffffff;stroke-width:1.00002;paint-order:stroke markers fill"
     id="path11232" />
  <circle
     style="opacity:0.7;fill:#333333;stroke-width:0.544232;stroke-linejoin:round"
     id="path845"
     cx="12.435417"
     cy="12.435416"
     r="3.96875" />
  <circle
     style="fill:#808080;stroke-width:0.493889;stroke-linejoin:round"
     id="path1011"
     cx="12.435417"
     cy="12.435417"
     r="3.7041667" />
  <path
     d="m 11.887357,10.31875 -0.04667,0.55753 c -0.176775,0.06548 -0.34113,0.160544 -0.48604,0.281119 l -0.50673,-0.238601 -0.529167,0.91657 0.460058,0.319511 c -0.01639,0.09263 -0.02488,0.186475 -0.0254,0.280537 5e-5,0.09442 0.0081,0.188658 0.02418,0.281702 l -0.458788,0.318559 0.529167,0.916569 0.505539,-0.238008 c 0.1454,0.120063 0.310159,0.214525 0.487231,0.279347 l 0.04667,0.558694 h 1.058333 l 0.04667,-0.55753 c 0.176784,-0.06548 0.341148,-0.160542 0.486066,-0.28112 l 0.50673,0.238601 0.529167,-0.916569 -0.460058,-0.319511 c 0.01639,-0.09263 0.02488,-0.186475 0.0254,-0.280538 -5e-5,-0.09442 -0.0081,-0.188658 -0.02418,-0.281702 l 0.458894,-0.31832 -0.529167,-0.91657 -0.50554,0.238009 c -0.145399,-0.120063 -0.310158,-0.214526 -0.48723,-0.279347 l -0.04667,-0.558694 h -1.058334 z m 0.529167,1.511935 c 0.334055,-2.9e-5 0.604866,0.270783 0.604837,0.604837 2.9e-5,0.334055 -0.270782,0.604867 -0.604837,0.604838 -0.334055,2.9e-5 -0.604867,-0.270783 -0.604838,-0.604838 -2.9e-5,-0.334054 0.270783,-0.604866 0.604838,-0.604837 z"
     style="fill:#ffffff;stroke-width:0.264583"
     id="path870" />
</svg>
