<?xml version="1.0" encoding="UTF-8" standalone="no"?>
<!-- Created with Inkscape (http://www.inkscape.org/) -->

<svg
   width="64"
   height="64"
   viewBox="0 0 16.933333 16.933334"
   version="1.1"
   id="svg5"
   inkscape:version="1.1.2 (0a00cf5339, 2022-02-04, custom)"
   sodipodi:docname="panel.svg"
   xmlns:inkscape="http://www.inkscape.org/namespaces/inkscape"
   xmlns:sodipodi="http://sodipodi.sourceforge.net/DTD/sodipodi-0.dtd"
   xmlns="http://www.w3.org/2000/svg"
   xmlns:svg="http://www.w3.org/2000/svg">
  <sodipodi:namedview
     id="namedview7"
     pagecolor="#ffffff"
     bordercolor="#666666"
     borderopacity="1.0"
     inkscape:pageshadow="2"
     inkscape:pageopacity="0.0"
     inkscape:pagecheckerboard="0"
     inkscape:document-units="px"
     showgrid="false"
     units="px"
     height="64px"
     showguides="false"
     inkscape:zoom="12.484375"
     inkscape:cx="32"
     inkscape:cy="32"
     inkscape:window-width="1920"
     inkscape:window-height="1019"
     inkscape:window-x="0"
     inkscape:window-y="31"
     inkscape:window-maximized="1"
     inkscape:current-layer="svg5" />
  <defs
     id="defs2" />
  <path
     id="rect1595"
     style="opacity:1;stroke-width:0.264583;stroke-linecap:round;fill:#e6e6e6;fill-opacity:1"
     d="M 2.1166667,2.2489584 H 14.816667 c 0.513027,0 0.926042,0.4130146 0.926042,0.9260417 V 13.758334 c 0,0.513027 -0.413015,0.926042 -0.926042,0.926042 H 2.1166667 c -0.5130271,0 -0.9260417,-0.413015 -0.9260417,-0.926042 V 3.1750001 c 0,-0.5130271 0.4130146,-0.9260417 0.9260417,-0.9260417 z" />
  <path
     d="m 2.1166667,2.3812501 c -0.4397375,0 -0.79375,0.3540123 -0.79375,0.79375 l -8e-7,8.4666659 H 15.610416 l 10e-7,-8.4666659 c 0,-0.4397377 -0.354012,-0.79375 -0.79375,-0.79375 z"
     style="fill:#f9f9f9;fill-opacity:1;stroke-width:0.264583;stroke-linecap:round"
     id="path2168"
     sodipodi:nodetypes="ssccsss" />
  <path
     id="rect890"
     style="opacity:0.2;fill:#000000;fill-opacity:1;stroke-width:0.999999;stroke-linejoin:round;stroke-opacity:0.501961"
     d="M 8 8 C 5.7839999 8 4 9.7839999 4 12 L 4 52 C 4 54.216001 5.7839999 56 8 56 L 56 56 C 58.216001 56 60 54.216001 60 52 L 60 12 C 60 9.7839999 58.216001 8 56 8 L 8 8 z M 8 9 L 56 9 C 57.662002 9 59 10.337999 59 12 L 59 52 C 59 53.662002 57.662002 55 56 55 L 8 55 C 6.338 55 5 53.662002 5 52 L 5 12 C 5 10.337999 6.338 9 8 9 z "
     transform="scale(0.26458334)" />
  <rect
     style="opacity:0.15;fill:#000000;fill-opacity:1;stroke-width:0.264583;stroke-linecap:round"
     id="rect1864"
     width="14.2875"
     height="0.26458335"
     x="1.3229159"
     y="11.641666" />
  <rect
     style="opacity:0.75;fill:#b3b3b3;fill-opacity:1;stroke-width:0.264583;stroke-linecap:round"
     id="rect966"
     width="3.7041667"
     height="1.0583334"
     x="10.847917"
     y="12.7" />
  <path
     id="path2576"
     style="opacity:0.15;fill:#000000;fill-opacity:1;stroke-width:0.999999;stroke-linecap:round"
     d="M 11 47 A 2.9999999 2.9999999 0 0 0 8 50 A 2.9999999 2.9999999 0 0 0 11 53 A 2.9999999 2.9999999 0 0 0 14 50 A 2.9999999 2.9999999 0 0 0 11 47 z M 18.5 47 C 17.669 47 17 47.669 17 48.5 L 17 51.5 C 17 52.331 17.669 53 18.5 53 L 21.5 53 C 22.331 53 23 52.331 23 51.5 L 23 48.5 C 23 47.669 22.331 47 21.5 47 L 18.5 47 z M 28.5 47 C 27.669 47 27 47.669 27 48.5 L 27 51.5 C 27 52.331 27.669 53 28.5 53 L 31.5 53 C 32.331 53 33 52.331 33 51.5 L 33 48.5 C 33 47.669 32.331 47 31.5 47 L 28.5 47 z "
     transform="scale(0.26458334)" />
  <path
     id="rect2910"
     style="opacity:1;fill:#ffffff;fill-opacity:1;stroke-width:0.999999;stroke-linecap:round"
     d="M 11 48 A 2.0000001 2.0000001 0 0 0 9 50 A 2.0000001 2.0000001 0 0 0 11 52 A 2.0000001 2.0000001 0 0 0 13 50 A 2.0000001 2.0000001 0 0 0 11 48 z M 19 48 C 18.446 48 18 48.446 18 49 L 18 51 C 18 51.554 18.446 52 19 52 L 21 52 C 21.554 52 22 51.554 22 51 L 22 49 C 22 48.446 21.554 48 21 48 L 19 48 z M 29 48 C 28.446 48 28 48.446 28 49 L 28 51 C 28 51.554 28.446 52 29 52 L 31 52 C 31.554 52 32 51.554 32 51 L 32 49 C 32 48.446 31.554 48 31 48 L 29 48 z "
     transform="scale(0.26458334)" />
</svg>
