<?xml version="1.0" encoding="UTF-8" standalone="no"?>
<!-- Created with Inkscape (http://www.inkscape.org/) -->

<svg
   width="64"
   height="64"
   viewBox="0 0 16.933333 16.933334"
   version="1.1"
   id="svg5"
   inkscape:version="1.1.2 (0a00cf5339, 2022-02-04, custom)"
   sodipodi:docname="deja-dup.svg"
   xmlns:inkscape="http://www.inkscape.org/namespaces/inkscape"
   xmlns:sodipodi="http://sodipodi.sourceforge.net/DTD/sodipodi-0.dtd"
   xmlns="http://www.w3.org/2000/svg"
   xmlns:svg="http://www.w3.org/2000/svg">
  <sodipodi:namedview
     id="namedview7"
     pagecolor="#ffffff"
     bordercolor="#666666"
     borderopacity="1.0"
     inkscape:pageshadow="2"
     inkscape:pageopacity="0.0"
     inkscape:pagecheckerboard="0"
     inkscape:document-units="px"
     showgrid="false"
     units="px"
     height="64px"
     showguides="false"
     inkscape:zoom="13.15625"
     inkscape:cx="31.961995"
     inkscape:cy="32.038005"
     inkscape:window-width="1920"
     inkscape:window-height="1019"
     inkscape:window-x="0"
     inkscape:window-y="31"
     inkscape:window-maximized="1"
     inkscape:current-layer="svg5" />
  <defs
     id="defs2" />
  <path
     id="rect890"
     style="opacity:0.8;fill:#000000;fill-opacity:1;stroke-width:0.264583;stroke-linejoin:round;stroke-opacity:0.501961"
     d="m 2.38125,1.3229167 c -0.5863167,0 -1.0583333,0.4720166 -1.0583333,1.0583333 v 12.170833 c 0,0.586317 0.4720166,1.058334 1.0583333,1.058334 h 12.170834 c 0.586317,0 1.058333,-0.472017 1.058333,-1.058334 V 2.38125 c 0,-0.5863167 -0.472016,-1.0583333 -1.058333,-1.0583333 z"
     sodipodi:nodetypes="sssssssss" />
  <path
     id="rect1201"
     style="fill:#4d4d4d;fill-opacity:1;stroke-width:0.264583;stroke-linejoin:round;stroke-opacity:0.501961"
     d="m 2.38125,1.5875 c -0.4397375,0 -0.79375,0.3540123 -0.79375,0.79375 v 12.170833 c 0,0.439738 0.3540125,0.79375 0.79375,0.79375 h 12.170834 c 0.439738,0 0.79375,-0.354012 0.79375,-0.79375 V 2.38125 c 0,-0.4397377 -0.354012,-0.79375 -0.79375,-0.79375 z"
     sodipodi:nodetypes="sssssssss" />
  <path
     d="M 8.2020834,2.9104167 H 8.731094 V 3.9684376 H 8.2020834 Z M 9.650112,3.0314191 10.160122,3.1684218 9.8871168,4.190442 9.3761066,4.0534393 Z m 1.365028,0.4920097 0.458009,0.2640052 -0.529011,0.9160181 -0.45801,-0.2640052 z m 1.193023,0.8270163 0.374008,0.3740072 -0.748015,0.749015 -0.374008,-0.374007 z m 0.938019,1.1090222 0.265005,0.458009 -0.916018,0.53001 -0.265005,-0.459009 z m 0.620012,1.314026 0.137003,0.51101 -1.02202,0.274005 -0.137003,-0.51101 z m 0.257005,1.429028 v 0.52901 h -1.058021 v -0.52901 z"
     style="opacity:0.25;fill:#000000;stroke-width:0.264583;paint-order:stroke fill markers"
     id="path866" />
  <circle
     style="opacity:0.15;fill:#000000;stroke-width:0.264583;stroke-linecap:round;stroke-linejoin:round"
     id="path1184"
     cx="3.3072917"
     cy="3.3072917"
     r="0.66145831" />
  <circle
     style="opacity:1;fill:#0090ff;stroke-width:0.264583;stroke-linecap:round;stroke-linejoin:round;fill-opacity:1"
     id="path1332"
     cx="3.3072917"
     cy="3.3072917"
     r="0.39687499" />
  <circle
     style="opacity:0.1;fill:#ffffff;fill-opacity:1;stroke-width:0.264583;stroke-linecap:round;stroke-linejoin:round"
     id="path1580"
     cx="8.4666672"
     cy="8.4666672"
     r="4.2333336" />
  <circle
     style="opacity:0.25;fill:#ffffff;fill-opacity:1;stroke-width:0.264583;stroke-linecap:round;stroke-linejoin:round"
     id="path1720"
     cx="8.4666672"
     cy="8.4666672"
     r="3.4395833" />
  <path
     id="path1842"
     style="opacity:1;fill:#ffffff;fill-opacity:1;stroke-width:0.999999;stroke-linecap:round;stroke-linejoin:round"
     d="M 32 21 L 29.017578 24.580078 A 8.0000004 8.0000004 0 0 0 24 32 A 8.0000004 8.0000004 0 0 0 32 40 A 8.0000004 8.0000004 0 0 0 40 32 A 8.0000004 8.0000004 0 0 0 34.980469 24.576172 L 32 21 z "
     transform="scale(0.26458334)" />
</svg>
