<?xml version="1.0" encoding="UTF-8" standalone="no"?>
<!-- Created with Inkscape (http://www.inkscape.org/) -->

<svg
   width="64"
   height="64"
   viewBox="0 0 16.933333 16.933334"
   version="1.1"
   id="svg5"
   inkscape:version="1.1.2 (0a00cf5339, 2022-02-04, custom)"
   sodipodi:docname="preferences-system-users.svg"
   xmlns:inkscape="http://www.inkscape.org/namespaces/inkscape"
   xmlns:sodipodi="http://sodipodi.sourceforge.net/DTD/sodipodi-0.dtd"
   xmlns="http://www.w3.org/2000/svg"
   xmlns:svg="http://www.w3.org/2000/svg">
  <sodipodi:namedview
     id="namedview7"
     pagecolor="#ffffff"
     bordercolor="#666666"
     borderopacity="1.0"
     inkscape:pageshadow="2"
     inkscape:pageopacity="0.0"
     inkscape:pagecheckerboard="0"
     inkscape:document-units="px"
     showgrid="false"
     units="px"
     height="64px"
     inkscape:zoom="6.296875"
     inkscape:cx="24.218362"
     inkscape:cy="20.80397"
     inkscape:window-width="1851"
     inkscape:window-height="1009"
     inkscape:window-x="69"
     inkscape:window-y="31"
     inkscape:window-maximized="1"
     inkscape:current-layer="svg5"
     showguides="false" />
  <defs
     id="defs2" />
  <path
     d="m 6.8918287,7.011514 c 0.161395,0.767821 0.251089,1.348846 0.120385,2.116667 -1.018646,0.8519576 -3.623469,1.23481 -3.6195,2.116666 l -0.350044,2.645834 c 0,0.876829 2.428346,1.5875 5.4239587,1.5875 2.9956116,0 5.4239576,-0.710671 5.4239576,-1.5875 l -0.350044,-2.645834 c -0.004,-0.754856 -2.624402,-1.23481 -3.6303483,-2.116666 -0.08599,-0.712788 -0.01773,-1.40388 0.1312343,-2.116667 z"
     style="color:#000000;fill:#ececec;stroke:none;stroke-width:0.264583;-inkscape-stroke:none"
     id="path1028" />
  <path
     style="color:#000000;fill:#a8a8a8;stroke:none;stroke-width:0.264583;-inkscape-stroke:none"
     d="m 6.7287497,6.879222 0.03359,0.15968 c 0.156378,0.743951 0.234772,1.294779 0.121956,2.012281 -0.481975,0.384263 -1.349026,0.6940546 -2.114599,1.001489 -0.391514,0.157221 -0.754487,0.315392 -1.029912,0.499194 -0.275424,0.183802 -0.480843,0.407866 -0.479557,0.693498 l 0.0016,-0.01809 -0.351411,2.654619 v 0.0088 c 0,0.28027 0.190166,0.523807 0.483175,0.72657 0.29301,0.202763 0.70097,0.376782 1.200444,0.522966 0.998948,0.292367 2.364365,0.470255 3.8726317,0.470255 1.5082653,0 2.8736826,-0.177888 3.8726316,-0.470255 0.499474,-0.146184 0.907434,-0.320203 1.200443,-0.522966 0.293009,-0.202763 0.483175,-0.4463 0.483175,-0.72657 v -0.0088 l -0.3514,-2.654619 0.0016,0.01705 C 13.672429,11.111735 13.612707,10.990596 13.525323,10.887756 13.437943,10.784917 13.321644,10.694497 13.183741,10.60767 12.907937,10.434015 12.544043,10.275049 12.151763,10.112093 11.38493,9.7935446 10.518076,9.453364 10.040781,9.054276 9.967461,8.380302 10.028011,7.722608 10.171005,7.038378 l 0.03306,-0.159163 z m 0.31781,0.264584 h 2.842203 C 9.7605157,7.810213 9.6970128,8.467143 9.7786917,9.1442 l 0.0062,0.05013 0.03824,0.03359 c 0.5368453,0.470621 1.4491223,0.805371 2.2272553,1.128613 0.389066,0.161621 0.744109,0.318709 0.992187,0.474907 0.124039,0.0781 0.220507,0.156039 0.28112,0.227376 0.06061,0.07134 0.08445,0.130427 0.08475,0.186552 v 0.0088 l 0.348816,2.639116 c -0.0012,0.157474 -0.113371,0.330269 -0.367936,0.506429 -0.255918,0.177095 -0.642416,0.345704 -1.124479,0.486792 -0.964127,0.282176 -2.3108753,0.459404 -3.7982176,0.459404 -1.4873437,0 -2.8340917,-0.177228 -3.7982177,-0.459403 -0.482063,-0.141088 -0.868562,-0.309697 -1.12448,-0.486792 -0.254564,-0.17616 -0.366743,-0.348955 -0.367936,-0.506429 l 0.348816,-2.640149 v -0.0088 c -6.88e-4,-0.155296 0.118039,-0.309694 0.361735,-0.472322 0.243696,-0.162628 0.595327,-0.318655 0.981853,-0.473873 0.773051,-0.3104374 1.684395,-0.613345 2.228804,-1.068669 l 0.03721,-0.03101 0.0083,-0.04806 c 0.124287,-0.730124 0.04376,-1.313352 -0.09612,-2.006596 z"
     id="path862" />
  <path
     d="m 8.4666284,1.719847 c -1.5343187,0 -2.7781247,1.098815 -2.7781247,2.454275 0.01191,0.50165 0.05715,1.097492 0.370416,2.454275 0.185209,0.525992 1.837267,1.928284 1.852084,2.103702 0.359304,0.175419 0.9260407,0.175419 1.2964574,0 0,-0.175418 1.4816669,-1.57771 1.6668749,-2.103437 0.352425,-1.410229 0.351631,-1.928813 0.370417,-2.45454 0,-1.35546 -1.243807,-2.454275 -2.7781246,-2.454275 z"
     style="color:#000000;fill:#f2f2f2;stroke:none;stroke-width:0.264583;-inkscape-stroke:none"
     id="path908" />
  <path
     style="color:#000000;fill:#bdbdbd;stroke:none;stroke-width:0.264583;-inkscape-stroke:none"
     d="m 8.4666284,1.587555 c -1.5974787,0 -2.9104167,1.150017 -2.9104167,2.586406 v 0.0016 0.0016 c 0.01204,0.507113 0.05907,1.118652 0.37362,2.480986 l 0.0021,0.0072 0.0021,0.0072 c 0.06065,0.172244 0.205701,0.355882 0.390674,0.568441 0.184973,0.212558 0.410643,0.444117 0.630452,0.664042 0.21981,0.219925 0.433992,0.428525 0.591695,0.590662 0.07885,0.08107 0.143706,0.150807 0.186552,0.202054 0.02142,0.02562 0.03735,0.04687 0.04548,0.05943 0.0081,0.01256 0.0036,0.02276 5.29e-4,-0.01395 l 0.0062,0.07493 0.06718,0.03307 c 0.408588,0.199479 0.9936927,0.198275 1.4112834,5.29e-4 l 0.07596,-0.03566 v -0.08372 c 0,0.03559 -0.0059,0.02775 5.29e-4,0.01602 0.0064,-0.01173 0.01933,-0.03209 0.03772,-0.05736 0.03679,-0.05055 0.09406,-0.120175 0.1638137,-0.201021 C 9.6816098,8.32832 9.8723307,8.120164 10.069717,7.900385 10.267102,7.680607 10.471483,7.449126 10.639708,7.23686 10.807932,7.024594 10.94083,6.83874 10.999376,6.672553 l 0.0021,-0.0057 0.0016,-0.0062 C 11.357334,5.242945 11.358517,4.701091 11.377186,4.1786 V 4.1765 4.1739 c 0,-1.436383 -1.312938,-2.5864 -2.9104156,-2.5864 z m 0,0.264584 c 1.4707543,0 2.6451926,1.04673 2.6458326,2.320788 -0.01872,0.526153 -0.01766,1.024108 -0.364319,2.414323 -0.03478,0.0971 -0.155418,0.282292 -0.31626,0.485242 -0.161677,0.204006 -0.36244,0.432169 -0.5586223,0.650606 -0.1961819,0.218438 -0.3876609,0.426761 -0.5317496,0.593763 -0.07205,0.0835 -0.131773,0.156303 -0.176734,0.218074 -0.02208,0.03033 -0.04056,0.05797 -0.05581,0.08578 -0.3166107,0.133044 -0.8025954,0.132223 -1.1053584,-0.001 -10e-4,-0.0016 -0.0015,-0.0046 -0.0026,-0.0062 -0.0178,-0.02751 -0.03907,-0.05473 -0.0646,-0.08527 C 7.8853477,8.467175 7.8174267,8.394488 7.7364197,8.311204 7.5744077,8.144638 7.3608657,7.936799 7.1426577,7.718476 6.9244587,7.500151 6.7014407,7.271139 6.5240997,7.067351 6.3477517,6.864703 6.2184977,6.678606 6.1856197,6.587277 5.8772987,5.249034 5.8326057,4.667774 5.8207837,4.173988 v -10e-4 c 6.4e-4,-1.27406 1.175079,-2.32079 2.6458337,-2.32079 z"
     id="path856" />
</svg>
