<?xml version="1.0" encoding="UTF-8" standalone="no"?>
<!-- Created with Inkscape (http://www.inkscape.org/) -->

<svg
   width="64"
   height="64"
   viewBox="0 0 16.933333 16.933334"
   version="1.1"
   id="svg5"
   inkscape:version="1.1.2 (0a00cf5339, 2022-02-04, custom)"
   sodipodi:docname="preferences-color.svg"
   xmlns:inkscape="http://www.inkscape.org/namespaces/inkscape"
   xmlns:sodipodi="http://sodipodi.sourceforge.net/DTD/sodipodi-0.dtd"
   xmlns="http://www.w3.org/2000/svg"
   xmlns:svg="http://www.w3.org/2000/svg">
  <sodipodi:namedview
     id="namedview7"
     pagecolor="#ffffff"
     bordercolor="#666666"
     borderopacity="1.0"
     inkscape:pageshadow="2"
     inkscape:pageopacity="0.0"
     inkscape:pagecheckerboard="0"
     inkscape:document-units="px"
     showgrid="false"
     units="px"
     height="64px"
     inkscape:zoom="6.578125"
     inkscape:cx="19.078385"
     inkscape:cy="20.218527"
     inkscape:window-width="1920"
     inkscape:window-height="1019"
     inkscape:window-x="0"
     inkscape:window-y="31"
     inkscape:window-maximized="1"
     inkscape:current-layer="svg5" />
  <defs
     id="defs2" />
  <path
     style="color:#000000;opacity:0.3;fill:#4f6698;fill-opacity:1;stroke:none;stroke-width:1.33325;stroke-linejoin:round;-inkscape-stroke:none"
     d="m 8.4666663,1.0583333 c -4.0891288,0 -7.4083331,3.3192042 -7.408333,7.4083331 1e-6,4.0891286 3.319205,7.4083336 7.408333,7.4083336 4.0891277,-10e-7 7.4083327,-3.319206 7.4083337,-7.4083336 0,-4.0891283 -3.319205,-7.4083322 -7.4083337,-7.4083331 z"
     id="path1285"
     sodipodi:nodetypes="sssss" />
  <g
     id="g1547"
     transform="matrix(1.3254169,0,0,1.3254169,0.05456744,0.05926643)">
    <path
       d="m 4.0583133,1.7537245 1.0583333,1e-7 1.2332605,4.5963335 -3.3713819,-3.3697999 z"
       style="fill:#ff5474;fill-opacity:1;stroke-width:0.529167;stroke-linecap:round;stroke-linejoin:round"
       id="path47268" />
    <path
       d="M 1.7737666,3.8899494 2.9785252,2.9802582 6.3499071,6.3500581 1.7523118,5.1164831 Z"
       style="fill:#e92f61;fill-opacity:1;stroke-width:0.529167;stroke-linecap:round;stroke-linejoin:round"
       id="path7876"
       sodipodi:nodetypes="ccccc" />
    <path
       d="M 1.2445999,6.357099 1.7523118,5.1164831 6.3499071,6.3500581 1.7523118,7.5836327 Z"
       style="fill:#e861e2;fill-opacity:1;stroke-width:0.529167;stroke-linecap:round;stroke-linejoin:round"
       id="path11402"
       sodipodi:nodetypes="ccccc" />
    <path
       d="M 1.7737666,8.8242486 1.7523118,7.5836327 6.3499074,6.3500581 2.9785252,9.7198573 Z"
       style="fill:#421ca8;fill-opacity:1;stroke-width:0.529167;stroke-linecap:round;stroke-linejoin:round"
       id="path14778"
       sodipodi:nodetypes="ccccc" />
    <path
       d="M 10.926047,8.8242486 10.947502,7.5836327 6.3499071,6.3500581 9.7212893,9.7198573 Z"
       style="fill:#cee834;fill-opacity:1;stroke-width:0.529167;stroke-linecap:round;stroke-linejoin:round"
       id="path38501" />
    <path
       d="M 3.9118879,10.712244 2.9785252,9.7198573 6.3499074,6.3500581 5.1166466,10.946392 Z"
       style="fill:#139dcb;fill-opacity:1;stroke-width:0.529167;stroke-linecap:round;stroke-linejoin:round"
       id="path17315"
       sodipodi:nodetypes="ccccc" />
    <path
       d="M 8.7879269,10.712244 9.7212893,9.7198573 6.3499071,6.3500581 7.5831679,10.946392 Z"
       style="fill:#32d439;fill-opacity:1;stroke-width:0.529167;stroke-linecap:round;stroke-linejoin:round"
       id="path42328" />
    <path
       d="M 6.3145297,11.409611 5.1166466,10.946392 6.3499071,6.3500581 7.5831679,10.946392 Z"
       style="fill:#3ed4f0;fill-opacity:1;stroke-width:0.529167;stroke-linecap:round;stroke-linejoin:round"
       id="path19812"
       sodipodi:nodetypes="ccccc" />
    <path
       d="M 6.3145297,1.1586105 5.1166466,1.7537246 6.3499071,6.3500582 7.5831679,1.7537246 Z"
       style="fill:#ee332c;fill-opacity:1;stroke-width:0.529167;stroke-linecap:round;stroke-linejoin:round"
       id="path22659"
       sodipodi:nodetypes="ccccc" />
    <path
       d="M 8.9818176,1.8559775 7.5831679,1.7537245 6.3499071,6.3500581 9.7212893,2.9802582 Z"
       style="fill:#fa7c1a;fill-opacity:1;stroke-width:0.529167;stroke-linecap:round;stroke-linejoin:round"
       id="path30307"
       sodipodi:nodetypes="ccccc" />
    <path
       d="m 10.758652,3.6312361 0.18885,1.485247 -4.5975949,1.233575 3.3713822,-3.3697999 z"
       style="fill:#f7ac1b;fill-opacity:1;stroke-width:0.529167;stroke-linecap:round;stroke-linejoin:round"
       id="path30427"
       sodipodi:nodetypes="ccccc" />
    <path
       d="M 11.287819,6.3500579 10.947502,7.5836327 6.3499071,6.3500581 10.947502,5.1164831 Z"
       style="fill:#ffe600;fill-opacity:1;stroke-width:0.529167;stroke-linecap:round;stroke-linejoin:round"
       id="path33822"
       sodipodi:nodetypes="ccccc" />
  </g>
  <path
     id="path1283"
     style="color:#000000;fill:#fcfcfc;fill-opacity:1;stroke:none;stroke-width:0.348475;stroke-linejoin:round;-inkscape-stroke:none"
     d="m 8.4666665,1.3229166 c -3.9453838,6e-7 -7.1437494,3.1983662 -7.1437499,7.14375 4e-7,3.9453844 3.1983658,7.1437494 7.1437499,7.1437504 3.9453845,0 7.1437505,-3.198366 7.1437505,-7.1437504 -10e-7,-3.9453841 -3.198366,-7.1437495 -7.1437505,-7.14375 z m 0,1.0583334 c 3.3608825,-7e-7 6.0854175,2.7245333 6.0854175,6.0854166 10e-7,3.3608834 -2.724534,6.0854184 -6.0854175,6.0854174 -3.3608832,0 -6.0854173,-2.724534 -6.0854166,-6.0854174 -2e-7,-3.360883 2.7245336,-6.0854168 6.0854166,-6.0854166 z" />
  <path
     id="path1281"
     style="opacity:0.3;fill:#4f6698;fill-opacity:1;stroke:none;stroke-width:0.673485;stroke-linecap:round;stroke-linejoin:round"
     d="M 8.4666661,2.405303 A 6.0613629,6.0613629 0 0 0 2.4053029,8.4666662 6.0613629,6.0613629 0 0 0 8.4666661,14.52803 6.0613629,6.0613629 0 0 0 14.52803,8.4666662 6.0613629,6.0613629 0 0 0 8.4666661,2.405303 Z m 0,0.3367424 A 5.7246208,5.7246208 0 0 1 14.191287,8.4666662 5.7246208,5.7246208 0 0 1 8.4666661,14.191287 5.7246208,5.7246208 0 0 1 2.7420453,8.4666662 5.7246208,5.7246208 0 0 1 8.4666661,2.7420454 Z" />
  <circle
     style="opacity:0.25;fill:#ffffff;fill-opacity:1;stroke:none;stroke-width:0.676158;stroke-linecap:round;stroke-linejoin:round"
     id="path1593"
     cx="8.4666662"
     cy="8.4666672"
     r="6.0854168" />
</svg>
