<?xml version="1.0" encoding="UTF-8" standalone="no"?>
<!-- Created with Inkscape (http://www.inkscape.org/) -->

<svg
   width="64"
   height="64"
   viewBox="0 0 16.933333 16.933334"
   version="1.1"
   id="svg5"
   inkscape:version="1.1.2 (0a00cf5339, 2022-02-04, custom)"
   sodipodi:docname="preferences-plugin.svg"
   xmlns:inkscape="http://www.inkscape.org/namespaces/inkscape"
   xmlns:sodipodi="http://sodipodi.sourceforge.net/DTD/sodipodi-0.dtd"
   xmlns="http://www.w3.org/2000/svg"
   xmlns:svg="http://www.w3.org/2000/svg">
  <sodipodi:namedview
     id="namedview7"
     pagecolor="#ffffff"
     bordercolor="#666666"
     borderopacity="1.0"
     inkscape:pageshadow="2"
     inkscape:pageopacity="0.0"
     inkscape:pagecheckerboard="0"
     inkscape:document-units="px"
     showgrid="false"
     units="px"
     height="64px"
     showguides="false"
     inkscape:zoom="12.484375"
     inkscape:cx="32"
     inkscape:cy="32"
     inkscape:window-width="1920"
     inkscape:window-height="1019"
     inkscape:window-x="0"
     inkscape:window-y="31"
     inkscape:window-maximized="1"
     inkscape:current-layer="svg5" />
  <defs
     id="defs2" />
  <path
     id="rect890"
     style="opacity:0.35;fill:#555761;stroke-width:0.264583;stroke-linejoin:round;stroke-opacity:0.501961;fill-opacity:1"
     d="m 2.38125,1.3229167 c -0.5863167,0 -1.0583333,0.4720166 -1.0583333,1.0583333 v 12.170833 c 0,0.586317 0.4720166,1.058334 1.0583333,1.058334 h 12.170834 c 0.586317,0 1.058333,-0.472017 1.058333,-1.058334 V 2.38125 c 0,-0.5863167 -0.472016,-1.0583333 -1.058333,-1.0583333 z"
     sodipodi:nodetypes="sssssssss" />
  <path
     id="rect1201"
     style="fill:#f2f2f2;fill-opacity:1;stroke-width:0.264583;stroke-linejoin:round;stroke-opacity:0.501961"
     d="m 2.38125,1.5875 c -0.4397375,0 -0.79375,0.3540123 -0.79375,0.79375 v 12.170833 c 0,0.439738 0.3540125,0.79375 0.79375,0.79375 h 12.170834 c 0.439738,0 0.79375,-0.354012 0.79375,-0.79375 V 2.38125 c 0,-0.4397377 -0.354012,-0.79375 -0.79375,-0.79375 z"
     sodipodi:nodetypes="sssssssss" />
  <path
     d="M 5.2915846,4.8945853 V 6.08521 H 4.10096 v 5.953123 h 8.731248 V 6.08521 H 11.641583 V 4.8945853 H 9.5249173 V 6.08521 H 7.4082505 V 4.8945853 H 5.2915846"
     style="color:#5d656b;fill:#76e58c;stroke-width:0.264583;stroke-linecap:round;stroke-linejoin:round;-inkscape-stroke:none"
     id="path1238"
     sodipodi:nodetypes="ccccccccccccc" />
  <path
     style="color:#5d656b;fill:#000000;fill-opacity:0.25;stroke-width:0.264583;stroke-linecap:round;stroke-linejoin:round;-inkscape-stroke:none"
     d="m 5.2916666,4.7625 c -0.035083,6.9e-6 -0.068726,0.013949 -0.09353,0.038759 -0.024811,0.024805 -0.038754,0.058449 -0.03876,0.093533 V 5.953125 H 4.101042 c -0.07306,7.1e-6 -0.1322849,0.059232 -0.132292,0.132292 v 5.953124 c 7.8e-6,0.07306 0.059233,0.132284 0.132292,0.132291 h 8.731248 c 0.07306,-7e-6 0.132284,-0.05923 0.132292,-0.132291 V 6.085417 c -7e-6,-0.07306 -0.05923,-0.1322849 -0.132292,-0.132292 H 11.773958 V 4.8947917 c -7e-6,-0.07306 -0.05923,-0.1322851 -0.132293,-0.1322917 H 9.5250003 c -0.07306,7.3e-6 -0.132284,0.059232 -0.132292,0.1322917 V 5.953125 H 7.5406245 V 4.8947917 C 7.5406172,4.8217323 7.4813929,4.7625077 7.4083335,4.7625 Z m 0.132292,0.2645833 H 7.276042 V 6.085417 c 7.4e-6,0.073059 0.059232,0.1322841 0.1322915,0.1322915 h 2.1166668 c 0.07306,-8.2e-6 0.132283,-0.059233 0.13229,-0.1322915 V 5.0270833 H 11.509375 V 6.085417 c 7e-6,0.073059 0.05923,0.1322837 0.13229,0.1322915 h 1.058332 V 11.906248 H 4.233333 V 6.2177085 h 1.0583336 c 0.07306,-7.1e-6 0.1322846,-0.059232 0.132292,-0.1322915 z"
     id="path1129"
     sodipodi:nodetypes="ccccccccccccccccccccccccccccccccccccccc" />
</svg>
