<?xml version="1.0" encoding="UTF-8" standalone="no"?>
<!-- Created with Inkscape (http://www.inkscape.org/) -->

<svg
   width="64"
   height="64"
   viewBox="0 0 16.933333 16.933334"
   version="1.1"
   id="svg5"
   inkscape:version="1.1.2 (0a00cf5339, 2022-02-04, custom)"
   sodipodi:docname="preferences-desktop-locale.svg"
   xmlns:inkscape="http://www.inkscape.org/namespaces/inkscape"
   xmlns:sodipodi="http://sodipodi.sourceforge.net/DTD/sodipodi-0.dtd"
   xmlns="http://www.w3.org/2000/svg"
   xmlns:svg="http://www.w3.org/2000/svg">
  <sodipodi:namedview
     id="namedview7"
     pagecolor="#ffffff"
     bordercolor="#666666"
     borderopacity="1.0"
     inkscape:pageshadow="2"
     inkscape:pageopacity="0.0"
     inkscape:pagecheckerboard="0"
     inkscape:document-units="px"
     showgrid="false"
     units="px"
     height="64px"
     showguides="false"
     inkscape:zoom="12.59375"
     inkscape:cx="32"
     inkscape:cy="32"
     inkscape:window-width="1851"
     inkscape:window-height="1009"
     inkscape:window-x="69"
     inkscape:window-y="31"
     inkscape:window-maximized="1"
     inkscape:current-layer="svg5" />
  <defs
     id="defs2" />
  <path
     id="rect1571"
     style="fill:#f2f2f2;stroke-width:0.264583;stroke-linecap:round;stroke-linejoin:round"
     d="m 2.38125,6.2177083 h 7.4083336 c 0.5130274,0 0.9260414,0.4130146 0.9260414,0.9260417 v 7.408334 c 0,0.513027 -0.413014,0.926042 -0.9260414,0.926042 H 2.38125 c -0.5130271,0 -0.9260417,-0.413015 -0.9260417,-0.926042 V 7.14375 c 0,-0.5130271 0.4130146,-0.9260417 0.9260417,-0.9260417 z" />
  <path
     d="m 6.5636311,9.919727 c 0.515662,0 0.977301,0.08349 1.384919,0.250464 0.407618,0.162065 0.726837,0.39534 0.957657,0.699826 0.23082,0.304486 0.34623,0.660538 0.34623,1.068156 0,0.613882 -0.223454,1.104988 -0.67036,1.473318 -0.441996,0.363418 -1.060789,0.567227 -1.856381,0.611427 l -0.169431,-0.685093 c 0.662993,-0.03929 1.154099,-0.174341 1.473318,-0.405163 0.32413,-0.235731 0.486195,-0.57705 0.486195,-1.023956 0,-0.329041 -0.103133,-0.601605 -0.309397,-0.817691 -0.201354,-0.216087 -0.488651,-0.36833 -0.861891,-0.456729 -0.157154,0.628616 -0.373241,1.186021 -0.64826,1.672216 -0.275019,0.481284 -0.5991493,0.859436 -0.9723899,1.134455 -0.3683297,0.275019 -0.7710366,0.412529 -1.2081209,0.412529 -0.4027069,0 -0.7268369,-0.120321 -0.9723898,-0.360963 C 3.2977764,13.251881 3.1749999,12.92284 3.1749999,12.5054 c 0,-0.491106 0.1596096,-0.938013 0.4788284,-1.340719 0.3241299,-0.407618 0.7563032,-0.721926 1.29652,-0.942924 0,-0.294664 0.00737,-0.604061 0.022101,-0.928191 -0.7071926,0 -1.232676,-0.0049 -1.5764502,-0.01473 L 3.4107311,8.62321 c 0.6187931,0.01964 1.1467321,0.02947 1.5838163,0.02947 0.00982,-0.279931 0.029466,-0.606516 0.058933,-0.979757 l 0.6850927,0.03683 C 5.7189281,7.906196 5.6943741,8.218048 5.6649071,8.64531 6.897583,8.62567 7.90435,8.58392 8.685209,8.520078 l 0.02947,0.655627 C 7.801222,9.239545 6.774811,9.276382 5.6354447,9.286204 5.6256247,9.629978 5.6207127,9.875531 5.6207127,10.022863 5.9251984,9.954113 6.239506,9.919731 6.563636,9.919731 Z M 5.8122391,12.4612 c 0.373241,-0.456728 0.665449,-1.09271 0.876624,-1.907946 h -0.147332 c -0.314307,0 -0.623704,0.04174 -0.9281899,0.125232 0.024556,0.672814 0.090855,1.267052 0.1988979,1.782714 z M 3.8674595,12.44647 c 0,0.23082 0.058933,0.407619 0.176798,0.530395 0.1178655,0.122776 0.2823861,0.184164 0.4935617,0.184164 0.240642,0 0.4788284,-0.06875 0.7145591,-0.206264 C 5.0903134,12.316327 4.9945477,11.643512 4.9650813,10.936319 4.6262183,11.113118 4.3585656,11.334116 4.162123,11.599312 3.9656807,11.86451 3.8674595,12.146896 3.8674595,12.44647 Z"
     style="font-weight:500;font-size:7.36659px;line-height:1.25;font-family:'IBM Plex Sans JP';-inkscape-font-specification:'IBM Plex Sans JP Medium';stroke-width:0.048727;fill:#808080;fill-opacity:1"
     id="path26569" />
  <path
     id="rect1244"
     style="opacity:0.2;fill:#000000;stroke-width:0.264583;stroke-linecap:round;stroke-linejoin:round"
     d="m 2.3812499,6.0854167 c -0.5863167,0 -1.0583334,0.4720167 -1.0583334,1.0583333 v 7.408336 c 0,0.586317 0.4720167,1.058334 1.0583334,1.058334 h 7.4083314 c 0.5863167,0 1.0583327,-0.472017 1.0583327,-1.058334 V 7.14375 c 0,-0.5863166 -0.472016,-1.0583333 -1.0583327,-1.0583333 z m 0,0.2645833 h 7.4083314 c 0.4397367,0 0.7937497,0.3540125 0.7937497,0.79375 v 7.408336 c 0,0.439738 -0.354013,0.79375 -0.7937497,0.79375 H 2.3812499 c -0.4397375,0 -0.79375,-0.354012 -0.79375,-0.79375 V 7.14375 c 0,-0.4397375 0.3540125,-0.79375 0.79375,-0.79375 z" />
  <path
     id="rect1063"
     style="opacity:1;fill:#51a6f5;fill-opacity:1;stroke-width:0.529167;stroke-linejoin:round"
     d="m 7.14375,1.4552083 h 7.408333 c 0.513028,0 0.926042,0.4130146 0.926042,0.9260417 v 7.408333 c 0,0.513028 -0.413014,0.926042 -0.926042,0.926042 H 7.14375 c -0.5130271,0 -0.9260417,-0.413014 -0.9260417,-0.926042 V 2.38125 c 0,-0.5130271 0.4130146,-0.9260417 0.9260417,-0.9260417 z"
     sodipodi:nodetypes="sssssssss" />
  <path
     id="rect890"
     style="opacity:0.5;fill:#002e99;fill-opacity:1;stroke-width:0.999999;stroke-linejoin:round;stroke-opacity:0.501961"
     d="m 27,5 c -2.216,0 -4,1.7839999 -4,4 v 28 c 0,2.216001 1.784,4 4,4 h 28 c 2.216001,0 4,-1.783999 4,-4 V 9 C 59,6.7839999 57.216001,5 55,5 Z m 0,1 h 28 c 1.662002,0 3,1.3379993 3,3 v 28 c 0,1.662002 -1.337998,3 -3,3 H 27 c -1.662,0 -3,-1.337998 -3,-3 V 9 c 0,-1.6620007 1.338,-3 3,-3 z"
     transform="scale(0.26458334)"
     sodipodi:nodetypes="ssssssssssssssssss" />
  <path
     d="M 11.980028,7.6405706 H 9.7252547 L 9.2535114,8.9958334 H 8.2020834 L 10.400887,3.175 h 0.907507 l 2.202801,5.8208334 H 12.455769 Z M 10.0091,6.8250144 h 1.687083 L 10.852642,4.410328 Z"
     style="font-weight:500;font-size:8.93187px;line-height:1.25;font-family:Roboto;-inkscape-font-specification:'Roboto Medium';stroke-width:0.0541573;fill:#ffffff"
     id="path35110" />
</svg>
