<?xml version="1.0" encoding="UTF-8" standalone="no"?>
<!-- Created with Inkscape (http://www.inkscape.org/) -->

<svg
   width="64"
   height="64"
   viewBox="0 0 16.933333 16.933334"
   version="1.1"
   id="svg5"
   inkscape:version="1.1.2 (0a00cf5339, 2022-02-04, custom)"
   sodipodi:docname="preferences-desktop-font.svg"
   xmlns:inkscape="http://www.inkscape.org/namespaces/inkscape"
   xmlns:sodipodi="http://sodipodi.sourceforge.net/DTD/sodipodi-0.dtd"
   xmlns="http://www.w3.org/2000/svg"
   xmlns:svg="http://www.w3.org/2000/svg">
  <sodipodi:namedview
     id="namedview7"
     pagecolor="#ffffff"
     bordercolor="#666666"
     borderopacity="1.0"
     inkscape:pageshadow="2"
     inkscape:pageopacity="0.0"
     inkscape:pagecheckerboard="0"
     inkscape:document-units="px"
     showgrid="false"
     units="px"
     height="64px"
     showguides="false"
     inkscape:zoom="13.15625"
     inkscape:cx="31.961995"
     inkscape:cy="32"
     inkscape:window-width="1920"
     inkscape:window-height="1019"
     inkscape:window-x="0"
     inkscape:window-y="31"
     inkscape:window-maximized="1"
     inkscape:current-layer="svg5" />
  <defs
     id="defs2" />
  <path
     id="rect890"
     style="opacity:0.3;fill:#000000;stroke-width:0.264583;stroke-linejoin:round;stroke-opacity:0.501961"
     d="m 2.38125,1.3229167 c -0.5863167,0 -1.0583333,0.4720166 -1.0583333,1.0583333 v 12.170833 c 0,0.586317 0.4720166,1.058334 1.0583333,1.058334 h 12.170834 c 0.586317,0 1.058333,-0.472017 1.058333,-1.058334 V 2.38125 c 0,-0.5863167 -0.472016,-1.0583333 -1.058333,-1.0583333 z"
     sodipodi:nodetypes="sssssssss" />
  <path
     id="rect1201"
     style="fill:#fafafa;fill-opacity:1;stroke-width:0.264583;stroke-linejoin:round;stroke-opacity:0.501961"
     d="m 2.38125,1.5875 c -0.4397375,0 -0.79375,0.3540123 -0.79375,0.79375 v 12.170833 c 0,0.439738 0.3540125,0.79375 0.79375,0.79375 h 12.170834 c 0.439738,0 0.79375,-0.354012 0.79375,-0.79375 V 2.38125 c 0,-0.4397377 -0.354012,-0.79375 -0.79375,-0.79375 z"
     sodipodi:nodetypes="sssssssss" />
  <path
     id="path8181"
     style="font-weight:500;font-size:9.03016px;line-height:1.25;font-family:'Google Sans';-inkscape-font-specification:'Google Sans Medium';stroke-width:0.853247;fill:#666666;opacity:1;fill-opacity:1"
     d="M 21.181641 19 L 12 43.4375 L 16.232422 43.4375 L 18.451172 37.191406 L 28.314453 37.191406 L 30.498047 43.4375 L 34.730469 43.4375 L 25.548828 19 L 21.181641 19 z M 23.263672 23.539062 L 23.466797 23.539062 L 24.423828 26.371094 L 27.017578 33.642578 L 19.712891 33.642578 L 22.306641 26.371094 L 23.263672 23.539062 z M 44.115234 25.484375 C 42.613525 25.484375 41.2482 25.779512 40.019531 26.371094 C 38.79086 26.962676 37.791185 27.793883 37.017578 28.863281 L 39.644531 30.876953 C 40.122347 30.194358 40.747876 29.660241 41.521484 29.273438 C 42.317843 28.886634 43.1595 28.693359 44.046875 28.693359 C 45.298297 28.693359 46.322779 29.034202 47.119141 29.716797 C 47.915502 30.376638 48.314453 31.241148 48.314453 32.310547 L 48.314453 33.197266 C 47.836635 32.969733 47.188255 32.766009 46.369141 32.583984 C 45.550029 32.379207 44.627407 32.277344 43.603516 32.277344 C 41.532977 32.277344 39.816362 32.799058 38.451172 33.845703 C 37.108736 34.892349 36.4375 36.315781 36.4375 38.113281 C 36.4375 39.250939 36.709783 40.273468 37.255859 41.183594 C 37.801936 42.070966 38.564585 42.765054 39.542969 43.265625 C 40.521355 43.74344 41.635295 43.982422 42.886719 43.982422 C 44.069882 43.982422 45.117216 43.73299 46.027344 43.232422 C 46.937469 42.731851 47.642007 42.106322 48.142578 41.355469 L 48.314453 41.355469 L 48.314453 43.4375 L 52 43.4375 L 52 32.583984 C 52 30.331422 51.318316 28.589999 49.953125 27.361328 C 48.587937 26.109904 46.640836 25.484375 44.115234 25.484375 z M 44.320312 35.142578 C 45.071166 35.142578 45.788108 35.233991 46.470703 35.416016 C 47.176051 35.598041 47.79113 35.837021 48.314453 36.132812 C 48.314453 36.974679 48.108776 37.760181 47.699219 38.488281 C 47.289662 39.216385 46.722241 39.796206 45.994141 40.228516 C 45.26604 40.660826 44.445284 40.876953 43.535156 40.876953 C 42.55677 40.876953 41.760819 40.627524 41.146484 40.126953 C 40.53215 39.60363 40.224609 38.942843 40.224609 38.146484 C 40.224609 37.259112 40.555004 36.54217 41.214844 35.996094 C 41.874686 35.427265 42.909616 35.142578 44.320312 35.142578 z "
     transform="scale(0.26458334)" />
</svg>
