<?xml version="1.0" encoding="UTF-8" standalone="no"?>
<!-- Created with Inkscape (http://www.inkscape.org/) -->

<svg
   width="64"
   height="64"
   viewBox="0 0 16.933333 16.933334"
   version="1.1"
   id="svg5"
   inkscape:version="1.1.2 (0a00cf5339, 2022-02-04, custom)"
   sodipodi:docname="preferences-desktop-screensaver.svg"
   xmlns:inkscape="http://www.inkscape.org/namespaces/inkscape"
   xmlns:sodipodi="http://sodipodi.sourceforge.net/DTD/sodipodi-0.dtd"
   xmlns="http://www.w3.org/2000/svg"
   xmlns:svg="http://www.w3.org/2000/svg">
  <sodipodi:namedview
     id="namedview7"
     pagecolor="#ffffff"
     bordercolor="#666666"
     borderopacity="1.0"
     inkscape:pageshadow="2"
     inkscape:pageopacity="0.0"
     inkscape:pagecheckerboard="0"
     inkscape:document-units="px"
     showgrid="false"
     units="px"
     height="64px"
     inkscape:zoom="13.15625"
     inkscape:cx="31.961995"
     inkscape:cy="32"
     inkscape:window-width="1920"
     inkscape:window-height="1019"
     inkscape:window-x="0"
     inkscape:window-y="31"
     inkscape:window-maximized="1"
     inkscape:current-layer="svg5" />
  <defs
     id="defs2" />
  <path
     id="path1233"
     style="color:#000000;opacity:0.3;fill:#42557f;fill-opacity:1;stroke:none;stroke-width:0.264583;-inkscape-stroke:none"
     d="m 6.6145835,9.2604169 c -0.1465792,0 -0.2645833,0.1180044 -0.2645833,0.2645834 V 13.91388 l -0.8299236,0.109037 c -0.2686823,0.0051 -0.4929931,0.218677 -0.4929931,0.485241 V 15.08125 H 11.90625 v -0.573092 c 0,-0.265819 -0.22305,-0.478269 -0.490409,-0.484725 L 10.583334,13.91388 V 9.5250003 c 0,-0.146579 -0.118005,-0.2645834 -0.264584,-0.2645834 z m 0,4.8947911 H 10.31875 l 1.079004,0.132292 h 0.0057 c 0.13723,0 0.23823,0.100086 0.23823,0.220658 v 0.308509 H 5.2916668 v -0.308509 c 0,-0.120691 0.1006504,-0.220658 0.2382285,-0.220658 h 0.0062 z" />
  <path
     id="rect950"
     style="fill:#fafafa;fill-opacity:1;stroke-width:0.25227;stroke-linejoin:round"
     d="M 6.6145835,9.5250003 V 14.155208 L 5.5355796,14.2875 h -0.00568 c -0.1375846,0 -0.2382295,0.100008 -0.2382295,0.220658 v 0.308509 H 11.64167 v -0.308509 c 0,-0.12065 -0.100909,-0.220658 -0.238228,-0.220658 h -0.0062 L 10.31875,14.155208 V 9.5250003 Z" />
  <path
     id="rect2161"
     style="fill:#414757;stroke-width:0.264583;stroke-linejoin:round"
     d="M 1.0583333,1.984375 H 15.875 c 0.219868,0 0.396875,0.1770062 0.396875,0.396875 v 9.789583 c 0,0.219869 -0.177007,0.396875 -0.396875,0.396875 H 1.0583333 c -0.21986873,0 -0.39687498,-0.177006 -0.39687498,-0.396875 V 2.38125 c 0,-0.2198688 0.17700625,-0.396875 0.39687498,-0.396875 z"
     sodipodi:nodetypes="sssssssss" />
  <path
     id="rect846"
     style="opacity:0.8;fill:#252831;fill-opacity:1;stroke-width:0.264583;stroke-linejoin:round"
     d="m 1.0583334,1.8520834 c -0.29315834,0 -0.52916673,0.2360084 -0.52916673,0.5291667 v 9.7895839 c 0,0.293158 0.23600839,0.529167 0.52916673,0.529167 H 15.875 c 0.293158,0 0.529166,-0.236009 0.529166,-0.529167 V 2.3812501 c 0,-0.2931583 -0.236008,-0.5291667 -0.529166,-0.5291667 z m 0,0.2645833 H 15.875 c 0.146579,0 0.264583,0.1180042 0.264583,0.2645834 v 9.7895839 c 0,0.146579 -0.118004,0.264583 -0.264583,0.264583 H 1.0583334 c -0.14657922,0 -0.26458339,-0.118004 -0.26458339,-0.264583 V 2.3812501 c 0,-0.1465792 0.11800417,-0.2645834 0.26458339,-0.2645834 z"
     sodipodi:nodetypes="ssssssssssssssssss" />
  <path
     id="rect2689"
     style="fill:#4d4d4d;stroke-width:0.253484;stroke-linejoin:round"
     d="M 1.3229167,2.6458335 H 15.610416 V 11.90625 H 1.3229167 Z"
     sodipodi:nodetypes="ccccc" />
  <path
     id="path24"
     style="fill:#ffffff;stroke-width:1.00002"
     d="m 8.4671835,4.9138417 c -0.7820155,0 -1.4112833,0.6287174 -1.4112833,1.409733 V 6.8289702 H 6.6192343 c -0.149029,0 -0.2692342,0.1182499 -0.2692342,0.2656168 v 2.6933756 c 0,0.147367 0.1202052,0.2656174 0.2692342,0.2656174 h 3.6948647 c 0.149029,0 0.269234,-0.1182504 0.269234,-0.2656174 V 7.094587 c 0,-0.1473669 -0.120205,-0.2656168 -0.269234,-0.2656168 H 9.8779499 V 6.3235747 c 0,-0.7810156 -0.6297511,-1.409733 -1.4107664,-1.409733 z m 0,0.503845 c 0.4880096,0 0.9069215,0.417912 0.9069215,0.9069215 v 0.504362 H 7.5602622 V 6.3235747 c 0,-0.4880096 0.4179118,-0.905888 0.9069213,-0.905888 z" />
</svg>
