<?xml version="1.0" encoding="UTF-8" standalone="no"?>
<!-- Created with Inkscape (http://www.inkscape.org/) -->

<svg
   width="64"
   height="64"
   viewBox="0 0 16.933333 16.933334"
   version="1.1"
   id="svg5"
   inkscape:version="1.1.2 (0a00cf5339, 2022-02-04, custom)"
   sodipodi:docname="preferences-system.svg"
   xmlns:inkscape="http://www.inkscape.org/namespaces/inkscape"
   xmlns:sodipodi="http://sodipodi.sourceforge.net/DTD/sodipodi-0.dtd"
   xmlns="http://www.w3.org/2000/svg"
   xmlns:svg="http://www.w3.org/2000/svg">
  <sodipodi:namedview
     id="namedview7"
     pagecolor="#ffffff"
     bordercolor="#666666"
     borderopacity="1.0"
     inkscape:pageshadow="2"
     inkscape:pageopacity="0.0"
     inkscape:pagecheckerboard="0"
     inkscape:document-units="px"
     showgrid="false"
     units="px"
     height="64px"
     inkscape:zoom="12.484375"
     inkscape:cx="32"
     inkscape:cy="32"
     inkscape:window-width="1920"
     inkscape:window-height="1019"
     inkscape:window-x="0"
     inkscape:window-y="31"
     inkscape:window-maximized="1"
     inkscape:current-layer="svg5" />
  <defs
     id="defs2" />
  <path
     id="path4206"
     style="color:#000000;fill:#e6e6e6;fill-opacity:1;stroke-width:0.999999;stroke-linecap:round;-inkscape-stroke:none"
     d="M 27.996094 4.5 C 26.611093 4.5 25.767714 5.6418956 25.496094 7 L 23.453125 17.208984 L 13.597656 13.875 C 12.281584 13.429786 10.874139 13.589621 10.181641 14.789062 L 6.1816406 21.71875 C 5.4891405 22.918195 6.0573205 24.218518 7.0976562 25.132812 L 14.917969 32.005859 L 7.1015625 38.875 C 6.061226 39.789294 5.4950017 41.089618 6.1875 42.289062 L 10.1875 49.21875 C 10.88 50.418194 12.352372 50.555398 13.601562 50.132812 L 23.455078 46.798828 L 25.496094 57 C 25.754719 58.293124 26.611093 59.5 27.996094 59.5 L 35.996094 59.5 C 37.381092 59.5 38.224459 58.358105 38.496094 57 L 40.537109 46.796875 L 50.398438 50.132812 C 51.647628 50.555398 53.12 50.418206 53.8125 49.21875 L 57.8125 42.289062 C 58.504996 41.089622 57.938771 39.789298 56.898438 38.875 L 49.082031 32.005859 L 56.902344 25.132812 C 57.942681 24.218518 58.51086 22.918195 57.818359 21.71875 L 53.818359 14.789062 C 53.125863 13.589621 51.718417 13.429786 50.402344 13.875 L 40.539062 17.210938 L 38.496094 7 C 38.223624 5.6376394 37.381092 4.5 35.996094 4.5 L 27.996094 4.5 z M 32 19 A 13 13 0 0 1 45 32 A 13 13 0 0 1 32 45 A 13 13 0 0 1 19 32 A 13 13 0 0 1 32 19 z "
     transform="scale(0.26458334)" />
  <path
     style="color:#000000;opacity:0.3;fill:#4d4d4d;stroke-linecap:round;-inkscape-stroke:none"
     d="m 7.4082031,1.0583333 c -0.2195807,0 -0.4075122,0.094985 -0.5390625,0.2382813 C 6.7375904,1.4399104 6.654933,1.6274178 6.6152344,1.8259115 L 6.1054687,4.3786458 3.640625,3.5446615 C 3.4484074,3.4796362 3.2445407,3.4574706 3.0546875,3.4997396 2.8648343,3.5420086 2.6898216,3.6573145 2.5800781,3.8473959 L 1.5214844,5.6794271 c -0.1097956,0.1901714 -0.1209023,0.4004292 -0.0625,0.5859375 0.058402,0.1855083 0.1800147,0.350776 0.3320312,0.484375 l 1.9550782,1.71875 -1.9550782,1.7167974 c -0.1520475,0.133626 -0.2737774,0.298849 -0.3320312,0.484375 -0.058254,0.185525 -0.045315,0.395813 0.064453,0.585937 l 1.0566406,1.832032 c 0.110819,0.191944 0.293392,0.304615 0.484375,0.345703 0.190983,0.04109 0.3918526,0.01743 0.5761719,-0.04492 l 2.4648437,-0.832031 0.5097657,2.551093 c 0.038169,0.190843 0.1207899,0.376624 0.2519531,0.521484 0.1311633,0.144859 0.319366,0.246092 0.5410157,0.246092 h 2.1152344 c 0.2195806,0 0.4075129,-0.09498 0.5390625,-0.238281 0.13155,-0.143296 0.212253,-0.330804 0.251953,-0.529297 l 0.511719,-2.551093 2.466797,0.832031 c 0.184319,0.06235 0.385188,0.08601 0.576172,0.04492 0.190983,-0.04109 0.371603,-0.153758 0.482422,-0.345703 l 1.058593,-1.832032 c 0.109768,-0.190124 0.120754,-0.400412 0.0625,-0.585937 -0.05825,-0.185526 -0.178031,-0.350748 -0.330078,-0.484375 L 13.1875,8.4684896 l 1.955078,-1.71875 c 0.152017,-0.133599 0.273629,-0.2988666 0.332031,-0.484375 0.0584,-0.1855084 0.0473,-0.3957661 -0.0625,-0.5859375 L 14.353516,3.8473959 C 14.243772,3.6573145 14.068759,3.5420086 13.878906,3.4997396 13.689053,3.4574706 13.485186,3.4796362 13.292969,3.5446615 L 10.826172,4.3786458 10.314453,1.8259115 C 10.274654,1.6269134 10.194077,1.4398083 10.0625,1.2966146 9.9309231,1.1534209 9.7428825,1.0583333 9.5234375,1.0583333 Z m 0,0.2636719 h 2.1152344 c 0.147002,0 0.2542326,0.056876 0.34375,0.1542969 0.089517,0.097421 0.1571615,0.2408843 0.1894535,0.4023437 L 10.625,4.7263021 13.378906,3.7966146 c 0.155993,-0.052771 0.312208,-0.067827 0.441407,-0.039063 0.129198,0.028765 0.231207,0.093433 0.304687,0.2207031 l 1.058594,1.8339849 c 0.07343,0.1271815 0.07883,0.2486717 0.03906,0.375 -0.03977,0.1263283 -0.130667,0.2549735 -0.253906,0.3632812 l -2.183594,1.9179688 2.181641,1.9160164 c 0.123208,0.108281 0.214245,0.23697 0.253906,0.363281 0.03966,0.126311 0.03439,0.247772 -0.03906,0.375 l -1.058594,1.833984 c -0.0724,0.12541 -0.17636,0.190302 -0.308594,0.21875 -0.132234,0.02845 -0.291304,0.01235 -0.4375,-0.03711 L 10.625,12.208724 10.056641,15.05474 c -0.03217,0.160838 -0.099854,0.304743 -0.1894535,0.402343 -0.0896,0.0976 -0.1968835,0.154297 -0.34375,0.154297 H 7.4082031 C 7.2634053,15.61138 7.1533468,15.55156 7.0625,15.451224 6.9716532,15.35089 6.9052592,15.206035 6.875,15.05474 l -0.5683594,-2.846016 -2.75,0.929688 c -0.1461952,0.04946 -0.305266,0.06556 -0.4375,0.03711 -0.1322339,-0.02845 -0.236189,-0.09334 -0.3085937,-0.21875 L 1.7519531,11.122787 c -0.073455,-0.127228 -0.078723,-0.248689 -0.039063,-0.375 0.039661,-0.126311 0.1306984,-0.255001 0.2539063,-0.363281 L 4.1464844,8.4684896 1.9648437,6.5505208 C 1.8416051,6.4422131 1.7507085,6.3135679 1.7109375,6.1872396 1.6711665,6.0609113 1.6765717,5.9394211 1.75,5.8122396 L 2.8085938,3.9782552 C 2.8820735,3.8509846 2.984083,3.7863168 3.1132813,3.7575521 3.2424795,3.7287874 3.3986946,3.7438437 3.5546875,3.7966146 l 2.75,0.9296875 L 6.875,1.8786458 C 6.907167,1.7178081 6.974853,1.5739023 7.0644531,1.4763021 c 0.0896,-0.0976 0.1968832,-0.1542969 0.34375,-0.1542969 z"
     id="path4208"
     sodipodi:nodetypes="sscccsccscccsccscccsssscccsccccccsccscccsssssscccsccscccsccscccsssscccsccscccsccscccss" />
  <path
     id="path4593"
     style="opacity:1;fill:#ececec;stroke:none;stroke-width:1.025;stroke-linecap:round;stroke-linejoin:miter;stroke-miterlimit:4;stroke-dasharray:none;stroke-opacity:1"
     d="M 32,11.5 C 20.678163,11.5 11.5,20.678163 11.5,32 11.5,43.321837 20.678163,52.5 32,52.5 43.321837,52.5 52.5,43.321837 52.5,32 52.5,20.678163 43.321837,11.5 32,11.5 Z m 0,11 c 5.246705,0 9.5,4.253295 9.5,9.5 0,5.246705 -4.253295,9.5 -9.5,9.5 -5.246705,0 -9.5,-4.253295 -9.5,-9.5 0,-5.246705 4.253295,-9.5 9.5,-9.5 z"
     transform="scale(0.26458334)"
     sodipodi:nodetypes="ssssssssss" />
  <path
     id="path5345"
     style="opacity:0.1;fill:#000000;fill-opacity:1;stroke:none;stroke-width:0.999999;stroke-linecap:round;stroke-linejoin:miter;stroke-miterlimit:4;stroke-dasharray:none;stroke-opacity:1"
     d="M 32 15 A 17 17 0 0 0 15 32 A 17 17 0 0 0 32 49 A 17 17 0 0 0 49 32 A 17 17 0 0 0 32 15 z M 32 22.5 C 37.246706 22.5 41.5 26.753295 41.5 32 C 41.5 37.246705 37.246706 41.5 32 41.5 C 26.753295 41.5 22.5 37.246705 22.5 32 C 22.5 26.753295 26.753295 22.5 32 22.5 z "
     transform="scale(0.26458334)" />
  <path
     id="path4449"
     style="opacity:0.3;fill:#000000;stroke:none;stroke-width:0.954546;stroke-linecap:round;stroke-linejoin:miter;stroke-miterlimit:4;stroke-dasharray:none;stroke-opacity:1"
     d="M 32 11 A 21 21 0 0 0 11 32 A 21 21 0 0 0 32 53 A 21 21 0 0 0 53 32 A 21 21 0 0 0 32 11 z M 32 12 A 19.999999 19.999999 0 0 1 52 32 A 19.999999 19.999999 0 0 1 32 52 A 19.999999 19.999999 0 0 1 12 32 A 19.999999 19.999999 0 0 1 32 12 z M 32 22 A 9.9999998 9.9999998 0 0 0 22 32 A 9.9999998 9.9999998 0 0 0 32 42 A 9.9999998 9.9999998 0 0 0 42 32 A 9.9999998 9.9999998 0 0 0 32 22 z M 32 23 A 8.9999996 8.9999996 0 0 1 41 32 A 8.9999996 8.9999996 0 0 1 32 41 A 8.9999996 8.9999996 0 0 1 23 32 A 8.9999996 8.9999996 0 0 1 32 23 z "
     transform="scale(0.26458334)" />
</svg>
