<?xml version="1.0" encoding="UTF-8" standalone="no"?>
<!-- Created with Inkscape (http://www.inkscape.org/) -->

<svg
   width="64"
   height="64"
   viewBox="0 0 16.933333 16.933334"
   version="1.1"
   id="svg5"
   inkscape:version="1.1.2 (0a00cf5339, 2022-02-04)"
   sodipodi:docname="preferences-desktop-remote-desktop.svg"
   xmlns:inkscape="http://www.inkscape.org/namespaces/inkscape"
   xmlns:sodipodi="http://sodipodi.sourceforge.net/DTD/sodipodi-0.dtd"
   xmlns="http://www.w3.org/2000/svg"
   xmlns:svg="http://www.w3.org/2000/svg">
  <sodipodi:namedview
     id="namedview7"
     pagecolor="#ffffff"
     bordercolor="#666666"
     borderopacity="1.0"
     inkscape:pageshadow="2"
     inkscape:pageopacity="0.0"
     inkscape:pagecheckerboard="0"
     inkscape:document-units="px"
     showgrid="false"
     units="px"
     height="64px"
     inkscape:zoom="7.953125"
     inkscape:cx="15.842829"
     inkscape:cy="34.263261"
     inkscape:window-width="1920"
     inkscape:window-height="1011"
     inkscape:window-x="0"
     inkscape:window-y="0"
     inkscape:window-maximized="1"
     inkscape:current-layer="svg5" />
  <defs
     id="defs2" />
  <path
     id="path1233"
     style="color:#000000;opacity:0.3;fill:#42557f;fill-opacity:1;stroke:none;stroke-width:0.264583;-inkscape-stroke:none"
     d="m 6.6145835,9.2604169 c -0.1465792,0 -0.2645833,0.1180044 -0.2645833,0.2645834 V 13.91388 l -0.8299236,0.109037 c -0.2686823,0.0051 -0.4929931,0.218677 -0.4929931,0.485241 V 15.08125 H 11.90625 v -0.573092 c 0,-0.265819 -0.22305,-0.478269 -0.490409,-0.484725 L 10.583334,13.91388 V 9.5250003 c 0,-0.146579 -0.118005,-0.2645834 -0.264584,-0.2645834 z m 0,4.8947911 H 10.31875 l 1.079004,0.132292 h 0.0057 c 0.13723,0 0.23823,0.100086 0.23823,0.220658 v 0.308509 H 5.2916668 v -0.308509 c 0,-0.120691 0.1006504,-0.220658 0.2382285,-0.220658 h 0.0062 z" />
  <path
     id="rect950"
     style="fill:#fafafa;fill-opacity:1;stroke-width:0.25227;stroke-linejoin:round"
     d="M 6.6145835,9.5250003 V 14.155208 L 5.5355796,14.2875 h -0.00568 c -0.1375846,0 -0.2382295,0.100008 -0.2382295,0.220658 v 0.308509 H 11.64167 v -0.308509 c 0,-0.12065 -0.100909,-0.220658 -0.238228,-0.220658 h -0.0062 L 10.31875,14.155208 V 9.5250003 Z" />
  <rect
     style="fill:#414757;fill-opacity:1;stroke-width:0.264583;stroke-linejoin:round"
     id="rect2161"
     width="15.08125"
     height="10.583333"
     x="0.92604166"
     y="1.984375"
     ry="0.39687499" />
  <path
     id="rect846"
     style="opacity:0.8;fill:#252831;fill-opacity:1;stroke-width:0.264583;stroke-linejoin:round"
     d="m 1.3229167,1.8520834 c -0.2931583,0 -0.52916669,0.2360084 -0.52916669,0.5291667 v 9.7895839 c 0,0.293158 0.23600839,0.529167 0.52916669,0.529167 H 15.610418 c 0.293158,0 0.529166,-0.236009 0.529166,-0.529167 V 2.3812501 c 0,-0.2931583 -0.236008,-0.5291667 -0.529166,-0.5291667 z m 0,0.2645833 H 15.610418 c 0.146579,0 0.264583,0.1180042 0.264583,0.2645834 v 9.7895839 c 0,0.146579 -0.118004,0.264583 -0.264583,0.264583 H 1.3229167 c -0.1465792,0 -0.2645833,-0.118004 -0.2645833,-0.264583 V 2.3812501 c 0,-0.1465792 0.1180041,-0.2645834 0.2645833,-0.2645834 z"
     sodipodi:nodetypes="ssssssssssssssssss" />
  <rect
     style="fill:#a952e2;fill-opacity:1;stroke-width:0.253484;stroke-linejoin:round"
     id="rect2689"
     width="13.758333"
     height="9.260417"
     x="1.5875001"
     y="2.6458335" />
  <path
     d="m 8.4667286,8.4401507 c -0.374007,0 -0.7450147,0.197004 -0.8970177,0.367008 L 8.4667286,9.7891777 9.371747,8.8161587 C 9.219743,8.6371547 8.8407353,8.4401507 8.4667286,8.4401507 Z m 0,-1.7070333 c -0.7830147,0 -1.4840288,0.314006 -2.06004,0.7940153 l 0.5600109,0.603012 c 0.3850077,-0.277005 0.9820194,-0.54401 1.4770291,-0.54401 0.5070087,0 1.1330211,0.273005 1.5220281,0.563011 L 10.543769,7.5191327 C 9.9677567,7.0391234 9.248744,6.7331174 8.4667286,6.7331174 Z m 0,-1.706034 c -1.2080232,0 -2.3150451,0.46801 -3.1750619,1.247025 l 0.5480105,0.622012 c 0.7670152,-0.677013 1.5740312,-1.01602 2.6270514,-1.01602 1.0520204,0 1.8350354,0.319006 2.6380514,1.03002 l 0.53701,-0.636012 C 10.781773,5.4940934 9.6747517,5.0270834 8.4667286,5.0270834 Z"
     style="overflow:visible;fill:#ffffff;stroke-width:0.264583"
     id="path869" />
</svg>
