<?xml version="1.0" encoding="UTF-8" standalone="no"?>
<!-- Created with Inkscape (http://www.inkscape.org/) -->

<svg
   width="64"
   height="64"
   viewBox="0 0 16.933333 16.933334"
   version="1.1"
   id="svg5"
   inkscape:version="1.1.2 (0a00cf5339, 2022-02-04, custom)"
   sodipodi:docname="preferences-other.svg"
   xmlns:inkscape="http://www.inkscape.org/namespaces/inkscape"
   xmlns:sodipodi="http://sodipodi.sourceforge.net/DTD/sodipodi-0.dtd"
   xmlns="http://www.w3.org/2000/svg"
   xmlns:svg="http://www.w3.org/2000/svg">
  <sodipodi:namedview
     id="namedview7"
     pagecolor="#ffffff"
     bordercolor="#666666"
     borderopacity="1.0"
     inkscape:pageshadow="2"
     inkscape:pageopacity="0.0"
     inkscape:pagecheckerboard="0"
     inkscape:document-units="px"
     showgrid="false"
     units="px"
     height="64px"
     inkscape:zoom="12.484375"
     inkscape:cx="24.951189"
     inkscape:cy="26.553191"
     inkscape:window-width="1920"
     inkscape:window-height="1019"
     inkscape:window-x="0"
     inkscape:window-y="31"
     inkscape:window-maximized="1"
     inkscape:current-layer="svg5" />
  <defs
     id="defs2" />
  <circle
     style="opacity:1;fill:#ececec;fill-opacity:1;stroke-width:0.511861;stroke-linejoin:round"
     id="path24384"
     cx="8.4666672"
     cy="8.4666672"
     r="7.2760415" />
  <path
     id="path7088"
     style="opacity:0.35;fill:#000000;fill-opacity:1;stroke-width:2;stroke-linejoin:round"
     d="M 32 4 A 28 28 0 0 0 4 32 A 28 28 0 0 0 32 60 A 28 28 0 0 0 60 32 A 28 28 0 0 0 32 4 z M 32 5 A 27 27 0 0 1 59 32 A 27 27 0 0 1 32 59 A 27 27 0 0 1 5 32 A 27 27 0 0 1 32 5 z "
     transform="scale(0.26458334)" />
  <path
     d="m 8.4666674,6.8791667 c -0.879475,0 -1.5875,0.708025 -1.5875,1.5875 0,0.8794748 0.708025,1.5874993 1.5875,1.5874993 0.879475,0 1.5875006,-0.7080245 1.5875006,-1.5874993 0,-0.879475 -0.7080256,-1.5875 -1.5875006,-1.5875 z m -4.233334,0 c -0.879475,0 -1.5875,0.708025 -1.5875,1.5875 0,0.8794748 0.708025,1.5874993 1.5875,1.5874993 0.879475,0 1.5875,-0.7080245 1.5875,-1.5874993 0,-0.879475 -0.708025,-1.5875 -1.5875,-1.5875 z m 8.4666686,0 c -0.879475,0 -1.587501,0.708025 -1.587501,1.5875 0,0.8794748 0.708026,1.5874993 1.587501,1.5874993 0.879475,0 1.5875,-0.7080245 1.5875,-1.5874993 0,-0.879475 -0.708025,-1.5875 -1.5875,-1.5875 z"
     style="fill:#808080;stroke-width:0.79375"
     id="path1112" />
</svg>
