<?xml version="1.0" encoding="UTF-8" standalone="no"?>
<svg
   width="64"
   height="64"
   version="1.1"
   viewBox="0 0 16.933 16.933"
   id="svg33"
   sodipodi:docname="preferences-system-network.svg"
   inkscape:version="1.1.2 (0a00cf5339, 2022-02-04, custom)"
   xmlns:inkscape="http://www.inkscape.org/namespaces/inkscape"
   xmlns:sodipodi="http://sodipodi.sourceforge.net/DTD/sodipodi-0.dtd"
   xmlns:xlink="http://www.w3.org/1999/xlink"
   xmlns="http://www.w3.org/2000/svg"
   xmlns:svg="http://www.w3.org/2000/svg">
  <sodipodi:namedview
     id="namedview35"
     pagecolor="#ffffff"
     bordercolor="#666666"
     borderopacity="1.0"
     inkscape:pageshadow="2"
     inkscape:pageopacity="0.0"
     inkscape:pagecheckerboard="0"
     showgrid="false"
     inkscape:zoom="13.09375"
     inkscape:cx="32"
     inkscape:cy="32"
     inkscape:window-width="1920"
     inkscape:window-height="1019"
     inkscape:window-x="0"
     inkscape:window-y="31"
     inkscape:window-maximized="1"
     inkscape:current-layer="svg33" />
  <defs
     id="defs11">
    <linearGradient
       id="a">
      <stop
         stop-color="#fff"
         offset="0"
         id="stop2" />
      <stop
         stop-color="#fff"
         stop-opacity="0"
         offset="1"
         id="stop4" />
    </linearGradient>
    <linearGradient
       id="b"
       x1="3.5"
       x2="47.5"
       y1="23"
       y2="23"
       gradientTransform="matrix(0 .91422 .91422 0 2.99 .688)"
       gradientUnits="userSpaceOnUse"
       xlink:href="#a" />
    <linearGradient
       id="c"
       x1="46.006"
       x2="4.287"
       y1="23.707"
       y2="27.243"
       gradientTransform="rotate(45 20.076 23.364) scale(.91422)"
       gradientUnits="userSpaceOnUse"
       xlink:href="#a" />
    <linearGradient
       id="d"
       x1="48.127"
       x2="2.873"
       y1="25.828"
       y2="24.414"
       gradientTransform="scale(.91422 -.91422) rotate(45 85.356 -.966)"
       gradientUnits="userSpaceOnUse"
       xlink:href="#a" />
    <linearGradient
       id="e"
       x1="4.49"
       x2="47.5"
       y1="23"
       y2="23"
       gradientTransform="matrix(.91422 0 0 -.91422 .704 45.027)"
       gradientUnits="userSpaceOnUse"
       xlink:href="#a" />
  </defs>
  <circle
     style="fill:#5140ba;stroke-width:0.264578;stroke-linecap:round;stroke-linejoin:round;fill-opacity:1;opacity:0.9"
     id="path856"
     cx="8.4665003"
     cy="8.4665003"
     r="7.1436095" />
  <circle
     style="fill:#7c6ae5;fill-opacity:1;stroke-width:0.264578;stroke-linecap:round;stroke-linejoin:round"
     id="path1220"
     cx="8.4665003"
     cy="8.4665003"
     r="6.8790312" />
  <path
     style="color:#000000;fill:url(#b);stroke-linecap:round;stroke-linejoin:round;-inkscape-stroke:none;opacity:0.8"
     d="m 23.992187,3.9433594 a 0.40200001,0.40200001 0 0 0 -0.398437,0.4042968 0.40200001,0.40200001 0 0 0 0.404297,0.3984375 c 2.118613,-0.010922 3.918165,1.616213 5.324219,4.3613282 1.406053,2.7451151 2.363509,6.5536061 2.767578,10.6445311 0.808138,8.18185 -0.638782,17.490647 -4.6875,21.777344 a 0.40200001,0.40200001 0 0 0 0.01758,0.568359 0.40200001,0.40200001 0 0 0 0.566406,-0.01758 C 32.360342,37.448965 33.713462,28.004492 32.890625,19.673828 32.479207,15.508496 31.514576,11.62096 30.039062,8.7402344 28.563549,5.8595086 26.522989,3.9303122 23.992187,3.9433594 Z"
     id="path17"
     transform="matrix(.32911 0 0 .32912 .568 .568)" />
  <path
     id="path19"
     style="stroke-width:3.7796;fill:#ffffff"
     d="M 13.257812 17.017578 A 2.2753204 2.2753204 0 0 0 10.984375 19.384766 A 2.2753204 2.2753204 0 0 0 15.533203 19.384766 L 15.53125 19.384766 A 2.2753204 2.2753204 0 0 0 13.257812 17.017578 z M 53.271484 24.595703 A 2.2753204 2.2753204 0 0 0 50.998047 26.779297 A 2.2753204 2.2753204 0 1 0 55.544922 26.779297 A 2.2753204 2.2753204 0 0 0 53.271484 24.595703 z M 13.046875 40.667969 A 2.2753204 2.2753204 0 1 0 13.046875 45.21875 A 2.2753204 2.2753204 0 0 0 13.046875 40.667969 z M 36.767578 51.158203 A 2.2753204 2.2753204 0 0 0 34.580078 53.431641 L 34.583984 53.431641 A 2.2753204 2.2753204 0 0 0 39.130859 53.431641 A 2.2753204 2.2753204 0 0 0 36.767578 51.158203 z "
     transform="scale(0.26457812)" />
  <path
     style="color:#000000;fill:url(#c);stroke-linecap:round;stroke-linejoin:round;-inkscape-stroke:none;opacity:0.8"
     d="m 8.8691406,12.8125 a 0.40200001,0.40200001 0 0 0 -0.4296875,0.371094 c -0.2231071,3.105856 1.1067664,6.622478 3.2871099,10.068359 2.180343,3.445881 5.225351,6.823499 8.515624,9.617188 3.290274,2.793688 6.820366,5.003765 10.003907,6.095703 3.183541,1.091938 6.100749,1.070281 7.953125,-0.78125 a 0.40200001,0.40200001 0 0 0 0,-0.56836 0.40200001,0.40200001 0 0 0 -0.56836,0 c -1.555162,1.554454 -4.083027,1.632555 -7.123047,0.589844 C 27.467793,37.162367 23.994675,35.002834 20.761719,32.257812 17.528762,29.512791 14.532454,26.182585 12.40625,22.822266 10.280046,19.461947 9.0388058,16.073449 9.2421875,13.242188 A 0.40200001,0.40200001 0 0 0 8.8691406,12.8125 Z"
     id="path21"
     transform="matrix(.32911 0 0 .32912 .568 .568)" />
  <path
     style="color:#000000;fill:url(#d);stroke-linecap:round;stroke-linejoin:round;-inkscape-stroke:none;opacity:0.8"
     d="m 35.572266,8.5722656 c -1.146347,-0.2535552 -2.462143,-0.1921759 -3.857422,0.125 -2.790559,0.6343518 -5.9783,2.2667434 -9.103516,4.5234374 -6.250432,4.513388 -12.254681,11.517663 -13.970703,18.244141 a 0.40200001,0.40200001 0 0 0 0.2910156,0.490234 0.40200001,0.40200001 0 0 0 0.4882813,-0.291016 C 11.056999,25.247032 16.955316,18.2971 23.082031,13.873047 26.145389,11.66102 29.265353,10.079644 31.892578,9.4824219 34.519803,8.8851994 36.574412,9.247629 37.771484,10.824219 a 0.40200001,0.40200001 0 0 0 0.5625,0.07617 0.40200001,0.40200001 0 0 0 0.07813,-0.5625 C 37.696082,9.3948559 36.718612,8.8258209 35.572266,8.5722656 Z"
     id="path25"
     transform="matrix(.32911 0 0 .32912 .568 .568)" />
  <path
     style="color:#000000;fill:url(#e);stroke-linecap:round;stroke-linejoin:round;-inkscape-stroke:none"
     d="m 24.324219,14.890625 c -2.084917,-1.96e-4 -4.164914,0.141069 -6.154297,0.412109 -3.978766,0.542082 -7.598016,1.603994 -10.2031251,3.126953 -2.6051095,1.52296 -4.2421699,3.579959 -3.984375,6.019532 a 0.40200001,0.40200001 0 0 0 0.4414062,0.357422 0.40200001,0.40200001 0 0 0 0.3574219,-0.44336 c -0.2157364,-2.041564 1.1277193,-3.799723 3.5917969,-5.240234 2.4640771,-1.440512 6.0026571,-2.491598 9.9062501,-3.023438 7.807185,-1.063679 17.077933,-0.0326 22.24414,3.677735 a 0.40200001,0.40200001 0 0 0 0.560547,-0.09375 0.40200001,0.40200001 0 0 0 -0.0918,-0.560547 C 36.886752,16.174553 30.57897,14.891214 24.324219,14.890625 Z"
     id="path29"
     transform="matrix(.32911 0 0 .32912 .568 .568)" />
</svg>
