<?xml version="1.0" encoding="UTF-8" standalone="no"?>
<!-- Created with Inkscape (http://www.inkscape.org/) -->

<svg
   width="64"
   height="64"
   viewBox="0 0 16.933333 16.933334"
   version="1.1"
   id="svg5"
   inkscape:version="1.1.2 (0a00cf5339, 2022-02-04, custom)"
   sodipodi:docname="qvidcap.svg"
   xmlns:inkscape="http://www.inkscape.org/namespaces/inkscape"
   xmlns:sodipodi="http://sodipodi.sourceforge.net/DTD/sodipodi-0.dtd"
   xmlns="http://www.w3.org/2000/svg"
   xmlns:svg="http://www.w3.org/2000/svg">
  <sodipodi:namedview
     id="namedview7"
     pagecolor="#ffffff"
     bordercolor="#666666"
     borderopacity="1.0"
     inkscape:pageshadow="2"
     inkscape:pageopacity="0.0"
     inkscape:pagecheckerboard="0"
     inkscape:document-units="px"
     showgrid="false"
     units="px"
     height="64px"
     showguides="false"
     inkscape:zoom="12.59375"
     inkscape:cx="32"
     inkscape:cy="32"
     inkscape:window-width="1851"
     inkscape:window-height="1009"
     inkscape:window-x="69"
     inkscape:window-y="31"
     inkscape:window-maximized="1"
     inkscape:current-layer="svg5" />
  <defs
     id="defs2" />
  <path
     id="rect1241"
     style="opacity:0.2;fill:#000000;stroke-width:0.999999;stroke-linecap:round;stroke-linejoin:round"
     d="M 12 28 C 10.892 28 10 28.892 10 30 L 10 54 C 10 55.108 10.892 56 12 56 L 18 56 C 19.108 56 20 55.108 20 54 L 20 30 C 20 28.892 19.108 28 18 28 L 12 28 z M 46 28 C 44.892 28 44 28.892 44 30 L 44 54 C 44 55.108 44.892 56 46 56 L 52 56 C 53.108 56 54 55.108 54 54 L 54 30 C 54 28.892 53.108 28 52 28 L 46 28 z "
     transform="scale(0.26458334)" />
  <path
     id="rect1948"
     style="opacity:1;fill:#6f6f6f;stroke-width:0.999999;stroke-linecap:round;stroke-linejoin:round;fill-opacity:1"
     d="M 12 29 C 11.446 29 11 29.446 11 30 L 11 54 C 11 54.554 11.446 55 12 55 L 18 55 C 18.554 55 19 54.554 19 54 L 19 30 C 19 29.446 18.554 29 18 29 L 12 29 z M 46 29 C 45.446 29 45 29.446 45 30 L 45 54 C 45 54.554 45.446 55 46 55 L 52 55 C 52.554 55 53 54.554 53 54 L 53 30 C 53 29.446 52.554 29 52 29 L 46 29 z "
     transform="scale(0.26458334)" />
  <path
     id="rect890"
     style="opacity:0.75;fill:#403519;fill-opacity:1;stroke-width:0.264583;stroke-linejoin:round;stroke-opacity:0.501961"
     d="m 2.38125,2.1166667 c -0.5863167,0 -1.0583333,0.4720167 -1.0583333,1.0583334 v 8.9958339 c 0,0.586317 0.4720166,1.058333 1.0583333,1.058333 h 12.170834 c 0.586317,0 1.058334,-0.472016 1.058334,-1.058333 V 3.1750001 c 0,-0.5863167 -0.472017,-1.0583334 -1.058334,-1.0583334 z"
     sodipodi:nodetypes="sssssssss" />
  <path
     id="rect1595"
     style="opacity:1;fill:#ac9a6f;fill-opacity:1;stroke-width:0.264583;stroke-linecap:round"
     d="m 2.38125,2.3812501 c -0.4397375,0 -0.79375,0.3540122 -0.79375,0.79375 v 8.9958339 c 0,0.439738 0.3540125,0.79375 0.79375,0.79375 h 12.170834 c 0.439738,0 0.79375,-0.354012 0.79375,-0.79375 V 3.1750001 c 0,-0.4397378 -0.354012,-0.79375 -0.79375,-0.79375 z"
     sodipodi:nodetypes="sssssssss" />
  <path
     id="rect10218"
     style="opacity:1;fill:#908363;stroke-width:0.264583;stroke-linecap:round;stroke-linejoin:round;fill-opacity:1"
     d="m 3.175,3.4395833 h 10.583333 c 0.293158,0 0.529167,0.2360083 0.529167,0.5291667 v 7.408334 c 0,0.293158 -0.236009,0.529166 -0.529167,0.529166 H 3.175 c -0.2931584,0 -0.5291667,-0.236008 -0.5291667,-0.529166 V 3.96875 c 0,-0.2931584 0.2360083,-0.5291667 0.5291667,-0.5291667 z" />
  <path
     id="rect10663"
     style="opacity:1;fill:#d5cfc1;stroke-width:0.264583;stroke-linecap:round;stroke-linejoin:round"
     d="m 3.175,3.7041667 h 10.583333 c 0.14658,0 0.264584,0.1180041 0.264584,0.2645833 v 7.408333 c 0,0.146579 -0.118004,0.264584 -0.264584,0.264584 H 3.175 c -0.1465792,0 -0.2645834,-0.118005 -0.2645834,-0.264584 V 3.96875 c 0,-0.1465792 0.1180042,-0.2645833 0.2645834,-0.2645833 z" />
</svg>
