<?xml version="1.0" encoding="UTF-8" standalone="no"?>
<!-- Created with Inkscape (http://www.inkscape.org/) -->

<svg
   width="64"
   height="64"
   viewBox="0 0 16.933333 16.933334"
   version="1.1"
   id="svg5"
   inkscape:version="1.1.2 (0a00cf5339, 2022-02-04, custom)"
   sodipodi:docname="skanlite.svg"
   xmlns:inkscape="http://www.inkscape.org/namespaces/inkscape"
   xmlns:sodipodi="http://sodipodi.sourceforge.net/DTD/sodipodi-0.dtd"
   xmlns="http://www.w3.org/2000/svg"
   xmlns:svg="http://www.w3.org/2000/svg">
  <sodipodi:namedview
     id="namedview7"
     pagecolor="#ffffff"
     bordercolor="#666666"
     borderopacity="1.0"
     inkscape:pageshadow="2"
     inkscape:pageopacity="0.0"
     inkscape:pagecheckerboard="0"
     inkscape:document-units="px"
     showgrid="false"
     units="px"
     height="64px"
     showguides="false"
     inkscape:zoom="13.15625"
     inkscape:cx="31.961995"
     inkscape:cy="32"
     inkscape:window-width="1920"
     inkscape:window-height="1019"
     inkscape:window-x="0"
     inkscape:window-y="31"
     inkscape:window-maximized="1"
     inkscape:current-layer="svg5" />
  <defs
     id="defs2" />
  <rect
     style="fill:#e8e8e8;stroke-width:0.529167;stroke-linejoin:round;fill-opacity:1"
     id="rect846"
     width="12.435417"
     height="14.552083"
     x="2.2489583"
     y="1.1906251"
     ry="0.92604166" />
  <path
     d="m 3.5483022,2.2479248 h 9.8387968 c 0.132947,0 0.239977,0.1087998 0.239977,0.2439458 V 14.439396 c 0,0.135146 -0.10703,0.243946 -0.239977,0.243946 H 3.5483022 c -0.1329473,0 -0.239977,-0.1088 -0.239977,-0.243946 V 2.4918706 c 0,-0.135146 0.1070297,-0.2439458 0.239977,-0.2439458 z"
     style="overflow:visible;opacity:0.9;fill:#0d4b8a;stroke-width:0.264583;marker:none;fill-opacity:1"
     id="path1505" />
  <path
     style="color:#000000;opacity:0.35;fill:#132741;stroke-width:0.264583;-inkscape-stroke:none;fill-opacity:1"
     d="M 3.5475871,2.1166667 C 3.3425427,2.1166667 3.175,2.2874331 3.175,2.4923543 V 14.438912 c 0,0.204921 0.1675427,0.375688 0.3725871,0.375688 h 9.8402269 c 0.205044,0 0.372587,-0.170767 0.372587,-0.375688 V 2.4923543 c 0,-0.2049212 -0.167543,-0.3756876 -0.372587,-0.3756876 z m 0,0.2645833 h 9.8402269 c 0.06085,0 0.108004,0.046027 0.108004,0.1111043 V 14.438912 c 0,0.06508 -0.04715,0.111105 -0.108004,0.111105 H 3.5475871 c -0.06085,0 -0.1080037,-0.04603 -0.1080037,-0.111105 V 2.4923543 c 0,-0.065077 0.047154,-0.1111043 0.1080037,-0.1111043 z"
     id="rect16" />
  <path
     d="m 4.4999836,3.4393188 7.9375004,7.937e-4 V 13.493486 H 4.4999836 Z"
     style="fill:#f9f9f9;stroke-width:0.264583"
     id="path1298" />
  <path
     style="color:#000000;opacity:0.3;fill:#000000;stroke-width:0.264583;stroke-linejoin:round;-inkscape-stroke:none"
     d="M 4.365625,3.175 A 0.1323049,0.1323049 0 0 0 4.2333334,3.3072917 V 13.623975 a 0.1323049,0.1323049 0 0 0 0.1322916,0.132292 h 8.204151 a 0.1323049,0.1323049 0 0 0 0.132291,-0.132292 V 3.3078084 A 0.1323049,0.1323049 0 0 0 12.569776,3.1755168 Z m 0.1322917,0.2645834 7.9395673,5.291e-4 V 13.491683 H 4.4979167 Z"
     id="path10" />
  <path
     style="color:#000000;fill:#aaaaaa;stroke-width:0.264583;-inkscape-stroke:none"
     d="M 5.2927002,4.7614666 V 5.0317343 H 5.8905966 V 4.7614666 Z m 0.6852296,0 V 5.0317343 H 6.5360353 V 4.7614666 Z m 0.6454386,0 V 5.0317343 H 7.117395 V 4.7614666 Z m 0.5741252,0 v 0.2702677 h 0.214974 V 4.7614666 Z m 0.3023071,0 V 5.0317343 H 7.9783248 V 4.7614666 Z m 0.5741251,0 v 0.2702677 h 1.258838 V 4.7614666 Z m 1.338937,0 V 5.0317343 H 10.377145 V 4.7614666 Z m 1.0438632,0 v 0.2702677 h 0.294556 V 4.7614666 Z m -5.1640258,0.52865 V 5.560901 H 6.2254599 V 5.2901166 Z m 1.0361126,0 V 5.560901 H 6.7752972 V 5.2901166 Z m 0.5255493,0 V 5.560901 H 7.0776043 V 5.2901166 Z m 0.3110921,0 V 5.560901 H 7.5721476 V 5.2901166 Z m 0.4940265,0 V 5.560901 H 8.0739258 V 5.2901166 Z m 0.4940271,0 V 5.560901 h 0.661458 V 5.2901166 Z m 0.749308,0 V 5.560901 h 0.860413 V 5.2901166 Z m 0.939994,0 V 5.560901 H 10.416935 V 5.2901166 Z m 0.6537072,0 V 5.560901 h 0.143144 V 5.2901166 Z M 5.2927002,5.818767 V 6.089551 H 6.0817994 V 5.818767 Z m 0.8686808,0 V 6.089551 H 7.4522583 V 5.818767 Z m 1.3709759,0 V 6.089551 H 8.1617758 V 5.818767 Z m 0.7090009,0 v 0.270784 h 0.589628 V 5.818767 Z m 0.669209,0 v 0.270784 h 0.502296 V 5.818767 Z m 0.582911,0 -0.0026,0.270784 0.7890992,0.0078 0.0026,-0.270784 z m 0.8593792,0.0078 v 0.270784 h 1.283126 V 5.826566 Z M 5.2927002,6.347981 V 6.618249 H 6.3841065 V 6.347981 Z m 1.1792561,0 V 6.618249 H 7.6517295 V 6.347981 Z m 1.2593545,0 v 0.270268 h 0.470256 V 6.347981 Z m 0.549838,0 v 0.270268 h 1.107942 V 6.347981 Z m 1.179256,0 V 6.618249 H 10.217464 V 6.347981 Z m 0.8449092,0 v 0.270268 h 0.302824 V 6.347981 Z m 0.382406,0 v 0.270268 h 0.167432 V 6.347981 Z m 0.255282,0 v 0.270268 h 0.470255 V 6.347981 Z M 5.2927002,6.876631 V 7.146899 H 5.6993936 V 6.876631 Z m 0.5338175,0 v 0.270268 h 1.506368 V 6.876631 Z M 5.2994182,7.669864 V 7.940132 H 6.0880004 V 7.669864 Z m 0.8686809,0 V 7.940132 H 7.4589763 V 7.669864 Z m 1.3704588,0 V 7.940132 H 8.1684938 V 7.669864 Z m 0.7095179,0 v 0.270268 h 0.589111 V 7.669864 Z m 0.66921,0 v 0.270268 h 0.501778 V 7.669864 Z m 0.58291,0 -0.0026,0.270268 0.7890992,0.0078 0.0026,-0.270784 z m 0.8593792,0.0072 v 0.270785 h 1.283126 V 7.677065 Z M 5.2927002,8.19848 V 8.468748 H 5.8905966 V 8.19848 Z m 0.6852296,0 V 8.468748 H 6.527767 V 8.19848 Z m 0.6454386,0 V 8.468748 H 7.117395 V 8.19848 Z m 0.5741252,0 v 0.270268 h 0.214974 V 8.19848 Z m 0.3023071,0 V 8.468748 H 7.9783248 V 8.19848 Z m 0.5741251,0 v 0.270268 h 1.251086 V 8.19848 Z m 1.338937,0 V 8.468748 H 10.368877 V 8.19848 Z m 1.0355952,0 v 0.270268 h 0.302824 V 8.19848 Z m 0.382406,0 v 0.270268 h 0.717269 V 8.19848 Z M 5.2927002,8.72713 V 8.997398 H 6.2967733 V 8.72713 Z m 1.0836548,0 V 8.997398 H 7.4522583 V 8.72713 Z m 1.1560019,0 V 8.997398 H 7.9462848 V 8.72713 Z m 0.4935099,0 v 0.270268 h 1.012341 V 8.72713 Z m 1.091923,0 V 8.997398 H 10.392648 V 8.72713 Z m 1.3627082,0 v 0.270268 h 0.470255 V 8.72713 Z M 5.2927002,9.25578 V 9.526048 H 6.3841065 V 9.25578 Z m 1.1792561,0 V 9.526048 H 7.6517295 V 9.25578 Z m 1.2593545,0 v 0.270268 h 0.470256 V 9.25578 Z m 0.549838,0 v 0.270268 h 1.107942 V 9.25578 Z m 1.179256,0 V 9.526048 H 10.217464 V 9.25578 Z m 0.8449092,0 v 0.270268 h 0.302824 V 9.25578 Z m 0.382406,0 v 0.270268 h 0.167432 V 9.25578 Z m 0.255282,0 v 0.270268 h 0.470255 V 9.25578 Z M 5.2927002,9.78443 v 0.270784 H 6.2254599 V 9.78443 Z m 1.0361126,0 v 0.270784 H 6.7752972 V 9.78443 Z m 0.5255493,0 v 0.270784 H 7.0776043 V 9.78443 Z m 0.3110921,0 v 0.270784 H 7.5721476 V 9.78443 Z m 0.4940265,0 v 0.270784 H 8.0739258 V 9.78443 Z m 0.4940271,0 v 0.270784 h 0.661458 V 9.78443 Z m 0.749308,0 v 0.270784 h 0.860413 V 9.78443 Z m 0.939994,0 v 0.270784 H 10.416935 V 9.78443 Z m 0.6537072,0 v 0.270784 h 0.143144 V 9.78443 Z m -5.2038168,0.793233 v 0.270268 h 0.7890992 v -0.270268 z m 0.8686808,0 v 0.270268 h 1.2908773 v -0.270268 z m 1.3709759,0 v 0.270268 h 0.6294189 v -0.270268 z m 0.7090009,0 v 0.270268 h 0.589628 v -0.270268 z m 0.669209,0 v 0.270268 h 0.502296 v -0.270268 z m 0.582911,0 -0.0026,0.270268 0.7890992,0.0078 0.0026,-0.270267 z m 0.8593792,0.0078 v 0.270267 h 1.283126 V 10.585462 Z M 5.2927002,11.10636 v 0.270785 H 6.2254599 V 11.10636 Z m 1.0361126,0 v 0.270785 H 6.7752972 V 11.10636 Z m 0.5255493,0 v 0.270785 H 7.0776043 V 11.10636 Z m 0.3110921,0 v 0.270785 H 7.5721476 V 11.10636 Z m 0.4940265,0 v 0.270785 H 8.0739258 V 11.10636 Z m 0.4940271,0 v 0.270785 h 0.661458 V 11.10636 Z m 0.749308,0 v 0.270785 h 0.860413 V 11.10636 Z m 0.939994,0 v 0.270785 H 10.416935 V 11.10636 Z m 0.6537072,0 v 0.270785 h 0.143144 V 11.10636 Z m -5.2038168,0.52865 v 0.270785 H 6.2807536 V 11.63501 Z m 1.0759033,0 v 0.270785 H 6.6791788 V 11.63501 Z m 0.3901572,0 v 0.270785 H 7.468278 V 11.63501 Z m 0.7890989,0 v 0.270785 H 8.5917238 V 11.63501 Z m 1.1317142,0 v 0.270785 h 0.709517 V 11.63501 Z m 0.780831,0 v 0.270785 h 0.151412 V 11.63501 Z m 0.230993,0 v 0.270785 H 10.592119 V 11.63501 Z m 0.9963222,0 v 0.270785 h 0.470256 V 11.63501 Z m -5.3950198,0.529167 v 0.270267 h 0.9880534 v -0.270267 z m 1.0759033,0 v 0.270267 h 0.4459676 v -0.270267 z m 0.5255493,0 v 0.270267 h 0.701766 v -0.270267 z m 0.7813477,0 v 0.270267 h 0.7570593 v -0.270267 z m 0.8449103,0 v 0.270267 h 0.302823 v -0.270267 z m 0.382405,0 v 0.270267 h 0.167432 v -0.270267 z m 0.254765,0 v 0.270267 h 0.470256 v -0.270267 z"
     id="path12" />
  <path
     id="rect1030"
     style="opacity:0.2;fill:#000000;stroke-width:2;stroke-linejoin:round"
     d="M 12 4 C 9.7839999 4 8 5.7839999 8 8 L 8 56 C 8 58.216 9.7839999 60 12 60 L 52 60 C 54.216 60 56 58.216 56 56 L 56 8 C 56 5.7839999 54.216 4 52 4 L 12 4 z M 12 5 L 52 5 C 53.662 5 55 6.338 55 8 L 55 56 C 55 57.662 53.662 59 52 59 L 12 59 C 10.338 59 9 57.662 9 56 L 9 8 C 9 6.338 10.338 5 12 5 z "
     transform="scale(0.26458334)" />
</svg>
