<?xml version="1.0" encoding="UTF-8" standalone="no"?>
<!-- Created with Inkscape (http://www.inkscape.org/) -->

<svg
   width="64"
   height="64"
   viewBox="0 0 16.933333 16.933334"
   version="1.1"
   id="svg5"
   inkscape:version="1.1.2 (0a00cf5339, 2022-02-04, custom)"
   sodipodi:docname="skype.svg"
   xmlns:inkscape="http://www.inkscape.org/namespaces/inkscape"
   xmlns:sodipodi="http://sodipodi.sourceforge.net/DTD/sodipodi-0.dtd"
   xmlns="http://www.w3.org/2000/svg"
   xmlns:svg="http://www.w3.org/2000/svg">
  <sodipodi:namedview
     id="namedview7"
     pagecolor="#ffffff"
     bordercolor="#666666"
     borderopacity="1.0"
     inkscape:pageshadow="2"
     inkscape:pageopacity="0.0"
     inkscape:pagecheckerboard="0"
     inkscape:document-units="px"
     showgrid="false"
     units="px"
     height="64px"
     inkscape:zoom="1"
     inkscape:cx="32"
     inkscape:cy="31.5"
     inkscape:window-width="1920"
     inkscape:window-height="1019"
     inkscape:window-x="0"
     inkscape:window-y="31"
     inkscape:window-maximized="1"
     inkscape:current-layer="svg5" />
  <defs
     id="defs2" />
  <path
     id="path1005-3"
     style="fill:#116baa;fill-opacity:1;stroke-width:2.59081;stroke-linejoin:round"
     d="M 20.240234 4 A 16.240001 16.240001 0 0 0 4 20.240234 A 16.240001 16.240001 0 0 0 20.240234 36.480469 A 16.240001 16.240001 0 0 0 36.480469 20.240234 A 16.240001 16.240001 0 0 0 20.240234 4 z M 43.759766 27.519531 A 16.240001 16.240001 0 0 0 27.519531 43.759766 A 16.240001 16.240001 0 0 0 43.759766 60 A 16.240001 16.240001 0 0 0 60 43.759766 A 16.240001 16.240001 0 0 0 43.759766 27.519531 z "
     transform="scale(0.26458334)" />
  <path
     id="path5724-6"
     style="fill:#1587d7;fill-opacity:1;stroke-width:2.14865;stroke-linejoin:round"
     d="M 20.240234 5 A 15.24 15.24 0 0 0 5 20.240234 A 15.24 15.24 0 0 0 20.240234 35.480469 A 15.24 15.24 0 0 0 35.480469 20.240234 A 15.24 15.24 0 0 0 20.240234 5 z M 43.759766 28.519531 A 15.24 15.24 0 0 0 28.519531 43.759766 A 15.24 15.24 0 0 0 43.759766 59 A 15.24 15.24 0 0 0 59 43.759766 A 15.24 15.24 0 0 0 43.759766 28.519531 z "
     transform="scale(0.26458334)" />
  <circle
     style="opacity:1;fill:#0089e8;fill-opacity:1;stroke-width:0.483941;stroke-linejoin:round"
     id="path24384"
     cx="8.4666662"
     cy="8.4666662"
     r="6.8791666" />
  <circle
     style="opacity:1;fill:#3aacff;fill-opacity:1;stroke-width:0.529167;stroke-linejoin:round"
     id="path5976"
     cx="8.4666672"
     cy="8.4666672"
     r="6.6145835" />
  <path
     style="color:#000000;fill:#cccccc;fill-rule:evenodd;stroke:none;-inkscape-stroke:none;opacity:0.6"
     d="M 8.640625,4.4980469 C 8.1460429,4.4955858 7.6542868,4.5759006 7.1875,4.734375 6.7405352,4.8802149 6.3394797,5.1365147 6.0273437,5.4804687 l -0.00195,0.00195 v 0.00195 C 5.7130568,5.8404715 5.5464462,6.2986194 5.5585937,6.7675781 5.5495015,7.1300405 5.6356802,7.4877683 5.8125,7.8066406 l 0.00391,0.00586 0.00195,0.00391 C 6.0009865,8.117755 6.2518771,8.3736267 6.5527344,8.5644531 L 6.6953125,8.3398438 6.5546875,8.5644531 C 6.9232389,8.7966245 7.313798,8.9915981 7.7226562,9.1484375 H 7.71875 c 0.4349211,0.1747923 0.772002,0.3224573 1.0019531,0.4394531 l 0.00195,0.00195 0.00391,0.00195 c 0.1779643,0.084091 0.3392517,0.1958337 0.4765625,0.3320312 0.071701,0.074282 0.1095898,0.1677372 0.109375,0.2656252 v 0.0059 0.0059 c 0.00648,0.149579 -0.064963,0.292467 -0.1894531,0.390625 -0.2093527,0.132601 -0.4588874,0.20086 -0.7109375,0.183594 H 8.40234 8.390621 c -0.1576967,0.0015 -0.3148188,-0.01432 -0.46875,-0.04687 -0.1245257,-0.02634 -0.2457929,-0.06407 -0.3632813,-0.111328 h -0.00195 C 7.4501571,10.572825 7.296971,10.503273 7.1035156,10.410156 6.9067407,10.309068 6.6888323,10.255528 6.4667969,10.251953 c -0.2279813,-0.008 -0.4528514,0.06608 -0.6269532,0.212891 l -0.00391,0.0039 -0.00391,0.0039 c -0.1733605,0.159022 -0.2659362,0.388445 -0.2558593,0.623047 -0.00186,0.202728 0.060454,0.403045 0.1816406,0.566406 l 0.00195,0.0039 0.00586,0.0059 c 0.1354565,0.165262 0.3080715,0.296158 0.5058594,0.380859 h 0.00195 0.00195 c 0.6580277,0.274428 1.3699359,0.403158 2.0859375,0.378907 0.5190771,0.0085 1.0359793,-0.0722 1.5253907,-0.240235 0.4342834,-0.1484 0.8145664,-0.419634 1.0898444,-0.779297 l 0.002,-0.0039 0.0039,-0.0039 c 0.270045,-0.379487 0.40525,-0.833141 0.390625,-1.294922 0.0087,-0.3786974 -0.08734,-0.7530786 -0.283203,-1.0800781 l -0.002,-0.00391 -0.002,-0.00391 C 10.889715,8.7145796 10.624428,8.4555918 10.3125,8.2597656 v -0.00195 C 9.9451185,8.029664 9.5546272,7.838436 9.1484375,7.6835937 9.1070842,7.6648693 9.0647033,7.6468408 9.0214844,7.6328125 L 9,7.625 C 8.6158249,7.4715871 8.320364,7.3454242 8.1328125,7.2558594 l -0.00391,-0.00195 h -0.00195 C 7.9752017,7.1854733 7.8381308,7.0898861 7.7226562,6.9746094 7.6559176,6.9061029 7.6201989,6.8188274 7.6210937,6.7285156 v -0.00781 -0.00781 C 7.6141526,6.560895 7.694288,6.4175805 7.8359375,6.3339844 8.0527608,6.2101467 8.3013111,6.1472002 8.5546875,6.15625 h 0.00781 0.00586 c 0.2098804,-0.00217 0.418284,0.022778 0.6210937,0.074219 0.2299881,0.064137 0.455335,0.1422989 0.6738282,0.2363282 0.1267554,0.056547 0.2634026,0.086375 0.4023436,0.087891 0.224588,0.0053 0.44272,-0.081413 0.599609,-0.2421875 h 0.002 v -0.00195 C 11.023768,6.1456462 11.10586,5.9241259 11.097656,5.6972656 11.098836,5.483849 11.0227,5.2773564 10.880859,5.1171875 l -0.0039,-0.00586 -0.0059,-0.00586 C 10.703901,4.9362832 10.497352,4.8106151 10.269531,4.7363281 10.05206,4.6599554 9.8262238,4.6026207 9.5976563,4.5683594 H 9.59375 C 9.2801421,4.5190456 8.9622417,4.495361 8.6445313,4.4980469 Z m 0,0.5292968 h 0.00195 0.00195 c 0.2910734,-0.00266 0.5819329,0.019092 0.8691406,0.064453 h 0.00195 c 0.1990673,0.029629 0.395074,0.07772 0.5839844,0.1445312 l 0.0039,0.00195 h 0.002 c 0.145936,0.047587 0.276985,0.1312009 0.382812,0.2363282 0.05448,0.0645 0.08528,0.1422344 0.08399,0.2226562 v 0.00781 0.00977 c 0.0039,0.083546 -0.02528,0.1636142 -0.08594,0.2285157 -4.2e-4,4.305e-4 -0.0015,-4.277e-4 -0.002,0 -4.55e-4,4.844e-4 4.58e-4,0.00147 0,0.00195 -0.05184,0.052085 -0.127761,0.082131 -0.207031,0.080078 h -0.002 -0.002 C 10.205751,6.0249043 10.138676,6.011431 10.078018,5.98437 h -0.002 l -0.002,-0.00195 C 9.8309923,5.8776128 9.5821007,5.7898008 9.3261719,5.71875 h -0.00391 L 9.3203119,5.7168 c -0.244742,-0.062077 -0.4971005,-0.091792 -0.75,-0.089844 -0.3507641,-0.011812 -0.6971315,0.072528 -1,0.2460938 L 7.5683594,5.875 C 7.2648561,6.0524675 7.0825992,6.3812668 7.0957031,6.7304687 7.095837,6.9610288 7.185074,7.1831732 7.3476562,7.3476562 v 0.00195 C 7.5076198,7.5092988 7.6970326,7.638243 7.9042969,7.7324219 8.1167436,7.8338754 8.4203713,7.9641281 8.8242188,8.125 l 0.011719,0.00391 0.00977,0.00195 c 0.032259,0.00981 0.063495,0.022855 0.09375,0.037109 l 0.00977,0.00391 0.00977,0.00391 c 0.3750431,0.1428039 0.7335357,0.321027 1.0722652,0.53125 0.245206,0.1539384 0.450379,0.3577186 0.603516,0.5957031 0.145848,0.2442114 0.220738,0.5205968 0.21289,0.8007819 l -0.002,0.0078 0.002,0.0098 c 0.01235,0.346819 -0.09228,0.686374 -0.296875,0.974609 -3.75e-4,5.29e-4 3.76e-4,0.0014 0,0.002 -0.210019,0.271689 -0.499397,0.479418 -0.8339837,0.59375 -0.4353554,0.149687 -0.8968005,0.221895 -1.359375,0.212891 h -0.00781 -0.00586 C 7.7040637,11.926044 7.0673417,11.808974 6.480484,11.56453 H 6.478534 C 6.3604531,11.513622 6.259375,11.435295 6.1796875,11.339844 6.1272243,11.26682 6.0993934,11.182447 6.1015625,11.095703 v -0.0098 -0.01172 c -0.00438,-0.07673 0.025883,-0.150136 0.085937,-0.207031 0.071593,-0.05832 0.1648467,-0.09174 0.2617187,-0.08789 h 0.00391 0.00195 c 0.142165,0.0019 0.2835813,0.03754 0.4082031,0.101562 l 0.00195,0.002 h 0.00391 c 0.2029152,0.09778 0.362546,0.17309 0.4863281,0.224609 h 0.00195 0.00195 c 0.1467609,0.05918 0.2978746,0.105838 0.453125,0.138672 0.1846622,0.03905 0.3735778,0.05696 0.5625,0.05664 0.3695432,0.02532 0.7379238,-0.06732 1.046875,-0.267578 l 0.00781,-0.0059 0.00781,-0.0059 C 9.7006112,10.825225 9.8498909,10.512764 9.8378906,10.185547 9.8367247,9.9488396 9.7441967,9.7205626 9.578125,9.5507813 l -0.00195,-0.00195 C 9.395654,9.3697739 9.1848053,9.2227539 8.953125,9.1132813 8.6993493,8.9844234 8.3568478,8.833418 7.9160156,8.65625 h -0.00195 -0.00195 C 7.5358957,8.5119332 7.1765709,8.330406 6.8378906,8.1171875 6.6055903,7.9698451 6.4129438,7.7723318 6.2734375,7.5429687 6.143254,7.3052079 6.0778851,7.0410105 6.0859375,6.7734375 v -0.00781 -0.00781 c -0.00985,-0.3353918 0.1075701,-0.6627621 0.3339844,-0.92188 l 0.00195,-0.00195 C 6.671279,5.5598714 6.992594,5.3536924 7.3535156,5.2363281 h 0.00195 C 7.7678779,5.0961133 8.2029053,5.0247849 8.640625,5.0273437 Z"
     id="path11368" />
  <path
     style="color:#000000;fill:#ffffff;fill-rule:evenodd;stroke:none;stroke-width:0.529167;-inkscape-stroke:none"
     d="M 6.6954093,8.3405861 C 6.4284318,8.1712488 6.2056955,7.9448173 6.0445737,7.6789539 5.8889056,7.398226 5.8120571,7.0832326 5.82163,6.7651341 5.8097767,6.3614186 5.9528443,5.9676532 6.2234911,5.6590847 6.504695,5.3492158 6.8661476,5.1166095 7.2710607,4.9849401 7.7115438,4.8351804 8.1756378,4.7599996 8.6427692,4.7627304 c 0.305694,-0.00279 0.61107,0.019764 0.9127461,0.06741 0.2157942,0.032119 0.4277376,0.084812 0.6327037,0.1573017 0.18829,0.061397 0.358264,0.1659255 0.495294,0.3045891 0.101,0.114051 0.155384,0.2596237 0.152978,0.4094856 0.0074,0.1572162 -0.05048,0.3108023 -0.160771,0.4269541 C 10.571113,6.2356685 10.423919,6.2947253 10.271203,6.2907698 10.167281,6.290029 10.064726,6.267886 9.9704314,6.2258201 9.7382686,6.1257785 9.4991098,6.0415233 9.2547123,5.9736738 9.0296794,5.9165958 8.7977012,5.8888873 8.5650039,5.8912915 8.2619491,5.8804674 7.9620976,5.9541563 7.7015028,6.1034964 7.4773095,6.234589 7.3451236,6.4728867 7.3566454,6.7251865 c -0.00161,0.162492 0.062542,0.3192055 0.1788949,0.4369187 0.1383625,0.1381254 0.3018404,0.2506731 0.4823357,0.3320682 0.2022708,0.096594 0.5039177,0.2247641 0.9049409,0.384511 0.044454,0.013523 0.087798,0.030218 0.1296728,0.049947 0.3913341,0.149007 0.7665236,0.3346556 1.1201673,0.5542727 0.279366,0.1753839 0.514924,0.4081585 0.689754,0.6816046 0.172059,0.2872652 0.258214,0.6147636 0.248929,0.9462523 0.01446,0.406035 -0.106403,0.805871 -0.344902,1.141027 -0.242839,0.31728 -0.578781,0.557291 -0.964552,0.689114 -0.4648438,0.159826 -0.9560303,0.236819 -1.4495246,0.227213 -0.6781768,0.02297 -1.3531479,-0.09985 -1.9758382,-0.35954 -0.159348,-0.06824 -0.2990652,-0.172778 -0.4071051,-0.304591 -0.089554,-0.12072 -0.1359686,-0.266177 -0.13226,-0.414484 -0.00904,-0.158349 0.054443,-0.31256 0.173699,-0.421952 0.1236932,-0.104303 0.2843011,-0.15883 0.4485876,-0.152296 0.1828474,0.0024 0.3624371,0.04694 0.523775,0.129823 0.2004665,0.0966 0.3586501,0.169018 0.4745503,0.217256 0.1323925,0.05339 0.2695204,0.09517 0.4097147,0.12482 0.17282,0.03655 0.3493844,0.05413 0.5263158,0.05241 0.3128285,0.02143 0.6241092,-0.05854 0.884265,-0.227171 0.19762,-0.148875 0.3086201,-0.380315 0.2981706,-0.621696 C 9.5766066,10.021813 9.5098247,9.8592042 9.3895699,9.7362632 9.2306554,9.5786372 9.0447004,9.4485751 8.8398779,9.3517932 8.5978194,9.2286373 8.2572535,9.0788292 7.8181804,8.9023682 7.4253707,8.7516851 7.0492319,8.5634843 6.6954009,8.3405861"
     id="path11366" />
</svg>
