<?xml version="1.0" encoding="UTF-8" standalone="no"?>
<!-- Created with Inkscape (http://www.inkscape.org/) -->

<svg
   width="64"
   height="64"
   viewBox="0 0 16.933333 16.933334"
   version="1.1"
   id="svg5"
   inkscape:version="1.1.2 (0a00cf5339, 2022-02-04, custom)"
   sodipodi:docname="sound-recorder.svg"
   xmlns:inkscape="http://www.inkscape.org/namespaces/inkscape"
   xmlns:sodipodi="http://sodipodi.sourceforge.net/DTD/sodipodi-0.dtd"
   xmlns="http://www.w3.org/2000/svg"
   xmlns:svg="http://www.w3.org/2000/svg">
  <sodipodi:namedview
     id="namedview7"
     pagecolor="#ffffff"
     bordercolor="#666666"
     borderopacity="1.0"
     inkscape:pageshadow="2"
     inkscape:pageopacity="0.0"
     inkscape:pagecheckerboard="0"
     inkscape:document-units="px"
     showgrid="false"
     units="px"
     height="64px"
     inkscape:zoom="12.59375"
     inkscape:cx="31.960298"
     inkscape:cy="32"
     inkscape:window-width="1851"
     inkscape:window-height="1009"
     inkscape:window-x="69"
     inkscape:window-y="31"
     inkscape:window-maximized="1"
     inkscape:current-layer="svg5" />
  <defs
     id="defs2" />
  <circle
     style="opacity:0.6;fill:#b21515;fill-opacity:1;stroke-width:0.529167;stroke-linecap:round;stroke-linejoin:round"
     id="path2045"
     cx="8.4666662"
     cy="8.4666662"
     r="7.4083333" />
  <circle
     style="opacity:1;fill:#ececec;fill-opacity:1;stroke-width:0.502554;stroke-linejoin:round"
     id="path24384"
     cx="8.4666662"
     cy="8.4666662"
     r="7.1437502" />
  <path
     style="color:#000000;opacity:0.35;fill:#ff5a5a;fill-opacity:0.93699998;stroke-width:1.00002;-inkscape-stroke:none"
     d="m 1.2306069,7.4478254 -0.027344,0.1289025 c 0.7281558,0.1573631 1.4020394,0.6235024 2.0117583,2.0195794 0.7061813,1.6177117 1.7179234,2.3529667 2.9356047,2.4101977 0.7885245,0.0373 1.4993666,-0.289186 2.1113698,-0.773455 0.612003,-0.48426 1.1286644,-1.127253 1.5390928,-1.7324537 0.820868,-1.210294 1.973982,-1.755605 3.091858,-1.8867576 1.117876,-0.1311426 2.200473,0.1575231 2.857478,0.6054816 l 0.07422,-0.109372 C 15.133963,7.6390292 14.026871,7.3481134 12.877321,7.4829761 11.727772,7.6178487 10.534551,8.1836903 9.6917118,9.4263743 9.2858639,10.024826 8.7757583,10.658098 8.1799632,11.129538 7.5841682,11.600977 6.9069233,11.909093 6.158439,11.873692 4.9896027,11.818791 4.0298607,11.132788 3.3361178,9.5435663 2.7162296,8.1242083 1.9958428,7.6131887 1.2306069,7.4478254 Z"
     id="path15" />
  <path
     style="color:#000000;opacity:0.35;fill:#ff5a5a;fill-opacity:0.93699998;stroke-width:1.00002;-inkscape-stroke:none"
     d="M 14.641027,7.1079687 C 13.537842,7.3559936 12.768206,8.3497233 12.215198,9.3248123 11.436704,10.795981 9.9280446,11.426363 8.4084826,11.524075 7.1400664,11.605077 6.2980284,11.205219 5.6721006,10.639288 5.0461729,10.073367 4.6405005,9.3370623 4.2638698,8.7408213 3.8456238,8.0783578 3.3116211,7.7595815 2.7677465,7.6587696 2.223872,7.5579476 1.6712861,7.6712698 1.1993563,7.8560334 l 0.048829,0.1230525 C 1.7045672,7.8004523 2.233769,7.6930302 2.7443084,7.7876721 c 0.5105393,0.094602 1.0046127,0.3872572 1.4062777,1.0234602 0.3731803,0.590782 0.7865845,1.3427557 1.433622,1.9277677 0.6470375,0.585011 1.5322448,0.99908 2.832087,0.916038 1.5493959,-0.0996 3.1095169,-0.747805 3.9141399,-2.2656747 0.546016,-0.962759 1.295955,-1.9181174 2.337937,-2.1523821 0.389429,-0.083102 0.654086,-0.072901 0.976581,0.054701 l 0.04687,-0.1230524 C 15.348005,7.0325072 15.045415,7.021687 14.641022,7.1080287 Z"
     id="path17" />
  <path
     style="color:#000000;opacity:0.35;fill:#ff5a5a;fill-opacity:0.93699998;stroke-width:1.00002;-inkscape-stroke:none"
     d="m 15.771908,8.3345633 c -0.298958,0.0792 -0.527584,0.220844 -0.738295,0.425788 -0.210711,0.204944 -0.405812,0.471699 -0.65431,0.810556 C 13.699429,10.497635 12.993504,10.973855 12.158556,11.065086 8.9422337,11.418783 7.2713607,9.9067643 5.8947612,9.5045063 4.3596433,9.0566073 2.4835381,9.5926063 1.4884245,10.059207 l 0.056642,0.119142 c 0.9720913,-0.4558287 2.832881,-0.9786187 4.3125849,-0.5468907 1.3173199,0.3849377 3.0526162,1.9231977 6.3145765,1.5644807 0.876533,-0.0958 1.619498,-0.602222 2.312546,-1.5469007 0.248435,-0.338776 0.443793,-0.601581 0.642591,-0.794935 0.198798,-0.193354 0.399892,-0.318946 0.677748,-0.392588 z"
     id="path19" />
  <path
     id="rect2171"
     style="opacity:1;fill:#ed6262;fill-opacity:1;stroke-width:0.489913;stroke-linecap:round;stroke-linejoin:round"
     d="m 8.4666669,4.2333334 c -1.0260542,0 -1.8520834,0.8260292 -1.8520834,1.8520834 v 2.6458334 c 0,1.0260545 0.8260292,1.8520838 1.8520834,1.8520838 1.0260542,0 1.8520831,-0.8260293 1.8520831,-1.8520838 V 6.0854168 c 0,-1.0260542 -0.8260289,-1.8520834 -1.8520831,-1.8520834 z M 5.3107872,8.7312502 c 0.1298927,1.5533528 1.3635022,2.7681758 2.8912963,2.8985318 v 0.541052 H 6.8791668 c -0.1465791,0 -0.2645833,0.118004 -0.2645833,0.264583 0,0.146579 0.1180042,0.264584 0.2645833,0.264584 h 3.1750002 c 0.146579,0 0.264583,-0.118005 0.264583,-0.264584 0,-0.146579 -0.118004,-0.264583 -0.264583,-0.264583 H 8.7312502 V 11.629782 C 10.259045,11.49942 11.492654,10.284603 11.622547,8.7312502 H 11.041704 C 10.918855,10.077058 9.792226,11.108498 8.4408287,11.112501 7.0894315,11.108498 5.9628028,10.077058 5.8399539,8.7312502 Z" />
</svg>
