<?xml version="1.0" encoding="UTF-8" standalone="no"?>
<!-- Created with Inkscape (http://www.inkscape.org/) -->

<svg
   width="64"
   height="64"
   viewBox="0 0 16.933333 16.933334"
   version="1.1"
   id="svg5"
   inkscape:version="1.1.2 (0a00cf5339, 2022-02-04, custom)"
   sodipodi:docname="spotify.svg"
   xmlns:inkscape="http://www.inkscape.org/namespaces/inkscape"
   xmlns:sodipodi="http://sodipodi.sourceforge.net/DTD/sodipodi-0.dtd"
   xmlns="http://www.w3.org/2000/svg"
   xmlns:svg="http://www.w3.org/2000/svg">
  <sodipodi:namedview
     id="namedview7"
     pagecolor="#ffffff"
     bordercolor="#666666"
     borderopacity="1.0"
     inkscape:pageshadow="2"
     inkscape:pageopacity="0.0"
     inkscape:pagecheckerboard="0"
     inkscape:document-units="px"
     showgrid="false"
     units="px"
     height="64px"
     inkscape:zoom="9.0708542"
     inkscape:cx="23.977896"
     inkscape:cy="36.270013"
     inkscape:window-width="1920"
     inkscape:window-height="1019"
     inkscape:window-x="0"
     inkscape:window-y="31"
     inkscape:window-maximized="1"
     inkscape:current-layer="svg5"
     showguides="false" />
  <defs
     id="defs2" />
  <circle
     style="fill:#00c853;stroke-width:0.529167;stroke-linecap:round;stroke-linejoin:round;fill-opacity:1"
     id="path1150"
     cx="8.4666672"
     cy="8.4666672"
     r="7.1437502" />
  <circle
     style="opacity:1;fill:#14df68;fill-opacity:1;stroke-width:0.483941;stroke-linejoin:round"
     id="path24384"
     cx="8.4666662"
     cy="8.4666662"
     r="6.8791666" />
  <path
     d="m 11.78606,12.003854 c 0.207632,-0.129572 0.257564,-0.434857 0.108085,-0.663033 -0.0809,-0.123251 -1.009085,-0.592241 -1.569092,-0.792605 -1.09979,-0.393457 -2.2393975,-0.5521054 -3.2886198,-0.458243 -0.8020853,0.07205 -1.9195702,0.320139 -2.3316734,0.517658 -0.3090786,0.148534 -0.3896667,0.48163 -0.175082,0.725606 0.1772941,0.20226 0.2777913,0.207948 0.7945018,0.04614 1.9179899,-0.600458 3.7241056,-0.473097 5.4452084,0.383662 0.744253,0.370388 0.791025,0.381449 1.016672,0.240815 z M 12.609004,9.9645076 C 12.8258,9.7654086 12.858668,9.418407 12.680104,9.2161473 12.459838,8.966167 10.719139,8.3037664 9.7470287,8.0999266 8.1630831,7.7680944 6.4590461,7.8164471 4.8096812,8.2405602 4.2774859,8.3774016 4.150441,8.444084 4.0502604,8.6397071 3.9582999,8.8185807 3.9551346,8.9525777 4.0382562,9.1286069 4.1671967,9.4003932 4.4630014,9.4831933 4.8637275,9.3599413 5.2217904,9.2493308 5.9296995,9.1086969 6.4448298,9.0451748 7.0329622,8.9728028 8.1450744,8.9630068 8.6583079,9.0262128 9.696785,9.1538891 10.831968,9.4876175 11.796493,9.9483906 c 0.401043,0.1915144 0.617208,0.1959394 0.812515,0.01643 z m 0.561585,-2.0927552 c 0.150116,-0.090069 0.285061,-0.3289879 0.285061,-0.5040689 0,-0.175397 -0.08975,-0.3643834 -0.22849,-0.4813148 C 12.965486,6.6664114 11.54556,6.1436966 10.56302,5.9057255 9.402239,5.6244582 8.4769013,5.5280688 7.2731403,5.5631482 5.8320404,5.6051807 4.2108036,5.8886598 3.9121549,6.1509654 3.5629405,6.4575151 3.6700752,7.0222619 4.109358,7.1900743 4.2800146,7.2551764 4.2964478,7.254228 4.7123446,7.1553111 5.3056227,7.0165276 5.9070648,6.9153023 6.5130864,6.8522374 c 0.6162604,-0.062575 2.2036825,-0.028443 2.7355626,0.058149 0.942087,0.1539069 1.980564,0.4456032 2.776962,0.7802798 0.788812,0.3312001 0.872244,0.3444734 1.144978,0.1810862 z"
     style="fill:#263238;stroke-width:0.31603"
     id="path856" />
</svg>
