<?xml version="1.0" encoding="UTF-8" standalone="no"?>
<!-- Created with Inkscape (http://www.inkscape.org/) -->

<svg
   width="64"
   height="64"
   viewBox="0 0 16.933333 16.933334"
   version="1.1"
   id="svg5"
   inkscape:version="1.1.2 (0a00cf5339, 2022-02-04, custom)"
   sodipodi:docname="steam.svg"
   xmlns:inkscape="http://www.inkscape.org/namespaces/inkscape"
   xmlns:sodipodi="http://sodipodi.sourceforge.net/DTD/sodipodi-0.dtd"
   xmlns="http://www.w3.org/2000/svg"
   xmlns:svg="http://www.w3.org/2000/svg">
  <sodipodi:namedview
     id="namedview7"
     pagecolor="#ffffff"
     bordercolor="#666666"
     borderopacity="1.0"
     inkscape:pageshadow="2"
     inkscape:pageopacity="0.0"
     inkscape:pagecheckerboard="0"
     inkscape:document-units="px"
     showgrid="false"
     units="px"
     height="64px"
     inkscape:zoom="10.139406"
     inkscape:cx="29.636845"
     inkscape:cy="33.927037"
     inkscape:window-width="1920"
     inkscape:window-height="1019"
     inkscape:window-x="0"
     inkscape:window-y="31"
     inkscape:window-maximized="1"
     inkscape:current-layer="svg5" />
  <defs
     id="defs2" />
  <circle
     style="opacity:1;fill:#2a5b9e;stroke-width:0.529167;stroke-linecap:round;stroke-linejoin:round;fill-opacity:1"
     id="path1252"
     cx="8.4666662"
     cy="8.4666662"
     r="7.2760415" />
  <path
     id="path8"
     style="fill:#ffffff;stroke-width:0.999999;stroke:none"
     d="M 40 15 A 11 11 0 0 0 29 26 A 11 11 0 0 0 29.017578 26.238281 L 23.755859 35.005859 A 8.5000002 8.5000002 0 0 0 23.5 35 A 8.5000002 8.5000002 0 0 0 17.837891 37.171875 L 4.5253906 31.289062 A 27.499999 27.499999 0 0 0 4.5 32 A 27.499999 27.499999 0 0 0 5.5292969 39.384766 L 15.005859 43.572266 A 8.5000002 8.5000002 0 0 0 23.5 52 A 8.5000002 8.5000002 0 0 0 32 43.5 A 8.5000002 8.5000002 0 0 0 31.972656 42.845703 L 41.375 36.902344 A 11 11 0 0 0 51 26 A 11 11 0 0 0 40 15 z M 40 19 A 7.0000002 7.0000002 0 0 1 47 26 A 7.0000002 7.0000002 0 0 1 40 33 A 7.0000002 7.0000002 0 0 1 33 26 A 7.0000002 7.0000002 0 0 1 40 19 z M 40 21 A 5.0000001 5.0000001 0 0 0 35 26 A 5.0000001 5.0000001 0 0 0 40 31 A 5.0000001 5.0000001 0 0 0 45 26 A 5.0000001 5.0000001 0 0 0 40 21 z M 23.5 38 A 5.5000002 5.5000002 0 0 1 29 43.5 A 5.5000002 5.5000002 0 0 1 23.5 49 A 5.5000002 5.5000002 0 0 1 18.228516 44.996094 L 22.085938 46.701172 A 3.50035 3.50035 0 1 0 24.914062 40.298828 L 21.056641 38.59375 A 5.5000002 5.5000002 0 0 1 23.5 38 z "
     transform="scale(0.26458334)" />
  <path
     id="path7088"
     style="opacity:0.2;fill:#000000;fill-opacity:1;stroke-width:2;stroke-linejoin:round"
     d="M 32 4 A 28 28 0 0 0 4 32 A 28 28 0 0 0 32 60 A 28 28 0 0 0 60 32 A 28 28 0 0 0 32 4 z M 32 5 A 27 27 0 0 1 59 32 A 27 27 0 0 1 32 59 A 27 27 0 0 1 5 32 A 27 27 0 0 1 32 5 z "
     transform="scale(0.26458334)" />
</svg>
