<?xml version="1.0" encoding="UTF-8" standalone="no"?>
<!-- Created with Inkscape (http://www.inkscape.org/) -->

<svg
   width="64"
   height="64"
   viewBox="0 0 16.933333 16.933334"
   version="1.1"
   id="svg5"
   inkscape:version="1.1.2 (0a00cf5339, 2022-02-04, custom)"
   sodipodi:docname="system-users.svg"
   xmlns:inkscape="http://www.inkscape.org/namespaces/inkscape"
   xmlns:sodipodi="http://sodipodi.sourceforge.net/DTD/sodipodi-0.dtd"
   xmlns="http://www.w3.org/2000/svg"
   xmlns:svg="http://www.w3.org/2000/svg">
  <sodipodi:namedview
     id="namedview7"
     pagecolor="#ffffff"
     bordercolor="#666666"
     borderopacity="1.0"
     inkscape:pageshadow="2"
     inkscape:pageopacity="0.0"
     inkscape:pagecheckerboard="0"
     inkscape:document-units="px"
     showgrid="false"
     units="px"
     height="64px"
     inkscape:zoom="1"
     inkscape:cx="32.5"
     inkscape:cy="31.5"
     inkscape:window-width="1920"
     inkscape:window-height="1019"
     inkscape:window-x="0"
     inkscape:window-y="31"
     inkscape:window-maximized="1"
     inkscape:current-layer="svg5"
     showguides="false" />
  <defs
     id="defs2" />
  <path
     d="m 3.915073,7.6811744 c 0.06644,0.394282 0.0867,0.748718 0.0124,1.18237 -0.769938,0.638969 -2.739761,0.926042 -2.73685,1.5874996 l -0.26458399,1.984375 c 0,0.65749 1.83620899,1.190625 4.10104199,1.190625 2.264833,0 4.101042,-0.533135 4.101042,-1.190625 L 8.86354,10.451044 C 8.86034,9.8848364 6.879165,9.5250024 6.118488,8.8635444 c -0.04573,-0.375523 -0.03158,-0.743294 0.0186,-1.114134 -0.294375,0.355891 -0.58084,0.68662 -0.58084,0.753454 -0.264583,0.128058 -0.669395,0.128058 -0.926041,0 -0.0059,-0.07114 -0.367612,-0.440346 -0.715196,-0.821664 z"
     style="color:#000000;opacity:0.5;fill:#ececec;stroke-width:0.264583;-inkscape-stroke:none"
     id="path1588" />
  <path
     id="path1332"
     style="color:#000000;opacity:0.5;fill:#a8a8a8;stroke-width:0.264583;-inkscape-stroke:none"
     d="m 5.999667,8.1235904 c -0.01544,0.250663 -0.04361,0.499746 -0.0124,0.756027 l 0.0062,0.05064 0.03824,0.03307 c 0.414289,0.360252 1.105338,0.610046 1.69292,0.852145 0.293792,0.121049 0.561466,0.2389366 0.745691,0.3539826 0.09211,0.05752 0.162655,0.114208 0.205155,0.163815 0.0425,0.04961 0.05563,0.0861 0.05581,0.118339 v 0.0088 l 0.26355,1.976623 c -6.35e-4,0.102524 -0.07587,0.223778 -0.264067,0.352951 -0.188994,0.129717 -0.478348,0.254961 -0.840775,0.360184 -0.724859,0.210449 -1.740841,0.343649 -2.862877,0.343649 -1.122035,0 -2.138019,-0.133201 -2.862874,-0.343648 -0.362427,-0.105223 -0.652298,-0.230467 -0.841292,-0.360185 -0.1882,-0.129171 -0.262914,-0.250427 -0.26355,-0.35295 l 0.26355,-1.977657 v -0.0088 c -4.4e-4,-0.09966 0.07846,-0.207173 0.258899,-0.326595 C 1.762286,10.004559 2.02655,9.8877204 2.318236,9.7715484 2.901607,9.5392034 3.592049,9.3140694 4.012189,8.9653954 l 0.03721,-0.03152 0.0083,-0.04806 c 0.0542,-0.316336 0.01695,-0.58543 -0.0083,-0.863513 L 3.785333,7.7349814 c 0.05769,0.354164 0.06975,0.673271 0.01137,1.052649 -0.35868,0.277702 -1.002477,0.509776 -1.576648,0.738456 -0.29665,0.118149 -0.572304,0.236831 -0.784449,0.377238 C 1.223462,10.04373 1.057352,10.220545 1.058368,10.451611 l 0.001,-0.01809 -0.26561799,1.99316 v 0.0088 c 0,0.225949 0.153752,0.417411 0.37982199,0.572575 0.22607,0.155164 0.537011,0.286112 0.91674,0.396358 0.759456,0.220493 1.793975,0.353984 2.936771,0.353984 1.142796,0 2.177316,-0.133491 2.936772,-0.353984 0.379729,-0.110246 0.69067,-0.241194 0.91674,-0.396358 0.226103,-0.155173 0.379855,-0.346635 0.379855,-0.572584 v -0.0088 l -0.265617,-1.993161 10e-4,0.01654 C 8.995224,10.340742 8.945883,10.242211 8.87646,10.16118 8.80704,10.08015 8.716283,10.011342 8.610326,9.9451734 8.398412,9.8128344 8.122351,9.6928864 7.825361,9.5705194 7.2502,9.3335384 6.606244,9.0799434 6.25078,8.7907214 6.21469,8.4483604 6.22186,8.1105314 6.26835,7.7670114 Z"
     sodipodi:nodetypes="ccccssscccssssscccssccccccsscccssssssscccsssccc" />
  <path
     d="m 5.027116,3.3073474 c -1.095904,0 -1.984375,0.802481 -1.984375,1.792552 0.0085,0.366183 0.04101,0.801687 0.264584,1.792287 0.132291,0.384175 1.312333,1.482725 1.322916,1.610784 0.256646,0.128058 0.661459,0.128058 0.926042,0 0,-0.128059 1.058333,-1.226609 1.190625,-1.610784 0.251619,-1.029758 0.25109,-1.408377 0.264584,-1.792287 0,-0.990071 -0.888471,-1.792552 -1.984376,-1.792552 z"
     style="color:#000000;opacity:0.5;fill:#f2f2f2;stroke-width:0.264583;-inkscape-stroke:none"
     id="path1350" />
  <path
     style="color:#000000;opacity:0.5;fill:#bdbdbd;stroke-width:0.264583;-inkscape-stroke:none"
     d="m 5.027116,3.1750554 c -1.160484,0 -2.116666,0.855734 -2.116666,1.924947 v 0.0016 0.0016 c 0.0086,0.371592 0.04289,0.821945 0.267684,1.817977 l 0.0016,0.0072 0.0026,0.0067 c 0.04647,0.134938 0.150951,0.273012 0.283703,0.436149 0.132753,0.163138 0.294016,0.342039 0.451136,0.512114 0.157119,0.170074 0.309958,0.331468 0.422196,0.456302 0.05612,0.06242 0.10243,0.116187 0.132292,0.154513 0.01399,0.01796 0.02312,0.03187 0.02842,0.04031 l 0.0047,0.05374 0.06666,0.03307 c 0.306375,0.152871 0.730619,0.152144 1.042831,10e-4 l 0.07439,-0.03619 v -0.06201 c 0.0043,-0.008 0.01124,-0.02025 0.02274,-0.03721 0.02557,-0.03769 0.06614,-0.09075 0.115755,-0.152963 0.09923,-0.124424 0.235668,-0.285857 0.376722,-0.455786 0.141054,-0.169928 0.28707,-0.348757 0.407727,-0.511596 0.120656,-0.16284 0.216016,-0.302464 0.260449,-0.431499 l 0.0021,-0.0057 0.0016,-0.0057 c 0.253395,-1.037065 0.25481,-1.438276 0.268192,-1.819013 v -0.0026 -0.0021 c 0,-1.069208 -0.956183,-1.924942 -2.116667,-1.924942 z m 0,0.264583 c 1.030929,0 1.851457,0.748876 1.852084,1.659331 -0.01343,0.384408 -0.01304,0.742419 -0.259416,1.753381 -0.02265,0.06387 -0.107198,0.203259 -0.221175,0.357084 -0.114988,0.15519 -0.25836,0.330974 -0.398425,0.499711 -0.140066,0.168738 -0.276482,0.329828 -0.379822,0.459404 -0.05167,0.06479 -0.09481,0.121621 -0.127641,0.170015 -0.01253,0.01847 -0.02279,0.0354 -0.03256,0.05271 -0.211559,0.08672 -0.536354,0.08596 -0.73794,-5.29e-4 -0.0124,-0.01946 -0.02551,-0.03844 -0.04186,-0.05943 -0.03721,-0.04775 -0.08611,-0.10387 -0.144178,-0.168453 C 4.420053,8.0336974 4.267153,7.8725684 4.111403,7.7039764 3.955653,7.5353844 3.797162,7.3591564 3.67112,7.2042654 3.546513,7.0511374 3.456056,6.9118104 3.434959,6.8533824 3.216228,5.8811014 3.183881,5.4574464 3.175543,5.0989674 3.17624,4.1885654 3.996225,3.4396364 5.027109,3.4396364 Z"
     id="path1338" />
  <path
     d="m 9.008567,7.2760974 c 0.161395,0.767821 0.251089,1.348846 0.120385,2.116667 -1.018646,0.8519576 -3.623469,1.2348096 -3.6195,2.1166656 l -0.350044,2.645834 c 0,0.876829 2.428346,1.5875 5.423959,1.5875 2.995612,0 5.423958,-0.710671 5.423958,-1.5875 L 15.657281,11.50943 c -0.004,-0.754856 -2.624402,-1.23481 -3.630348,-2.1166656 -0.08599,-0.712788 -0.01773,-1.40388 0.131234,-2.116667 z"
     style="color:#000000;fill:#ececec;stroke:none;stroke-width:0.264583;-inkscape-stroke:none"
     id="path1028" />
  <path
     style="color:#000000;fill:#a8a8a8;stroke:none;stroke-width:0.264583;-inkscape-stroke:none"
     d="m 8.845488,7.1438054 0.03359,0.15968 C 9.035456,8.0474364 9.11385,8.5982644 9.001034,9.3157664 8.519059,9.7000294 7.652008,10.009821 6.886435,10.317255 6.494921,10.474476 6.131948,10.632647 5.856523,10.816449 5.581099,11.000251 5.37568,11.224315 5.376966,11.509947 l 0.0016,-0.01809 -0.351411,2.654619 v 0.0088 c 0,0.28027 0.190166,0.523807 0.483175,0.72657 0.29301,0.202763 0.70097,0.376782 1.200444,0.522966 0.998948,0.292367 2.364365,0.470255 3.872632,0.470255 1.508266,0 2.873683,-0.177888 3.872632,-0.470255 0.499474,-0.146184 0.907434,-0.320203 1.200443,-0.522966 0.293009,-0.202763 0.483175,-0.4463 0.483175,-0.72657 v -0.0088 l -0.3514,-2.654619 0.0016,0.01705 C 15.789168,11.376318 15.729446,11.255179 15.642062,11.152339 15.554682,11.0495 15.438383,10.95908 15.30048,10.872253 15.024676,10.698598 14.660782,10.539632 14.268502,10.376676 13.501669,10.058128 12.634815,9.7179474 12.15752,9.3188594 12.0842,8.6448854 12.14475,7.9871914 12.287744,7.3029614 l 0.03306,-0.159163 z m 0.31781,0.264584 h 2.842204 c -0.128247,0.666407 -0.19175,1.323337 -0.110071,2.000394 l 0.0062,0.05013 0.03824,0.03359 c 0.536845,0.470621 1.449122,0.8053706 2.227255,1.1286126 0.389066,0.161621 0.744109,0.318709 0.992187,0.474907 0.124039,0.0781 0.220507,0.156039 0.28112,0.227376 0.06061,0.07134 0.08445,0.130427 0.08475,0.186552 v 0.0088 l 0.348816,2.639116 c -0.0012,0.157474 -0.113371,0.330269 -0.367936,0.506429 -0.255918,0.177095 -0.642416,0.345704 -1.124479,0.486792 -0.964127,0.282176 -2.310875,0.459404 -3.798218,0.459404 -1.487344,0 -2.834092,-0.177228 -3.798218,-0.459403 C 6.303085,15.010001 5.916586,14.841392 5.660668,14.664297 5.406104,14.488137 5.293925,14.315342 5.292732,14.157868 l 0.348816,-2.640149 v -0.0088 C 5.64086,11.353623 5.759587,11.199225 6.003283,11.036597 6.246979,10.873969 6.59861,10.717942 6.985136,10.562724 7.758187,10.252287 8.669531,9.9493794 9.21394,9.4940554 l 0.03721,-0.03101 0.0083,-0.04806 C 9.383737,8.6848614 9.30321,8.1016334 9.16333,7.4083894 Z"
     id="path862" />
  <path
     d="m 10.583367,1.9844304 c -1.534319,0 -2.778125,1.098815 -2.778125,2.454275 0.01191,0.50165 0.05715,1.097492 0.370416,2.454275 0.185209,0.525992 1.837267,1.928284 1.852084,2.103702 0.359304,0.175419 0.926041,0.175419 1.296458,0 0,-0.175418 1.481667,-1.57771 1.666875,-2.103437 0.352425,-1.410229 0.351631,-1.928813 0.370417,-2.45454 0,-1.35546 -1.243807,-2.454275 -2.778125,-2.454275 z"
     style="color:#000000;fill:#f2f2f2;stroke:none;stroke-width:0.264583;-inkscape-stroke:none"
     id="path908" />
  <path
     style="color:#000000;fill:#bdbdbd;stroke:none;stroke-width:0.264583;-inkscape-stroke:none"
     d="m 10.583367,1.8521384 c -1.597479,0 -2.910417,1.150017 -2.910417,2.586406 v 0.0016 0.0016 c 0.01204,0.507113 0.05907,1.118652 0.37362,2.480986 l 0.0021,0.0072 0.0021,0.0072 c 0.06065,0.172244 0.205701,0.355882 0.390674,0.568441 0.184973,0.212558 0.410643,0.444117 0.630452,0.664042 0.21981,0.219925 0.433992,0.428525 0.591695,0.590662 0.07885,0.08107 0.143706,0.150807 0.186552,0.202054 0.02142,0.02562 0.03735,0.04687 0.04548,0.05943 0.0081,0.01256 0.0036,0.02276 5.29e-4,-0.01395 l 0.0062,0.07493 0.06718,0.03307 c 0.408588,0.199479 0.993693,0.198275 1.411284,5.29e-4 l 0.07596,-0.03566 v -0.08372 c 0,0.03559 -0.0059,0.02775 5.29e-4,0.01602 0.0064,-0.01173 0.01933,-0.03209 0.03772,-0.05736 0.03679,-0.05055 0.09406,-0.120175 0.163814,-0.201021 0.13951,-0.161694 0.330231,-0.36985 0.527617,-0.589629 0.197385,-0.219778 0.401766,-0.451259 0.569991,-0.663525 0.168224,-0.212266 0.301122,-0.39812 0.359668,-0.564307 l 0.0021,-0.0057 0.0016,-0.0062 c 0.354258,-1.417708 0.355441,-1.959562 0.37411,-2.482053 v -0.0021 -0.0026 c 0,-1.436383 -1.312938,-2.5864 -2.910416,-2.5864 z m 0,0.264584 c 1.470755,0 2.645193,1.04673 2.645833,2.320788 -0.01872,0.526153 -0.01766,1.024108 -0.364319,2.414323 -0.03478,0.0971 -0.155418,0.282292 -0.31626,0.485242 -0.161677,0.204006 -0.36244,0.432169 -0.558622,0.650606 -0.196182,0.218438 -0.387661,0.426761 -0.53175,0.593763 -0.07205,0.0835 -0.131773,0.156303 -0.176734,0.218074 -0.02208,0.03033 -0.04056,0.05797 -0.05581,0.08578 -0.316611,0.133044 -0.802596,0.132223 -1.105359,-10e-4 -10e-4,-0.0016 -0.0015,-0.0046 -0.0026,-0.0062 -0.0178,-0.02751 -0.03907,-0.05473 -0.0646,-0.08527 C 10.002086,8.7317584 9.934165,8.6590714 9.853158,8.5757874 9.691146,8.4092214 9.477604,8.2013824 9.259396,7.9830594 9.041197,7.7647344 8.818179,7.5357224 8.640838,7.3319344 8.46449,7.1292864 8.335236,6.9431894 8.302358,6.8518604 7.994037,5.5136174 7.949344,4.9323574 7.937522,4.4385714 v -10e-4 c 6.4e-4,-1.27406 1.175079,-2.32079 2.645834,-2.32079 z"
     id="path856" />
</svg>
