<?xml version="1.0" encoding="UTF-8" standalone="no"?>
<!-- Created with Inkscape (http://www.inkscape.org/) -->

<svg
   width="64"
   height="64"
   viewBox="0 0 16.933333 16.933334"
   version="1.1"
   id="svg5"
   inkscape:version="1.1.2 (0a00cf5339, 2022-02-04, custom)"
   sodipodi:docname="system-file-manager.svg"
   xmlns:inkscape="http://www.inkscape.org/namespaces/inkscape"
   xmlns:sodipodi="http://sodipodi.sourceforge.net/DTD/sodipodi-0.dtd"
   xmlns="http://www.w3.org/2000/svg"
   xmlns:svg="http://www.w3.org/2000/svg">
  <sodipodi:namedview
     id="namedview7"
     pagecolor="#ffffff"
     bordercolor="#666666"
     borderopacity="1.0"
     inkscape:pageshadow="2"
     inkscape:pageopacity="0.0"
     inkscape:pagecheckerboard="0"
     inkscape:document-units="px"
     showgrid="false"
     units="px"
     height="64px"
     inkscape:zoom="13.15625"
     inkscape:cx="31.961995"
     inkscape:cy="32"
     inkscape:window-width="1920"
     inkscape:window-height="1019"
     inkscape:window-x="0"
     inkscape:window-y="31"
     inkscape:window-maximized="1"
     inkscape:current-layer="svg5" />
  <defs
     id="defs2" />
  <path
     style="color:#000000;fill:#000000;stroke-linejoin:round;-inkscape-stroke:none;opacity:0.3"
     d="m 2.3813803,2.1166667 c -0.2885816,0 -0.5292969,0.2407153 -0.5292969,0.5292969 v 6.8789062 c 0,0.2885816 0.2407155,0.5292972 0.5292969,0.5292972 H 14.552018 c 0.288582,-10e-7 0.529297,-0.2407158 0.529297,-0.5292972 V 3.7045573 c 0,-0.2885813 -0.240715,-0.5292968 -0.529297,-0.5292968 H 7.5356771 l -0.4492187,-0.5625 c -0.00129,-0.00132 -0.00259,-0.00262 -0.00391,-0.00391 C 6.9938316,2.5027175 6.9334628,2.4013951 6.8247396,2.2983073 6.7160165,2.1952196 6.5380954,2.1168769 6.3501303,2.1166667 Z"
     id="path3420"
     sodipodi:nodetypes="sssscssscccscs" />
  <path
     style="color:#000000;fill:#ffffff;stroke-width:0.529167;stroke-linejoin:round;-inkscape-stroke:none"
     d="m 2.3812501,2.3812501 c -0.1465791,0 -0.2645833,0.1180042 -0.2645833,0.2645834 v 6.8791668 c 0,0.146579 0.1180042,0.264583 0.2645833,0.264583 H 14.552083 c 0.146579,0 0.264583,-0.118004 0.264583,-0.264583 V 3.7041668 c 0,-0.1465792 -0.118004,-0.2645834 -0.264583,-0.2645834 H 7.4083334 L 6.8791667,2.778125 C 6.6804771,2.5404319 6.6235123,2.3815559 6.3500001,2.3812501 Z"
     id="path3418" />
  <path
     style="color:#000000;opacity:0.55;fill:#003579;fill-opacity:1;stroke:none;stroke-linejoin:round;-inkscape-stroke:none"
     d="m 8.4657553,5.0270833 c -0.2356556,0 -0.4462946,0.1222548 -0.5507813,0.2675781 -0.1044867,0.1453234 -0.1435947,0.2790373 -0.2089844,0.4003906 -0.00135,0.00258 -0.00265,0.00519 -0.00391,0.00781 L 7.5106771,6.085677 H 1.8522136 c -0.00651,-2.404e-4 -0.013023,-2.404e-4 -0.019531,0 -0.262967,0.020228 -0.5097659,0.2401959 -0.5097659,0.5292969 v 7.9370441 c 0,0.288582 0.2407144,0.529297 0.5292969,0.529297 H 15.081249 c 0.288582,0 0.529297,-0.240715 0.529297,-0.529297 V 5.5563802 c 0,-0.2885813 -0.240716,-0.5292969 -0.529297,-0.5292969 H 8.4677084 c -6.5e-4,-2.4e-6 -0.0013,0 -0.00195,0 z"
     id="path1470"
     sodipodi:nodetypes="sscccccssssssscss" />
  <path
     style="color:#000000;fill:#6ba4e9;fill-opacity:1;stroke:none;stroke-width:0.529167;stroke-linejoin:round;-inkscape-stroke:none"
     d="M 1.8520834,6.3500002 H 7.6729167 L 7.9375001,5.8208333 C 8.0921218,5.5338788 8.1157904,5.2941449 8.4666667,5.2916669 h 6.6145823 c 0.14658,0 0.264584,0.1180042 0.264584,0.2645833 v 8.9958328 c 0,0.146579 -0.118004,0.264584 -0.264584,0.264584 H 1.8520834 c -0.1465792,0 -0.2645833,-0.118005 -0.2645833,-0.264584 V 6.6145835 c 0,-0.1465791 0.1184359,-0.2533411 0.2645833,-0.2645833 z"
     id="path1468"
     sodipodi:nodetypes="ccccsssssssc" />
  <path
     id="rect2547"
     style="opacity:0.2;fill:#000000;fill-opacity:1;stroke-width:0.220486;stroke-linecap:round;stroke-linejoin:round"
     d="m 9.9218745,6.0854167 h 3.1749995 c 0.366447,0 0.661458,0.2950104 0.661458,0.6614583 0,0.366448 -0.295011,0.6614584 -0.661458,0.6614584 H 9.9218745 c -0.3664473,0 -0.6614577,-0.2950104 -0.6614577,-0.6614584 0,-0.3664479 0.2950104,-0.6614583 0.6614577,-0.6614583 z"
     sodipodi:nodetypes="sssssss" />
  <path
     id="rect2197"
     style="opacity:1;fill:#f2f2f2;stroke-width:0.198437;stroke-linecap:round;stroke-linejoin:round"
     d="m 9.9218745,6.35 h 3.1749995 c 0.219869,0 0.396875,0.1770063 0.396875,0.396875 0,0.2198688 -0.177006,0.396875 -0.396875,0.396875 H 9.9218745 C 9.7020064,7.14375 9.5250001,6.9667438 9.5250001,6.746875 9.5250001,6.5270063 9.7020064,6.35 9.9218745,6.35 Z"
     sodipodi:nodetypes="sssssss" />
</svg>
