<?xml version="1.0" encoding="UTF-8" standalone="no"?>
<!-- Created with Inkscape (http://www.inkscape.org/) -->

<svg
   width="64"
   height="64"
   viewBox="0 0 16.933333 16.933334"
   version="1.1"
   id="svg5"
   inkscape:version="1.1.2 (0a00cf5339, 2022-02-04, custom)"
   sodipodi:docname="system-software-install.svg"
   xmlns:inkscape="http://www.inkscape.org/namespaces/inkscape"
   xmlns:sodipodi="http://sodipodi.sourceforge.net/DTD/sodipodi-0.dtd"
   xmlns="http://www.w3.org/2000/svg"
   xmlns:svg="http://www.w3.org/2000/svg">
  <sodipodi:namedview
     id="namedview7"
     pagecolor="#ffffff"
     bordercolor="#666666"
     borderopacity="1.0"
     inkscape:pageshadow="2"
     inkscape:pageopacity="0.0"
     inkscape:pagecheckerboard="0"
     inkscape:document-units="px"
     showgrid="false"
     units="px"
     height="64px"
     showguides="false"
     inkscape:zoom="13.15625"
     inkscape:cx="31.961995"
     inkscape:cy="32"
     inkscape:window-width="1920"
     inkscape:window-height="1019"
     inkscape:window-x="0"
     inkscape:window-y="31"
     inkscape:window-maximized="1"
     inkscape:current-layer="svg5" />
  <defs
     id="defs2" />
  <path
     id="rect890"
     style="opacity:0.75;fill:#0b48aa;fill-opacity:1;stroke-width:0.264583;stroke-linejoin:round;stroke-opacity:0.501961"
     d="M 2.6458333,1.0583333 C 2.0595166,1.0583333 1.5875,1.5303499 1.5875,2.1166666 V 14.816666 c 0,0.586317 0.4720166,1.058334 1.0583333,1.058334 H 14.287501 c 0.586317,0 1.058333,-0.472017 1.058333,-1.058334 V 2.1166666 c 0,-0.5863167 -0.472016,-1.0583333 -1.058333,-1.0583333 z"
     sodipodi:nodetypes="sssssssss" />
  <path
     id="rect1201"
     style="fill:#549bff;fill-opacity:1;stroke-width:0.264583;stroke-linejoin:round;stroke-opacity:0.501961"
     d="m 2.6458334,1.3229167 c -0.4397375,0 -0.79375,0.3540123 -0.79375,0.79375 V 14.816666 c 0,0.439738 0.3540125,0.79375 0.79375,0.79375 H 14.2875 c 0.439738,0 0.79375,-0.354012 0.79375,-0.79375 V 2.1166667 c 0,-0.4397377 -0.354012,-0.79375 -0.79375,-0.79375 z"
     sodipodi:nodetypes="sssssssss" />
  <path
     d="M 2.4036512,1.3234718 C 2.0986668,1.3222718 1.8509754,1.5785944 1.8515552,1.894803 v 5.4487074 c 1.5368305,3.6298746 4.9964932,5.9759986 8.8199938,5.9811586 1.534334,-7.93e-4 3.046354,-0.381034 4.410519,-1.109182 V 1.894803 c 0.0012,-0.3166304 -0.246704,-0.5736129 -0.552096,-0.5724112 z"
     style="opacity:0.1;fill:#0000ff;stroke-width:0.264583"
     id="path963" />
  <path
     d="M 2.4036511,1.3234717 C 2.0986667,1.3222717 1.8509754,1.5785944 1.8515552,1.8948028 V 15.038662 c 0,0.317527 0.2468806,0.572412 0.5520959,0.572412 H 8.5590009 C 11.420053,14.646471 13.776588,12.51146 15.082068,9.7011967 V 1.8948028 C 15.083268,1.5781726 14.835364,1.32119 14.529972,1.3223917 Z"
     style="opacity:0.1;fill:#0000ff;stroke-width:0.264583"
     id="path1220" />
  <path
     d="m 5.2916667,3.175 c 0,1.7535345 1.4215237,3.1750625 3.1750625,3.1750625 1.7535388,0 3.1750628,-1.421528 3.1750628,-3.1750625 H 10.847776 C 10.848331,4.4904059 9.7821352,5.5570469 8.4667292,5.5570469 7.1509321,5.5576069 6.0841295,4.4907959 6.0846822,3.175 Z"
     style="fill:#ffffff;stroke-width:0.264583;paint-order:stroke markers fill"
     id="path8971" />
</svg>
