<?xml version="1.0" encoding="UTF-8" standalone="no"?>
<!-- Created with Inkscape (http://www.inkscape.org/) -->

<svg
   width="64"
   height="64"
   viewBox="0 0 16.933333 16.933334"
   version="1.1"
   id="svg5"
   inkscape:version="1.1.2 (0a00cf5339, 2022-02-04, custom)"
   sodipodi:docname="totem.svg"
   xmlns:inkscape="http://www.inkscape.org/namespaces/inkscape"
   xmlns:sodipodi="http://sodipodi.sourceforge.net/DTD/sodipodi-0.dtd"
   xmlns="http://www.w3.org/2000/svg"
   xmlns:svg="http://www.w3.org/2000/svg">
  <sodipodi:namedview
     id="namedview7"
     pagecolor="#ffffff"
     bordercolor="#666666"
     borderopacity="1.0"
     inkscape:pageshadow="2"
     inkscape:pageopacity="0.0"
     inkscape:pagecheckerboard="0"
     inkscape:document-units="px"
     showgrid="false"
     units="px"
     height="64px"
     showguides="false"
     inkscape:zoom="12.859375"
     inkscape:cx="32"
     inkscape:cy="32"
     inkscape:window-width="1920"
     inkscape:window-height="1019"
     inkscape:window-x="0"
     inkscape:window-y="31"
     inkscape:window-maximized="1"
     inkscape:current-layer="svg5" />
  <defs
     id="defs2" />
  <path
     id="rect1063"
     style="opacity:1;fill:#af53c2;fill-opacity:1;stroke-width:0.529167;stroke-linejoin:round"
     d="m 2.38125,1.984375 h 12.170833 c 0.513028,0 0.926042,0.4130146 0.926042,0.9260417 V 14.022917 c 0,0.513028 -0.413014,0.926042 -0.926042,0.926042 H 2.38125 c -0.5130271,0 -0.9260417,-0.413014 -0.9260417,-0.926042 V 2.9104167 c 0,-0.5130271 0.4130146,-0.9260417 0.9260417,-0.9260417 z"
     sodipodi:nodetypes="sssssssss" />
  <path
     id="rect933"
     style="fill:#333333;fill-opacity:1;stroke-width:0.380685;stroke-linecap:round;stroke-linejoin:round"
     d="m 2.3812501,1.984375 c -0.5130271,0 -0.9260417,0.4130147 -0.9260417,0.9260417 V 5.2916668 H 15.478125 V 2.9104167 c 0,-0.513027 -0.413013,-0.9260417 -0.926041,-0.9260417 z" />
  <path
     id="rect890"
     style="opacity:0.5;fill:#8200a6;fill-opacity:1;stroke-width:0.264583;stroke-linejoin:round;stroke-opacity:0.501961"
     d="m 2.3812501,1.8520834 c -0.5863167,0 -1.0583334,0.4720166 -1.0583334,1.0583333 V 14.022917 c 0,0.586317 0.4720167,1.058333 1.0583334,1.058333 H 14.552084 c 0.586317,0 1.058333,-0.472016 1.058333,-1.058333 V 2.9104167 c 0,-0.5863167 -0.472016,-1.0583333 -1.058333,-1.0583333 z m 0,0.2645833 H 14.552084 c 0.439738,0 0.79375,0.3540123 0.79375,0.79375 V 14.022917 c 0,0.439738 -0.354012,0.79375 -0.79375,0.79375 H 2.3812501 C 1.9415125,14.816667 1.5875,14.462655 1.5875,14.022917 V 2.9104167 c 0,-0.4397377 0.3540125,-0.79375 0.7937501,-0.79375 z"
     sodipodi:nodetypes="ssssssssssssssssss" />
  <path
     id="path2751"
     style="opacity:0.5;fill:#000000;fill-opacity:1;stroke-width:0.264583;stroke-linejoin:round;stroke-opacity:0.501961"
     d="M 9 7 C 6.7839999 7 5 8.7839999 5 11 L 5 20 L 6 20 L 6 11 C 6 9.3379993 7.3379996 8 9 8 L 55 8 C 56.662002 8 58 9.3379993 58 11 L 58 20 L 59 20 L 59 11 C 59 8.7839999 57.216001 7 55 7 L 9 7 z "
     transform="scale(0.26458334)" />
  <path
     d="M 4.8947917,2.1166667 H 6.7468279 L 7.8048488,3.7036981 H 5.9528123 Z m 0,3.1750628 H 6.7468279 L 7.8048488,3.7036981 H 5.9528123 Z M 10.053893,2.1166667 h 1.852037 l 1.059021,1.5870314 h -1.852037 z m 0,3.1750628 h 1.852037 l 1.059021,-1.5880314 h -1.852037 z"
     style="fill:#ffffff;stroke-width:0.264583;paint-order:stroke markers fill"
     id="path860" />
</svg>
