<?xml version="1.0" encoding="UTF-8" standalone="no"?>
<!-- Created with Inkscape (http://www.inkscape.org/) -->

<svg
   width="64"
   height="64"
   viewBox="0 0 16.933333 16.933334"
   version="1.1"
   id="svg5"
   inkscape:version="1.1.2 (0a00cf5339, 2022-02-04, custom)"
   sodipodi:docname="utilities-terminal.svg"
   xmlns:inkscape="http://www.inkscape.org/namespaces/inkscape"
   xmlns:sodipodi="http://sodipodi.sourceforge.net/DTD/sodipodi-0.dtd"
   xmlns="http://www.w3.org/2000/svg"
   xmlns:svg="http://www.w3.org/2000/svg">
  <sodipodi:namedview
     id="namedview7"
     pagecolor="#ffffff"
     bordercolor="#666666"
     borderopacity="1.0"
     inkscape:pageshadow="2"
     inkscape:pageopacity="0.0"
     inkscape:pagecheckerboard="0"
     inkscape:document-units="px"
     showgrid="false"
     units="px"
     height="64px"
     showguides="false"
     inkscape:zoom="8.4330001"
     inkscape:cx="39.784181"
     inkscape:cy="33.440057"
     inkscape:window-width="1920"
     inkscape:window-height="1019"
     inkscape:window-x="0"
     inkscape:window-y="31"
     inkscape:window-maximized="1"
     inkscape:current-layer="svg5" />
  <defs
     id="defs2" />
  <path
     id="rect1201"
     style="fill:#454d51;fill-opacity:1;stroke-width:0.264583;stroke-linejoin:round;stroke-opacity:0.501961"
     d="m 2.38125,1.5875 c -0.4397375,0 -0.79375,0.3540123 -0.79375,0.79375 v 12.170833 c 0,0.439738 0.3540125,0.79375 0.79375,0.79375 h 12.170834 c 0.439738,0 0.79375,-0.354012 0.79375,-0.79375 V 2.38125 c 0,-0.4397377 -0.354012,-0.79375 -0.79375,-0.79375 z"
     sodipodi:nodetypes="sssssssss" />
  <path
     id="rect890"
     style="opacity:0.6;fill:#5b5b5b;fill-opacity:1;stroke-width:0.264583;stroke-linejoin:round;stroke-opacity:0.501961"
     d="m 2.38125,1.3229167 c -0.5863167,0 -1.0583333,0.4720166 -1.0583333,1.0583333 v 12.170833 c 0,0.586317 0.4720166,1.058334 1.0583333,1.058334 h 12.170834 c 0.586317,0 1.058333,-0.472017 1.058333,-1.058334 V 2.38125 c 0,-0.5863167 -0.472016,-1.0583333 -1.058333,-1.0583333 z m 0,0.2645833 h 12.170834 c 0.439738,0 0.79375,0.3540125 0.79375,0.79375 v 12.170833 c 0,0.439738 -0.354012,0.79375 -0.79375,0.79375 H 2.38125 c -0.4397375,0 -0.79375,-0.354012 -0.79375,-0.79375 V 2.38125 c 0,-0.4397375 0.3540125,-0.79375 0.79375,-0.79375 z"
     sodipodi:nodetypes="sssssssssssccssccs" />
  <path
     d="m 3.6861856,3.4401729 c -0.08786,0.00601 -0.166937,0.055434 -0.2108399,0.1317749 -0.073566,0.1266516 -0.02997,0.2889819 0.097152,0.3617352 L 6.4147013,5.5738927 3.5724972,7.2146194 c -0.1268092,0.07274 -0.1703641,0.2346814 -0.097152,0.3612184 0.074002,0.1270024 0.2352492,0.1701529 0.3622516,0.097152 L 7.0456701,5.8209062 c 0.079063,-0.047009 0.1274037,-0.1322938 0.1271241,-0.2242756 0.00201,-0.008 0.00106,-0.014737 0.00206,-0.022738 0,-0.008 -6.69e-5,-0.014221 -0.00206,-0.022219 C 7.1732705,5.4595063 7.1248922,5.3739829 7.0456701,5.3268802 L 3.8375973,3.4747968 c -0.030873,-0.01761 -0.064961,-0.028857 -0.1002522,-0.033073 -0.016962,-0.00217 -0.034097,-0.00269 -0.051159,-0.00156 z M 5.307792,8.2429804 c -0.1404076,0.00706 -0.2511475,0.1226267 -0.2511475,0.2645833 0,0.1465361 0.1182872,0.2640666 0.2651,0.2640666 h 3.7031328 c 0.1468129,0 0.2645832,-0.1175305 0.2645832,-0.2640666 0,-0.1465357 -0.1177703,-0.2645833 -0.2645832,-0.2645833 H 5.3217445 c -0.00459,0 -0.00942,-2.276e-4 -0.013951,0 z"
     style="fill:#ffffff;stroke-width:1.00002;paint-order:stroke markers fill"
     id="path11232" />
</svg>
