<?xml version="1.0" encoding="UTF-8" standalone="no"?>
<!-- Created with Inkscape (http://www.inkscape.org/) -->

<svg
   width="64"
   height="64"
   viewBox="0 0 16.933333 16.933334"
   version="1.1"
   id="svg5"
   inkscape:version="1.1.2 (0a00cf5339, 2022-02-04, custom)"
   sodipodi:docname="utilities-system-monitor.svg"
   xmlns:inkscape="http://www.inkscape.org/namespaces/inkscape"
   xmlns:sodipodi="http://sodipodi.sourceforge.net/DTD/sodipodi-0.dtd"
   xmlns="http://www.w3.org/2000/svg"
   xmlns:svg="http://www.w3.org/2000/svg">
  <sodipodi:namedview
     id="namedview7"
     pagecolor="#ffffff"
     bordercolor="#666666"
     borderopacity="1.0"
     inkscape:pageshadow="2"
     inkscape:pageopacity="0.0"
     inkscape:pagecheckerboard="0"
     inkscape:document-units="px"
     showgrid="false"
     units="px"
     height="64px"
     showguides="false"
     inkscape:zoom="12.484375"
     inkscape:cx="31.95995"
     inkscape:cy="32"
     inkscape:window-width="1920"
     inkscape:window-height="1019"
     inkscape:window-x="0"
     inkscape:window-y="31"
     inkscape:window-maximized="1"
     inkscape:current-layer="svg5" />
  <defs
     id="defs2" />
  <path
     id="rect1201"
     style="fill:#303537;fill-opacity:1;stroke-width:0.264583;stroke-linejoin:round;stroke-opacity:0.501961"
     d="m 2.38125,1.5875 c -0.4397375,0 -0.79375,0.3540123 -0.79375,0.79375 v 12.170833 c 0,0.439738 0.3540125,0.79375 0.79375,0.79375 h 12.170834 c 0.439738,0 0.79375,-0.354012 0.79375,-0.79375 V 2.38125 c 0,-0.4397377 -0.354012,-0.79375 -0.79375,-0.79375 z"
     sodipodi:nodetypes="sssssssss" />
  <path
     id="rect890"
     style="opacity:0.6;fill:#5b5b5b;fill-opacity:1;stroke-width:0.264583;stroke-linejoin:round;stroke-opacity:0.501961"
     d="m 2.38125,1.3229167 c -0.5863167,0 -1.0583333,0.4720166 -1.0583333,1.0583333 v 12.170833 c 0,0.586317 0.4720166,1.058334 1.0583333,1.058334 h 12.170834 c 0.586317,0 1.058333,-0.472017 1.058333,-1.058334 V 2.38125 c 0,-0.5863167 -0.472016,-1.0583333 -1.058333,-1.0583333 z m 0,0.2645833 h 12.170834 c 0.439738,0 0.79375,0.3540125 0.79375,0.79375 v 12.170833 c 0,0.439738 -0.354012,0.79375 -0.79375,0.79375 H 2.38125 c -0.4397375,0 -0.79375,-0.354012 -0.79375,-0.79375 V 2.38125 c 0,-0.4397375 0.3540125,-0.79375 0.79375,-0.79375 z"
     sodipodi:nodetypes="sssssssssssccssccs" />
  <path
     id="rect845"
     style="opacity:0.2;fill:#259c79;fill-opacity:1;stroke-width:2;stroke-linecap:round;stroke-linejoin:round"
     d="M 33.011719 16.277344 L 25.009766 51.666016 L 18.919922 24.005859 L 16 34 L 6 34 L 6 55 C 6 56.662002 7.338 58 9 58 L 55 58 C 56.662002 58 58 56.662002 58 55 L 58 34 L 45 34 L 43.037109 27.683594 L 39.050781 42.001953 L 33.011719 16.277344 z "
     transform="scale(0.26458334)" />
  <path
     style="color:#000000;fill:#259c79;stroke-linejoin:round;-inkscape-stroke:none;fill-opacity:1"
     d="M 8.7304688,4.1015625 A 0.13230472,0.13230472 0 0 0 8.6015625,4.2050781 L 6.6171875,13.140625 5.15625,6.3222656 A 0.13230472,0.13230472 0 0 0 4.9003906,6.3125 l -0.765625,2.5507813 h -2.546875 v 0.265625 H 4.2324219 A 0.13230472,0.13230472 0 0 0 4.359375,9.0332031 L 5.0058594,6.8808594 6.484375,13.785156 a 0.13230472,0.13230472 0 0 0 0.2597656,0.002 L 8.734375,4.8359375 10.189453,11.142578 a 0.13230472,0.13230472 0 0 0 0.25586,0.0059 l 0.941406,-3.2949224 0.394531,1.1835938 a 0.13230472,0.13230472 0 0 0 0.125,0.091797 h 3.439453 v -0.265625 h -3.34375 l -0.5,-1.4960938 A 0.13230472,0.13230472 0 0 0 11.25,7.3710937 L 10.332031,10.583984 8.859375,4.203125 A 0.13230472,0.13230472 0 0 0 8.7304688,4.1015625 Z"
     id="path960" />
</svg>
