<?xml version="1.0" encoding="UTF-8" standalone="no"?>
<!-- Created with Inkscape (http://www.inkscape.org/) -->

<svg
   width="64"
   height="64"
   viewBox="0 0 16.933333 16.933334"
   version="1.1"
   id="svg5"
   inkscape:version="1.1.2 (0a00cf5339, 2022-02-04, custom)"
   sodipodi:docname="utilities-system-monitor.svg"
   xmlns:inkscape="http://www.inkscape.org/namespaces/inkscape"
   xmlns:sodipodi="http://sodipodi.sourceforge.net/DTD/sodipodi-0.dtd"
   xmlns:xlink="http://www.w3.org/1999/xlink"
   xmlns="http://www.w3.org/2000/svg"
   xmlns:svg="http://www.w3.org/2000/svg">
  <sodipodi:namedview
     id="namedview7"
     pagecolor="#ffffff"
     bordercolor="#666666"
     borderopacity="1.0"
     inkscape:pageshadow="2"
     inkscape:pageopacity="0.0"
     inkscape:pagecheckerboard="0"
     inkscape:document-units="px"
     showgrid="false"
     units="px"
     height="64px"
     inkscape:zoom="5.922784"
     inkscape:cx="58.502893"
     inkscape:cy="48.879041"
     inkscape:window-width="1920"
     inkscape:window-height="1021"
     inkscape:window-x="0"
     inkscape:window-y="0"
     inkscape:window-maximized="1"
     inkscape:current-layer="svg5" />
  <defs
     id="defs2">
    <linearGradient
       inkscape:collect="always"
       id="linearGradient12310">
      <stop
         style="stop-color:#f4cc00;stop-opacity:1;"
         offset="0"
         id="stop12306" />
      <stop
         style="stop-color:#f4cc00;stop-opacity:0;"
         offset="1"
         id="stop12308" />
    </linearGradient>
    <linearGradient
       inkscape:collect="always"
       id="linearGradient2373">
      <stop
         style="stop-color:#333333;stop-opacity:1"
         offset="0"
         id="stop2369" />
      <stop
         style="stop-color:#666666;stop-opacity:1"
         offset="1"
         id="stop2371" />
    </linearGradient>
    <linearGradient
       inkscape:collect="always"
       xlink:href="#linearGradient2373"
       id="linearGradient2375"
       x1="9.7895832"
       y1="16.933334"
       x2="9.7895842"
       y2="4.2529297e-07"
       gradientUnits="userSpaceOnUse" />
    <linearGradient
       inkscape:collect="always"
       xlink:href="#linearGradient12310"
       id="linearGradient12312"
       x1="59"
       y1="32.997047"
       x2="59"
       y2="60.5"
       gradientUnits="userSpaceOnUse" />
  </defs>
  <path
     id="rect846"
     style="fill:#51565b;stroke-width:1.03703"
     d="M 14 4 C 8.4599996 4 4 8.4599996 4 14 L 4 50 C 4 55.539997 8.4599996 60 14 60 L 50 60 C 55.539997 60 60 55.539997 60 50 L 60 14 C 60 8.4599996 55.539997 4 50 4 L 14 4 z M 15.285156 6 L 48.714844 6 C 53.859125 6 58 10.14087 58 15.285156 L 58 48.714844 C 58 53.859125 53.859125 58 48.714844 58 L 15.285156 58 C 10.14087 58 6 53.859125 6 48.714844 L 6 15.285156 C 6 10.14087 10.14087 6 15.285156 6 z "
     transform="scale(0.26458334)" />
  <path
     id="rect950"
     style="fill:url(#linearGradient2375);fill-opacity:1;stroke-width:0.264583"
     d="m 3.7041665,1.3229166 h 9.5250005 c 1.319213,0 2.38125,1.0620375 2.38125,2.3812499 v 9.5250005 c 0,1.319213 -1.062037,2.38125 -2.38125,2.38125 H 3.7041665 c -1.3192124,0 -2.3812499,-1.062037 -2.3812499,-2.38125 V 3.7041665 c 0,-1.3192124 1.0620375,-2.3812499 2.3812499,-2.3812499 z" />
  <path
     id="rect1066"
     style="fill:url(#linearGradient12312);stroke-width:0.999999;opacity:0.3;fill-opacity:1"
     d="M 26 18 L 20 34 L 5 34 L 5 50 C 5 54.986002 9.0140004 59 14 59 L 50 59 C 54.986002 59 59 54.986002 59 50 L 59 34 L 44 34 L 38 50 L 26 18 z "
     transform="scale(0.26458334)" />
  <path
     style="color:#000000;fill:#f4cc00;fill-opacity:1;stroke-linejoin:round;-inkscape-stroke:none"
     d="m 6.8795573,4.4980469 c -0.11045,-9.14e-5 -0.2093386,0.06843 -0.2480468,0.171875 L 5.108073,8.7304688 H 1.3229167 v 0.5292968 h 3.96875 c 0.1104501,9.14e-5 0.2093387,-0.06843 0.2480469,-0.171875 L 6.8795573,5.5175781 9.8072917,13.322266 c 0.085425,0.229949 0.4106683,0.229949 0.4960933,0 L 11.82487,9.2597656 h 3.785547 V 8.7304688 h -3.967188 c -0.11045,-9.15e-5 -0.209339,0.06843 -0.248047,0.171875 L 10.055339,12.474609 7.1276042,4.6699219 C 7.088896,4.5664767 6.9900074,4.4979555 6.8795573,4.4980469 Z"
     id="path1486"
     sodipodi:nodetypes="cccccccccccccccccc" />
</svg>
