<?xml version="1.0" encoding="UTF-8" standalone="no"?>
<!-- Created with Inkscape (http://www.inkscape.org/) -->

<svg
   width="64"
   height="64"
   viewBox="0 0 16.933333 16.933334"
   version="1.1"
   id="svg5"
   inkscape:version="1.1.2 (0a00cf5339, 2022-02-04, custom)"
   sodipodi:docname="gnome-tweak-tool.svg"
   xmlns:inkscape="http://www.inkscape.org/namespaces/inkscape"
   xmlns:sodipodi="http://sodipodi.sourceforge.net/DTD/sodipodi-0.dtd"
   xmlns="http://www.w3.org/2000/svg"
   xmlns:svg="http://www.w3.org/2000/svg">
  <sodipodi:namedview
     id="namedview7"
     pagecolor="#ffffff"
     bordercolor="#666666"
     borderopacity="1.0"
     inkscape:pageshadow="2"
     inkscape:pageopacity="0.0"
     inkscape:pagecheckerboard="0"
     inkscape:document-units="px"
     showgrid="false"
     units="px"
     height="64px"
     showguides="false"
     inkscape:zoom="13.15625"
     inkscape:cx="31.961995"
     inkscape:cy="32"
     inkscape:window-width="1920"
     inkscape:window-height="1019"
     inkscape:window-x="0"
     inkscape:window-y="31"
     inkscape:window-maximized="1"
     inkscape:current-layer="svg5" />
  <defs
     id="defs2" />
  <path
     id="rect873"
     style="opacity:0.7;fill:#b3b3b3;stroke-width:0.529167;stroke-linejoin:round"
     d="M 3.4395833,1.3229167 H 13.49375 c 1.172633,0 2.116666,0.9440334 2.116666,2.1166666 V 13.493751 c 0,1.172633 -0.944033,2.116666 -2.116666,2.116666 H 3.4395833 c -1.1726333,0 -2.1166666,-0.944033 -2.1166666,-2.116666 V 3.4395833 c 0,-1.1726332 0.9440333,-2.1166666 2.1166666,-2.1166666 z"
     sodipodi:nodetypes="sssssssss" />
  <path
     id="rect1137"
     style="fill:#f0f0f0;stroke-width:0.529167;stroke-linejoin:round;fill-opacity:1"
     d="M 3.4395832,1.5875 H 13.49375 c 1.026054,0 1.852083,0.8260292 1.852083,1.8520834 V 13.493751 c 0,1.026054 -0.826029,1.852083 -1.852083,1.852083 H 3.4395832 c -1.0260541,0 -1.8520833,-0.826029 -1.8520833,-1.852083 V 3.4395834 C 1.5874999,2.4135292 2.4135291,1.5875 3.4395832,1.5875 Z"
     sodipodi:nodetypes="sssssssss" />
  <path
     id="rect2937"
     style="opacity:0.2;fill:#000000;stroke-width:0.235185;stroke-linecap:round;stroke-linejoin:round"
     d="m 6.0854177,3.4395834 h 4.7625013 c 1.172634,0 2.116667,0.9440337 2.116667,2.1166669 0,1.1726337 -0.944033,2.1166665 -2.116667,2.1166665 H 6.0854177 c -1.172634,0 -2.1166677,-0.9440328 -2.1166677,-2.1166665 0,-1.1726332 0.9440337,-2.1166669 2.1166677,-2.1166669 z"
     sodipodi:nodetypes="sssssss" />
  <path
     d="m 6.0854167,9.2604168 h 4.7624983 c 1.172634,0 2.116666,0.9440332 2.116666,2.1166652 0,1.172635 -0.944032,2.116668 -2.116666,2.116668 H 6.0854167 c -1.1726337,0 -2.1166666,-0.944033 -2.1166666,-2.116668 0,-1.172632 0.9440329,-2.1166652 2.1166666,-2.1166652 z"
     style="opacity:0.2;fill:#000000;stroke-width:0.0622259;stroke-linecap:round;stroke-linejoin:round"
     id="path1412"
     sodipodi:nodetypes="sssssss" />
  <path
     d="m 6.0854177,9.5250001 h 4.7624983 c 1.026055,0 1.852085,0.8260289 1.852085,1.8520829 0,1.026054 -0.82603,1.852084 -1.852085,1.852084 H 6.0854177 c -1.0260547,0 -1.8520843,-0.82603 -1.8520843,-1.852084 0,-1.026054 0.8260296,-1.8520829 1.8520843,-1.8520829 z"
     style="opacity:1;fill:#999999;fill-opacity:1;stroke-width:0.0612537;stroke-linecap:round;stroke-linejoin:round"
     id="path1532"
     sodipodi:nodetypes="sssssss" />
  <path
     id="rect3248"
     style="opacity:1;fill:#3f89e2;fill-opacity:1;stroke-width:0.23151;stroke-linecap:round;stroke-linejoin:round"
     d="m 6.0854174,3.7041667 h 4.7624996 c 1.026054,0 1.852084,0.8260295 1.852084,1.8520834 0,1.0260538 -0.82603,1.8520833 -1.852084,1.8520833 H 6.0854174 c -1.0260546,0 -1.8520841,-0.8260295 -1.8520841,-1.8520833 0,-1.0260539 0.8260295,-1.8520834 1.8520841,-1.8520834 z"
     sodipodi:nodetypes="sssssss" />
  <circle
     style="opacity:0.2;fill:#000000;fill-opacity:1;stroke-width:0.235185;stroke-linecap:round;stroke-linejoin:round"
     id="path3607"
     cx="10.847919"
     cy="5.556253"
     r="2.1166668" />
  <circle
     style="opacity:1;fill:#f2f2f2;fill-opacity:1;stroke-width:0.23151;stroke-linecap:round;stroke-linejoin:round"
     id="path3755"
     cx="10.847919"
     cy="5.5562525"
     r="1.8520833" />
  <circle
     style="opacity:0.2;fill:#000000;stroke-width:0.235185;stroke-linecap:round;stroke-linejoin:round"
     id="path2165"
     cx="6.0854173"
     cy="11.377084"
     r="2.1166668" />
  <circle
     style="opacity:1;fill:#f2f2f2;fill-opacity:1;stroke-width:0.23151;stroke-linecap:round;stroke-linejoin:round"
     id="path2335"
     cx="6.0854168"
     cy="11.377083"
     r="1.8520833" />
</svg>
