<?xml version="1.0" encoding="UTF-8" standalone="no"?>
<!-- Created with Inkscape (http://www.inkscape.org/) -->

<svg
   width="64"
   height="64"
   viewBox="0 0 16.933333 16.933334"
   version="1.1"
   id="svg5"
   inkscape:version="1.1.2 (0a00cf5339, 2022-02-04, custom)"
   sodipodi:docname="virtualbox.svg"
   xmlns:inkscape="http://www.inkscape.org/namespaces/inkscape"
   xmlns:sodipodi="http://sodipodi.sourceforge.net/DTD/sodipodi-0.dtd"
   xmlns="http://www.w3.org/2000/svg"
   xmlns:svg="http://www.w3.org/2000/svg">
  <sodipodi:namedview
     id="namedview7"
     pagecolor="#ffffff"
     bordercolor="#666666"
     borderopacity="1.0"
     inkscape:pageshadow="2"
     inkscape:pageopacity="0.0"
     inkscape:pagecheckerboard="0"
     inkscape:document-units="px"
     showgrid="false"
     units="px"
     height="64px"
     showguides="false"
     inkscape:zoom="12.59375"
     inkscape:cx="32"
     inkscape:cy="32"
     inkscape:window-width="1851"
     inkscape:window-height="1009"
     inkscape:window-x="69"
     inkscape:window-y="31"
     inkscape:window-maximized="1"
     inkscape:current-layer="svg5" />
  <defs
     id="defs2" />
  <path
     id="rect890"
     style="opacity:0.9;fill:#094ba3;fill-opacity:1;stroke-width:0.264583;stroke-linejoin:round;stroke-opacity:0.501961"
     d="M 2.6458333,1.5875 C 2.0595166,1.5875 1.5875,2.0595166 1.5875,2.6458333 V 14.287499 c 0,0.586317 0.4720166,1.058334 1.0583333,1.058334 H 14.287501 c 0.586317,0 1.058333,-0.472017 1.058333,-1.058334 V 2.6458333 C 15.345834,2.0595166 14.873818,1.5875 14.287501,1.5875 Z"
     sodipodi:nodetypes="sssssssss" />
  <path
     id="rect1201"
     style="fill:#217bf3;fill-opacity:1;stroke-width:0.264583;stroke-linejoin:round;stroke-opacity:0.501961"
     d="m 2.6458333,1.8520833 c -0.4397375,0 -0.79375,0.3540123 -0.79375,0.79375 V 14.287499 c 0,0.439738 0.3540125,0.79375 0.79375,0.79375 H 14.287501 c 0.439738,0 0.79375,-0.354012 0.79375,-0.79375 V 2.6458333 c 0,-0.4397377 -0.354012,-0.79375 -0.79375,-0.79375 z"
     sodipodi:nodetypes="sssssssss" />
  <path
     id="rect925"
     style="opacity:0.15;stroke-width:0.264583;stroke-linecap:round;stroke-linejoin:round"
     d="m 3.7041667,3.175 h 9.5249993 c 0.293158,0 0.529167,0.2360084 0.529167,0.5291667 v 9.5249993 c 0,0.293158 -0.236009,0.529167 -0.529167,0.529167 H 3.7041667 C 3.4110083,13.758333 3.175,13.522324 3.175,13.229166 V 3.7041667 C 3.175,3.4110084 3.4110083,3.175 3.7041667,3.175 Z" />
  <rect
     style="opacity:1;fill:#5ea0f6;stroke-width:0.264583;stroke-linecap:round;stroke-linejoin:round;fill-opacity:1"
     id="rect1112"
     width="10.054167"
     height="10.054167"
     x="3.4395833"
     y="3.4395833"
     ry="0.26458335" />
  <path
     d="M 10.697539,4.7519167 9.5041554,8.4609698 8.2697564,5.1796551 7.1037174,10.347726 6.2814362,7.6738443 l -2.5781757,0.002 H 3.4395834 v 0.5293004 h 0.26563 l 2.1855901,-0.002 1.2929945,4.2012523 1.2148669,-5.3848656 1.1465075,3.0449796 1.1894756,-3.7032026 0.988301,2.6367722 h 1.505889 0.265631 V 8.47073 h -0.265631 -1.138694 z"
     style="color:#000000;fill:#ffffff;stroke-width:0.264583;stroke-linecap:square;-inkscape-stroke:none"
     id="path2224" />
</svg>
