<?xml version="1.0" encoding="UTF-8" standalone="no"?>
<!-- Created with Inkscape (http://www.inkscape.org/) -->

<svg
   width="64"
   height="64"
   viewBox="0 0 16.933333 16.933334"
   version="1.1"
   id="svg5"
   inkscape:version="1.1.2 (0a00cf5339, 2022-02-04, custom)"
   sodipodi:docname="vncviewer.svg"
   xmlns:inkscape="http://www.inkscape.org/namespaces/inkscape"
   xmlns:sodipodi="http://sodipodi.sourceforge.net/DTD/sodipodi-0.dtd"
   xmlns="http://www.w3.org/2000/svg"
   xmlns:svg="http://www.w3.org/2000/svg">
  <sodipodi:namedview
     id="namedview7"
     pagecolor="#ffffff"
     bordercolor="#666666"
     borderopacity="1.0"
     inkscape:pageshadow="2"
     inkscape:pageopacity="0.0"
     inkscape:pagecheckerboard="0"
     inkscape:document-units="px"
     showgrid="false"
     units="px"
     height="64px"
     showguides="false"
     inkscape:zoom="13.15625"
     inkscape:cx="31.92399"
     inkscape:cy="32.07601"
     inkscape:window-width="1851"
     inkscape:window-height="1009"
     inkscape:window-x="69"
     inkscape:window-y="31"
     inkscape:window-maximized="1"
     inkscape:current-layer="svg5" />
  <defs
     id="defs2" />
  <path
     id="rect890"
     style="opacity:0.7;fill:#0060ae;stroke-width:0.264583;stroke-linejoin:round;stroke-opacity:0.501961;fill-opacity:1"
     d="m 2.38125,1.3229167 c -0.5863167,0 -1.0583333,0.4720166 -1.0583333,1.0583333 v 12.170833 c 0,0.586317 0.4720166,1.058334 1.0583333,1.058334 h 12.170834 c 0.586317,0 1.058333,-0.472017 1.058333,-1.058334 V 2.38125 c 0,-0.5863167 -0.472016,-1.0583333 -1.058333,-1.0583333 z"
     sodipodi:nodetypes="sssssssss" />
  <path
     id="rect1201"
     style="fill:#259dff;fill-opacity:1;stroke-width:0.264583;stroke-linejoin:round;stroke-opacity:0.501961"
     d="m 2.38125,1.5875 c -0.4397375,0 -0.79375,0.3540123 -0.79375,0.79375 v 12.170833 c 0,0.439738 0.3540125,0.79375 0.79375,0.79375 h 12.170834 c 0.439738,0 0.79375,-0.354012 0.79375,-0.79375 V 2.38125 c 0,-0.4397377 -0.354012,-0.79375 -0.79375,-0.79375 z"
     sodipodi:nodetypes="sssssssss" />
  <path
     d="m 2.9818543,4.2333334 2.3833173,7.9054606 c 0.00254,0.0047 0.00471,0.0057 0.00723,0.01033 0.084407,0.316336 0.3712353,0.550872 0.7141692,0.550872 0.325383,0 0.5980978,-0.210613 0.6976319,-0.502296 0.00217,-0.0043 0.00741,-0.01027 0.0093,-0.01447 L 9.1902611,4.2333334 H 8.3908268 L 6.0865745,11.936739 3.7823224,4.2333334 Z m 8.6599377,0 c -1.022878,0 -1.8520842,0.8292061 -1.8520842,1.8520834 V 7.9375002 H 10.583458 V 7.1437502 6.6145835 6.0854168 c 0,-0.5939028 0.464431,-1.0583333 1.058334,-1.0583333 0.593903,0 1.058334,0.4644305 1.058334,1.0583333 v 0.5291667 0.5291667 0.79375 h 0.79375 V 6.0854168 c 0,-1.0228773 -0.829207,-1.8520834 -1.852084,-1.8520834 z m 0,4.7625004 c -1.022878,0 -1.8520842,0.829206 -1.8520842,1.8520832 0,1.022877 0.8292062,1.852084 1.8520842,1.852084 h 1.852084 v -0.79375 h -0.79375 -0.529167 -0.529167 c -0.593903,0 -1.058334,-0.464431 -1.058334,-1.058334 0,-0.593903 0.464431,-1.0583332 1.058334,-1.0583332 h 0.529167 0.529167 0.79375 v -0.79375 z"
     style="fill:#ffffff;stroke-width:0.264583"
     id="path858" />
</svg>
