<?xml version="1.0" encoding="UTF-8" standalone="no"?>
<!-- Created with Inkscape (http://www.inkscape.org/) -->

<svg
   width="64"
   height="64"
   viewBox="0 0 16.933333 16.933334"
   version="1.1"
   id="svg5"
   inkscape:version="1.1.2 (0a00cf5339, 2022-02-04, custom)"
   sodipodi:docname="weather.svg"
   xmlns:inkscape="http://www.inkscape.org/namespaces/inkscape"
   xmlns:sodipodi="http://sodipodi.sourceforge.net/DTD/sodipodi-0.dtd"
   xmlns="http://www.w3.org/2000/svg"
   xmlns:svg="http://www.w3.org/2000/svg">
  <sodipodi:namedview
     id="namedview7"
     pagecolor="#ffffff"
     bordercolor="#666666"
     borderopacity="1.0"
     inkscape:pageshadow="2"
     inkscape:pageopacity="0.0"
     inkscape:pagecheckerboard="0"
     inkscape:document-units="px"
     showgrid="false"
     units="px"
     height="64px"
     showguides="true"
     inkscape:zoom="12.484375"
     inkscape:cx="32"
     inkscape:cy="32"
     inkscape:window-width="1920"
     inkscape:window-height="1019"
     inkscape:window-x="0"
     inkscape:window-y="31"
     inkscape:window-maximized="1"
     inkscape:current-layer="svg5" />
  <defs
     id="defs2" />
  <path
     id="rect3815"
     style="opacity:0.9;fill:#0c90c2;stroke-width:0.264583;stroke-linecap:round;stroke-linejoin:round;fill-opacity:1"
     d="M 2.9104166,1.3229166 H 14.022917 c 0.879475,0 1.5875,0.708025 1.5875,1.5875 V 14.022917 c 0,0.879475 -0.708025,1.5875 -1.5875,1.5875 H 2.9104166 c -0.879475,0 -1.5875,-0.708025 -1.5875,-1.5875 V 2.9104166 c 0,-0.879475 0.708025,-1.5875 1.5875,-1.5875 z" />
  <path
     id="rect4515"
     style="opacity:1;fill:#55beea;stroke-width:0.264583;stroke-linecap:round;stroke-linejoin:round;fill-opacity:1"
     d="M 2.9104166,1.5875 H 14.022916 c 0.732896,0 1.322917,0.5900208 1.322917,1.3229166 V 14.022917 c 0,0.732896 -0.590021,1.322916 -1.322917,1.322916 H 2.9104166 C 2.1775208,15.345833 1.5875,14.755813 1.5875,14.022917 V 2.9104166 C 1.5875,2.1775208 2.1775208,1.5875 2.9104166,1.5875 Z" />
  <path
     id="path2957"
     style="opacity:1;fill:#ffca58;fill-opacity:1;stroke-width:0.818181;stroke-linecap:round"
     d="M 42.974609 12 C 42.432669 12.013638 42 12.454656 42 13 L 42 14 C 42 14.554 42.446 15 43 15 C 43.554 15 44 14.554 44 14 L 44 13 C 44 12.446 43.554 12 43 12 C 42.991344 12 42.983212 11.999784 42.974609 12 z M 34.527344 15.513672 C 34.275585 15.510687 34.022588 15.602267 33.826172 15.789062 C 33.820125 15.795072 33.814641 15.802433 33.808594 15.808594 C 33.416857 16.20033 33.416857 16.83092 33.808594 17.222656 L 34.515625 17.929688 C 34.907365 18.321427 35.537951 18.321424 35.929688 17.929688 C 36.321424 17.537948 36.321428 16.907364 35.929688 16.515625 L 35.222656 15.808594 C 35.029847 15.615785 34.779102 15.516657 34.527344 15.513672 z M 51.472656 15.513672 C 51.220898 15.516657 50.970153 15.613832 50.777344 15.806641 L 50.070312 16.515625 C 49.678572 16.907364 49.678576 17.537948 50.070312 17.929688 C 50.462049 18.321424 51.092635 18.321427 51.484375 17.929688 L 52.191406 17.222656 C 52.583143 16.83092 52.583143 16.198377 52.191406 15.806641 C 52.185359 15.80048 52.179875 15.795072 52.173828 15.789062 C 51.977412 15.602267 51.724415 15.510687 51.472656 15.513672 z M 43 16 A 8.9999996 8.9999996 0 0 0 34 25 A 8.9999996 8.9999996 0 0 0 43 34 A 8.9999996 8.9999996 0 0 0 52 25 A 8.9999996 8.9999996 0 0 0 43 16 z M 31 24 C 30.446 24 30 24.445997 30 25 C 30 25.553999 30.446 26 31 26 L 32 26 C 32.554 26 33 25.553999 33 25 C 33 24.991307 33.000216 24.983302 33 24.974609 C 32.986356 24.432667 32.545344 24 32 24 L 31 24 z M 54 24 C 53.445997 24 53 24.445997 53 25 C 53 25.553999 53.445997 26 54 26 L 55 26 C 55.553999 26 56 25.553999 56 25 C 56 24.991307 56.000215 24.983302 56 24.974609 C 55.986394 24.432667 55.545344 24 55 24 L 54 24 z M 35.210938 31.777344 C 34.959179 31.780328 34.708433 31.877504 34.515625 32.070312 L 33.806641 32.777344 C 33.414904 33.16908 33.414901 33.799667 33.806641 34.191406 C 34.198377 34.583143 34.83092 34.583143 35.222656 34.191406 L 35.929688 33.484375 C 36.321425 33.092638 36.321425 32.462049 35.929688 32.070312 C 35.923527 32.064152 35.916468 32.058744 35.910156 32.052734 C 35.71374 31.865939 35.462696 31.774359 35.210938 31.777344 z M 50.789062 31.777344 C 50.537303 31.774359 50.28626 31.865939 50.089844 32.052734 C 50.083797 32.058744 50.07636 32.064152 50.070312 32.070312 C 49.678576 32.462049 49.678576 33.092638 50.070312 33.484375 L 50.779297 34.193359 C 51.171034 34.585096 51.801623 34.585096 52.193359 34.193359 C 52.585096 33.80162 52.585096 33.16908 52.193359 32.777344 L 51.486328 32.070312 C 51.293521 31.877504 51.040822 31.780329 50.789062 31.777344 z M 42.974609 35 C 42.432669 35.013638 42 35.454656 42 36 L 42 37 C 42 37.554 42.446 38 43 38 C 43.554 38 44 37.554 44 37 L 44 36 C 44 35.446 43.554 35 43 35 C 42.991344 35 42.983212 34.999784 42.974609 35 z "
     transform="scale(0.26458334)" />
  <circle
     style="opacity:1;fill:#ffe082;fill-opacity:1;stroke-width:0.264583;stroke-linecap:round"
     id="path3133"
     cx="11.377084"
     cy="6.6145835"
     r="2.1166668" />
  <path
     id="path2401"
     style="opacity:1;fill:#bdbdbd;fill-opacity:1;stroke-width:0.284935;stroke-linecap:round"
     d="M 8.4666669,5.2916668 C 7.0204189,5.2925135 5.7069288,6.1350188 5.1030477,7.4491579 3.836301,7.6693923 2.9112531,8.7684184 2.9104167,10.054167 2.9104167,11.51542 4.0949966,12.7 5.5562501,12.7 H 11.90625 c 1.169003,0 2.116667,-0.947664 2.116667,-2.116666 C 14.022895,9.5027525 13.208931,8.5956748 12.13466,8.4790692 11.87711,6.651006 10.312784,5.2916417 8.4666669,5.2916668 Z"
     sodipodi:nodetypes="cccccccc" />
  <path
     id="path3952"
     style="fill:#f5f5f5;fill-opacity:1;stroke-width:0.264583;stroke-linecap:round"
     d="M 8.4666669,5.5562501 C 7.0720724,5.5570174 5.8159673,6.3997926 5.2864992,7.68997 4.0841907,7.8270509 3.1758766,8.8440693 3.1750001,10.054167 c 0,1.315128 1.0661219,2.38125 2.38125,2.38125 H 11.90625 c 1.022878,0 1.852084,-0.829206 1.852084,-1.852083 0,-1.0228777 -0.829206,-1.8520838 -1.852084,-1.8520838 -0.0034,1.627e-4 -0.0069,3.44e-4 -0.01033,5.292e-4 C 11.757944,6.9399355 10.263802,5.5563462 8.4666669,5.5562501 Z"
     sodipodi:nodetypes="cccccsccc" />
</svg>
