<?xml version="1.0" encoding="UTF-8" standalone="no"?>
<!-- Created with Inkscape (http://www.inkscape.org/) -->

<svg
   width="64"
   height="64"
   viewBox="0 0 16.933333 16.933334"
   version="1.1"
   id="svg5"
   inkscape:version="1.1.2 (0a00cf5339, 2022-02-04)"
   sodipodi:docname="winetricks.svg"
   xmlns:inkscape="http://www.inkscape.org/namespaces/inkscape"
   xmlns:sodipodi="http://sodipodi.sourceforge.net/DTD/sodipodi-0.dtd"
   xmlns="http://www.w3.org/2000/svg"
   xmlns:svg="http://www.w3.org/2000/svg">
  <sodipodi:namedview
     id="namedview7"
     pagecolor="#ffffff"
     bordercolor="#666666"
     borderopacity="1.0"
     inkscape:pageshadow="2"
     inkscape:pageopacity="0.0"
     inkscape:pagecheckerboard="0"
     inkscape:document-units="px"
     showgrid="false"
     units="px"
     height="64px"
     showguides="false"
     inkscape:zoom="7.4758548"
     inkscape:cx="35.581215"
     inkscape:cy="30.69883"
     inkscape:window-width="1920"
     inkscape:window-height="1011"
     inkscape:window-x="0"
     inkscape:window-y="0"
     inkscape:window-maximized="1"
     inkscape:current-layer="svg5" />
  <defs
     id="defs2" />
  <path
     id="rect890"
     style="opacity:1;fill:#196fb4;fill-opacity:1;stroke-width:0.264583;stroke-linejoin:round;stroke-opacity:0.501961"
     d="m 2.38125,1.3229167 c -0.5863167,0 -1.0583333,0.4720166 -1.0583333,1.0583333 v 12.170833 c 0,0.586317 0.4720166,1.058334 1.0583333,1.058334 h 12.170834 c 0.586317,0 1.058333,-0.472017 1.058333,-1.058334 V 2.38125 c 0,-0.5863167 -0.472016,-1.0583333 -1.058333,-1.0583333 z"
     sodipodi:nodetypes="sssssssss" />
  <path
     id="rect1201"
     style="fill:#2196f3;fill-opacity:1;stroke-width:0.264583;stroke-linejoin:round;stroke-opacity:0.501961"
     d="m 2.38125,1.5875 c -0.4397375,0 -0.79375,0.3540123 -0.79375,0.79375 v 12.170833 c 0,0.439738 0.3540125,0.79375 0.79375,0.79375 h 12.170834 c 0.439738,0 0.79375,-0.354012 0.79375,-0.79375 V 2.38125 c 0,-0.4397377 -0.354012,-0.79375 -0.79375,-0.79375 z"
     sodipodi:nodetypes="sssssssss" />
  <path
     d="M 4.7655,8.2019895 4.7625,5.6219387 7.6565571,5.1909303 V 8.2019895 Z M 8.1395666,5.1139286 11.996642,4.4979167 V 8.2019895 H 8.1395666 Z m 3.8580754,3.6170715 -0.001,3.7040719 L 8.1395666,11.84006 V 8.7310001 Z M 7.657557,11.77306 4.7655,11.338051 V 8.73 h 2.8910569 v 3.04206 z"
     style="fill:#ffffff;stroke-width:0.264583"
     id="path5109" />
  <circle
     style="opacity:1;fill:#e73d3d;stroke-width:0.471668;stroke-linejoin:round;fill-opacity:1"
     id="path845"
     cx="12.7"
     cy="12.7"
     r="3.4395833" />
  <circle
     style="fill:#ff5555;stroke-width:0.423333;stroke-linejoin:round;fill-opacity:1"
     id="path1011"
     cx="12.7"
     cy="12.700001"
     r="3.175" />
  <path
     id="path1143"
     style="color:#000000;fill:#ffffff;stroke:none;stroke-width:2;stroke-linecap:round;stroke-linejoin:round;-inkscape-stroke:none"
     d="M 48.017578 40 A 0.99619554 1.0040195 0 0 0 47.121094 40.554688 L 45.080078 44.673828 L 40.556641 45.314453 A 0.99619554 1.0040195 0 0 0 39.998047 47.023438 L 43.251953 50.253906 L 42.460938 54.787109 A 0.99619554 1.0040195 0 0 0 43.900391 55.851562 L 47.953125 53.728516 L 51.986328 55.888672 A 0.99619554 1.0040195 0 0 0 53.435547 54.839844 L 52.683594 50.296875 L 55.970703 47.099609 A 0.99619554 1.0040195 0 0 0 55.427734 45.386719 L 50.912109 44.703125 L 48.908203 40.564453 A 0.99619554 1.0040195 0 0 0 48.017578 40 z "
     transform="scale(0.26458334)" />
</svg>
