<?xml version="1.0" encoding="UTF-8" standalone="no"?>
<!-- Created with Inkscape (http://www.inkscape.org/) -->

<svg
   width="64"
   height="64"
   viewBox="0 0 16.933333 16.933334"
   version="1.1"
   id="svg5"
   inkscape:version="1.1.2 (0a00cf5339, 2022-02-04, custom)"
   sodipodi:docname="workspace-switcher-right-top.svg"
   xmlns:inkscape="http://www.inkscape.org/namespaces/inkscape"
   xmlns:sodipodi="http://sodipodi.sourceforge.net/DTD/sodipodi-0.dtd"
   xmlns="http://www.w3.org/2000/svg"
   xmlns:svg="http://www.w3.org/2000/svg">
  <sodipodi:namedview
     id="namedview7"
     pagecolor="#ffffff"
     bordercolor="#666666"
     borderopacity="1.0"
     inkscape:pageshadow="2"
     inkscape:pageopacity="0.0"
     inkscape:pagecheckerboard="0"
     inkscape:document-units="px"
     showgrid="false"
     units="px"
     height="64px"
     showguides="true"
     inkscape:zoom="9.875"
     inkscape:cx="35.493671"
     inkscape:cy="33.316456"
     inkscape:window-width="1851"
     inkscape:window-height="1009"
     inkscape:window-x="69"
     inkscape:window-y="31"
     inkscape:window-maximized="1"
     inkscape:current-layer="svg5" />
  <defs
     id="defs2" />
  <path
     id="rect1224"
     style="opacity:1;fill:#3e62c2;stroke-width:0.529167;stroke-linecap:round;stroke-linejoin:round"
     d="M 1.8520833,3.175 H 15.08125 c 0.293159,0 0.529167,0.2360083 0.529167,0.5291667 v 9.5249993 c 0,0.293159 -0.236008,0.529167 -0.529167,0.529167 H 1.8520833 c -0.2931583,0 -0.5291667,-0.236008 -0.5291667,-0.529167 V 3.7041667 C 1.3229166,3.4110083 1.558925,3.175 1.8520833,3.175 Z" />
  <path
     id="rect927"
     style="opacity:1;fill:#638df5;stroke-width:0.529167;stroke-linecap:round;stroke-linejoin:round"
     d="M 1.8520833,3.4395834 H 15.08125 c 0.146579,0 0.264583,0.1180042 0.264583,0.2645834 v 9.5249992 c 0,0.14658 -0.118004,0.264584 -0.264583,0.264584 H 1.8520833 C 1.7055042,13.49375 1.5875,13.375746 1.5875,13.229166 V 3.7041668 c 0,-0.1465792 0.1180042,-0.2645834 0.2645833,-0.2645834 z" />
  <path
     id="rect1573"
     style="opacity:0.15;fill:#000000;stroke-width:0.529167;stroke-linecap:round;stroke-linejoin:round"
     d="m 9.2604168,2.6458335 h 6.6145862 c 0.293159,0 0.529167,0.2360083 0.529167,0.5291667 V 7.9375 c 0,0.2931584 -0.236008,0.5291667 -0.529167,0.5291667 H 9.2604168 C 8.9672584,8.4666667 8.7312501,8.2306584 8.7312501,7.9375 V 3.1750002 c 0,-0.2931584 0.2360083,-0.5291667 0.5291667,-0.5291667 z" />
  <path
     id="rect1713"
     style="opacity:1;fill:#ffffff;stroke-width:0.529167;stroke-linecap:round;stroke-linejoin:round"
     d="m 9.2604167,2.9104166 h 6.6145863 c 0.146579,0 0.264584,0.1180042 0.264584,0.2645834 v 4.7624998 c 0,0.1465791 -0.118005,0.2645833 -0.264584,0.2645833 H 9.2604167 c -0.1465792,0 -0.2645833,-0.1180042 -0.2645833,-0.2645833 V 3.175 c 0,-0.1465792 0.1180041,-0.2645834 0.2645833,-0.2645834 z" />
</svg>
