<?xml version="1.0" encoding="UTF-8" standalone="no"?>
<!-- Created with Inkscape (http://www.inkscape.org/) -->

<svg
   width="64"
   height="64"
   viewBox="0 0 16.933333 16.933334"
   version="1.1"
   id="svg5"
   inkscape:version="1.1.2 (0a00cf5339, 2022-02-04)"
   sodipodi:docname="yast.svg"
   xmlns:inkscape="http://www.inkscape.org/namespaces/inkscape"
   xmlns:sodipodi="http://sodipodi.sourceforge.net/DTD/sodipodi-0.dtd"
   xmlns="http://www.w3.org/2000/svg"
   xmlns:svg="http://www.w3.org/2000/svg">
  <sodipodi:namedview
     id="namedview7"
     pagecolor="#ffffff"
     bordercolor="#666666"
     borderopacity="1.0"
     inkscape:pageshadow="2"
     inkscape:pageopacity="0.0"
     inkscape:pagecheckerboard="0"
     inkscape:document-units="px"
     showgrid="false"
     units="px"
     height="64px"
     inkscape:zoom="15.4375"
     inkscape:cx="32"
     inkscape:cy="31.51417"
     inkscape:window-width="1920"
     inkscape:window-height="1011"
     inkscape:window-x="0"
     inkscape:window-y="0"
     inkscape:window-maximized="1"
     inkscape:current-layer="svg5"
     showguides="false" />
  <defs
     id="defs2" />
  <circle
     style="opacity:0.8;fill:#298e84;fill-opacity:1;stroke-width:0.548766;stroke-linecap:round;stroke-linejoin:round"
     id="path1150"
     cx="8.4666672"
     cy="8.4666672"
     r="7.4083333" />
  <circle
     style="opacity:1;fill:#68cbc0;fill-opacity:1;stroke-width:0.502554;stroke-linejoin:round"
     id="path24384"
     cx="8.4666672"
     cy="8.4666672"
     r="7.1437502" />
  <path
     d="M 4.9003922,3.2437917 5.3514126,4.3026535 6.4541832,5.562248 C 6.0966306,5.6187042 5.7785956,5.7146787 5.4787523,5.8294724 5.309384,5.9110207 5.1475437,5.9988406 5.0572139,6.177618 L 4.7824618,6.5586567 C 4.694014,6.737434 4.5064553,6.7669885 4.3226599,6.9118918 L 3.569915,7.4996605 C 3.7198361,7.5724257 3.8540759,7.6677726 3.9776517,7.7806856 3.8446665,7.7072918 3.7154454,7.630135 3.5605056,7.5893622 3.4526117,7.5724236 3.345973,7.5736777 3.2474882,7.6520907 c -0.088447,0.073393 -0.078411,0.1975961 -0.06022,0.3136434 0.03387,0.1794061 0.1837958,0.338736 0.3544179,0.4591754 0.158704,0.070884 0.3048619,0.034507 0.4453745,-0.048308 0.1216937,-0.112912 0.1712494,-0.3111352 0.1561946,-0.5821241 0.08782,-0.016304 0.068374,0.506221 0.084057,0.4466289 C 4.2354643,8.2091185 5.5176429,7.462068 5.8570065,7.382402 6.2032693,7.2933263 6.7433643,7.4837453 7.134164,7.3619814 7.3769245,7.2841976 7.5544478,7.2057344 7.7049962,6.9742647 L 7.5839297,7.2314529 C 7.4934121,7.3777776 7.3516224,7.4851254 7.1862287,7.5325504 l -0.3049185,2.3159471 -0.00429,2.2394185 -0.3445155,0.56456 0.2578147,-0.0088 0.2747529,-0.363199 -0.2019872,0.434709 c 0,0 1.3216963,-0.08845 1.3216963,-0.07904 0,0.0094 -0.4077381,-2.6785168 -0.4077381,-2.6785168 0,0 0.4416111,-0.493676 0.4510201,-0.5005758 0.0094,-0.00752 1.668151,0.5419762 1.668151,0.5419762 l -0.247152,-0.2916883 -0.203242,-0.112285 0.246525,0.081547 c 0,0 0.5727129,0.6937817 0.5752229,0.7038177 0.0024,0.0094 0.102248,-0.124831 0.102248,-0.124831 l -0.5996869,2.433877 0.7966549,0.271617 -0.0251,-0.371983 0.190695,0.461684 0.292944,0.01944 -0.198224,-0.48113 0.345009,0.419027 0.189441,-0.03763 -0.341245,-0.491166 0.398328,-2.371149 -0.459174,-0.3625729 -0.355673,-0.4767374 0.336854,0.343126 -0.365082,-0.5200222 -0.02885,-0.68688 0.127967,0.5915321 0.138003,-0.4861475 -0.07151,0.5676953 0.265343,0.582123 0.530685,0.3951916 -0.01003,0.09096 0.417774,-0.1530603 0.269734,-0.6097233 0.02321,-0.3776265 0.03889,0.3826462 c 0,0 -0.232096,0.5620481 -0.232096,0.5814949 0,0.018822 0.30298,-0.2866707 0.30298,-0.2866707 l -0.332462,0.3914287 0.531312,0.958496 0.180032,1.04506 0.132358,-0.09472 -0.02824,0.03764 -0.426555,0.557031 0.27977,-0.06085 0.108521,-0.171876 -0.04767,0.209514 0.09974,0.0049 -0.02321,0.22896 0.20826,-0.186304 0.155568,0.04831 0.04831,-0.277889 v 0.282281 l 0.146158,-0.02885 0.07088,0.23837 0.104105,-0.300452 0.203795,-0.0093 C 13.563881,11.079875 13.306692,9.687543 13.237691,8.2121634 13.230167,7.9311372 12.994303,7.4343254 12.740252,7.1093906 12.443546,6.7675177 11.837584,6.0367274 10.977573,5.8316049 c -0.469211,-0.055828 -0.947205,0.020077 -1.4678529,0.1900672 -0.46043,0.1348676 -0.935915,0.2161683 -1.4528,0.4639458 0.121694,0.1994784 0.282907,0.3951917 0.55766,0.6272879 0.08594,0.084057 0.240878,0.1072669 0.393309,0.095349 -0.105384,0.03765 -0.213904,0.069001 -0.327444,0.00941 C 8.4953941,7.0922107 8.3429641,6.9353884 8.1974331,6.7697841 8.1088891,6.6599085 8.0341061,6.539622 7.9747453,6.4116034 7.8869253,6.212126 7.9904351,5.9587007 8.1597951,5.6864582 8.3134821,5.4976447 8.4828491,5.3132211 8.8272311,5.1808643 9.1371111,5.057288 9.4482451,4.9337128 9.7424431,4.7706175 10.074906,4.55483 10.605591,3.8673223 10.887871,3.3868199 10.118816,3.6690997 9.3503881,3.8949234 8.5857241,4.3453157 8.2996801,4.5416569 8.0192841,4.8458915 7.7332405,5.1607904 7.6115454,5.2987933 7.4798146,5.4280148 7.306685,5.5195987 7.0689421,5.6469374 6.90522,5.5258746 6.7954449,5.4286418 6.6253009,5.2444977 6.4745858,5.0433312 6.3456633,4.828321 6.1762956,4.5962246 5.9987729,4.3635005 5.7390753,4.1314043 5.4404867,3.8541429 5.1713808,3.5342257 4.9003922,3.2437917 Z m 4.8652449,0.7609002 -0.677472,0.8223742 0.459803,-0.159331 -0.925251,0.4535292 z M 6.552041,5.7215795 c 0.059593,-0.00127 0.1191842,0 0.1768946,0.00628 -0.3744902,0.02885 -0.5457397,0.093466 -0.8706745,0.2603252 0.1191848,-0.090957 0.1863043,-0.1587045 0.4008364,-0.2320962 0.094093,-0.020706 0.1938327,-0.032623 0.2929435,-0.034507 z m 0.1041294,0.5168847 c 0.185049,0.00302 0.3105086,0.084684 0.3105086,0.084684 C 6.5564325,6.2127462 6.3312361,6.3043254 6.1555946,6.5728087 6.1348936,6.5558701 6.2722716,6.3225213 6.4541832,6.2673186 6.52695,6.2453582 6.5946966,6.2372196 6.6561704,6.2384685 Z m -0.031374,0.1380041 c 0.038926,-0.00159 0.077896,0.00153 0.1160478,0.00941 0.076529,0.026966 0.1116574,0.084056 0.1492954,0.1380035 -0.079667,-0.070257 -0.1618409,-0.1254585 -0.2615798,-0.09974 0.112912,0.012547 0.15494,0.083429 0.1712495,0.1762686 C 6.81361,6.7252397 6.706343,6.798633 6.6348317,6.8092957 6.5633227,6.8199587 6.4717373,6.8017757 6.4190444,6.7246127 6.4039894,6.6932387 6.3638444,6.5778271 6.4278144,6.4956528 6.3579394,6.5240848 6.2937659,6.5648808 6.2383738,6.6160922 6.2866818,6.5458362 6.3456407,6.4906337 6.4347163,6.4316697 6.4926783,6.3980837 6.5578672,6.3789387 6.624783,6.3758407 Z m -3.027292,1.4098619 c 0.095975,0.1135396 0.1894412,0.2226871 0.2352334,0.3732366 0.00627,0.1392587 -0.055202,0.1361213 -0.115421,0.1354942 -0.050183,-5.821e-4 -0.1455312,-0.05771 -0.114794,-0.1041299 0.02967,-0.060276 0.042254,-0.1275324 0.036384,-0.1944587 z m -0.3512807,0.034507 c 0.075274,0.079038 0.1492944,0.1317313 0.1630942,0.2421334 0.00565,0.026347 0.010668,0.091585 -0.041401,0.081548 C 3.2161181,8.0008639 3.3077026,8.0165468 3.2468553,7.8208324 Z"
     style="fill:#ffffff;stroke-width:0.264583"
     id="path858" />
</svg>
