<?xml version="1.0" encoding="UTF-8" standalone="no"?>
<!-- Created with Inkscape (http://www.inkscape.org/) -->

<svg
   width="64"
   height="64"
   viewBox="0 0 16.933333 16.933334"
   version="1.1"
   id="svg5"
   inkscape:version="1.1.2 (0a00cf5339, 2022-02-04)"
   sodipodi:docname="yast-apparmor.svg"
   xmlns:inkscape="http://www.inkscape.org/namespaces/inkscape"
   xmlns:sodipodi="http://sodipodi.sourceforge.net/DTD/sodipodi-0.dtd"
   xmlns="http://www.w3.org/2000/svg"
   xmlns:svg="http://www.w3.org/2000/svg">
  <sodipodi:namedview
     id="namedview7"
     pagecolor="#ffffff"
     bordercolor="#666666"
     borderopacity="1.0"
     inkscape:pageshadow="2"
     inkscape:pageopacity="0.0"
     inkscape:pagecheckerboard="0"
     inkscape:document-units="px"
     showgrid="false"
     units="px"
     height="64px"
     showguides="false"
     inkscape:zoom="12.484375"
     inkscape:cx="31.95995"
     inkscape:cy="32"
     inkscape:window-width="1920"
     inkscape:window-height="1011"
     inkscape:window-x="0"
     inkscape:window-y="0"
     inkscape:window-maximized="1"
     inkscape:current-layer="svg5" />
  <defs
     id="defs2" />
  <path
     style="color:#000000;fill:#1a1a1a;stroke:none;stroke-linejoin:round;-inkscape-stroke:none;fill-opacity:1;opacity:0.35"
     d="M 8.376823,1.0737024 2.5570772,3.1498743 c -0.1056586,0.037654 -0.176097,0.137833 -0.1757812,0.25 0,2.1860909 -0.00495,3.6165464 0.087891,4.734375 0.092844,1.1178287 0.2886116,1.9269997 0.6835938,2.8183597 0.7880726,1.777771 1.9095361,2.990961 5.1810739,4.886719 0.082128,0.04766 0.1834968,0.04766 0.265625,0 3.2715193,-1.895747 4.3916103,-3.108395 5.1796873,-4.886719 0.394977,-0.891349 0.592634,-1.7004538 0.685547,-2.8183597 0.09291,-1.1179058 0.08816,-2.5485347 0.08789,-4.734375 3.16e-4,-0.112167 -0.07012,-0.2123461 -0.175781,-0.25 L 8.5545574,1.0737024 c -0.057473,-0.020492 -0.1202616,-0.020492 -0.1777344,0 z m 0.089844,0.5292969 5.552734,1.9804688 c 4.04e-4,2.0443183 0.0041,3.4694701 -0.08203,4.5058594 -0.08965,1.0786198 -0.266734,1.8066264 -0.640625,2.6503905 -0.736067,1.66096 -1.744819,2.739548 -4.830078,4.546875 C 5.3814246,13.479256 4.3732269,12.400183 3.6371554,10.739718 3.2632692,9.8959653 3.0861136,9.1678923 2.9965304,8.0893275 2.9104545,7.0529911 2.9143294,5.6280348 2.9144991,3.5834681 Z"
     id="path1093"
     sodipodi:nodetypes="ccccccccsccccccccccscc" />
  <path
     style="color:#000000;fill:#666666;stroke:none;stroke-width:0.529167;stroke-linejoin:round;-inkscape-stroke:none"
     d="M 8.4666284,1.3229167 2.6458793,3.3998684 c 0,4.3729759 -0.019579,5.7117219 0.7492901,7.4468366 0.7693981,1.735644 1.8187147,2.878831 5.071459,4.763698 3.2527446,-1.884867 4.3020616,-3.027525 5.0714596,-4.763698 0.768869,-1.7351147 0.749819,-3.0743897 0.74929,-7.4468366 z"
     id="path1091"
     sodipodi:nodetypes="ccccccc" />
  <path
     id="path5064"
     style="color:#000000;fill:#ffffff;stroke:none;stroke-width:0.529168;-inkscape-stroke:none"
     d="M 32.009766,8.5585938 13.011719,15.509766 c -0.04581,24.414391 2.638246,29.544397 18.998047,40.050781 16.359799,-10.50638 18.998046,-40.050781 18.998046,-40.050781 z"
     sodipodi:nodetypes="ccccc"
     transform="scale(0.26458334)" />
  <path
     id="path5184"
     style="color:#000000;opacity:0.2;fill:#ffffff;stroke:none;stroke-width:0.529168;stroke-linejoin:round;-inkscape-stroke:none"
     d="M 32 5 L 10 12.849609 C 10 29.377393 9.9260701 34.43818 12.832031 40.996094 C 15.739993 47.556008 19.706163 51.876093 32 59 L 32 5 z "
     transform="scale(0.26458334)" />
  <path
     id="rect3414"
     style="fill:#ff5555;stroke-width:0.264583"
     d="M 6.6145834,4.7625001 4.4979167,8.9958336 h 0.79375 L 5.6223959,8.3343752 H 7.606771 l 0.3307291,0.6614584 h 0.7937501 z m 0,1.5875001 0.6614584,1.3229167 H 5.9531251 Z" />
  <path
     id="rect3992"
     style="fill:#ff5555;stroke-width:0.999999"
     d="M 47.359375 14.175781 C 40.889191 21.208484 33.5 29 33.5 29 L 34.75 31.5 L 42.25 31.5 L 43.5 29 L 46.5 29 L 38.5 45 L 31.412109 30.824219 L 18.679688 44.552734 C 18.858929 44.789961 19.04425 45.024771 19.234375 45.257812 C 19.422458 45.488351 19.615432 45.716272 19.814453 45.943359 C 19.817816 45.947196 19.820853 45.951242 19.824219 45.955078 C 20.020462 46.178733 20.22255 46.400161 20.429688 46.621094 C 20.441919 46.63414 20.454527 46.647119 20.466797 46.660156 C 20.671901 46.878094 20.881657 47.096586 21.097656 47.3125 C 21.546745 47.761412 22.019648 48.20631 22.517578 48.650391 C 23.0068 49.086705 23.52192 49.522268 24.060547 49.958984 C 24.077483 49.972716 24.094342 49.986265 24.111328 50 C 24.653791 50.438626 25.219842 50.878002 25.814453 51.322266 C 26.400498 51.760129 27.015412 52.204102 27.654297 52.652344 C 27.677288 52.668474 27.699596 52.683072 27.722656 52.699219 C 27.735507 52.708216 27.746893 52.71756 27.759766 52.726562 C 28.367129 53.151392 29.001529 53.580929 29.658203 54.019531 C 29.752226 54.082332 29.846351 54.145853 29.941406 54.208984 C 30.607384 54.651301 31.292044 55.099621 32.009766 55.560547 C 33.032253 54.903898 34.001604 54.269104 34.919922 53.648438 C 35.83824 53.027771 36.705898 52.420944 37.525391 51.824219 C 37.935137 51.525856 38.332708 51.230182 38.71875 50.935547 C 39.104792 50.640911 39.478791 50.347101 39.841797 50.054688 C 40.204803 49.762274 40.555846 49.471384 40.896484 49.179688 C 41.237123 48.887991 41.56778 48.595218 41.886719 48.302734 C 42.205657 48.01025 42.514593 47.718605 42.8125 47.423828 C 43.110407 47.129051 43.396285 46.831779 43.673828 46.533203 C 43.951371 46.234627 44.218715 45.934739 44.476562 45.630859 C 44.73441 45.32698 44.983836 45.019673 45.222656 44.708984 C 45.461476 44.398296 45.689696 44.082674 45.910156 43.763672 C 46.130617 43.44467 46.342152 43.12179 46.544922 42.792969 C 46.747691 42.464148 46.94316 42.129208 47.128906 41.789062 C 47.314652 41.448917 47.490765 41.102975 47.660156 40.75 C 47.829547 40.397025 47.990827 40.037231 48.144531 39.669922 C 48.298235 39.302612 48.445299 38.928071 48.583984 38.544922 C 48.72267 38.161773 48.854181 37.771588 48.978516 37.371094 C 49.10285 36.970599 49.219427 36.559969 49.330078 36.140625 C 49.44073 35.721281 49.544941 35.293215 49.642578 34.853516 C 49.740215 34.413816 49.830725 33.963513 49.916016 33.501953 C 50.001306 33.040393 50.080685 32.566957 50.154297 32.082031 C 50.227909 31.597105 50.296774 31.099641 50.359375 30.589844 C 50.421976 30.080047 50.478991 29.557657 50.53125 29.021484 C 50.583509 28.485312 50.631243 27.935148 50.673828 27.371094 C 50.716413 26.80704 50.753531 26.228206 50.787109 25.634766 C 50.820688 25.041325 50.849759 24.432926 50.875 23.808594 C 50.925482 22.55993 50.961284 21.248448 50.982422 19.867188 C 51.00356 18.485927 51.010673 17.035665 51.007812 15.509766 L 47.359375 14.175781 z M 36 34 L 38.5 39 L 41 34 L 36 34 z "
     transform="scale(0.26458334)" />
</svg>
