<?xml version="1.0" encoding="UTF-8" standalone="no"?>
<!-- Created with Inkscape (http://www.inkscape.org/) -->

<svg
   width="48"
   height="48"
   viewBox="0 0 12.7 12.7"
   version="1.1"
   id="svg843"
   inkscape:version="1.1.2 (0a00cf5339, 2022-02-04, custom)"
   sodipodi:docname="folder-default-music.svg"
   xmlns:inkscape="http://www.inkscape.org/namespaces/inkscape"
   xmlns:sodipodi="http://sodipodi.sourceforge.net/DTD/sodipodi-0.dtd"
   xmlns="http://www.w3.org/2000/svg"
   xmlns:svg="http://www.w3.org/2000/svg">
  <sodipodi:namedview
     id="namedview845"
     pagecolor="#ffffff"
     bordercolor="#666666"
     borderopacity="1.0"
     inkscape:pageshadow="2"
     inkscape:pageopacity="0.0"
     inkscape:pagecheckerboard="0"
     inkscape:document-units="px"
     showgrid="false"
     units="px"
     showguides="false"
     inkscape:zoom="16.708333"
     inkscape:cx="24"
     inkscape:cy="24"
     inkscape:window-width="1920"
     inkscape:window-height="1020"
     inkscape:window-x="0"
     inkscape:window-y="0"
     inkscape:window-maximized="1"
     inkscape:current-layer="svg843" />
  <defs
     id="defs840" />
  <path
     id="rect3280"
     style="opacity:0.3;fill:#000000;fill-opacity:1;stroke:none;stroke-width:0.529167;stroke-linejoin:round;stroke-miterlimit:4;stroke-dasharray:none;stroke-opacity:1"
     d="m 2.38125,1.3229166 c -0.2931584,0 -0.5291667,0.2360083 -0.5291667,0.5291667 H 1.3229166 c -0.2931583,0 -0.52916661,0.2360084 -0.52916661,0.5291667 v 4.2333332 c 0,0.2931584 0.23600831,0.5291667 0.52916661,0.5291667 H 11.377083 c 0.293159,0 0.529167,-0.2360083 0.529167,-0.5291667 V 2.38125 c 0,-0.2931583 -0.236008,-0.5291667 -0.529167,-0.5291667 H 6.0854166 c 0,-0.2931584 -0.2360083,-0.5291667 -0.5291667,-0.5291667 z" />
  <path
     id="rect4040"
     style="fill:#ffffff;fill-opacity:1;stroke:none;stroke-width:0.529167;stroke-linejoin:round;stroke-miterlimit:4;stroke-dasharray:none;stroke-opacity:1"
     d="m 2.38125,1.5875 c -0.1465792,0 -0.2645834,0.1180041 -0.2645834,0.2645833 v 0.2645833 h -0.79375 c -0.1465791,0 -0.2645833,0.1180042 -0.2645833,0.2645834 v 3.9687499 c 0,0.1465792 0.1180042,0.2645833 0.2645833,0.2645833 H 11.377083 c 0.146579,0 0.264584,-0.1180041 0.264584,-0.2645833 V 2.38125 c 0,-0.1465792 -0.118005,-0.2645834 -0.264584,-0.2645834 H 5.8208333 V 1.8520833 C 5.8208333,1.7055041 5.7028291,1.5875 5.5562499,1.5875 Z" />
  <path
     style="color:#000000;opacity:0.6;fill:#276a23;fill-opacity:1;stroke-linejoin:round;-inkscape-stroke:none"
     d="M 6.3535156,2.6458821 C 6.1608625,2.6431877 6.0297481,2.7525156 5.9375,2.8548665 5.8452519,2.9572173 5.7768103,3.0739138 5.71875,3.1849446 L 5.7324219,3.159554 5.546875,3.4388508 H 0.54296875 C 0.23866706,3.4232456 0,3.6793347 0,3.9681477 v 6.8797043 c 0,0.288582 0.2407155,0.529297 0.52929687,0.529297 H 12.170768 c 0.288581,0 0.529297,-0.240715 0.529297,-0.529297 V 3.175179 c 0,-0.2885814 -0.240715,-0.5292969 -0.529297,-0.5292969 z m -0.00781,0.5292969 c 0.0013,9.6e-6 0.00261,9.6e-6 0.00391,0 h 5.8211524 v 7.672673 H 0.52929687 V 3.9681477 H 5.6894531 c 0.087849,-3.286e-4 0.169807,-0.044235 0.21875,-0.1171875 l 0.265625,-0.3984375 c 0.00496,-0.00757 0.00952,-0.015396 0.013672,-0.023437 0.046438,-0.088806 0.1005247,-0.1720911 0.1425781,-0.21875 0.042053,-0.046659 0.056234,-0.034588 0.015625,-0.035156 z"
     id="path2904"
     sodipodi:nodetypes="csccccssssssscscccccccccscs" />
  <path
     style="color:#000000;fill:#82be6c;fill-opacity:1;stroke-width:0.529167;stroke-linejoin:round;-inkscape-stroke:none"
     d="M 0.52916682,3.7041666 H 5.6885417 L 5.953125,3.3072917 C 6.0576238,3.1074551 6.1979555,2.9082904 6.35,2.9104168 h 5.820833 c 0.14658,0 0.264584,0.1180042 0.264584,0.2645834 v 7.6729168 c 0,0.146579 -0.118004,0.264583 -0.264584,0.264583 H 0.52916682 c -0.14657916,0 -0.26458332,-0.118004 -0.26458332,-0.264583 V 3.96875 c 0,-0.1465792 0.11819652,-0.2720904 0.26458332,-0.2645834 z"
     id="path2902" />
  <path
     id="path846"
     style="opacity:0.3;fill:#000000;stroke-width:2;stroke-linejoin:round"
     d="M 20 20 L 20 31.636719 A 3 2.4999999 0 0 0 18 31 A 3 2.4999999 0 0 0 15 33.5 A 3 2.4999999 0 0 0 18 36 A 3 2.4999999 0 0 0 21 33.5 A 3 2.4999999 0 0 0 21 33.498047 A 3 2.4999999 0 0 0 21 33.496094 A 3 2.4999999 0 0 0 21 33.490234 A 3 2.4999999 0 0 0 21 33.488281 A 3 2.4999999 0 0 0 21 33.486328 A 3 2.4999999 0 0 0 21 33.484375 A 3 2.4999999 0 0 0 21 33.478516 A 3 2.4999999 0 0 0 21 33.476562 A 3 2.4999999 0 0 0 21 33.474609 A 3 2.4999999 0 0 0 21 33.472656 A 3 2.4999999 0 0 0 21 33.466797 A 3 2.4999999 0 0 0 21 33.464844 A 3 2.4999999 0 0 0 21 33.462891 A 3 2.4999999 0 0 0 21 33.460938 A 3 2.4999999 0 0 0 21 33.458984 A 3 2.4999999 0 0 0 21 33.453125 A 3 2.4999999 0 0 0 21 33.451172 A 3 2.4999999 0 0 0 21 33.449219 A 3 2.4999999 0 0 0 21 33.447266 A 3 2.4999999 0 0 0 21 33.441406 A 3 2.4999999 0 0 0 21 33.439453 L 21 24 L 30 24 L 30 30.636719 A 3 2.4999999 0 0 0 28 30 A 3 2.4999999 0 0 0 25 32.5 A 3 2.4999999 0 0 0 28 35 A 3 2.4999999 0 0 0 31 32.5 A 3 2.4999999 0 0 0 31 32.498047 A 3 2.4999999 0 0 0 31 32.496094 A 3 2.4999999 0 0 0 31 32.490234 A 3 2.4999999 0 0 0 31 32.488281 A 3 2.4999999 0 0 0 31 32.486328 A 3 2.4999999 0 0 0 31 32.484375 A 3 2.4999999 0 0 0 31 32.478516 A 3 2.4999999 0 0 0 31 32.476562 A 3 2.4999999 0 0 0 31 32.474609 A 3 2.4999999 0 0 0 31 32.472656 A 3 2.4999999 0 0 0 31 32.466797 A 3 2.4999999 0 0 0 31 32.464844 A 3 2.4999999 0 0 0 31 32.462891 A 3 2.4999999 0 0 0 31 32.460938 A 3 2.4999999 0 0 0 31 32.458984 A 3 2.4999999 0 0 0 31 32.453125 A 3 2.4999999 0 0 0 31 32.451172 A 3 2.4999999 0 0 0 31 32.449219 A 3 2.4999999 0 0 0 31 32.447266 A 3 2.4999999 0 0 0 31 32.441406 A 3 2.4999999 0 0 0 31 32.439453 L 31 20 L 20 20 z M 21 21 L 30 21 L 30 23 L 21 23 L 21 21 z M 28 31 A 1.9999999 1.5 0 0 1 30 32.5 A 1.9999999 1.5 0 0 1 28 34 A 1.9999999 1.5 0 0 1 26 32.5 A 1.9999999 1.5 0 0 1 28 31 z M 18 32 A 1.9999999 1.5 0 0 1 20 33.5 A 1.9999999 1.5 0 0 1 18 35 A 1.9999999 1.5 0 0 1 16 33.5 A 1.9999999 1.5 0 0 1 18 32 z "
     transform="scale(0.26458333)" />
  <path
     id="path1509"
     style="opacity:0.15;fill:#000000;stroke-width:2;stroke-linejoin:round"
     d="M 21 21 L 21 23 L 30 23 L 30 21 L 21 21 z M 28 31 A 1.9999999 1.5 0 0 0 26 32.5 A 1.9999999 1.5 0 0 0 28 34 A 1.9999999 1.5 0 0 0 30 32.5 A 1.9999999 1.5 0 0 0 28 31 z M 18 32 A 1.9999999 1.5 0 0 0 16 33.5 A 1.9999999 1.5 0 0 0 18 35 A 1.9999999 1.5 0 0 0 20 33.5 A 1.9999999 1.5 0 0 0 18 32 z "
     transform="scale(0.26458333)" />
</svg>
