<?xml version="1.0" encoding="UTF-8" standalone="no"?>
<!-- Created with Inkscape (http://www.inkscape.org/) -->

<svg
   width="48"
   height="48"
   viewBox="0 0 12.7 12.7"
   version="1.1"
   id="svg843"
   inkscape:version="1.1.2 (0a00cf5339, 2022-02-04, custom)"
   sodipodi:docname="folder-default-videos.svg"
   xmlns:inkscape="http://www.inkscape.org/namespaces/inkscape"
   xmlns:sodipodi="http://sodipodi.sourceforge.net/DTD/sodipodi-0.dtd"
   xmlns="http://www.w3.org/2000/svg"
   xmlns:svg="http://www.w3.org/2000/svg">
  <sodipodi:namedview
     id="namedview845"
     pagecolor="#ffffff"
     bordercolor="#666666"
     borderopacity="1.0"
     inkscape:pageshadow="2"
     inkscape:pageopacity="0.0"
     inkscape:pagecheckerboard="0"
     inkscape:document-units="px"
     showgrid="false"
     units="px"
     showguides="false"
     inkscape:zoom="27.270665"
     inkscape:cx="26.365327"
     inkscape:cy="28.43715"
     inkscape:window-width="1625"
     inkscape:window-height="945"
     inkscape:window-x="23"
     inkscape:window-y="15"
     inkscape:window-maximized="0"
     inkscape:current-layer="svg843" />
  <defs
     id="defs840" />
  <path
     id="rect3280"
     style="opacity:0.3;fill:#000000;fill-opacity:1;stroke:none;stroke-width:0.529167;stroke-linejoin:round;stroke-miterlimit:4;stroke-dasharray:none;stroke-opacity:1"
     d="m 2.38125,1.3229166 c -0.2931584,0 -0.5291667,0.2360083 -0.5291667,0.5291667 H 1.3229166 c -0.2931583,0 -0.52916661,0.2360084 -0.52916661,0.5291667 v 4.2333332 c 0,0.2931584 0.23600831,0.5291667 0.52916661,0.5291667 H 11.377083 c 0.293159,0 0.529167,-0.2360083 0.529167,-0.5291667 V 2.38125 c 0,-0.2931583 -0.236008,-0.5291667 -0.529167,-0.5291667 H 6.0854166 c 0,-0.2931584 -0.2360083,-0.5291667 -0.5291667,-0.5291667 z" />
  <path
     id="rect4040"
     style="fill:#ffffff;fill-opacity:1;stroke:none;stroke-width:0.529167;stroke-linejoin:round;stroke-miterlimit:4;stroke-dasharray:none;stroke-opacity:1"
     d="m 2.38125,1.5875 c -0.1465792,0 -0.2645834,0.1180041 -0.2645834,0.2645833 v 0.2645833 h -0.79375 c -0.1465791,0 -0.2645833,0.1180042 -0.2645833,0.2645834 v 3.9687499 c 0,0.1465792 0.1180042,0.2645833 0.2645833,0.2645833 H 11.377083 c 0.146579,0 0.264584,-0.1180041 0.264584,-0.2645833 V 2.38125 c 0,-0.1465792 -0.118005,-0.2645834 -0.264584,-0.2645834 H 5.8208333 V 1.8520833 C 5.8208333,1.7055041 5.7028291,1.5875 5.5562499,1.5875 Z" />
  <path
     style="color:#000000;opacity:0.6;fill:#4d4d4d;fill-opacity:1;stroke-linejoin:round;-inkscape-stroke:none"
     d="M 6.3535156,2.6458821 C 6.1608625,2.6431877 6.0297481,2.7525156 5.9375,2.8548665 5.8452519,2.9572173 5.7768103,3.0739138 5.71875,3.1849446 L 5.7324219,3.159554 5.546875,3.4388508 H 0.54296875 C 0.23866706,3.4232456 0,3.6793347 0,3.9681477 v 6.8797043 c 0,0.288582 0.2407155,0.529297 0.52929687,0.529297 H 12.170768 c 0.288581,0 0.529297,-0.240715 0.529297,-0.529297 V 3.175179 c 0,-0.2885814 -0.240715,-0.5292969 -0.529297,-0.5292969 z m -0.00781,0.5292969 c 0.0013,9.6e-6 0.00261,9.6e-6 0.00391,0 h 5.8211524 v 7.672673 H 0.52929687 V 3.9681477 H 5.6894531 c 0.087849,-3.286e-4 0.169807,-0.044235 0.21875,-0.1171875 l 0.265625,-0.3984375 c 0.00496,-0.00757 0.00952,-0.015396 0.013672,-0.023437 0.046438,-0.088806 0.1005247,-0.1720911 0.1425781,-0.21875 0.042053,-0.046659 0.056234,-0.034588 0.015625,-0.035156 z"
     id="path2904"
     sodipodi:nodetypes="csccccssssssscscccccccccscs" />
  <path
     style="color:#000000;fill:#b3b3b3;fill-opacity:1;stroke-width:0.529167;stroke-linejoin:round;-inkscape-stroke:none"
     d="M 0.52916682,3.7041666 H 5.6885417 L 5.953125,3.3072917 C 6.0576238,3.1074551 6.1979555,2.9082904 6.35,2.9104168 h 5.820833 c 0.14658,0 0.264584,0.1180042 0.264584,0.2645834 v 7.6729168 c 0,0.146579 -0.118004,0.264583 -0.264584,0.264583 H 0.52916682 c -0.14657916,0 -0.26458332,-0.118004 -0.26458332,-0.264583 V 3.96875 c 0,-0.1465792 0.11819652,-0.2720904 0.26458332,-0.2645834 z"
     id="path2902" />
  <path
     id="rect868"
     style="opacity:0.3;fill:#000000;stroke-width:2;stroke-linejoin:round"
     d="M 18 20 L 18 37 L 30 37 L 30 20 L 18 20 z M 19 21 L 20 21 L 20 22 L 19 22 L 19 21 z M 21 21 L 27 21 L 27 28 L 21 28 L 21 21 z M 28 21 L 29 21 L 29 22 L 28 22 L 28 21 z M 19 23 L 20 23 L 20 24 L 19 24 L 19 23 z M 28 23 L 29 23 L 29 24 L 28 24 L 28 23 z M 19 25 L 20 25 L 20 26 L 19 26 L 19 25 z M 28 25 L 29 25 L 29 26 L 28 26 L 28 25 z M 19 27 L 20 27 L 20 28 L 19 28 L 19 27 z M 28 27 L 29 27 L 29 28 L 28 28 L 28 27 z M 19 29 L 20 29 L 20 30 L 19 30 L 19 29 z M 21 29 L 27 29 L 27 36 L 21 36 L 21 29 z M 28 29 L 29 29 L 29 30 L 28 30 L 28 29 z M 19 31 L 20 31 L 20 32 L 19 32 L 19 31 z M 28 31 L 29 31 L 29 32 L 28 32 L 28 31 z M 19 33 L 20 33 L 20 34 L 19 34 L 19 33 z M 28 33 L 29 33 L 29 34 L 28 34 L 28 33 z M 19 35 L 20 35 L 20 36 L 19 36 L 19 35 z M 28 35 L 29 35 L 29 36 L 28 36 L 28 35 z "
     transform="scale(0.26458333)" />
  <path
     id="rect1138"
     style="opacity:0.15;fill:#000000;stroke-width:0.529167;stroke-linejoin:round"
     d="m 5.55625,5.55625 v 1.8520833 h 1.5875 V 5.55625 Z m 0,2.1166667 V 9.525 h 1.5875 V 7.6729167 Z" />
</svg>
