<?xml version="1.0" encoding="UTF-8" standalone="no"?>
<!-- Created with Inkscape (http://www.inkscape.org/) -->

<svg
   width="48"
   height="48"
   viewBox="0 0 12.699999 12.700001"
   version="1.1"
   id="svg2469"
   inkscape:version="1.1.2 (0a00cf5339, 2022-02-04, custom)"
   sodipodi:docname="user-trash.svg"
   xmlns:inkscape="http://www.inkscape.org/namespaces/inkscape"
   xmlns:sodipodi="http://sodipodi.sourceforge.net/DTD/sodipodi-0.dtd"
   xmlns="http://www.w3.org/2000/svg"
   xmlns:svg="http://www.w3.org/2000/svg">
  <sodipodi:namedview
     id="namedview2471"
     pagecolor="#ffffff"
     bordercolor="#666666"
     borderopacity="1.0"
     inkscape:pageshadow="2"
     inkscape:pageopacity="0.0"
     inkscape:pagecheckerboard="0"
     inkscape:document-units="px"
     showgrid="false"
     units="px"
     inkscape:zoom="16.708333"
     inkscape:cx="24"
     inkscape:cy="24"
     inkscape:window-width="1920"
     inkscape:window-height="1020"
     inkscape:window-x="0"
     inkscape:window-y="32"
     inkscape:window-maximized="1"
     inkscape:current-layer="svg2469" />
  <defs
     id="defs2466" />
  <path
     style="color:#000000;fill:#d8d8d8;stroke:none;stroke-width:0.264583;stroke-linecap:round;stroke-linejoin:bevel;-inkscape-stroke:none"
     d="m 2.0226155,2.457731 1.5492595,8.522478 a 2.778125,1.0583332 0 0 0 2.7781249,1.058333 2.778125,1.0583332 0 0 0 2.778125,-1.058333 L 10.677384,2.457731 A 4.3656249,1.5875 0 0 1 6.3499999,3.8364583 4.3656249,1.5875 0 0 1 2.0226155,2.457731 Z"
     id="path3140" />
  <path
     style="color:#000000;opacity:0.3;fill:#000000;stroke:none;stroke-width:0.264583;stroke-linecap:round;stroke-linejoin:bevel;-inkscape-stroke:none"
     d="m 2.146639,2.412256 -0.2542481,0.069246 1.5492596,8.522478 -0.00207,-0.02377 c 0,0.193044 0.1036108,0.36739 0.2619994,0.510046 0.1583888,0.142656 0.3748236,0.26199 0.6366536,0.361735 0.5236605,0.199489 1.230988,0.318844 2.0117636,0.318844 0.7807756,0 1.4881032,-0.119355 2.0117636,-0.318844 0.2618301,-0.09975 0.4782648,-0.219079 0.6366536,-0.361735 C 9.1568029,11.3476 9.2604138,11.173254 9.2604138,10.98021 L 9.2583538,11.00398 10.807613,2.481502 10.553365,2.412256 C 10.437067,2.7310337 9.9415302,3.0765596 9.1865227,3.317109 8.4315116,3.5576595 7.4326402,3.7041375 6.3499999,3.7041667 5.2673596,3.7041373 4.2684882,3.5576595 3.5134806,3.3171101 2.758473,3.0765607 2.2629364,2.7310347 2.146639,2.412256 Z m 0.1018025,0.54777 C 2.5281216,3.2049559 2.9291872,3.4086519 3.4333823,3.5692911 4.2228365,3.8208154 5.2436082,3.9687201 6.3499999,3.96875 7.4563916,3.9687201 8.4771634,3.8208154 9.2666176,3.5692911 9.7708126,3.4086519 10.171878,3.2049559 10.451558,2.960026 l -1.4536579,7.996411 -0.00207,0.02377 c 0,0.09921 -0.051894,0.203098 -0.1746663,0.313675 -0.1227724,0.110578 -0.3130602,0.219317 -0.5539713,0.311093 -0.4818221,0.183551 -1.1636565,0.301273 -1.9171957,0.301273 -0.7535391,0 -1.4353735,-0.117722 -1.9171957,-0.301273 C 4.1918932,11.513201 4.0016054,11.404462 3.8788329,11.293884 3.7560604,11.183307 3.7041666,11.079415 3.7041666,10.980209 l -0.00206,-0.02377 z"
     id="path3142" />
  <ellipse
     style="opacity:1;fill:#b3b3b3;fill-opacity:1;stroke-width:0.489913;stroke-linecap:round;stroke-linejoin:round"
     id="path1252"
     cx="6.3499999"
     cy="2.2489583"
     rx="4.3656249"
     ry="1.5875" />
  <path
     id="path846"
     style="opacity:0.2;fill:#000000;stroke-width:0.529167;stroke-linecap:round;stroke-linejoin:round"
     d="M 6.3499999,0.52916667 A 4.4979166,1.7197916 0 0 0 1.8520833,2.2489583 4.4979166,1.7197916 0 0 0 6.3499999,3.96875 4.4979166,1.7197916 0 0 0 10.847917,2.2489583 4.4979166,1.7197916 0 0 0 6.3499999,0.52916667 Z m 0,0.26458333 A 4.233333,1.4552083 0 0 1 10.583333,2.2489583 4.233333,1.4552083 0 0 1 6.3499999,3.7041666 4.233333,1.4552083 0 0 1 2.1166666,2.2489583 4.233333,1.4552083 0 0 1 6.3499999,0.79375 Z" />
</svg>
