<?xml version="1.0" encoding="UTF-8" standalone="no"?>
<!-- Created with Inkscape (http://www.inkscape.org/) -->

<svg
   width="48"
   height="48"
   viewBox="0 0 12.699999 12.700001"
   version="1.1"
   id="svg2469"
   inkscape:version="1.1.2 (0a00cf5339, 2022-02-04, custom)"
   sodipodi:docname="user-trash-full.svg"
   xmlns:inkscape="http://www.inkscape.org/namespaces/inkscape"
   xmlns:sodipodi="http://sodipodi.sourceforge.net/DTD/sodipodi-0.dtd"
   xmlns="http://www.w3.org/2000/svg"
   xmlns:svg="http://www.w3.org/2000/svg">
  <sodipodi:namedview
     id="namedview2471"
     pagecolor="#ffffff"
     bordercolor="#666666"
     borderopacity="1.0"
     inkscape:pageshadow="2"
     inkscape:pageopacity="0.0"
     inkscape:pagecheckerboard="0"
     inkscape:document-units="px"
     showgrid="false"
     units="px"
     inkscape:zoom="16.708333"
     inkscape:cx="24.029925"
     inkscape:cy="24.029925"
     inkscape:window-width="1541"
     inkscape:window-height="945"
     inkscape:window-x="32"
     inkscape:window-y="51"
     inkscape:window-maximized="0"
     inkscape:current-layer="svg2469" />
  <defs
     id="defs2466" />
  <ellipse
     style="opacity:1;fill:#b3b3b3;fill-opacity:1;stroke-width:0.489913;stroke-linecap:round;stroke-linejoin:round"
     id="path1252"
     cx="6.3499999"
     cy="2.2489583"
     rx="4.3656249"
     ry="1.5875" />
  <g
     id="g3602"
     transform="rotate(-6,11.91698,7.5267546)">
    <path
       d="M 7.003713,1.3229829 10.837232,2.350171 9.3991673,7.7170964 5.5656497,6.6899083 Z"
       style="fill:#fafafa;stroke-width:0.0700042;stroke-linecap:round;stroke-linejoin:bevel"
       id="path3184-5"
       sodipodi:nodetypes="ccccc" />
    <path
       d="M 7.0379524,1.1951988 C 6.9671596,1.1762345 6.8948976,1.217951 6.8759289,1.2887431 L 5.4378656,6.6556686 c -0.018964,0.070793 0.022752,0.1430549 0.093544,0.1620236 l 3.8335177,1.027188 c 0.07079,0.018964 0.143056,-0.022752 0.162024,-0.093544 L 10.965016,2.3844108 c 0.01894,-0.070796 -0.02275,-0.1430545 -0.09354,-0.1620235 z m 0.059305,0.2898075 3.5779506,0.958709 -1.3695847,5.1113575 -3.57795,-0.9587089 z"
       style="opacity:0.2;fill:#4f6698;fill-opacity:1;stroke:none;stroke-width:0.0775523;stroke-linecap:round;stroke-linejoin:bevel;stroke-miterlimit:4;stroke-dasharray:none;stroke-opacity:1"
       id="path3384-6"
       sodipodi:nodetypes="cccccccccccccc" />
  </g>
  <g
     id="g4014"
     transform="rotate(10,11.278897,-4.3238902)">
    <path
       d="M 6.3821577,1.8705441 10.302047,2.4913933 9.4328563,7.9792368 5.5129687,7.3583874 Z"
       style="fill:#fafafa;stroke-width:0.0700042;stroke-linecap:round;stroke-linejoin:bevel"
       id="path3184-5-9"
       sodipodi:nodetypes="ccccc" />
    <path
       d="M 6.4028524,1.739881 C 6.3304651,1.7284204 6.2629595,1.7774618 6.2514945,1.8498489 L 5.3823056,7.3376924 c -0.01146,0.072387 0.037581,0.139893 0.1099676,0.151358 L 9.4121609,8.1098996 C 9.4845454,8.1213602 9.552055,8.0723188 9.5635193,7.9999319 L 10.43271,2.5120884 C 10.44415,2.4397004 10.39513,2.3721956 10.322746,2.3607301 Z M 6.4921257,2.0219018 10.150688,2.6013612 9.3228886,7.8278788 5.6643267,7.2484194 Z"
       style="opacity:0.2;fill:#4f6698;fill-opacity:1;stroke:none;stroke-width:0.0775523;stroke-linecap:round;stroke-linejoin:bevel;stroke-miterlimit:4;stroke-dasharray:none;stroke-opacity:1"
       id="path3384-6-3"
       sodipodi:nodetypes="cccccccccccccc" />
  </g>
  <g
     id="g3942"
     transform="rotate(-15,5.1201938,15.163987)">
    <path
       d="m 5.9531251,1.9843759 3.9687509,-2e-7 -1.3e-6,5.5562504 -3.9687495,-2e-7 z"
       style="fill:#fafafa;stroke-width:0.0700042;stroke-linecap:round;stroke-linejoin:bevel"
       id="path3184-5-6"
       sodipodi:nodetypes="ccccc" />
    <path
       d="m 5.9531249,1.8520841 c -0.073289,4.4e-6 -0.1322916,0.059002 -0.1322916,0.1322916 v 5.5562502 c 4.8e-6,0.073289 0.059002,0.1322917 0.1322914,0.1322918 h 3.9687496 c 0.073286,-4e-6 0.1322927,-0.059002 0.1322917,-0.1322915 l 2e-6,-5.5562504 c -2.9e-5,-0.073286 -0.059,-0.1322919 -0.1322877,-0.1322927 z m 0.1322919,0.2645833 h 3.7041671 l -6e-7,5.2916668 H 6.0854169 Z"
       style="opacity:0.2;fill:#4f6698;fill-opacity:1;stroke:none;stroke-width:0.0775523;stroke-linecap:round;stroke-linejoin:bevel;stroke-miterlimit:4;stroke-dasharray:none;stroke-opacity:1"
       id="path3384-6-2"
       sodipodi:nodetypes="cccccccccccccc" />
  </g>
  <g
     id="g3969"
     transform="rotate(-3,13.165156,0.11076714)">
    <path
       d="m 3.8149943,2.0322957 3.9687508,-2e-7 -1.3e-6,5.5562504 -3.9687495,-2e-7 z"
       style="fill:#fafafa;stroke-width:0.0700042;stroke-linecap:round;stroke-linejoin:bevel"
       id="path3184-5-1"
       sodipodi:nodetypes="ccccc" />
    <path
       d="m 3.814994,1.9000039 c -0.073289,4.5e-6 -0.1322916,0.059002 -0.1322916,0.1322917 v 5.5562501 c 4.8e-6,0.073289 0.059002,0.1322918 0.1322914,0.1322918 h 3.9687496 c 0.073286,-4e-6 0.1322928,-0.059002 0.1322922,-0.1322914 l 1.3e-6,-5.5562504 C 7.9160082,1.95901 7.8570369,1.9000038 7.7837494,1.9000029 Z m 0.132292,0.2645833 3.704167,10e-8 -6e-7,5.2916668 -3.7041664,-10e-8 z"
       style="opacity:0.2;fill:#4f6698;fill-opacity:1;stroke:none;stroke-width:0.0775523;stroke-linecap:round;stroke-linejoin:bevel;stroke-miterlimit:4;stroke-dasharray:none;stroke-opacity:1"
       id="path3384-6-27"
       sodipodi:nodetypes="cccccccccccccc" />
  </g>
  <path
     style="color:#000000;fill:#d8d8d8;stroke:none;stroke-width:0.264583;stroke-linecap:round;stroke-linejoin:bevel;-inkscape-stroke:none"
     d="m 2.0226155,2.457731 1.5492595,8.522478 a 2.778125,1.0583332 0 0 0 2.7781249,1.058333 2.778125,1.0583332 0 0 0 2.778125,-1.058333 L 10.677384,2.457731 A 4.3656249,1.5875 0 0 1 6.3499999,3.8364583 4.3656249,1.5875 0 0 1 2.0226155,2.457731 Z"
     id="path3140" />
  <path
     style="color:#000000;opacity:0.3;fill:#000000;stroke:none;stroke-width:0.264583;stroke-linecap:round;stroke-linejoin:bevel;-inkscape-stroke:none"
     d="m 2.146639,2.412256 -0.2542481,0.069246 1.5492596,8.522478 -0.00207,-0.02377 c 0,0.193044 0.1036108,0.36739 0.2619994,0.510046 0.1583888,0.142656 0.3748236,0.26199 0.6366536,0.361735 0.5236605,0.199489 1.230988,0.318844 2.0117636,0.318844 0.7807756,0 1.4881032,-0.119355 2.0117636,-0.318844 0.2618301,-0.09975 0.4782648,-0.219079 0.6366536,-0.361735 C 9.1568029,11.3476 9.2604138,11.173254 9.2604138,10.98021 L 9.2583538,11.00398 10.807613,2.481502 10.553365,2.412256 C 10.437067,2.7310337 9.9415302,3.0765596 9.1865227,3.317109 8.4315116,3.5576595 7.4326402,3.7041375 6.3499999,3.7041667 5.2673596,3.7041373 4.2684882,3.5576595 3.5134806,3.3171101 2.758473,3.0765607 2.2629364,2.7310347 2.146639,2.412256 Z m 0.1018025,0.54777 C 2.5281216,3.2049559 2.9291872,3.4086519 3.4333823,3.5692911 4.2228365,3.8208154 5.2436082,3.9687201 6.3499999,3.96875 7.4563916,3.9687201 8.4771634,3.8208154 9.2666176,3.5692911 9.7708126,3.4086519 10.171878,3.2049559 10.451558,2.960026 l -1.4536579,7.996411 -0.00207,0.02377 c 0,0.09921 -0.051894,0.203098 -0.1746663,0.313675 -0.1227724,0.110578 -0.3130602,0.219317 -0.5539713,0.311093 -0.4818221,0.183551 -1.1636565,0.301273 -1.9171957,0.301273 -0.7535391,0 -1.4353735,-0.117722 -1.9171957,-0.301273 C 4.1918932,11.513201 4.0016054,11.404462 3.8788329,11.293884 3.7560604,11.183307 3.7041666,11.079415 3.7041666,10.980209 l -0.00206,-0.02377 z"
     id="path3142" />
  <path
     id="path846"
     style="opacity:0.2;fill:#000000;stroke-width:0.529167;stroke-linecap:round;stroke-linejoin:round"
     d="M 6.3499999,0.52916667 A 4.4979166,1.7197916 0 0 0 1.8520833,2.2489583 4.4979166,1.7197916 0 0 0 6.3499999,3.96875 4.4979166,1.7197916 0 0 0 10.847917,2.2489583 4.4979166,1.7197916 0 0 0 6.3499999,0.52916667 Z m 0,0.26458333 A 4.233333,1.4552083 0 0 1 10.583333,2.2489583 4.233333,1.4552083 0 0 1 6.3499999,3.7041666 4.233333,1.4552083 0 0 1 2.1166666,2.2489583 4.233333,1.4552083 0 0 1 6.3499999,0.79375 Z" />
</svg>
