<?xml version="1.0" encoding="UTF-8" standalone="no"?>
<!-- Created with Inkscape (http://www.inkscape.org/) -->

<svg
   width="96"
   height="96"
   viewBox="0 0 25.399999 25.400001"
   version="1.1"
   id="svg5"
   inkscape:version="1.1.2 (0a00cf5339, 2022-02-04, custom)"
   sodipodi:docname="user-trash-full.svg"
   xmlns:inkscape="http://www.inkscape.org/namespaces/inkscape"
   xmlns:sodipodi="http://sodipodi.sourceforge.net/DTD/sodipodi-0.dtd"
   xmlns="http://www.w3.org/2000/svg"
   xmlns:svg="http://www.w3.org/2000/svg">
  <sodipodi:namedview
     id="namedview7"
     pagecolor="#ffffff"
     bordercolor="#666666"
     borderopacity="1.0"
     inkscape:pageshadow="2"
     inkscape:pageopacity="0.0"
     inkscape:pagecheckerboard="0"
     inkscape:document-units="px"
     showgrid="false"
     units="px"
     height="96px"
     inkscape:zoom="8.3229167"
     inkscape:cx="48"
     inkscape:cy="48"
     inkscape:window-width="1920"
     inkscape:window-height="1019"
     inkscape:window-x="0"
     inkscape:window-y="31"
     inkscape:window-maximized="1"
     inkscape:current-layer="svg5"
     showguides="false" />
  <defs
     id="defs2" />
  <ellipse
     style="fill:#b3b3b3;fill-opacity:1;stroke-width:0.507651;stroke-linejoin:round"
     id="path986"
     cx="12.7"
     cy="5.0270834"
     rx="8.8635416"
     ry="3.3072917" />
  <g
     id="g13974"
     transform="rotate(-15,23.838474,2.5069168)">
    <rect
       style="fill:#fafafa;fill-opacity:1;stroke:none;stroke-width:0.264583;stroke-linecap:square;stroke-linejoin:miter;stroke-miterlimit:4;stroke-dasharray:none;stroke-opacity:1"
       id="rect7283-6-6"
       width="8.2020836"
       height="10.847917"
       x="11.633098"
       y="-1.8632967"
       transform="rotate(20)" />
    <path
       id="rect9298-2-0"
       style="opacity:0.3;fill:#4f6698;fill-opacity:1;stroke:none;stroke-width:0.264583;stroke-linecap:square;stroke-linejoin:miter;stroke-miterlimit:4;stroke-dasharray:none;stroke-opacity:1"
       d="m 11.73838,2.1487602 c -0.137739,-0.050133 -0.288986,0.020395 -0.339119,0.1581343 L 7.7795476,12.251975 c -0.050133,0.137739 0.020395,0.288986 0.158134,0.339119 l 7.4588104,2.714785 c 0.137739,0.05013 0.288986,-0.02039 0.339119,-0.158134 L 19.355324,5.2026649 C 19.405457,5.0649255 19.33493,4.913678 19.19719,4.8635451 Z m -0.09049,0.2486271 7.458811,2.7147848 -3.619714,9.9450799 -7.4588097,-2.714785 z" />
  </g>
  <g
     id="g13839"
     transform="rotate(20,23.910198,2.9128108)">
    <rect
       style="fill:#fafafa;fill-opacity:1;stroke:none;stroke-width:0.264583;stroke-linecap:square;stroke-linejoin:miter;stroke-miterlimit:4;stroke-dasharray:none;stroke-opacity:1"
       id="rect7283-6"
       width="8.2020836"
       height="10.847917"
       x="12.078819"
       y="6.7547202" />
    <path
       id="rect9298-2"
       style="opacity:0.3;fill:#4f6698;fill-opacity:1;stroke:none;stroke-width:0.264583;stroke-linecap:square;stroke-linejoin:miter;stroke-miterlimit:4;stroke-dasharray:none;stroke-opacity:1"
       d="m 12.21111,6.6224285 c -0.146579,0 -0.264583,0.1180042 -0.264583,0.2645834 V 17.470345 c 0,0.146579 0.118004,0.264583 0.264583,0.264583 h 7.9375 c 0.146579,0 0.264583,-0.118004 0.264583,-0.264583 V 6.8870119 c 0,-0.1465792 -0.118004,-0.2645834 -0.264583,-0.2645834 z m 0,0.2645834 h 7.9375 V 17.470345 h -7.9375 z" />
  </g>
  <g
     id="g13929"
     transform="rotate(-25,14.103244,13.619787)">
    <rect
       style="fill:#fafafa;fill-opacity:1;stroke:none;stroke-width:0.264583;stroke-linecap:square;stroke-linejoin:miter;stroke-miterlimit:4;stroke-dasharray:none;stroke-opacity:1"
       id="rect7283-6-0"
       width="8.2020836"
       height="10.847917"
       x="11.31683"
       y="-1.185057"
       transform="rotate(20)" />
    <path
       id="rect9298-2-9"
       style="opacity:0.3;fill:#4f6698;fill-opacity:1;stroke:none;stroke-width:0.264583;stroke-linecap:square;stroke-linejoin:miter;stroke-miterlimit:4;stroke-dasharray:none;stroke-opacity:1"
       d="m 11.209214,2.6779269 c -0.13774,-0.050133 -0.288987,0.020395 -0.33912,0.1581343 L 7.2503809,12.781141 c -0.050133,0.137739 0.020395,0.288987 0.158134,0.33912 l 7.4588101,2.714785 c 0.137739,0.05013 0.288987,-0.0204 0.339119,-0.158134 l 3.619714,-9.9450805 c 0.05013,-0.1377394 -0.0204,-0.2889868 -0.158134,-0.3391197 z m -0.09049,0.248627 7.45881,2.7147849 -3.619713,9.9450802 -7.4588104,-2.714785 z" />
  </g>
  <g
     id="g13884"
     transform="rotate(-35,13.955161,13.979804)">
    <rect
       style="fill:#fafafa;fill-opacity:1;stroke:none;stroke-width:0.264583;stroke-linecap:square;stroke-linejoin:miter;stroke-miterlimit:4;stroke-dasharray:none;stroke-opacity:1"
       id="rect7283-6-1"
       width="8.2020836"
       height="10.847917"
       x="11.31683"
       y="-1.185057"
       transform="rotate(20)" />
    <path
       id="rect9298-2-2"
       style="opacity:0.3;fill:#4f6698;fill-opacity:1;stroke:none;stroke-width:0.264583;stroke-linecap:square;stroke-linejoin:miter;stroke-miterlimit:4;stroke-dasharray:none;stroke-opacity:1"
       d="m 11.209214,2.6779269 c -0.13774,-0.050133 -0.288987,0.020395 -0.33912,0.1581343 L 7.2503809,12.781141 c -0.050133,0.137739 0.020395,0.288987 0.158134,0.33912 l 7.4588101,2.714785 c 0.137739,0.05013 0.288987,-0.0204 0.339119,-0.158134 l 3.619714,-9.9450805 c 0.05013,-0.1377394 -0.0204,-0.2889868 -0.158134,-0.3391197 z m -0.09049,0.248627 7.45881,2.7147849 -3.619713,9.9450802 -7.4588104,-2.714785 z" />
  </g>
  <g
     id="g13615"
     transform="rotate(10,2.0892245,19.216173)">
    <rect
       style="opacity:1;fill:#fafafa;fill-opacity:1;stroke:none;stroke-width:0.264583;stroke-linecap:square;stroke-linejoin:miter;stroke-miterlimit:4;stroke-dasharray:none;stroke-opacity:1"
       id="rect7283"
       width="8.2020836"
       height="10.847917"
       x="8.3343754"
       y="4.8947916" />
    <path
       id="rect9298"
       style="opacity:0.3;fill:#4f6698;fill-opacity:1;stroke:none;stroke-width:0.999999;stroke-linecap:square;stroke-linejoin:miter;stroke-miterlimit:4;stroke-dasharray:none;stroke-opacity:1"
       d="m 32,18 c -0.554,0 -1,0.446 -1,1 v 40 c 0,0.554 0.446,1 1,1 h 30 c 0.554,0 1,-0.446 1,-1 V 19 c 0,-0.554 -0.446,-1 -1,-1 z m 0,1 H 62 V 59 H 32 Z"
       transform="scale(0.26458333)" />
  </g>
  <path
     style="color:#000000;fill:#d8d8d8;stroke:none;stroke-width:0.264583;stroke-linecap:square;-inkscape-stroke:none"
     d="M 3.8364583,5.1593749 7.0114582,22.357302 h 0.039274 c 0.1996254,1.042229 2.6812369,1.852035 5.6756228,1.852083 3.141694,0 5.688541,-0.888435 5.688541,-1.984375 -1.32e-4,-0.0043 -2.91e-4,-0.0086 -5.29e-4,-0.01292 L 21.563541,5.1593749 h -0.02532 C 21.348222,6.9304266 17.45021,8.3307299 12.7,8.3343749 7.9497903,8.3307297 4.0517784,6.9304265 3.8617797,5.1593749 Z"
     id="path6530"
     sodipodi:nodetypes="ccccccccccc" />
  <path
     style="color:#000000;opacity:0.3;fill:#000000;stroke:none;stroke-width:0.264583;stroke-linecap:square;-inkscape-stroke:none"
     d="M 3.7062337,5.1831462 6.9008705,22.489593 h 0.07028 c 0.08575,0.260966 0.2683129,0.498655 0.5519044,0.703833 0.3237899,0.234262 0.7575047,0.437352 1.2764076,0.606682 1.0378062,0.338659 2.4177765,0.541544 3.9268925,0.541569 1.583316,0 3.01672,-0.222601 4.065901,-0.588595 0.524591,-0.182997 0.953765,-0.401248 1.259872,-0.653707 0.303363,-0.250197 0.489124,-0.544294 0.492476,-0.866097 v 0.0026 l 0.001,-0.0052 c 1.4e-5,-0.002 0.0016,-0.0077 0.0016,-0.0057 v -0.0021 -0.0021 L 21.68522,5.2303582 21.419364,5.0270833 21.406444,5.1454224 C 21.363865,5.5423209 21.110768,5.9327364 20.66127,6.2993571 20.211773,6.6659775 19.570567,7.002918 18.784382,7.2853433 17.212013,7.850194 15.062131,8.2002706 12.7,8.2020832 10.337869,8.2002706 8.187987,7.850194 6.6156167,7.2853433 5.8294317,7.002918 5.1882264,6.6659775 4.7387287,6.2993571 4.289231,5.9327364 4.036134,5.5423209 3.9935546,5.1454224 L 3.9806356,5.0270833 Z M 4.1284302,6.0249551 C 4.2566836,6.1899064 4.3873692,6.3544965 4.5712972,6.5045124 5.0545568,6.8986701 5.7203741,7.2444199 6.5262167,7.5339069 8.1379011,8.1128808 10.311926,8.4648341 12.7,8.4666666 c 2.388074,-0.00183 4.562099,-0.3537858 6.173783,-0.9327597 0.805843,-0.289487 1.47166,-0.6352368 1.954919,-1.0293945 0.183928,-0.1500159 0.314614,-0.314606 0.442867,-0.4795573 l -2.989998,16.1788679 5.29e-4,0.0155 c 8.6e-5,0.0015 4.5e-4,0.004 5.3e-4,0.0062 -1.84e-4,0.222591 -0.129529,0.447529 -0.398942,0.669726 -0.269605,0.222355 -0.673391,0.432128 -1.178223,0.608232 -1.009688,0.352208 -2.420735,0.573608 -3.97911,0.573608 -1.485266,-2.4e-5 -2.8432262,-0.201837 -3.8447268,-0.52865 C 8.3808781,23.385037 7.969315,23.189674 7.6780841,22.978969 7.3868536,22.768264 7.2214154,22.546426 7.1804402,22.332497 L 7.1602862,22.22501 h -0.038241 z"
     id="path6532"
     sodipodi:nodetypes="cccsscsscccscccccsscssccccsscssccccsccsscccc" />
  <path
     id="path2689"
     style="opacity:0.2;fill:#000000;fill-opacity:1;stroke-width:1.77684;stroke-linejoin:round"
     d="M 48 6 C 29.222318 6.0000002 14 11.820298 14 19 C 14 26.179702 29.222318 32 48 32 C 66.777681 32 82 26.179701 82 19 C 82 11.820299 66.777681 6.0000005 48 6 z M 48 7 C 66.2254 7.0000004 81 12.372584 81 19 C 81 25.627417 66.2254 31 48 31 C 29.774604 31 15 25.627417 15 19 C 15 12.372583 29.774604 7 48 7 z "
     transform="scale(0.26458333)" />
</svg>
