<?xml version="1.0" encoding="UTF-8" standalone="no"?>
<!-- Created with Inkscape (http://www.inkscape.org/) -->

<svg
   width="48"
   height="48"
   viewBox="0 0 12.7 12.7"
   version="1.1"
   id="svg5"
   inkscape:version="1.1.2 (0a00cf5339, 2022-02-04, custom)"
   sodipodi:docname="dialog-question.svg"
   xmlns:inkscape="http://www.inkscape.org/namespaces/inkscape"
   xmlns:sodipodi="http://sodipodi.sourceforge.net/DTD/sodipodi-0.dtd"
   xmlns="http://www.w3.org/2000/svg"
   xmlns:svg="http://www.w3.org/2000/svg">
  <sodipodi:namedview
     id="namedview7"
     pagecolor="#ffffff"
     bordercolor="#666666"
     borderopacity="1.0"
     inkscape:pageshadow="2"
     inkscape:pageopacity="0.0"
     inkscape:pagecheckerboard="0"
     inkscape:document-units="px"
     showgrid="false"
     units="px"
     height="64px"
     inkscape:zoom="10.807072"
     inkscape:cx="18.922794"
     inkscape:cy="34.560701"
     inkscape:window-width="1920"
     inkscape:window-height="1021"
     inkscape:window-x="0"
     inkscape:window-y="0"
     inkscape:window-maximized="1"
     inkscape:current-layer="svg5" />
  <defs
     id="defs2" />
  <path
     style="color:#000000;fill:#468fda;stroke:none;stroke-width:0.264583;stroke-linejoin:round;-inkscape-stroke:none;fill-opacity:1"
     d="M 11.773958,6.3500006 A 5.4239587,5.4239588 0 0 1 6.3500004,11.773958 5.4239587,5.4239588 0 0 1 0.92604168,6.3500006 5.4239587,5.4239588 0 0 1 6.3500004,0.92604168 5.4239587,5.4239588 0 0 1 11.773958,6.3500006 Z"
     id="path1283" />
  <path
     style="color:#000000;opacity:0.2;fill:#000000;stroke:none;stroke-width:0.99993;stroke-linejoin:round;-inkscape-stroke:none"
     d="M 6.3500001,0.79375001 C 3.2831533,0.79375 0.79374994,3.2831532 0.79375001,6.3500001 0.7937508,9.4168463 3.2831539,11.90625 6.3500001,11.90625 c 3.0668457,-10e-7 5.5562489,-2.4894041 5.5562499,-5.5562499 0,-3.0668464 -2.4894036,-5.55624947 -5.5562499,-5.55625009 z m 0,0.26560629 c 2.9238651,6e-7 5.2925959,2.3667787 5.2925959,5.2906438 -10e-7,2.9238646 -2.3687314,5.2925959 -5.2925959,5.2925959 -2.9238649,0 -5.290643,-2.3687309 -5.2906438,-5.2925959 0,-2.9238656 2.3667783,-5.2906438 5.2906438,-5.2906438 z"
     id="path1285" />
  <path
     d="m 5.8802126,7.3939931 c 0,-0.3346131 0.063576,-0.6123418 0.1907295,-0.8331865 C 6.1980951,6.339962 6.4256317,6.0756174 6.7535523,5.7677734 7.0212433,5.5268521 7.2119726,5.3227381 7.3257411,5.1554317 7.4462015,4.9814326 7.5064324,4.7739726 7.5064324,4.5330514 7.5064324,4.2118226 7.402702,3.9541703 7.1952426,3.7600949 6.9877818,3.5593272 6.7000147,3.4589432 6.3319406,3.4589432 c -0.3346134,0 -0.6023038,0.097038 -0.8030717,0.2911134 C 5.3347933,3.9374398 5.1875635,4.1716691 5.0871796,4.452744 L 4.2941465,4.121477 C 4.4413764,3.7333258 4.6822978,3.3920206 5.0169109,3.0975611 5.351524,2.7964091 5.786521,2.6458333 6.3219018,2.6458333 c 0.4015357,0 0.7562257,0.083653 1.0640695,0.2509599 0.3145365,0.1606143 0.555458,0.3848051 0.722764,0.6725724 0.173999,0.2877671 0.260998,0.6089956 0.260998,0.9636858 0,0.3680741 -0.09369,0.6826106 -0.281075,0.9436087 -0.18069,0.254306 -0.4149192,0.511958 -0.702687,0.7729564 C 7.1651272,6.4503843 7.0045125,6.6411136 6.9041288,6.8218049 6.8037447,7.002496 6.7535523,7.2133025 6.7535523,7.454224 V 7.875836 H 5.8802126 Z m 0.4316512,2.6601739 c -0.173999,0 -0.3245749,-0.06023 -0.451728,-0.1806912 C 5.7396752,9.746323 5.6794447,9.5924019 5.6794447,9.4117098 c 0,-0.1739994 0.06023,-0.3212286 0.1806911,-0.441689 0.1271531,-0.1271532 0.277729,-0.1907294 0.451728,-0.1907294 0.1806911,0 0.3312666,0.063575 0.4517273,0.1907294 0.1271527,0.1204604 0.1907292,0.2676896 0.1907292,0.441689 0,0.1806921 -0.063576,0.3346132 -0.1907292,0.461766 -0.1204607,0.120461 -0.2710362,0.1806912 -0.4517273,0.1806912 z"
     style="font-size:12.1895px;line-height:1.25;font-family:'Google Sans';-inkscape-font-specification:'Google Sans';fill:#f2f2f2;stroke-width:0.0663996;fill-opacity:1"
     id="path43341" />
</svg>
