<?xml version="1.0" encoding="UTF-8" standalone="no"?>
<svg
   width="32"
   height="32"
   version="1.1"
   id="svg16"
   sodipodi:docname="image-loading.svg"
   inkscape:version="1.1.2 (0a00cf5339, 2022-02-04, custom)"
   xmlns:inkscape="http://www.inkscape.org/namespaces/inkscape"
   xmlns:sodipodi="http://sodipodi.sourceforge.net/DTD/sodipodi-0.dtd"
   xmlns="http://www.w3.org/2000/svg"
   xmlns:svg="http://www.w3.org/2000/svg">
  <defs
     id="defs20" />
  <sodipodi:namedview
     id="namedview18"
     pagecolor="#ffffff"
     bordercolor="#666666"
     borderopacity="1.0"
     inkscape:pageshadow="2"
     inkscape:pageopacity="0.0"
     inkscape:pagecheckerboard="0"
     showgrid="false"
     inkscape:zoom="16.064582"
     inkscape:cx="19.203736"
     inkscape:cy="15.904553"
     inkscape:window-width="1920"
     inkscape:window-height="1019"
     inkscape:window-x="0"
     inkscape:window-y="31"
     inkscape:window-maximized="1"
     inkscape:current-layer="svg16" />
  <path
     fill="none"
     d="M0 0h32v32H0z"
     id="path2" />
  <path
     id="path4"
     d="M 4.6679688 2 C 4.0012194 2 3.4876006 1.9944529 3.015625 2.046875 C 2.5436494 2.0992971 2.0293867 2.2246705 1.6269531 2.6269531 C 1.2245196 3.0292358 1.0993286 3.5417668 1.046875 4.0136719 C 0.99442143 4.485577 1 4.9995163 1 5.6660156 L 3 5.6660156 C 3 4.9995163 3.0042702 4.5122817 3.0351562 4.234375 C 3.0466169 4.1312674 3.057775 4.1009858 3.0664062 4.0664062 C 3.1012602 4.0577801 3.132846 4.0466502 3.2363281 4.0351562 C 3.5144451 4.0042666 4.0012194 4 4.6679688 4 L 4.6679688 2 z M 9 2 L 9 4 L 14 4 L 14 2 L 9 2 z M 18 2 L 18 4 L 23 4 L 23 2 L 18 2 z M 27.332031 2 L 27.332031 4 C 27.998781 4 28.485555 4.0042703 28.763672 4.0351562 C 28.867154 4.0466498 28.89874 4.0577802 28.933594 4.0664062 C 28.942231 4.1009858 28.953368 4.1312675 28.964844 4.234375 C 28.995694 4.5122813 29 4.9995163 29 5.6660156 L 31 5.6660156 C 31 4.9995163 31.005579 4.485577 30.953125 4.0136719 C 30.900671 3.5417668 30.77548 3.0292358 30.373047 2.6269531 C 29.970613 2.2246705 29.456351 2.0992971 28.984375 2.046875 C 28.512399 1.9944529 27.998781 2 27.332031 2 z M 16 9 C 11.584 9 8 12.584 8 17 C 8 21.416 11.584 25 16 25 C 20.416 25 24 21.416 24 17 C 24 12.584 20.416 9 16 9 z M 1 10 L 1 15 L 3 15 L 3 10 L 1 10 z M 29 10 L 29 15 L 31 15 L 31 10 L 29 10 z M 16 11 C 19.312 11 22 13.688 22 17 C 22 20.312 19.312 23 16 23 C 12.688 23 10 20.312 10 17 C 10 13.688 12.688 11 16 11 z M 15.771484 12.667969 L 15.103516 17.332031 L 18.4375 20 L 18.4375 19.332031 L 16.4375 16.667969 L 16.4375 12.667969 L 15.771484 12.667969 z M 1 19 L 1 24 L 3 24 L 3 19 L 1 19 z M 29 19 L 29 24 L 31 24 L 31 19 L 29 19 z M 1 28.332031 C 1 28.998781 0.994429 29.512364 1.046875 29.984375 C 1.099321 30.456386 1.2245638 30.970658 1.6269531 31.373047 C 2.0293425 31.775436 2.5436143 31.900679 3.015625 31.953125 C 3.4876357 32.005571 4.0012194 32 4.6679688 32 L 4.6679688 30 C 4.0012194 30 3.5144105 29.995704 3.2363281 29.964844 C 3.1328591 29.953346 3.1012557 29.942219 3.0664062 29.933594 C 3.0577825 29.898744 3.0466532 29.867141 3.0351562 29.763672 C 3.0042588 29.485634 3 28.998781 3 28.332031 L 1 28.332031 z M 29 28.332031 C 29 28.998781 28.995704 29.48559 28.964844 29.763672 C 28.953346 29.867141 28.942219 29.898744 28.933594 29.933594 C 28.898744 29.942223 28.867141 29.953332 28.763672 29.964844 C 28.485634 29.995702 27.998781 30 27.332031 30 L 27.332031 32 C 27.998781 32 28.512364 32.005595 28.984375 31.953125 C 29.456386 31.900675 29.970658 31.775436 30.373047 31.373047 C 30.775436 30.970658 30.900679 30.456386 30.953125 29.984375 C 31.005571 29.512359 31 28.998781 31 28.332031 L 29 28.332031 z M 9 30 L 9 32 L 14 32 L 14 30 L 9 30 z M 18 30 L 18 32 L 23 32 L 23 30 L 18 30 z "
     style="fill:#ffffff;opacity:0.3" />
  <path
     id="path10"
     d="M 4.6679688 1 C 4.0012188 1 3.4876 0.994505 3.015625 1.046875 C 2.543649 1.099295 2.0293871 1.2246711 1.6269531 1.6269531 C 1.2245201 2.0292361 1.099329 2.5417669 1.046875 3.0136719 C 0.994425 3.485577 1 3.9995163 1 4.6660156 L 3 4.6660156 C 3 3.9995163 3.0042963 3.5122817 3.0351562 3.234375 C 3.046617 3.1312672 3.0577728 3.1009857 3.0664062 3.0664062 C 3.1012602 3.0577747 3.1328443 3.0466648 3.2363281 3.0351562 C 3.5144451 3.0042663 4.0012187 3 4.6679688 3 L 4.6679688 1 z M 9 1 L 9 3 L 14 3 L 14 1 L 9 1 z M 18 1 L 18 3 L 23 3 L 23 1 L 18 1 z M 27.332031 1 L 27.332031 3 C 27.998781 3 28.485555 3.0042964 28.763672 3.0351562 C 28.867154 3.0466499 28.89874 3.0577785 28.933594 3.0664062 C 28.942231 3.1009855 28.953368 3.1312663 28.964844 3.234375 C 28.995694 3.5122813 29 3.9995163 29 4.6660156 L 31 4.6660156 C 31 3.9995163 31.005595 3.485577 30.953125 3.0136719 C 30.900662 2.5417669 30.77548 2.0292361 30.373047 1.6269531 C 29.970613 1.2246711 29.456351 1.099297 28.984375 1.046875 C 28.512399 0.994455 27.998781 1 27.332031 1 z M 16 8 C 11.584 8 8 11.584 8 16 C 8 20.416 11.584 24 16 24 C 20.416 24 24 20.416 24 16 C 24 11.584 20.416 8 16 8 z M 1 9 L 1 14 L 3 14 L 3 9 L 1 9 z M 29 9 L 29 14 L 31 14 L 31 9 L 29 9 z M 16 10 C 19.312 10 22 12.688 22 16 C 22 19.312 19.312 22 16 22 C 12.688 22 10 19.312 10 16 C 10 12.688 12.688 10 16 10 z M 15.771484 11.666016 L 15.103516 16.332031 L 18.4375 19 L 18.4375 18.332031 L 16.4375 15.666016 L 16.4375 11.666016 L 15.771484 11.666016 z M 1 18 L 1 23 L 3 23 L 3 18 L 1 18 z M 29 18 L 29 23 L 31 23 L 31 18 L 29 18 z M 1 27.332031 C 1 27.998781 0.994405 28.512364 1.046875 28.984375 C 1.099325 29.456386 1.2245641 29.970658 1.6269531 30.373047 C 2.0293421 30.775436 2.543614 30.900679 3.015625 30.953125 C 3.487636 31.005575 4.0012187 31 4.6679688 31 L 4.6679688 29 C 4.0012188 29 3.5144101 28.995704 3.2363281 28.964844 C 3.1328592 28.953346 3.1012557 28.942219 3.0664062 28.933594 C 3.0577762 28.898744 3.0466684 28.867141 3.0351562 28.763672 C 3.0042564 28.485639 3 27.998781 3 27.332031 L 1 27.332031 z M 29 27.332031 C 29 27.998781 28.995704 28.48559 28.964844 28.763672 C 28.953346 28.867141 28.942219 28.898744 28.933594 28.933594 C 28.898744 28.942223 28.867141 28.953332 28.763672 28.964844 C 28.485634 28.995704 27.998781 29 27.332031 29 L 27.332031 31 C 27.998781 31 28.512364 31.005595 28.984375 30.953125 C 29.456386 30.900675 29.970658 30.775436 30.373047 30.373047 C 30.775436 29.970658 30.900679 29.456386 30.953125 28.984375 C 31.005575 28.512359 31 27.998781 31 27.332031 L 29 27.332031 z M 9 29 L 9 31 L 14 31 L 14 29 L 9 29 z M 18 29 L 18 31 L 23 31 L 23 29 L 18 29 z "
     style="fill:#000000;opacity:0.5" />
</svg>
