<?xml version="1.0" encoding="UTF-8" standalone="no"?>
<!-- Created with Inkscape (http://www.inkscape.org/) -->

<svg
   width="24"
   height="24"
   viewBox="0 0 6.3499999 6.3500002"
   version="1.1"
   id="svg5"
   inkscape:version="1.1.2 (0a00cf5339, 2022-02-04, custom)"
   sodipodi:docname="applications-system.svg"
   xmlns:inkscape="http://www.inkscape.org/namespaces/inkscape"
   xmlns:sodipodi="http://sodipodi.sourceforge.net/DTD/sodipodi-0.dtd"
   xmlns:xlink="http://www.w3.org/1999/xlink"
   xmlns="http://www.w3.org/2000/svg"
   xmlns:svg="http://www.w3.org/2000/svg">
  <sodipodi:namedview
     id="namedview7"
     pagecolor="#ffffff"
     bordercolor="#666666"
     borderopacity="1.0"
     inkscape:pageshadow="2"
     inkscape:pageopacity="0.0"
     inkscape:pagecheckerboard="0"
     inkscape:document-units="px"
     showgrid="false"
     units="px"
     width="24px"
     inkscape:zoom="33.583333"
     inkscape:cx="12"
     inkscape:cy="12"
     inkscape:window-width="1851"
     inkscape:window-height="1009"
     inkscape:window-x="69"
     inkscape:window-y="31"
     inkscape:window-maximized="1"
     inkscape:current-layer="layer1" />
  <defs
     id="defs2">
    <linearGradient
       inkscape:collect="always"
       id="linearGradient1698">
      <stop
         style="stop-color:#15c6d4;stop-opacity:1"
         offset="0"
         id="stop1694" />
      <stop
         style="stop-color:#196faf;stop-opacity:1"
         offset="1"
         id="stop1696" />
    </linearGradient>
    <linearGradient
       inkscape:collect="always"
       xlink:href="#linearGradient1698"
       id="linearGradient1700"
       x1="1"
       y1="23"
       x2="23"
       y2="1"
       gradientUnits="userSpaceOnUse" />
  </defs>
  <g
     inkscape:label="레이어 1"
     inkscape:groupmode="layer"
     id="layer1">
    <path
       id="path888"
       style="color:#000000;font-variant-ligatures:normal;font-variant-position:normal;font-variant-caps:normal;font-variant-numeric:normal;font-variant-alternates:normal;font-variant-east-asian:normal;font-feature-settings:normal;font-variation-settings:normal;text-indent:0;text-decoration-line:none;text-decoration-style:solid;text-decoration-color:#000000;text-transform:none;text-orientation:mixed;dominant-baseline:auto;white-space:normal;shape-padding:0;shape-margin:0;inline-size:0;clip-rule:evenodd;isolation:auto;mix-blend-mode:normal;solid-color:#000000;fill:url(#linearGradient1700);fill-opacity:1;fill-rule:evenodd;stroke-width:1.375;color-rendering:auto;image-rendering:auto;shape-rendering:auto;stop-color:#000000"
       d="M 11.302734,1 C 10.576613,0.9999856 9.8793736,1.2880322 9.3671875,1.8027344 8.8580953,2.3142466 8.5723756,3.0092147 8.5722656,3.7304688 8.5614588,4.4836502 7.9638988,5.0748381 7.2109375,5.0761719 6.9870054,5.0733818 6.7687951,5.0108083 6.5761719,4.8964844 c -0.00356,-0.00181 -0.00618,-0.0041 -0.00977,-0.00586 C 5.2625707,4.1435079 3.5802758,4.5982969 2.8300781,5.9003906 L 2.1210938,7.0664062 c -0.00274,0.00446 -0.00517,0.00917 -0.00781,0.013672 C 1.3639634,8.3805633 1.8119433,10.061808 3.109375,10.816406 l 0.00195,0.002 C 3.5346341,11.062725 3.7949219,11.511285 3.7949219,12 c 0,0.488866 -0.2602188,0.93718 -0.6835938,1.181641 -1.2972124,0.750417 -1.7470621,2.428566 -0.9980469,3.726562 v 0.0039 l 0.671875,1.15625 0.00195,0.0039 c 0.3534954,0.635729 0.9466663,1.105863 1.6464844,1.304687 0.7010551,0.199332 1.4541831,0.110289 2.0898437,-0.246094 0.00269,-0.0018 0.00517,-0.0041 0.00781,-0.0059 0.3101858,-0.181017 0.6785339,-0.229601 1.0253906,-0.136719 h 0.00195 c 0.3469266,0.09281 0.642003,0.31919 0.8203124,0.63086 0.00176,0.0036 0.00404,0.0061 0.00586,0.0098 0.1148372,0.193546 0.177348,0.411769 0.1796875,0.636719 C 8.5679818,21.76778 9.7996166,23 11.302734,23 h 1.345704 c 1.500257,0 2.733084,-1.228284 2.740234,-2.728516 7e-6,-0.0018 7e-6,-0.0041 0,-0.0059 -0.0018,-0.361928 0.14053,-0.706853 0.396484,-0.962891 0.254472,-0.254471 0.5993,-0.396608 0.958985,-0.396484 0.227531,0.0074 0.4525,0.07112 0.65039,0.183594 1.300075,0.746743 2.980327,0.296372 3.734375,-1 l 0.701172,-1.169922 c 0.0018,-0.0026 0.0041,-0.0051 0.0059,-0.0078 0.36566,-0.627555 0.466543,-1.374113 0.279296,-2.076171 -0.187219,-0.701882 -0.645765,-1.303801 -1.27539,-1.666016 -0.312935,-0.180014 -0.541693,-0.475327 -0.634766,-0.824219 -0.09303,-0.34874 -0.04501,-0.719332 0.136719,-1.03125 l 0.0039,-0.0039 c 0.117203,-0.204601 0.285483,-0.374899 0.490235,-0.492188 0.0018,-8.87e-4 0.0041,-0.0011 0.0059,-0.002 1.236336,-0.72322 1.684852,-2.2851816 1.068359,-3.5566404 -0.01553,-0.063103 -0.03973,-0.1234368 -0.07227,-0.1796875 L 21.169922,5.9199219 c -0.750226,-1.301997 -2.43242,-1.7568286 -3.736328,-1.0097657 -0.0028,0.00177 -0.0051,0.00405 -0.0078,0.00586 C 17.115486,5.09882 16.747231,5.1510898 16.398451,5.0605475 16.049777,4.9700165 15.750668,4.7424469 15.568372,4.4316412 v -0.00195 C 15.458284,4.2441852 15.395655,4.0355531 15.388672,3.8203125 V 3.7929688 C 15.402442,3.0625807 15.124911,2.3544212 14.615234,1.8300781 14.099225,1.2992885 13.388695,0.99969749 12.648438,1 Z m 0,1.375 h 1.345704 c 0.369104,-1.557e-4 0.723069,0.1492953 0.980468,0.4140625 0.257371,0.2647294 0.395395,0.6212133 0.384766,0.9902344 -1.75e-4,0.00896 -1.75e-4,0.018386 0,0.027344 0.0049,0.4650372 0.132595,0.9198587 0.36914,1.3203125 0.366672,0.6251834 0.966378,1.0815127 1.667969,1.2636719 0.698457,0.1813077 1.443533,0.078786 2.066407,-0.2851562 0.660178,-0.3782613 1.479602,-0.1572759 1.859374,0.5019531 l 0.644532,1.1171875 c 0.0074,0.016441 0.0167,0.03303 0.02539,0.048828 0.374839,0.656753 0.154652,1.4736325 -0.498046,1.8554687 -0.412831,0.2376531 -0.754437,0.5811876 -0.992188,0.9941406 v 0.002 c -0.364581,0.627218 -0.466312,1.375089 -0.279297,2.076172 0.187208,0.70177 0.645602,1.299798 1.275391,1.662109 0.312895,0.180027 0.53978,0.479344 0.632812,0.828125 0.09254,0.346968 0.04275,0.714504 -0.136718,1.025391 -9.25e-4,0.0017 9.3e-4,0.0042 0,0.0059 l -0.703126,1.169922 c -0.0018,0.0026 -0.0041,0.0051 -0.0059,0.0078 -0.381976,0.656729 -1.202994,0.877353 -1.861328,0.498047 -8.92e-4,-9e-4 -9.06e-4,-0.0029 -0.002,-0.0039 -0.398199,-0.227699 -0.846265,-0.352997 -1.304688,-0.365234 -0.0045,-4.4e-5 -0.0091,-4.4e-5 -0.01367,0 -0.728514,-0.0036 -1.430101,0.28568 -1.945312,0.800781 -0.514894,0.515032 -0.804274,1.212975 -0.800781,1.941406 -0.0065,0.756825 -0.605631,1.353516 -1.363281,1.353516 h -1.345704 c -0.762243,0 -1.3671871,-0.603171 -1.3671871,-1.365234 1.55e-5,-0.0027 1.55e-5,-0.0051 0,-0.0078 C 9.9308064,19.787854 9.8037805,19.333319 9.5683594,18.933594 9.2080003,18.305813 8.6134267,17.84534 7.9140625,17.658203 7.217256,17.471631 6.4720419,17.571036 5.8476562,17.931641 5.530569,18.109399 5.1582,18.152132 4.8085938,18.052734 4.4589874,17.953405 4.1644735,17.720271 3.9882812,17.402344 c -0.00175,-0.0045 -0.00402,-0.0071 -0.00586,-0.01172 L 3.3046875,16.224609 C 2.9268251,15.569823 3.1443853,14.751583 3.7988281,14.373047 4.6456744,13.884085 5.1699219,12.977897 5.1699219,12 c 0,-0.977155 -0.5251826,-1.882007 -1.3710938,-2.3710938 V 9.625 C 3.1436702,9.2425315 2.9257524,8.4252938 3.3046875,7.7675781 L 4.0136719,6.6015625 c 0.00274,-0.00446 0.00517,-0.00917 0.00781,-0.013672 C 4.4012721,5.928704 5.2227435,5.7057503 5.88281,6.0839843 c 0.3990376,0.2344101 0.8535138,0.3623875 1.3164063,0.3671875 0.00268,1.58e-5 0.00513,1.58e-5 0.00781,0 C 8.6973918,6.4513544 9.9258161,5.2401243 9.9472656,3.75 c 4.39e-5,-0.0045 4.39e-5,-0.00921 0,-0.013672 C 9.9455459,3.3754174 10.087215,3.0311811 10.341797,2.7753906 10.596322,2.5196413 10.941922,2.375 11.302734,2.375 Z M 12,8 c -2.2091389,2e-7 -3.9999998,1.7908611 -4,4 2e-7,2.209139 1.7908611,4 4,4 2.209139,0 4,-1.790861 4,-4 0,-2.2091389 -1.790861,-3.9999998 -4,-4 z m -0.08594,1.125 c 0.02455,-6.22e-4 0.04952,0 0.07422,0 1.580915,0 2.861328,1.282366 2.861328,2.863281 0,1.580915 -1.280413,2.861328 -2.861328,2.861328 -1.580915,0 -2.863281,-1.280413 -2.863281,-2.861328 0,-1.556213 1.242293,-2.8240933 2.789061,-2.863281 z"
       transform="scale(0.26458334)" />
  </g>
</svg>
