<?xml version="1.0" encoding="UTF-8" standalone="no"?>
<!-- Created with Inkscape (http://www.inkscape.org/) -->

<svg
   width="128"
   height="128"
   viewBox="0 0 33.866666 33.866668"
   version="1.1"
   id="svg843"
   inkscape:version="1.1.2 (0a00cf5339, 2022-02-04, custom)"
   sodipodi:docname="weather-many-clouds.svg"
   xmlns:inkscape="http://www.inkscape.org/namespaces/inkscape"
   xmlns:sodipodi="http://sodipodi.sourceforge.net/DTD/sodipodi-0.dtd"
   xmlns="http://www.w3.org/2000/svg"
   xmlns:svg="http://www.w3.org/2000/svg">
  <sodipodi:namedview
     id="namedview845"
     pagecolor="#ffffff"
     bordercolor="#666666"
     borderopacity="1.0"
     inkscape:pageshadow="2"
     inkscape:pageopacity="0.0"
     inkscape:pagecheckerboard="0"
     inkscape:document-units="px"
     showgrid="false"
     units="px"
     showguides="false"
     inkscape:zoom="3.1210938"
     inkscape:cx="14.257822"
     inkscape:cy="53.987484"
     inkscape:window-width="1920"
     inkscape:window-height="1019"
     inkscape:window-x="0"
     inkscape:window-y="31"
     inkscape:window-maximized="1"
     inkscape:current-layer="svg843" />
  <defs
     id="defs840" />
  <path
     id="path848"
     style="fill:#bdbdbd;fill-opacity:1;stroke-width:0.316029;stroke-linecap:round;stroke-linejoin:round"
     d="m 15.610419,3.1749998 c -6.2833916,3e-7 -11.3770854,5.0936914 -11.3770856,11.3770802 2e-7,6.283389 5.093694,11.377083 11.3770856,11.377083 h 9.260417 c 4.676011,0 8.466667,-3.790656 8.466667,-8.466666 C 33.337305,13.051136 29.949985,9.3791436 25.552965,9.0237356 23.546063,5.4140047 19.740532,3.1753872 15.610419,3.1749998 Z"
     sodipodi:nodetypes="csccccc" />
  <path
     id="path1073"
     style="fill:#f5f5f5;fill-opacity:1;stroke-width:0.274431;stroke-linecap:round;stroke-linejoin:round"
     d="m 15.610419,3.9687496 c -5.8450154,0 -10.5833358,4.7383173 -10.5833355,10.5833304 -3e-7,5.845014 4.7383201,10.583333 10.5833355,10.583333 h 9.260417 c 4.237635,0 7.672917,-3.435281 7.672917,-7.672916 C 32.54365,13.299621 29.224131,9.8961803 25.062556,9.7921643 23.264571,6.2216224 19.60811,3.9688946 15.610419,3.9687496 Z"
     sodipodi:nodetypes="csccccc" />
  <path
     id="path1301"
     style="fill:#bdbdbd;fill-opacity:1;stroke-width:0.264583;stroke-linecap:round;stroke-linejoin:round"
     d="m 25.68474,9.3229426 -0.622184,0.4692217 -0.0016,0.001 a 10.583333,10.583333 0 0 1 1.132748,4.7588827 10.583333,10.583333 0 0 1 -3.102136,7.481197 l 0.543119,0.543118 a 11.377084,11.377084 0 0 0 3.352767,-8.024315 11.377084,11.377084 0 0 0 -1.302763,-5.2291374 z" />
  <path
     id="path849"
     style="fill:#bdbdbd;fill-opacity:1;stroke-width:0.264583;stroke-linecap:round;stroke-linejoin:round"
     d="m 8.4666669,16.404167 c -4.3837602,0 -7.93750023,3.55374 -7.93750023,7.9375 0,4.38376 3.55374003,7.9375 7.93750023,7.9375 h 6.6145841 c 3.360883,0 6.085417,-2.724533 6.085417,-6.085416 -3.96e-4,-3.321515 -2.664101,-6.029148 -5.985165,-6.083867 -1.453403,-2.306382 -3.988706,-3.70554 -6.7148361,-3.705717 z"
     sodipodi:nodetypes="csccccc" />
  <path
     id="path1121"
     style="fill:#f5f5f5;fill-opacity:1;stroke-width:0.396875;stroke-linecap:round;stroke-linejoin:round"
     d="m 8.4666669,17.197917 c -3.9453842,0 -7.1437502,3.198366 -7.1437502,7.14375 0,3.945385 3.198366,7.14375 7.1437502,7.14375 h 6.6145841 c 2.922507,0 5.291667,-2.369158 5.291666,-5.291666 10e-7,-2.922507 -2.369159,-5.291667 -5.291666,-5.291667 -0.115693,5.03e-4 -0.231338,0.0048 -0.346749,0.01292 -1.252746,-2.291599 -3.65617,-3.716929 -6.2678351,-3.717087 z"
     sodipodi:nodetypes="csccsccc" />
  <path
     id="path1546"
     style="fill:#bdbdbd;fill-opacity:1;stroke-width:0.264583;stroke-linecap:round;stroke-linejoin:round"
     d="m 15.179953,20.110918 -0.671277,0.422713 a 7.1437502,7.1437502 0 0 1 1.101741,3.808036 7.1437502,7.1437502 0 0 1 -2.092378,5.051372 l 0.547253,0.547254 a 7.9375002,7.9375002 0 0 0 2.338875,-5.598626 7.9375002,7.9375002 0 0 0 -1.224214,-4.230749 z" />
</svg>
