<?xml version="1.0" encoding="UTF-8" standalone="no"?>
<!-- Created with Inkscape (http://www.inkscape.org/) -->

<svg
   width="128"
   height="128"
   viewBox="0 0 33.866666 33.866668"
   version="1.1"
   id="svg843"
   inkscape:version="1.1.2 (0a00cf5339, 2022-02-04, custom)"
   sodipodi:docname="weather-few-clouds.svg"
   xmlns:inkscape="http://www.inkscape.org/namespaces/inkscape"
   xmlns:sodipodi="http://sodipodi.sourceforge.net/DTD/sodipodi-0.dtd"
   xmlns="http://www.w3.org/2000/svg"
   xmlns:svg="http://www.w3.org/2000/svg">
  <sodipodi:namedview
     id="namedview845"
     pagecolor="#ffffff"
     bordercolor="#666666"
     borderopacity="1.0"
     inkscape:pageshadow="2"
     inkscape:pageopacity="0.0"
     inkscape:pagecheckerboard="0"
     inkscape:document-units="px"
     showgrid="false"
     units="px"
     showguides="false"
     inkscape:zoom="4"
     inkscape:cx="65.625"
     inkscape:cy="42.625"
     inkscape:window-width="1920"
     inkscape:window-height="1019"
     inkscape:window-x="0"
     inkscape:window-y="31"
     inkscape:window-maximized="1"
     inkscape:current-layer="svg843" />
  <defs
     id="defs840" />
  <path
     id="rect954"
     style="fill:#ffca28;fill-opacity:1;stroke-width:0.264583;stroke-linecap:round;stroke-linejoin:round"
     d="m 17.970997,0.52916673 c -0.430165,0.010825 -0.77308,0.3608833 -0.77308,0.79374997 v 1.5875 c 0,0.4397375 0.354013,0.79375 0.79375,0.79375 0.439737,0 0.79375,-0.3540125 0.79375,-0.79375 v -1.5875 c 0,-0.43973757 -0.354013,-0.79374997 -0.79375,-0.79374997 -0.0069,0 -0.01384,-1.719e-4 -0.02067,0 z M 7.3277182,4.9454346 c -0.2028976,0 -0.4057354,0.078107 -0.5612059,0.2335776 -0.00488,0.00488 -0.01028,0.00951 -0.014986,0.014469 -0.2965175,0.3118263 -0.2910967,0.8018598 0.014986,1.1079427 l 1.122412,1.1224123 c 0.3109412,0.3109412 0.8114713,0.310941 1.1224123,0 0.310941,-0.310941 0.3109412,-0.811471 0,-1.1224123 L 7.8889243,5.1790122 C 7.7334535,5.0235415 7.5306163,4.9454346 7.3277182,4.9454346 Z m 21.3185958,0 c -0.199739,0.00246 -0.398862,0.080537 -0.551905,0.2335776 l -1.122411,1.122412 c -0.310941,0.310941 -0.310941,0.8114713 0,1.1224123 0.310941,0.310941 0.81147,0.310941 1.122411,0 l 1.122413,-1.1224123 c 0.310944,-0.3109415 0.310941,-0.811471 0,-1.122412 -0.0049,-0.00488 -0.0095,-0.01028 -0.01447,-0.014986 C 29.046438,5.0157699 28.846053,4.9429766 28.646314,4.9454346 Z M 17.991667,5.2916668 A 11.1125,11.1125 0 0 0 6.8791669,16.404167 11.1125,11.1125 0 0 0 17.991667,27.516667 11.1125,11.1125 0 0 0 29.104168,16.404167 11.1125,11.1125 0 0 0 17.991667,5.2916668 Z M 2.9104168,15.610417 c -0.43974,0 -0.7937501,0.354013 -0.7937501,0.79375 0,0.439737 0.3540101,0.79375 0.7937501,0.79375 h 1.5875 c 0.439738,0 0.79375,-0.354013 0.79375,-0.79375 0,-0.439737 -0.354012,-0.79375 -0.79375,-0.79375 z m 28.5750012,0 c -0.439738,0 -0.79375,0.354013 -0.79375,0.79375 0,0.439737 0.354012,0.79375 0.79375,0.79375 h 1.5875 c 0.439737,0 0.79375,-0.354013 0.79375,-0.79375 0,-0.0069 1.72e-4,-0.01384 0,-0.02067 -0.01083,-0.430164 -0.360884,-0.773079 -0.79375,-0.773079 z m -23.0352876,9.54102 c -0.2028976,0 -0.4057351,0.07759 -0.5612061,0.23306 l -1.122412,1.122412 c -0.3109431,0.310943 -0.310941,0.811471 0,1.122412 0.310941,0.310941 0.8114689,0.310944 1.122412,0 l 1.1224123,-1.122412 c 0.3109415,-0.310941 0.310941,-0.811471 0,-1.122412 -0.1554705,-0.15547 -0.3583086,-0.23306 -0.5612062,-0.23306 z m 19.0830736,0 c -0.202897,0 -0.405736,0.07759 -0.561206,0.23306 -0.310941,0.310941 -0.310942,0.811471 0,1.122412 l 1.122411,1.122412 c 0.310944,0.310944 0.811472,0.310941 1.122413,0 0.310941,-0.310941 0.310944,-0.811469 0,-1.122412 l -1.122413,-1.122412 c -0.155469,-0.155471 -0.358306,-0.233061 -0.561205,-0.23306 z m -9.541537,3.95273 c -0.439737,0 -0.79375,0.354013 -0.79375,0.79375 v 1.5875 c 0,0.43974 0.354013,0.79375 0.79375,0.79375 0.439737,0 0.79375,-0.35401 0.79375,-0.79375 v -1.5875 c 0,-0.439737 -0.354013,-0.79375 -0.79375,-0.79375 z" />
  <circle
     style="fill:#ffe082;fill-opacity:1;stroke-width:1.87613;stroke-linecap:round;stroke-linejoin:round"
     id="path1558"
     cx="17.991667"
     cy="16.404165"
     r="10.31875" />
  <path
     id="path8370"
     style="fill:#ffca28;fill-opacity:1;stroke-width:0.28112;stroke-linecap:round;stroke-linejoin:round"
     d="m 17.991667,7.4083335 v 1.5875 a 7.4083335,7.4083335 0 0 1 7.408334,7.4083335 h 1.5875 A 8.9958338,8.9958338 0 0 0 17.991667,7.4083335 Z" />
  <path
     id="path849"
     style="fill:#bdbdbd;fill-opacity:1;stroke-width:0.264583;stroke-linecap:round;stroke-linejoin:round"
     d="M 7.9375002,16.404167 C 3.55374,16.404167 0,19.957907 0,24.341667 c 0,4.38376 3.55374,7.9375 7.9375002,7.9375 h 6.6145828 c 3.360883,0 6.085417,-2.724534 6.085417,-6.085417 -3.95e-4,-3.321514 -2.6641,-6.029147 -5.985165,-6.083866 -1.453403,-2.306383 -3.988706,-3.705541 -6.7148348,-3.705717 z"
     sodipodi:nodetypes="csccccc" />
  <path
     id="path1121"
     style="fill:#f5f5f5;fill-opacity:1;stroke-width:0.396875;stroke-linecap:round;stroke-linejoin:round"
     d="m 7.9375002,17.197917 c -3.9453842,0 -7.14375018,3.198366 -7.14375018,7.14375 0,3.945385 3.19836598,7.14375 7.14375018,7.14375 h 6.6145828 c 2.922507,0 5.291667,-2.369159 5.291667,-5.291667 0,-2.922507 -2.36916,-5.291667 -5.291667,-5.291667 -0.115693,5.03e-4 -0.231338,0.0048 -0.346749,0.01292 -1.252745,-2.291599 -3.656169,-3.716929 -6.2678338,-3.717086 z"
     sodipodi:nodetypes="csccsccc" />
  <path
     id="path1546"
     style="fill:#bdbdbd;fill-opacity:1;stroke-width:0.264583;stroke-linecap:round;stroke-linejoin:round"
     d="m 14.650785,20.110917 -0.671277,0.422714 a 7.1437502,7.1437502 0 0 1 1.101742,3.808036 7.1437502,7.1437502 0 0 1 -2.092379,5.051372 l 0.547253,0.547254 A 7.9375002,7.9375002 0 0 0 15.875,24.341667 7.9375002,7.9375002 0 0 0 14.650785,20.110917 Z" />
</svg>
