<?xml version="1.0" encoding="UTF-8" standalone="no"?>
<!-- Created with Inkscape (http://www.inkscape.org/) -->

<svg
   width="128"
   height="128"
   viewBox="0 0 33.866666 33.866668"
   version="1.1"
   id="svg843"
   inkscape:version="1.1.2 (0a00cf5339, 2022-02-04, custom)"
   sodipodi:docname="weather-showers.svg"
   xmlns:inkscape="http://www.inkscape.org/namespaces/inkscape"
   xmlns:sodipodi="http://sodipodi.sourceforge.net/DTD/sodipodi-0.dtd"
   xmlns="http://www.w3.org/2000/svg"
   xmlns:svg="http://www.w3.org/2000/svg">
  <sodipodi:namedview
     id="namedview845"
     pagecolor="#ffffff"
     bordercolor="#666666"
     borderopacity="1.0"
     inkscape:pageshadow="2"
     inkscape:pageopacity="0.0"
     inkscape:pagecheckerboard="0"
     inkscape:document-units="px"
     showgrid="false"
     units="px"
     showguides="false"
     inkscape:zoom="6.296875"
     inkscape:cx="64"
     inkscape:cy="89.409429"
     inkscape:window-width="1851"
     inkscape:window-height="1009"
     inkscape:window-x="69"
     inkscape:window-y="31"
     inkscape:window-maximized="1"
     inkscape:current-layer="svg843" />
  <defs
     id="defs840" />
  <path
     id="path848"
     style="fill:#b4b4b4;fill-opacity:1;stroke-width:0.316029;stroke-linecap:round;stroke-linejoin:round"
     d="m 13.758334,3.1749998 c -6.28339,3e-7 -11.3770838,5.0936914 -11.377084,11.3770802 2e-7,6.283389 5.093694,11.377083 11.377084,11.377083 h 9.260417 c 4.676011,0 8.466667,-3.790656 8.466667,-8.466666 C 31.48522,13.051136 28.0979,9.3791436 23.70088,9.0237356 21.693978,5.4140047 17.888447,3.1753872 13.758334,3.1749998 Z"
     sodipodi:nodetypes="csccccc" />
  <path
     id="path1073"
     style="fill:#dadada;fill-opacity:1;stroke-width:0.274431;stroke-linecap:round;stroke-linejoin:round"
     d="m 13.758334,3.9687496 c -5.8450138,0 -10.5833342,4.7383173 -10.5833339,10.5833304 -3e-7,5.845014 4.7383201,10.583333 10.5833339,10.583333 h 9.260417 c 4.237635,0 7.672917,-3.435281 7.672917,-7.672916 C 30.691565,13.299621 27.372046,9.8961803 23.210471,9.7921643 21.412486,6.2216224 17.756025,3.9688946 13.758334,3.9687496 Z"
     sodipodi:nodetypes="csccccc" />
  <path
     id="path1301"
     style="fill:#b4b4b4;fill-opacity:1;stroke-width:0.264583;stroke-linecap:round;stroke-linejoin:round"
     d="m 23.832655,9.3229426 -0.622184,0.4692217 -0.0016,0.001 a 10.583333,10.583333 0 0 1 1.132748,4.7588827 10.583333,10.583333 0 0 1 -3.102136,7.481197 l 0.543119,0.543118 a 11.377084,11.377084 0 0 0 3.352767,-8.024315 11.377084,11.377084 0 0 0 -1.302763,-5.2291374 z" />
  <path
     id="rect950"
     style="opacity:1;fill:#2196f2;stroke-width:0.264583;stroke-linecap:round;stroke-linejoin:round"
     d="m 10.847917,26.722917 c -0.439737,0 -0.79375,0.354013 -0.79375,0.79375 v 4.7625 c 0,0.439738 0.354013,0.793751 0.79375,0.793751 0.439738,0 0.79375,-0.354013 0.79375,-0.793751 v -4.7625 c 0,-0.439737 -0.354012,-0.79375 -0.79375,-0.79375 z m 4.233333,0 c -0.439737,0 -0.79375,0.354013 -0.79375,0.79375 v 2.645834 c 0,0.439737 0.354013,0.79375 0.79375,0.79375 0.439738,0 0.79375,-0.354013 0.79375,-0.79375 v -2.645834 c 0,-0.439737 -0.354012,-0.79375 -0.79375,-0.79375 z m 4.233333,0 c -0.439736,0 -0.79375,0.354013 -0.79375,0.79375 v 4.7625 c 0,0.439738 0.354014,0.793751 0.79375,0.793751 0.439739,0 0.793751,-0.354013 0.793751,-0.793751 v -4.7625 c 0,-0.439737 -0.354012,-0.79375 -0.793751,-0.79375 z m 4.233334,0 c -0.439737,0 -0.79375,0.354013 -0.79375,0.79375 v 2.645834 c 0,0.439737 0.354013,0.79375 0.79375,0.79375 0.439738,0 0.79375,-0.354013 0.79375,-0.79375 v -2.645834 c 0,-0.439737 -0.354012,-0.79375 -0.79375,-0.79375 z"
     sodipodi:nodetypes="ssssssssssssssssssssssssssss" />
</svg>
