<?xml version="1.0" encoding="UTF-8" standalone="no"?>
<!-- Created with Inkscape (http://www.inkscape.org/) -->

<svg
   width="128"
   height="128"
   viewBox="0 0 33.866666 33.866668"
   version="1.1"
   id="svg843"
   inkscape:version="1.1.2 (0a00cf5339, 2022-02-04, custom)"
   sodipodi:docname="weather-few-clouds-night.svg"
   xmlns:inkscape="http://www.inkscape.org/namespaces/inkscape"
   xmlns:sodipodi="http://sodipodi.sourceforge.net/DTD/sodipodi-0.dtd"
   xmlns="http://www.w3.org/2000/svg"
   xmlns:svg="http://www.w3.org/2000/svg">
  <sodipodi:namedview
     id="namedview845"
     pagecolor="#ffffff"
     bordercolor="#666666"
     borderopacity="1.0"
     inkscape:pageshadow="2"
     inkscape:pageopacity="0.0"
     inkscape:pagecheckerboard="0"
     inkscape:document-units="px"
     showgrid="false"
     units="px"
     showguides="false"
     inkscape:zoom="4.4138931"
     inkscape:cx="12.800491"
     inkscape:cy="65.814915"
     inkscape:window-width="1920"
     inkscape:window-height="1019"
     inkscape:window-x="0"
     inkscape:window-y="31"
     inkscape:window-maximized="1"
     inkscape:current-layer="svg843" />
  <defs
     id="defs840" />
  <circle
     style="fill:#90a4ae;fill-opacity:1;stroke-width:0.250151;stroke-linecap:round;stroke-linejoin:round"
     id="path926"
     cx="19.050003"
     cy="16.933334"
     r="13.758333" />
  <circle
     style="fill:#eceff1;fill-opacity:1;stroke-width:2.35719;stroke-linecap:round;stroke-linejoin:round"
     id="path1558"
     cx="19.050003"
     cy="16.933334"
     r="12.964583" />
  <path
     id="path1308"
     style="fill:#d1d9dd;fill-opacity:1;stroke-width:0.769228;stroke-linecap:round;stroke-linejoin:round"
     d="M 79 32 A 2.9999999 2.9999999 0 0 0 76 35 A 2.9999999 2.9999999 0 0 0 79 38 A 2.9999999 2.9999999 0 0 0 82 35 A 2.9999999 2.9999999 0 0 0 79 32 z M 48 36 A 5.9999999 5.9999999 0 0 0 42 42 A 5.9999999 5.9999999 0 0 0 48 48 A 5.9999999 5.9999999 0 0 0 54 42 A 5.9999999 5.9999999 0 0 0 48 36 z M 54 62 A 9.9999996 9.9999996 0 0 0 44 72 A 9.9999996 9.9999996 0 0 0 54 82 A 9.9999996 9.9999996 0 0 0 64 72 A 9.9999996 9.9999996 0 0 0 54 62 z M 90 66 A 9.9999996 9.9999996 0 0 0 80 76 A 9.9999996 9.9999996 0 0 0 90 86 A 9.9999996 9.9999996 0 0 0 100 76 A 9.9999996 9.9999996 0 0 0 90 66 z M 66 88 A 5.9999999 5.9999999 0 0 0 60 94 A 5.9999999 5.9999999 0 0 0 66 100 A 5.9999999 5.9999999 0 0 0 72 94 A 5.9999999 5.9999999 0 0 0 66 88 z "
     transform="scale(0.26458334)" />
  <path
     id="path849"
     style="fill:#bdbdbd;fill-opacity:1;stroke-width:0.264583;stroke-linecap:round;stroke-linejoin:round"
     d="M 7.9375002,16.404167 C 3.55374,16.404167 0,19.957907 0,24.341667 c 0,4.38376 3.55374,7.9375 7.9375002,7.9375 h 6.6145838 c 3.360883,0 6.085417,-2.724533 6.085417,-6.085416 -3.96e-4,-3.321515 -2.664101,-6.029148 -5.985165,-6.083867 -1.453403,-2.306382 -3.988706,-3.70554 -6.7148358,-3.705717 z"
     sodipodi:nodetypes="csccccc" />
  <path
     id="path1121"
     style="fill:#f5f5f5;fill-opacity:1;stroke-width:0.396875;stroke-linecap:round;stroke-linejoin:round"
     d="m 7.9375002,17.197917 c -3.9453842,0 -7.14375018,3.198366 -7.14375018,7.14375 0,3.945385 3.19836598,7.14375 7.14375018,7.14375 h 6.6145838 c 2.922507,0 5.291667,-2.369158 5.291666,-5.291666 1e-6,-2.922507 -2.369159,-5.291667 -5.291666,-5.291667 -0.115693,5.03e-4 -0.231338,0.0048 -0.346749,0.01292 -1.252746,-2.291599 -3.65617,-3.716929 -6.2678348,-3.717086 z"
     sodipodi:nodetypes="csccsccc" />
  <path
     id="path1546"
     style="fill:#bdbdbd;fill-opacity:1;stroke-width:0.264583;stroke-linecap:round;stroke-linejoin:round"
     d="m 14.650786,20.110918 -0.671277,0.422713 a 7.1437502,7.1437502 0 0 1 1.101741,3.808036 7.1437502,7.1437502 0 0 1 -2.092378,5.051372 l 0.547253,0.547254 A 7.9375002,7.9375002 0 0 0 15.875,24.341667 7.9375002,7.9375002 0 0 0 14.650786,20.110918 Z" />
</svg>
