<?xml version="1.0" encoding="UTF-8" standalone="no"?>
<!-- Created with Inkscape (http://www.inkscape.org/) -->

<svg
   width="128"
   height="128"
   viewBox="0 0 33.866666 33.866668"
   version="1.1"
   id="svg843"
   inkscape:version="1.1.2 (0a00cf5339, 2022-02-04, custom)"
   sodipodi:docname="weather-clear.svg"
   xmlns:inkscape="http://www.inkscape.org/namespaces/inkscape"
   xmlns:sodipodi="http://sodipodi.sourceforge.net/DTD/sodipodi-0.dtd"
   xmlns="http://www.w3.org/2000/svg"
   xmlns:svg="http://www.w3.org/2000/svg">
  <sodipodi:namedview
     id="namedview845"
     pagecolor="#ffffff"
     bordercolor="#666666"
     borderopacity="1.0"
     inkscape:pageshadow="2"
     inkscape:pageopacity="0.0"
     inkscape:pagecheckerboard="0"
     inkscape:document-units="px"
     showgrid="false"
     units="px"
     showguides="false"
     inkscape:zoom="6.2421875"
     inkscape:cx="64"
     inkscape:cy="64"
     inkscape:window-width="1920"
     inkscape:window-height="1019"
     inkscape:window-x="0"
     inkscape:window-y="31"
     inkscape:window-maximized="1"
     inkscape:current-layer="svg843" />
  <defs
     id="defs840" />
  <path
     id="rect954"
     style="fill:#ffca28;stroke-width:0.999999;stroke-linecap:round;stroke-linejoin:round;fill-opacity:1"
     d="M 63.921875 4 C 62.296056 4.0409155 61 5.3639684 61 7 L 61 13 C 61 14.662 62.338002 16 64 16 C 65.661998 16 67 14.662 67 13 L 67 7 C 67 5.3379996 65.661998 4 64 4 C 63.974031 4 63.947682 3.9993505 63.921875 4 z M 23.695312 20.691406 C 22.928455 20.691406 22.161824 20.986614 21.574219 21.574219 C 21.555775 21.592663 21.535367 21.610173 21.517578 21.628906 C 20.396882 22.807462 20.41737 24.659557 21.574219 25.816406 L 25.816406 30.058594 C 26.991617 31.233805 28.883384 31.233804 30.058594 30.058594 C 31.233804 28.883384 31.233805 26.991617 30.058594 25.816406 L 25.816406 21.574219 C 25.2288 20.986613 24.462171 20.691406 23.695312 20.691406 z M 104.26953 20.691406 C 103.51461 20.700696 102.76202 20.995796 102.18359 21.574219 L 97.941406 25.816406 C 96.766196 26.991616 96.766196 28.883384 97.941406 30.058594 C 99.116616 31.233804 101.00838 31.233804 102.18359 30.058594 L 106.42578 25.816406 C 107.601 24.641194 107.60099 22.749429 106.42578 21.574219 C 106.40726 21.555775 106.38969 21.535365 106.37109 21.517578 C 105.78181 20.95724 105.02445 20.682116 104.26953 20.691406 z M 64 22 A 42 42 0 0 0 22 64 A 42 42 0 0 0 64 106 A 42 42 0 0 0 106 64 A 42 42 0 0 0 64 22 z M 7 61 C 5.3379906 61 4 62.338002 4 64 C 4 65.661998 5.3379906 67 7 67 L 13 67 C 14.662002 67 16 65.661998 16 64 C 16 62.338002 14.662002 61 13 61 L 7 61 z M 115 61 C 113.338 61 112 62.338002 112 64 C 112 65.661998 113.338 67 115 67 L 121 67 C 122.662 67 124 65.661998 124 64 C 124 63.973921 124.00065 63.947689 124 63.921875 C 123.95907 62.296058 122.63603 61 121 61 L 115 61 z M 27.9375 97.060547 C 27.170643 97.060547 26.404013 97.353801 25.816406 97.941406 L 21.574219 102.18359 C 20.399001 103.35881 20.399009 105.25057 21.574219 106.42578 C 22.749429 107.60099 24.641188 107.601 25.816406 106.42578 L 30.058594 102.18359 C 31.233806 101.00838 31.233804 99.116616 30.058594 97.941406 C 29.470989 97.353801 28.704357 97.060547 27.9375 97.060547 z M 100.0625 97.060547 C 99.295643 97.060547 98.529011 97.353801 97.941406 97.941406 C 96.766196 99.116616 96.766192 101.00838 97.941406 102.18359 L 102.18359 106.42578 C 103.35881 107.601 105.25057 107.60099 106.42578 106.42578 C 107.60099 105.25057 107.601 103.35881 106.42578 102.18359 L 102.18359 97.941406 C 101.59599 97.353799 100.82936 97.060546 100.0625 97.060547 z M 64 112 C 62.338002 112 61 113.338 61 115 L 61 121 C 61 122.66201 62.338002 124 64 124 C 65.661998 124 67 122.66201 67 121 L 67 115 C 67 113.338 65.661998 112 64 112 z "
     transform="scale(0.26458334)" />
  <circle
     style="fill:#ffe082;fill-opacity:1;stroke-width:1.87613;stroke-linecap:round;stroke-linejoin:round"
     id="path1558"
     cx="16.933332"
     cy="16.933332"
     r="10.31875" />
  <path
     id="path8370"
     style="fill:#ffca28;fill-opacity:1;stroke-width:1.0625;stroke-linecap:round;stroke-linejoin:round"
     d="M 64 30 L 64 36 A 28 28 0 0 1 92 64 L 98 64 A 34.000001 34.000001 0 0 0 64 30 z "
     transform="scale(0.26458334)" />
</svg>
