<?xml version="1.0" encoding="UTF-8" standalone="no"?>
<svg
   width="64"
   height="64"
   viewBox="0 0 16.933 16.933"
   version="1.1"
   id="svg16"
   sodipodi:docname="image-loading.svg"
   inkscape:version="1.1.2 (0a00cf5339, 2022-02-04, custom)"
   xmlns:inkscape="http://www.inkscape.org/namespaces/inkscape"
   xmlns:sodipodi="http://sodipodi.sourceforge.net/DTD/sodipodi-0.dtd"
   xmlns="http://www.w3.org/2000/svg"
   xmlns:svg="http://www.w3.org/2000/svg">
  <defs
     id="defs20" />
  <sodipodi:namedview
     id="namedview18"
     pagecolor="#ffffff"
     bordercolor="#666666"
     borderopacity="1.0"
     inkscape:pageshadow="2"
     inkscape:pageopacity="0.0"
     inkscape:pagecheckerboard="0"
     showgrid="false"
     inkscape:zoom="4.4304659"
     inkscape:cx="2.7085187"
     inkscape:cy="8.8026859"
     inkscape:window-width="1920"
     inkscape:window-height="1020"
     inkscape:window-x="0"
     inkscape:window-y="0"
     inkscape:window-maximized="1"
     inkscape:current-layer="svg16" />
  <path
     id="path6"
     style="opacity:0.3;fill:#ffffff;stroke-width:3.7796"
     d="M 17.001953 4 L 17.001953 6.0039062 L 28.001953 6.0039062 L 28.001953 4 L 17.001953 4 z M 36.001953 4 L 36.001953 6.0039062 L 47.001953 6.0039062 L 47.001953 4 L 36.001953 4 z M 8.390625 4.0039062 C 7.5047328 4.0067655 6.7793502 4.0212211 6.1445312 4.0917969 C 5.2981061 4.1859127 4.5354225 4.3938613 3.9667969 4.9628906 C 3.3981708 5.5319199 3.189728 6.2938006 3.0957031 7.140625 C 3.0016782 7.9874494 3.0058594 9.0026843 3.0058594 10.335938 L 5.0078125 10.335938 C 5.0078125 9.0026843 5.0075653 8.0144139 5.0800781 7.3613281 C 5.1525936 6.7082428 5.2794243 6.4706441 5.3769531 6.3730469 C 5.474482 6.27545 5.7128123 6.1506669 6.3652344 6.078125 C 7.0176564 6.0055831 7.9997232 6.0039063 9.3320312 6.0039062 L 9.3320312 4.0039062 C 8.9989539 4.0039062 8.6859242 4.0029535 8.390625 4.0039062 z M 54.673828 4.0039062 L 54.673828 6.0039062 C 56.007079 6.0039062 56.987604 6.0055668 57.640625 6.078125 C 58.293646 6.150682 58.533179 6.2753668 58.630859 6.3730469 C 58.728524 6.4707269 58.853213 6.7083089 58.925781 7.3613281 C 58.99835 8.0143477 59.005859 9.0026843 59.005859 10.335938 L 61 10.335938 C 61 9.0026843 61.004533 7.9875155 60.910156 7.140625 C 60.816044 6.2937337 60.609959 5.5318364 60.041016 4.9628906 C 59.472068 4.3939449 58.710169 4.1858961 57.863281 4.0917969 C 57.01639 3.997698 56.007079 4.0039062 54.673828 4.0039062 z M 3.0039062 18 L 3.0039062 29 L 5.0019531 29 L 5.0019531 18 L 3.0039062 18 z M 59.001953 18 L 59.001953 29 L 61.003906 29 L 61.003906 18 L 59.001953 18 z M 31.939453 19.001953 A 14.007205 14.007205 0 0 0 17.939453 33.001953 A 14.007205 14.007205 0 0 0 31.939453 47.001953 A 14.007205 14.007205 0 0 0 45.939453 33.001953 A 14.007205 14.007205 0 0 0 31.939453 19.001953 z M 32 21 A 12 12 0 0 1 44 33 A 12 12 0 0 1 32.388672 44.978516 A 12.004016 12.004016 0 0 1 31.939453 45.005859 A 12.004016 12.004016 0 0 1 31 44.943359 A 12 12 0 0 1 20 33 A 12 12 0 0 1 32 21 z M 31.541016 24.226562 L 30.199219 33.603516 L 36.900391 38.966797 L 36.900391 37.625 L 32.882812 32.265625 L 32.882812 24.226562 L 31.541016 24.226562 z M 3.0039062 37.003906 L 3.0039062 48.001953 L 5.0019531 48.001953 L 5.0019531 37.003906 L 3.0039062 37.003906 z M 59.001953 37.003906 L 59.001953 48.001953 L 61.003906 48.001953 L 61.003906 37.003906 L 59.001953 37.003906 z M 3 55.669922 C 3 57.004114 2.9938054 58.019831 3.0878906 58.867188 C 3.1819747 59.714543 3.3901223 60.475653 3.9589844 61.044922 C 4.5278466 61.614187 5.2975747 61.821843 6.1445312 61.916016 C 6.9914879 62.010203 7.9987783 62.003906 9.3320312 62.003906 L 9.3320312 60.003906 C 7.9987783 60.003906 7.0103753 60.002296 6.3574219 59.929688 C 5.7044688 59.857081 5.4747174 59.73262 5.3769531 59.634766 C 5.2791899 59.53695 5.1526503 59.298153 5.0800781 58.644531 C 5.007506 57.990913 5 57.004114 5 55.669922 L 3 55.669922 z M 59.005859 55.669922 C 59.005859 57.004114 58.998312 57.990913 58.925781 58.644531 C 58.853213 59.298149 58.728638 59.536934 58.630859 59.634766 C 58.533081 59.732582 58.29357 59.857081 57.640625 59.929688 C 56.987672 60.002293 56.007079 60.003906 54.673828 60.003906 L 54.673828 62.003906 C 56.007079 62.003906 57.016325 62.010317 57.863281 61.916016 C 58.710237 61.821828 59.472152 61.614213 60.041016 61.044922 C 60.609876 60.475653 60.816074 59.714543 60.910156 58.867188 C 61.004231 58.019831 61 57.004114 61 55.669922 L 59.005859 55.669922 z M 17.001953 60.003906 L 17.001953 62.005859 L 28.001953 62.005859 L 28.001953 60.003906 L 17.001953 60.003906 z M 36.001953 60.003906 L 36.001953 62.005859 L 47.001953 62.005859 L 47.001953 60.003906 L 36.001953 60.003906 z "
     transform="scale(0.26457812)" />
  <path
     id="path10"
     style="stroke-width:3.7796;fill:#000000;opacity:0.5"
     d="M 8.3886719 2.9980469 C 7.5027797 3.0009033 6.777397 3.015352 6.1425781 3.0859375 C 5.2961529 3.1800514 4.5334695 3.3880022 3.9648438 3.9570312 C 3.3962179 4.5260605 3.1877749 5.2879413 3.09375 6.1347656 C 2.9997251 6.98159 3.0039062 7.9968252 3.0039062 9.3300781 L 5.0058594 9.3300781 C 5.0058594 7.9968252 5.0056122 7.0085543 5.078125 6.3554688 C 5.15064 5.7023834 5.2774712 5.4647848 5.375 5.3671875 C 5.4725288 5.2695906 5.710859 5.1448075 6.3632812 5.0722656 C 7.0157033 4.9997237 7.9977701 4.9980469 9.3300781 4.9980469 L 9.3300781 2.9980469 C 8.9970011 2.9980469 8.6839693 2.9970947 8.3886719 2.9980469 z M 28 2.9980469 L 17 3.0019531 L 17 5 L 28 5 L 28 2.9980469 z M 47 2.9980469 L 36 3.0019531 L 36 5 L 47 5 L 47 2.9980469 z M 54.671875 3.0039062 L 54.671875 5.0058594 C 56.005126 5.0058594 56.985587 5.0056122 57.638672 5.078125 C 58.291757 5.15064 58.531309 5.2774712 58.628906 5.375 C 58.726496 5.472529 58.85126 5.710859 58.923828 6.3632812 C 58.996358 7.0157033 59.003906 7.9977701 59.003906 9.3300781 L 60.998047 9.3300781 C 60.998047 7.9977701 61.002443 6.9890034 60.908203 6.1425781 C 60.814089 5.2961529 60.608089 4.5334695 60.039062 3.9648438 C 59.470034 3.3962179 58.708152 3.1877749 57.861328 3.09375 C 57.014505 2.9997251 56.005126 3.0039062 54.671875 3.0039062 z M 3.0019531 17 L 3.0019531 28 L 5 28 L 5 17 L 3.0019531 17 z M 59 17 L 59 28 L 61.001953 28 L 61.001953 17 L 59 17 z M 32 18 C 24.26966 18.004 18.003975 24.26966 18 32 C 18.004 39.730339 24.26966 45.996024 32 46 C 39.730339 45.996 45.996024 39.730339 46 32 C 45.9939 24.271186 39.728815 18.007879 32 18.003906 L 32 18 z M 32 20 A 12 12 0 0 1 44 32 A 12 12 0 0 1 32.099609 43.996094 C 32.066007 43.997241 32.033674 44.003035 32 44.003906 C 31.966326 44.003035 31.933993 43.997241 31.900391 43.996094 A 12 12 0 0 1 20 32 A 12 12 0 0 1 32 20 z M 31.541016 22.878906 L 30.199219 32.261719 L 36.900391 37.625 L 36.900391 36.283203 L 32.882812 30.921875 L 32.882812 22.878906 L 31.541016 22.878906 z M 3.0019531 36 L 3.0019531 47 L 5 47 L 5 36 L 3.0019531 36 z M 59 36 L 59 47 L 61.001953 47 L 61.001953 36 L 59 36 z M 2.9980469 54.664062 C 2.9980469 55.997313 2.9918365 57.014436 3.0859375 57.861328 C 3.1800365 58.708216 3.3880859 59.470117 3.9570312 60.039062 C 4.525977 60.608006 5.2956876 60.814106 6.1425781 60.908203 C 6.9894686 61.002313 7.9968252 60.998047 9.3300781 60.998047 L 9.3300781 58.998047 C 7.9968252 58.998047 7.0084881 58.996348 6.3554688 58.923828 C 5.7024491 58.851265 5.4726808 58.718774 5.375 58.621094 C 5.2773192 58.52341 5.1506828 58.291693 5.078125 57.638672 C 5.0055672 56.985651 4.9980469 55.997313 4.9980469 54.664062 L 2.9980469 54.664062 z M 59.003906 54.671875 C 59.003906 56.005126 58.996308 56.985651 58.923828 57.638672 C 58.851258 58.291693 58.726609 58.531226 58.628906 58.628906 C 58.531246 58.726566 58.291708 58.85126 57.638672 58.923828 C 56.985651 58.996398 56.005126 59.003906 54.671875 59.003906 L 54.671875 60.998047 C 56.005126 60.998047 57.014436 61.004446 57.861328 60.910156 C 58.708216 60.816046 59.470117 60.607998 60.039062 60.039062 C 60.608006 59.470117 60.814106 58.708216 60.908203 57.861328 C 61.002313 57.014436 60.998047 56.005126 60.998047 54.671875 L 59.003906 54.671875 z M 17 59 L 17 61.001953 L 28 61.001953 L 28 59 L 17 59 z M 36 59 L 36 61.001953 L 47 61.001953 L 47 59 L 36 59 z "
     transform="scale(0.26457812)" />
</svg>
