<?xml version="1.0" encoding="UTF-8" standalone="no"?>
<!-- Created with Inkscape (http://www.inkscape.org/) -->

<svg
   width="64"
   height="64"
   viewBox="0 0 16.933333 16.933334"
   version="1.1"
   id="svg5"
   inkscape:version="1.1.2 (0a00cf5339, 2022-02-04, custom)"
   sodipodi:docname="security-high.svg"
   xmlns:inkscape="http://www.inkscape.org/namespaces/inkscape"
   xmlns:sodipodi="http://sodipodi.sourceforge.net/DTD/sodipodi-0.dtd"
   xmlns="http://www.w3.org/2000/svg"
   xmlns:svg="http://www.w3.org/2000/svg">
  <sodipodi:namedview
     id="namedview7"
     pagecolor="#ffffff"
     bordercolor="#666666"
     borderopacity="1.0"
     inkscape:pageshadow="2"
     inkscape:pageopacity="0.0"
     inkscape:pagecheckerboard="0"
     inkscape:document-units="px"
     showgrid="false"
     units="px"
     height="64px"
     showguides="false"
     inkscape:zoom="12.59375"
     inkscape:cx="31.960298"
     inkscape:cy="32"
     inkscape:window-width="1851"
     inkscape:window-height="1009"
     inkscape:window-x="69"
     inkscape:window-y="31"
     inkscape:window-maximized="1"
     inkscape:current-layer="svg5" />
  <defs
     id="defs2" />
  <path
     style="color:#000000;fill:#555761;stroke:none;stroke-linejoin:round;-inkscape-stroke:none;fill-opacity:1;opacity:0.35"
     d="M 8.376823,1.0737024 2.5570772,3.1498743 c -0.1056586,0.037654 -0.176097,0.137833 -0.1757812,0.25 0,2.1860909 -0.00495,3.6165464 0.087891,4.734375 0.092844,1.1178287 0.2886116,1.9269997 0.6835938,2.8183597 0.7880726,1.777771 1.9095361,2.990961 5.1810739,4.886719 0.082128,0.04766 0.1834968,0.04766 0.265625,0 3.2715193,-1.895747 4.3916103,-3.108395 5.1796873,-4.886719 0.394977,-0.891349 0.592634,-1.7004538 0.685547,-2.8183597 0.09291,-1.1179058 0.08816,-2.5485347 0.08789,-4.734375 3.16e-4,-0.112167 -0.07012,-0.2123461 -0.175781,-0.25 L 8.5545574,1.0737024 c -0.057473,-0.020492 -0.1202616,-0.020492 -0.1777344,0 z m 0.089844,0.5292969 5.552734,1.9804688 c 4.04e-4,2.0443183 0.0041,3.4694701 -0.08203,4.5058594 -0.08965,1.0786198 -0.266734,1.8066264 -0.640625,2.6503905 -0.736067,1.66096 -1.744819,2.739548 -4.830078,4.546875 C 5.3814246,13.479256 4.3732269,12.400183 3.6371554,10.739718 3.2632692,9.8959653 3.0861136,9.1678923 2.9965304,8.0893275 2.9104545,7.0529911 2.9143294,5.6280348 2.9144991,3.5834681 Z"
     id="path1093"
     sodipodi:nodetypes="ccccccccsccccccccccscc" />
  <path
     style="color:#000000;fill:#f2f2f2;stroke:none;stroke-width:0.529167;stroke-linejoin:round;-inkscape-stroke:none"
     d="M 8.4666284,1.3229167 2.6458793,3.3998684 c 0,4.3729759 -0.019579,5.7117219 0.7492901,7.4468366 0.7693981,1.735644 1.8187147,2.878831 5.071459,4.763698 3.2527446,-1.884867 4.3020616,-3.027525 5.0714596,-4.763698 0.768869,-1.7351147 0.749819,-3.0743897 0.74929,-7.4468366 z"
     id="path1091"
     sodipodi:nodetypes="ccccccc" />
  <path
     d="M 3.9721145,4.3680751 8.4691876,2.7938659 12.966696,4.3680751 c 0.0012,4.7624995 0.1327,7.1438799 -4.4975084,9.8029729 C 3.7066879,11.511955 3.9721145,9.1305746 3.9721145,4.3680751 Z"
     style="color:#000000;fill:#5bdd4e;stroke:none;stroke-width:0.140009;-inkscape-stroke:none;fill-opacity:1"
     id="path5064" />
  <path
     id="path4748"
     style="color:#000000;opacity:0.35;fill:#0f7f30;fill-opacity:1;stroke:none;stroke-width:3.77953;-inkscape-stroke:none"
     d="M 32.009766 10.558594 L 15.013672 16.509766 C 15.013672 34.509764 14.009767 43.510432 32.009766 53.560547 C 49.509766 43.510432 49.012348 34.509764 49.007812 16.509766 L 32.009766 10.558594 z M 32.007812 11.619141 L 47.990234 17.214844 C 47.995904 25.840037 48.051809 31.596038 46.128906 37.195312 C 44.197356 42.81975 40.183237 47.500119 32 52.320312 C 23.583386 47.498558 19.579253 42.820076 17.708984 37.201172 C 15.847527 31.608742 16.008936 25.849296 16.019531 17.214844 L 32.007812 11.619141 z "
     transform="scale(0.26458334)" />
  <path
     id="path5184"
     style="color:#000000;opacity:0.2;fill:#ffffff;stroke:none;stroke-width:0.529168;stroke-linejoin:round;-inkscape-stroke:none"
     d="M 32 5 L 10 12.849609 C 10 29.377393 9.9260701 34.43818 12.832031 40.996094 C 15.739993 47.556008 19.706163 51.876093 32 59 L 32 5 z "
     transform="scale(0.26458334)" />
</svg>
