<?xml version="1.0" encoding="UTF-8" standalone="no"?>
<!-- Created with Inkscape (http://www.inkscape.org/) -->

<svg
   width="64"
   height="64"
   viewBox="0 0 16.933333 16.933334"
   version="1.1"
   id="svg5"
   inkscape:version="1.1.2 (0a00cf5339, 2022-02-04, custom)"
   sodipodi:docname="system-reboot.svg"
   xmlns:inkscape="http://www.inkscape.org/namespaces/inkscape"
   xmlns:sodipodi="http://sodipodi.sourceforge.net/DTD/sodipodi-0.dtd"
   xmlns="http://www.w3.org/2000/svg"
   xmlns:svg="http://www.w3.org/2000/svg">
  <sodipodi:namedview
     id="namedview7"
     pagecolor="#ffffff"
     bordercolor="#666666"
     borderopacity="1.0"
     inkscape:pageshadow="2"
     inkscape:pageopacity="0.0"
     inkscape:pagecheckerboard="0"
     inkscape:document-units="px"
     showgrid="false"
     units="px"
     height="64px"
     inkscape:zoom="13.15625"
     inkscape:cx="31.961995"
     inkscape:cy="32"
     inkscape:window-width="1920"
     inkscape:window-height="1019"
     inkscape:window-x="0"
     inkscape:window-y="31"
     inkscape:window-maximized="1"
     inkscape:current-layer="svg5" />
  <defs
     id="defs2" />
  <path
     id="path7088"
     style="opacity:1;fill:#26c6da;fill-opacity:1;stroke-width:2;stroke-linejoin:round"
     d="M 32,4 C 16.536027,4 4,16.536027 4,32 4,47.463973 16.536027,60 32,60 47.463973,60 60,47.463973 60,32 60,16.536027 47.463973,4 32,4 Z"
     transform="scale(0.26458334)"
     sodipodi:nodetypes="sssss" />
  <circle
     style="opacity:1;fill:#4dd0e1;fill-opacity:1;stroke-width:0.502554;stroke-linejoin:round"
     id="path24384"
     cx="8.4666662"
     cy="8.4666662"
     r="7.1437502" />
  <path
     d="m 8.4666668,3.4395833 c -0.2931583,0 -0.5291667,0.2360083 -0.5291667,0.5291667 v 1.0583333 c 0,0.2931584 0.2360084,0.5291667 0.5291667,0.5291667 0.2931584,0 0.5291667,-0.2360083 0.5291667,-0.5291667 V 3.96875 c 0,-0.2931584 -0.2360083,-0.5291667 -0.5291667,-0.5291667 z M 5.130953,4.6012695 c -0.1352651,0 -0.2704902,0.051899 -0.3741373,0.1555462 -0.2072944,0.2072942 -0.2072944,0.5409803 0,0.7482747 l 0.7482748,0.7482748 c 0.2072942,0.2072942 0.5409803,0.2072942 0.7482747,0 0.2072942,-0.2072944 0.2072942,-0.5409806 0,-0.7482748 L 5.5050905,4.7568157 C 5.4014431,4.6531683 5.266218,4.6012695 5.130953,4.6012695 Z m 6.670911,0 c -0.135265,0 -0.270491,0.051899 -0.374138,0.1555462 l -0.748274,0.7482747 c -0.207294,0.2072943 -0.207295,0.5409804 0,0.7482748 0.207294,0.2072942 0.540981,0.2072942 0.748274,0 l 0.748275,-0.7482748 c 0.207294,-0.2072946 0.207295,-0.5409805 0,-0.7482747 C 12.072354,4.6531683 11.937129,4.6012695 11.801864,4.6012695 Z M 3.96875,7.9375001 c -0.2931583,0 -0.5291667,0.2360083 -0.5291667,0.5291667 0,0.2931583 0.2360084,0.5291667 0.5291667,0.5291667 h 1.0583334 c 0.2931583,0 0.5291667,-0.2360084 0.5291667,-0.5291667 0,-0.2931584 -0.2360084,-0.5291667 -0.5291667,-0.5291667 z m 7.9375,0 c -0.293158,0 -0.529166,0.2360083 -0.529166,0.5291667 0,0.2931583 0.236008,0.5291667 0.529166,0.5291667 h 1.058334 c 0.293158,0 0.529166,-0.2360084 0.529166,-0.5291667 0,-0.2931584 -0.236008,-0.5291667 -0.529166,-0.5291667 z M 5.8792277,10.523906 c -0.135265,0 -0.2704901,0.0519 -0.3741372,0.155546 l -0.7482748,0.748275 c -0.2072941,0.207294 -0.2072944,0.54098 0,0.748274 0.2072942,0.207295 0.54098,0.207294 0.7482748,0 l 0.7482747,-0.748274 c 0.2072942,-0.207294 0.2072942,-0.540981 0,-0.748275 C 6.1497179,10.575805 6.0144928,10.523906 5.8792277,10.523906 Z m 5.1743623,0 c -0.135266,0 -0.270491,0.0519 -0.374138,0.155546 -0.207295,0.207294 -0.207295,0.540981 0,0.748275 l 0.748274,0.748791 c 0.207295,0.207295 0.540981,0.207295 0.748275,0 0.207295,-0.207294 0.207294,-0.541497 0,-0.748791 L 11.427726,10.679452 C 11.32408,10.575805 11.188855,10.523906 11.05359,10.523906 Z m -2.5869232,0.853178 c -0.2931583,0 -0.5291667,0.236008 -0.5291667,0.529167 v 1.058333 c 0,0.293158 0.2360084,0.529167 0.5291667,0.529167 0.2931584,0 0.5291667,-0.236009 0.5291667,-0.529167 v -1.058333 c 0,-0.293159 -0.2360083,-0.529167 -0.5291667,-0.529167 z"
     style="fill:#ffffff;stroke-width:0.264583"
     id="path44154"
     sodipodi:nodetypes="ssssssssssssssssssscsssssssssssssssssssssssssssccsscssssssss" />
</svg>
