<?xml version="1.0" encoding="UTF-8" standalone="no"?>
<svg
   width="32"
   height="32"
   version="1.1"
   id="svg8"
   sodipodi:docname="bluetooth.svg"
   inkscape:version="1.1.2 (0a00cf5339, 2022-02-04, custom)"
   xmlns:inkscape="http://www.inkscape.org/namespaces/inkscape"
   xmlns:sodipodi="http://sodipodi.sourceforge.net/DTD/sodipodi-0.dtd"
   xmlns="http://www.w3.org/2000/svg"
   xmlns:svg="http://www.w3.org/2000/svg">
  <defs
     id="defs12" />
  <sodipodi:namedview
     id="namedview10"
     pagecolor="#ffffff"
     bordercolor="#666666"
     borderopacity="1.0"
     inkscape:pageshadow="2"
     inkscape:pageopacity="0.0"
     inkscape:pagecheckerboard="0"
     showgrid="false"
     inkscape:zoom="13.21875"
     inkscape:cx="4.8037825"
     inkscape:cy="21.030733"
     inkscape:window-width="1851"
     inkscape:window-height="1009"
     inkscape:window-x="69"
     inkscape:window-y="31"
     inkscape:window-maximized="1"
     inkscape:current-layer="svg8" />
  <path
     d="M 12.524,30.213 C 9.154,29.26 7.109,26.889 6.085,22.746 5.529,20.495 5.312,14.464 5.687,11.66 6.532,5.3350001 9.108,2.2780001 14.137,1.6350001 c 1.405,-0.18 2.34,-0.18 3.736,-0.001 5.068,0.647 7.62,3.74 8.48,10.2729999 0.297,2.26 0.118,8.398 -0.3,10.265 -0.933,4.17 -2.697,6.587 -5.656,7.752 -1.558,0.613 -6.132,0.78 -7.873,0.289 z"
     style="fill:#5cb2fb;stroke:none"
     id="path1190" />
  <path
     d="M 17.933594,1.135944 C 16.511731,0.95438622 15.505989,0.95433692 14.074219,1.137894 11.474378,1.470185 9.429645,2.4551999 7.966797,4.1925815 6.503948,5.929963 5.630082,8.3729204 5.201172,11.591019 4.811413,14.51317 5.010684,20.439743 5.609375,22.862503 c 1.008797,4.089477 3.121958,6.595458 6.417969,7.669922 v 0.05664 l 0.363281,0.101562 c 0.993966,0.280643 2.572408,0.347153 4.15625,0.289063 1.583842,-0.05809 3.108469,-0.231751 4.027344,-0.59375 3.112418,-1.226647 5.00279,-3.846647 5.955078,-8.107422 0.461184,-2.06482 0.62226,-8.037769 0.30664,-10.439453 -0.436,-3.3198052 -1.306493,-5.8213373 -2.769531,-7.5957023 -1.463038,-1.774365 -3.512952,-2.7720466 -6.132812,-3.1074219 z m -0.126953,0.9921876 c 2.442134,0.312624 4.196322,1.1831183 5.488281,2.7499999 1.291959,1.5668817 2.12683,3.8786095 2.548828,7.0917965 0.27838,2.118311 0.0818,8.420669 -0.291016,10.089845 -0.911709,4.079216 -2.546127,6.293133 -5.345703,7.396484 -0.637123,0.251001 -2.172861,0.467528 -3.697265,0.523438 -1.520552,0.05577 -3.090553,-0.04075 -3.837891,-0.25 l -0.0098,-0.002 C 9.45331,28.820472 7.575591,26.659854 6.580078,22.624226 6.06677,20.54699 5.835119,14.409678 6.193359,11.723834 6.607448,8.6169396 7.441773,6.3699811 8.732422,4.8371159 c 1.290649,-1.5328651 3.045596,-2.3973229 5.46875,-2.7070312 1.376226,-0.1764393 2.239334,-0.176395 3.605469,-0.00195 z"
     style="color:#000000;opacity:0.35;fill:#002e99;-inkscape-stroke:none;stroke:none"
     id="path990" />
  <path
     d="m 15.00703,6 v 8.703125 L 11.360547,11.05664 11.007031,10.703125 10.3,11.410156 10.653515,11.763672 14.514844,15.625 10.675,19.037109 l -0.373047,0.332031 0.664062,0.746094 0.373047,-0.332031 3.667968,-3.259766 v 9.296875 l 5.716797,-5.40039 -4.716797,-4.716797 v -0.06836 l 4.740235,-4.21289 z m 1,2.3203122 3.259767,3.0800778 -3.259767,2.896485 z m 0,8.7968748 3.283204,3.283203 L 16.00703,23.5 Z"
     style="color:#000000;fill:#ffffff;stroke-linecap:square;-inkscape-stroke:none"
     id="path860" />
</svg>
