<?xml version="1.0" encoding="UTF-8" standalone="no"?>
<!-- Created with Inkscape (http://www.inkscape.org/) -->

<svg
   width="48"
   height="48"
   viewBox="0 0 12.7 12.7"
   version="1.1"
   id="svg5"
   inkscape:version="1.1.2 (0a00cf5339, 2022-02-04, custom)"
   sodipodi:docname="preferences-system-network.svg"
   xmlns:inkscape="http://www.inkscape.org/namespaces/inkscape"
   xmlns:sodipodi="http://sodipodi.sourceforge.net/DTD/sodipodi-0.dtd"
   xmlns="http://www.w3.org/2000/svg"
   xmlns:svg="http://www.w3.org/2000/svg">
  <sodipodi:namedview
     id="namedview7"
     pagecolor="#ffffff"
     bordercolor="#666666"
     borderopacity="1.0"
     inkscape:pageshadow="2"
     inkscape:pageopacity="0.0"
     inkscape:pagecheckerboard="0"
     inkscape:document-units="px"
     showgrid="false"
     units="px"
     height="64px"
     inkscape:zoom="16"
     inkscape:cx="35.90625"
     inkscape:cy="8.03125"
     inkscape:window-width="1920"
     inkscape:window-height="1021"
     inkscape:window-x="0"
     inkscape:window-y="0"
     inkscape:window-maximized="1"
     inkscape:current-layer="svg5" />
  <defs
     id="defs2" />
  <path
     style="color:#000000;fill:#7c6ae5;stroke:none;stroke-width:0.264583;stroke-linejoin:round;-inkscape-stroke:none;fill-opacity:1"
     d="M 11.773958,6.3500006 A 5.4239587,5.4239588 0 0 1 6.3500004,11.773958 5.4239587,5.4239588 0 0 1 0.92604168,6.3500006 5.4239587,5.4239588 0 0 1 6.3500004,0.92604168 5.4239587,5.4239588 0 0 1 11.773958,6.3500006 Z"
     id="path1283" />
  <path
     d="M 6.3358215,1.018099 C 6.2630115,1.025169 6.2097647,1.089996 6.2169656,1.162793 6.2328966,1.212319 6.2763736,1.24791 6.32807,1.253744 4.9201681,1.7339851 3.8556594,2.8700246 3.0941589,4.1574424 3.0667611,3.4468845 3.200922,2.7314046 3.595937,2.0371582 3.6320238,1.9736544 3.609817,1.8929209 3.5463276,1.8568075 3.4828239,1.8207207 3.4020903,1.8429282 3.3659768,1.9064169 2.863727,2.7891306 2.7330421,3.7150397 2.854897,4.6137452 2.848757,4.6254532 2.842906,4.6371662 2.83681,4.6488852 2.6258929,4.7264394 2.3840127,4.7868586 2.2032572,4.879362 1.8257895,5.0725348 1.5188429,5.2981836 1.3097717,5.5635581 1.1007005,5.8289325 0.99293863,6.1394057 1.0281352,6.4715128 c 0.0076,0.072617 0.072587,0.1253487 0.1452107,0.1178224 0.07284,-0.00759 0.1256545,-0.072913 0.1178223,-0.1457275 C 1.2635263,6.1827841 1.3417689,5.9504421 1.517511,5.7273722 1.6932531,5.5043025 1.9691868,5.2964133 2.3236633,5.1150065 2.4164068,5.0675442 2.5526193,5.0383123 2.6554258,4.9946004 2.6013981,5.1082617 2.5282181,5.2177297 2.4786926,5.3315309 2.0679265,6.275401 1.8106934,7.2156582 1.7009623,7.9773642 c -0.054866,0.3808529 -0.07323,0.7166935 -0.053227,0.9901203 0.020004,0.273427 0.069581,0.4877808 0.1989542,0.6299357 0.049198,0.05415 0.1330122,0.05809 0.1870687,0.0088 0.010268,-0.01009 0.018821,-0.02178 0.025321,-0.03462 0.019053,0.06135 0.079425,0.100144 0.1431438,0.09198 1.0368965,-0.18188 1.9950919,-0.5968529 2.85874,-1.1084597 0.7940204,0.7666553 1.689975,1.3495677 2.5404136,1.6810345 -0.7223797,0.299055 -1.4413077,0.506614 -2.0463867,0.61805 -0.6541397,0.120471 -1.1873463,0.13736 -1.4242026,0.09198 -0.071775,-0.01354 -0.140942,0.03365 -0.1545125,0.10542 -0.013562,0.07161 0.033344,0.140697 0.1049031,0.154512 0.3128153,0.05993 0.8485476,0.03202 1.5218709,-0.09198 0.5880589,-0.108301 1.2781415,-0.310325 1.9771404,-0.589111 -0.2573305,0.386937 -0.5418346,0.759916 -0.883667,1.096574 -0.051936,0.05138 -0.052398,0.135123 -0.00103,0.187068 0.051229,0.05208 0.1349777,0.05278 0.1870686,0.0016 0.4414266,-0.434744 0.8043463,-0.918796 1.1105264,-1.428336 0.8458848,0.250558 1.6295501,0.224254 2.1301028,-0.259416 0.05266,-0.05066 0.05428,-0.1344151 0.0036,-0.1870688 -0.0508,-0.05252 -0.1345557,-0.0539 -0.1870687,-0.0031 -0.34872,0.3369588 -0.9253976,0.3594048 -1.5740643,0.2278938 1.4338543,-0.7256886 2.793669,-1.8567631 3.28507,-3.5935793 0.01991,-0.0702 -0.02079,-0.1432626 -0.09095,-0.1632974 -0.0702,-0.019907 -0.143263,0.020786 -0.163297,0.090951 C 10.927436,8.1521072 9.6123683,9.2423392 8.2085764,9.9446952 9.0379729,8.3392621 9.3109467,6.5151997 9.1418526,4.9300141 9.128245,4.8024434 9.0862607,4.6970884 9.0674385,4.57293 c 0.8986808,0.1860434 1.7214705,0.4564436 2.2939165,0.8676473 0.05924,0.042589 0.141779,0.029175 0.184484,-0.029981 0.04294,-0.059332 0.02951,-0.1422641 -0.02997,-0.1850017 C 10.883811,4.771571 10.008199,4.4822528 9.0581358,4.291801 9.0438959,4.2688616 9.0229779,4.2508295 8.9981912,4.2401247 8.8363247,3.4116389 8.5914806,2.6500593 8.2163266,2.0929688 7.7357176,1.3792807 7.0811464,0.9453511 6.3358215,1.018099 Z M 6.915631,1.3519288 c 1.503e-4,4.75e-5 3.704e-4,-4.76e-5 5.291e-4,0 C 7.3202654,1.4797927 7.6869877,1.7800626 7.997231,2.2407634 8.3341868,2.7411313 8.5630239,3.4438072 8.7222515,4.2101521 7.5671346,4.0191399 6.3044175,3.9927009 5.1353902,4.1161012 4.4297991,4.190582 3.792248,4.336174 3.2057925,4.5145264 4.0394617,3.0211543 5.2587625,1.6929699 6.9156434,1.3519288 Z m -0.03514,2.9574421 c 0.6327296,0.01361 1.2542599,0.079867 1.8500163,0.181901 -0.069001,0.199625 -0.1958408,0.482405 -0.4883422,0.879533 C 7.8975349,5.8387075 7.4112747,6.3910152 6.8148618,6.9355673 6.3171967,7.3899583 5.7281707,7.825554 5.0945534,8.2176596 4.2837759,7.3962112 3.605204,6.4002412 3.2817443,5.34445 3.2276664,5.1679367 3.1999206,4.9883634 3.1659891,4.8095988 3.7604935,4.6172313 4.4192121,4.4576222 5.1627664,4.3791341 5.7194029,4.3203768 6.3008473,4.2969021 6.880491,4.3093709 Z m 1.9662883,0.4976442 c 0.00679,0.053669 0.025728,0.097099 0.031523,0.1514118 0.1727105,1.6190888 -0.1035939,3.5077955 -1.0107911,5.1170001 -0.00151,-5.29e-4 -0.00262,9e-6 -0.00414,-5.29e-4 C 7.0274997,9.7821532 6.105884,9.1773642 5.2935063,8.4047158 5.9188474,8.0117018 6.5013427,7.5804008 6.9936611,7.1308918 7.6029534,6.5745799 8.0989855,6.0113442 8.4550704,5.5278888 8.6789164,5.2239741 8.7396822,5.0311828 8.8467779,4.8070027 Z M 2.9417134,5.0173382 c 0.029954,0.1348412 0.046128,0.2718163 0.086816,0.4046262 C 3.3631121,6.5140607 4.0539101,7.5230558 4.8723449,8.3618369 4.045231,8.8445043 3.1327947,9.2313942 2.1567484,9.4026 2.1096294,9.42229 2.0780514,9.467345 2.0756164,9.5183552 2.0786864,9.4821452 2.0667264,9.4462632 2.0425434,9.4191362 1.9904788,9.361928 1.9297755,9.194039 1.9118021,8.9483641 1.8938287,8.7026895 1.9095638,8.3821701 1.962445,8.015088 2.0682085,7.2809237 2.3198488,6.3588543 2.7210549,5.4369507 2.7830283,5.2945467 2.8726553,5.1589337 2.9417134,5.0173382 Z"
     style="color:#000000;opacity:0.25;fill:#ffffff;stroke-width:0.264583;stroke-linecap:round;stroke-linejoin:round;-inkscape-stroke:none"
     id="path896" />
  <path
     style="color:#000000;opacity:0.3;fill:#360099;stroke:none;stroke-width:0.99993;stroke-linejoin:round;-inkscape-stroke:none;fill-opacity:1"
     d="M 6.3500001,0.79375001 C 3.2831533,0.79375 0.79374994,3.2831532 0.79375001,6.3500001 0.7937508,9.4168463 3.2831539,11.90625 6.3500001,11.90625 c 3.0668457,-10e-7 5.5562489,-2.4894041 5.5562499,-5.5562499 0,-3.0668464 -2.4894036,-5.55624947 -5.5562499,-5.55625009 z m 0,0.26560629 c 2.9238651,6e-7 5.2925959,2.3667787 5.2925959,5.2906438 -10e-7,2.9238646 -2.3687314,5.2925959 -5.2925959,5.2925959 -2.9238649,0 -5.290643,-2.3687309 -5.2906438,-5.2925959 0,-2.9238656 2.3667783,-5.2906438 5.2906438,-5.2906438 z"
     id="path1285" />
</svg>
