<?xml version="1.0" encoding="UTF-8" standalone="no"?>
<svg
   width="64"
   height="64"
   version="1.1"
   viewBox="0 0 16.933 16.933"
   id="svg24"
   sodipodi:docname="firefox.svg"
   inkscape:version="1.1.2 (0a00cf5339, 2022-02-04, custom)"
   xmlns:inkscape="http://www.inkscape.org/namespaces/inkscape"
   xmlns:sodipodi="http://sodipodi.sourceforge.net/DTD/sodipodi-0.dtd"
   xmlns="http://www.w3.org/2000/svg"
   xmlns:svg="http://www.w3.org/2000/svg">
  <defs
     id="defs28" />
  <sodipodi:namedview
     id="namedview26"
     pagecolor="#ffffff"
     bordercolor="#666666"
     borderopacity="1.0"
     inkscape:pageshadow="2"
     inkscape:pageopacity="0.0"
     inkscape:pagecheckerboard="0"
     showgrid="false"
     inkscape:zoom="8"
     inkscape:cx="36.75"
     inkscape:cy="47"
     inkscape:window-width="1920"
     inkscape:window-height="1019"
     inkscape:window-x="0"
     inkscape:window-y="31"
     inkscape:window-maximized="1"
     inkscape:current-layer="svg24" />
  <circle
     cx="296.65"
     cy="5.7567"
     r="0"
     enable-background="new"
     style="fill:#d5d3cf;stroke-width:.87152"
     id="circle2" />
  <g
     stroke="#000000"
     stroke-opacity="0.098039"
     stroke-width="0.26458"
     id="g20">
    <path
       d="M 15.09799,5.8125001 C 14.78721,5.06471 14.15683,4.2574001 13.66309,4.0021 c 0.35212,0.6819511 0.596467,1.4143362 0.72435,2.1711 l 0.0013,0.012028 c -0.80869,-2.0162009 -2.1801,-2.8291008 -3.3001,-4.5993009 -0.05666,-0.089506 -0.11332,-0.17919 -0.16849,-0.27387 -0.03156,-0.054034 -0.05684,-0.1028 -0.0788,-0.14764 -0.04645,-0.089957 -0.08225,-0.18502609 -0.10667,-0.28327999 7.9e-5,-0.00939 -0.0069,-0.017349 -0.01624,-0.018476 -0.0044,-0.00121 -0.0091,-0.00121 -0.01347,0 -9.52e-4,0 -0.0024,0.00174 -0.0035,0.00174 -0.0011,3.651e-4 -0.0035,0.00174 -0.0051,0.00261 l 0.0028,-0.00523 C 8.9025698,1.9136814 8.2929696,3.8610814 8.2368698,4.8351814 7.5193998,4.8845024 6.833444,5.1488895 6.2684696,5.5938613 6.2095256,5.5439323 6.1479181,5.4972333 6.0839198,5.4539714 5.920932,4.8834981 5.9139852,4.2797438 6.0638038,3.7056714 5.4040148,4.0252921 4.8177493,4.4783819 4.342104,5.0362713 H 4.338784 C 4.0552336,4.6778013 4.0751637,3.4929712 4.0914035,3.2455714 4.0075425,3.2792714 3.927492,3.3217694 3.8525936,3.3723514 3.6023535,3.5509533 3.368417,3.751359 3.1535235,3.9712213 2.9086464,4.2194978 2.6849913,4.4878453 2.4849041,4.7734513 v 8.731e-4 -8.731e-4 c -0.45984,0.6519129 -0.785997,1.3884531 -0.95964,2.1671002 l -0.0096,0.047237 c -0.01347,0.062924 -0.06201,0.3781398 -0.07031,0.4465999 0,0.00523 -0.0011,0.010371 -0.0017,0.015687 -0.06261,0.3254214 -0.101406,0.6549752 -0.11608,0.9860399 v 0.036865 c 0.0054,3.7111377 2.8481239,6.8017567 6.545877,7.1166937 3.6977529,0.314938 7.0222009,-2.250422 7.6551229,-5.9071936 0.01199,-0.092277 0.02178,-0.1836302 0.03248,-0.2768201 0.147306,-1.2175833 -0.01218,-2.452675 -0.46395,-3.5929001 z M 6.85419,11.4113 c 0.033403,0.01604 0.064777,0.03338 0.099101,0.04872 l 0.00499,0.0035 C 6.923582,11.44689 6.888886,11.4296 6.854191,11.41165 Z m 7.5352,-5.22457 V 6.17976 l 0.0013,0.00784 z"
       style="fill:#f74e66;fill-opacity:1;stroke:#000000;stroke-width:0.264578;stroke-miterlimit:4;stroke-dasharray:none;stroke-opacity:0.1"
       id="path2080" />
    <path
       id="path6"
       style="fill:#ffde3f;fill-opacity:1;stroke-width:1.00001"
       d="m 40.421875,3.2304688 c -6.790433,3.9757633 -9.09303,11.3358682 -9.304687,15.0175782 0.315279,-0.02306 0.626969,-0.04883 0.949218,-0.04883 4.905045,0.009 9.427757,2.65029 11.845703,6.917969 0.04842,0.03403 0.09321,0.06948 0.138672,0.103515 0.0098,0.01561 0.01956,0.03123 0.0293,0.04687 0.148538,0.112326 0.286411,0.224022 0.404297,0.332031 6.129003,5.649749 2.916983,13.636248 2.677734,14.205079 C 52.140982,35.702678 55.32343,29.634706 54.367191,23.37304 51.309263,15.749212 46.125732,12.677357 41.892578,5.9863281 41.678426,5.6480311 41.46438,5.3090246 41.255859,4.9511719 41.136575,4.7469449 41.041984,4.5620555 40.958984,4.3925781 40.783049,4.052746 40.647367,3.6935465 40.554688,3.3222656 c -3.9e-4,-0.034668 -0.02618,-0.063787 -0.06055,-0.068359 -0.01662,-0.00455 -0.03416,-0.00455 -0.05078,0 -0.0036,0 -0.0095,0.00586 -0.01367,0.00586 -0.0042,0.00138 -0.01348,0.00647 -0.01953,0.00977 0,0 -9.96e-4,-0.00578 0.002,-0.023437 z"
       sodipodi:nodetypes="ccccccccccccccccccc"
       transform="scale(0.26457812)" />
    <path
       style="color:#000000;fill:#9a46eb;stroke:none;stroke-width:0.26458;-inkscape-stroke:none"
       d="M 8.4881,7.0901 C 8.476289,7.268 7.84771,7.88163 7.62791,7.88163 c -2.0339,0 -2.3641,1.2304 -2.3641,1.2304 0.090063,1.0361 0.81202,1.8894 1.6847,2.3408 0.039863,0.02065 0.080279,0.03931 0.1207,0.05761 q 0.10501,0.04654 0.21002,0.08602 a 3.1807,3.1807 0 0 0 0.9307,0.17957 c 3.565,0.1672 4.2555,-4.2631 1.6829,-5.5486 a 2.4693,2.4693 0 0 1 1.7246,0.41874 3.6098,3.6098 0 0 0 -3.134,-1.8302 c -0.084893,0 -0.16794,0.00697 -0.25136,0.012724 a 3.5779,3.5779 0 0 0 -1.9684,0.75868 c 0.10907,0.092268 0.23217,0.21555 0.49145,0.47115 0.48536,0.47816 1.7301,0.97349 1.7329,1.0316 z"
       id="path2492" />
    <path
       style="color:#000000;fill:#000000;fill-opacity:0.098039;stroke:none;-inkscape-stroke:none"
       d="m 8.484375,4.6835937 c -0.092134,0 -0.1796023,0.00801 -0.2617187,0.013672 C 7.4786722,4.7484087 6.7674934,5.0229593 6.1816406,5.484375 L 6.0546875,5.5839844 6.1777344,5.6875 c 0.1021809,0.08644 0.2248582,0.2090104 0.484375,0.4648437 0.2666871,0.262731 0.7042718,0.5045527 1.0800781,0.6972657 0.1879031,0.096356 0.3591982,0.1788753 0.4824219,0.2402343 0.040517,0.020175 0.065575,0.033942 0.09375,0.048828 -0.012934,0.025384 -0.011287,0.027512 -0.042969,0.068359 -0.058252,0.075103 -0.1416837,0.1662012 -0.2304687,0.25 C 7.9561369,7.5408301 7.86057,7.6193824 7.7792969,7.6738281 7.6980237,7.7282739 7.6203494,7.75 7.6269531,7.75 6.5833281,7.75 5.9550157,8.0684807 5.59375,8.3984375 5.2324843,8.7283943 5.1367187,9.078125 5.1367187,9.078125 l -0.00586,0.021484 0.00195,0.023437 c 0.094756,1.09009 0.8478333,1.97811 1.7539062,2.447266 0.043389,0.02248 0.087888,0.04198 0.1289063,0.06055 0.072272,0.03203 0.1443589,0.06261 0.2167969,0.08984 h 0.00195 c 0.3119801,0.110415 0.6400393,0.173922 0.9707031,0.1875 1.8361958,0.08517 2.9682468,-1.03244 3.2773438,-2.332031 0.274573,-1.1544353 -0.195298,-2.3815634 -1.220703,-3.1308594 0.449022,0.013357 0.907629,0.051761 1.28125,0.3105469 l 0.189453,-0.1757813 c -0.0099,-0.017428 -0.03089,-0.023786 -0.04102,-0.041016 l 0.002,-0.00195 c -0.0012,-8.352e-4 -0.0027,-0.00112 -0.0039,-0.00195 C 11.018922,5.3976695 9.8079443,4.6860332 8.484375,4.6835937 Z m -0.00195,0.265625 c 1.1101537,0.00205 2.085249,0.5922436 2.734372,1.4726563 -0.403968,-0.176716 -0.816404,-0.3493101 -1.2597657,-0.3066406 -0.00272,-0.00137 -0.00313,-0.0045 -0.00586,-0.00586 v 0.00391 C 9.9244424,6.1159195 9.90171,6.0922279 9.875,6.0957031 L 9.4453125,6.1523437 9.8339844,6.3457031 C 11.061692,6.959175 11.508736,8.3210219 11.224609,9.515625 10.940483,10.710228 9.9442764,11.725551 8.2167969,11.644531 h -0.00195 c -0.3036172,-0.01247 -0.602159,-0.07068 -0.888675,-0.171875 h -0.00195 c -0.067022,-0.02523 -0.1339869,-0.05421 -0.2011718,-0.08398 v 0.002 C 7.0832235,11.372596 7.0461027,11.354761 7.0097656,11.335938 6.1785447,10.905983 5.5014557,10.092991 5.40625,9.1230469 5.412051,9.1020337 5.4722801,8.8670239 5.7714844,8.59375 6.083793,8.3085074 6.6366802,8.0136719 7.6269531,8.0136719 c 0.1165037,0 0.2020082,-0.054925 0.3007813,-0.1210938 C 8.0265075,7.826409 8.1292516,7.7402835 8.2265625,7.6484375 8.3238734,7.5565915 8.4145781,7.4591277 8.484375,7.3691406 8.5541719,7.2791536 8.6113828,7.2164601 8.6191406,7.0996094 l 0.00195,-0.015625 v -0.00391 L 8.6328096,6.9081994 8.513669,6.9433554 C 8.508449,6.9402654 8.503709,6.9368054 8.498044,6.9335854 8.4580855,6.9108771 8.4068099,6.8849162 8.34375,6.8535156 8.2176302,6.7907145 8.0475827,6.7077908 7.8632812,6.6132812 7.4946783,6.4242621 7.0663286,6.1802723 6.8476562,5.9648437 6.6668442,5.786598 6.5923792,5.7171053 6.5,5.6308594 7.0166165,5.2635932 7.6056826,5.004558 8.2402344,4.9609375 c 0.084047,-0.0058 0.1651198,-0.011615 0.2421875,-0.011719 z"
       id="path2494" />
    <path
       id="path10"
       style="fill:#ff8a29;fill-opacity:1;stroke-width:1.00001"
       d="m 15.466797,12.269531 a 4.8322211,4.8322211 0 0 0 -0.904297,0.478516 19.687569,19.687569 0 0 0 -2.640625,2.263672 23.607394,23.607394 0 0 0 -2.5390625,3.02539 22.83182,22.83182 0 0 0 -3.6269531,8.191407 c -0.013266,0.05501 -0.9736219,4.254212 -0.5,6.43164 2.0863025,12.327928 13.2609686,21.740547 25.9453126,22.09961 11.739066,0.332 19.23742,-6.48254 22.335937,-13.13086 a 24.483128,24.483128 0 0 0 0.853516,-18.214844 c 0.939807,6.247766 -2.242467,12.296814 -7.210937,16.390626 l -0.01563,0.03516 C 37.462954,47.740728 28.178042,44.60726 26.298824,43.328129 26.16772,43.265409 26.03737,43.19872 25.906246,43.130863 20.250072,40.427276 17.913261,35.274961 18.414058,30.855473 a 6.9423729,6.9423729 0 0 1 -6.404296,-4.029297 10.196232,10.196232 0 0 1 9.939453,-0.398438 13.462186,13.462186 0 0 0 10.15039,0.398438 c -0.01047,-0.219712 -4.71654,-2.091939 -6.550781,-3.898438 -0.980013,-0.966066 -1.445181,-1.431788 -1.857422,-1.78125 a 8.0823008,8.0823008 0 0 0 -0.697265,-0.527343 c -0.160433,-0.109363 -0.341668,-0.228664 -0.558594,-0.371094 -1.971894,-1.282041 -5.891466,-1.2125 -6.021485,-1.208985 h -0.01367 c -1.071329,-1.357141 -0.994937,-5.834457 -0.933594,-6.769531 z m 38.923828,11.144531 c -0.002,-0.01308 -0.0039,-0.02598 -0.0059,-0.03906 l -0.0059,-0.04492 c -0.0042,-0.0066 0,0.0056 0,0.02539 v 0.02734 a 24.483128,24.483128 0 0 1 0.01172,0.03125 z M 22.896484,13.972656 a 20.022441,20.022441 0 0 0 -6.507812,5.029297 c 0.131832,-0.0033 4.053572,-0.07487 6.02539,1.207031 0.219025,0.139335 0.400267,0.261603 0.558594,0.371094 a 12.53316,12.53316 0 0 1 -0.07617,-6.607422 z"
       transform="scale(0.26457812)" />
    <path
       id="path16"
       style="fill:#ffba36;fill-opacity:1;stroke:#000000;stroke-width:1.00001;stroke-opacity:0.098039"
       d="m 38.908203,23.46875 a 9.3329711,9.3329711 0 0 0 -1.521484,0.07227 c 9.723782,4.861702 7.114086,21.602652 -6.361328,20.970703 a 12.02178,12.02178 0 0 1 -3.517579,-0.677735 c -0.264597,-0.09904 -0.528371,-0.208465 -0.792968,-0.326172 -0.152757,-0.06985 -0.306346,-0.138407 -0.457032,-0.216796 l 0.01953,0.01367 c 1.879142,1.282721 11.159531,4.415886 20.863281,-3.488282 l 0.01563,-0.03516 c 0.242046,-0.564975 3.454216,-8.553313 -2.677734,-14.201172 -0.117886,-0.108044 -0.257674,-0.219705 -0.40625,-0.332031 -0.05511,-0.04117 -0.109423,-0.08383 -0.167969,-0.125 A 9.3329711,9.3329711 0 0 0 38.908203,23.46875 Z m -21.255859,1.832031 a 10.196232,10.196232 0 0 0 -5.660156,1.498047 6.9423729,6.9423729 0 0 0 6.404296,4.027344 c -0.500835,4.420244 1.835787,9.574172 7.492188,12.277344 0.12625,0.06062 0.245269,0.125614 0.375,0.183593 -3.301256,-1.705432 -6.027023,-4.93161 -6.367188,-8.847656 h -0.002 c 0,0 1.248064,-4.650391 8.935547,-4.650391 0.830757,0 3.209395,-2.317805 3.251953,-2.990234 a 13.462186,13.462186 0 0 1 -10.15039,-0.40039 10.196232,10.196232 0 0 0 -4.279297,-1.097657 z"
       transform="scale(0.26457812)" />
  </g>
  <circle
     cx="-15.774"
     cy="13.461"
     r="0"
     enable-background="new"
     style="fill:#d5d3cf;stroke-width:.87152"
     id="circle22" />
</svg>
