<?xml version="1.0" encoding="UTF-8" standalone="no"?>
<!-- Created with Inkscape (http://www.inkscape.org/) -->

<svg
   width="64"
   height="64"
   viewBox="0 0 16.933333 16.933334"
   version="1.1"
   id="svg5"
   inkscape:version="1.1.2 (0a00cf5339, 2022-02-04, custom)"
   sodipodi:docname="gnome-software.svg"
   xmlns:inkscape="http://www.inkscape.org/namespaces/inkscape"
   xmlns:sodipodi="http://sodipodi.sourceforge.net/DTD/sodipodi-0.dtd"
   xmlns="http://www.w3.org/2000/svg"
   xmlns:svg="http://www.w3.org/2000/svg">
  <path
     id="rect1443"
     style="opacity:1;fill:#f2f2f2;stroke-width:0.995389;stroke-linecap:round;stroke-linejoin:round"
     d="M 1.5874999,3.8364584 H 15.345833 c 0.219869,0 0.396875,0.1770063 0.396875,0.396875 V 14.816667 c 0,0.219869 -0.177006,0.396875 -0.396875,0.396875 H 1.5874999 c -0.2198687,0 -0.3968749,-1.235339 -0.3968749,-1.455208 V 4.2333334 c 0,-0.2198687 0.1770062,-0.396875 0.3968749,-0.396875 z"
     sodipodi:nodetypes="sssssssss" />
  <sodipodi:namedview
     id="namedview7"
     pagecolor="#ffffff"
     bordercolor="#666666"
     borderopacity="1.0"
     inkscape:pageshadow="2"
     inkscape:pageopacity="0.0"
     inkscape:pagecheckerboard="0"
     inkscape:document-units="px"
     showgrid="false"
     units="px"
     height="64px"
     inkscape:zoom="4.6293397"
     inkscape:cx="42.770678"
     inkscape:cy="57.459598"
     inkscape:window-width="1920"
     inkscape:window-height="1019"
     inkscape:window-x="0"
     inkscape:window-y="31"
     inkscape:window-maximized="1"
     inkscape:current-layer="svg5" />
  <defs
     id="defs2" />
  <path
     id="rect1732"
     style="opacity:0.08;fill:#000000;stroke-width:2.11338;stroke-linecap:round;stroke-linejoin:round"
     d="M 6 14.5 C 5.1690002 14.5 4.5 15.169 4.5 16 L 4.5 36 L 59.5 36 L 59.5 16 C 59.5 15.169 58.831001 14.5 58 14.5 L 6 14.5 z "
     transform="scale(0.26458334)" />
  <path
     id="rect848"
     style="opacity:0.15;fill:#000000;stroke-width:2;stroke-linecap:round;stroke-linejoin:round"
     d="M 6 14 C 4.8919999 14 4 14.892 4 16 L 4 56 C 4 57.108 4.8919999 58 6 58 L 58 58 C 59.108 58 60 57.108 60 56 L 60 16 C 60 14.892 59.108 14 58 14 L 6 14 z M 6 15 L 58 15 C 58.554 15 59 15.446 59 16 L 59 56 C 59 56.554 58.554 57 58 57 L 6 57 C 5.446 57 5 56.554 5 56 L 5 16 C 5 15.446 5.446 15 6 15 z "
     transform="scale(0.26458334)" />
  <path
     id="rect2479"
     style="opacity:1;fill:#c55a4f;fill-opacity:1;stroke-width:0.396874;stroke-linecap:round;stroke-linejoin:round"
     d="m 5.0270831,7.9375001 h 1.5875003 c 0.4397375,0 0.79375,0.3540127 0.79375,0.79375 v 1.5874989 c 0,0.439738 -0.3540125,0.793752 -0.79375,0.793752 H 5.0270831 c -0.4397373,0 -0.79375,-0.354014 -0.79375,-0.793752 V 8.7312501 c 0,-0.4397373 0.3540127,-0.79375 0.79375,-0.79375 z"
     sodipodi:nodetypes="sssssssss" />
  <circle
     style="opacity:0.982;fill:#9d4fc5;fill-opacity:1;stroke-width:0.453572;stroke-linecap:round;stroke-linejoin:round"
     id="path3747"
     cx="10.583331"
     cy="6.8791671"
     r="1.5875" />
  <path
     id="path5873"
     style="color:#000000;opacity:0.982;fill:#4fb0c5;stroke:none;stroke-width:1.21542;stroke-linecap:round;stroke-linejoin:round;-inkscape-stroke:none;fill-opacity:1"
     d="m 11.332931,10.583402 a 0.58189754,0.63479756 0 0 0 -0.26876,0.06695 l -1.7460864,0.950862 a 0.58189754,0.63479756 0 0 0 0,1.1362 l 1.7460864,0.95396 a 0.58189754,0.63479756 0 0 0 0.842076,-0.569649 v -1.904828 a 0.58189754,0.63479756 0 0 0 -0.573316,-0.633495 z" />
</svg>
