<?xml version="1.0" encoding="UTF-8" standalone="no"?>
<!-- Created with Inkscape (http://www.inkscape.org/) -->

<svg
   width="64"
   height="64"
   viewBox="0 0 16.933333 16.933334"
   version="1.1"
   id="svg5"
   inkscape:version="1.1.2 (0a00cf5339, 2022-02-04, custom)"
   sodipodi:docname="google-chrome-beta.svg"
   xmlns:inkscape="http://www.inkscape.org/namespaces/inkscape"
   xmlns:sodipodi="http://sodipodi.sourceforge.net/DTD/sodipodi-0.dtd"
   xmlns="http://www.w3.org/2000/svg"
   xmlns:svg="http://www.w3.org/2000/svg">
  <sodipodi:namedview
     id="namedview7"
     pagecolor="#ffffff"
     bordercolor="#666666"
     borderopacity="1.0"
     inkscape:pageshadow="2"
     inkscape:pageopacity="0.0"
     inkscape:pagecheckerboard="0"
     inkscape:document-units="px"
     showgrid="false"
     units="px"
     height="64px"
     inkscape:zoom="7.330357"
     inkscape:cx="13.71011"
     inkscape:cy="43.449453"
     inkscape:window-width="1920"
     inkscape:window-height="1011"
     inkscape:window-x="0"
     inkscape:window-y="32"
     inkscape:window-maximized="1"
     inkscape:current-layer="svg5" />
  <defs
     id="defs2" />
  <path
     id="path1314"
     style="fill:#db3328;fill-opacity:1;stroke-width:0.538967;stroke-linejoin:round"
     d="M 8.4666669,1.190625 C 5.328551,1.1925326 2.54522,3.2061878 1.5616618,6.1861858 L 5.2585939,10.31875 8.4666669,8.4666669 8.9958336,5.8208335 H 11.641667 L 14.753105,4.804358 C 13.449864,2.5670604 11.055863,1.1908789 8.4666669,1.190625 Z"
     sodipodi:nodetypes="cccccccc" />
  <path
     id="path3490"
     style="fill:#32a651;fill-opacity:1;stroke-width:0.538967;stroke-linejoin:round"
     d="M 2.1590414,4.8405316 C 1.5246794,5.9437549 1.1907646,7.1940644 1.190625,8.4666669 c -1e-7,4.0184471 3.2575948,7.2760421 7.2760419,7.2760421 0.1686298,-3.44e-4 0.3371966,-0.0065 0.5053954,-0.0186 L 11.716081,14.138155 11.67474,10.31875 8.4666669,8.4666669 5.2585939,10.31875 Z"
     sodipodi:nodetypes="ccccccccc" />
  <path
     id="path6728"
     style="fill:#fbbf12;fill-opacity:1;stroke-width:0.529167;stroke-linejoin:round"
     d="M 8.4666669,4.7625001 V 8.4666669 L 11.67474,10.31875 8.5467653,15.739608 A 7.2760416,7.2760416 0 0 0 15.742709,8.4666669 7.2760416,7.2760416 0 0 0 14.728817,4.7625001 Z" />
  <path
     d="m 12.17092,8.4667164 c 0,2.0457436 -1.658448,3.7041916 -3.7041916,3.7041916 -2.0457442,0 -3.7041922,-1.658448 -3.7041922,-3.7041916 0,-2.0457439 1.658448,-3.7041916 3.7041922,-3.7041916 2.0457436,0 3.7041916,1.6584477 3.7041916,3.7041916"
     style="fill:#ffffff;stroke-width:0.0289387"
     id="path2229" />
  <path
     d="m 11.377083,8.466666 c 0,1.607356 -1.303062,2.910415 -2.9104163,2.910415 -1.6073556,0 -2.9104167,-1.303059 -2.9104167,-2.910415 0,-1.6073551 1.3030611,-2.910416 2.9104167,-2.910416 1.6073543,0 2.9104163,1.3030609 2.9104163,2.910416"
     style="fill:#4688f4;fill-opacity:1;stroke-width:0.0279844"
     id="path2029" />
  <path
     id="path7734"
     style="opacity:1;fill:#4d4d4d;fill-opacity:1;stroke-width:2;stroke-linejoin:round"
     d="M 5.6953125 40 A 27.499999 27.499999 0 0 0 32 59.5 A 27.499999 27.499999 0 0 0 58.304688 40 L 5.6953125 40 z "
     transform="scale(0.26458334)" />
  <path
     d="m 5.5562501,11.641888 v 2.271696 h 0.8598455 c 0.1205703,0 0.2326987,-0.02742 0.336347,-0.08242 0.105763,-0.055 0.1893293,-0.131215 0.2506718,-0.228517 0.063458,-0.09942 0.095125,-0.210409 0.095125,-0.333094 0,-0.1248 -0.03591,-0.233824 -0.107829,-0.326896 -0.071919,-0.09307 -0.1649545,-0.158528 -0.2791789,-0.196602 v -0.0127 c 0.095187,-0.04442 0.1702673,-0.10791 0.2252643,-0.190405 0.057112,-0.0825 0.085675,-0.178791 0.085675,-0.288785 0,-0.116339 -0.029701,-0.220965 -0.088928,-0.314037 -0.059227,-0.09307 -0.1395337,-0.16603 -0.2410665,-0.218912 -0.099417,-0.05288 -0.2063197,-0.07932 -0.3205441,-0.07932 z m 3.7788274,0.196603 V 12.29537 H 9.0528001 v 0.244321 h 0.2822774 v 0.948773 c 0,0.07615 0.010607,0.140623 0.03176,0.193504 0.021154,0.05288 0.052975,0.0994 0.09528,0.13959 0.038075,0.03596 0.084592,0.06452 0.1395891,0.08567 0.057112,0.02115 0.1184804,0.03176 0.1840533,0.03176 0.05077,0 0.0919,-0.0031 0.1236325,-0.0094 0.03384,-0.0063 0.06665,-0.01695 0.09838,-0.03176 v -0.263421 c -0.05711,0.03596 -0.1163586,0.05391 -0.1777021,0.05391 -0.07615,0 -0.1342572,-0.02318 -0.1744475,-0.06972 -0.033844,-0.0423 -0.050816,-0.107916 -0.050816,-0.196757 v -0.882148 h 0.393515 V 12.29537 H 9.6048057 v -0.456879 z m -3.5123527,0.06027 h 0.5616106 c 0.074035,0 0.1385072,0.01811 0.1935041,0.05407 0.057112,0.03596 0.1005252,0.08248 0.1301388,0.139589 0.031729,0.055 0.047563,0.110984 0.047563,0.168096 0,0.05923 -0.015833,0.117491 -0.047563,0.174603 -0.031729,0.055 -0.077263,0.100376 -0.1364907,0.136336 -0.057112,0.03596 -0.1237065,0.05391 -0.199856,0.05391 H 5.8227248 Z m 2.3003579,0.345952 c -0.1565298,0 -0.2939612,0.03917 -0.4124161,0.117435 -0.1184545,0.07827 -0.2105067,0.182891 -0.27608,0.314037 -0.063458,0.131147 -0.095125,0.274943 -0.095125,0.431472 0,0.162876 0.033789,0.309932 0.1014771,0.441078 0.069804,0.129031 0.1660989,0.230552 0.2887841,0.304587 0.1226854,0.07403 0.2611005,0.111083 0.4155146,0.111083 0.1692213,0 0.3131719,-0.03803 0.4316268,-0.114182 0.12057,-0.07615 0.215727,-0.179792 0.2855308,-0.310939 L 8.6338774,13.428198 c -0.1121092,0.194604 -0.2717387,0.291882 -0.4790349,0.291882 -0.088841,0 -0.1745287,-0.02121 -0.2570241,-0.06352 -0.08038,-0.04231 -0.1469741,-0.10564 -0.199856,-0.19025 -0.052881,-0.08461 -0.082582,-0.188409 -0.088928,-0.311094 h 1.2787682 c 0.00635,-0.02327 0.00945,-0.05069 0.00945,-0.08242 0,-0.16076 -0.031667,-0.303573 -0.095125,-0.428374 C 8.7407866,12.519622 8.6518388,12.422343 8.535499,12.35254 8.4191595,12.28062 8.2817281,12.24471 8.1230832,12.24471 Z m 2.7731953,0 c -0.135377,0 -0.259251,0.02742 -0.37136,0.08242 -0.109994,0.055 -0.196665,0.131216 -0.260123,0.228518 l 0.20311,0.152293 c 0.04442,-0.0698 0.10465,-0.123824 0.1808,-0.161898 0.07615,-0.04019 0.159715,-0.06027 0.250671,-0.06027 0.129032,0 0.235779,0.03705 0.32039,0.111083 0.08461,0.07192 0.12704,0.168214 0.12704,0.288784 v 0.09838 c -0.04442,-0.0275 -0.109048,-0.05182 -0.193659,-0.07297 -0.08249,-0.02115 -0.172271,-0.03176 -0.269573,-0.03176 -0.196719,0 -0.359609,0.04864 -0.48864,0.145941 -0.129031,0.09519 -0.193659,0.228376 -0.193659,0.399712 0,0.103648 0.02546,0.196838 0.07622,0.279334 0.05077,0.08038 0.122742,0.143714 0.215814,0.19025 0.09307,0.04654 0.198836,0.06987 0.31729,0.06987 0.11634,0 0.220966,-0.02758 0.314038,-0.08258 0.09307,-0.055 0.162925,-0.121591 0.209461,-0.199856 h 0.01271 v 0.231616 h 0.257023 v -1.024843 c 0,-0.198834 -0.06349,-0.355359 -0.190405,-0.469584 -0.124801,-0.116331 -0.29716,-0.17444 -0.517148,-0.17444 z m -2.7762941,0.24432 c 0.1099939,0 0.2009077,0.02318 0.2728267,0.06972 0.074034,0.04654 0.1278999,0.10366 0.1617439,0.171349 0.033844,0.06769 0.052937,0.135421 0.057168,0.203109 H 7.6249919 c 0.027498,-0.133261 0.084624,-0.240164 0.1713495,-0.320544 0.088841,-0.0825 0.1967266,-0.123632 0.3236425,-0.123632 z m -2.2972591,0.390262 h 0.5964695 c 0.08038,0 0.151372,0.01894 0.2127149,0.05701 0.061343,0.03596 0.1088435,0.0846 0.1426879,0.145941 0.033844,0.05923 0.050816,0.120596 0.050816,0.184054 0,0.06346 -0.016972,0.125964 -0.050816,0.187307 -0.031729,0.05923 -0.078247,0.107866 -0.1395895,0.145941 -0.059227,0.03807 -0.12696,0.05701 -0.2031094,0.05701 H 5.8227248 Z m 5.1020602,0.218912 c 0.08249,0 0.16068,0.01061 0.234714,0.03176 0.07403,0.02115 0.136541,0.04858 0.187307,0.08242 0,0.09307 -0.02334,0.178759 -0.06987,0.257024 -0.04654,0.07826 -0.108887,0.140616 -0.187152,0.187152 -0.07827,0.04654 -0.162968,0.06987 -0.253925,0.06987 -0.103648,0 -0.189181,-0.02758 -0.256869,-0.08258 -0.06769,-0.055 -0.101633,-0.126817 -0.101633,-0.215658 0,-0.0973 0.03705,-0.176626 0.111083,-0.237969 0.07615,-0.06134 0.188279,-0.09203 0.336347,-0.09203 z"
     style="font-size:10.5833px;line-height:1.25;font-family:'Google Sans';-inkscape-font-specification:'Google Sans';fill:#ffffff;stroke-width:0.0793226"
     id="path22357" />
  <path
     id="path7088"
     style="opacity:0.2;fill:#000000;fill-opacity:1;stroke-width:2;stroke-linejoin:round"
     d="M 32 4 A 28 28 0 0 0 4 32 A 28 28 0 0 0 32 60 A 28 28 0 0 0 60 32 A 28 28 0 0 0 32 4 z M 32 5 A 27 27 0 0 1 59 32 A 27 27 0 0 1 32 59 A 27 27 0 0 1 5 32 A 27 27 0 0 1 32 5 z "
     transform="scale(0.26458334)" />
</svg>
