<?xml version="1.0" encoding="UTF-8" standalone="no"?>
<!-- Created with Inkscape (http://www.inkscape.org/) -->

<svg
   width="64"
   height="64"
   viewBox="0 0 16.933333 16.933334"
   version="1.1"
   id="svg5"
   inkscape:version="1.1.2 (0a00cf5339, 2022-02-04, custom)"
   sodipodi:docname="google-chrome-canary.svg"
   xmlns:inkscape="http://www.inkscape.org/namespaces/inkscape"
   xmlns:sodipodi="http://sodipodi.sourceforge.net/DTD/sodipodi-0.dtd"
   xmlns="http://www.w3.org/2000/svg"
   xmlns:svg="http://www.w3.org/2000/svg">
  <sodipodi:namedview
     id="namedview7"
     pagecolor="#ffffff"
     bordercolor="#666666"
     borderopacity="1.0"
     inkscape:pageshadow="2"
     inkscape:pageopacity="0.0"
     inkscape:pagecheckerboard="0"
     inkscape:document-units="px"
     showgrid="false"
     units="px"
     height="64px"
     inkscape:zoom="5.234375"
     inkscape:cx="2.5791045"
     inkscape:cy="61.420895"
     inkscape:window-width="1920"
     inkscape:window-height="1021"
     inkscape:window-x="0"
     inkscape:window-y="0"
     inkscape:window-maximized="1"
     inkscape:current-layer="svg5" />
  <defs
     id="defs2" />
  <path
     id="rect846"
     style="fill:#51565b;stroke-width:1.03703"
     d="M 14 4 C 8.4599996 4 4 8.4599996 4 14 L 4 50 C 4 55.539997 8.4599996 60 14 60 L 50 60 C 55.539997 60 60 55.539997 60 50 L 60 14 C 60 8.4599996 55.539997 4 50 4 L 14 4 z M 15.285156 6 L 48.714844 6 C 53.859125 6 58 10.14087 58 15.285156 L 58 48.714844 C 58 53.859125 53.859125 58 48.714844 58 L 15.285156 58 C 10.14087 58 6 53.859125 6 48.714844 L 6 15.285156 C 6 10.14087 10.14087 6 15.285156 6 z "
     transform="scale(0.26458334)" />
  <path
     id="rect950"
     style="fill:#ffffff;fill-opacity:1;stroke-width:0.264583"
     d="m 3.7041665,1.3229166 h 9.5250005 c 1.319213,0 2.38125,1.0620375 2.38125,2.3812499 v 9.5250005 c 0,1.319213 -1.062037,2.38125 -2.38125,2.38125 H 3.7041665 c -1.3192124,0 -2.3812499,-1.062037 -2.3812499,-2.38125 V 3.7041665 c 0,-1.3192124 1.0620375,-2.3812499 2.3812499,-2.3812499 z" />
  <g
     id="g13900"
     transform="matrix(1.2941186,0,0,1.2941186,0.24901789,0.24901789)">
    <path
       d="m 6.3499908,1.8520833 c -1.6648002,0 -3.1172325,0.9051142 -3.8949803,2.2495046 L 2.6017322,6.7248018 4.4023011,7.4744838 6.3499908,6.3500302 V 4.1010567 H 10.244704 C 9.4668234,2.7569983 8.014591,1.8520833 6.3499908,1.8520833 Z"
       style="fill:#f29c15;fill-opacity:1;stroke-width:0.0175699"
       id="path1309" />
    <path
       d="m 1.8521097,6.3500302 c 0,2.4841174 2.013697,4.4978798 4.4978805,4.4978798 L 8.322717,9.7933342 8.2976798,7.4744838 6.3499902,6.3500302 4.4023011,7.4744838 2.4550101,4.1015879 C 2.0722656,4.7632044 1.8520833,5.5305796 1.8520833,6.3499639"
       style="fill:#f4b609;fill-opacity:1;stroke-width:0.0175699"
       id="path1449"
       sodipodi:nodetypes="cccccccc" />
    <path
       d="m 6.3500375,6.3500302 1.947689,1.1244536 -1.947689,3.3734262 c 2.4841163,0 4.4978795,-2.0137624 4.4978795,-4.4978798 0,-0.819517 -0.220254,-1.5871712 -0.603213,-2.2489735 H 6.3499908 Z"
       style="fill:#f9cb51;fill-opacity:1;stroke-width:0.0175699"
       id="path1829" />
    <path
       d="m 8.5990112,6.3500302 c 0,1.2420585 -1.0069151,2.2489734 -2.2489737,2.2489734 -1.242059,0 -2.2489739,-1.0069149 -2.2489739,-2.2489734 0,-1.2420588 1.0069149,-2.2489735 2.2489739,-2.2489735 1.2420586,0 2.2489737,1.0069147 2.2489737,2.2489735"
       style="fill:#ffffff;stroke-width:0.0175699"
       id="path2229" />
    <path
       d="m 8.1900522,6.3499962 c 0,1.01622 -0.8238363,1.8400543 -1.8400556,1.8400543 -1.0162199,0 -1.8400554,-0.8238343 -1.8400554,-1.8400543 0,-1.0162196 0.8238355,-1.840055 1.8400554,-1.840055 1.0162193,0 1.8400556,0.8238354 1.8400556,1.840055"
       style="fill:#f7c332;fill-opacity:1;stroke-width:0.0176926"
       id="path2029" />
  </g>
</svg>
