<?xml version="1.0" encoding="UTF-8" standalone="no"?>
<!-- Created with Inkscape (http://www.inkscape.org/) -->

<svg
   width="64"
   height="64"
   viewBox="0 0 16.933333 16.933334"
   version="1.1"
   id="svg5"
   inkscape:version="1.1.2 (0a00cf5339, 2022-02-04, custom)"
   sodipodi:docname="google-chrome-canary.svg"
   xmlns:inkscape="http://www.inkscape.org/namespaces/inkscape"
   xmlns:sodipodi="http://sodipodi.sourceforge.net/DTD/sodipodi-0.dtd"
   xmlns="http://www.w3.org/2000/svg"
   xmlns:svg="http://www.w3.org/2000/svg">
  <sodipodi:namedview
     id="namedview7"
     pagecolor="#ffffff"
     bordercolor="#666666"
     borderopacity="1.0"
     inkscape:pageshadow="2"
     inkscape:pageopacity="0.0"
     inkscape:pagecheckerboard="0"
     inkscape:document-units="px"
     showgrid="false"
     units="px"
     height="64px"
     inkscape:zoom="7.330357"
     inkscape:cx="13.71011"
     inkscape:cy="43.449453"
     inkscape:window-width="1920"
     inkscape:window-height="1011"
     inkscape:window-x="0"
     inkscape:window-y="32"
     inkscape:window-maximized="1"
     inkscape:current-layer="svg5" />
  <defs
     id="defs2" />
  <path
     id="path1314"
     style="fill:#f29c15;fill-opacity:1;stroke-width:0.538967;stroke-linejoin:round"
     d="M 8.4666669,1.190625 C 5.328551,1.1925326 2.54522,3.2061878 1.5616618,6.1861858 L 5.2585939,10.31875 8.4666669,8.4666669 8.9958336,5.8208335 H 11.641667 L 14.753105,4.804358 C 13.449864,2.5670604 11.055863,1.1908789 8.4666669,1.190625 Z"
     sodipodi:nodetypes="cccccccc" />
  <path
     id="path3490"
     style="fill:#f4b609;fill-opacity:1;stroke-width:0.538967;stroke-linejoin:round"
     d="M 2.1590414,4.8405316 C 1.5246794,5.9437549 1.1907646,7.1940644 1.190625,8.4666669 c -1e-7,4.0184471 3.2575948,7.2760421 7.2760419,7.2760421 0.1686298,-3.44e-4 0.3371966,-0.0065 0.5053954,-0.0186 L 11.716081,14.138155 11.67474,10.31875 8.4666669,8.4666669 5.2585939,10.31875 Z"
     sodipodi:nodetypes="ccccccccc" />
  <path
     id="path6728"
     style="fill:#f9cb51;fill-opacity:1;stroke-width:0.529167;stroke-linejoin:round"
     d="M 8.4666669,4.7625001 V 8.4666669 L 11.67474,10.31875 8.5467653,15.739608 A 7.2760416,7.2760416 0 0 0 15.742709,8.4666669 7.2760416,7.2760416 0 0 0 14.728817,4.7625001 Z" />
  <path
     d="m 12.17092,8.4667164 c 0,2.0457436 -1.658448,3.7041916 -3.7041916,3.7041916 -2.0457442,0 -3.7041922,-1.658448 -3.7041922,-3.7041916 0,-2.0457439 1.658448,-3.7041916 3.7041922,-3.7041916 2.0457436,0 3.7041916,1.6584477 3.7041916,3.7041916"
     style="fill:#ffffff;stroke-width:0.0289387"
     id="path2229" />
  <path
     d="m 11.377083,8.466666 c 0,1.607356 -1.303062,2.910415 -2.9104163,2.910415 -1.6073556,0 -2.9104167,-1.303059 -2.9104167,-2.910415 0,-1.6073551 1.3030611,-2.910416 2.9104167,-2.910416 1.6073543,0 2.9104163,1.3030609 2.9104163,2.910416"
     style="fill:#f7c332;fill-opacity:1;stroke-width:0.0279844"
     id="path2029" />
  <path
     id="path7088"
     style="opacity:0.2;fill:#000000;fill-opacity:1;stroke-width:2;stroke-linejoin:round"
     d="M 32 4 A 28 28 0 0 0 4 32 A 28 28 0 0 0 32 60 A 28 28 0 0 0 60 32 A 28 28 0 0 0 32 4 z M 32 5 A 27 27 0 0 1 59 32 A 27 27 0 0 1 32 59 A 27 27 0 0 1 5 32 A 27 27 0 0 1 32 5 z "
     transform="scale(0.26458334)" />
</svg>
