<?xml version="1.0" encoding="UTF-8" standalone="no"?>
<!-- Created with Inkscape (http://www.inkscape.org/) -->

<svg
   width="64"
   height="64"
   viewBox="0 0 16.933333 16.933334"
   version="1.1"
   id="svg5"
   inkscape:version="1.1.2 (0a00cf5339, 2022-02-04, custom)"
   sodipodi:docname="information.svg"
   xmlns:inkscape="http://www.inkscape.org/namespaces/inkscape"
   xmlns:sodipodi="http://sodipodi.sourceforge.net/DTD/sodipodi-0.dtd"
   xmlns="http://www.w3.org/2000/svg"
   xmlns:svg="http://www.w3.org/2000/svg">
  <sodipodi:namedview
     id="namedview7"
     pagecolor="#ffffff"
     bordercolor="#666666"
     borderopacity="1.0"
     inkscape:pageshadow="2"
     inkscape:pageopacity="0.0"
     inkscape:pagecheckerboard="0"
     inkscape:document-units="px"
     showgrid="false"
     units="px"
     height="64px"
     inkscape:zoom="8.8719804"
     inkscape:cx="33.64525"
     inkscape:cy="37.364826"
     inkscape:window-width="1920"
     inkscape:window-height="1021"
     inkscape:window-x="0"
     inkscape:window-y="0"
     inkscape:window-maximized="1"
     inkscape:current-layer="svg5" />
  <defs
     id="defs2" />
  <circle
     style="opacity:1;fill:#71a5e8;fill-opacity:1;stroke-width:0.511861;stroke-linejoin:round"
     id="path24384"
     cx="8.4666662"
     cy="8.4666662"
     r="7.2760415" />
  <path
     d="m 8.5188527,5.1175871 c -0.23113,0 -0.429902,-0.083207 -0.5963158,-0.2496204 C 7.7561233,4.701553 7.6729166,4.5027814 7.6729166,4.2716514 c 0,-0.2311302 0.083207,-0.4252793 0.2496203,-0.5824477 0.1664138,-0.1664136 0.3651858,-0.2496203 0.5963158,-0.2496203 0.231129,0 0.429901,0.083207 0.596315,0.2496203 0.166413,0.1571684 0.24962,0.3513175 0.24962,0.5824477 0,0.23113 -0.08321,0.4299016 -0.24962,0.5963153 -0.157169,0.1664137 -0.35594,0.2496204 -0.596315,0.2496204 z m -0.582448,1.3035732 h 1.164895 v 7.0725777 h -1.164895 z"
     style="font-size:13.8678px;line-height:1.25;font-family:'Google Sans';-inkscape-font-specification:'Google Sans';stroke-width:0.09173;fill:#f2f2f2;fill-opacity:1"
     id="path48347" />
  <path
     id="path7088"
     style="opacity:0.9;fill:#4686de;fill-opacity:1;stroke-width:2;stroke-linejoin:round"
     d="M 32 4 A 28 28 0 0 0 4 32 A 28 28 0 0 0 32 60 A 28 28 0 0 0 60 32 A 28 28 0 0 0 32 4 z M 32 5 A 27 27 0 0 1 59 32 A 27 27 0 0 1 32 59 A 27 27 0 0 1 5 32 A 27 27 0 0 1 32 5 z "
     transform="scale(0.26458334)" />
</svg>
