<?xml version="1.0" encoding="UTF-8" standalone="no"?>
<!-- Created with Inkscape (http://www.inkscape.org/) -->

<svg
   width="64"
   height="64"
   viewBox="0 0 16.933333 16.933334"
   version="1.1"
   id="svg5"
   inkscape:version="1.1.2 (0a00cf5339, 2022-02-04, custom)"
   sodipodi:docname="steam.svg"
   xmlns:inkscape="http://www.inkscape.org/namespaces/inkscape"
   xmlns:sodipodi="http://sodipodi.sourceforge.net/DTD/sodipodi-0.dtd"
   xmlns:xlink="http://www.w3.org/1999/xlink"
   xmlns="http://www.w3.org/2000/svg"
   xmlns:svg="http://www.w3.org/2000/svg">
  <sodipodi:namedview
     id="namedview7"
     pagecolor="#ffffff"
     bordercolor="#666666"
     borderopacity="1.0"
     inkscape:pageshadow="2"
     inkscape:pageopacity="0.0"
     inkscape:pagecheckerboard="0"
     inkscape:document-units="px"
     showgrid="false"
     units="px"
     height="64px"
     inkscape:zoom="4"
     inkscape:cx="20.375"
     inkscape:cy="19"
     inkscape:window-width="1920"
     inkscape:window-height="1021"
     inkscape:window-x="0"
     inkscape:window-y="0"
     inkscape:window-maximized="1"
     inkscape:current-layer="svg5" />
  <defs
     id="defs2">
    <linearGradient
       inkscape:collect="always"
       xlink:href="#linearGradient2277"
       id="linearGradient2375"
       x1="9.260417"
       y1="1.0583342"
       x2="9.2604179"
       y2="15.875001"
       gradientUnits="userSpaceOnUse" />
    <linearGradient
       inkscape:collect="always"
       id="linearGradient2277">
      <stop
         style="stop-color:#111d2e;stop-opacity:1;"
         offset="0"
         id="stop2273" />
      <stop
         style="stop-color:#051839;stop-opacity:1"
         offset="0.2"
         id="stop2921" />
      <stop
         style="stop-color:#0a1b48;stop-opacity:1"
         offset="0.40000001"
         id="stop3435" />
      <stop
         style="stop-color:#132e62;stop-opacity:1"
         offset="0.60000002"
         id="stop3693" />
      <stop
         style="stop-color:#144b7e;stop-opacity:1"
         offset="0.69999999"
         id="stop3951" />
      <stop
         style="stop-color:#136497;stop-opacity:1"
         offset="0.87"
         id="stop4145" />
      <stop
         style="stop-color:#1387b8;stop-opacity:1"
         offset="1"
         id="stop2275" />
    </linearGradient>
  </defs>
  <path
     id="rect846"
     style="fill:#51565b;stroke-width:1.03703"
     d="M 14 4 C 8.4599996 4 4 8.4599996 4 14 L 4 50 C 4 55.539997 8.4599996 60 14 60 L 50 60 C 55.539997 60 60 55.539997 60 50 L 60 14 C 60 8.4599996 55.539997 4 50 4 L 14 4 z M 15.285156 6 L 48.714844 6 C 53.859125 6 58 10.14087 58 15.285156 L 58 48.714844 C 58 53.859125 53.859125 58 48.714844 58 L 15.285156 58 C 10.14087 58 6 53.859125 6 48.714844 L 6 15.285156 C 6 10.14087 10.14087 6 15.285156 6 z "
     transform="scale(0.26458334)" />
  <path
     id="rect950"
     style="fill:url(#linearGradient2375);fill-opacity:1;stroke-width:0.264583"
     d="m 3.7041665,1.3229166 h 9.5250005 c 1.319213,0 2.38125,1.0620375 2.38125,2.3812499 v 9.5250005 c 0,1.319213 -1.062037,2.38125 -2.38125,2.38125 H 3.7041665 c -1.3192124,0 -2.3812499,-1.062037 -2.3812499,-2.38125 V 3.7041665 c 0,-1.3192124 1.0620375,-2.3812499 2.3812499,-2.3812499 z" />
  <path
     id="path8"
     style="fill:#ffffff;stroke-width:0.999999"
     d="M 40 15 A 11 11 0 0 0 29 26 A 11 11 0 0 0 29.017578 26.238281 L 23.755859 35.005859 A 8.5000002 8.5000002 0 0 0 23.5 35 A 8.5000002 8.5000002 0 0 0 17.837891 37.171875 L 5 31.498047 L 5 39.150391 L 15.005859 43.572266 A 8.5000002 8.5000002 0 0 0 23.5 52 A 8.5000002 8.5000002 0 0 0 32 43.5 A 8.5000002 8.5000002 0 0 0 31.972656 42.845703 L 41.375 36.902344 A 11 11 0 0 0 51 26 A 11 11 0 0 0 40 15 z M 40 19 A 7.0000002 7.0000002 0 0 1 47 26 A 7.0000002 7.0000002 0 0 1 40 33 A 7.0000002 7.0000002 0 0 1 33 26 A 7.0000002 7.0000002 0 0 1 40 19 z M 40 21 A 5.0000001 5.0000001 0 0 0 35 26 A 5.0000001 5.0000001 0 0 0 40 31 A 5.0000001 5.0000001 0 0 0 45 26 A 5.0000001 5.0000001 0 0 0 40 21 z M 23.5 38 A 5.5000002 5.5000002 0 0 1 29 43.5 A 5.5000002 5.5000002 0 0 1 23.5 49 A 5.5000002 5.5000002 0 0 1 18.228516 44.996094 L 22.085938 46.701172 A 3.50035 3.50035 0 1 0 24.914062 40.298828 L 21.056641 38.59375 A 5.5000002 5.5000002 0 0 1 23.5 38 z "
     transform="scale(0.26458334)" />
</svg>
