<?xml version="1.0" encoding="UTF-8" standalone="no"?>
<!-- Created with Inkscape (http://www.inkscape.org/) -->

<svg
   width="64"
   height="64"
   viewBox="0 0 16.933333 16.933334"
   version="1.1"
   id="svg5"
   inkscape:version="1.1.2 (0a00cf5339, 2022-02-04, custom)"
   sodipodi:docname="steam.svg"
   xmlns:inkscape="http://www.inkscape.org/namespaces/inkscape"
   xmlns:sodipodi="http://sodipodi.sourceforge.net/DTD/sodipodi-0.dtd"
   xmlns="http://www.w3.org/2000/svg"
   xmlns:svg="http://www.w3.org/2000/svg">
  <sodipodi:namedview
     id="namedview7"
     pagecolor="#ffffff"
     bordercolor="#666666"
     borderopacity="1.0"
     inkscape:pageshadow="2"
     inkscape:pageopacity="0.0"
     inkscape:pagecheckerboard="0"
     inkscape:document-units="px"
     showgrid="false"
     units="px"
     height="64px"
     inkscape:zoom="13.09375"
     inkscape:cx="32"
     inkscape:cy="31.732697"
     inkscape:window-width="1920"
     inkscape:window-height="1019"
     inkscape:window-x="0"
     inkscape:window-y="31"
     inkscape:window-maximized="1"
     inkscape:current-layer="svg5" />
  <defs
     id="defs2" />
  <circle
     style="opacity:1;fill:#2e5493;stroke-width:0.529167;stroke-linecap:round;stroke-linejoin:round;fill-opacity:1"
     id="path1252"
     cx="8.4666662"
     cy="8.4666662"
     r="7.2760415" />
  <path
     id="path8"
     style="fill:#ffffff;stroke-width:0.264583"
     d="m 10.583333,3.96875 a 2.9104167,2.9104167 0 0 0 -2.9104162,2.9104167 2.9104167,2.9104167 0 0 0 0.00465,0.063045 l -1.3921632,2.319755 a 2.2489584,2.2489584 0 0 0 -0.067697,-0.00155 2.2489584,2.2489584 0 0 0 -1.4980997,0.574642 L 1.0707357,8.222754 a 7.4083335,7.4083335 0 0 0 -0.012402,0.2439127 7.4083335,7.4083335 0 0 0 0.2480469,1.8846393 l 2.6639201,1.177189 a 2.2489584,2.2489584 0 0 0 2.2474081,2.229838 2.2489584,2.2489584 0 0 0 2.2489584,-2.248958 2.2489584,2.2489584 0 0 0 -0.00723,-0.173116 L 10.947136,9.7637453 A 2.9104167,2.9104167 0 0 0 13.49375,6.8791667 2.9104167,2.9104167 0 0 0 10.583333,3.96875 Z m 0,1.0583333 A 1.8520834,1.8520834 0 0 1 12.435417,6.8791667 1.8520834,1.8520834 0 0 1 10.583333,8.7312501 1.8520834,1.8520834 0 0 1 8.7312502,6.8791667 1.8520834,1.8520834 0 0 1 10.583333,5.0270833 Z m 0,0.5291667 A 1.3229167,1.3229167 0 0 0 9.2604171,6.8791667 1.3229167,1.3229167 0 0 0 10.583333,8.2020834 1.3229167,1.3229167 0 0 0 11.90625,6.8791667 1.3229167,1.3229167 0 0 0 10.583333,5.55625 Z m -4.3656246,4.497917 a 1.4552084,1.4552084 0 0 1 1.4552084,1.455208 1.4552084,1.4552084 0 0 1 -1.4552084,1.455208 1.4552084,1.4552084 0 0 1 -1.3947468,-1.059367 l 1.0206096,0.451136 A 0.92613429,0.92613429 0 1 0 6.5918457,10.662398 L 5.5712364,10.211263 a 1.4552084,1.4552084 0 0 1 0.646472,-0.157096 z" />
  <path
     id="path7088"
     style="opacity:0.2;fill:#000000;fill-opacity:1;stroke-width:2;stroke-linejoin:round"
     d="M 32 4 A 28 28 0 0 0 4 32 A 28 28 0 0 0 32 60 A 28 28 0 0 0 60 32 A 28 28 0 0 0 32 4 z M 32 5 A 27 27 0 0 1 59 32 A 27 27 0 0 1 32 59 A 27 27 0 0 1 5 32 A 27 27 0 0 1 32 5 z "
     transform="scale(0.26458334)" />
</svg>
