<?xml version="1.0" encoding="UTF-8" standalone="no"?>
<!-- Created with Inkscape (http://www.inkscape.org/) -->

<svg
   width="48"
   height="48"
   viewBox="0 0 12.7 12.7"
   version="1.1"
   id="svg843"
   inkscape:version="1.1.2 (0a00cf5339, 2022-02-04, custom)"
   sodipodi:docname="folder-default-music-open.svg"
   xmlns:inkscape="http://www.inkscape.org/namespaces/inkscape"
   xmlns:sodipodi="http://sodipodi.sourceforge.net/DTD/sodipodi-0.dtd"
   xmlns="http://www.w3.org/2000/svg"
   xmlns:svg="http://www.w3.org/2000/svg">
  <sodipodi:namedview
     id="namedview845"
     pagecolor="#ffffff"
     bordercolor="#666666"
     borderopacity="1.0"
     inkscape:pageshadow="2"
     inkscape:pageopacity="0.0"
     inkscape:pagecheckerboard="0"
     inkscape:document-units="px"
     showgrid="false"
     units="px"
     showguides="false"
     inkscape:zoom="16.708333"
     inkscape:cx="20.947631"
     inkscape:cy="24"
     inkscape:window-width="1920"
     inkscape:window-height="1020"
     inkscape:window-x="0"
     inkscape:window-y="0"
     inkscape:window-maximized="1"
     inkscape:current-layer="svg843" />
  <defs
     id="defs840" />
  <path
     id="rect3280"
     style="opacity:0.3;fill:#000000;fill-opacity:1;stroke:none;stroke-width:0.529167;stroke-linejoin:round;stroke-miterlimit:4;stroke-dasharray:none;stroke-opacity:1"
     d="m 2.38125,1.3229166 c -0.2931584,0 -0.5291667,0.2360083 -0.5291667,0.5291667 H 1.3229166 c -0.2931583,0 -0.52916661,0.2360084 -0.52916661,0.5291667 v 4.2333332 c 0,0.2931584 0.23600831,0.5291667 0.52916661,0.5291667 H 11.377083 c 0.293159,0 0.529167,-0.2360083 0.529167,-0.5291667 V 2.38125 c 0,-0.2931583 -0.236008,-0.5291667 -0.529167,-0.5291667 H 6.0854166 c 0,-0.2931584 -0.2360083,-0.5291667 -0.5291667,-0.5291667 z" />
  <path
     id="rect4040"
     style="fill:#ffffff;fill-opacity:1;stroke:none;stroke-width:0.529167;stroke-linejoin:round;stroke-miterlimit:4;stroke-dasharray:none;stroke-opacity:1"
     d="m 2.38125,1.5875 c -0.1465792,0 -0.2645834,0.1180041 -0.2645834,0.2645833 v 0.2645833 h -0.79375 c -0.1465791,0 -0.2645833,0.1180042 -0.2645833,0.2645834 v 3.9687499 c 0,0.1465792 0.1180042,0.2645833 0.2645833,0.2645833 H 11.377083 c 0.146579,0 0.264584,-0.1180041 0.264584,-0.2645833 V 2.38125 c 0,-0.1465792 -0.118005,-0.2645834 -0.264584,-0.2645834 H 5.8208333 V 1.8520833 C 5.8208333,1.7055041 5.7028291,1.5875 5.5562499,1.5875 Z" />
  <path
     style="color:#000000;opacity:0.6;fill:#763000;fill-opacity:1;stroke-linejoin:round;-inkscape-stroke:none"
     d="M 6.3535156,4.497941 C 6.1608625,4.4952466 6.0297481,4.6045746 5.9375,4.7069254 5.8452519,4.8092762 5.7768103,4.9259727 5.71875,5.0370036 L 5.7324219,5.0116129 5.546875,5.2909098 H 0.54296875 C 0.23866706,5.2753045 0,5.5313936 0,5.8202066 v 5.0276454 c 0,0.288582 0.2407155,0.529297 0.52929687,0.529297 H 12.170768 c 0.288581,0 0.529297,-0.240715 0.529297,-0.529297 V 5.0272379 c 0,-0.2885814 -0.240715,-0.5292969 -0.529297,-0.5292969 z m -0.00781,0.5292969 c 0.00125,-3.64e-4 0.00261,9.6e-6 0.00391,0 H 12.170768 V 10.847852 H 0.52929687 V 5.8202066 H 5.6894531 c 0.087849,-3.286e-4 0.169807,-0.044235 0.21875,-0.1171875 l 0.265625,-0.3984375 c 0.00496,-0.00757 0.00952,-0.015396 0.013672,-0.023437 0.046438,-0.088806 0.1005247,-0.1720911 0.1425781,-0.21875 0.042053,-0.046659 0.056234,-0.034588 0.015625,-0.035156 z"
     id="path2904"
     sodipodi:nodetypes="csccccssssssscscccccccccscs" />
  <path
     style="color:#000000;fill:#e99e6b;fill-opacity:1;stroke-width:0.529167;stroke-linejoin:round;-inkscape-stroke:none"
     d="M 0.52916682,5.5562256 H 5.6885417 L 5.953125,5.1593506 C 6.0576238,4.959514 6.1979555,4.7603493 6.35,4.7624757 h 5.820833 c 0.14658,0 0.264584,0.1180042 0.264584,0.2645835 v 5.8208578 c 0,0.146579 -0.118004,0.264583 -0.264584,0.264583 H 0.52916682 c -0.14657916,0 -0.26458332,-0.118004 -0.26458332,-0.264583 V 5.8208089 c 0,-0.1465792 0.11819652,-0.2720904 0.26458332,-0.2645833 z"
     id="path2902"
     sodipodi:nodetypes="ccccsssssssc" />
  <path
     id="path846"
     style="opacity:0.3;fill:#000000;stroke-width:0.529167;stroke-linejoin:round"
     d="M 5.2916666,6.35 V 9.4288818 A 0.79374999,0.6614583 0 0 0 4.7624999,9.2604166 0.79374999,0.6614583 0 0 0 3.96875,9.9218749 a 0.79374999,0.6614583 0 0 0 0.7937499,0.6614591 0.79374999,0.6614583 0 0 0 0.79375,-0.6614591 0.79374999,0.6614583 0 0 0 0,-5.167e-4 0.79374999,0.6614583 0 0 0 0,-5.167e-4 0.79374999,0.6614583 0 0 0 0,-0.00155 0.79374999,0.6614583 0 0 0 0,-5.167e-4 0.79374999,0.6614583 0 0 0 0,-5.168e-4 0.79374999,0.6614583 0 0 0 0,-5.167e-4 0.79374999,0.6614583 0 0 0 0,-0.00155 0.79374999,0.6614583 0 0 0 0,-5.17e-4 0.79374999,0.6614583 0 0 0 0,-5.167e-4 0.79374999,0.6614583 0 0 0 0,-5.167e-4 0.79374999,0.6614583 0 0 0 0,-0.00155 0.79374999,0.6614583 0 0 0 0,-5.168e-4 0.79374999,0.6614583 0 0 0 0,-5.167e-4 0.79374999,0.6614583 0 0 0 0,-5.167e-4 0.79374999,0.6614583 0 0 0 0,-5.17e-4 0.79374999,0.6614583 0 0 0 0,-0.00155 0.79374999,0.6614583 0 0 0 0,-5.168e-4 0.79374999,0.6614583 0 0 0 0,-5.167e-4 0.79374999,0.6614583 0 0 0 0,-5.167e-4 0.79374999,0.6614583 0 0 0 0,-0.00155 0.79374999,0.6614583 0 0 0 0,-5.167e-4 V 7.4083333 h 2.38125 V 9.1642985 A 0.79374999,0.6614583 0 0 0 7.4083332,8.9958333 0.79374999,0.6614583 0 0 0 6.6145833,9.6572916 0.79374999,0.6614583 0 0 0 7.4083332,10.31875 a 0.79374999,0.6614583 0 0 0 0.79375,-0.6614584 0.79374999,0.6614583 0 0 0 0,-5.167e-4 0.79374999,0.6614583 0 0 0 0,-5.168e-4 0.79374999,0.6614583 0 0 0 0,-0.00155 0.79374999,0.6614583 0 0 0 0,-5.168e-4 0.79374999,0.6614583 0 0 0 0,-5.167e-4 0.79374999,0.6614583 0 0 0 0,-5.167e-4 0.79374999,0.6614583 0 0 0 0,-0.00155 0.79374999,0.6614583 0 0 0 0,-5.17e-4 0.79374999,0.6614583 0 0 0 0,-5.167e-4 0.79374999,0.6614583 0 0 0 0,-5.168e-4 0.79374999,0.6614583 0 0 0 0,-0.00155 0.79374999,0.6614583 0 0 0 0,-5.167e-4 0.79374999,0.6614583 0 0 0 0,-5.167e-4 0.79374999,0.6614583 0 0 0 0,-5.168e-4 0.79374999,0.6614583 0 0 0 0,-5.17e-4 0.79374999,0.6614583 0 0 0 0,-0.00155 0.79374999,0.6614583 0 0 0 0,-5.167e-4 0.79374999,0.6614583 0 0 0 0,-5.167e-4 0.79374999,0.6614583 0 0 0 0,-5.167e-4 0.79374999,0.6614583 0 0 0 0,-0.00155 0.79374999,0.6614583 0 0 0 0,-5.167e-4 V 6.35 Z m 0.2645833,0.2645833 h 2.38125 V 7.14375 h -2.38125 z M 7.4083332,9.2604166 A 0.52916663,0.396875 0 0 1 7.9374999,9.6572916 0.52916663,0.396875 0 0 1 7.4083332,10.054167 0.52916663,0.396875 0 0 1 6.8791666,9.6572916 0.52916663,0.396875 0 0 1 7.4083332,9.2604166 Z M 4.7624999,9.5249999 A 0.52916663,0.396875 0 0 1 5.2916666,9.9218749 0.52916663,0.396875 0 0 1 4.7624999,10.31875 0.52916663,0.396875 0 0 1 4.2333333,9.9218749 0.52916663,0.396875 0 0 1 4.7624999,9.5249999 Z" />
  <path
     id="path1509"
     style="opacity:0.15;fill:#000000;stroke-width:0.529167;stroke-linejoin:round"
     d="M 5.5562499,6.6145833 V 7.14375 h 2.38125 V 6.6145833 Z M 7.4083332,9.2604166 A 0.52916663,0.396875 0 0 0 6.8791666,9.6572916 0.52916663,0.396875 0 0 0 7.4083332,10.054167 0.52916663,0.396875 0 0 0 7.9374999,9.6572916 0.52916663,0.396875 0 0 0 7.4083332,9.2604166 Z M 4.7624999,9.5249999 A 0.52916663,0.396875 0 0 0 4.2333333,9.9218749 0.52916663,0.396875 0 0 0 4.7624999,10.31875 0.52916663,0.396875 0 0 0 5.2916666,9.9218749 0.52916663,0.396875 0 0 0 4.7624999,9.5249999 Z" />
</svg>
