<?xml version="1.0" encoding="UTF-8" standalone="no"?>
<!-- Created with Inkscape (http://www.inkscape.org/) -->

<svg
   width="48"
   height="48"
   viewBox="0 0 12.7 12.7"
   version="1.1"
   id="svg843"
   inkscape:version="1.1.2 (0a00cf5339, 2022-02-04, custom)"
   sodipodi:docname="folder-default-network-open.svg"
   xmlns:inkscape="http://www.inkscape.org/namespaces/inkscape"
   xmlns:sodipodi="http://sodipodi.sourceforge.net/DTD/sodipodi-0.dtd"
   xmlns="http://www.w3.org/2000/svg"
   xmlns:svg="http://www.w3.org/2000/svg">
  <sodipodi:namedview
     id="namedview845"
     pagecolor="#ffffff"
     bordercolor="#666666"
     borderopacity="1.0"
     inkscape:pageshadow="2"
     inkscape:pageopacity="0.0"
     inkscape:pagecheckerboard="0"
     inkscape:document-units="px"
     showgrid="false"
     units="px"
     showguides="false"
     inkscape:zoom="11.501302"
     inkscape:cx="21.388883"
     inkscape:cy="20.432469"
     inkscape:window-width="1920"
     inkscape:window-height="1020"
     inkscape:window-x="0"
     inkscape:window-y="32"
     inkscape:window-maximized="1"
     inkscape:current-layer="svg843" />
  <defs
     id="defs840" />
  <path
     id="rect3280"
     style="opacity:0.3;fill:#000000;fill-opacity:1;stroke:none;stroke-width:0.529167;stroke-linejoin:round;stroke-miterlimit:4;stroke-dasharray:none;stroke-opacity:1"
     d="m 2.38125,1.3229166 c -0.2931584,0 -0.5291667,0.2360083 -0.5291667,0.5291667 H 1.3229166 c -0.2931583,0 -0.52916661,0.2360084 -0.52916661,0.5291667 v 4.2333332 c 0,0.2931584 0.23600831,0.5291667 0.52916661,0.5291667 H 11.377083 c 0.293159,0 0.529167,-0.2360083 0.529167,-0.5291667 V 2.38125 c 0,-0.2931583 -0.236008,-0.5291667 -0.529167,-0.5291667 H 6.0854166 c 0,-0.2931584 -0.2360083,-0.5291667 -0.5291667,-0.5291667 z" />
  <path
     id="rect4040"
     style="fill:#ffffff;fill-opacity:1;stroke:none;stroke-width:0.529167;stroke-linejoin:round;stroke-miterlimit:4;stroke-dasharray:none;stroke-opacity:1"
     d="m 2.38125,1.5875 c -0.1465792,0 -0.2645834,0.1180041 -0.2645834,0.2645833 v 0.2645833 h -0.79375 c -0.1465791,0 -0.2645833,0.1180042 -0.2645833,0.2645834 v 3.9687499 c 0,0.1465792 0.1180042,0.2645833 0.2645833,0.2645833 H 11.377083 c 0.146579,0 0.264584,-0.1180041 0.264584,-0.2645833 V 2.38125 c 0,-0.1465792 -0.118005,-0.2645834 -0.264584,-0.2645834 H 5.8208333 V 1.8520833 C 5.8208333,1.7055041 5.7028291,1.5875 5.5562499,1.5875 Z" />
  <path
     style="color:#000000;opacity:0.6;fill:#003579;fill-opacity:1;stroke-linejoin:round;-inkscape-stroke:none"
     d="M 6.3535156,4.497941 C 6.1608625,4.4952466 6.0297481,4.6045746 5.9375,4.7069254 5.8452519,4.8092762 5.7768103,4.9259727 5.71875,5.0370036 L 5.7324219,5.0116129 5.546875,5.2909098 H 0.54296875 C 0.23866706,5.2753045 0,5.5313936 0,5.8202066 v 5.0276454 c 0,0.288582 0.2407155,0.529297 0.52929687,0.529297 H 12.170768 c 0.288581,0 0.529297,-0.240715 0.529297,-0.529297 V 5.0272379 c 0,-0.2885814 -0.240715,-0.5292969 -0.529297,-0.5292969 z m -0.00781,0.5292969 c 0.00125,-3.64e-4 0.00261,9.6e-6 0.00391,0 H 12.170768 V 10.847852 H 0.52929687 V 5.8202066 H 5.6894531 c 0.087849,-3.286e-4 0.169807,-0.044235 0.21875,-0.1171875 l 0.265625,-0.3984375 c 0.00496,-0.00757 0.00952,-0.015396 0.013672,-0.023437 0.046438,-0.088806 0.1005247,-0.1720911 0.1425781,-0.21875 0.042053,-0.046659 0.056234,-0.034588 0.015625,-0.035156 z"
     id="path2904"
     sodipodi:nodetypes="csccccssssssscscccccccccscs" />
  <path
     style="color:#000000;fill:#6ba4e9;fill-opacity:1;stroke-width:0.529167;stroke-linejoin:round;-inkscape-stroke:none"
     d="M 0.52916682,5.5562256 H 5.6885417 L 5.953125,5.1593506 C 6.0576238,4.959514 6.1979555,4.7603493 6.35,4.7624757 h 5.820833 c 0.14658,0 0.264584,0.1180042 0.264584,0.2645835 v 5.8208578 c 0,0.146579 -0.118004,0.264583 -0.264584,0.264583 H 0.52916682 c -0.14657916,0 -0.26458332,-0.118004 -0.26458332,-0.264583 V 5.8208089 c 0,-0.1465792 0.11819652,-0.2720904 0.26458332,-0.2645833 z"
     id="path2902"
     sodipodi:nodetypes="ccccsssssssc" />
  <path
     d="m 6.3500416,8.8895839 c -0.2650001,0 -0.527,0.1320001 -0.635,0.2449999 l 0.635,0.6550007 0.6409999,-0.6500006 c -0.108,-0.1179999 -0.3759999,-0.25 -0.6409999,-0.25 z m 0,-1.1379999 c -0.554,0 -1.05,0.2100001 -1.4590001,0.5299998 l 0.3970001,0.402 C 5.5600415,8.498584 5.9830415,8.320584 6.3340417,8.320584 c 0.3599997,0 0.802,0.182 1.0779998,0.375 L 7.8220417,8.2755839 C 7.4040937,7.9406563 6.885613,7.7560885 6.3500416,7.751584 Z m 0,-1.137 c -0.8560001,0 -1.6399999,0.3120001 -2.2489999,0.8309999 l 0.389,0.415 C 5.0330415,7.408584 5.6040415,7.183584 6.3500416,7.183584 c 0.7460001,0 1.3,0.212 1.869,0.6859999 l 0.3799998,-0.424 C 7.9726936,6.9088528 7.1749002,6.6140699 6.3500416,6.614584 Z"
     style="overflow:visible;opacity:0.3;fill:#000000;stroke-width:0.449792"
     id="path886" />
</svg>
