<?xml version="1.0" encoding="UTF-8" standalone="no"?>
<!-- Created with Inkscape (http://www.inkscape.org/) -->

<svg
   width="48"
   height="48"
   viewBox="0 0 12.7 12.7"
   version="1.1"
   id="svg843"
   sodipodi:docname="folder-default-documents-open.svg"
   inkscape:version="1.1.2 (0a00cf5339, 2022-02-04, custom)"
   xmlns:inkscape="http://www.inkscape.org/namespaces/inkscape"
   xmlns:sodipodi="http://sodipodi.sourceforge.net/DTD/sodipodi-0.dtd"
   xmlns="http://www.w3.org/2000/svg"
   xmlns:svg="http://www.w3.org/2000/svg">
  <sodipodi:namedview
     id="namedview845"
     pagecolor="#ffffff"
     bordercolor="#666666"
     borderopacity="1.0"
     inkscape:pageshadow="2"
     inkscape:pageopacity="0.0"
     inkscape:pagecheckerboard="0"
     inkscape:document-units="px"
     showgrid="false"
     units="px"
     showguides="false"
     inkscape:zoom="16.729167"
     inkscape:cx="24"
     inkscape:cy="24"
     inkscape:window-width="1920"
     inkscape:window-height="1021"
     inkscape:window-x="0"
     inkscape:window-y="0"
     inkscape:window-maximized="1"
     inkscape:current-layer="svg843" />
  <defs
     id="defs840" />
  <path
     id="rect3280"
     style="opacity:0.3;fill:#000000;fill-opacity:1;stroke:none;stroke-width:0.529167;stroke-linejoin:round;stroke-miterlimit:4;stroke-dasharray:none;stroke-opacity:1"
     d="m 2.38125,1.3229166 c -0.2931584,0 -0.5291667,0.2360083 -0.5291667,0.5291667 H 1.3229166 c -0.2931583,0 -0.52916661,0.2360084 -0.52916661,0.5291667 v 4.2333332 c 0,0.2931584 0.23600831,0.5291667 0.52916661,0.5291667 H 11.377083 c 0.293159,0 0.529167,-0.2360083 0.529167,-0.5291667 V 2.38125 c 0,-0.2931583 -0.236008,-0.5291667 -0.529167,-0.5291667 H 6.0854166 c 0,-0.2931584 -0.2360083,-0.5291667 -0.5291667,-0.5291667 z" />
  <path
     id="rect4040"
     style="fill:#ffffff;fill-opacity:1;stroke:none;stroke-width:0.529167;stroke-linejoin:round;stroke-miterlimit:4;stroke-dasharray:none;stroke-opacity:1"
     d="m 2.38125,1.5875 c -0.1465792,0 -0.2645834,0.1180041 -0.2645834,0.2645833 v 0.2645833 h -0.79375 c -0.1465791,0 -0.2645833,0.1180042 -0.2645833,0.2645834 v 3.9687499 c 0,0.1465792 0.1180042,0.2645833 0.2645833,0.2645833 H 11.377083 c 0.146579,0 0.264584,-0.1180041 0.264584,-0.2645833 V 2.38125 c 0,-0.1465792 -0.118005,-0.2645834 -0.264584,-0.2645834 H 5.8208333 V 1.8520833 C 5.8208333,1.7055041 5.7028291,1.5875 5.5562499,1.5875 Z" />
  <path
     style="color:#000000;opacity:0.6;fill:#003579;fill-opacity:1;stroke-linejoin:round;-inkscape-stroke:none"
     d="M 6.3535156,4.4979411 C 6.1608625,4.4952467 6.0297481,4.6045746 5.9375,4.7069255 5.8452519,4.8092763 5.7768103,4.9259728 5.71875,5.0370036 L 5.7324219,5.011613 5.546875,5.2909098 H 0.54296875 C 0.23866706,5.2753046 0,5.5313937 0,5.8202067 v 5.0276453 c 0,0.288582 0.2407155,0.529297 0.52929687,0.529297 H 12.170768 c 0.288581,0 0.529297,-0.240715 0.529297,-0.529297 V 5.027238 c 0,-0.2885814 -0.240715,-0.5292969 -0.529297,-0.5292969 z m -0.00781,0.5292969 c 0.00125,-3.646e-4 0.00261,9.6e-6 0.00391,0 h 5.8211524 v 5.820614 H 0.52929687 V 5.8202067 H 5.6894531 c 0.087849,-3.286e-4 0.169807,-0.044235 0.21875,-0.1171875 l 0.265625,-0.3984375 c 0.00496,-0.00757 0.00952,-0.015396 0.013672,-0.023437 0.046438,-0.088806 0.1005247,-0.1720911 0.1425781,-0.21875 0.042053,-0.046659 0.056234,-0.034588 0.015625,-0.035156 z"
     id="path2904"
     sodipodi:nodetypes="csccccssssssscscccccccccscs" />
  <path
     style="color:#000000;fill:#6ba4e9;fill-opacity:1;stroke-width:0.529167;stroke-linejoin:round;-inkscape-stroke:none"
     d="M 0.52916682,5.5562256 H 5.6885417 L 5.953125,5.1593507 C 6.0576238,4.9595141 6.1979555,4.7603494 6.35,4.7624758 h 5.820833 c 0.14658,0 0.264584,0.1180042 0.264584,0.2645834 v 5.8208578 c 0,0.146579 -0.118004,0.264583 -0.264584,0.264583 H 0.52916682 c -0.14657916,0 -0.26458332,-0.118004 -0.26458332,-0.264583 V 5.820809 c 0,-0.1465792 0.11819652,-0.2720904 0.26458332,-0.2645834 z"
     id="path2902"
     sodipodi:nodetypes="ccccsssssssc" />
  <path
     id="rect4824"
     style="opacity:0.3;fill:#000000;fill-opacity:1;stroke:none;stroke-width:0.529167;stroke-linejoin:round;stroke-miterlimit:4;stroke-dasharray:none;stroke-opacity:1"
     d="m 4.4979166,6.35 v 4.233334 H 8.2020832 V 7.6729166 L 6.8791666,6.35 Z M 4.7624999,6.6145833 H 6.6145833 V 7.9374999 H 7.9374999 V 10.31875 h -3.175 z m 2.1166667,0.079582 c 2e-7,-2e-7 0.9787517,0.9787517 0.9787517,0.9787517 H 6.8791666 Z" />
  <path
     id="rect4964"
     style="opacity:0.15;stroke-width:0.529167;stroke-linejoin:round"
     d="M 4.7624998,6.6145835 H 6.6145833 V 7.9375001 H 7.9374998 V 10.31875 h -3.175 z"
     sodipodi:nodetypes="ccccccc" />
</svg>
