<?xml version="1.0" encoding="UTF-8" standalone="no"?>
<!-- Created with Inkscape (http://www.inkscape.org/) -->

<svg
   width="64"
   height="64"
   viewBox="0 0 16.933333 16.933334"
   version="1.1"
   id="svg5"
   inkscape:version="1.1.2 (0a00cf5339, 2022-02-04, custom)"
   sodipodi:docname="user-trash-full.svg"
   xmlns:inkscape="http://www.inkscape.org/namespaces/inkscape"
   xmlns:sodipodi="http://sodipodi.sourceforge.net/DTD/sodipodi-0.dtd"
   xmlns="http://www.w3.org/2000/svg"
   xmlns:svg="http://www.w3.org/2000/svg">
  <sodipodi:namedview
     id="namedview7"
     pagecolor="#ffffff"
     bordercolor="#666666"
     borderopacity="1.0"
     inkscape:pageshadow="2"
     inkscape:pageopacity="0.0"
     inkscape:pagecheckerboard="0"
     inkscape:document-units="px"
     showgrid="false"
     units="px"
     height="64px"
     inkscape:zoom="12.546875"
     inkscape:cx="32"
     inkscape:cy="32"
     inkscape:window-width="1920"
     inkscape:window-height="1021"
     inkscape:window-x="0"
     inkscape:window-y="0"
     inkscape:window-maximized="1"
     inkscape:current-layer="svg5"
     showguides="false" />
  <defs
     id="defs2" />
  <path
     d="m 14.684376,3.0427081 c 0,1.3151281 -3.076014,2.38125 -6.2177088,2.38125 -3.1416953,0 -6.2177089,-1.0661219 -6.2177089,-2.38125 0,-1.3151279 3.0760136,-2.38124976 6.2177089,-2.38124976 3.1416948,0 6.2177088,1.06612186 6.2177088,2.38124976 z"
     style="opacity:1;fill:#b3b3b3;stroke-width:0.0692042;stroke-linejoin:round;stroke-opacity:0.501961"
     id="path1974"
     sodipodi:nodetypes="sssss" />
  <path
     id="path959"
     style="opacity:0.3;fill:#000000;stroke-width:1.0274;stroke-linejoin:round;stroke-opacity:0.501961"
     d="M 32,2 C 19.849736,1.9999998 8,6.2532947 8,11.5 8,16.746705 19.849736,21 32,21 44.150264,21 56,16.746705 56,11.5 56,6.2532947 44.150264,1.9999998 32,2 Z m 0,1 C 43.59798,3 55,6.8055796 55,11.5 55,16.19442 43.59798,20 32,20 20.40202,20 9,16.19442 9,11.5 9,6.8055796 20.40202,3 32,3 Z"
     transform="scale(0.26458334)"
     sodipodi:nodetypes="ssssssssss" />
  <g
     id="g3629">
    <path
       d="M 8.5523167,2.7872274 13.560271,3.2253666 12.983771,9.8147795 7.9758178,9.3766403 Z"
       style="fill:#fafafa;stroke-width:0.0700042;stroke-linecap:round;stroke-linejoin:bevel"
       id="path3184-9" />
    <path
       d="M 8.5638465,2.6554391 C 8.490836,2.649056 8.4269159,2.7026868 8.4205283,2.7756973 l -0.576499,6.589413 c -0.00638,0.07301 0.047248,0.1369307 0.1202583,0.1433183 l 5.0079534,0.4381391 c 0.07301,0.00638 0.136931,-0.047248 0.143319,-0.1202583 l 0.576499,-6.5894129 c 0.0064,-0.07301 -0.04725,-0.1369305 -0.120258,-0.1433182 z M 8.6725747,2.9305455 13.416952,3.3456248 12.863513,9.6714612 8.1191358,9.256382 Z"
       style="opacity:0.2;fill:#4f6698;fill-opacity:1;stroke:none;stroke-width:0.0775523;stroke-linecap:round;stroke-linejoin:bevel;stroke-miterlimit:4;stroke-dasharray:none;stroke-opacity:1"
       id="path3384-1" />
  </g>
  <g
     id="g3602">
    <path
       d="M 7.003713,1.3229829 11.859503,2.6240878 10.147522,9.0132847 5.2917329,7.7121798 Z"
       style="fill:#fafafa;stroke-width:0.0700042;stroke-linecap:round;stroke-linejoin:bevel"
       id="path3184-5" />
    <path
       d="M 7.0379524,1.1951988 C 6.9671596,1.1762345 6.8948976,1.217951 6.8759289,1.2887431 l -1.7119801,6.389197 c -0.018964,0.070793 0.022752,0.1430549 0.093544,0.1620236 l 4.8557892,1.3011048 c 0.07079,0.018964 0.143056,-0.022752 0.162024,-0.093544 l 1.711981,-6.3891969 c 0.01894,-0.070796 -0.02275,-0.1430545 -0.09354,-0.1620235 z m 0.059305,0.2898075 4.6002216,1.2326258 -1.643501,6.133629 -4.6002215,-1.2326257 z"
       style="opacity:0.2;fill:#4f6698;fill-opacity:1;stroke:none;stroke-width:0.0775523;stroke-linecap:round;stroke-linejoin:bevel;stroke-miterlimit:4;stroke-dasharray:none;stroke-opacity:1"
       id="path3384-6" />
  </g>
  <g
     id="g3701"
     transform="translate(0.52916667)">
    <path
       d="M 3.6614475,2.5962137 9.0328112,2.1262803 9.6511443,9.1938641 4.279781,9.6637975 Z"
       style="fill:#fafafa;stroke-width:0.0750842;stroke-linecap:round;stroke-linejoin:bevel"
       id="path3184-3" />
    <path
       d="m 3.6490806,2.454862 c -0.078308,0.00686 -0.1358361,0.07541 -0.128985,0.1537183 l 0.6183335,7.0675838 c 0.00686,0.078308 0.07541,0.1358362 0.1537183,0.1289851 L 9.6635107,9.3352157 C 9.7418185,9.3283599 9.7993471,9.259806 9.792496,9.1814974 L 9.174163,2.1139135 C 9.1672861,2.0356097 9.0987544,1.9780774 9.0204447,1.9849286 Z m 0.166085,0.2703367 5.0886606,-0.4452 L 9.497426,9.064879 4.4087657,9.5100791 Z"
       style="opacity:0.2;fill:#4f6698;fill-opacity:1;stroke:none;stroke-width:0.08318;stroke-linecap:round;stroke-linejoin:bevel;stroke-miterlimit:4;stroke-dasharray:none;stroke-opacity:1"
       id="path3384-60" />
  </g>
  <g
     id="g4989"
     transform="rotate(-25.5,16.689649,1.3615062)">
    <path
       d="M 3.3025919,-2.2711275 8.3065316,-1.7893029 7.6725516,4.7948283 2.6686122,4.3130037 Z"
       style="fill:#fafafa;stroke-width:0.0700042;stroke-linecap:round;stroke-linejoin:bevel"
       id="path3184" />
    <path
       d="m 3.3152713,-2.4028102 c -0.072952,-0.00702 -0.1373377,0.046051 -0.1443622,0.119003 L 2.5369294,4.300324 c -0.00702,0.072952 0.046051,0.1373378 0.119003,0.1443623 l 5.0039394,0.4818245 c 0.072952,0.00702 0.137338,-0.046051 0.1443625,-0.119003 l 0.6339801,-6.5841312 c 0.007,-0.072952 -0.04605,-0.1373376 -0.119003,-0.1443622 z M 3.4215947,-2.1267654 8.1621694,-1.6702999 7.5535486,4.650466 2.8129742,4.1940006 Z"
       style="opacity:0.2;fill:#4f6698;fill-opacity:1;stroke:none;stroke-width:0.0775523;stroke-linecap:round;stroke-linejoin:bevel;stroke-miterlimit:4;stroke-dasharray:none;stroke-opacity:1"
       id="path3384" />
  </g>
  <g
     id="g3656"
     transform="rotate(10,10.068281,7.3502476)">
    <path
       d="m 7.2760547,4.2746106 5.0079533,-0.4381392 0.576499,6.5894126 -5.0079534,0.43814 z"
       style="fill:#fafafa;stroke-width:0.0700042;stroke-linecap:round;stroke-linejoin:bevel"
       id="path3184-7" />
    <path
       d="m 7.2645245,4.1428223 c -0.07301,0.00639 -0.1266459,0.070308 -0.1202583,0.1433182 l 0.576499,6.5894125 c 0.00639,0.07301 0.070308,0.126646 0.1433182,0.120259 l 5.0079536,-0.438139 c 0.07301,-0.0064 0.126646,-0.07031 0.120258,-0.143319 L 12.415797,3.8249413 C 12.409385,3.7519353 12.34549,3.6982954 12.272479,3.704683 Z M 7.4193727,4.3948688 12.16375,3.9797896 12.717189,10.305626 7.9728117,10.720705 Z"
       style="opacity:0.2;fill:#4f6698;fill-opacity:1;stroke:none;stroke-width:0.0775523;stroke-linecap:round;stroke-linejoin:bevel;stroke-miterlimit:4;stroke-dasharray:none;stroke-opacity:1"
       id="path3384-0" />
  </g>
  <path
     style="color:#000000;fill:#d8d8d8;stroke-width:0.264583;stroke-linejoin:bevel;-inkscape-stroke:none"
     d="m 2.3156209,3.398759 2.0500042,11.153325 c 1e-6,0.730626 1.8360997,1.322916 4.1010418,1.322916 2.2649421,0 4.1010411,-0.59229 4.1010421,-1.322916 L 14.617713,3.398759 C 14.197226,4.5627253 11.278867,5.4233968 8.4666669,5.4239585 5.6544669,5.4233968 2.7361079,4.5627254 2.3156209,3.398759 Z"
     id="path1632"
     sodipodi:nodetypes="ccscccc" />
  <path
     style="color:#000000;opacity:0.3;fill:#000000;stroke-width:0.264583;stroke-linejoin:bevel;-inkscape-stroke:none"
     d="M 2.4401611,3.3538005 2.1843627,3.4168455 4.2343669,14.57017 4.2333369,14.55208 c 0,0.238065 0.148135,0.447752 0.3741373,0.620117 0.2260026,0.172364 0.5383805,0.318598 0.9188072,0.441317 0.760853,0.245436 1.7963872,0.393774 2.940389,0.393774 1.1440017,0 2.1795366,-0.148338 2.9403886,-0.393774 0.380427,-0.122719 0.692805,-0.268953 0.918807,-0.441317 C 12.551865,14.999836 12.7,14.790149 12.7,14.552084 l -10e-4,0.01809 2.050005,-11.1533248 -0.255798,-0.063046 C 14.306593,3.8702796 13.305353,4.3137167 12.129492,4.7437931 11.148412,5.1026275 9.8592769,5.2913887 8.4666669,5.2916668 7.0740568,5.2913887 5.7866596,5.077272 4.8038413,4.7232259 3.8210229,4.3691801 2.626741,3.8702796 2.4401611,3.3538005 Z m 0.086816,0.6154663 c 0.3608885,0.4039817 1.462558,0.7420891 2.1869467,1.0030397 1.0199476,0.3674211 2.3331557,0.58366 3.7527427,0.5839436 1.419587,-2.91e-4 2.7120515,-0.2596452 3.7527435,-0.5633764 1.000092,-0.2918818 1.826058,-0.6196252 2.186947,-1.0236069 l -1.969907,10.5647302 -0.001,0.01809 c 0,0.127247 -0.08122,0.265615 -0.270268,0.409794 -0.189045,0.144178 -0.47751,0.283293 -0.839225,0.399975 -0.723431,0.233365 -1.7383187,0.380856 -2.8592575,0.380856 -1.1209388,0 -2.1358265,-0.147491 -2.8592572,-0.380856 C 5.2456944,15.245171 4.9572298,15.106056 4.7681844,14.961878 4.5791394,14.817699 4.4979168,14.679331 4.4979168,14.552084 l -0.00103,-0.01809 z"
     id="path1634"
     sodipodi:nodetypes="ccccsssssccccscsccscscccsssssccc" />
</svg>
