<?xml version="1.0" encoding="UTF-8" standalone="no"?>
<!-- Created with Inkscape (http://www.inkscape.org/) -->

<svg
   width="32"
   height="32"
   viewBox="0 0 8.4666663 8.4666671"
   version="1.1"
   id="svg2469"
   inkscape:version="1.1.2 (0a00cf5339, 2022-02-04, custom)"
   sodipodi:docname="folder-default-network.svg"
   xmlns:inkscape="http://www.inkscape.org/namespaces/inkscape"
   xmlns:sodipodi="http://sodipodi.sourceforge.net/DTD/sodipodi-0.dtd"
   xmlns="http://www.w3.org/2000/svg"
   xmlns:svg="http://www.w3.org/2000/svg">
  <sodipodi:namedview
     id="namedview2471"
     pagecolor="#ffffff"
     bordercolor="#666666"
     borderopacity="1.0"
     inkscape:pageshadow="2"
     inkscape:pageopacity="0.0"
     inkscape:pagecheckerboard="0"
     inkscape:document-units="px"
     showgrid="false"
     units="px"
     inkscape:zoom="25.09375"
     inkscape:cx="16"
     inkscape:cy="15.980075"
     inkscape:window-width="1920"
     inkscape:window-height="1019"
     inkscape:window-x="0"
     inkscape:window-y="31"
     inkscape:window-maximized="1"
     inkscape:current-layer="svg2469" />
  <defs
     id="defs2466" />
  <path
     d="m 1.5878068,0.7937544 c -0.076632,0 -0.1682162,0.0206532 -0.242178,0.076169 C 1.2738726,0.92378428 1.2358139,0.99898762 1.2167277,1.059369 H 0.92572342 c -0.0329987,0 -0.0612566,-0.00101 -0.10546455,0.00391 -0.0442083,0.00491 -0.12666751,0.01925 -0.19725793,0.08984 -0.0705902,0.07059 -0.0849287,0.1530502 -0.0898405,0.1972579 -0.00491,0.044208 -0.00391,0.072466 -0.00391,0.1054646 v 2.7772345 c 0,0.2885347 0.24077172,0.5292759 0.52927606,0.5292759 H 7.4062183 C 7.6964469,4.7634322 7.9385489,4.5233007 7.9374474,4.2330721 V 1.4558377 c 0,-0.032999 0.00106,-0.06107 -0.00391,-0.1054647 C 7.9285674,1.305978 7.9126354,1.2234681 7.8417494,1.1531151 7.7708634,1.0827619 7.690607,1.0681445 7.6464446,1.0632747 7.6022826,1.0584047 7.5722756,1.0593647 7.5390269,1.0593647 H 4.0720798 C 4.0530035,0.99927521 4.016174,0.92350289 3.9451316,0.869919 3.8710515,0.8140432 3.7795855,0.79375 3.7029537,0.79375 Z M 1.718661,1.3230303 H 3.5721038 V 1.5886449 H 7.4081755 V 4.2350252 H 1.0585307 V 4.2330653 1.588635 H 1.718661 Z"
     style="color:#000000;fill:#000000;fill-opacity:0.268;stroke-width:0.264584;-inkscape-stroke:none;paint-order:markers stroke fill"
     id="path1690"
     sodipodi:nodetypes="cccscscsssccssssscscccccccccccc" />
  <path
     d="m 1.5866825,1.0583334 c -0.1459922,0 -0.131993,0.1329947 -0.131993,0.2649895 H 0.92571748 c -0.13199301,0 -0.13199301,0 -0.13199301,0.1319948 v 2.7778904 c 0,0.1469944 0.11799375,0.2649898 0.26398593,0.2649898 H 7.407842 c 0.1465774,5.557e-4 0.2655422,-0.11841 0.2649859,-0.2649898 V 1.4553177 c 0,-0.1319948 0,-0.1319948 -0.131993,-0.1319948 H 3.8355633 c 0,-0.1319948 0.014999,-0.2649895 -0.131993,-0.2649895 z"
     style="fill:#ffffff;fill-opacity:0.976;stroke-width:0.264582"
     id="path1810"
     sodipodi:nodetypes="scssssccsscss" />
  <path
     style="color:#000000;opacity:0.6;fill:#6b1b1b;fill-opacity:1;stroke:none;stroke-width:0.999991;stroke-linejoin:round;-inkscape-stroke:none"
     d="m 4.2324219,1.8520833 c -0.159951,3.697e-4 -0.3194424,0.098967 -0.390625,0.1972619 -0.071466,0.098687 -0.094276,0.1801062 -0.1132813,0.2206991 l -0.054687,0.111326 H 0.52929687 c -0.0137527,2.354e-4 -0.0274661,0.00154 -0.0410156,0.00391 -0.11676257,0.018678 -0.23184652,0.0661 -0.3261719,0.1542901 C 0.067784,2.6277603 0,2.7652615 0,2.9106573 v 4.2330326 c 0,0.288576 0.24071534,0.5292869 0.52929687,0.5292869 H 7.9375 c 0.2885815,0 0.5292969,-0.2407109 0.5292969,-0.5292869 V 2.3813703 c 0,-0.288576 -0.2407154,-0.529287 -0.5292969,-0.529287 H 4.234375 Z m 0.027344,0.529287 H 7.9375 V 7.1436899 H 0.52929687 V 2.9243288 c 0.003765,-0.00261 0.0154355,-0.00911 0.03125,-0.013672 H 3.8359375 C 3.9360866,2.9104858 4.0275576,2.8537901 4.0722656,2.7641756 L 4.2050781,2.5005087 c 0.00133,-0.00194 0.00263,-0.00389 0.00391,-0.00586 0.031366,-0.066995 0.043465,-0.097861 0.050781,-0.1132791 z"
     id="path2440"
     sodipodi:nodetypes="csccccsssssssscccccccccccccc" />
  <path
     style="color:#000000;fill:#c05454;stroke:none;stroke-width:0.529167;stroke-linejoin:round;-inkscape-stroke:none"
     d="M 0.5291667,2.6458335 H 3.8364583 L 3.96875,2.38125 C 4.0250841,2.2609247 4.0568927,2.1162163 4.2333333,2.1166668 H 7.9375 c 0.1465792,0 0.2645833,0.1180042 0.2645833,0.2645833 V 7.14375 c 0,0.1465791 -0.1180041,0.2645833 -0.2645833,0.2645833 H 0.5291667 c -0.14657918,0 -0.26458335,-0.1180042 -0.26458335,-0.2645833 V 2.9104168 c 0,-0.1465791 0.11984511,-0.2414252 0.26458335,-0.2645833 z"
     id="path2438" />
  <path
     d="M 4.2328332,5.5603932 C 4.1065786,5.5629861 3.9861989,5.6142177 3.8967979,5.7033998 L 4.2328332,6.085417 4.5728689,5.7063998 C 4.4832738,5.6147097 4.361021,5.5622162 4.2328332,5.5603932 Z m 0,-0.6630297 C 3.9466316,4.9030017 3.6722359,5.0124696 3.460752,5.2053774 L 3.6707741,5.4403877 C 3.8147894,5.332383 4.038813,5.2283784 4.2248325,5.2283784 c 0.1900198,0 0.4250446,0.1070046 0.5700599,0.2200098 L 5.011915,5.202377 C 4.797553,5.0100055 4.5208327,4.9016685 4.2328332,4.8973635 Z m 0,-0.6640302 c -0.4530476,0 -0.868091,0.1820083 -1.1901249,0.485022 l 0.2050213,0.242011 c 0.2880305,-0.2630119 0.5900622,-0.395018 0.9851036,-0.395018 0.3950415,0 0.6880723,0.1240056 0.990104,0.4000181 L 5.4239584,4.7183553 C 5.104126,4.4100605 4.6780632,4.2364234 4.2338334,4.2333333 Z"
     style="color:#000000;overflow:visible;opacity:0.3;stroke-width:0.449791;marker:none"
     id="path862" />
</svg>
