<?xml version="1.0" encoding="UTF-8" standalone="no"?>
<!-- Created with Inkscape (http://www.inkscape.org/) -->

<svg
   width="32"
   height="32"
   viewBox="0 0 8.4666663 8.4666671"
   version="1.1"
   id="svg2469"
   inkscape:version="1.1.2 (0a00cf5339, 2022-02-04, custom)"
   sodipodi:docname="folder-default-images-open.svg"
   xmlns:inkscape="http://www.inkscape.org/namespaces/inkscape"
   xmlns:sodipodi="http://sodipodi.sourceforge.net/DTD/sodipodi-0.dtd"
   xmlns="http://www.w3.org/2000/svg"
   xmlns:svg="http://www.w3.org/2000/svg">
  <sodipodi:namedview
     id="namedview2471"
     pagecolor="#ffffff"
     bordercolor="#666666"
     borderopacity="1.0"
     inkscape:pageshadow="2"
     inkscape:pageopacity="0.0"
     inkscape:pagecheckerboard="0"
     inkscape:document-units="px"
     showgrid="false"
     units="px"
     inkscape:zoom="30.845884"
     inkscape:cx="16.031312"
     inkscape:cy="16.015103"
     inkscape:window-width="1920"
     inkscape:window-height="1019"
     inkscape:window-x="0"
     inkscape:window-y="31"
     inkscape:window-maximized="1"
     inkscape:current-layer="svg2469" />
  <defs
     id="defs2466" />
  <path
     d="m 1.5878068,0.7937544 c -0.076632,0 -0.1682162,0.0206532 -0.242178,0.076169 C 1.2738726,0.92378428 1.2358139,0.99898762 1.2167277,1.059369 H 0.92572342 c -0.0329987,0 -0.0612566,-0.00101 -0.10546455,0.00391 -0.0442083,0.00491 -0.12666751,0.01925 -0.19725793,0.08984 -0.0705902,0.07059 -0.0849287,0.1530502 -0.0898405,0.1972579 -0.00491,0.044208 -0.00391,0.072466 -0.00391,0.1054646 v 2.7772345 c 0,0.2885347 0.24077172,0.5292759 0.52927606,0.5292759 H 7.4062183 C 7.6964469,4.7634322 7.9385489,4.5233007 7.9374474,4.2330721 V 1.4558377 c 0,-0.032999 0.00106,-0.06107 -0.00391,-0.1054647 C 7.9285674,1.305978 7.9126354,1.2234681 7.8417494,1.1531151 7.7708634,1.0827619 7.690607,1.0681445 7.6464446,1.0632747 7.6022826,1.0584047 7.5722756,1.0593647 7.5390269,1.0593647 H 4.0720798 C 4.0530035,0.99927521 4.016174,0.92350289 3.9451316,0.869919 3.8710515,0.8140432 3.7795855,0.79375 3.7029537,0.79375 Z M 1.718661,1.3230303 H 3.5721038 V 1.5886449 H 7.4081755 V 4.2350252 H 1.0585307 V 4.2330653 1.588635 H 1.718661 Z"
     style="color:#000000;fill:#000000;fill-opacity:0.268;stroke-width:0.264584;-inkscape-stroke:none;paint-order:markers stroke fill"
     id="path1690"
     sodipodi:nodetypes="cccscscsssccssssscscccccccccccc" />
  <path
     d="m 1.5866825,1.0583334 c -0.1459922,0 -0.131993,0.1329947 -0.131993,0.2649895 H 0.92571748 c -0.13199301,0 -0.13199301,0 -0.13199301,0.1319948 v 2.7778904 c 0,0.1469944 0.11799375,0.2649898 0.26398593,0.2649898 H 7.407842 c 0.1465774,5.557e-4 0.2655422,-0.11841 0.2649859,-0.2649898 V 1.4553177 c 0,-0.1319948 0,-0.1319948 -0.131993,-0.1319948 H 3.8355633 c 0,-0.1319948 0.014999,-0.2649895 -0.131993,-0.2649895 z"
     style="fill:#ffffff;fill-opacity:0.976;stroke-width:0.264582"
     id="path1810"
     sodipodi:nodetypes="scssssccsscss" />
  <path
     style="color:#000000;opacity:0.6;fill:#003579;fill-opacity:1;stroke:none;stroke-width:0.999991;stroke-linejoin:round;-inkscape-stroke:none"
     d="m 4.2324219,2.9104166 c -0.159951,3.697e-4 -0.3194424,0.098967 -0.390625,0.1972619 -0.071466,0.098687 -0.094276,0.1801062 -0.1132813,0.2206991 l -0.054687,0.111326 H 0.52929687 c -0.0137527,2.354e-4 -0.0274661,0.00154 -0.0410156,0.00391 -0.11676257,0.018678 -0.23184652,0.0661 -0.3261719,0.1542901 C 0.067784,3.6860936 0,3.8235948 0,3.9689906 v 3.1746993 c 0,0.288576 0.24071534,0.5292869 0.52929687,0.5292869 H 7.9375 c 0.2885815,0 0.5292969,-0.2407109 0.5292969,-0.5292869 V 3.4397036 c 0,-0.288576 -0.2407154,-0.529287 -0.5292969,-0.529287 H 4.234375 Z m 0.027344,0.529287 H 7.9375 V 7.1436899 H 0.52929687 V 3.9826621 c 0.003765,-0.00261 0.0154355,-0.00911 0.03125,-0.013672 H 3.8359375 C 3.9360866,3.9688191 4.0275576,3.9121234 4.0722656,3.8225089 L 4.2050781,3.558842 c 0.00133,-0.00194 0.00263,-0.00389 0.00391,-0.00586 0.031366,-0.066995 0.043465,-0.097861 0.050781,-0.1132791 z"
     id="path2440"
     sodipodi:nodetypes="csccccsssssssscccccccccccccc" />
  <path
     style="color:#000000;fill:#6ba4e9;stroke:none;stroke-width:0.529167;stroke-linejoin:round;-inkscape-stroke:none"
     d="M 0.5291667,3.7041668 H 3.8364583 L 3.96875,3.4395833 C 4.0250841,3.319258 4.0568927,3.1745496 4.2333333,3.1750001 H 7.9375 c 0.1465792,0 0.2645833,0.1180042 0.2645833,0.2645833 V 7.14375 c 0,0.1465791 -0.1180041,0.2645833 -0.2645833,0.2645833 H 0.5291667 c -0.14657918,0 -0.26458335,-0.1180042 -0.26458335,-0.2645833 V 3.9687501 c 0,-0.1465791 0.11984511,-0.2414252 0.26458335,-0.2645833 z"
     id="path2438"
     sodipodi:nodetypes="ccccsssssssc" />
  <path
     id="path2513"
     style="opacity:0.15;fill:#000000;stroke-width:0.264583"
     d="M 3.5718749,4.2333334 3.3072916,4.7625 H 2.6458333 v 1.8520834 h 3.175 V 4.7625 H 5.1593749 L 4.8947916,4.2333334 Z M 4.2333332,4.7625 a 0.79374999,0.79374999 0 0 1 0.7937502,0.7937501 0.79374999,0.79374999 0 0 1 -0.7937502,0.79375 0.79374999,0.79374999 0 0 1 -0.79375,-0.79375 0.79374999,0.79374999 0 0 1 0.79375,-0.7937501 z m 0,0.2645834 a 0.52916668,0.52916668 0 0 0 -0.1152383,0.012919 0.52916668,0.52916668 0 0 1 0.1152383,-0.012919 z m 0.049609,0.00259 a 0.52916668,0.52916668 0 0 1 0.033073,0.00414 0.52916668,0.52916668 0 0 0 -0.033073,-0.00414 z m 0.033073,0.00414 a 0.52916668,0.52916668 0 0 1 0.032039,0.0062 0.52916668,0.52916668 0 0 0 -0.032039,-0.0062 z m -0.2030879,0.00775 a 0.52916668,0.52916668 0 0 0 -0.1054201,0.036174 0.52916668,0.52916668 0 0 1 0.1054201,-0.036174 z m 0.3229776,0.02584 a 0.52916668,0.52916668 0 0 1 0.037724,0.017571 0.52916668,0.52916668 0 0 0 -0.037724,-0.017571 z m -0.4340821,0.012907 a 0.52916668,0.52916668 0 0 0 -0.094568,0.059945 0.52916668,0.52916668 0 0 1 0.094568,-0.059945 z m 0.5079794,0.024805 a 0.52916668,0.52916668 0 0 1 0.034623,0.023254 0.52916668,0.52916668 0 0 0 -0.034623,-0.023254 z m 0.034623,0.023254 a 0.52916668,0.52916668 0 0 1 0.026355,0.020153 0.52916668,0.52916668 0 0 0 -0.026355,-0.020153 z m -0.6444051,0.017571 a 0.52916668,0.52916668 0 0 0 -0.076998,0.076998 0.52916668,0.52916668 0 0 1 0.076998,-0.076998 z m 0.7410403,0.072864 a 0.52916668,0.52916668 0 0 1 0.020153,0.026355 0.52916668,0.52916668 0 0 0 -0.020153,-0.026355 z m 0.020153,0.026355 a 0.52916668,0.52916668 0 0 1 0.023254,0.034623 0.52916668,0.52916668 0 0 0 -0.023254,-0.034623 z m -0.843876,-0.014987 a 0.52916668,0.52916668 0 0 0 -0.059944,0.094567 0.52916668,0.52916668 0 0 1 0.059945,-0.094568 z m 0.8872844,0.085783 a 0.52916668,0.52916668 0 0 1 0.017571,0.037724 0.52916668,0.52916668 0 0 0 -0.017571,-0.037724 z m -0.9498129,0.01447 a 0.52916668,0.52916668 0 0 0 -0.036173,0.1054205 0.52916668,0.52916668 0 0 1 0.036173,-0.1054205 z m -0.037724,0.110588 a 0.52916668,0.52916668 0 0 0 -0.012918,0.1152367 0.52916668,0.52916668 0 0 1 0.012919,-0.1152385 z m -0.012918,0.1152367 a 0.52916668,0.52916668 0 0 0 0.01292,0.1152384 0.52916668,0.52916668 0 0 1 -0.01292,-0.1152384 z M 4.7495808,5.4415283 a 0.52916668,0.52916668 0 0 1 0.0062,0.03204 0.52916668,0.52916668 0 0 0 -0.0062,-0.03204 z m 0.0062,0.03204 a 0.52916668,0.52916668 0 0 1 0.00414,0.033073 0.52916668,0.52916668 0 0 0 -0.00414,-0.033073 z m 0.00672,0.082682 A 0.52916668,0.52916668 0 0 1 4.7495818,5.6714887 0.52916668,0.52916668 0 0 0 4.7625008,5.5562503 Z M 3.718637,5.6766563 A 0.52916668,0.52916668 0 0 0 3.75481,5.7820764 0.52916668,0.52916668 0 0 1 3.718637,5.6766563 Z m 1.0293943,0 a 0.52916668,0.52916668 0 0 1 -0.036174,0.1054199 0.52916668,0.52916668 0 0 0 0.036174,-0.1054199 z m -0.990638,0.1111042 a 0.52916668,0.52916668 0 0 0 0.059945,0.094568 0.52916668,0.52916668 0 0 1 -0.059945,-0.094568 z m 0.9518799,0 a 0.52916668,0.52916668 0 0 1 -0.059945,0.094568 0.52916668,0.52916668 0 0 0 0.059945,-0.094568 z M 3.8230225,5.8895632 a 0.52916668,0.52916668 0 0 0 0.076998,0.076998 0.52916668,0.52916668 0 0 1 -0.076998,-0.076998 z m 0.8206216,0 a 0.52916668,0.52916668 0 0 1 -0.076998,0.076998 0.52916668,0.52916668 0 0 0 0.076998,-0.076998 z M 3.907255,5.9722452 a 0.52916668,0.52916668 0 0 0 0.094568,0.059945 0.52916668,0.52916668 0 0 1 -0.094568,-0.059945 z m 0.6521566,0 a 0.52916668,0.52916668 0 0 1 -0.094568,0.059945 0.52916668,0.52916668 0 0 0 0.094568,-0.059945 z m -0.5519044,0.062528 a 0.52916668,0.52916668 0 0 0 0.1054201,0.036173 0.52916668,0.52916668 0 0 1 -0.1054201,-0.036173 z m 0.4516522,0 a 0.52916668,0.52916668 0 0 1 -0.1054201,0.036174 0.52916668,0.52916668 0 0 0 0.1054201,-0.036174 z m -0.3410645,0.037724 a 0.52916668,0.52916668 0 0 0 0.1152383,0.012919 0.52916668,0.52916668 0 0 1 -0.1152383,-0.012919 z m 0.1152383,0.012919 a 0.52916668,0.52916668 0 0 0 0.1152385,-0.012919 0.52916668,0.52916668 0 0 1 -0.1152385,0.012919 z" />
  <path
     id="path2357"
     style="opacity:0.3;fill:#000000;stroke-width:0.264583"
     d="M 3.4401001,3.96875 3.1749999,4.4989502 H 2.64635 C 2.5001622,4.4983945 2.381249,4.6163111 2.38125,4.7625 v 1.8520834 c 0,0.1469943 0.1181058,0.2645834 0.2651,0.2645834 h 3.1744833 c 0.1461889,1e-6 0.2651371,-0.1178788 0.2645833,-0.2640666 V 4.7635335 c 0,-0.1457973 -0.1187857,-0.2645833 -0.2645833,-0.2645833 H 5.2901164 L 5.0260498,3.96875 Z M 3.5723916,4.2338501 H 4.8953083 L 5.1593749,4.7635335 H 5.8208333 V 6.6145834 H 2.64635 V 4.7625 H 3.3072916 Z M 4.2333332,4.7625 a 0.79374999,0.79374999 0 0 0 -0.79375,0.7937501 0.79374999,0.79374999 0 0 0 0.79375,0.79375 0.79374999,0.79374999 0 0 0 0.7937502,-0.79375 A 0.79374999,0.79374999 0 0 0 4.2333332,4.7625 Z m 0,0.2645834 A 0.52916668,0.52916668 0 0 1 4.7624999,5.5562501 0.52916668,0.52916668 0 0 1 4.2333332,6.0854167 0.52916668,0.52916668 0 0 1 3.7041667,5.5562501 0.52916668,0.52916668 0 0 1 4.2333332,5.0270834 Z" />
</svg>
