<?xml version="1.0" encoding="UTF-8" standalone="no"?>
<!-- Created with Inkscape (http://www.inkscape.org/) -->

<svg
   width="128"
   height="128"
   viewBox="0 0 33.866666 33.866668"
   version="1.1"
   id="svg843"
   inkscape:version="1.1.2 (0a00cf5339, 2022-02-04, custom)"
   sodipodi:docname="folder-default-favorites.svg"
   xmlns:inkscape="http://www.inkscape.org/namespaces/inkscape"
   xmlns:sodipodi="http://sodipodi.sourceforge.net/DTD/sodipodi-0.dtd"
   xmlns:xlink="http://www.w3.org/1999/xlink"
   xmlns="http://www.w3.org/2000/svg"
   xmlns:svg="http://www.w3.org/2000/svg">
  <sodipodi:namedview
     id="namedview845"
     pagecolor="#ffffff"
     bordercolor="#666666"
     borderopacity="1.0"
     inkscape:pageshadow="2"
     inkscape:pageopacity="0.0"
     inkscape:pagecheckerboard="0"
     inkscape:document-units="px"
     showgrid="false"
     units="px"
     showguides="false"
     inkscape:zoom="2.8284271"
     inkscape:cx="13.965359"
     inkscape:cy="106.41957"
     inkscape:window-width="1920"
     inkscape:window-height="1019"
     inkscape:window-x="0"
     inkscape:window-y="31"
     inkscape:window-maximized="1"
     inkscape:current-layer="svg843" />
  <defs
     id="defs840">
    <linearGradient
       inkscape:collect="always"
       xlink:href="#linearGradient3964"
       id="linearGradient3966"
       x1="56"
       y1="50"
       x2="62"
       y2="56"
       gradientUnits="userSpaceOnUse"
       gradientTransform="matrix(0.52034727,0,0,0.52034727,0.28222176,0.22930476)" />
    <linearGradient
       inkscape:collect="always"
       id="linearGradient3964">
      <stop
         style="stop-color:#000000;stop-opacity:1;"
         offset="0"
         id="stop3960" />
      <stop
         style="stop-color:#000000;stop-opacity:0;"
         offset="1"
         id="stop3962" />
    </linearGradient>
  </defs>
  <path
     id="rect3743"
     style="opacity:0.3;fill:#000000;fill-opacity:1;stroke:none;stroke-width:0.529167;stroke-linecap:round;stroke-linejoin:round;stroke-miterlimit:4;stroke-dasharray:none;stroke-opacity:1"
     d="m 7.1437502,4.2333334 c -0.6421954,0 -1.1745982,0.4531255 -1.2965618,1.0583334 H 3.9687501 c -0.4397375,0 -0.79375,0.3540125 -0.79375,0.79375 V 17.991667 c 0,0.439738 0.3540125,0.79375 0.79375,0.79375 H 29.897917 c 0.439738,0 0.79375,-0.354012 0.79375,-0.79375 V 6.0854168 c 0,-0.4397375 -0.354012,-0.79375 -0.79375,-0.79375 H 15.584062 C 15.462099,4.6864589 14.929696,4.2333334 14.2875,4.2333334 Z"
     sodipodi:nodetypes="scsssssssscss" />
  <path
     id="rect3507"
     style="fill:#ffffff;fill-opacity:1;stroke:none;stroke-width:0.529167;stroke-linecap:round;stroke-linejoin:round;stroke-miterlimit:4;stroke-dasharray:none;stroke-opacity:1"
     d="m 7.1437502,4.4979168 c -0.5863167,0 -1.0583334,0.4720167 -1.0583334,1.0583333 H 3.9687501 c -0.2931583,0 -0.5291667,0.2360084 -0.5291667,0.5291667 V 17.991667 c 0,0.293158 0.2360084,0.529167 0.5291667,0.529167 H 29.897917 c 0.293159,0 0.529167,-0.236009 0.529167,-0.529167 V 6.0854168 c 0,-0.2931583 -0.236008,-0.5291667 -0.529167,-0.5291667 H 15.345834 c 0,-0.5863166 -0.472017,-1.0583333 -1.058334,-1.0583333 z"
     sodipodi:nodetypes="scsssssssscss" />
  <path
     style="color:#000000;opacity:0.6;fill:#6b1b1b;fill-opacity:1;stroke:none;stroke-linecap:round;stroke-linejoin:round;-inkscape-stroke:none"
     d="m 16.933334,7.9375 c -0.382126,-7.872e-4 -0.673388,0.2069709 -0.855469,0.4472656 -0.182081,0.2402948 -0.296794,0.5108919 -0.431641,0.7421875 -6.77e-4,0.0013 -0.0013,0.0026 -0.002,0.00391 L 15.128646,10.054688 H 1.8513021 c -0.4351603,0 -0.7929688,0.357807 -0.7929688,0.792968 v 17.992583 c 0,0.435161 0.3578085,0.792968 0.7929688,0.792968 H 32.013412 c 0.43516,0 0.794922,-0.357808 0.794922,-0.792968 V 8.7304688 C 32.808334,8.2953084 32.448572,7.9375 32.013412,7.9375 Z m 0,0.5292969 h 15.080078 c 0.151155,0 0.265625,0.112516 0.265625,0.2636719 V 28.840239 c 0,0.151157 -0.11447,0.263672 -0.265625,0.263672 H 1.8513021 c -0.1511559,0 -0.2636719,-0.112516 -0.2636719,-0.263672 V 10.847656 c 0,-0.151156 0.112516,-0.263672 0.2636719,-0.263672 H 15.284896 c 0.09592,-4.29e-4 0.184107,-0.05274 0.230469,-0.136718 l 0.587891,-1.0527347 0.002,-0.00586 C 16.25932,9.1234316 16.376037,8.8663775 16.49974,8.703125 16.62439,8.5386229 16.716468,8.4663501 16.933334,8.4667969 Z"
     id="path2958"
     sodipodi:nodetypes="cscccssssssssccssssssssccccsc" />
  <path
     style="color:#000000;fill:#c05454;stroke:none;stroke-width:0.529167;stroke-linecap:round;stroke-linejoin:round;-inkscape-stroke:none"
     d="M 1.8520834,10.31875 H 15.284979 L 15.875,9.2604168 c 0.290751,-0.4987116 0.459341,-1.0595673 1.058333,-1.0583334 h 15.081251 c 0.293158,0 0.529166,0.2360083 0.529166,0.5291667 V 28.839583 c 0,0.293159 -0.236008,0.529167 -0.529166,0.529167 H 1.8520834 c -0.2931584,0 -0.5291667,-0.236008 -0.5291667,-0.529167 V 10.847917 c 0,-0.293159 0.2360083,-0.529167 0.5291667,-0.529167 z"
     id="path2956" />
  <path
     id="rect4759"
     style="opacity:0.3;stroke-width:0.529167;stroke-linecap:round;stroke-linejoin:round"
     d="M 8.2020836,5.5562501 H 13.49375 c 0.293158,0 0.529167,0.2360083 0.529167,0.5291667 0,0.2931583 -0.236009,0.5291667 -0.529167,0.5291667 H 8.2020836 c -0.2931584,0 -0.5291667,-0.2360084 -0.5291667,-0.5291667 0,-0.2931584 0.2360083,-0.5291667 0.5291667,-0.5291667 z" />
  <path
     id="rect3575"
     style="opacity:0.1;fill:url(#linearGradient3966);fill-opacity:1;stroke-width:1.04069;stroke-linejoin:round"
     d="m 32.543751,23.124687 -6.244064,6.244064 h 5.714897 c 0.293158,0 0.529167,-0.236009 0.529167,-0.529167 z" />
  <path
     d="m 16.933338,13.909147 c -0.05259,-1.27e-4 -0.10027,0.03091 -0.121434,0.07906 l -1.857677,4.254832 h -4.238295 c -0.123074,-3.2e-5 -0.179505,0.153283 -0.08578,0.233049 l 3.446134,2.922161 -1.321818,3.978378 c -0.03727,0.112914 0.08175,0.213847 0.187058,0.158639 l 3.992844,-2.102613 3.992326,2.102095 c 0.105598,0.0556 0.225028,-0.04602 0.18706,-0.159155 l -1.323369,-3.97786 3.446133,-2.921645 c 0.09372,-0.07977 0.03729,-0.233081 -0.08578,-0.233049 h -4.238808 l -1.85716,-4.254833 c -0.02116,-0.04815 -0.06884,-0.07919 -0.121433,-0.07906 z m 0,0.462999 1.770864,4.055887 c 0.02101,0.04835 0.06872,0.07961 0.121435,0.07958 h 3.964421 l -3.23892,2.746469 c -0.0413,0.03485 -0.05726,0.09131 -0.0403,0.14262 l 1.247924,3.751011 -3.762893,-1.981695 c -0.03864,-0.02039 -0.08486,-0.02039 -0.123501,0 l -3.76341,1.982214 1.246891,-3.75153 c 0.01695,-0.05131 0.001,-0.107772 -0.04031,-0.14262 l -3.239437,-2.74647 h 3.964938 c 0.05272,3.8e-5 0.100427,-0.03123 0.121435,-0.07958 z"
     style="color:#000000;opacity:0.3;fill:#000000;stroke-width:0.264584;stroke-linecap:round;stroke-linejoin:round;-inkscape-stroke:none"
     id="path1260" />
  <path
     d="m 16.933768,14.372146 -1.770984,4.055649 c -0.02101,0.04835 -0.06872,0.07962 -0.121439,0.07958 h -3.964563 l 3.239067,2.746718 c 0.0413,0.03485 0.05726,0.09132 0.04031,0.142631 l -1.246969,3.751898 3.763741,-1.982368 c 0.03864,-0.02039 0.08487,-0.02039 0.123509,0 l 3.763213,1.981839 -1.248001,-3.751369 c -0.01695,-0.05131 -0.001,-0.107781 0.04031,-0.142631 l 3.239067,-2.746718 h -3.964563 c -0.05272,3.7e-5 -0.100431,-0.03123 -0.12144,-0.07958 z"
     style="opacity:0.15;fill:#000000;stroke-width:0.264599"
     id="path1517" />
</svg>
