<?xml version="1.0" encoding="UTF-8" standalone="no"?>
<!-- Created with Inkscape (http://www.inkscape.org/) -->

<svg
   width="128"
   height="128"
   viewBox="0 0 33.866666 33.866668"
   version="1.1"
   id="svg843"
   inkscape:version="1.1.2 (0a00cf5339, 2022-02-04, custom)"
   sodipodi:docname="folder-default-images0open.svg"
   xmlns:inkscape="http://www.inkscape.org/namespaces/inkscape"
   xmlns:sodipodi="http://sodipodi.sourceforge.net/DTD/sodipodi-0.dtd"
   xmlns:xlink="http://www.w3.org/1999/xlink"
   xmlns="http://www.w3.org/2000/svg"
   xmlns:svg="http://www.w3.org/2000/svg">
  <sodipodi:namedview
     id="namedview845"
     pagecolor="#ffffff"
     bordercolor="#666666"
     borderopacity="1.0"
     inkscape:pageshadow="2"
     inkscape:pageopacity="0.0"
     inkscape:pagecheckerboard="0"
     inkscape:document-units="px"
     showgrid="false"
     units="px"
     showguides="false"
     inkscape:zoom="5.6568542"
     inkscape:cx="51.530407"
     inkscape:cy="68.589358"
     inkscape:window-width="1920"
     inkscape:window-height="1019"
     inkscape:window-x="0"
     inkscape:window-y="31"
     inkscape:window-maximized="1"
     inkscape:current-layer="svg843" />
  <defs
     id="defs840">
    <linearGradient
       inkscape:collect="always"
       xlink:href="#linearGradient3964"
       id="linearGradient3966"
       x1="56"
       y1="50"
       x2="62"
       y2="56"
       gradientUnits="userSpaceOnUse"
       gradientTransform="matrix(0.52034727,0,0,0.52034727,0.28222176,0.22930476)" />
    <linearGradient
       inkscape:collect="always"
       id="linearGradient3964">
      <stop
         style="stop-color:#000000;stop-opacity:1;"
         offset="0"
         id="stop3960" />
      <stop
         style="stop-color:#000000;stop-opacity:0;"
         offset="1"
         id="stop3962" />
    </linearGradient>
  </defs>
  <path
     id="rect3743"
     style="opacity:0.3;fill:#000000;fill-opacity:1;stroke:none;stroke-width:0.529167;stroke-linecap:round;stroke-linejoin:round;stroke-miterlimit:4;stroke-dasharray:none;stroke-opacity:1"
     d="m 7.1437502,4.2333334 c -0.6421954,0 -1.1745982,0.4531255 -1.2965618,1.0583334 H 3.9687501 c -0.4397375,0 -0.79375,0.3540125 -0.79375,0.79375 V 17.991667 c 0,0.439738 0.3540125,0.79375 0.79375,0.79375 H 29.897917 c 0.439738,0 0.79375,-0.354012 0.79375,-0.79375 V 6.0854168 c 0,-0.4397375 -0.354012,-0.79375 -0.79375,-0.79375 H 15.584062 C 15.462099,4.6864589 14.929696,4.2333334 14.2875,4.2333334 Z"
     sodipodi:nodetypes="scsssssssscss" />
  <path
     id="rect3507"
     style="fill:#ffffff;fill-opacity:1;stroke:none;stroke-width:0.529167;stroke-linecap:round;stroke-linejoin:round;stroke-miterlimit:4;stroke-dasharray:none;stroke-opacity:1"
     d="m 7.1437502,4.4979168 c -0.5863167,0 -1.0583334,0.4720167 -1.0583334,1.0583333 H 3.9687501 c -0.2931583,0 -0.5291667,0.2360084 -0.5291667,0.5291667 V 17.991667 c 0,0.293158 0.2360084,0.529167 0.5291667,0.529167 H 29.897917 c 0.293159,0 0.529167,-0.236009 0.529167,-0.529167 V 6.0854168 c 0,-0.2931583 -0.236008,-0.5291667 -0.529167,-0.5291667 H 15.345834 c 0,-0.5863166 -0.472017,-1.0583333 -1.058334,-1.0583333 z"
     sodipodi:nodetypes="scsssssssscss" />
  <path
     style="color:#000000;opacity:0.6;fill:#c00084;fill-opacity:1;stroke:none;stroke-linecap:round;stroke-linejoin:round;-inkscape-stroke:none"
     d="m 16.933334,11.90625 c -0.382126,-7.87e-4 -0.673388,0.206971 -0.855469,0.447266 -0.182081,0.240294 -0.296794,0.510891 -0.431641,0.742187 -6.77e-4,0.0013 -0.0013,0.0026 -0.002,0.0039 l -0.515578,0.923825 H 1.8513021 c -0.4351603,0 -0.7929688,0.357807 -0.7929688,0.792968 v 14.023833 c 0,0.435161 0.3578085,0.792968 0.7929688,0.792968 H 32.013412 c 0.43516,0 0.794922,-0.357808 0.794922,-0.792968 v -16.14102 c 0,-0.435161 -0.359762,-0.792969 -0.794922,-0.792969 z m 0,0.529297 h 15.080078 c 0.151155,0 0.265625,0.112516 0.265625,0.263672 v 16.14102 c 0,0.151157 -0.11447,0.263672 -0.265625,0.263672 H 1.8513021 c -0.1511559,0 -0.2636719,-0.112516 -0.2636719,-0.263672 V 14.816406 c 0,-0.151156 0.112516,-0.263672 0.2636719,-0.263672 H 15.284896 c 0.09592,-4.29e-4 0.184107,-0.05274 0.230469,-0.136718 l 0.587891,-1.052735 0.002,-0.0059 c 0.154064,-0.265239 0.270781,-0.522294 0.394484,-0.685546 0.12465,-0.164502 0.216728,-0.236775 0.433594,-0.236328 z"
     id="path2958"
     sodipodi:nodetypes="cscccssssssssccssssssssccccsc" />
  <path
     style="color:#000000;fill:#ea88d7;stroke:none;stroke-width:0.529167;stroke-linecap:round;stroke-linejoin:round;-inkscape-stroke:none"
     d="M 1.8520834,14.2875 H 15.284979 L 15.875,13.229167 c 0.290751,-0.498712 0.459341,-1.059568 1.058333,-1.058334 h 15.081251 c 0.293158,0 0.529166,0.236009 0.529166,0.529167 v 16.139583 c 0,0.293159 -0.236008,0.529167 -0.529166,0.529167 H 1.8520834 c -0.2931584,0 -0.5291667,-0.236008 -0.5291667,-0.529167 V 14.816667 c 0,-0.293159 0.2362355,-0.517627 0.5291667,-0.529167 z"
     id="path2956"
     sodipodi:nodetypes="scccssssssss" />
  <path
     id="rect3575"
     style="opacity:0.1;fill:url(#linearGradient3966);fill-opacity:1;stroke-width:1.04069;stroke-linejoin:round"
     d="m 32.543751,23.124687 -6.244064,6.244064 h 5.714897 c 0.293158,0 0.529167,-0.236009 0.529167,-0.529167 z" />
  <path
     id="path1011"
     style="opacity:0.15;fill:#000000;stroke-width:0"
     d="m 12.885353,17.197811 -0.529166,1.5875 h -1.508436 v 7.937501 h 12.170834 v -7.937501 h -1.507918 l -0.529167,-1.5875 z m 4.047815,2.38125 c 1.461249,1.2e-5 2.645822,1.184585 2.645834,2.645834 -1.2e-5,1.461248 -1.184585,2.645823 -2.645834,2.645833 -1.461248,-10e-6 -2.645822,-1.184585 -2.645833,-2.645833 1.1e-5,-1.461249 1.184585,-2.645822 2.645833,-2.645834 z"
     sodipodi:nodetypes="cccccccccccccc" />
  <path
     id="path23"
     style="opacity:0.3;fill:#000000;stroke-width:0"
     d="m 12.7,16.933335 -0.529167,1.5875 h -1.322916 c -0.146581,0 -0.264584,0.118004 -0.264584,0.264584 v 7.9375 c 0,0.14658 0.118003,0.264583 0.264584,0.264583 H 23.01875 c 0.14658,0 0.264583,-0.118003 0.264583,-0.264583 v -7.9375 c 0,-0.14658 -0.118003,-0.264584 -0.264583,-0.264584 h -1.322917 l -0.529167,-1.5875 z m 0.185518,0.264584 h 8.096147 l 0.529166,1.5875 h 1.507919 v 7.9375 H 10.847917 v -7.9375 h 1.508435 z m 4.047815,2.38125 c -1.461249,1.1e-5 -2.645822,1.184584 -2.645833,2.645833 1.1e-5,1.461249 1.184584,2.645822 2.645833,2.645833 1.461249,-1.1e-5 2.645822,-1.184584 2.645833,-2.645833 -1.1e-5,-1.461249 -1.184584,-2.645822 -2.645833,-2.645833 z m 0,0.264583 c 1.315124,9e-6 2.381241,1.066126 2.38125,2.38125 -9e-6,1.315124 -1.066126,2.381241 -2.38125,2.38125 -1.315124,-9e-6 -2.381241,-1.066126 -2.38125,-2.38125 9e-6,-1.315124 1.066126,-2.381241 2.38125,-2.38125 z"
     sodipodi:nodetypes="ccsssssssscccccccccccccccccccccc" />
</svg>
