<?xml version="1.0" encoding="UTF-8" standalone="no"?>
<!-- Created with Inkscape (http://www.inkscape.org/) -->

<svg
   width="128"
   height="128"
   viewBox="0 0 33.866666 33.866668"
   version="1.1"
   id="svg843"
   inkscape:version="1.1.2 (0a00cf5339, 2022-02-04, custom)"
   sodipodi:docname="folder-default-network.svg"
   xmlns:inkscape="http://www.inkscape.org/namespaces/inkscape"
   xmlns:sodipodi="http://sodipodi.sourceforge.net/DTD/sodipodi-0.dtd"
   xmlns:xlink="http://www.w3.org/1999/xlink"
   xmlns="http://www.w3.org/2000/svg"
   xmlns:svg="http://www.w3.org/2000/svg">
  <sodipodi:namedview
     id="namedview845"
     pagecolor="#ffffff"
     bordercolor="#666666"
     borderopacity="1.0"
     inkscape:pageshadow="2"
     inkscape:pageopacity="0.0"
     inkscape:pagecheckerboard="0"
     inkscape:document-units="px"
     showgrid="false"
     units="px"
     showguides="false"
     inkscape:zoom="2.8284271"
     inkscape:cx="13.965359"
     inkscape:cy="106.41957"
     inkscape:window-width="1920"
     inkscape:window-height="1019"
     inkscape:window-x="0"
     inkscape:window-y="31"
     inkscape:window-maximized="1"
     inkscape:current-layer="svg843" />
  <defs
     id="defs840">
    <linearGradient
       inkscape:collect="always"
       xlink:href="#linearGradient3964"
       id="linearGradient3966"
       x1="56"
       y1="50"
       x2="62"
       y2="56"
       gradientUnits="userSpaceOnUse"
       gradientTransform="matrix(0.52034727,0,0,0.52034727,0.28222176,0.22930476)" />
    <linearGradient
       inkscape:collect="always"
       id="linearGradient3964">
      <stop
         style="stop-color:#000000;stop-opacity:1;"
         offset="0"
         id="stop3960" />
      <stop
         style="stop-color:#000000;stop-opacity:0;"
         offset="1"
         id="stop3962" />
    </linearGradient>
  </defs>
  <path
     id="rect3743"
     style="opacity:0.3;fill:#000000;fill-opacity:1;stroke:none;stroke-width:0.529167;stroke-linecap:round;stroke-linejoin:round;stroke-miterlimit:4;stroke-dasharray:none;stroke-opacity:1"
     d="m 7.1437502,4.2333334 c -0.6421954,0 -1.1745982,0.4531255 -1.2965618,1.0583334 H 3.9687501 c -0.4397375,0 -0.79375,0.3540125 -0.79375,0.79375 V 17.991667 c 0,0.439738 0.3540125,0.79375 0.79375,0.79375 H 29.897917 c 0.439738,0 0.79375,-0.354012 0.79375,-0.79375 V 6.0854168 c 0,-0.4397375 -0.354012,-0.79375 -0.79375,-0.79375 H 15.584062 C 15.462099,4.6864589 14.929696,4.2333334 14.2875,4.2333334 Z"
     sodipodi:nodetypes="scsssssssscss" />
  <path
     id="rect3507"
     style="fill:#ffffff;fill-opacity:1;stroke:none;stroke-width:0.529167;stroke-linecap:round;stroke-linejoin:round;stroke-miterlimit:4;stroke-dasharray:none;stroke-opacity:1"
     d="m 7.1437502,4.4979168 c -0.5863167,0 -1.0583334,0.4720167 -1.0583334,1.0583333 H 3.9687501 c -0.2931583,0 -0.5291667,0.2360084 -0.5291667,0.5291667 V 17.991667 c 0,0.293158 0.2360084,0.529167 0.5291667,0.529167 H 29.897917 c 0.293159,0 0.529167,-0.236009 0.529167,-0.529167 V 6.0854168 c 0,-0.2931583 -0.236008,-0.5291667 -0.529167,-0.5291667 H 15.345834 c 0,-0.5863166 -0.472017,-1.0583333 -1.058334,-1.0583333 z"
     sodipodi:nodetypes="scsssssssscss" />
  <path
     style="color:#000000;opacity:0.6;fill:#360079;fill-opacity:1;stroke:none;stroke-linecap:round;stroke-linejoin:round;-inkscape-stroke:none"
     d="m 16.933334,7.9375 c -0.382126,-7.872e-4 -0.673388,0.2069709 -0.855469,0.4472656 -0.182081,0.2402948 -0.296794,0.5108919 -0.431641,0.7421875 -6.77e-4,0.0013 -0.0013,0.0026 -0.002,0.00391 L 15.128646,10.054688 H 1.8513021 c -0.4351603,0 -0.7929688,0.357807 -0.7929688,0.792968 v 17.992583 c 0,0.435161 0.3578085,0.792968 0.7929688,0.792968 H 32.013412 c 0.43516,0 0.794922,-0.357808 0.794922,-0.792968 V 8.7304688 C 32.808334,8.2953084 32.448572,7.9375 32.013412,7.9375 Z m 0,0.5292969 h 15.080078 c 0.151155,0 0.265625,0.112516 0.265625,0.2636719 V 28.840239 c 0,0.151157 -0.11447,0.263672 -0.265625,0.263672 H 1.8513021 c -0.1511559,0 -0.2636719,-0.112516 -0.2636719,-0.263672 V 10.847656 c 0,-0.151156 0.112516,-0.263672 0.2636719,-0.263672 H 15.284896 c 0.09592,-4.29e-4 0.184107,-0.05274 0.230469,-0.136718 l 0.587891,-1.0527347 0.002,-0.00586 C 16.25932,9.1234316 16.376037,8.8663775 16.49974,8.703125 16.62439,8.5386229 16.716468,8.4663501 16.933334,8.4667969 Z"
     id="path2958"
     sodipodi:nodetypes="cscccssssssssccssssssssccccsc" />
  <path
     style="color:#000000;fill:#a46be9;stroke:none;stroke-width:0.529167;stroke-linecap:round;stroke-linejoin:round;-inkscape-stroke:none"
     d="M 1.8520834,10.31875 H 15.284979 L 15.875,9.2604168 c 0.290751,-0.4987116 0.459341,-1.0595673 1.058333,-1.0583334 h 15.081251 c 0.293158,0 0.529166,0.2360083 0.529166,0.5291667 V 28.839583 c 0,0.293159 -0.236008,0.529167 -0.529166,0.529167 H 1.8520834 c -0.2931584,0 -0.5291667,-0.236008 -0.5291667,-0.529167 V 10.847917 c 0,-0.293159 0.2360083,-0.529167 0.5291667,-0.529167 z"
     id="path2956" />
  <path
     id="rect4759"
     style="opacity:0.3;stroke-width:0.529167;stroke-linecap:round;stroke-linejoin:round"
     d="M 8.2020836,5.5562501 H 13.49375 c 0.293158,0 0.529167,0.2360083 0.529167,0.5291667 0,0.2931583 -0.236009,0.5291667 -0.529167,0.5291667 H 8.2020836 c -0.2931584,0 -0.5291667,-0.2360084 -0.5291667,-0.5291667 0,-0.2931584 0.2360083,-0.5291667 0.5291667,-0.5291667 z" />
  <path
     id="rect3575"
     style="opacity:0.1;fill:url(#linearGradient3966);fill-opacity:1;stroke-width:1.04069;stroke-linejoin:round"
     d="m 32.543751,23.124687 -6.244064,6.244064 h 5.714897 c 0.293158,0 0.529167,-0.236009 0.529167,-0.529167 z" />
  <path
     d="m 16.933377,20.848155 c -0.748274,0 -1.488689,0.395132 -1.79365,0.734409 l 1.79365,1.965392 1.811059,-1.94785 C 18.439475,21.24326 17.68165,20.848128 16.933377,20.848128 Z m 0,-3.41262 c -1.564546,0 -2.966794,0.628336 -4.119063,1.587855 l 1.121444,1.206112 c 0.767403,-0.55383 1.961583,-1.087658 2.952242,-1.087658 1.014658,0 2.265723,0.545893 3.044053,1.124515 l 1.155391,-1.26067 c -1.152163,-0.959518 -2.589575,-1.570154 -4.154253,-1.570154 z m 0,-3.41262 c -2.415929,0 -4.629977,0.935361 -6.350045,2.493583 l 1.097208,1.245058 c 1.533933,-1.355206 3.14777,-2.032332 5.25281,-2.032332 2.105199,0 3.669797,0.637731 5.277153,2.05977 l 1.07284,-1.272496 C 21.563168,14.95825 19.349225,14.022915 16.933297,14.022915 Z"
     style="color:#000000;opacity:0.3;fill:#000000;fill-opacity:1;stroke-width:0.264583"
     id="path869" />
</svg>
