<?xml version="1.0" encoding="UTF-8" standalone="no"?>
<svg
   height="16"
   width="16"
   version="1.1"
   id="svg4"
   sodipodi:docname="discord-symbolic.svg"
   inkscape:version="1.1.2 (0a00cf5339, 2022-02-04)"
   xmlns:inkscape="http://www.inkscape.org/namespaces/inkscape"
   xmlns:sodipodi="http://sodipodi.sourceforge.net/DTD/sodipodi-0.dtd"
   xmlns="http://www.w3.org/2000/svg"
   xmlns:svg="http://www.w3.org/2000/svg">
  <defs
     id="defs8" />
  <sodipodi:namedview
     id="namedview6"
     pagecolor="#ffffff"
     bordercolor="#666666"
     borderopacity="1.0"
     inkscape:pageshadow="2"
     inkscape:pageopacity="0.0"
     inkscape:pagecheckerboard="0"
     showgrid="false"
     inkscape:zoom="47.5625"
     inkscape:cx="7.9894875"
     inkscape:cy="8"
     inkscape:window-width="1920"
     inkscape:window-height="1011"
     inkscape:window-x="0"
     inkscape:window-y="0"
     inkscape:window-maximized="1"
     inkscape:current-layer="svg4" />
  <path
     d="m 5.8124875,2.0001139 c 0,0 -1.8640824,-0.040876 -3.838328,1.4260977 0,0 -1.9741595,3.551585 -1.9741595,7.9250844 0,0 1.1516606,1.973003 4.1815789,2.068982 0,0 0.5065591,-0.601693 0.9178596,-1.122673 -1.7411733,-0.520979 -2.398954,-1.604362 -2.398954,-1.604362 0,0 0.1362898,0.09615 0.3830729,0.233258 0.013757,0 0.027553,0.0127 0.055,0.02653 0.041136,0.0274 0.082137,0.04085 0.123273,0.06826 0.3427503,0.191935 0.6859733,0.34312 1.0013035,0.466515 0.5621121,0.233068 1.2344096,0.438975 2.0158806,0.589783 1.028253,0.191913 2.233912,0.26005 3.550075,0.0133 0.6443715,-0.123379 1.3038305,-0.301871 1.9893315,-0.589783 0.47985,-0.178231 1.013803,-0.437699 1.575913,-0.807872 0,0 -0.686381,1.110364 -2.482399,1.617635 0.411303,0.507271 0.906486,1.096126 0.906486,1.096126 C 14.848338,13.311025 16,11.337582 16,11.351287 16,6.9777882 14.02584,3.4262028 14.02584,3.4262028 12.065293,1.9592421 10.185605,2.0001143 10.185605,2.0001143 L 9.9940685,2.2200979 C 12.324771,2.9193093 13.4076,3.9477252 13.4076,3.9477252 11.981755,3.1799629 10.583468,2.7957029 9.2810175,2.6448926 c -0.987123,-0.1096819 -1.932441,-0.083131 -2.768755,0.02657 -0.08226,0 -0.151,0.01474 -0.233257,0.028422 -0.479853,0.054842 -1.6450326,0.2184948 -3.1120052,0.8628642 -0.5072712,0.2193608 -0.8097664,0.3849717 -0.8097664,0.3849717 0,0 1.1239899,-1.0834121 3.5917946,-1.7826224 z m -0.3698,5.0596145 c 0.781471,0 1.411359,0.6713321 1.397652,1.5076437 0,0.8363129 -0.616181,1.5076439 -1.397652,1.5076439 -0.7677623,0 -1.3995478,-0.671331 -1.3995478,-1.5076439 0,-0.8363116 0.6180764,-1.5076437 1.3995478,-1.5076437 z m 5.0046195,0 c 0.767761,0 1.397652,0.6713321 1.397652,1.5076437 0,0.8363129 -0.616181,1.5076439 -1.397652,1.5076439 -0.7677615,0 -1.3995485,-0.671331 -1.3995485,-1.5076439 0,-0.8363116 0.618075,-1.5076437 1.3995485,-1.5076437 z"
     style="fill:#5d656b;fill-opacity:1;stroke-width:0.236246"
     id="path853" />
</svg>
