<?xml version="1.0" encoding="UTF-8" standalone="no"?>
<svg
   width="16"
   height="16"
   version="1.1"
   id="svg6"
   sodipodi:docname="org.gnome.Music-symbolic.svg"
   inkscape:version="1.1.2 (0a00cf5339, 2022-02-04, custom)"
   xmlns:inkscape="http://www.inkscape.org/namespaces/inkscape"
   xmlns:sodipodi="http://sodipodi.sourceforge.net/DTD/sodipodi-0.dtd"
   xmlns="http://www.w3.org/2000/svg"
   xmlns:svg="http://www.w3.org/2000/svg"
   xmlns:rdf="http://www.w3.org/1999/02/22-rdf-syntax-ns#"
   xmlns:cc="http://creativecommons.org/ns#"
   xmlns:dc="http://purl.org/dc/elements/1.1/">
  <defs
     id="defs10" />
  <sodipodi:namedview
     id="namedview8"
     pagecolor="#ffffff"
     bordercolor="#666666"
     borderopacity="1.0"
     inkscape:pageshadow="2"
     inkscape:pageopacity="0.0"
     inkscape:pagecheckerboard="0"
     showgrid="false"
     inkscape:zoom="1"
     inkscape:cx="7.5"
     inkscape:cy="9.5"
     inkscape:window-width="1920"
     inkscape:window-height="1019"
     inkscape:window-x="0"
     inkscape:window-y="31"
     inkscape:window-maximized="1"
     inkscape:current-layer="svg6" />
  <metadata
     id="metadata2">
    <rdf:RDF>
      <cc:Work
         rdf:about="">
        <dc:format>image/svg+xml</dc:format>
        <dc:type
           rdf:resource="http://purl.org/dc/dcmitype/StillImage" />
      </cc:Work>
    </rdf:RDF>
  </metadata>
  <path
     id="path1132"
     style="color:#000000;fill:#5d656b;stroke-width:0.51852"
     d="M 2.1191406,1 C 1.4986606,1 1,1.4987006 1,2.1191406 V 13.880859 C 1,14.501339 1.4987006,15 2.1191406,15 H 13.880859 C 14.501339,15 15,14.501299 15,13.880859 V 2.1191406 C 15,1.4986606 14.501299,1 13.880859,1 Z M 2,2 H 14 V 14 H 2 Z m 6.0703125,1.0722656 c -0.2257128,-0.00385 -0.1855313,0.2336719 -0.1816406,0.4042969 -0.00312,2.1617 0.00502,3.8255498 -0.00586,5.9867498 -0.075179,0.1685194 -0.2854719,0.00497 -0.4140619,0.037109 -0.8996,-0.028 -1.8685338,0.6207863 -1.9960938,1.5722663 -0.095185,0.805669 0.095201,1.816915 1.2050782,1.855046 0.9945,0.0275 2.3552151,-0.974615 2.2286951,-1.978515 0.00363,-1.7256002 -0.00607,-2.9531034 0.00586,-4.6777033 0.06793,-0.1638521 0.2503815,-0.010281 0.3359375,0.048828 0.78862,0.4770001 1.249384,1.229228 1.527345,2.2441407 C 10.899451,9.0369812 10.950474,9.2747826 11,9.7285156 11.72487,8.5353156 11.222352,6.3749001 10.326351,5.285 9.6366714,4.5653001 8.4886119,4.2050813 8.3574219,3.1757812 8.3315019,3.0788222 8.1984736,3.0798019 8.1191406,3.0761719 c -0.0175,-0.0025 -0.033781,-0.00365 -0.048828,-0.00391 z"
     sodipodi:nodetypes="ssssssssscccccscccccccccccccss" />
</svg>
