<?xml version="1.0" encoding="UTF-8" standalone="no"?>
<svg
   height="16"
   width="16"
   version="1.1"
   id="svg4"
   sodipodi:docname="org.gnome.TextEditor-symbolic.svg"
   inkscape:version="1.1.2 (0a00cf5339, 2022-02-04)"
   xmlns:inkscape="http://www.inkscape.org/namespaces/inkscape"
   xmlns:sodipodi="http://sodipodi.sourceforge.net/DTD/sodipodi-0.dtd"
   xmlns="http://www.w3.org/2000/svg"
   xmlns:svg="http://www.w3.org/2000/svg">
  <defs
     id="defs8" />
  <sodipodi:namedview
     id="namedview6"
     pagecolor="#ffffff"
     bordercolor="#666666"
     borderopacity="1.0"
     inkscape:pageshadow="2"
     inkscape:pageopacity="0.0"
     inkscape:pagecheckerboard="0"
     showgrid="false"
     inkscape:zoom="64"
     inkscape:cx="8.15625"
     inkscape:cy="3.3828125"
     inkscape:window-width="1920"
     inkscape:window-height="1011"
     inkscape:window-x="0"
     inkscape:window-y="0"
     inkscape:window-maximized="1"
     inkscape:current-layer="svg4" />
  <path
     id="path2"
     style="fill:#5d656b;fill-opacity:1;marker:none"
     d="M 3.5,1 C 2.669,1 2,1.669 2,2.5 v 11 C 2,14.331 2.669,15 3.5,15 h 9 C 13.331,15 14,14.331 14,13.5 V 7.5332031 l -1,1 V 13.5 c 0,0.302 -0.198,0.5 -0.5,0.5 h -9 C 3.198,14 3,13.802 3,13.5 V 4 H 8.4628906 L 11.457031,1 Z m 9.710938,0 c -0.221582,8.5e-6 -0.433961,0.088617 -0.589844,0.2460938 l -0.90625,0.9121093 3.125,3.125 0.910156,-0.90625 c 0.33,-0.33 0.33,-0.8496875 0,-1.1796875 L 13.800781,1.2460938 C 13.644898,1.0886173 13.432519,1.0000088 13.210938,1 Z M 10.65625,3.2207031 3.9902344,9.8867188 V 13.005859 H 7.1113281 L 13.775391,6.3417969 Z M 4.9980469,10 h 1 v 1 h 1 v 1 h -2 z"
     sodipodi:nodetypes="ssssssccsssscccsccccccccccccccccccccc" />
</svg>
