<?xml version="1.0" encoding="UTF-8" standalone="no"?>
<svg
   width="16"
   height="16"
   version="1.1"
   id="svg6"
   sodipodi:docname="org.gnome.Totem-symbolic.svg"
   inkscape:version="1.1.2 (0a00cf5339, 2022-02-04, custom)"
   xmlns:inkscape="http://www.inkscape.org/namespaces/inkscape"
   xmlns:sodipodi="http://sodipodi.sourceforge.net/DTD/sodipodi-0.dtd"
   xmlns="http://www.w3.org/2000/svg"
   xmlns:svg="http://www.w3.org/2000/svg"
   xmlns:rdf="http://www.w3.org/1999/02/22-rdf-syntax-ns#"
   xmlns:cc="http://creativecommons.org/ns#"
   xmlns:dc="http://purl.org/dc/elements/1.1/">
  <defs
     id="defs10" />
  <sodipodi:namedview
     id="namedview8"
     pagecolor="#ffffff"
     bordercolor="#666666"
     borderopacity="1.0"
     inkscape:pageshadow="2"
     inkscape:pageopacity="0.0"
     inkscape:pagecheckerboard="0"
     showgrid="false"
     inkscape:zoom="58.785714"
     inkscape:cx="8.0036452"
     inkscape:cy="8.0036452"
     inkscape:window-width="1920"
     inkscape:window-height="1019"
     inkscape:window-x="0"
     inkscape:window-y="31"
     inkscape:window-maximized="1"
     inkscape:current-layer="svg6" />
  <metadata
     id="metadata2">
    <rdf:RDF>
      <cc:Work
         rdf:about="">
        <dc:format>image/svg+xml</dc:format>
        <dc:type
           rdf:resource="http://purl.org/dc/dcmitype/StillImage" />
      </cc:Work>
    </rdf:RDF>
  </metadata>
  <path
     id="rect1326"
     style="opacity:0.2;fill:#5d656b;stroke-linecap:round;stroke-linejoin:round"
     d="M 2,2 H 14 V 5 H 2 Z"
     sodipodi:nodetypes="ccccc" />
  <path
     id="path1132"
     style="color:#000000;fill:#5d656b;stroke-width:0.51852"
     d="M 2.1191406 1 C 1.4986606 1 1 1.4987006 1 2.1191406 L 1 13.880859 C 1 14.501339 1.4987006 15 2.1191406 15 L 13.880859 15 C 14.501339 15 15 14.501299 15 13.880859 L 15 2.1191406 C 15 1.4986606 14.501299 1 13.880859 1 L 2.1191406 1 z M 2 2 L 4 2 L 5.5 3.5 L 4 5 L 2 5 L 2 2 z M 5.5 2 L 8 2 L 9.5 3.5 L 8 5 L 5.5 5 L 7 3.5 L 5.5 2 z M 9.5 2 L 14 2 L 14 5 L 9.5 5 L 11 3.5 L 9.5 2 z M 2 6 L 14 6 L 14 14 L 2 14 L 2 6 z " />
</svg>
