<?xml version="1.0" encoding="UTF-8" standalone="no"?>
<svg
   width="16"
   height="16"
   version="1.1"
   id="svg16"
   sodipodi:docname="org.gnome.Software-symbolic.svg"
   inkscape:version="1.1.2 (0a00cf5339, 2022-02-04, custom)"
   xmlns:inkscape="http://www.inkscape.org/namespaces/inkscape"
   xmlns:sodipodi="http://sodipodi.sourceforge.net/DTD/sodipodi-0.dtd"
   xmlns="http://www.w3.org/2000/svg"
   xmlns:svg="http://www.w3.org/2000/svg"
   xmlns:rdf="http://www.w3.org/1999/02/22-rdf-syntax-ns#"
   xmlns:cc="http://creativecommons.org/ns#"
   xmlns:dc="http://purl.org/dc/elements/1.1/">
  <defs
     id="defs20" />
  <sodipodi:namedview
     id="namedview18"
     pagecolor="#ffffff"
     bordercolor="#666666"
     borderopacity="1.0"
     inkscape:pageshadow="2"
     inkscape:pageopacity="0.0"
     inkscape:pagecheckerboard="0"
     showgrid="false"
     inkscape:zoom="25.71875"
     inkscape:cx="1.7691373"
     inkscape:cy="9.1567436"
     inkscape:window-width="1920"
     inkscape:window-height="1019"
     inkscape:window-x="0"
     inkscape:window-y="31"
     inkscape:window-maximized="1"
     inkscape:current-layer="svg16" />
  <metadata
     id="metadata2">
    <rdf:RDF>
      <cc:Work
         rdf:about="">
        <dc:format>image/svg+xml</dc:format>
        <dc:type
           rdf:resource="http://purl.org/dc/dcmitype/StillImage" />
      </cc:Work>
    </rdf:RDF>
  </metadata>
  <path
     id="rect1604"
     style="fill:#5d656b;fill-opacity:1;stroke-linecap:round;stroke-linejoin:round;opacity:0.3"
     d="m 3,1 h 10 c 0.554,0 1,0.446 1,1 V 9.9998055 H 2 V 2 C 2,1.446 2.446,1 3,1 Z"
     sodipodi:nodetypes="sssccss" />
  <path
     id="path4"
     style="fill:#5d656b;stroke-width:1.1096;paint-order:stroke markers fill"
     d="M 3 0.021484375 C 1.8923 0.021484375 1 0.90362 1 2 L 1 14.041016 C 1 15.137416 1.89231 16.019531 3 16.019531 L 13 16.019531 C 14.1077 16.019531 15 15.137396 15 14.041016 L 15 2 C 15 0.9036 14.10769 0.021484375 13 0.021484375 L 3 0.021484375 z M 3 1 L 13 1 C 13.554 1 14 1.446 14 2 L 14 14.041016 C 14 14.595016 13.554 15.041016 13 15.041016 L 3 15.041016 C 2.446 15.041016 2 14.595016 2 14.041016 L 2 2 C 2 1.446 2.446 1 3 1 z M 3.125 2 A 4.9791 4.9791 0 0 0 8 5.9785156 A 4.9791 4.9791 0 0 0 12.871094 2 L 11.867188 2 A 4 4 0 0 1 8 5 A 4 4 0 0 1 4.1308594 2 L 3.125 2 z M 9.5 7 A 1.5 1.5 0 0 0 8 8.5 A 1.5 1.5 0 0 0 9.5 10 A 1.5 1.5 0 0 0 11 8.5 A 1.5 1.5 0 0 0 9.5 7 z M 5.5 8.5 A 1.5 1.5 0 0 0 4 10 A 1.5 1.5 0 0 0 5.5 11.5 A 1.5 1.5 0 0 0 7 10 A 1.5 1.5 0 0 0 5.5 8.5 z M 9.5 11 A 1.5 1.5 0 0 0 8 12.5 A 1.5 1.5 0 0 0 9.5 14 A 1.5 1.5 0 0 0 11 12.5 A 1.5 1.5 0 0 0 9.5 11 z " />
</svg>
