<?xml version="1.0" encoding="UTF-8" standalone="no"?>
<!-- Created with Inkscape (http://www.inkscape.org/) -->

<svg
   width="64"
   height="64"
   viewBox="0 0 16.933333 16.933334"
   version="1.1"
   id="svg5"
   inkscape:version="1.1.2 (0a00cf5339, 2022-02-04, custom)"
   sodipodi:docname="dialog-error.svg"
   xmlns:inkscape="http://www.inkscape.org/namespaces/inkscape"
   xmlns:sodipodi="http://sodipodi.sourceforge.net/DTD/sodipodi-0.dtd"
   xmlns="http://www.w3.org/2000/svg"
   xmlns:svg="http://www.w3.org/2000/svg">
  <sodipodi:namedview
     id="namedview7"
     pagecolor="#ffffff"
     bordercolor="#666666"
     borderopacity="1.0"
     inkscape:pageshadow="2"
     inkscape:pageopacity="0.0"
     inkscape:pagecheckerboard="0"
     inkscape:document-units="px"
     showgrid="false"
     units="px"
     height="64px"
     inkscape:zoom="6.4140625"
     inkscape:cx="19.878197"
     inkscape:cy="29.076736"
     inkscape:window-width="1920"
     inkscape:window-height="1011"
     inkscape:window-x="0"
     inkscape:window-y="32"
     inkscape:window-maximized="1"
     inkscape:current-layer="svg5" />
  <defs
     id="defs2" />
  <circle
     style="opacity:1;fill:#e85f5f;fill-opacity:1;stroke-width:0.511861;stroke-linejoin:round"
     id="path24384"
     cx="8.4666672"
     cy="8.4666672"
     r="7.2760415" />
  <path
     id="path7088"
     style="opacity:0.2;fill:#000000;fill-opacity:1;stroke-width:2;stroke-linejoin:round"
     d="M 32 4 A 28 28 0 0 0 4 32 A 28 28 0 0 0 32 60 A 28 28 0 0 0 60 32 A 28 28 0 0 0 32 4 z M 32 5 A 27 27 0 0 1 59 32 A 27 27 0 0 1 32 59 A 27 27 0 0 1 5 32 A 27 27 0 0 1 32 5 z "
     transform="scale(0.26458334)" />
  <path
     d="M 9.0868232,10.601548 H 7.9422795 L 7.8531835,3.4395834 H 9.182773 Z m -1.2816148,2.179431 c 0,-0.205607 0.061682,-0.376945 0.1850459,-0.514016 0.1279332,-0.14164 0.3152638,-0.212461 0.5619916,-0.212461 0.2467281,0 0.4340587,0.07082 0.5619915,0.212461 0.1279329,0.137071 0.1918997,0.308409 0.1918997,0.514016 0,0.205607 -0.063966,0.376945 -0.1918997,0.514017 -0.1279328,0.132503 -0.3152634,0.198754 -0.5619915,0.198754 -0.2467278,0 -0.4340584,-0.06625 -0.5619916,-0.198754 -0.1233637,-0.137072 -0.1850459,-0.30841 -0.1850459,-0.514017 z"
     style="font-size:14.7748px;line-height:1.25;font-family:Roboto;-inkscape-font-specification:Roboto;fill:#f2f2f2;fill-opacity:1;stroke-width:0.0928431"
     id="path31783" />
</svg>
