<?xml version="1.0" encoding="UTF-8" standalone="no"?>
<!-- Created with Inkscape (http://www.inkscape.org/) -->

<svg
   width="22"
   height="22"
   viewBox="0 0 5.8208331 5.8208336"
   version="1.1"
   id="svg2469"
   inkscape:version="1.1.2 (0a00cf5339, 2022-02-04, custom)"
   sodipodi:docname="printer.svg"
   xmlns:inkscape="http://www.inkscape.org/namespaces/inkscape"
   xmlns:sodipodi="http://sodipodi.sourceforge.net/DTD/sodipodi-0.dtd"
   xmlns="http://www.w3.org/2000/svg"
   xmlns:svg="http://www.w3.org/2000/svg">
  <sodipodi:namedview
     id="namedview2471"
     pagecolor="#ffffff"
     bordercolor="#666666"
     borderopacity="1.0"
     inkscape:pageshadow="2"
     inkscape:pageopacity="0.0"
     inkscape:pagecheckerboard="0"
     inkscape:document-units="px"
     showgrid="false"
     units="px"
     inkscape:zoom="36.636364"
     inkscape:cx="14.316377"
     inkscape:cy="10.153846"
     inkscape:window-width="1851"
     inkscape:window-height="1009"
     inkscape:window-x="69"
     inkscape:window-y="31"
     inkscape:window-maximized="1"
     inkscape:current-layer="svg2469" />
  <defs
     id="defs2466" />
  <path
     id="rect1340"
     style="opacity:0.25;fill:#4f6698;stroke-width:0.529167;stroke-linecap:round;stroke-linejoin:round"
     d="m 1.3229166,0.26458332 h 3.175 c 0.1465792,0 0.2645833,0.11800416 0.2645833,0.26458332 V 2.1166666 c 0,0.1465791 -0.1180041,0.2645833 -0.2645833,0.2645833 h -3.175 c -0.1465792,0 -0.2645833,-0.1180042 -0.2645833,-0.2645833 V 0.52916664 c 0,-0.14657916 0.1180041,-0.26458332 0.2645833,-0.26458332 z"
     sodipodi:nodetypes="sssssssss" />
  <path
     id="rect1996"
     style="opacity:1;fill:#fafafa;stroke-width:0.529167;stroke-linecap:round;stroke-linejoin:round"
     d="m 1.3229165,0.52916664 h 3.175 V 2.1166666 h -3.175 z"
     sodipodi:nodetypes="ccccc" />
  <path
     id="rect1358"
     style="opacity:1;fill:#4c5263;fill-opacity:1;stroke-width:0.529167;stroke-linecap:round;stroke-linejoin:round"
     d="M 0.52916666,1.7197917 H 5.2916668 c 0.2198687,0 0.396875,0.1770062 0.396875,0.396875 v 2.1166667 c 0,0.2198687 -0.1770063,0.396875 -0.396875,0.396875 H 0.52916666 c -0.21986875,0 -0.396875,-0.1770063 -0.396875,-0.396875 V 2.1166667 c 0,-0.2198688 0.17700625,-0.396875 0.396875,-0.396875 z"
     sodipodi:nodetypes="sssssssss" />
  <rect
     style="opacity:0.15;fill:#000000;fill-opacity:1;stroke-width:0.529167;stroke-linecap:round;stroke-linejoin:round"
     id="rect2416"
     width="3.7041667"
     height="0.52916664"
     x="1.0583333"
     y="3.7041667" />
  <path
     id="rect2552"
     style="opacity:0.8;fill:#252831;fill-opacity:1;stroke-width:0.32208;stroke-linejoin:round"
     d="M 0.52916666,1.5875 C 0.2360083,1.5875 0,1.8235083 0,2.1166666 V 4.2333333 C 0,4.5264916 0.2360083,4.7624999 0.52916666,4.7624999 H 5.2916666 c 0.2931583,0 0.5291667,-0.2360083 0.5291667,-0.5291666 V 2.1166666 C 5.8208333,1.8235083 5.5848249,1.5875 5.2916666,1.5875 Z m 0,0.2645833 H 5.2916666 c 0.1465792,0 0.2645833,0.1180042 0.2645833,0.2645833 v 2.1166667 c 0,0.1465791 -0.1180041,0.2645833 -0.2645833,0.2645833 H 0.52916666 c -0.14657919,0 -0.26458333,-0.1180042 -0.26458333,-0.2645833 V 2.1166666 c 0,-0.1465791 0.11800414,-0.2645833 0.26458333,-0.2645833 z"
     sodipodi:nodetypes="ssssssssssssssssss" />
  <path
     d="m 1.3229166,3.7041667 h 3.175 C 4.6444958,3.7041667 4.7625,3.8221708 4.7625,3.96875 V 5.2916667 C 4.7625,5.4382459 4.6444958,5.55625 4.4979166,5.55625 h -3.175 c -0.1465792,0 -0.2645833,-0.1180041 -0.2645833,-0.2645833 V 3.96875 c 0,-0.1465792 0.1180041,-0.2645833 0.2645833,-0.2645833 z"
     style="opacity:0.25;fill:#4f6698;stroke-width:0.140009;stroke-linecap:round;stroke-linejoin:round"
     id="path1723"
     sodipodi:nodetypes="sssssssss" />
  <path
     d="m 1.3229165,3.96875 h 3.175 v 1.3229167 h -3.175 z"
     style="opacity:1;fill:#fafafa;stroke-width:0.140009;stroke-linecap:round;stroke-linejoin:round"
     id="path2299"
     sodipodi:nodetypes="ccccc" />
  <path
     id="rect2663"
     style="opacity:0.65;fill:#b4bfd8;fill-opacity:1;stroke-width:2;stroke-linecap:round;stroke-linejoin:round"
     d="M 8 16 L 8 17 L 16 17 L 16 16 L 8 16 z M 12 18 L 12 19 L 16 19 L 16 18 L 12 18 z "
     transform="scale(0.26458333)" />
  <circle
     style="opacity:1;fill:#82b2ea;fill-opacity:1;stroke-width:0.529167;stroke-linecap:round;stroke-linejoin:round"
     id="path2954"
     cx="4.7624998"
     cy="2.6458333"
     r="0.26458332" />
</svg>
