<?xml version="1.0" encoding="UTF-8" standalone="no"?>
<!-- Created with Inkscape (http://www.inkscape.org/) -->

<svg
   width="22"
   height="22"
   viewBox="0 0 5.8208331 5.8208336"
   version="1.1"
   id="svg2469"
   inkscape:version="1.1.2 (0a00cf5339, 2022-02-04, custom)"
   sodipodi:docname="folder-favorites.svg"
   xmlns:inkscape="http://www.inkscape.org/namespaces/inkscape"
   xmlns:sodipodi="http://sodipodi.sourceforge.net/DTD/sodipodi-0.dtd"
   xmlns="http://www.w3.org/2000/svg"
   xmlns:svg="http://www.w3.org/2000/svg">
  <sodipodi:namedview
     id="namedview2471"
     pagecolor="#ffffff"
     bordercolor="#666666"
     borderopacity="1.0"
     inkscape:pageshadow="2"
     inkscape:pageopacity="0.0"
     inkscape:pagecheckerboard="0"
     inkscape:document-units="px"
     showgrid="false"
     units="px"
     inkscape:zoom="37.318182"
     inkscape:cx="11"
     inkscape:cy="11"
     inkscape:window-width="1920"
     inkscape:window-height="1011"
     inkscape:window-x="0"
     inkscape:window-y="32"
     inkscape:window-maximized="1"
     inkscape:current-layer="svg2469"
     showguides="true" />
  <defs
     id="defs2466" />
  <path
     id="rect3166"
     style="opacity:0.45;fill:#4f6698;fill-opacity:1;stroke-width:0.264583;stroke-linejoin:round"
     d="M 1.308964,0.52921758 C 1.0221873,0.53643458 0.79374997,0.7698065 0.79374997,1.0583842 c -0.14657914,0 -0.2645833,0.1609435 -0.2645833,0.5291666 v 1.5875 c 0,0.1465792 0.11800416,0.2645833 0.2645833,0.2645833 H 5.0270833 c 0.1465792,0 0.2645833,-0.1180041 0.2645833,-0.2645833 v -1.5875 C 5.2916666,1.2953002 5.0547505,1.0583843 4.7625,1.0583842 H 2.6458333 c 0,-0.2931583 -0.2360083,-0.52916662 -0.5291666,-0.52916662 h -0.79375 c -0.00458,0 -0.0094,-1.1456e-4 -0.013953,0 z"
     sodipodi:nodetypes="scssssssscsss" />
  <path
     id="rect3604"
     style="fill:#ffffff;fill-opacity:1;stroke-width:0.264583;stroke-linejoin:round"
     d="m 1.3229167,0.79380091 c -0.1465792,0 -0.2645833,0.11800417 -0.2645833,0.26458329 v 0.2645833 c -0.14612533,0 -0.26458343,0.118458 -0.26458343,0.2645833 V 2.9104675 H 5.0270833 V 1.5875508 C 5.0270833,1.4414255 4.9086251,1.3229675 4.7625,1.3229675 H 2.38125 V 1.0583842 c 0,-0.14657912 -0.1180042,-0.26458329 -0.2645833,-0.26458329 z" />
  <path
     id="rect2552"
     style="opacity:0.6;fill:#062192;stroke-width:0.32208;stroke-linejoin:round"
     d="m 0.5291667,1.5875 h 4.7625002 c 0.2931583,0 0.5291667,0.2360083 0.5291667,0.5291666 v 2.9104167 c 0,0.2931584 -0.2360084,0.5291667 -0.5291667,0.5291667 H 0.5291667 C 0.23600835,5.55625 0,5.3202417 0,5.0270833 V 2.1166666 C 0,1.8235083 0.23600835,1.5875 0.5291667,1.5875 Z"
     sodipodi:nodetypes="sssssssss" />
  <path
     id="rect2686"
     style="fill:#4b88e6;stroke-width:0.229136;stroke-linejoin:round"
     d="m 0.5291667,1.8520833 h 4.7625 c 0.1465791,0 0.2645833,0.1180041 0.2645833,0.2645833 v 2.9104167 c 0,0.1465792 -0.1180042,0.2645834 -0.2645833,0.2645834 h -4.7625 c -0.14657918,0 -0.26458335,-0.1180042 -0.26458335,-0.2645834 V 2.1166666 c 0,-0.1465792 0.11800417,-0.2645833 0.26458335,-0.2645833 z"
     sodipodi:nodetypes="sssssssss" />
  <path
     id="path15079"
     style="color:#000000;opacity:0.2;fill:#000000;stroke-width:0.264517;stroke-linejoin:round;-inkscape-stroke:none"
     d="M 2.9094914,2.38125 C 2.85582,2.3820912 2.8081562,2.4150285 2.7885585,2.4649601 L 2.5420419,3.0762509 H 1.7198025 C 1.5958003,3.0764346 1.540415,3.2314964 1.6360798,3.3103294 l 0.6129327,0.5260304 -0.2950966,0.744607 c -0.045542,0.1155219 0.079053,0.224757 0.1876008,0.16432 L 2.9094914,4.3117509 3.6795333,4.7452868 C 3.7880809,4.8057241 3.9126762,4.696489 3.867134,4.5809668 L 3.5642854,3.8363598 4.1849701,3.3103294 C 4.2806351,3.2314966 4.2252496,3.076434 4.1012475,3.0762509 H 3.276941 L 3.0324915,2.4649601 C 3.0126286,2.4143722 2.9638768,2.3812988 2.9094914,2.38125 Z" />
</svg>
