<?xml version="1.0" encoding="UTF-8" standalone="no"?>
<!-- Created with Inkscape (http://www.inkscape.org/) -->

<svg
   width="22"
   height="22"
   viewBox="0 0 5.8208331 5.8208336"
   version="1.1"
   id="svg2469"
   inkscape:version="1.1.2 (0a00cf5339, 2022-02-04, custom)"
   sodipodi:docname="user-trash-full.svg"
   xmlns:inkscape="http://www.inkscape.org/namespaces/inkscape"
   xmlns:sodipodi="http://sodipodi.sourceforge.net/DTD/sodipodi-0.dtd"
   xmlns="http://www.w3.org/2000/svg"
   xmlns:svg="http://www.w3.org/2000/svg">
  <sodipodi:namedview
     id="namedview2471"
     pagecolor="#ffffff"
     bordercolor="#666666"
     borderopacity="1.0"
     inkscape:pageshadow="2"
     inkscape:pageopacity="0.0"
     inkscape:pagecheckerboard="0"
     inkscape:document-units="px"
     showgrid="false"
     units="px"
     inkscape:zoom="38.090909"
     inkscape:cx="11"
     inkscape:cy="11"
     inkscape:window-width="1920"
     inkscape:window-height="1019"
     inkscape:window-x="0"
     inkscape:window-y="31"
     inkscape:window-maximized="1"
     inkscape:current-layer="svg2469"
     showguides="false" />
  <defs
     id="defs2466" />
  <path
     style="color:#000000;fill:#b3b3b3;stroke:none;stroke-width:0.264583;stroke-linecap:round;stroke-linejoin:round;-inkscape-stroke:none"
     d="M 4.8947916,1.0583332 A 1.984375,0.66145831 0 0 1 2.9104166,1.7197915 1.984375,0.66145831 0 0 1 0.9260416,1.0583332 1.984375,0.66145831 0 0 1 2.9104166,0.39687485 1.984375,0.66145831 0 0 1 4.8947916,1.0583332 Z"
     id="path3355" />
  <path
     style="color:#000000;opacity:0.2;fill:#000000;stroke:none;stroke-linecap:round;stroke-linejoin:round;-inkscape-stroke:none"
     d="m 2.9101563,0.26367188 c -0.5598855,0 -1.0670606,0.0750879 -1.4453126,0.20117187 C 1.2757178,0.52788574 1.1188169,0.60362736 1,0.69726562 0.88118305,0.79090389 0.79296875,0.91364384 0.79296875,1.0585937 c 0,0.14495 0.0882143,0.2676899 0.20703125,0.3613282 0.1188169,0.093638 0.2757178,0.1693799 0.4648437,0.2324218 0.378252,0.126084 0.8854271,0.1992188 1.4453126,0.1992188 0.5598854,0 1.0670605,-0.073135 1.4453124,-0.1992188 C 4.5445947,1.5893018 4.7014956,1.5135601 4.8203125,1.4199219 4.9391294,1.3262836 5.0273437,1.2035437 5.0273437,1.0585937 5.0273438,0.91364384 4.9391294,0.79090389 4.8203125,0.69726562 4.7014956,0.60362736 4.5445947,0.52788574 4.3554687,0.46484375 3.9772168,0.33875977 3.4700417,0.26367187 2.9101563,0.26367188 Z m 0,0.26562499 c 0.5360535,0 1.0213782,0.0741834 1.3613281,0.1875 0.1699749,0.0566583 0.3027531,0.12286687 0.3847656,0.18750001 0.082013,0.0646331 0.1054687,0.11659032 0.1054687,0.15429682 0,0.037707 -0.023456,0.087711 -0.1054687,0.1523438 -0.082013,0.064633 -0.2147907,0.1327948 -0.3847656,0.1894531 -0.3399499,0.1133166 -0.8252746,0.1875 -1.3613281,0.1875 -0.5360536,0 -1.0213783,-0.074183 -1.3613282,-0.1875 C 1.3788532,1.3437323 1.246075,1.2755706 1.1640625,1.2109375 1.08205,1.1463044 1.0585937,1.0963003 1.0585937,1.0585937 c 0,-0.037707 0.023456,-0.0896637 0.1054688,-0.15429682 0.082013,-0.0646331 0.2147907,-0.1308417 0.3847656,-0.18750001 0.3399499,-0.1133166 0.8252746,-0.18749999 1.3613282,-0.1875 z"
     id="path3357" />
  <g
     id="g4944"
     transform="rotate(5.5,14.805831,-23.19894)">
    <path
       id="rect4059"
       style="opacity:1;fill:#fafafa;stroke-width:0.264583;stroke-linecap:round;stroke-linejoin:bevel"
       d="M 4.6302085,1.984375 H 7.0114584 V 4.8947916 H 4.6302085 Z"
       sodipodi:nodetypes="ccccc" />
    <path
       id="rect4207"
       style="opacity:0.2;fill:#4f6698;fill-opacity:1;stroke:none;stroke-width:1.10782;stroke-linecap:round;stroke-linejoin:bevel;stroke-miterlimit:4;stroke-dasharray:none;stroke-opacity:1"
       d="M 17.5,7 C 17.223,7 17,7.223 17,7.5 v 11 c 0,0.277 0.223,0.5 0.5,0.5 h 9 C 26.777,19 27,18.777 27,18.5 V 7.5 C 27,7.223 26.777,7 26.5,7 Z M 18,8 h 8 v 10 h -8 z"
       transform="scale(0.26458333)"
       sodipodi:nodetypes="sssssssssccccc" />
  </g>
  <g
     id="g5153"
     transform="rotate(30,3.0933835,0.1604832)">
    <path
       id="rect4059-3-2"
       style="fill:#fafafa;stroke-width:0.264583;stroke-linecap:round;stroke-linejoin:bevel"
       d="M 2.2753762,0.75304082 4.575487,0.13672801 5.3287582,2.9479745 3.0286474,3.5642874 Z"
       sodipodi:nodetypes="ccccc" />
    <path
       id="rect4207-5-9"
       style="opacity:0.2;fill:#4f6698;fill-opacity:1;stroke:none;stroke-width:0.293111;stroke-linecap:round;stroke-linejoin:bevel;stroke-miterlimit:4;stroke-dasharray:none;stroke-opacity:1"
       d="m 2.2411364,0.62525688 c -0.070791,0.0189729 -0.112513,0.0912314 -0.093544,0.16202351 L 2.9008633,3.598527 c 0.018973,0.070791 0.091231,0.112513 0.1620235,0.093544 L 5.3629976,3.0757585 C 5.4337896,3.0567894 5.4755107,2.9845272 5.456542,2.913735 L 4.7032708,0.10248836 C 4.6843021,0.03169612 4.6120395,-0.01002468 4.5412472,0.00894406 Z m 0.1962631,0.22132825 2.044543,-0.54783354 0.684792,2.55567871 -2.044543,0.5478336 z"
       sodipodi:nodetypes="sssssssssccccc" />
  </g>
  <g
     id="g4989"
     transform="rotate(-20.5,11.571717,5.5705692)">
    <path
       id="rect4059-3"
       style="fill:#fafafa;stroke-width:0.264583;stroke-linecap:round;stroke-linejoin:bevel"
       d="M 3.3025919,-2.2711275 5.672879,-2.0428948 5.3939279,0.85412277 3.0236408,0.62589009 Z"
       sodipodi:nodetypes="ccccc" />
    <path
       id="rect4207-5"
       style="opacity:0.2;fill:#4f6698;fill-opacity:1;stroke:none;stroke-width:0.293111;stroke-linecap:round;stroke-linejoin:bevel;stroke-miterlimit:4;stroke-dasharray:none;stroke-opacity:1"
       d="m 3.3152713,-2.4028102 c -0.072952,-0.00702 -0.1373377,0.046051 -0.1443622,0.119003 L 2.891958,0.61321047 c -0.00702,0.0729522 0.046051,0.13733772 0.119003,0.14436222 L 5.3812481,0.9858054 C 5.4542001,0.9928294 5.5185859,0.9397545 5.5256104,0.86680237 L 5.8045615,-2.0302153 C 5.811586,-2.1031674 5.7585106,-2.167553 5.6855584,-2.1745775 Z M 3.4215947,-2.1267654 5.5285166,-1.9238918 5.2749247,0.70976056 3.1680028,0.50688704 Z"
       sodipodi:nodetypes="sssssssssccccc" />
  </g>
  <path
     style="color:#000000;fill:#d8d8d8;stroke:none;stroke-width:0.264583;stroke-linecap:round;stroke-linejoin:bevel;-inkscape-stroke:none"
     d="M 0.92604165,1.190625 1.4552083,4.8947916 A 1.4552083,0.52916663 0 0 0 2.9104166,5.4239583 1.4552083,0.52916663 0 0 0 4.3656249,4.8947916 L 4.8947916,1.190625 H 4.8534505 C 4.6649526,1.498441 3.8529066,1.7195939 2.9104166,1.7197916 1.9679268,1.7195939 1.1558806,1.498441 0.9673828,1.190625 Z"
     id="path3361" />
  <path
     style="color:#000000;opacity:0.2;fill:#000000;stroke:none;stroke-width:0.264583;stroke-linecap:round;stroke-linejoin:bevel;-inkscape-stroke:none"
     d="M 0.92604165,1.0583333 H 0.79375 L 1.3244669,4.913395 1.3229169,4.894792 c 0,0.1222158 0.068493,0.2276007 0.160197,0.3064412 0.091704,0.078841 0.2111246,0.1406634 0.35295,0.1922365 0.2836509,0.1031457 0.6595095,0.1627806 1.074353,0.1627806 0.4148434,0 0.7907023,-0.059635 1.0743531,-0.1627806 0.1418254,-0.051573 0.2612464,-0.1133959 0.3529499,-0.1922365 0.091704,-0.078841 0.160197,-0.1842254 0.160197,-0.3064412 l -0.00156,0.018603 0.5307277,-3.8550612 -0.1322917,0 H 4.8534505 L 4.7407959,1.1213786 C 4.683362,1.2151678 4.4596155,1.353033 4.1299804,1.442806 3.8003453,1.5325789 3.3713218,1.5874033 2.9104166,1.5875 2.4495115,1.5874033 2.0204879,1.5325789 1.6908528,1.442806 1.3612178,1.353033 1.1374713,1.2151677 1.0800374,1.1213786 L 0.9673828,1.0583333 Z M 1.1001912,1.4763956 c 0.1412634,0.089277 0.3103733,0.1642167 0.5214152,0.2216919 0.3591343,0.097807 0.8072264,0.1538948 1.2888102,0.1539958 0.4815838,-1.01e-4 0.929676,-0.056189 1.2888103,-0.1539958 C 4.4102686,1.6406125 4.5793786,1.5656726 4.7206421,1.4763956 L 4.2348835,4.876188 4.2333335,4.894792 c 0,0.02391 -0.012642,0.057644 -0.068213,0.1054198 -0.055571,0.047777 -0.1492694,0.09999 -0.2707846,0.1441773 C 3.6513055,5.2327641 3.2992618,5.291667 2.9104166,5.291667 2.5215715,5.291667 2.1695278,5.232764 1.9264974,5.1443891 1.8049822,5.1002014 1.7112842,5.047988 1.6557129,5.0002114 1.6001415,4.9524351 1.5875,4.9187009 1.5875,4.8947916 L 1.58595,4.8761886 Z"
     id="path3363"
     sodipodi:nodetypes="ccccsssssccccccscsccccscscccsssssccc" />
</svg>
