<?xml version="1.0" encoding="UTF-8" standalone="no"?>
<!-- Created with Inkscape (http://www.inkscape.org/) -->

<svg
   width="22"
   height="22"
   viewBox="0 0 5.8208331 5.8208336"
   version="1.1"
   id="svg2469"
   inkscape:version="1.1.2 (0a00cf5339, 2022-02-04, custom)"
   sodipodi:docname="user-trash.svg"
   xmlns:inkscape="http://www.inkscape.org/namespaces/inkscape"
   xmlns:sodipodi="http://sodipodi.sourceforge.net/DTD/sodipodi-0.dtd"
   xmlns="http://www.w3.org/2000/svg"
   xmlns:svg="http://www.w3.org/2000/svg">
  <sodipodi:namedview
     id="namedview2471"
     pagecolor="#ffffff"
     bordercolor="#666666"
     borderopacity="1.0"
     inkscape:pageshadow="2"
     inkscape:pageopacity="0.0"
     inkscape:pagecheckerboard="0"
     inkscape:document-units="px"
     showgrid="false"
     units="px"
     inkscape:zoom="13.46717"
     inkscape:cx="4.7151703"
     inkscape:cy="8.7249214"
     inkscape:window-width="1623"
     inkscape:window-height="908"
     inkscape:window-x="50"
     inkscape:window-y="31"
     inkscape:window-maximized="0"
     inkscape:current-layer="svg2469"
     showguides="false" />
  <defs
     id="defs2466" />
  <path
     style="color:#000000;fill:#b3b3b3;stroke:none;stroke-width:0.264583;stroke-linecap:round;stroke-linejoin:round;-inkscape-stroke:none"
     d="M 4.8955729,1.0592447 A 1.984375,0.66145831 0 0 1 2.9111979,1.720703 1.984375,0.66145831 0 0 1 0.92682285,1.0592447 1.984375,0.66145831 0 0 1 2.9111979,0.3977863 1.984375,0.66145831 0 0 1 4.8955729,1.0592447 Z"
     id="path3355" />
  <path
     style="color:#000000;opacity:0.2;fill:#000000;stroke:none;stroke-linecap:round;stroke-linejoin:round;-inkscape-stroke:none"
     d="m 2.9109376,0.26458333 c -0.5598855,0 -1.0670606,0.0750879 -1.4453126,0.20117187 C 1.2764991,0.52879719 1.1195982,0.60453881 1.0007813,0.69817707 0.8819643,0.79181534 0.79375,0.91455529 0.79375,1.0595052 c 0,0.14495 0.0882143,0.2676899 0.2070313,0.3613282 0.1188169,0.093638 0.2757178,0.1693799 0.4648437,0.2324218 0.378252,0.126084 0.8854271,0.1992188 1.4453126,0.1992188 0.5598854,0 1.0670605,-0.073135 1.4453124,-0.1992188 C 4.545376,1.5902133 4.7022769,1.5144716 4.8210938,1.4208334 4.9399107,1.3271951 5.028125,1.2044552 5.028125,1.0595052 5.0281251,0.91455529 4.9399107,0.79181534 4.8210938,0.69817707 4.7022769,0.60453881 4.545376,0.52879719 4.35625,0.4657552 3.9779981,0.33967122 3.470823,0.26458332 2.9109376,0.26458333 Z m 0,0.26562499 c 0.5360535,0 1.0213782,0.0741834 1.3613281,0.1875 0.1699749,0.0566583 0.3027531,0.12286687 0.3847656,0.18750001 C 4.7390443,0.96984143 4.7625,1.0217987 4.7625,1.0595052 c 0,0.037707 -0.023456,0.087711 -0.1054687,0.1523438 -0.082013,0.064633 -0.2147907,0.1327948 -0.3847656,0.1894531 -0.3399499,0.1133166 -0.8252746,0.1875 -1.3613281,0.1875 -0.5360536,0 -1.0213783,-0.074183 -1.3613282,-0.1875 C 1.3796345,1.3446438 1.2468563,1.2764821 1.1648438,1.211849 1.0828313,1.1472159 1.059375,1.0972118 1.059375,1.0595052 c 0,-0.037707 0.023456,-0.0896638 0.1054688,-0.15429687 0.082013,-0.0646331 0.2147907,-0.1308417 0.3847656,-0.18750001 0.3399499,-0.1133166 0.8252746,-0.18749999 1.3613282,-0.1875 z"
     id="path3357" />
  <path
     style="color:#000000;fill:#d8d8d8;stroke:none;stroke-width:0.264583;stroke-linecap:round;stroke-linejoin:bevel;-inkscape-stroke:none"
     d="M 0.9268229,1.1915365 1.4559896,4.8957031 A 1.4552083,0.52916663 0 0 0 2.9111979,5.4248698 1.4552083,0.52916663 0 0 0 4.3664062,4.8957031 L 4.8955729,1.1915365 H 4.8542318 C 4.6657339,1.4993525 3.8536879,1.7205054 2.9111979,1.7207031 1.9687081,1.7205054 1.1566619,1.4993525 0.96816405,1.1915365 Z"
     id="path3361" />
  <path
     style="color:#000000;opacity:0.2;fill:#000000;stroke:none;stroke-width:0.264583;stroke-linecap:round;stroke-linejoin:bevel;-inkscape-stroke:none"
     d="M 0.9268229,1.0592448 0.79608154,1.21014 1.3252482,4.9143065 1.3236979,4.8957031 c 0,0.1222158 0.068493,0.2276007 0.160197,0.3064412 0.091704,0.078841 0.2111246,0.1406634 0.35295,0.1922365 0.2836509,0.1031457 0.6595095,0.1627806 1.074353,0.1627806 0.4148434,0 0.7907023,-0.059635 1.0743531,-0.1627806 0.1418254,-0.051573 0.2612464,-0.1133959 0.3529499,-0.1922365 0.091704,-0.078841 0.160197,-0.1842254 0.160197,-0.3064412 L 4.4971369,4.914306 5.0263035,1.2101395 4.8955729,1.0592448 H 4.8542318 L 4.7415772,1.1222901 C 4.6841433,1.2160793 4.4603968,1.3539445 4.1307617,1.4437175 3.8011266,1.5334904 3.3721031,1.5883148 2.9111979,1.5884115 2.4502928,1.5883148 2.0212692,1.5334904 1.6916341,1.4437175 1.3619991,1.3539445 1.1382526,1.2160792 1.0808187,1.1222901 L 0.96816405,1.0592448 Z M 1.1009725,1.4773071 C 1.2422359,1.5665841 1.4113458,1.6415238 1.6223877,1.698999 1.981522,1.796806 2.4296141,1.8528938 2.9111979,1.8529948 3.3927817,1.8528938 3.8408739,1.7968058 4.2000082,1.698999 4.4110499,1.641524 4.5801599,1.5665841 4.7214234,1.4773071 l -0.4857586,3.3997924 -0.00155,0.018604 c 0,0.02391 -0.012642,0.057644 -0.068213,0.1054198 -0.055571,0.047777 -0.1492694,0.09999 -0.2707846,0.1441773 -0.2430304,0.088375 -0.5950741,0.1472779 -0.9839193,0.1472779 -0.3888451,0 -0.7408888,-0.058903 -0.9839192,-0.1472779 C 1.8057635,5.1011129 1.7120655,5.0488995 1.6564942,5.0011229 1.6009228,4.9533466 1.5882813,4.9196124 1.5882813,4.8957031 l -0.00155,-0.018603 z"
     id="path3363" />
</svg>
