<?xml version="1.0" encoding="UTF-8" standalone="no"?>
<!-- Created with Inkscape (http://www.inkscape.org/) -->

<svg
   width="16"
   height="16"
   viewBox="0 0 4.2333332 4.2333335"
   version="1.1"
   id="svg2469"
   inkscape:version="1.1.2 (0a00cf5339, 2022-02-04, custom)"
   sodipodi:docname="folder-image.svg"
   xmlns:inkscape="http://www.inkscape.org/namespaces/inkscape"
   xmlns:sodipodi="http://sodipodi.sourceforge.net/DTD/sodipodi-0.dtd"
   xmlns="http://www.w3.org/2000/svg"
   xmlns:svg="http://www.w3.org/2000/svg">
  <sodipodi:namedview
     id="namedview2471"
     pagecolor="#ffffff"
     bordercolor="#666666"
     borderopacity="1.0"
     inkscape:pageshadow="2"
     inkscape:pageopacity="0.0"
     inkscape:pagecheckerboard="0"
     inkscape:document-units="px"
     showgrid="false"
     units="px"
     inkscape:zoom="59.857146"
     inkscape:cx="8.0023862"
     inkscape:cy="8.0023862"
     inkscape:window-width="1920"
     inkscape:window-height="1019"
     inkscape:window-x="0"
     inkscape:window-y="31"
     inkscape:window-maximized="1"
     inkscape:current-layer="svg2469" />
  <defs
     id="defs2466" />
  <path
     id="rect3166"
     style="opacity:0.45;fill:#4f6698;fill-opacity:1;stroke-width:0.264583;stroke-linejoin:round"
     d="m 0.79374999,0.26458333 c -0.14657916,0 -0.26458333,0.11800418 -0.26458333,0.26458333 -0.14657916,0 -0.26458333,0.11800417 -0.26458333,0.26458333 V 2.6458333 c 0,0.1465792 0.11800417,0.2645833 0.26458333,0.2645833 H 3.7041666 c 0.1465792,0 0.2645834,-0.1180041 0.2645834,-0.2645833 V 0.79374999 c 0,-0.14657916 -0.1180042,-0.26458333 -0.2645834,-0.26458333 H 1.8520833 c 0,-0.14657915 -0.1180042,-0.26458333 -0.2645833,-0.26458333 z" />
  <path
     id="rect3604"
     style="fill:#ffffff;fill-opacity:1;stroke-width:0.264583;stroke-linejoin:round"
     d="M 0.79374999,0.52916666 V 0.79374999 H 0.52916666 V 2.9104166 H 3.7041666 V 0.79374999 H 1.5875 V 0.52916666 Z" />
  <path
     id="rect2552"
     style="opacity:0.6;fill:#2c6663;stroke-width:0.32208;stroke-linejoin:round"
     d="m 0.5291667,1.0583333 h 3.1750002 c 0.2931583,0 0.5291667,0.2360083 0.5291667,0.5291666 v 1.8520832 c 0,0.2931584 -0.2360084,0.5291667 -0.5291667,0.5291667 H 0.5291667 C 0.23600835,3.9687498 0,3.7327415 0,3.4395831 V 1.5874999 C 0,1.2943416 0.23600835,1.0583333 0.5291667,1.0583333 Z" />
  <path
     id="rect2686"
     style="fill:#8fbcbb;stroke-width:0.229136;stroke-linejoin:round"
     d="m 0.5291667,1.3229166 h 3.175 c 0.1465791,0 0.2645833,0.1180041 0.2645833,0.2645833 v 1.8520832 c 0,0.1465792 -0.1180042,0.2645834 -0.2645833,0.2645834 h -3.175 c -0.14657918,0 -0.26458335,-0.1180042 -0.26458335,-0.2645834 V 1.5874999 c 0,-0.1465792 0.11800417,-0.2645833 0.26458335,-0.2645833 z" />
  <path
     id="path2357"
     style="color:#000000;opacity:0.15;fill:#000000;stroke-width:0.999999;stroke-linecap:round;stroke-linejoin:round;-inkscape-stroke:none"
     d="M 7 7 L 6 7.9707031 L 5 8 L 5.0039062 12.003906 L 11.003906 12.003906 L 11.003906 8.0019531 L 10 8 L 9 7 L 7 7 z M 8 9 A 1.0000001 1.0000001 0 0 1 9 10 A 1.0000001 1.0000001 0 0 1 8 11 A 1.0000001 1.0000001 0 0 1 7 10 A 1.0000001 1.0000001 0 0 1 8 9 z "
     transform="scale(0.26458333)" />
  <path
     id="path2359"
     style="color:#000000;opacity:0.3;fill:#000000;stroke-width:3.7796;stroke-linecap:round;stroke-linejoin:round;-inkscape-stroke:none"
     d="M 7.0039062 6 C 6.874174 5.9999664 6.7495098 6.0503926 6.65625 6.140625 L 5.7929688 6.9746094 L 4.4941406 6.9960938 C 4.2196109 6.9992708 3.9990139 7.2233569 4 7.4980469 L 4 12.498047 C 3.9990192 12.775778 4.2243718 13.001128 4.5019531 13 L 11.498047 13 C 11.77563 13.001128 12.000981 12.775776 12 12.498047 L 12 7.4980469 C 12.000981 7.220317 11.77563 6.9949659 11.498047 6.9960938 L 10.207031 6.9960938 L 9.3574219 6.1484375 C 9.2639806 6.0539191 9.1367793 6.0005065 9.0039062 6 L 7.0039062 6 z M 7.203125 6.9960938 L 8.796875 6.9960938 L 8.8007812 7 L 9 7 L 10 8 L 11.003906 8.0019531 L 11.003906 12.003906 L 5.0039062 12.003906 L 5 8 L 5.0039062 8 L 5.0039062 7.9941406 L 5.9414062 7.9726562 L 6 7.9707031 L 7 7 L 7.1992188 7 L 7.203125 6.9960938 z M 8 9 A 1.0000001 1.0000001 0 0 0 7 10 A 1.0000001 1.0000001 0 0 0 8 11 A 1.0000001 1.0000001 0 0 0 9 10 A 1.0000001 1.0000001 0 0 0 8 9 z "
     transform="scale(0.26458333)" />
</svg>
