<?xml version="1.0" encoding="UTF-8" standalone="no"?>
<!-- Created with Inkscape (http://www.inkscape.org/) -->

<svg
   width="16"
   height="16"
   viewBox="0 0 4.2333332 4.2333335"
   version="1.1"
   id="svg2469"
   inkscape:version="1.1.2 (0a00cf5339, 2022-02-04, custom)"
   sodipodi:docname="user-trash.svg"
   xmlns:inkscape="http://www.inkscape.org/namespaces/inkscape"
   xmlns:sodipodi="http://sodipodi.sourceforge.net/DTD/sodipodi-0.dtd"
   xmlns="http://www.w3.org/2000/svg"
   xmlns:svg="http://www.w3.org/2000/svg">
  <sodipodi:namedview
     id="namedview2471"
     pagecolor="#ffffff"
     bordercolor="#666666"
     borderopacity="1.0"
     inkscape:pageshadow="2"
     inkscape:pageopacity="0.0"
     inkscape:pagecheckerboard="0"
     inkscape:document-units="px"
     showgrid="false"
     units="px"
     inkscape:zoom="37.034718"
     inkscape:cx="1.4040879"
     inkscape:cy="12.528785"
     inkscape:window-width="1920"
     inkscape:window-height="1019"
     inkscape:window-x="0"
     inkscape:window-y="31"
     inkscape:window-maximized="1"
     inkscape:current-layer="svg2469"
     showguides="false" />
  <defs
     id="defs2466" />
  <path
     style="color:#000000;fill:#b3b3b3;stroke-width:0.264583;stroke-linecap:round;stroke-linejoin:round;-inkscape-stroke:none"
     d="m 3.8364583,0.66145837 c 0,0.29225066 -0.9161023,0.52916663 -1.7197916,0.52916663 -0.8036894,0 -1.71979168,-0.23691596 -1.7197917,-0.52916663 -9e-8,-0.2922507 0.9161023,-0.52916671 1.7197917,-0.5291667 0.8036894,0 1.7197917,0.23691601 1.7197916,0.5291667 z"
     id="path1023"
     sodipodi:nodetypes="sssss" />
  <path
     style="color:#000000;opacity:0.2;fill:#000000;stroke:none;stroke-width:1.00012;stroke-linecap:round;stroke-linejoin:round;-inkscape-stroke:none"
     d="M 2.1167969,0 C 1.7020554,0 1.0619161,0.05899262 0.77833478,0.16218919 0.63654431,0.21378749 0.51658724,0.27676434 0.4249062,0.35564378 0.3332252,0.4345232 0.26478932,0.54015935 0.26478935,0.66243539 c 10e-9,0.12227603 0.0684359,0.2259581 0.16011685,0.30483753 C 0.5165873,1.0461523 0.63654431,1.1091293 0.77833478,1.1607274 1.061916,1.263924 1.7020554,1.3229167 2.1167969,1.3229167 c 0.4147414,0 1.0550677,-0.058993 1.3386488,-0.1621893 C 3.5972363,1.1091291 3.7152406,1.0461524 3.8069218,0.96727292 3.8986032,0.8883935 3.9689912,0.78471142 3.9689912,0.66243539 3.9689913,0.54015935 3.8986025,0.43452322 3.8069218,0.35564378 3.7152407,0.27676434 3.5972363,0.21378749 3.4554457,0.16218919 3.1718646,0.05899262 2.5315383,0 2.1167969,0 Z m 0,0.26380171 c 0.3887494,-1e-8 1.0039039,0.0600924 1.2468745,0.14851059 0.1214853,0.0442091 0.2158599,0.0968023 0.2714176,0.1446024 0.055557,0.0478 0.068342,0.0815996 0.068342,0.10552069 0,0.0239211 -0.012785,0.0577206 -0.068342,0.10552068 -0.055558,0.0478 -0.1499323,0.10039332 -0.2714176,0.14460242 C 3.1207008,1.0009767 2.5055463,1.0591149 2.1167969,1.0591149 1.7280474,1.059115 1.1111272,1.0009767 0.86815648,0.91255849 0.74667118,0.86834939 0.65229661,0.81575611 0.59673893,0.76795607 c -0.0555577,-0.0478 -0.0683426,-0.0815996 -0.0683426,-0.10552068 -10e-9,-0.0239211 0.0127849,-0.0577206 0.0683426,-0.10552069 0.0555577,-0.0478 0.14993225,-0.1003933 0.27141755,-0.1446024 C 1.1111272,0.32389408 1.7280474,0.2638017 2.1167969,0.26380171 Z"
     id="path1025"
     sodipodi:nodetypes="ssssssssssssssssscssssssss" />
  <path
     style="color:#000000;fill:#d8d8d8;stroke:none;stroke-width:0.264583;stroke-linecap:round;stroke-linejoin:bevel;-inkscape-stroke:none"
     d="M 0.40968455,0.73122151 0.92593212,3.7041666 c 0,0.219188 0.67929578,0.396875 1.19073448,0.396875 0.5114387,0 1.1907346,-0.177687 1.1907346,-0.396875 L 3.8236488,0.73122151 C 3.7274804,0.99416244 2.8461213,1.1905854 2.1166666,1.190625 1.387212,1.1905854 0.50585283,0.99416244 0.40968455,0.73122151 Z"
     id="path2075"
     sodipodi:nodetypes="ccscccc" />
  <path
     style="color:#000000;opacity:0.2;fill:#000000;stroke:none;stroke-width:0.264583;stroke-linecap:round;stroke-linejoin:bevel;-inkscape-stroke:none"
     d="m 0.53391059,0.68574625 -0.25424804,0.0682129 0.51624758,2.97294525 -0.002067,-0.022738 c 0,0.096503 0.047319,0.1828988 0.1111044,0.2475302 0.063786,0.064631 0.14530827,0.1138036 0.24029537,0.1545124 0.1899741,0.081418 0.7003843,0.1271241 0.9714238,0.1271241 0.2710396,0 0.7814493,-0.045706 0.9714234,-0.1271241 C 3.183077,4.0655004 3.2645996,4.0163281 3.3283854,3.9516968 3.3921711,3.8870654 3.4394898,3.8006694 3.4394898,3.7041666 L 3.4374298,3.7269046 3.953674,0.75395884 3.699426,0.68574594 C 3.6790202,0.74152891 3.5395996,0.85678191 3.2994466,0.93327637 3.0592936,1.0097708 2.4695214,1.0583142 2.1166666,1.0583333 1.7638119,1.0583141 1.1740391,1.0097708 0.93388623,0.93327637 0.69373324,0.85678191 0.55431259,0.74152889 0.53391059,0.68574625 Z M 0.60367378,1.074353 C 0.68188368,1.114127 0.75760893,1.154987 0.85327093,1.1854573 1.1278563,1.2729193 1.7400675,1.3228962 2.1166666,1.3229166 2.4932658,1.3228962 3.1054763,1.2729196 3.380062,1.1854573 3.475724,1.1549863 3.5514493,1.1141273 3.629659,1.074353 l -0.4526854,2.6070761 -0.00207,0.022738 c 0,0.013092 -0.00469,0.031163 -0.034623,0.061495 -0.029935,0.030332 -0.083986,0.066557 -0.1565796,0.097669 C 2.8385169,3.925553 2.3570652,3.96875 2.1166666,3.96875 1.8762681,3.96875 1.3948158,3.925553 1.2496291,3.8633302 1.1770358,3.8322186 1.1229842,3.7959932 1.0930496,3.7656616 1.0631149,3.73533 1.0584263,3.7172577 1.0584263,3.7041666 l -0.00207,-0.022738 z"
     id="path2077"
     sodipodi:nodetypes="ccccsssssccccscsccccsccccssssccc" />
</svg>
