<?xml version="1.0" encoding="UTF-8" standalone="no"?>
<!-- Created with Inkscape (http://www.inkscape.org/) -->

<svg
   width="24"
   height="24"
   viewBox="0 0 6.35 6.3500003"
   version="1.1"
   id="svg5"
   inkscape:version="1.1.2 (0a00cf5339, 2022-02-04, custom)"
   sodipodi:docname="applications-all.svg"
   xmlns:inkscape="http://www.inkscape.org/namespaces/inkscape"
   xmlns:sodipodi="http://sodipodi.sourceforge.net/DTD/sodipodi-0.dtd"
   xmlns="http://www.w3.org/2000/svg"
   xmlns:svg="http://www.w3.org/2000/svg">
  <sodipodi:namedview
     id="namedview7"
     pagecolor="#ffffff"
     bordercolor="#666666"
     borderopacity="1.0"
     inkscape:pageshadow="2"
     inkscape:pageopacity="0.0"
     inkscape:pagecheckerboard="0"
     inkscape:document-units="px"
     showgrid="false"
     units="px"
     height="64px"
     inkscape:zoom="13.242182"
     inkscape:cx="18.879065"
     inkscape:cy="18.879065"
     inkscape:window-width="1920"
     inkscape:window-height="1026"
     inkscape:window-x="0"
     inkscape:window-y="0"
     inkscape:window-maximized="1"
     inkscape:current-layer="svg5"
     showguides="false" />
  <defs
     id="defs2" />
  <path
     id="rect1136"
     style="opacity:1;fill:#1b64ee;fill-opacity:1;stroke-width:5.82084;stroke-linecap:round;stroke-linejoin:round"
     d="M 1.0583333,0.26458334 H 5.291667 c 0.4397375,0 0.79375,0.35401249 0.79375,0.79374996 V 5.291667 c 0,0.4397375 -0.3540125,0.79375 -0.79375,0.79375 H 1.0583333 c -0.43973747,0 -0.79374996,-0.3540125 -0.79374996,-0.79375 V 1.0583333 c 0,-0.43973747 0.35401249,-0.79374996 0.79374996,-0.79374996 z" />
  <path
     id="rect1469"
     style="opacity:1;fill:#528fff;fill-opacity:1;stroke-width:0.529167;stroke-linecap:round;stroke-linejoin:round"
     d="m 1.0583334,0.52916668 h 4.2333335 c 0.2931584,0 0.5291667,0.23600834 0.5291667,0.52916672 v 4.2333335 c 0,0.2931583 -0.2360083,0.5291667 -0.5291667,0.5291667 H 1.0583334 c -0.29315837,0 -0.52916672,-0.2360084 -0.52916672,-0.5291667 V 1.0583334 c 0,-0.29315838 0.23600835,-0.52916672 0.52916672,-0.52916672 z" />
  <path
     id="rect1389"
     style="opacity:1;fill:#ffffff;fill-opacity:1;stroke-width:0.308679"
     d="m 1.3229167,1.0583334 c -0.1465792,0 -0.2645833,0.1180041 -0.2645833,0.2645833 v 1.3229167 c 0,0.1465791 0.1180041,0.2645833 0.2645833,0.2645833 h 1.3229167 c 0.1465792,0 0.2645833,-0.1180042 0.2645833,-0.2645833 V 1.3229167 c 0,-0.1465792 -0.1180041,-0.2645833 -0.2645833,-0.2645833 z m 2.3812501,0 c -0.1465792,0 -0.2645834,0.1180041 -0.2645834,0.2645833 v 1.3229167 c 0,0.1465791 0.1180042,0.2645833 0.2645834,0.2645833 h 1.3229167 c 0.1465791,0 0.2645833,-0.1180042 0.2645833,-0.2645833 V 1.3229167 c 0,-0.1465792 -0.1180042,-0.2645833 -0.2645833,-0.2645833 z m 0,0.2645833 H 5.0270835 V 2.6458334 H 3.7041668 Z M 1.3229167,3.4395834 c -0.1465791,0 -0.2645833,0.1180041 -0.2645833,0.2645833 v 1.3229167 c 0,0.1465792 0.1180042,0.2645834 0.2645833,0.2645834 h 1.3229167 c 0.1465792,0 0.2645833,-0.1180042 0.2645833,-0.2645834 V 3.7041667 c 0,-0.1465792 -0.1180041,-0.2645833 -0.2645833,-0.2645833 z m 2.3812501,0 c -0.1465792,0 -0.2645834,0.1180041 -0.2645834,0.2645833 v 1.3229167 c 0,0.1465792 0.1180042,0.2645834 0.2645834,0.2645834 h 1.3229167 c 0.1465791,0 0.2645833,-0.1180042 0.2645833,-0.2645834 V 3.7041667 c 0,-0.1465792 -0.1180042,-0.2645833 -0.2645833,-0.2645833 z M 1.3229167,3.7041667 H 2.6458334 V 5.0270834 H 1.3229167 Z m 2.3812501,0 H 5.0270835 V 5.0270834 H 3.7041668 Z" />
</svg>
