<?xml version="1.0" encoding="UTF-8" standalone="no"?>
<!-- Created with Inkscape (http://www.inkscape.org/) -->

<svg
   width="24"
   height="24"
   viewBox="0 0 6.35 6.3500003"
   version="1.1"
   id="svg5"
   inkscape:version="1.1.2 (0a00cf5339, 2022-02-04, custom)"
   sodipodi:docname="internet-mail.svg"
   xmlns:inkscape="http://www.inkscape.org/namespaces/inkscape"
   xmlns:sodipodi="http://sodipodi.sourceforge.net/DTD/sodipodi-0.dtd"
   xmlns="http://www.w3.org/2000/svg"
   xmlns:svg="http://www.w3.org/2000/svg">
  <sodipodi:namedview
     id="namedview7"
     pagecolor="#ffffff"
     bordercolor="#666666"
     borderopacity="1.0"
     inkscape:pageshadow="2"
     inkscape:pageopacity="0.0"
     inkscape:pagecheckerboard="0"
     inkscape:document-units="px"
     showgrid="false"
     units="px"
     height="64px"
     inkscape:zoom="33.583333"
     inkscape:cx="15.945409"
     inkscape:cy="12.863524"
     inkscape:window-width="1851"
     inkscape:window-height="1009"
     inkscape:window-x="69"
     inkscape:window-y="31"
     inkscape:window-maximized="1"
     inkscape:current-layer="svg5"
     showguides="false" />
  <defs
     id="defs2" />
  <path
     id="rect937"
     style="fill:#c19017;fill-opacity:1;stroke-width:0.264583;stroke-linecap:round;stroke-linejoin:round"
     d="M 0.79375002,0.26458335 H 5.5562503 c 0.2931583,0 0.5291667,0.23600835 0.5291667,0.5291667 V 5.5562503 c 0,0.2931584 -0.2360084,0.5291667 -0.5291667,0.5291667 H 0.79375002 c -0.2931584,0 -0.52916668,-0.2360083 -0.52916668,-0.5291667 V 0.79375005 c 0,-0.29315835 0.23600828,-0.5291667 0.52916668,-0.5291667 z"
     sodipodi:nodetypes="sssssssss" />
  <path
     id="rect1273"
     style="fill:#f6ba29;fill-opacity:1;stroke-width:0.264583;stroke-linecap:round;stroke-linejoin:round"
     d="M 0.79375002,0.5291667 H 5.55625 c 0.1465792,0 0.2645834,0.11800417 0.2645834,0.26458335 V 5.5562503 c 0,0.1465792 -0.1180042,0.2645834 -0.2645834,0.2645834 H 0.79375002 c -0.1465792,0 -0.2645834,-0.1180042 -0.2645834,-0.2645834 V 0.79375005 c 0,-0.14657918 0.1180042,-0.26458335 0.2645834,-0.26458335 z"
     sodipodi:nodetypes="sssssssss" />
  <path
     d="M 0.79375002,0.5291667 H 5.5562501 c 0.1465792,0 0.2645834,0.11800417 0.2645834,0.26458334 V 4.497917 c 0,0.1465792 -0.1180042,0.2645834 -0.2645834,0.2645834 H 0.79375002 c -0.1465792,0 -0.2645834,-0.1180042 -0.2645834,-0.2645834 V 0.79375004 c 0,-0.14657917 0.1180042,-0.26458334 0.2645834,-0.26458334 z"
     style="fill:#f9f06b;fill-opacity:1;stroke-width:0.0700043;stroke-linecap:round;stroke-linejoin:round"
     id="path2456"
     sodipodi:nodetypes="sssssssss" />
  <path
     id="rect2786"
     style="fill:#f7bc2c;fill-opacity:1;stroke-width:0.264583;stroke-linecap:round;stroke-linejoin:round"
     d="M 0.92604172,0.79375005 H 5.4239586 c 0.07329,0 0.1322917,0.0590021 0.1322917,0.13229167 V 4.3656253 c 0,0.07329 -0.059002,0.1322916 -0.1322917,0.1322916 H 0.92604172 c -0.07329,0 -0.1322917,-0.059002 -0.1322917,-0.1322916 V 0.92604172 c 0,-0.0732896 0.059002,-0.13229167 0.1322917,-0.13229167 z"
     sodipodi:nodetypes="sssssssss" />
  <path
     id="rect5405"
     style="opacity:0.2;stroke-width:0.264583;stroke-linecap:round;stroke-linejoin:round"
     d="M 0.92604172,1.3229167 H 5.4239586 c 0.07329,0 0.1322917,0.059002 0.1322917,0.1322917 V 4.365625 c 0,0.07329 -0.059002,0.1322917 -0.1322917,0.1322917 H 0.92604172 c -0.07329,0 -0.1322917,-0.059002 -0.1322917,-0.1322917 V 1.4552084 c 0,-0.07329 0.059002,-0.1322917 0.1322917,-0.1322917 z"
     sodipodi:nodetypes="sssssssss" />
  <path
     id="rect5545"
     style="opacity:1;fill:#f6f5f4;stroke-width:0.264583;stroke-linecap:round;stroke-linejoin:round;fill-opacity:1"
     d="m 1.0583332,1.5875 h 4.2333336 v 2.9104169 h -0.79375 V 4.7625001 H 1.8520833 V 4.4979169 H 1.0583332 Z"
     sodipodi:nodetypes="ccccccccc" />
  <path
     id="rect6512"
     style="opacity:1;fill:#f9f06b;fill-opacity:1;stroke-width:0.999999;stroke-linecap:round;stroke-linejoin:round"
     d="m 7,18 v 1 c 0,0.554 0.4459999,1 1,1 h 8 c 0.554,0 1,-0.446 1,-1 v -1 c 0,0.554 -0.446,1 -1,1 H 8 C 7.4459999,19 7,18.554 7,18 Z"
     sodipodi:nodetypes="csssscssc"
     transform="scale(0.26458334)" />
  <path
     d="m 4.4979167,4.7625001 c 0,0.1465792 -0.1180039,0.2645834 -0.2645831,0.2645834 h -2.116667 c -0.1465791,0 -0.2645833,-0.1180042 -0.2645833,-0.2645834 z"
     style="opacity:1;fill:#cccccc;fill-opacity:1;stroke-width:0.0700043;stroke-linecap:round;stroke-linejoin:round"
     id="path8349"
     sodipodi:nodetypes="csscc" />
  <path
     id="rect2061"
     style="opacity:0.1;stroke-width:0.264583;stroke-linecap:round;stroke-linejoin:round"
     d="M 1.0583332,4.2333332 3.175,2.6458334 5.2916668,4.2333332 v 0.2645837 l -4.2333336,3e-7 z"
     sodipodi:nodetypes="cccccc" />
  <path
     id="rect1244"
     style="opacity:1;fill:#f0f0ee;stroke-width:0.264583;stroke-linecap:round;stroke-linejoin:round"
     d="m 3.1749999,2.9104167 2.1166668,1.5875005 -0.7937499,-3e-7 V 4.7625001 H 1.8520834 l -10e-8,-0.2645832 -0.7937501,3e-7 z"
     sodipodi:nodetypes="cccccccc" />
  <path
     id="path3808"
     style="color:#000000;opacity:0.1;fill:#000000;stroke:none;stroke-width:0.999999;stroke-linecap:round;stroke-linejoin:round;-inkscape-stroke:none"
     d="M 3.9980469 6 L 3.9980469 7.4082031 L 10.703125 13.521484 C 11.450455 14.160039 12.557357 14.160038 13.304688 13.521484 L 19.998047 7.2871094 L 19.998047 6 L 3.9980469 6 z "
     transform="scale(0.26458334)" />
  <path
     style="color:#000000;fill:#f6f5f4;stroke:none;stroke-width:0.529167;stroke-linecap:round;stroke-linejoin:round;-inkscape-stroke:none;fill-opacity:1"
     d="m 1.0588501,1.5875 1.9451016,1.7890382 c 0.098294,0.083987 0.2458709,0.083987 0.344165,0 L 5.2911505,1.5875 Z"
     id="path3806"
     sodipodi:nodetypes="ccccc" />
</svg>
