<?xml version="1.0" encoding="UTF-8" standalone="no"?>
<!-- Created with Inkscape (http://www.inkscape.org/) -->

<svg
   width="24"
   height="24"
   viewBox="0 0 6.3499999 6.3500003"
   version="1.1"
   id="svg5"
   inkscape:version="1.1.2 (0a00cf5339, 2022-02-04, custom)"
   sodipodi:docname="ktip.svg"
   xmlns:inkscape="http://www.inkscape.org/namespaces/inkscape"
   xmlns:sodipodi="http://sodipodi.sourceforge.net/DTD/sodipodi-0.dtd"
   xmlns="http://www.w3.org/2000/svg"
   xmlns:svg="http://www.w3.org/2000/svg">
  <sodipodi:namedview
     id="namedview7"
     pagecolor="#ffffff"
     bordercolor="#666666"
     borderopacity="1.0"
     inkscape:pageshadow="2"
     inkscape:pageopacity="0.0"
     inkscape:pagecheckerboard="0"
     inkscape:document-units="px"
     showgrid="false"
     units="px"
     height="64px"
     inkscape:zoom="12.952911"
     inkscape:cx="7.9132791"
     inkscape:cy="17.602221"
     inkscape:window-width="1851"
     inkscape:window-height="1009"
     inkscape:window-x="69"
     inkscape:window-y="31"
     inkscape:window-maximized="1"
     inkscape:current-layer="svg5"
     showguides="false" />
  <defs
     id="defs2" />
  <path
     id="path1283"
     style="color:#000000;fill:#4ea2f3;fill-opacity:1;stroke:none;stroke-width:0.135518;stroke-linejoin:round;-inkscape-stroke:none"
     d="M 3.175,0.39687501 C 1.640684,0.39687526 0.39687523,1.6406839 0.39687501,3.1749999 0.39687523,4.7093158 1.640684,5.9531247 3.175,5.9531249 c 1.5343159,-2e-7 2.778125,-1.2438091 2.778125,-2.778125 0,-1.534316 -1.2438091,-2.77812464 -2.778125,-2.77812489 z"
     sodipodi:nodetypes="sssss" />
  <path
     id="path1285"
     style="color:#000000;opacity:0.35;fill:#002e99;fill-opacity:1;stroke:none;stroke-width:0.523774;stroke-linejoin:round;-inkscape-stroke:none"
     d="m 3.1750001,0.26458334 c -1.6064435,0 -2.91041683,1.30397316 -2.91041676,2.91041666 3.7e-7,1.6064432 1.30397346,2.9104168 2.91041676,2.9104168 1.6064429,-5e-7 2.9104162,-1.3039736 2.9104167,-2.9104168 0,-1.6064432 -1.3039736,-2.91041634 -2.9104167,-2.91041666 z m 0,0.26458334 c 1.4612533,2.4e-7 2.6458334,1.18457992 2.6458334,2.64583332 0,1.4612533 -1.1845801,2.6458332 -2.6458334,2.6458334 C 1.7137467,5.8208332 0.52916697,4.6362533 0.52916668,3.175 0.52916697,1.7137466 1.7137467,0.52916692 3.1750001,0.52916668 Z" />
  <path
     d="m 3.2666007,1.7648619 c -0.097318,0 -0.1810115,-0.035034 -0.2510806,-0.1051033 -0.070069,-0.070069 -0.1051034,-0.1537625 -0.1051034,-0.2510805 0,-0.097318 0.035035,-0.1790651 0.1051034,-0.2452414 0.070069,-0.070069 0.1537626,-0.1051034 0.2510806,-0.1051034 0.097318,0 0.1810112,0.035035 0.2510803,0.1051034 0.070069,0.066176 0.1051033,0.1479233 0.1051033,0.2452414 0,0.097318 -0.035036,0.1810114 -0.1051033,0.2510805 C 3.451504,1.7298276 3.3678114,1.7648619 3.2666007,1.7648619 Z M 3.0213592,2.3137356 H 3.5118418 V 5.2916667 H 3.0213592 Z"
     style="font-size:13.8678px;line-height:1.25;font-family:'Google Sans';-inkscape-font-specification:'Google Sans';fill:#f2f2f2;fill-opacity:1;stroke-width:0.0386232"
     id="path48347" />
</svg>
