<?xml version="1.0" encoding="UTF-8" standalone="no"?>
<!-- Created with Inkscape (http://www.inkscape.org/) -->

<svg
   width="24"
   height="24"
   viewBox="0 0 6.3499999 6.3500003"
   version="1.1"
   id="svg5"
   inkscape:version="1.1.2 (0a00cf5339, 2022-02-04, custom)"
   sodipodi:docname="preferences-desktop-color.svg"
   xmlns:inkscape="http://www.inkscape.org/namespaces/inkscape"
   xmlns:sodipodi="http://sodipodi.sourceforge.net/DTD/sodipodi-0.dtd"
   xmlns="http://www.w3.org/2000/svg"
   xmlns:svg="http://www.w3.org/2000/svg">
  <sodipodi:namedview
     id="namedview7"
     pagecolor="#ffffff"
     bordercolor="#666666"
     borderopacity="1.0"
     inkscape:pageshadow="2"
     inkscape:pageopacity="0.0"
     inkscape:pagecheckerboard="0"
     inkscape:document-units="px"
     showgrid="false"
     units="px"
     height="64px"
     inkscape:zoom="24.96875"
     inkscape:cx="16"
     inkscape:cy="6.4680851"
     inkscape:window-width="1920"
     inkscape:window-height="1019"
     inkscape:window-x="0"
     inkscape:window-y="31"
     inkscape:window-maximized="1"
     inkscape:current-layer="svg5"
     showguides="false" />
  <defs
     id="defs2" />
  <path
     style="color:#000000;opacity:0.3;fill:#4f6698;fill-opacity:1;stroke:none;stroke-width:0.523775;stroke-linejoin:round;-inkscape-stroke:none"
     d="m 3.1749999,0.26458334 c -1.6064435,0 -2.91041663,1.30397306 -2.91041656,2.91041656 3.7e-7,1.6064432 1.30397336,2.9104169 2.91041656,2.9104169 1.6064429,-5e-7 2.9104163,-1.3039739 2.9104168,-2.9104169 0,-1.6064432 -1.3039736,-2.91041624 -2.9104168,-2.91041656 z"
     id="path1285"
     sodipodi:nodetypes="sssss" />
  <g
     id="g1547"
     transform="scale(0.49999998)">
    <path
       d="m 4.0583133,1.7537245 1.0583333,1e-7 1.2332605,4.5963335 -3.3713819,-3.3697999 z"
       style="fill:#ff5474;fill-opacity:1;stroke-width:0.529167;stroke-linecap:round;stroke-linejoin:round"
       id="path47268" />
    <path
       d="M 1.7737666,3.8899494 2.9785252,2.9802582 6.3499071,6.3500581 1.7523118,5.1164831 Z"
       style="fill:#e92f61;fill-opacity:1;stroke-width:0.529167;stroke-linecap:round;stroke-linejoin:round"
       id="path7876"
       sodipodi:nodetypes="ccccc" />
    <path
       d="M 1.2445999,6.357099 1.7523118,5.1164831 6.3499071,6.3500581 1.7523118,7.5836327 Z"
       style="fill:#e861e2;fill-opacity:1;stroke-width:0.529167;stroke-linecap:round;stroke-linejoin:round"
       id="path11402"
       sodipodi:nodetypes="ccccc" />
    <path
       d="M 1.7737666,8.8242486 1.7523118,7.5836327 6.3499074,6.3500581 2.9785252,9.7198573 Z"
       style="fill:#421ca8;fill-opacity:1;stroke-width:0.529167;stroke-linecap:round;stroke-linejoin:round"
       id="path14778"
       sodipodi:nodetypes="ccccc" />
    <path
       d="M 10.926047,8.8242486 10.947502,7.5836327 6.3499071,6.3500581 9.7212893,9.7198573 Z"
       style="fill:#cee834;fill-opacity:1;stroke-width:0.529167;stroke-linecap:round;stroke-linejoin:round"
       id="path38501" />
    <path
       d="M 3.9118879,10.712244 2.9785252,9.7198573 6.3499074,6.3500581 5.1166466,10.946392 Z"
       style="fill:#139dcb;fill-opacity:1;stroke-width:0.529167;stroke-linecap:round;stroke-linejoin:round"
       id="path17315"
       sodipodi:nodetypes="ccccc" />
    <path
       d="M 8.7879269,10.712244 9.7212893,9.7198573 6.3499071,6.3500581 7.5831679,10.946392 Z"
       style="fill:#32d439;fill-opacity:1;stroke-width:0.529167;stroke-linecap:round;stroke-linejoin:round"
       id="path42328" />
    <path
       d="M 6.3145297,11.409611 5.1166466,10.946392 6.3499071,6.3500581 7.5831679,10.946392 Z"
       style="fill:#3ed4f0;fill-opacity:1;stroke-width:0.529167;stroke-linecap:round;stroke-linejoin:round"
       id="path19812"
       sodipodi:nodetypes="ccccc" />
    <path
       d="M 6.3145297,1.1586105 5.1166466,1.7537246 6.3499071,6.3500582 7.5831679,1.7537246 Z"
       style="fill:#ee332c;fill-opacity:1;stroke-width:0.529167;stroke-linecap:round;stroke-linejoin:round"
       id="path22659"
       sodipodi:nodetypes="ccccc" />
    <path
       d="M 8.9818176,1.8559775 7.5831679,1.7537245 6.3499071,6.3500581 9.7212893,2.9802582 Z"
       style="fill:#fa7c1a;fill-opacity:1;stroke-width:0.529167;stroke-linecap:round;stroke-linejoin:round"
       id="path30307"
       sodipodi:nodetypes="ccccc" />
    <path
       d="m 10.758652,3.6312361 0.18885,1.485247 -4.5975949,1.233575 3.3713822,-3.3697999 z"
       style="fill:#f7ac1b;fill-opacity:1;stroke-width:0.529167;stroke-linecap:round;stroke-linejoin:round"
       id="path30427"
       sodipodi:nodetypes="ccccc" />
    <path
       d="M 11.287819,6.3500579 10.947502,7.5836327 6.3499071,6.3500581 10.947502,5.1164831 Z"
       style="fill:#ffe600;fill-opacity:1;stroke-width:0.529167;stroke-linecap:round;stroke-linejoin:round"
       id="path33822"
       sodipodi:nodetypes="ccccc" />
  </g>
  <path
     id="path1283"
     style="color:#000000;fill:#fcfcfc;fill-opacity:1;stroke:none;stroke-width:0.129065;stroke-linejoin:round;-inkscape-stroke:none"
     d="M 3.1750001,0.52916668 C 1.7137467,0.52916692 0.52916689,1.7137466 0.52916668,3.175 c 2.1e-7,1.4612533 1.18458002,2.6458332 2.64583342,2.6458334 1.4612533,-2e-7 2.6458334,-1.1845801 2.6458334,-2.6458334 0,-1.4612534 -1.1845801,-2.64583308 -2.6458334,-2.64583332 z m 0,0.52916672 A 2.1166668,2.1166668 0 0 1 5.2916668,3.175 2.1166668,2.1166668 0 0 1 3.1750001,5.2916668 2.1166668,2.1166668 0 0 1 1.0583334,3.175 2.1166668,2.1166668 0 0 1 3.1750001,1.0583334 Z" />
  <path
     id="path1281"
     style="opacity:0.3;fill:#4f6698;fill-opacity:1;stroke:none;stroke-width:0.235185;stroke-linecap:round;stroke-linejoin:round"
     d="M 3.1750001,1.0583334 C 2.0059975,1.0583333 1.0583333,2.0059973 1.0583334,3.175 c -1e-7,1.1690028 0.9476641,2.1166668 2.1166667,2.1166668 1.169003,0 2.1166667,-0.947664 2.1166667,-2.1166668 0,-1.1690027 -0.9476637,-2.1166667 -2.1166667,-2.1166666 z m 0,0.2645833 c 1.0228776,0 1.8520834,0.8292059 1.8520834,1.8520833 0,1.0228774 -0.8292058,1.8520834 -1.8520834,1.8520834 -1.0228773,0 -1.8520834,-0.829206 -1.8520834,-1.8520834 0,-1.0228774 0.8292061,-1.8520833 1.8520834,-1.8520833 z" />
  <circle
     style="opacity:0.25;fill:#ffffff;fill-opacity:1;stroke:none;stroke-width:0.235185;stroke-linecap:round;stroke-linejoin:round"
     id="path1593"
     cx="3.1750002"
     cy="3.1750002"
     r="2.1166668" />
</svg>
