<?xml version="1.0" encoding="UTF-8" standalone="no"?>
<!-- Created with Inkscape (http://www.inkscape.org/) -->

<svg
   width="24"
   height="24"
   viewBox="0 0 6.35 6.3500003"
   version="1.1"
   id="svg5"
   inkscape:version="1.1.2 (0a00cf5339, 2022-02-04, custom)"
   sodipodi:docname="preferences-system-startup.svg"
   xmlns:inkscape="http://www.inkscape.org/namespaces/inkscape"
   xmlns:sodipodi="http://sodipodi.sourceforge.net/DTD/sodipodi-0.dtd"
   xmlns:xlink="http://www.w3.org/1999/xlink"
   xmlns="http://www.w3.org/2000/svg"
   xmlns:svg="http://www.w3.org/2000/svg">
  <sodipodi:namedview
     id="namedview7"
     pagecolor="#ffffff"
     bordercolor="#666666"
     borderopacity="1.0"
     inkscape:pageshadow="2"
     inkscape:pageopacity="0.0"
     inkscape:pagecheckerboard="0"
     inkscape:document-units="px"
     showgrid="false"
     units="px"
     height="64px"
     inkscape:zoom="33.291667"
     inkscape:cx="12"
     inkscape:cy="12"
     inkscape:window-width="1920"
     inkscape:window-height="1019"
     inkscape:window-x="0"
     inkscape:window-y="31"
     inkscape:window-maximized="1"
     inkscape:current-layer="svg5"
     showguides="false" />
  <defs
     id="defs2">
    <linearGradient
       inkscape:collect="always"
       id="linearGradient2155">
      <stop
         style="stop-color:#f0f0f0;stop-opacity:1;"
         offset="0"
         id="stop2151" />
      <stop
         style="stop-color:#f3f3f3;stop-opacity:0"
         offset="1"
         id="stop2153" />
    </linearGradient>
    <linearGradient
       inkscape:collect="always"
       id="linearGradient1431">
      <stop
         style="stop-color:#fcfcfc;stop-opacity:1;"
         offset="0"
         id="stop1427" />
      <stop
         style="stop-color:#f0f0f0;stop-opacity:1"
         offset="1"
         id="stop1429" />
    </linearGradient>
    <linearGradient
       inkscape:collect="always"
       xlink:href="#linearGradient1431"
       id="linearGradient1433"
       x1="3.1750002"
       y1="3.96875"
       x2="3.1750002"
       y2="1.3229167"
       gradientUnits="userSpaceOnUse"
       gradientTransform="scale(3.7795275)" />
    <linearGradient
       inkscape:collect="always"
       xlink:href="#linearGradient2155"
       id="linearGradient2157"
       x1="3.9232748"
       y1="3.3941081"
       x2="3.1750002"
       y2="2.6458335"
       gradientUnits="userSpaceOnUse" />
  </defs>
  <path
     id="path1233"
     style="color:#000000;opacity:0.3;fill:#42557f;fill-opacity:1;stroke:none;stroke-width:0.066146;-inkscape-stroke:none"
     d="m 2.3812502,4.2333334 v 0.79375 h -0.529167 v 0.79375 h 2.6458335 v -0.79375 H 3.96875 V 4.2333333 Z"
     sodipodi:nodetypes="ccccccccc" />
  <path
     id="rect950"
     style="fill:#fafafa;fill-opacity:1;stroke-width:0.0630675;stroke-linejoin:round"
     d="M 2.6458335,4.2333334 V 5.2916668 H 2.1166672 v 0.2645831 h 2.1166665 l -3e-7,-0.2645831 H 3.7041667 V 4.2333334 Z"
     sodipodi:nodetypes="ccccccccc" />
  <path
     id="rect3650"
     style="opacity:1;fill:#252831;stroke-width:0.264583;stroke-linejoin:round"
     d="M 0.52916669,0.52916668 H 5.8208335 c 0.1465792,0 0.2645834,0.11800417 0.2645834,0.26458335 V 4.4979166 c 0,0.1465791 -0.1180042,0.2645833 -0.2645834,0.2645833 H 0.52916669 c -0.14657918,0 -0.26458335,-0.1180042 -0.26458335,-0.2645833 V 0.79375003 c 0,-0.14657918 0.11800417,-0.26458335 0.26458335,-0.26458335 z"
     sodipodi:nodetypes="sssssssss" />
  <path
     id="rect3862"
     style="opacity:1;fill:#414757;stroke-width:0.264583;stroke-linejoin:round"
     d="M 0.52916669,0.79375003 H 5.8208333 V 4.4979166 H 0.52916669 Z"
     sodipodi:nodetypes="ccccc" />
  <path
     id="rect6269"
     style="opacity:1;fill:#5294e2;stroke-width:0.264583;stroke-linejoin:round"
     d="M 0.79375004,1.0583334 H 5.55625 V 4.2333333 H 0.79375004 Z"
     sodipodi:nodetypes="ccccc" />
  <path
     id="path1255"
     style="opacity:1;fill:url(#linearGradient1433);fill-opacity:1;stroke-width:1.25;stroke-linecap:square"
     d="M 12 5 C 9.2385763 5.0000001 7.0000001 7.2385763 7 10 C 7.0000001 12.761424 9.2385763 15 12 15 C 13.380712 15 14.630334 14.439978 15.535156 13.535156 L 14.828125 12.828125 C 14.104267 13.551983 13.10457 14 12 14 C 9.790861 14 8.0000001 12.209139 8 10 C 8.0000001 7.790861 9.790861 6.0000001 12 6 L 12 5 z "
     transform="scale(0.26458334)" />
  <path
     d="m 3.1750001,1.3229167 c -0.7306267,0 -1.3229166,0.59229 -1.3229167,1.3229167 1e-7,0.7306268 0.59229,1.3229167 1.3229167,1.3229167 0.7306268,0 1.3229167,-0.5922899 1.3229167,-1.3229167 0,-0.7306267 -0.5922899,-1.3229167 -1.3229167,-1.3229167 z m 0,0.2645833 c 0.5845014,0 1.0583334,0.473832 1.0583334,1.0583334 0,0.5845014 -0.473832,1.0583334 -1.0583334,1.0583334 -0.5845013,0 -1.0583333,-0.473832 -1.0583333,-1.0583334 0,-0.5845014 0.473832,-1.0583334 1.0583333,-1.0583334 z"
     style="opacity:1;fill:url(#linearGradient2157);fill-opacity:1;stroke-width:0.330729;stroke-linecap:square"
     id="path2000" />
</svg>
