<?xml version="1.0" encoding="UTF-8" standalone="no"?>
<!-- Created with Inkscape (http://www.inkscape.org/) -->

<svg
   width="24"
   height="24"
   viewBox="0 0 6.35 6.3500003"
   version="1.1"
   id="svg5"
   inkscape:version="1.1.2 (0a00cf5339, 2022-02-04, custom)"
   sodipodi:docname="preferences-desktop-font-installer.svg"
   xmlns:inkscape="http://www.inkscape.org/namespaces/inkscape"
   xmlns:sodipodi="http://sodipodi.sourceforge.net/DTD/sodipodi-0.dtd"
   xmlns="http://www.w3.org/2000/svg"
   xmlns:svg="http://www.w3.org/2000/svg">
  <sodipodi:namedview
     id="namedview7"
     pagecolor="#ffffff"
     bordercolor="#666666"
     borderopacity="1.0"
     inkscape:pageshadow="2"
     inkscape:pageopacity="0.0"
     inkscape:pagecheckerboard="0"
     inkscape:document-units="px"
     showgrid="false"
     units="px"
     height="64px"
     inkscape:zoom="16.134891"
     inkscape:cx="9.296623"
     inkscape:cy="18.159404"
     inkscape:window-width="1920"
     inkscape:window-height="1026"
     inkscape:window-x="0"
     inkscape:window-y="0"
     inkscape:window-maximized="1"
     inkscape:current-layer="svg5"
     showguides="false" />
  <defs
     id="defs2" />
  <path
     id="rect1136"
     style="opacity:0.6;fill:#003ac8;fill-opacity:1;stroke-width:5.82084;stroke-linecap:round;stroke-linejoin:round"
     d="M 1.0583333,0.26458334 H 5.291667 c 0.4397375,0 0.79375,0.35401249 0.79375,0.79374996 V 5.291667 c 0,0.4397375 -0.3540125,0.79375 -0.79375,0.79375 H 1.0583333 c -0.43973747,0 -0.79374996,-0.3540125 -0.79374996,-0.79375 V 1.0583333 c 0,-0.43973747 0.35401249,-0.79374996 0.79374996,-0.79374996 z" />
  <path
     id="rect1469"
     style="opacity:1;fill:#7cb2ff;fill-opacity:1;stroke-width:0.529167;stroke-linecap:round;stroke-linejoin:round"
     d="m 1.0583334,0.52916668 h 4.2333335 c 0.2931584,0 0.5291667,0.23600834 0.5291667,0.52916672 v 4.2333335 c 0,0.2931583 -0.2360083,0.5291667 -0.5291667,0.5291667 H 1.0583334 c -0.29315837,0 -0.52916672,-0.2360084 -0.52916672,-0.5291667 V 1.0583334 c 0,-0.29315838 0.23600835,-0.52916672 0.52916672,-0.52916672 z" />
  <path
     id="path1393"
     style="opacity:0.15;fill:#0000ff;fill-opacity:1;stroke-width:0.264583"
     d="m 1.0583334,0.52916668 c -0.29315836,0 -0.52916672,0.23600829 -0.52916672,0.52916672 V 3.5553386 A 4.7625004,4.7625004 0 0 0 3.9687501,5.0270834 4.7625004,4.7625004 0 0 0 5.8208335,4.6488118 V 1.0583334 c 0,-0.29315843 -0.2360084,-0.52916672 -0.5291667,-0.52916672 z" />
  <path
     id="path1637"
     style="opacity:1;fill:#ffffff;stroke-width:0.220486"
     d="m 1.8520834,1.0583334 c 0,0.7306266 0.59229,1.3229166 1.3229167,1.3229166 0.7306265,0 1.3229167,-0.59229 1.3229167,-1.3229166 H 4.2333334 c 0,0.5845012 -0.4738319,1.0583333 -1.0583333,1.0583333 -0.5845013,0 -1.0583334,-0.4738321 -1.0583334,-1.0583333 z" />
  <path
     id="path8181"
     style="font-weight:500;font-size:9.03016px;line-height:1.25;font-family:'Google Sans';-inkscape-font-specification:'Google Sans Medium';fill:#f9f9f9;fill-opacity:1;stroke-width:0.0790144"
     d="M 2.1731754,2.9104167 1.3229167,5.1734321 H 1.7148568 L 1.9203224,4.5950175 h 0.9133814 l 0.2022101,0.5784146 h 0.39194 L 2.5775952,2.9104167 Z m 0.1928049,0.4203361 h 0.01881 L 2.4734153,3.593011 2.7136075,4.2663811 H 2.0371629 L 2.277355,3.593011 Z m 1.9309423,0.1801443 c -0.1390645,0 -0.2654994,0.02733 -0.3792793,0.082114 -0.1137802,0.054783 -0.2063543,0.1317562 -0.2779935,0.230787 l 0.2432669,0.1864745 c 0.044248,-0.063211 0.1021744,-0.1126727 0.1738138,-0.1484923 0.073746,-0.03582 0.1516871,-0.053718 0.2338618,-0.053718 0.1158869,0 0.2107583,0.031564 0.2845048,0.094775 0.073747,0.061104 0.110691,0.1411613 0.110691,0.2401922 v 0.082114 C 4.6415401,4.2040728 4.5814973,4.1852071 4.505644,4.1683508 4.4297907,4.1493877 4.3443521,4.1399546 4.2495354,4.1399546 c -0.1917407,0 -0.3507065,0.048313 -0.4771287,0.1452367 -0.1243153,0.096924 -0.1864746,0.2287397 -0.1864746,0.3951957 0,0.1053519 0.025215,0.2000425 0.075784,0.2843239 0.050569,0.082174 0.1211934,0.1464499 0.2117959,0.1928049 0.090603,0.044248 0.1937582,0.066378 0.3096454,0.066378 0.1095659,0 0.2065534,-0.023098 0.290835,-0.069453 C 4.5582734,5.1080858 4.623517,5.0501591 4.6698722,4.980627 h 0.015915 V 5.1734319 H 5.0270834 V 4.1683508 C 5.0270834,3.959754 4.9639564,3.798491 4.8375343,3.6847109 4.7111137,3.5688238 4.5308041,3.5108971 4.2969226,3.5108971 Z m 0.018991,0.8943903 c 0.069533,0 0.1359241,0.00846 0.1991353,0.025321 0.065319,0.016857 0.1222771,0.038987 0.1707391,0.066378 0,0.07796 -0.019047,0.1507012 -0.056974,0.2181263 -0.037927,0.067426 -0.090472,0.1211195 -0.1578974,0.1611532 -0.067426,0.040034 -0.1434305,0.060048 -0.2277122,0.060048 -0.090603,0 -0.1643112,-0.023098 -0.2212011,-0.069453 -0.05689,-0.048462 -0.08537,-0.1096535 -0.08537,-0.1833998 0,-0.082174 0.030596,-0.1485662 0.0917,-0.1991352 0.061104,-0.052676 0.156943,-0.079039 0.2875803,-0.079039 z" />
</svg>
