<?xml version="1.0" encoding="UTF-8" standalone="no"?>
<!-- Created with Inkscape (http://www.inkscape.org/) -->

<svg
   width="24"
   height="24"
   viewBox="0 0 6.35 6.3500003"
   version="1.1"
   id="svg5"
   inkscape:version="1.1.2 (0a00cf5339, 2022-02-04, custom)"
   sodipodi:docname="preferences-desktop.svg"
   xmlns:inkscape="http://www.inkscape.org/namespaces/inkscape"
   xmlns:sodipodi="http://sodipodi.sourceforge.net/DTD/sodipodi-0.dtd"
   xmlns="http://www.w3.org/2000/svg"
   xmlns:svg="http://www.w3.org/2000/svg">
  <sodipodi:namedview
     id="namedview7"
     pagecolor="#ffffff"
     bordercolor="#666666"
     borderopacity="1.0"
     inkscape:pageshadow="2"
     inkscape:pageopacity="0.0"
     inkscape:pagecheckerboard="0"
     inkscape:document-units="px"
     showgrid="false"
     units="px"
     height="64px"
     inkscape:zoom="9.1590909"
     inkscape:cx="3.7667494"
     inkscape:cy="17.578164"
     inkscape:window-width="1851"
     inkscape:window-height="1009"
     inkscape:window-x="69"
     inkscape:window-y="31"
     inkscape:window-maximized="1"
     inkscape:current-layer="svg5"
     showguides="true" />
  <defs
     id="defs2" />
  <path
     id="rect937"
     style="opacity:0.35;fill:#555761;fill-opacity:1;stroke-width:0.264583;stroke-linecap:round;stroke-linejoin:round"
     d="M 0.79375002,0.26458334 H 5.5562503 c 0.2931583,0 0.5291667,0.23600835 0.5291667,0.5291667 V 5.5562503 c 0,0.2931584 -0.2360084,0.5291667 -0.5291667,0.5291667 H 0.79375002 C 0.50059162,6.0854169 0.26458334,5.8494086 0.26458334,5.5562503 V 0.79375004 c 0,-0.29315835 0.23600828,-0.5291667 0.52916668,-0.5291667 z"
     sodipodi:nodetypes="sssssssss" />
  <path
     id="rect1273"
     style="fill:#f9f9f9;fill-opacity:1;stroke-width:0.264583;stroke-linecap:round;stroke-linejoin:round"
     d="M 0.79375002,0.52916669 H 5.55625 c 0.1465792,0 0.2645834,0.11800417 0.2645834,0.26458335 V 5.5562503 c 0,0.1465792 -0.1180042,0.2645834 -0.2645834,0.2645834 H 0.79375002 c -0.1465792,0 -0.2645834,-0.1180042 -0.2645834,-0.2645834 V 0.79375004 c 0,-0.14657918 0.1180042,-0.26458335 0.2645834,-0.26458335 z"
     sodipodi:nodetypes="sssssssss" />
  <path
     id="rect1446"
     style="opacity:0.75;fill:#b3b3b3;stroke-width:0.264583;stroke-linecap:round;stroke-linejoin:round"
     d="m 1.9843748,1.5875001 c 0.2198686,0 0.3968749,0.1770063 0.3968749,0.3968751 V 4.7625 c 0,0.2198691 -0.1770063,0.3968751 -0.3968749,0.3968751 -0.2198688,0 -0.3968751,-0.177006 -0.3968751,-0.3968751 V 1.9843752 c 0,-0.2198688 0.1770063,-0.3968751 0.3968751,-0.3968751 z"
     sodipodi:nodetypes="sssssss" />
  <circle
     style="fill:#1987d7;fill-opacity:1;stroke-width:0.231509;stroke-linecap:round;stroke-linejoin:round"
     id="path928"
     cx="1.984375"
     cy="1.9843751"
     r="0.92604166" />
  <circle
     style="fill:#45a4e9;fill-opacity:1;stroke-width:0.188989;stroke-linecap:round;stroke-linejoin:round"
     id="path1062"
     cx="1.984375"
     cy="1.9843746"
     r="0.66145837" />
  <path
     id="rect6961"
     style="opacity:0.75;fill:#b3b3b3;stroke-width:0.264583;stroke-linecap:round;stroke-linejoin:round"
     d="m 4.3656261,1.0583334 c 0.219869,0 0.3968751,0.1770062 0.3968751,0.3968748 v 3.1749983 c 0,0.2198691 -0.1770061,0.3968749 -0.3968751,0.3968749 -0.2198689,0 -0.3968749,-0.1770058 -0.3968749,-0.3968749 V 1.4552082 c 0,-0.2198686 0.177006,-0.3968748 0.3968749,-0.3968748 z"
     sodipodi:nodetypes="sssssss" />
  <circle
     style="fill:#1987d7;fill-opacity:1;stroke-width:0.187781;stroke-linecap:round;stroke-linejoin:round"
     id="path1856"
     cx="4.3656249"
     cy="4.3656249"
     r="0.92604166" />
  <circle
     style="fill:#45a4e9;fill-opacity:1;stroke-width:0.188989;stroke-linecap:round;stroke-linejoin:round"
     id="path6611"
     cx="4.3656249"
     cy="4.365623"
     r="0.66145837" />
</svg>
