<?xml version="1.0" encoding="UTF-8" standalone="no"?>
<!-- Created with Inkscape (http://www.inkscape.org/) -->

<svg
   width="24"
   height="24"
   viewBox="0 0 6.35 6.3500003"
   version="1.1"
   id="svg5"
   inkscape:version="1.1.2 (0a00cf5339, 2022-02-04, custom)"
   sodipodi:docname="preferences-system-privacy.svg"
   xmlns:inkscape="http://www.inkscape.org/namespaces/inkscape"
   xmlns:sodipodi="http://sodipodi.sourceforge.net/DTD/sodipodi-0.dtd"
   xmlns="http://www.w3.org/2000/svg"
   xmlns:svg="http://www.w3.org/2000/svg">
  <sodipodi:namedview
     id="namedview7"
     pagecolor="#ffffff"
     bordercolor="#666666"
     borderopacity="1.0"
     inkscape:pageshadow="2"
     inkscape:pageopacity="0.0"
     inkscape:pagecheckerboard="0"
     inkscape:document-units="px"
     showgrid="false"
     units="px"
     height="64px"
     inkscape:zoom="33.583333"
     inkscape:cx="11.985112"
     inkscape:cy="12"
     inkscape:window-width="1851"
     inkscape:window-height="1009"
     inkscape:window-x="69"
     inkscape:window-y="31"
     inkscape:window-maximized="1"
     inkscape:current-layer="svg5"
     showguides="false" />
  <defs
     id="defs2" />
  <path
     id="rect1136"
     style="opacity:0.8;fill:#000000;stroke-width:5.82084;stroke-linecap:round;stroke-linejoin:round"
     d="M 1.0583333,0.26458334 H 5.291667 c 0.4397375,0 0.79375,0.35401249 0.79375,0.79374996 V 5.291667 c 0,0.4397375 -0.3540125,0.79375 -0.79375,0.79375 H 1.0583333 c -0.43973747,0 -0.79374996,-0.3540125 -0.79374996,-0.79375 V 1.0583333 c 0,-0.43973747 0.35401249,-0.79374996 0.79374996,-0.79374996 z" />
  <path
     id="rect1469"
     style="opacity:1;fill:#4d4d4d;fill-opacity:1;stroke-width:0.529167;stroke-linecap:round;stroke-linejoin:round"
     d="m 1.0583334,0.52916668 h 4.2333335 c 0.2931584,0 0.5291667,0.23600834 0.5291667,0.52916672 v 4.2333335 c 0,0.2931583 -0.2360083,0.5291667 -0.5291667,0.5291667 H 1.0583334 c -0.29315837,0 -0.52916672,-0.2360084 -0.52916672,-0.5291667 V 1.0583334 c 0,-0.29315838 0.23600835,-0.52916672 0.52916672,-0.52916672 z" />
  <circle
     style="opacity:0.15;fill:#ffffff;fill-opacity:1;stroke-width:0.529167;stroke-linecap:round;stroke-linejoin:round"
     id="path1151"
     cx="3.1750002"
     cy="3.1750002"
     r="2.1166668" />
  <circle
     style="opacity:0.25;fill:#ffffff;fill-opacity:1;stroke-width:0.529167;stroke-linecap:round;stroke-linejoin:round"
     id="path1295"
     cx="3.175"
     cy="3.175"
     r="1.5875001" />
  <path
     id="path1421"
     style="opacity:1;fill:#ffffff;fill-opacity:1;stroke-width:2.66667;stroke-linecap:round;stroke-linejoin:round"
     d="M 12 6 L 10.458984 8.3125 A 4.0000001 4.0000001 0 0 0 8 12 A 4.0000001 4.0000001 0 0 0 12 16 A 4.0000001 4.0000001 0 0 0 16 12 A 4.0000001 4.0000001 0 0 0 13.539062 8.3085938 L 12 6 z "
     transform="scale(0.26458334)" />
</svg>
