<?xml version="1.0" encoding="UTF-8" standalone="no"?>
<!-- Created with Inkscape (http://www.inkscape.org/) -->

<svg
   width="24"
   height="24"
   viewBox="0 0 6.35 6.3500003"
   version="1.1"
   id="svg5"
   inkscape:version="1.1.2 (0a00cf5339, 2022-02-04, custom)"
   sodipodi:docname="preferences-desktop-font.svg"
   xmlns:inkscape="http://www.inkscape.org/namespaces/inkscape"
   xmlns:sodipodi="http://sodipodi.sourceforge.net/DTD/sodipodi-0.dtd"
   xmlns="http://www.w3.org/2000/svg"
   xmlns:svg="http://www.w3.org/2000/svg">
  <sodipodi:namedview
     id="namedview7"
     pagecolor="#ffffff"
     bordercolor="#666666"
     borderopacity="1.0"
     inkscape:pageshadow="2"
     inkscape:pageopacity="0.0"
     inkscape:pagecheckerboard="0"
     inkscape:document-units="px"
     showgrid="false"
     units="px"
     height="64px"
     inkscape:zoom="33.583333"
     inkscape:cx="11.985112"
     inkscape:cy="12"
     inkscape:window-width="1851"
     inkscape:window-height="1009"
     inkscape:window-x="69"
     inkscape:window-y="31"
     inkscape:window-maximized="1"
     inkscape:current-layer="svg5"
     showguides="true" />
  <defs
     id="defs2" />
  <path
     id="rect937"
     style="fill:#000000;fill-opacity:1;stroke-width:0.264583;stroke-linecap:round;stroke-linejoin:round;opacity:0.3"
     d="M 0.79375002,0.26458335 H 5.5562503 c 0.2931583,0 0.5291667,0.23600835 0.5291667,0.5291667 V 5.5562503 c 0,0.2931584 -0.2360084,0.5291667 -0.5291667,0.5291667 H 0.79375002 c -0.2931584,0 -0.52916668,-0.2360083 -0.52916668,-0.5291667 V 0.79375005 c 0,-0.29315835 0.23600828,-0.5291667 0.52916668,-0.5291667 z"
     sodipodi:nodetypes="sssssssss" />
  <path
     id="rect1273"
     style="fill:#fafafa;fill-opacity:1;stroke-width:0.264583;stroke-linecap:round;stroke-linejoin:round"
     d="M 0.79375002,0.5291667 H 5.55625 c 0.1465792,0 0.2645834,0.11800417 0.2645834,0.26458335 V 5.5562503 c 0,0.1465792 -0.1180042,0.2645834 -0.2645834,0.2645834 H 0.79375002 c -0.1465792,0 -0.2645834,-0.1180042 -0.2645834,-0.2645834 V 0.79375005 c 0,-0.14657918 0.1180042,-0.26458335 0.2645834,-0.26458335 z"
     sodipodi:nodetypes="sssssssss" />
  <path
     id="path8181"
     style="font-weight:500;font-size:9.03016px;line-height:1.25;font-family:'Google Sans';-inkscape-font-specification:'Google Sans Medium';fill:#666666;fill-opacity:1;stroke-width:0.10159"
     d="M 1.8869396,1.5875 0.79375002,4.4970912 H 1.2976729 L 1.561843,3.7534153 h 1.1743474 l 0.2599843,0.7436759 h 0.503923 L 2.4069081,1.5875 Z m 0.2478919,0.5404323 h 0.024185 l 0.1139464,0.337189 0.3088185,0.8657615 H 1.7120665 L 2.020885,2.4651213 Z m 2.4826404,0.231614 c -0.1787974,0 -0.3413565,0.03514 -0.4876449,0.105575 -0.1462887,0.070435 -0.2653126,0.1694009 -0.3574202,0.2967262 l 0.3127717,0.2397529 c 0.05689,-0.081271 0.1313671,-0.1448648 0.2234748,-0.1909186 0.094817,-0.046054 0.1950264,-0.069066 0.3006795,-0.069066 0.1489975,0 0.2709751,0.040582 0.365792,0.1218532 0.094817,0.078562 0.1423166,0.1814931 0.1423166,0.3088185 v 0.105575 c -0.05689,-0.02709 -0.1340879,-0.051346 -0.2316138,-0.073019 -0.097525,-0.024381 -0.2073751,-0.036509 -0.3292822,-0.036509 -0.2465237,0 -0.4509083,0.062117 -0.6134513,0.1867328 -0.1598338,0.1246163 -0.2397529,0.2940938 -0.2397529,0.5081087 0,0.1354525 0.032419,0.2571974 0.097436,0.3655594 0.065017,0.1056527 0.1558203,0.1882926 0.2723092,0.2478919 0.1164891,0.05689 0.2491177,0.085344 0.3981154,0.085344 0.1408704,0 0.2655687,-0.029698 0.3739308,-0.089297 0.1083616,-0.0596 0.1922456,-0.1340766 0.251845,-0.2234751 h 0.020461 v 0.2478919 h 0.438811 V 3.2048439 c 0,-0.2681958 -0.081163,-0.4755341 -0.2437062,-0.6218228 C 5.1500034,2.4340234 4.9181763,2.3595463 4.6174719,2.3595463 Z m 0.024417,1.1499303 c 0.089399,0 0.1747595,0.010883 0.2560311,0.032556 0.08398,0.021672 0.1572135,0.050126 0.2195214,0.085344 0,0.1002348 -0.024489,0.1937587 -0.073251,0.2804481 -0.048763,0.08669 -0.1163215,0.155725 -0.2030111,0.2071969 -0.086689,0.051472 -0.1844109,0.077205 -0.292773,0.077205 -0.1164892,0 -0.2112571,-0.029698 -0.2844014,-0.089297 -0.073144,-0.062309 -0.1097608,-0.1409837 -0.1097608,-0.2358003 0,-0.1056527 0.039338,-0.1910137 0.1178999,-0.2560309 0.078563,-0.067726 0.2017839,-0.1016218 0.3697449,-0.1016218 z" />
</svg>
