<?xml version="1.0" encoding="UTF-8" standalone="no"?>
<!-- Created with Inkscape (http://www.inkscape.org/) -->

<svg
   width="24"
   height="24"
   viewBox="0 0 6.35 6.3500003"
   version="1.1"
   id="svg5"
   inkscape:version="1.1.2 (0a00cf5339, 2022-02-04, custom)"
   sodipodi:docname="preferences-system-login.svg"
   xmlns:inkscape="http://www.inkscape.org/namespaces/inkscape"
   xmlns:sodipodi="http://sodipodi.sourceforge.net/DTD/sodipodi-0.dtd"
   xmlns="http://www.w3.org/2000/svg"
   xmlns:svg="http://www.w3.org/2000/svg">
  <sodipodi:namedview
     id="namedview7"
     pagecolor="#ffffff"
     bordercolor="#666666"
     borderopacity="1.0"
     inkscape:pageshadow="2"
     inkscape:pageopacity="0.0"
     inkscape:pagecheckerboard="0"
     inkscape:document-units="px"
     showgrid="false"
     units="px"
     height="64px"
     inkscape:zoom="11.613636"
     inkscape:cx="-6.7162427"
     inkscape:cy="15.843444"
     inkscape:window-width="1920"
     inkscape:window-height="1026"
     inkscape:window-x="0"
     inkscape:window-y="0"
     inkscape:window-maximized="1"
     inkscape:current-layer="svg5"
     showguides="false" />
  <defs
     id="defs2" />
  <path
     id="path1233"
     style="color:#000000;opacity:0.3;fill:#42557f;fill-opacity:1;stroke:none;stroke-width:0.066146;-inkscape-stroke:none"
     d="m 2.3812502,4.2333334 v 0.79375 h -0.529167 v 0.79375 h 2.6458335 v -0.79375 H 3.96875 V 4.2333333 Z"
     sodipodi:nodetypes="ccccccccc" />
  <path
     id="rect950"
     style="fill:#fafafa;fill-opacity:1;stroke-width:0.0630675;stroke-linejoin:round"
     d="M 2.6458335,4.2333334 V 5.2916668 H 2.1166672 v 0.2645831 h 2.1166665 l -3e-7,-0.2645831 H 3.7041667 V 4.2333334 Z"
     sodipodi:nodetypes="ccccccccc" />
  <path
     id="rect3650"
     style="opacity:1;fill:#252831;stroke-width:0.264583;stroke-linejoin:round"
     d="M 0.52916669,0.52916668 H 5.8208335 c 0.1465792,0 0.2645834,0.11800417 0.2645834,0.26458335 V 4.4979166 c 0,0.1465791 -0.1180042,0.2645833 -0.2645834,0.2645833 H 0.52916669 c -0.14657918,0 -0.26458335,-0.1180042 -0.26458335,-0.2645833 V 0.79375003 c 0,-0.14657918 0.11800417,-0.26458335 0.26458335,-0.26458335 z"
     sodipodi:nodetypes="sssssssss" />
  <path
     id="rect3862"
     style="opacity:1;fill:#414757;stroke-width:0.264583;stroke-linejoin:round"
     d="M 0.52916669,0.79375003 H 5.8208333 V 4.4979166 H 0.52916669 Z"
     sodipodi:nodetypes="ccccc" />
  <path
     id="rect6269"
     style="opacity:1;fill:#5294e2;stroke-width:0.264583;stroke-linejoin:round"
     d="M 0.79375004,1.0583334 H 5.55625 V 4.2333333 H 0.79375004 Z"
     sodipodi:nodetypes="ccccc" />
  <path
     id="rect10"
     d="M 1.3229167,1.5875 V 2.38125 H 5.0270835 V 1.5875 Z m 0,1.3229167 v 0.79375 h 3.7041668 v -0.79375 z"
     style="opacity:0.5;fill:#ffffff;stroke-width:0.264583"
     sodipodi:nodetypes="cccccccccc" />
  <path
     d="m 1.7197916,1.8520833 c -0.073062,0 -0.1322916,0.059229 -0.1322916,0.1322917 0,0.073063 0.059229,0.1322916 0.1322916,0.1322916 0.073063,0 0.1322917,-0.059229 0.1322917,-0.1322916 0,-0.073063 -0.059229,-0.1322917 -0.1322917,-0.1322917 z m 0,1.3229167 C 1.6467296,3.175 1.5875,3.234229 1.5875,3.3072916 c 0,0.073063 0.059229,0.1322917 0.1322916,0.1322917 0.073063,0 0.1322917,-0.059229 0.1322917,-0.1322917 C 1.8520833,3.2342286 1.7928543,3.175 1.7197916,3.175 Z m 0.5291667,0 c -0.073063,0 -0.1322917,0.059229 -0.1322917,0.1322916 0,0.073063 0.059229,0.1322917 0.1322917,0.1322917 0.073063,0 0.1322917,-0.059229 0.1322917,-0.1322917 C 2.38125,3.2342286 2.322021,3.175 2.2489583,3.175 Z m 0.5291667,0 c -0.073063,0 -0.1322917,0.059229 -0.1322917,0.1322916 0,0.073063 0.059229,0.1322917 0.1322917,0.1322917 0.073063,0 0.1322917,-0.059229 0.1322917,-0.1322917 C 2.9104167,3.2342286 2.8511877,3.175 2.778125,3.175 Z"
     style="fill:#4d4d4d;stroke-width:0.264583"
     id="path912"
     sodipodi:nodetypes="ssssssssssssssssssss" />
</svg>
