<?xml version="1.0" encoding="UTF-8" standalone="no"?>
<!-- Created with Inkscape (http://www.inkscape.org/) -->

<svg
   width="24"
   height="24"
   viewBox="0 0 6.3499997 6.3500003"
   version="1.1"
   id="svg2469"
   inkscape:version="1.1.2 (0a00cf5339, 2022-02-04, custom)"
   sodipodi:docname="preferences-system-hotcornet.svg"
   xmlns:inkscape="http://www.inkscape.org/namespaces/inkscape"
   xmlns:sodipodi="http://sodipodi.sourceforge.net/DTD/sodipodi-0.dtd"
   xmlns="http://www.w3.org/2000/svg"
   xmlns:svg="http://www.w3.org/2000/svg">
  <sodipodi:namedview
     id="namedview2471"
     pagecolor="#ffffff"
     bordercolor="#666666"
     borderopacity="1.0"
     inkscape:pageshadow="2"
     inkscape:pageopacity="0.0"
     inkscape:pagecheckerboard="0"
     inkscape:document-units="px"
     showgrid="false"
     units="px"
     inkscape:zoom="33.583333"
     inkscape:cx="11.985112"
     inkscape:cy="14.382134"
     inkscape:window-width="1851"
     inkscape:window-height="1009"
     inkscape:window-x="69"
     inkscape:window-y="31"
     inkscape:window-maximized="1"
     inkscape:current-layer="svg2469" />
  <defs
     id="defs2466" />
  <path
     id="rect1358"
     style="opacity:1;fill:#4fa4f4;stroke-width:0.529167;stroke-linecap:round;stroke-linejoin:round"
     d="M 0.79374999,0.92604166 H 5.5562501 c 0.2198687,0 0.396875,0.17700624 0.396875,0.39687504 v 3.7041667 c 0,0.2198687 -0.1770063,0.396875 -0.396875,0.396875 H 0.79374999 c -0.21986875,0 -0.396875,-0.1770063 -0.396875,-0.396875 V 1.3229167 c 0,-0.2198688 0.17700625,-0.39687504 0.396875,-0.39687504 z" />
  <path
     id="path4529"
     style="opacity:0.15;fill:#000000;fill-opacity:1;stroke-width:0.198438;stroke-linecap:round"
     d="M 3 3.5 C 2.169 3.5 1.5 4.1689998 1.5 5 L 1.5 9.5 C 4.8137087 9.5 7.5000004 6.8137085 7.5 3.5 L 3 3.5 z "
     transform="scale(0.26458333)" />
  <path
     id="path4649"
     style="opacity:0.15;fill:#000000;fill-opacity:1;stroke-width:0.0350024;stroke-linecap:round"
     d="M 3 3.5 C 2.169 3.5 1.5 4.1689998 1.5 5 L 1.5 7.5 C 3.7091393 7.5 5.5000008 5.709139 5.5 3.5 L 3 3.5 z "
     transform="scale(0.26458333)" />
  <path
     id="path4529-3"
     style="opacity:0.15;fill:#000000;fill-opacity:1;stroke-width:0.198438;stroke-linecap:round"
     d="M 22.5 14.5 C 19.186291 14.5 16.5 17.186292 16.5 20.5 L 21 20.5 C 21.831 20.5 22.5 19.831 22.5 19 L 22.5 14.5 z "
     transform="scale(0.26458333)" />
  <path
     id="path4649-6"
     style="opacity:0.15;fill:#000000;fill-opacity:1;stroke-width:0.0350024;stroke-linecap:round"
     d="M 22.5 16.5 C 20.290861 16.5 18.499999 18.290861 18.5 20.5 L 21 20.5 C 21.831 20.5 22.5 19.831 22.5 19 L 22.5 16.5 z "
     transform="scale(0.26458333)" />
  <path
     id="rect2552"
     style="opacity:0.35;fill:#002eb9;fill-opacity:1;stroke-width:1.21731;stroke-linejoin:round"
     d="M 3,3 C 1.8919999,3 1,3.8920001 1,5 v 14 c 0,1.108 0.8919999,2 2,2 h 18 c 1.108,0 2,-0.892 2,-2 V 5 C 23,3.8920001 22.108,3 21,3 Z m 0,1 h 18 c 0.554,0 1,0.4459999 1,1 v 14 c 0,0.554 -0.446,1 -1,1 H 3 C 2.4459999,20 2,19.554 2,19 V 5 C 2,4.4459999 2.4459999,4 3,4 Z"
     transform="scale(0.26458333)"
     sodipodi:nodetypes="ssssssssssssssssss" />
</svg>
