<?xml version="1.0" encoding="UTF-8" standalone="no"?>
<!-- Created with Inkscape (http://www.inkscape.org/) -->

<svg
   width="24"
   height="24"
   viewBox="0 0 6.35 6.3500003"
   version="1.1"
   id="svg5"
   inkscape:version="1.1.2 (0a00cf5339, 2022-02-04, custom)"
   sodipodi:docname="system-software-install.svg"
   xmlns:inkscape="http://www.inkscape.org/namespaces/inkscape"
   xmlns:sodipodi="http://sodipodi.sourceforge.net/DTD/sodipodi-0.dtd"
   xmlns="http://www.w3.org/2000/svg"
   xmlns:svg="http://www.w3.org/2000/svg">
  <sodipodi:namedview
     id="namedview7"
     pagecolor="#ffffff"
     bordercolor="#666666"
     borderopacity="1.0"
     inkscape:pageshadow="2"
     inkscape:pageopacity="0.0"
     inkscape:pagecheckerboard="0"
     inkscape:document-units="px"
     showgrid="false"
     units="px"
     height="64px"
     inkscape:zoom="16.134891"
     inkscape:cx="-12.82934"
     inkscape:cy="18.159404"
     inkscape:window-width="1920"
     inkscape:window-height="1026"
     inkscape:window-x="0"
     inkscape:window-y="0"
     inkscape:window-maximized="1"
     inkscape:current-layer="svg5"
     showguides="false" />
  <defs
     id="defs2" />
  <path
     id="rect1136"
     style="opacity:0.6;fill:#003ac8;fill-opacity:1;stroke-width:5.82084;stroke-linecap:round;stroke-linejoin:round"
     d="M 1.0583333,0.26458334 H 5.291667 c 0.4397375,0 0.79375,0.35401249 0.79375,0.79374996 V 5.291667 c 0,0.4397375 -0.3540125,0.79375 -0.79375,0.79375 H 1.0583333 c -0.43973747,0 -0.79374996,-0.3540125 -0.79374996,-0.79375 V 1.0583333 c 0,-0.43973747 0.35401249,-0.79374996 0.79374996,-0.79374996 z" />
  <path
     id="rect1469"
     style="opacity:1;fill:#7cb2ff;fill-opacity:1;stroke-width:0.529167;stroke-linecap:round;stroke-linejoin:round"
     d="m 1.0583334,0.52916668 h 4.2333335 c 0.2931584,0 0.5291667,0.23600834 0.5291667,0.52916672 v 4.2333335 c 0,0.2931583 -0.2360083,0.5291667 -0.5291667,0.5291667 H 1.0583334 c -0.29315837,0 -0.52916672,-0.2360084 -0.52916672,-0.5291667 V 1.0583334 c 0,-0.29315838 0.23600835,-0.52916672 0.52916672,-0.52916672 z" />
  <path
     id="path1393"
     style="opacity:0.15;fill:#0000ff;fill-opacity:1;stroke-width:0.264583"
     d="m 1.0583334,0.52916668 c -0.29315836,0 -0.52916672,0.23600829 -0.52916672,0.52916672 V 3.5553386 A 4.7625004,4.7625004 0 0 0 3.9687501,5.0270834 4.7625004,4.7625004 0 0 0 5.8208335,4.6488118 V 1.0583334 c 0,-0.29315843 -0.2360084,-0.52916672 -0.5291667,-0.52916672 z" />
  <path
     id="path1637"
     style="opacity:1;fill:#ffffff;stroke-width:0.220486"
     d="m 1.8520834,1.0583334 c 0,0.7306266 0.59229,1.3229166 1.3229167,1.3229166 0.7306265,0 1.3229167,-0.59229 1.3229167,-1.3229166 H 4.2333334 c 0,0.5845012 -0.4738319,1.0583333 -1.0583333,1.0583333 -0.5845013,0 -1.0583334,-0.4738321 -1.0583334,-1.0583333 z" />
</svg>
