<?xml version="1.0" encoding="UTF-8" standalone="no"?>
<!-- Created with Inkscape (http://www.inkscape.org/) -->

<svg
   width="24"
   height="24"
   viewBox="0 0 6.3499997 6.3500004"
   version="1.1"
   id="svg2469"
   inkscape:version="1.1.2 (0a00cf5339, 2022-02-04, custom)"
   sodipodi:docname="xfce4-systray.svg"
   xmlns:inkscape="http://www.inkscape.org/namespaces/inkscape"
   xmlns:sodipodi="http://sodipodi.sourceforge.net/DTD/sodipodi-0.dtd"
   xmlns="http://www.w3.org/2000/svg"
   xmlns:svg="http://www.w3.org/2000/svg">
  <sodipodi:namedview
     id="namedview2471"
     pagecolor="#ffffff"
     bordercolor="#666666"
     borderopacity="1.0"
     inkscape:pageshadow="2"
     inkscape:pageopacity="0.0"
     inkscape:pagecheckerboard="0"
     inkscape:document-units="px"
     showgrid="false"
     units="px"
     inkscape:zoom="12.952911"
     inkscape:cx="8.7625092"
     inkscape:cy="14.822923"
     inkscape:window-width="1851"
     inkscape:window-height="1009"
     inkscape:window-x="69"
     inkscape:window-y="31"
     inkscape:window-maximized="1"
     inkscape:current-layer="svg2469" />
  <defs
     id="defs2466" />
  <path
     id="rect1358"
     style="opacity:1;fill:#e6e6e6;fill-opacity:1;stroke-width:0.529167;stroke-linecap:round;stroke-linejoin:round"
     d="M 0.79374999,0.92604167 H 5.5562501 c 0.2198687,0 0.396875,0.17700623 0.396875,0.39687503 v 3.7041667 c 0,0.2198687 -0.1770063,0.396875 -0.396875,0.396875 H 0.79374999 c -0.21986875,0 -0.396875,-0.1770063 -0.396875,-0.396875 V 1.3229167 c 0,-0.2198688 0.17700625,-0.39687503 0.396875,-0.39687503 z" />
  <path
     id="rect1730"
     style="opacity:1;fill:#f9f9f9;fill-opacity:1;stroke-width:0.264583;stroke-linejoin:round"
     d="m 0.79374999,0.92604167 c -0.21986875,0 -0.396875,0.17700613 -0.396875,0.39687493 V 3.96875 H 5.9531249 V 1.3229166 c 0,-0.2198688 -0.1770063,-0.39687493 -0.396875,-0.39687493 z"
     sodipodi:nodetypes="ssccsss" />
  <path
     id="rect2552"
     style="opacity:0.2;fill:#000000;fill-opacity:1;stroke-width:0.32208;stroke-linejoin:round"
     d="m 0.79374999,0.79375 c -0.29315836,0 -0.52916666,0.2360083 -0.52916666,0.5291666 v 3.7041667 c 0,0.2931583 0.2360083,0.5291666 0.52916666,0.5291666 H 5.5562499 c 0.2931583,0 0.5291667,-0.2360083 0.5291667,-0.5291666 V 1.3229166 C 6.0854166,1.0297583 5.8494082,0.79375 5.5562499,0.79375 Z m 0,0.2645833 H 5.5562499 c 0.1465792,0 0.2645833,0.1180042 0.2645833,0.2645833 v 3.7041667 c 0,0.1465791 -0.1180041,0.2645833 -0.2645833,0.2645833 H 0.79374999 c -0.14657919,0 -0.26458333,-0.1180042 -0.26458333,-0.2645833 V 1.3229166 c 0,-0.1465791 0.11800414,-0.2645833 0.26458333,-0.2645833 z"
     sodipodi:nodetypes="ssssssssssssssssss" />
  <rect
     style="opacity:0.15;fill:#000000;fill-opacity:1;stroke-width:0.529167;stroke-linecap:round;stroke-linejoin:round"
     id="rect1643"
     width="5.2916665"
     height="0.26458332"
     x="0.52916664"
     y="3.9687502" />
  <path
     id="rect2142"
     style="opacity:0.15;fill:#000000;fill-opacity:1;stroke-width:0.579673;stroke-linecap:round;stroke-linejoin:round"
     d="M 1.190625,4.3656249 A 0.396875,0.396875 0 0 0 0.79374999,4.7624999 0.396875,0.396875 0 0 0 1.190625,5.1593749 0.396875,0.396875 0 0 0 1.5875,4.7624999 0.396875,0.396875 0 0 0 1.190625,4.3656249 Z M 2.1166666,4.4979166 V 5.0270832 H 2.6458333 V 4.4979166 Z m 0.79375,0 V 5.0270832 H 3.4395833 V 4.4979166 Z m 1.0583334,0 V 5.0270832 H 5.5562499 V 4.4979166 Z" />
</svg>
