<?xml version="1.0" encoding="UTF-8" standalone="no"?>
<!-- Created with Inkscape (http://www.inkscape.org/) -->

<svg
   width="22"
   height="22"
   viewBox="0 0 5.8208331 5.8208336"
   version="1.1"
   id="svg2469"
   inkscape:version="1.1.2 (0a00cf5339, 2022-02-04, custom)"
   sodipodi:docname="folder-default-images.svg"
   xmlns:inkscape="http://www.inkscape.org/namespaces/inkscape"
   xmlns:sodipodi="http://sodipodi.sourceforge.net/DTD/sodipodi-0.dtd"
   xmlns="http://www.w3.org/2000/svg"
   xmlns:svg="http://www.w3.org/2000/svg">
  <sodipodi:namedview
     id="namedview2471"
     pagecolor="#ffffff"
     bordercolor="#666666"
     borderopacity="1.0"
     inkscape:pageshadow="2"
     inkscape:pageopacity="0.0"
     inkscape:pagecheckerboard="0"
     inkscape:document-units="px"
     showgrid="false"
     units="px"
     inkscape:zoom="19.045455"
     inkscape:cx="17.379475"
     inkscape:cy="22.052506"
     inkscape:window-width="1920"
     inkscape:window-height="1020"
     inkscape:window-x="0"
     inkscape:window-y="0"
     inkscape:window-maximized="1"
     inkscape:current-layer="svg2469"
     showguides="false" />
  <defs
     id="defs2466" />
  <path
     id="rect3166"
     style="opacity:0.45;fill:#4f6698;fill-opacity:1;stroke-width:0.264583;stroke-linejoin:round"
     d="M 1.308964,0.52921758 C 1.0221873,0.53643458 0.79374997,0.7698065 0.79374997,1.0583842 c -0.14657914,0 -0.2645833,0.1609435 -0.2645833,0.5291666 v 1.5875 c 0,0.1465792 0.11800416,0.2645833 0.2645833,0.2645833 H 5.0270833 c 0.1465792,0 0.2645833,-0.1180041 0.2645833,-0.2645833 v -1.5875 C 5.2916666,1.2953002 5.0547505,1.0583843 4.7625,1.0583842 H 2.6458333 c 0,-0.2931583 -0.2360083,-0.52916662 -0.5291666,-0.52916662 h -0.79375 c -0.00458,0 -0.0094,-1.1456e-4 -0.013953,0 z"
     sodipodi:nodetypes="scssssssscsss" />
  <path
     id="rect3604"
     style="fill:#ffffff;fill-opacity:1;stroke-width:0.264583;stroke-linejoin:round"
     d="m 1.3229167,0.79380091 c -0.1465792,0 -0.2645833,0.11800417 -0.2645833,0.26458329 v 0.2645833 c -0.14612533,0 -0.26458343,0.118458 -0.26458343,0.2645833 V 2.9104675 H 5.0270833 V 1.5875508 C 5.0270833,1.4414255 4.9086251,1.3229675 4.7625,1.3229675 H 2.38125 V 1.0583842 c 0,-0.14657912 -0.1180042,-0.26458329 -0.2645833,-0.26458329 z" />
  <path
     id="rect2552"
     style="opacity:0.6;fill:#4d4d4d;stroke-width:0.32208;stroke-linejoin:round"
     d="m 0.5291667,1.5875 h 4.7625002 c 0.2931583,0 0.5291667,0.2360083 0.5291667,0.5291666 v 2.9104167 c 0,0.2931584 -0.2360084,0.5291667 -0.5291667,0.5291667 H 0.5291667 C 0.23600835,5.55625 0,5.3202417 0,5.0270833 V 2.1166666 C 0,1.8235083 0.23600835,1.5875 0.5291667,1.5875 Z"
     sodipodi:nodetypes="sssssssss" />
  <path
     id="rect2686"
     style="fill:#b3b3b3;stroke-width:0.229136;stroke-linejoin:round"
     d="m 0.5291667,1.8520833 h 4.7625 c 0.1465791,0 0.2645833,0.1180041 0.2645833,0.2645833 v 2.9104167 c 0,0.1465792 -0.1180042,0.2645834 -0.2645833,0.2645834 h -4.7625 c -0.14657918,0 -0.26458335,-0.1180042 -0.26458335,-0.2645834 V 2.1166666 c 0,-0.1465792 0.11800417,-0.2645833 0.26458335,-0.2645833 z"
     sodipodi:nodetypes="sssssssss" />
  <path
     id="path2173"
     style="color:#000000;opacity:0.15;fill:#000000;stroke-width:0.999957;stroke-linecap:round;stroke-linejoin:round;-inkscape-stroke:none"
     d="m 9.0019531,10 -1,1 h -2 v 6.001953 H 15 V 11 H 13 L 12,10 Z M 10.5,11 C 11.880712,11 13,12.119288 13,13.5 13,14.880712 11.880712,16 10.5,16 9.1192881,16 7.9999999,14.880712 8,13.5 7.9999999,12.119288 9.1192881,11 10.5,11 Z"
     transform="scale(0.26458333)"
     sodipodi:nodetypes="cccccccccsssss" />
  <path
     id="path2175"
     style="color:#000000;fill:#000000;fill-opacity:0.3;stroke-width:3.77937;stroke-linecap:round;stroke-linejoin:round;-inkscape-stroke:none"
     d="M 8.9746094 9 C 8.850807 9.006637 8.7340819 9.0598318 8.6464844 9.1484375 L 7.796875 10.003906 L 5.5019531 10.003906 C 5.2273837 10.002773 5.0032862 10.223383 5 10.498047 L 5 17.505859 C 5.0032862 17.780523 5.2273837 18.001133 5.5019531 18 L 15.498047 18 C 15.772617 18.0011 15.996714 17.780523 16 17.505859 L 16 10.498047 C 15.9967 10.223383 15.772617 10.002773 15.498047 10.003906 L 13.210938 10.003906 L 12.353516 9.1484375 C 12.260079 9.0539247 12.132875 9.0005132 12 9 L 9 9 C 8.9916953 9.0000321 8.9828629 8.9995575 8.9746094 9 z M 9.0019531 10 L 12 10 L 13 11 C 13.0013 11.000005 13.002606 11.000005 13.003906 11 L 14.996094 11 L 15 11 L 15 17.001953 L 14.996094 17.001953 L 14.996094 17.003906 L 6.0039062 17.003906 L 6.0039062 17.001953 L 6.0019531 17.001953 L 6.0019531 11 L 6.0039062 11 L 8.0019531 11 L 8.0039062 11 L 9.0019531 10 z M 10.5 11 A 2.4999999 2.4999999 0 0 0 8 13.5 A 2.4999999 2.4999999 0 0 0 10.5 16 A 2.4999999 2.4999999 0 0 0 13 13.5 A 2.4999999 2.4999999 0 0 0 10.5 11 z M 10.5 12 A 1.5 1.5 0 0 1 12 13.5 A 1.5 1.5 0 0 1 10.5 15 A 1.5 1.5 0 0 1 9 13.5 A 1.5 1.5 0 0 1 10.5 12 z "
     transform="scale(0.26458333)" />
</svg>
