<?xml version="1.0" encoding="UTF-8" standalone="no"?>
<!-- Created with Inkscape (http://www.inkscape.org/) -->

<svg
   width="22"
   height="22"
   viewBox="0 0 5.8208331 5.8208336"
   version="1.1"
   id="svg2469"
   inkscape:version="1.1.2 (0a00cf5339, 2022-02-04, custom)"
   sodipodi:docname="folder-default-images-open.svg"
   xmlns:inkscape="http://www.inkscape.org/namespaces/inkscape"
   xmlns:sodipodi="http://sodipodi.sourceforge.net/DTD/sodipodi-0.dtd"
   xmlns="http://www.w3.org/2000/svg"
   xmlns:svg="http://www.w3.org/2000/svg">
  <sodipodi:namedview
     id="namedview2471"
     pagecolor="#ffffff"
     bordercolor="#666666"
     borderopacity="1.0"
     inkscape:pageshadow="2"
     inkscape:pageopacity="0.0"
     inkscape:pagecheckerboard="0"
     inkscape:document-units="px"
     showgrid="false"
     units="px"
     inkscape:zoom="38.090909"
     inkscape:cx="11"
     inkscape:cy="11"
     inkscape:window-width="1920"
     inkscape:window-height="1020"
     inkscape:window-x="0"
     inkscape:window-y="0"
     inkscape:window-maximized="1"
     inkscape:current-layer="svg2469"
     showguides="false" />
  <defs
     id="defs2466" />
  <path
     id="rect3166"
     style="opacity:0.45;fill:#4f6698;fill-opacity:1;stroke-width:0.264583;stroke-linejoin:round"
     d="M 1.308964,0.52921758 C 1.0221873,0.53643458 0.79374997,0.7698065 0.79374997,1.0583842 c -0.14657914,0 -0.2645833,0.1609435 -0.2645833,0.5291666 v 1.5875 c 0,0.1465792 0.11800416,0.2645833 0.2645833,0.2645833 H 5.0270833 c 0.1465792,0 0.2645833,-0.1180041 0.2645833,-0.2645833 v -1.5875 C 5.2916666,1.2953002 5.0547505,1.0583843 4.7625,1.0583842 H 2.6458333 c 0,-0.2931583 -0.2360083,-0.52916662 -0.5291666,-0.52916662 h -0.79375 c -0.00458,0 -0.0094,-1.1456e-4 -0.013953,0 z"
     sodipodi:nodetypes="scssssssscsss" />
  <path
     id="rect3604"
     style="fill:#ffffff;fill-opacity:1;stroke-width:0.264583;stroke-linejoin:round"
     d="m 1.3229167,0.79380091 c -0.1465792,0 -0.2645833,0.11800417 -0.2645833,0.26458329 v 0.2645833 c -0.14612533,0 -0.26458343,0.118458 -0.26458343,0.2645833 V 2.9104675 H 5.0270833 V 1.5875508 C 5.0270833,1.4414255 4.9086251,1.3229675 4.7625,1.3229675 H 2.38125 V 1.0583842 c 0,-0.14657912 -0.1180042,-0.26458329 -0.2645833,-0.26458329 z" />
  <path
     id="rect2552"
     style="opacity:0.6;fill:#793000;stroke-width:0.32208;stroke-linejoin:round"
     d="m 0.5291667,2.1166667 h 4.7625002 c 0.2931583,0 0.5291667,0.2360083 0.5291667,0.5291666 v 2.38125 c 0,0.2931584 -0.2360084,0.5291667 -0.5291667,0.5291667 H 0.5291667 C 0.23600835,5.55625 0,5.3202417 0,5.0270833 v -2.38125 C 0,2.352675 0.23600835,2.1166667 0.5291667,2.1166667 Z"
     sodipodi:nodetypes="sssssssss" />
  <path
     id="rect2686"
     style="fill:#e99e6b;stroke-width:0.229136;stroke-linejoin:round"
     d="m 0.5291667,2.38125 h 4.7625 c 0.1465791,0 0.2645833,0.1180041 0.2645833,0.2645833 v 2.38125 c 0,0.1465792 -0.1180042,0.2645834 -0.2645833,0.2645834 h -4.7625 c -0.14657918,0 -0.26458335,-0.1180042 -0.26458335,-0.2645834 v -2.38125 c 0,-0.1465792 0.11800417,-0.2645833 0.26458335,-0.2645833 z"
     sodipodi:nodetypes="sssssssss" />
  <path
     id="path2173"
     style="color:#000000;opacity:0.15;fill:#000000;stroke-width:0.264572;stroke-linecap:round;stroke-linejoin:round;-inkscape-stroke:none"
     d="M 2.3817667,2.9104669 2.1171834,3.1750502 H 1.5880167 V 4.7630669 H 3.96875 V 3.1750502 H 3.4395833 L 3.175,2.9104669 Z M 2.778125,3.1750502 c 0.3653134,0 0.6614584,0.296145 0.6614583,0.6614584 0,0.3653133 -0.296145,0.6614583 -0.6614583,0.6614583 -0.3653134,1e-7 -0.6614584,-0.2961449 -0.6614584,-0.6614583 -10e-8,-0.3653134 0.296145,-0.6614585 0.6614584,-0.6614584 z"
     sodipodi:nodetypes="cccccccccsssss" />
  <path
     id="path2175"
     style="color:#000000;fill:#000000;fill-opacity:0.3;stroke-width:0.999958;stroke-linecap:round;stroke-linejoin:round;-inkscape-stroke:none"
     d="m 2.374532,2.6458835 c -0.032756,0.00176 -0.063639,0.01583 -0.086816,0.039274 L 2.0629232,2.9115003 H 1.4557251 c -0.072647,-2.997e-4 -0.131939,0.05807 -0.1328085,0.1307415 V 4.896392 c 8.695e-4,0.072672 0.060162,0.1310413 0.1328085,0.1307415 h 2.6447998 c 0.072647,2.91e-4 0.131939,-0.05807 0.1328084,-0.1307415 V 3.0422418 C 4.2324602,2.9695703 4.1731715,2.9112006 4.1005249,2.9115003 H 3.495394 L 3.2685344,2.6851576 C 3.2438125,2.6601511 3.2101565,2.6460193 3.175,2.6458835 H 2.38125 c -0.0022,8.5e-6 -0.00453,-1.17e-4 -0.00672,0 z m 0.00723,0.2645834 H 3.175 l 0.2645833,0.2645833 c 3.439e-4,1.3e-6 6.895e-4,1.3e-6 0.00103,0 H 3.9677165 3.96875 V 4.7630669 H 3.96772 v 5.167e-4 H 1.5885335 V 4.7630669 H 1.5880167 V 3.1750502 h 5.168e-4 0.5286499 5.168e-4 z M 2.778125,3.1750502 A 0.6614583,0.6614583 0 0 0 2.1166666,3.8365085 0.6614583,0.6614583 0 0 0 2.778125,4.4979668 0.6614583,0.6614583 0 0 0 3.4395833,3.8365085 0.6614583,0.6614583 0 0 0 2.778125,3.1750502 Z m 0,0.2645833 A 0.396875,0.396875 0 0 1 3.175,3.8365085 0.396875,0.396875 0 0 1 2.778125,4.2333835 0.396875,0.396875 0 0 1 2.38125,3.8365085 0.396875,0.396875 0 0 1 2.778125,3.4396335 Z" />
</svg>
