<?xml version="1.0" encoding="UTF-8" standalone="no"?>
<!-- Created with Inkscape (http://www.inkscape.org/) -->

<svg
   width="22"
   height="22"
   viewBox="0 0 5.8208331 5.8208336"
   version="1.1"
   id="svg2469"
   inkscape:version="1.1.2 (0a00cf5339, 2022-02-04, custom)"
   sodipodi:docname="folder-green-open.svg"
   xmlns:inkscape="http://www.inkscape.org/namespaces/inkscape"
   xmlns:sodipodi="http://sodipodi.sourceforge.net/DTD/sodipodi-0.dtd"
   xmlns="http://www.w3.org/2000/svg"
   xmlns:svg="http://www.w3.org/2000/svg">
  <sodipodi:namedview
     id="namedview2471"
     pagecolor="#ffffff"
     bordercolor="#666666"
     borderopacity="1.0"
     inkscape:pageshadow="2"
     inkscape:pageopacity="0.0"
     inkscape:pagecheckerboard="0"
     inkscape:document-units="px"
     showgrid="false"
     units="px"
     inkscape:zoom="22.052632"
     inkscape:cx="8.2983293"
     inkscape:cy="13.422434"
     inkscape:window-width="1920"
     inkscape:window-height="1019"
     inkscape:window-x="0"
     inkscape:window-y="31"
     inkscape:window-maximized="1"
     inkscape:current-layer="svg2469"
     showguides="false"
     inkscape:lockguides="false" />
  <defs
     id="defs2466" />
  <path
     id="rect3166"
     style="opacity:0.45;fill:#4f6698;fill-opacity:1;stroke-width:0.264583;stroke-linejoin:round"
     d="M 1.308964,0.52921758 C 1.0221873,0.53643458 0.79374997,0.7698065 0.79374997,1.0583842 c -0.14657914,0 -0.2645833,0.1609435 -0.2645833,0.5291666 v 1.5875 c 0,0.1465792 0.11800416,0.2645833 0.2645833,0.2645833 H 5.0270833 c 0.1465792,0 0.2645833,-0.1180041 0.2645833,-0.2645833 v -1.5875 C 5.2916666,1.2953002 5.0547505,1.0583843 4.7625,1.0583842 H 2.6458333 c 0,-0.2931583 -0.2360083,-0.52916662 -0.5291666,-0.52916662 h -0.79375 c -0.00458,0 -0.0094,-1.1456e-4 -0.013953,0 z"
     sodipodi:nodetypes="scssssssscsss" />
  <path
     id="rect3604"
     style="fill:#ffffff;fill-opacity:1;stroke-width:0.264583;stroke-linejoin:round"
     d="m 1.3229167,0.79380091 c -0.1465792,0 -0.2645833,0.11800417 -0.2645833,0.26458329 v 0.2645833 c -0.14612533,0 -0.26458343,0.118458 -0.26458343,0.2645833 V 2.9104675 H 5.0270833 V 1.5875508 C 5.0270833,1.4414255 4.9086251,1.3229675 4.7625,1.3229675 H 2.38125 V 1.0583842 c 0,-0.14657912 -0.1180042,-0.26458329 -0.2645833,-0.26458329 z" />
  <path
     id="rect2552"
     style="opacity:0.6;fill:#276a23;fill-opacity:1;stroke-width:0.32208;stroke-linejoin:round"
     d="m 0.5291667,2.1166667 h 4.7625002 c 0.2931583,0 0.5291667,0.2360083 0.5291667,0.5291666 v 2.38125 c 0,0.2931584 -0.2360084,0.5291667 -0.5291667,0.5291667 H 0.5291667 C 0.23600835,5.55625 0,5.3202417 0,5.0270833 v -2.38125 C 0,2.352675 0.23600835,2.1166667 0.5291667,2.1166667 Z"
     sodipodi:nodetypes="sssssssss" />
  <path
     id="rect2686"
     style="fill:#82be6c;fill-opacity:1;stroke-width:0.229136;stroke-linejoin:round"
     d="m 0.5291667,2.38125 h 4.7625 c 0.1465791,0 0.2645833,0.1180041 0.2645833,0.2645833 v 2.38125 c 0,0.1465792 -0.1180042,0.2645834 -0.2645833,0.2645834 h -4.7625 c -0.14657918,0 -0.26458335,-0.1180042 -0.26458335,-0.2645834 v -2.38125 c 0,-0.1465792 0.11800417,-0.2645833 0.26458335,-0.2645833 z"
     sodipodi:nodetypes="sssssssss" />
</svg>
