<?xml version="1.0" encoding="UTF-8" standalone="no"?>
<!-- Created with Inkscape (http://www.inkscape.org/) -->

<svg
   width="64"
   height="64"
   viewBox="0 0 16.933333 16.933334"
   version="1.1"
   id="svg5"
   inkscape:version="1.1.2 (0a00cf5339, 2022-02-04, custom)"
   sodipodi:docname="desktop-environment-gnome.svg"
   xmlns:inkscape="http://www.inkscape.org/namespaces/inkscape"
   xmlns:sodipodi="http://sodipodi.sourceforge.net/DTD/sodipodi-0.dtd"
   xmlns:xlink="http://www.w3.org/1999/xlink"
   xmlns="http://www.w3.org/2000/svg"
   xmlns:svg="http://www.w3.org/2000/svg">
  <sodipodi:namedview
     id="namedview7"
     pagecolor="#ffffff"
     bordercolor="#666666"
     borderopacity="1.0"
     inkscape:pageshadow="2"
     inkscape:pageopacity="0.0"
     inkscape:pagecheckerboard="0"
     inkscape:document-units="px"
     showgrid="false"
     units="px"
     height="64px"
     inkscape:zoom="12.53125"
     inkscape:cx="32"
     inkscape:cy="32"
     inkscape:window-width="1920"
     inkscape:window-height="1020"
     inkscape:window-x="0"
     inkscape:window-y="32"
     inkscape:window-maximized="1"
     inkscape:current-layer="svg5" />
  <defs
     id="defs2">
    <linearGradient
       inkscape:collect="always"
       id="linearGradient2373">
      <stop
         style="stop-color:#53a2d1;stop-opacity:1"
         offset="0"
         id="stop2369" />
      <stop
         style="stop-color:#265fbc;stop-opacity:1"
         offset="1"
         id="stop2371" />
    </linearGradient>
    <linearGradient
       inkscape:collect="always"
       xlink:href="#linearGradient2373"
       id="linearGradient2375"
       x1="9.7895832"
       y1="16.933334"
       x2="9.7895842"
       y2="4.2529297e-07"
       gradientUnits="userSpaceOnUse" />
  </defs>
  <path
     id="rect846"
     style="fill:#51565b;stroke-width:1.03703"
     d="M 14 4 C 8.4599996 4 4 8.4599996 4 14 L 4 50 C 4 55.539997 8.4599996 60 14 60 L 50 60 C 55.539997 60 60 55.539997 60 50 L 60 14 C 60 8.4599996 55.539997 4 50 4 L 14 4 z M 15.285156 6 L 48.714844 6 C 53.859125 6 58 10.14087 58 15.285156 L 58 48.714844 C 58 53.859125 53.859125 58 48.714844 58 L 15.285156 58 C 10.14087 58 6 53.859125 6 48.714844 L 6 15.285156 C 6 10.14087 10.14087 6 15.285156 6 z "
     transform="scale(0.26458334)" />
  <path
     id="rect950"
     style="fill:url(#linearGradient2375);fill-opacity:1;stroke-width:0.264583"
     d="m 3.7041665,1.3229166 h 9.5250005 c 1.319213,0 2.38125,1.0620375 2.38125,2.3812499 v 9.5250005 c 0,1.319213 -1.062037,2.38125 -2.38125,2.38125 H 3.7041665 c -1.3192124,0 -2.3812499,-1.062037 -2.3812499,-2.38125 V 3.7041665 c 0,-1.3192124 1.0620375,-2.3812499 2.3812499,-2.3812499 z" />
  <path
     d="m 11.838299,3.4395834 c -2.0899171,0 -2.4811521,3.1748751 -1.306198,3.1748751 1.174956,0 3.396118,-3.1748751 1.306198,-3.1748751 z M 8.5209299,3.7995691 c -1.194953,0.1687436 -0.77497,2.4199052 -0.137494,2.4624031 0.634975,0.041249 1.333698,-2.6298965 0.137494,-2.4624031 z m -2.162415,0.6999727 c -0.06741,0.0075 -0.133458,0.024326 -0.1962418,0.049998 C 5.0435665,4.9745229 5.9922793,6.7269541 6.6197549,6.609459 7.2072319,6.4982131 7.2747289,4.4107953 6.3597649,4.5007914 Z M 4.8885725,5.9094863 C 4.7739961,5.908428 4.6615619,5.9405563 4.5648353,6.0019828 3.6448716,6.5444612 4.8748235,7.8544098 5.4148021,7.6519179 5.8897834,7.4731749 5.5872956,5.9294856 4.8885725,5.9082364 Z M 9.1784049,6.9681946 C 7.5322189,6.9381956 5.3598042,7.8031619 4.9898188,9.5380936 4.5885843,11.41677 6.6410039,14.022917 8.7834199,14.022917 c 1.053709,0 2.2686611,-0.99621 2.4961521,-2.257411 0.173744,-0.961212 -2.1849151,-0.574977 -2.1049171,0.06 0.06499,0.519979 -0.207492,0.789968 -0.582478,0.799969 -0.51248,-0.0625 -0.76247,-0.358736 -0.831217,-0.806219 C 7.6697099,10.646804 11.365821,9.8093362 11.073333,7.9906575 10.965837,7.3244335 10.167116,6.985697 9.1784049,6.9681975 Z"
     style="fill:#000000;stroke-width:0.0875004;opacity:0.2"
     id="path1655" />
  <path
     d="m 11.838299,3.175 c -2.0899165,0 -2.4811515,3.1748751 -1.306198,3.1748751 1.174956,0 3.396118,-3.1748751 1.306198,-3.1748751 z M 8.5209306,3.5349857 C 7.3259772,3.7037294 7.7459606,5.9548908 8.3834357,5.9973888 9.0184108,6.0386373 9.7171339,3.3674924 8.5209306,3.5349857 Z M 6.3585152,4.2349584 c -0.067414,0.0075 -0.1334585,0.024326 -0.1962421,0.049998 C 5.0435666,4.7099395 5.9922794,6.4623707 6.619755,6.3448755 7.2072318,6.2336297 7.2747291,4.1462119 6.3597651,4.2362081 Z M 4.8885727,5.644903 C 4.7739961,5.6438448 4.661562,5.675973 4.5648353,5.7373993 3.6448716,6.2798779 4.8748235,7.5898265 5.4148021,7.3873345 5.8897836,7.2085916 5.5872957,5.6649022 4.8885727,5.6436531 Z M 9.1784049,6.7036111 C 7.5322195,6.6736121 5.3598044,7.5385785 4.9898189,9.2735101 4.5885843,11.152187 6.6410041,13.758334 8.78342,13.758334 c 1.0537092,0 2.268661,-0.99621 2.496152,-2.257411 0.173744,-0.961212 -2.1849143,-0.574977 -2.1049171,0.06 0.064991,0.519979 -0.2074921,0.789968 -0.5824774,0.799969 -0.51248,-0.0625 -0.76247,-0.358736 -0.8312171,-0.806219 C 7.6697136,10.382221 11.365821,9.5447527 11.073333,7.7260741 10.965837,7.0598502 10.167116,6.7211137 9.1784049,6.7036141 Z"
     style="fill:#ffffff;stroke-width:0.33071"
     id="path858"
     sodipodi:nodetypes="ssscccccccccccccccsccccccc" />
</svg>
