<?xml version="1.0" encoding="UTF-8" standalone="no"?>
<!-- Created with Inkscape (http://www.inkscape.org/) -->

<svg
   width="64"
   height="64"
   viewBox="0 0 16.933333 16.933334"
   version="1.1"
   id="svg5"
   inkscape:version="1.1.2 (0a00cf5339, 2022-02-04, custom)"
   sodipodi:docname="google-chrome-beta.svg"
   xmlns:inkscape="http://www.inkscape.org/namespaces/inkscape"
   xmlns:sodipodi="http://sodipodi.sourceforge.net/DTD/sodipodi-0.dtd"
   xmlns:xlink="http://www.w3.org/1999/xlink"
   xmlns="http://www.w3.org/2000/svg"
   xmlns:svg="http://www.w3.org/2000/svg">
  <sodipodi:namedview
     id="namedview7"
     pagecolor="#ffffff"
     bordercolor="#666666"
     borderopacity="1.0"
     inkscape:pageshadow="2"
     inkscape:pageopacity="0.0"
     inkscape:pagecheckerboard="0"
     inkscape:document-units="px"
     showgrid="false"
     units="px"
     height="64px"
     inkscape:zoom="12.34375"
     inkscape:cx="31.959494"
     inkscape:cy="32.526582"
     inkscape:window-width="1920"
     inkscape:window-height="1021"
     inkscape:window-x="0"
     inkscape:window-y="0"
     inkscape:window-maximized="1"
     inkscape:current-layer="svg5" />
  <defs
     id="defs2">
    <linearGradient
       inkscape:collect="always"
       xlink:href="#linearGradient12495"
       id="linearGradient12497"
       x1="3.7041574"
       y1="5.15939"
       x2="8.9958239"
       y2="5.15939"
       gradientUnits="userSpaceOnUse" />
    <linearGradient
       inkscape:collect="always"
       id="linearGradient12495">
      <stop
         style="stop-color:#db3328;stop-opacity:1;"
         offset="0"
         id="stop12491" />
      <stop
         style="stop-color:#e53d30;stop-opacity:1"
         offset="1"
         id="stop12493" />
    </linearGradient>
    <linearGradient
       inkscape:collect="always"
       xlink:href="#linearGradient13171"
       id="linearGradient13173"
       x1="4.4023013"
       y1="4.2994838"
       x2="5.9898009"
       y2="7.474484"
       gradientUnits="userSpaceOnUse" />
    <linearGradient
       inkscape:collect="always"
       id="linearGradient13171">
      <stop
         style="stop-color:#32a651;stop-opacity:1;"
         offset="0"
         id="stop13167" />
      <stop
         style="stop-color:#279847;stop-opacity:1"
         offset="1"
         id="stop13169" />
    </linearGradient>
  </defs>
  <path
     id="rect846"
     style="fill:#51565b;stroke-width:1.03703"
     d="M 14 4 C 8.4599996 4 4 8.4599996 4 14 L 4 50 C 4 55.539997 8.4599996 60 14 60 L 50 60 C 55.539997 60 60 55.539997 60 50 L 60 14 C 60 8.4599996 55.539997 4 50 4 L 14 4 z M 15.285156 6 L 48.714844 6 C 53.859125 6 58 10.14087 58 15.285156 L 58 48.714844 C 58 53.859125 53.859125 58 48.714844 58 L 15.285156 58 C 10.14087 58 6 53.859125 6 48.714844 L 6 15.285156 C 6 10.14087 10.14087 6 15.285156 6 z "
     transform="scale(0.26458334)" />
  <path
     id="rect950"
     style="fill:#ffffff;fill-opacity:1;stroke-width:0.264583"
     d="m 3.7041665,1.3229166 h 9.5250005 c 1.319213,0 2.38125,1.0620375 2.38125,2.3812499 v 9.5250005 c 0,1.319213 -1.062037,2.38125 -2.38125,2.38125 H 3.7041665 c -1.3192124,0 -2.3812499,-1.062037 -2.3812499,-2.38125 V 3.7041665 c 0,-1.3192124 1.0620375,-2.3812499 2.3812499,-2.3812499 z" />
  <g
     id="g13900"
     transform="matrix(1.2941176,0,0,1.2941176,0.24901976,0.24901976)">
    <path
       d="m 6.3499908,1.8520833 c -1.6648002,0 -3.1172325,0.9051142 -3.8949803,2.2495046 L 2.6017322,6.7248018 4.4023011,7.4744838 6.3499908,6.3500302 V 4.1010567 H 10.244704 C 9.4668234,2.7569983 8.014591,1.8520833 6.3499908,1.8520833 Z"
       style="fill:url(#linearGradient12497);fill-opacity:1;stroke-width:0.0175699"
       id="path1309" />
    <path
       d="m 1.8521097,6.3500302 c 0,2.4841174 2.013697,4.4978798 4.4978805,4.4978798 L 8.322717,9.7933342 8.2976798,7.4744838 6.3499902,6.3500302 4.4023011,7.4744838 2.4550101,4.1015879 C 2.0722656,4.7632044 1.8520833,5.5305796 1.8520833,6.3499639"
       style="fill:url(#linearGradient13173);fill-opacity:1;stroke-width:0.0175699"
       id="path1449"
       sodipodi:nodetypes="cccccccc" />
    <path
       d="m 6.3500375,6.3500302 1.947689,1.1244536 -1.947689,3.3734262 c 2.4841163,0 4.4978795,-2.0137624 4.4978795,-4.4978798 0,-0.819517 -0.220254,-1.5871712 -0.603213,-2.2489735 H 6.3499908 Z"
       style="fill:#fbbf12;stroke-width:0.0175699"
       id="path1829" />
    <path
       d="m 8.5990112,6.3500302 c 0,1.2420585 -1.0069151,2.2489734 -2.2489737,2.2489734 -1.242059,0 -2.2489739,-1.0069149 -2.2489739,-2.2489734 0,-1.2420588 1.0069149,-2.2489735 2.2489739,-2.2489735 1.2420586,0 2.2489737,1.0069147 2.2489737,2.2489735"
       style="fill:#ffffff;stroke-width:0.0175699"
       id="path2229" />
    <path
       d="m 8.1900571,6.3499997 c 0,1.0162208 -0.8238369,1.8400557 -1.840057,1.8400557 -1.0162207,0 -1.8400568,-0.8238349 -1.8400568,-1.8400557 0,-1.0162204 0.8238361,-1.8400564 1.8400568,-1.8400564 1.0162201,0 1.840057,0.823836 1.840057,1.8400564"
       style="fill:#4688f4;fill-opacity:1;stroke-width:0.0176926"
       id="path2029" />
  </g>
  <path
     id="rect3959"
     style="fill:#414342;fill-opacity:1;stroke-width:0.881167;stroke-linejoin:round"
     d="M 10.363281 36 C 12.244388 46.240317 21.215923 54 32 54 C 42.784071 54 51.75561 46.240317 53.636719 36 L 10.363281 36 z "
     transform="scale(0.26458334)" />
  <path
     id="rect7125"
     style="fill:#ffffff;fill-opacity:1;stroke-width:0.281263;stroke-linejoin:round"
     d="m 5.8208334,10.31875 v 1.987662 H 6.573029 c 0.1055027,0 0.2040301,-0.02382 0.2947255,-0.07194 0.092546,-0.04812 0.1656308,-0.114815 0.2193077,-0.199957 0.055529,-0.08699 0.08286,-0.183899 0.08286,-0.291253 0,-0.109204 -0.031341,-0.20485 -0.094272,-0.286291 C 7.0127182,11.375531 6.9314839,11.318117 6.8315339,11.2848 v -0.01092 c 0.083292,-0.03888 0.1488559,-0.09453 0.1969798,-0.166713 0.049975,-0.07218 0.074922,-0.156303 0.074922,-0.252551 0,-0.101802 -0.025576,-0.193438 -0.077402,-0.274879 -0.051826,-0.08144 -0.1225251,-0.145249 -0.2113696,-0.191522 -0.086994,-0.04627 -0.1803866,-0.06946 -0.2803366,-0.06946 z m 3.3064845,0.172172 v 0.399913 h -0.247093 v 0.21385 h 0.247093 v 0.830095 c 0,0.06663 0.00927,0.122921 0.027784,0.169194 0.01851,0.04627 0.046342,0.08689 0.083361,0.122058 0.033319,0.03147 0.073933,0.05641 0.1220578,0.07492 0.049974,0.01851 0.1038775,0.02778 0.1612557,0.02778 0.044419,0 0.080405,-0.0029 0.1081658,-0.0084 0.02961,-0.0056 0.058572,-0.01483 0.086337,-0.02778 v -0.230248 c -0.049974,0.03146 -0.1021212,0.04713 -0.1557984,0.04713 -0.066639,0 -0.117157,-0.02031 -0.1523244,-0.06103 -0.02961,-0.03702 -0.044651,-0.09443 -0.044651,-0.172172 v -0.771548 h 0.3443443 v -0.21385 H 9.3634953 v -0.399912 z m -3.0732842,0.05259 h 0.4912095 c 0.064782,0 0.1215664,0.01567 0.1696906,0.04713 0.049975,0.03147 0.087709,0.07258 0.1136227,0.122554 0.027765,0.04812 0.041678,0.09689 0.041678,0.146867 0,0.05183 -0.013913,0.102846 -0.041678,0.152821 -0.027763,0.04812 -0.067255,0.08811 -0.1190811,0.119577 -0.049975,0.03147 -0.1085144,0.04713 -0.1751483,0.04713 H 6.0540337 Z m 2.0129666,0.302664 c -0.1369686,0 -0.2575609,0.03423 -0.3612127,0.102708 -0.1036524,0.06848 -0.1837606,0.160121 -0.2411391,0.274878 -0.055529,0.114758 -0.083357,0.240618 -0.083357,0.377587 0,0.142521 0.029585,0.271263 0.088815,0.386021 0.061079,0.112906 0.1451974,0.201662 0.252551,0.266444 0.1073542,0.06478 0.228576,0.09725 0.3636936,0.09725 0.1480738,0 0.2739345,-0.0331 0.3775862,-0.09973 0.1055031,-0.06664 0.18899,-0.157641 0.2500701,-0.272398 l -0.199957,-0.09725 c -0.098099,0.170284 -0.2378742,0.255527 -0.4192646,0.255527 -0.077739,0 -0.1525796,-0.01856 -0.2247659,-0.05557 -0.070335,-0.03702 -0.1288747,-0.09267 -0.1751483,-0.166713 -0.046276,-0.07404 -0.072349,-0.164548 -0.077898,-0.271902 h 1.118866 c 0.0056,-0.02036 0.0084,-0.04419 0.0084,-0.07194 0,-0.140671 -0.027832,-0.2659 -0.083361,-0.375106 -0.053665,-0.109211 -0.1313909,-0.194454 -0.2331912,-0.255534 -0.1018012,-0.06293 -0.221897,-0.09427 -0.3607157,-0.09427 z m 2.4262767,0 c -0.11846,0 -0.226397,0.02432 -0.324496,0.07245 -0.09625,0.04812 -0.1722142,0.114813 -0.2277423,0.199956 l 0.1776293,0.132974 c 0.03886,-0.06108 0.09165,-0.108092 0.158279,-0.141409 0.06664,-0.03516 0.139716,-0.05309 0.219307,-0.05309 0.112906,0 0.2063,0.03247 0.280336,0.09725 0.07404,0.06293 0.111142,0.147049 0.111142,0.252551 v 0.08634 c -0.03886,-0.02406 -0.09516,-0.04549 -0.169193,-0.064 -0.07218,-0.01851 -0.151036,-0.02778 -0.236178,-0.02778 -0.172136,0 -0.314793,0.04287 -0.427699,0.128012 -0.1129065,0.08329 -0.1691949,0.199875 -0.1691949,0.349801 0,0.09069 0.022065,0.17193 0.066484,0.244116 0.044419,0.07033 0.1076009,0.12599 0.1890409,0.166713 0.08144,0.04072 0.173709,0.06103 0.27736,0.06103 0.1018,0 0.193439,-0.02382 0.27488,-0.07194 0.08144,-0.04812 0.142862,-0.106664 0.183583,-0.175148 h 0.01092 v 0.202438 h 0.224769 v -0.896582 c 0,-0.173987 -0.05516,-0.31088 -0.166218,-0.410829 -0.109206,-0.101802 -0.260509,-0.152821 -0.453006,-0.152821 z m -2.4292538,0.21385 c 0.096249,0 0.1757268,0.02031 0.2386583,0.06103 0.064783,0.04072 0.11229,0.09062 0.1419049,0.149844 0.029615,0.05923 0.046413,0.118399 0.050113,0.177629 H 7.6308657 c 0.024063,-0.116608 0.074451,-0.210002 0.15034,-0.280337 0.077738,-0.07218 0.171762,-0.108166 0.2828175,-0.108166 z m -2.0099895,0.341366 h 0.5219721 c 0.070335,0 0.1323874,0.0168 0.1860642,0.05011 0.053677,0.03146 0.09542,0.07384 0.1250353,0.127517 0.029615,0.05183 0.04416,0.105726 0.04416,0.161255 0,0.05553 -0.014544,0.110058 -0.04416,0.163737 -0.027764,0.05183 -0.068381,0.09469 -0.1220578,0.128012 -0.051825,0.03332 -0.1114923,0.04962 -0.1781254,0.04962 H 6.0540337 Z m 4.4645483,0.191524 c 0.07218,0 0.140632,0.0093 0.205414,0.02778 0.06478,0.0185 0.119315,0.04282 0.163736,0.07245 1e-6,0.08144 -0.02031,0.156281 -0.06103,0.224765 -0.04072,0.06848 -0.09525,0.123013 -0.163737,0.163737 -0.06848,0.04072 -0.142695,0.06103 -0.222284,0.06103 -0.09069,0 -0.165536,-0.02382 -0.224766,-0.07194 -0.05923,-0.04812 -0.08882,-0.111302 -0.08882,-0.189041 0,-0.08514 0.03247,-0.154217 0.09725,-0.207896 0.06663,-0.05368 0.164665,-0.08088 0.29423,-0.08088 z" />
</svg>
