<?xml version="1.0" encoding="UTF-8" standalone="no"?>
<!-- Created with Inkscape (http://www.inkscape.org/) -->

<svg
   width="22"
   height="22"
   viewBox="0 0 5.8208331 5.8208335"
   version="1.1"
   id="svg5"
   inkscape:version="1.1.2 (0a00cf5339, 2022-02-04, custom)"
   sodipodi:docname="network-cellular-connected.svg"
   xmlns:inkscape="http://www.inkscape.org/namespaces/inkscape"
   xmlns:sodipodi="http://sodipodi.sourceforge.net/DTD/sodipodi-0.dtd"
   xmlns="http://www.w3.org/2000/svg"
   xmlns:svg="http://www.w3.org/2000/svg">
  <sodipodi:namedview
     id="namedview7"
     pagecolor="#ffffff"
     bordercolor="#666666"
     borderopacity="1.0"
     inkscape:pageshadow="2"
     inkscape:pageopacity="0.0"
     inkscape:pagecheckerboard="0"
     inkscape:document-units="px"
     showgrid="false"
     units="px"
     showguides="false"
     inkscape:zoom="6.265625"
     inkscape:cx="-1.436409"
     inkscape:cy="12.528678"
     inkscape:window-width="1920"
     inkscape:window-height="1019"
     inkscape:window-x="0"
     inkscape:window-y="31"
     inkscape:window-maximized="1"
     inkscape:current-layer="g2412" />
  <defs
     id="defs2" />
  <g
     id="g2412"
     style="fill:#5d656b;fill-opacity:1">
    <path
       id="path1144"
       style="color:#000000;opacity:0.15;fill:#000000;fill-opacity:1;stroke:none;stroke-width:0.165652;-inkscape-stroke:none"
       d="M 4.4979166,2.1166664 4.2333333,2.3812497 H 4.4979166 Z M 4.2333333,2.3812497 3.96875,2.6458331 h 0.2645833 z m 0,0.2645834 V 2.9104164 H 4.4979166 V 2.6458331 Z m 0,0.2645833 H 3.96875 v 0.2645833 h 0.2645833 z m 0,0.2645833 V 3.4395831 H 4.4979166 V 3.1749997 Z m 0,0.2645834 H 3.96875 v 0.2645833 h 0.2645833 z m 0,0.2645833 V 3.9687497 H 4.4979166 V 3.7041664 Z m 0,0.2645833 H 3.96875 v 0.2645834 h 0.2645833 z m 0,0.2645834 V 4.4979164 H 4.4979166 V 4.2333331 Z m -0.2645833,0 H 3.7041666 V 4.4979164 H 3.96875 Z m -0.2645834,0 V 3.9687497 H 3.4395833 v 0.2645834 z m -0.2645833,0 H 3.175 v 0.2645833 h 0.2645833 z m -0.2645833,0 V 3.9687497 H 2.9104166 v 0.2645834 z m -0.2645834,0 H 2.6458333 v 0.2645833 h 0.2645833 z m -0.2645833,0 V 3.9687497 L 2.38125,4.2333331 Z m -0.2645833,0 -0.2645833,0.2645833 H 2.38125 Z M 2.6458333,3.9687497 H 2.9104166 V 3.7041664 Z M 2.9104166,3.7041664 H 3.175 V 3.4395831 Z M 3.175,3.4395831 H 3.4395833 V 3.1749997 Z M 3.4395833,3.1749997 H 3.7041666 V 2.9104164 Z M 3.7041666,2.9104164 H 3.96875 V 2.6458331 Z m 0,0.2645833 V 3.4395831 H 3.96875 V 3.1749997 Z m 0,0.2645834 H 3.4395833 v 0.2645833 h 0.2645833 z m 0,0.2645833 V 3.9687497 H 3.96875 V 3.7041664 Z m -0.2645833,0 H 3.175 v 0.2645833 h 0.2645833 z" />
    <path
       style="color:#000000;fill:#5d656b;fill-opacity:1;stroke:none;-inkscape-stroke:none"
       d="M 5.0270833,0.79375 0.79375,5.0270831 H 5.0270833 Z M 4.7625,1.4552078 v 3.307292 H 1.4552083 Z"
       id="path1146"
       sodipodi:nodetypes="cccccccc" />
  </g>
</svg>
