<?xml version="1.0" encoding="UTF-8" standalone="no"?>
<!-- Created with Inkscape (http://www.inkscape.org/) -->

<svg
   width="22"
   height="22"
   viewBox="0 0 5.8208331 5.8208335"
   version="1.1"
   id="svg5"
   inkscape:version="1.1.2 (0a00cf5339, 2022-02-04, custom)"
   sodipodi:docname="network-cellular-signal-acquiring.svg"
   xmlns:inkscape="http://www.inkscape.org/namespaces/inkscape"
   xmlns:sodipodi="http://sodipodi.sourceforge.net/DTD/sodipodi-0.dtd"
   xmlns="http://www.w3.org/2000/svg"
   xmlns:svg="http://www.w3.org/2000/svg">
  <sodipodi:namedview
     id="namedview7"
     pagecolor="#ffffff"
     bordercolor="#666666"
     borderopacity="1.0"
     inkscape:pageshadow="2"
     inkscape:pageopacity="0.0"
     inkscape:pagecheckerboard="0"
     inkscape:document-units="px"
     showgrid="false"
     units="px"
     showguides="false"
     inkscape:zoom="12.546875"
     inkscape:cx="-6.4557908"
     inkscape:cy="9.1257783"
     inkscape:window-width="1920"
     inkscape:window-height="1019"
     inkscape:window-x="0"
     inkscape:window-y="31"
     inkscape:window-maximized="1"
     inkscape:current-layer="svg5" />
  <defs
     id="defs2" />
  <g
     id="g1009"
     style="fill:#5d656b;fill-opacity:1"
     transform="translate(0.79375,0.79375)">
    <path
       id="path1146"
       style="color:#000000;opacity:0.4;fill:#5d656b;fill-opacity:1;stroke:none;stroke-width:3.77953;-inkscape-stroke:none"
       d="m 16,0 -5,5 h 1.5 L 15,2.5 V 5 h 1 z M 5,11 0,16 h 16 v -5 h -1 v 4 H 2.5 l 4,-4 z"
       transform="scale(0.26458333)" />
    <path
       id="path843"
       style="opacity:1;fill:#5d656b;fill-opacity:1;stroke-width:2.66667;stroke-linejoin:round"
       d="M 2,6 C 0.89543052,6.0000001 5.522847e-8,6.8954305 0,8 5.522847e-8,9.1045695 0.89543052,9.9999999 2,10 3.1045695,9.9999999 3.9999999,9.1045695 4,8 3.9999999,6.8954305 3.1045695,6.0000001 2,6 Z m 6,0 c -1.1045695,1e-7 -1.9999999,0.8954305 -2,2 1e-7,1.1045695 0.8954305,1.9999999 2,2 1.1045695,-10e-8 1.9999999,-0.8954305 2,-2 -10e-8,-1.1045695 -0.8954305,-1.9999999 -2,-2 z m 6,0 c -1.104569,1e-7 -2,0.8954305 -2,2 0,1.1045695 0.895431,1.9999999 2,2 1.104569,-10e-8 2,-0.8954305 2,-2 0,-1.1045695 -0.895431,-1.9999999 -2,-2 z"
       transform="scale(0.26458333)"
       sodipodi:nodetypes="sssssssssssssss" />
  </g>
</svg>
